<svg class="ldi-jr8r2s" width="200" height="200" xmlns="http://www.w3.org/2000/svg" xmlns:xlink="http://www.w3.org/1999/xlink" viewBox="0 0 100 100" preserveAspectRatio="xMidYMid" style="background:0 0" data-ember-extension="1"><svg id="Layer_1" xmlns="http://www.w3.org/2000/svg" viewBox="0 0 100 100" style="transform-origin:50px 50px 0"><g style="transform-origin:50px 50px 0;transform:scale(.6)"><g style="transform-origin:50px 50px 0"><style>.st7{fill:#333}.st10,.st15{stroke-width:3.5;stroke-miterlimit:10}.st10{fill:none;stroke:#333}.st15{opacity:.2;stroke-linejoin:round;stroke:#000}</style><g class="ld ld-breath" style="transform-origin:50px 50px 0;animation-duration:1s;animation-delay:-.96s"><ellipse class="st10" cx="50" cy="50" rx="15" ry="39" stroke="#333"/></g><g class="ld ld-breath" style="transform-origin:50px 50px 0;animation-duration:1s;animation-delay:-.92s"><ellipse transform="rotate(-60 50 50.002)" class="st10" cx="50" cy="50" rx="15" ry="39" stroke="#333"/></g><g class="ld ld-breath" style="transform-origin:50px 50px 0;animation-duration:1s;animation-delay:-.88s"><ellipse transform="rotate(-30 49.997 50.002)" class="st10" cx="50" cy="50" rx="39" ry="15" stroke="#333"/></g><circle cx="50" cy="50" r="9" stroke="#333" fill="#f7b26a" stroke-width="3.5" stroke-miterlimit="10" style="stroke:#333;fill:#f7b26a;stroke-width:3.5;stroke-miterlimit:10"/><g class="ld ld-breath" style="transform-origin:50px 50px 0;animation-duration:1s;animation-delay:-.8s"><path class="st15" d="M55.04 42.543c.352 2.39.084 5.108-.924 7.799-1.457 3.889-4.106 6.826-6.998 8.178.906.306 1.873.48 2.882.48a9 9 0 0 0 5.04-16.457z" fill="#f0d848" stroke="#000"/></g><circle cx="84.319" cy="69.814" r="6" stroke="#333" fill="#77a4bd" stroke-width="3.5" stroke-miterlimit="10" style="stroke:#333;fill:#77a4bd;stroke-width:3.5;stroke-miterlimit:10"/><circle cx="18" cy="41.25" r="6" stroke="#333" fill="#e15c64" stroke-width="3.5" stroke-miterlimit="10" style="stroke:#333;fill:#e15c64;stroke-width:3.5;stroke-miterlimit:10"/><g class="ld ld-breath" style="transform-origin:50px 50px 0;animation-duration:1s;animation-delay:-.68s"><path class="st15" d="M22.904 37.8c-.259.994-.627 2.01-1.121 3.017-1.443 2.944-3.577 5.128-5.696 6.116a5.99 5.99 0 0 0 1.912.317 6 6 0 0 0 6-6 5.963 5.963 0 0 0-1.095-3.45z" fill="#f0d848" stroke="#000"/></g><circle cx="59" cy="20" r="6" stroke="#333" fill="#acbd81" stroke-width="3.5" stroke-miterlimit="10" style="stroke:#333;fill:#acbd81;stroke-width:3.5;stroke-miterlimit:10"/><g class="ld ld-breath" style="transform-origin:50px 50px 0;animation-duration:1s;animation-delay:-.6s"><path class="st15" d="M63.948 16.55c-.259.994-.627 2.01-1.121 3.017-1.443 2.944-3.577 5.128-5.696 6.116a5.968 5.968 0 0 0 1.913.317 6 6 0 0 0 6-6 5.97 5.97 0 0 0-1.096-3.45z" fill="#f0d848" stroke="#000"/></g><g class="ld ld-breath" style="transform-origin:50px 50px 0;animation-duration:1s;animation-delay:-.56s"><path class="st15" d="M89.223 66.364c-.259.994-.627 2.01-1.121 3.017-1.443 2.944-3.577 5.128-5.696 6.116a5.99 5.99 0 0 0 1.912.317 6 6 0 0 0 6-6 5.963 5.963 0 0 0-1.095-3.45z" fill="#f0d848" stroke="#000"/></g><g class="ld ld-breath" style="transform-origin:50px 50px 0;animation-duration:1s;animation-delay:-.52s"><circle class="st7" cx="21.25" cy="18.025" r="3.25" fill="#333" stroke="#333"/></g><g class="ld ld-breath" style="transform-origin:50px 50px 0;animation-duration:1s;animation-delay:-.48s"><circle class="st7" cx="77.456" cy="12.7" r="4.95" fill="#333" stroke="#333"/></g><g class="ld ld-breath" style="transform-origin:50px 50px 0;animation-duration:1s;animation-delay:-.44s"><circle class="st7" cx="69.481" cy="82.608" r="3.025" fill="#333" stroke="#333"/></g><g class="ld ld-breath" style="transform-origin:50px 50px 0;animation-duration:1s;animation-delay:-.4s"><circle class="st7" cx="78.319" cy="86.598" r="2.125" fill="#333" stroke="#333"/></g></g></g><style>@keyframes ld-breath{0%,to{-webkit-transform:scale(.86);transform:scale(.86)}50%{-webkit-transform:scale(1.06);transform:scale(1.06)}}@-webkit-keyframes ld-breath{0%,to{-webkit-transform:scale(.86);transform:scale(.86)}50%{-webkit-transform:scale(1.06);transform:scale(1.06)}}circle,ellipse,path{stroke-width:0}.ld.ld-breath{-webkit-animation:ld-breath 1s infinite;animation:ld-breath 1s infinite}</style></svg></svg>