<svg xmlns="http://www.w3.org/2000/svg" height="20" width="20"><path d="M3.778 3.214C2.796 3.214 2 4.03 2 5.024V17.69c0 .996.796 1.81 1.778 1.81h12.444c.982 0 1.778-.814 1.778-1.81V5.024c0-.995-.796-1.81-1.778-1.81z" fill="#bdc3c7"/><path d="M3.778 2.31A1.778 1.81 0 0 0 2 4.119v12.667a1.778 1.81 0 0 0 1.778 1.81h12.444A1.778 1.81 0 0 0 18 16.785V4.119a1.778 1.81 0 0 0-1.778-1.81z" fill="#ecf0f1"/><path d="M3.778 2.31C2.796 2.31 2 3.124 2 4.119v2.714h16V4.12c0-.995-.796-1.81-1.778-1.81z" fill="#72d13d"/><path d="M6 4.571a1.333 1.357 0 1 1-2.667 0 1.333 1.357 0 1 1 2.667 0z" fill="#4aac46"/><path d="M4.667.5a.889.905 0 0 0-.89.905v2.714a.889.905 0 1 0 1.779 0V1.405A.889.905 0 0 0 4.666.5z" fill="#bdc3c7"/><path d="M16.667 4.571a1.333 1.357 0 1 1-2.667 0 1.333 1.357 0 1 1 2.667 0z" fill="#4aac46"/><path d="M15.333.5c-.49 0-.889.362-.889.905v2.714c0 .452.399.905.89.905.49 0 .888-.453.888-.905V1.405c0-.543-.398-.905-.889-.905zM3.778 9.548v1.81h1.778v-1.81zm2.666 0v1.81h1.778v-1.81zm2.667 0v1.81h1.778v-1.81zm2.667 0v1.81h1.778v-1.81zm2.666 0v1.81h1.778v-1.81zM3.778 12.262v1.81h1.778v-1.81zm2.666 0v1.81h1.778v-1.81zm2.667 0v1.81h1.778v-1.81zm2.667 0v1.81h1.778v-1.81zm2.666 0v1.81h1.778v-1.81zM3.778 14.976v1.81h1.778v-1.81zm2.666 0v1.81h1.778v-1.81zm2.667 0v1.81h1.778v-1.81zm2.667 0v1.81h1.778v-1.81zm2.666 0v1.81h1.778v-1.81z" fill="#bdc3c7"/><path d="M2 6.833h16v.905H2z" fill="#4aac46"/></svg>