<?xml version="1.0" encoding="UTF-8" standalone="no"?>
<!-- Created with Inkscape (http://www.inkscape.org/) -->

<svg
   version="1.0"
   width="280"
   height="280"
   id="svg2"
   sodipodi:version="0.32"
   inkscape:version="1.1.2 (0a00cf5339, 2022-02-04)"
   sodipodi:docname="icon.svg"
   inkscape:output_extension="org.inkscape.output.svg.inkscape"
   inkscape:export-filename="/mnt/nfs/geokrety/templates/logo-jesien.png"
   inkscape:export-xdpi="131.54472"
   inkscape:export-ydpi="131.54472"
   xmlns:inkscape="http://www.inkscape.org/namespaces/inkscape"
   xmlns:sodipodi="http://sodipodi.sourceforge.net/DTD/sodipodi-0.dtd"
   xmlns="http://www.w3.org/2000/svg"
   xmlns:svg="http://www.w3.org/2000/svg"
   xmlns:rdf="http://www.w3.org/1999/02/22-rdf-syntax-ns#"
   xmlns:cc="http://creativecommons.org/ns#"
   xmlns:dc="http://purl.org/dc/elements/1.1/">
  <metadata
     id="metadata32">
    <rdf:RDF>
      <cc:Work
         rdf:about="">
        <dc:format>image/svg+xml</dc:format>
        <dc:type
           rdf:resource="http://purl.org/dc/dcmitype/StillImage" />
      </cc:Work>
    </rdf:RDF>
  </metadata>
  <sodipodi:namedview
     inkscape:window-height="1376"
     inkscape:window-width="1245"
     inkscape:pageshadow="2"
     inkscape:pageopacity="0.0"
     guidetolerance="10.0"
     gridtolerance="10.0"
     objecttolerance="10.0"
     borderopacity="1.0"
     bordercolor="#666666"
     pagecolor="#ffffff"
     id="base"
     showgrid="false"
     inkscape:zoom="1.1301219"
     inkscape:cx="138.03821"
     inkscape:cy="280.05828"
     inkscape:window-x="3805"
     inkscape:window-y="27"
     inkscape:current-layer="g967"
     inkscape:window-maximized="0"
     fit-margin-top="0"
     fit-margin-left="0"
     fit-margin-right="0"
     fit-margin-bottom="0"
     inkscape:pagecheckerboard="0"
     inkscape:snap-bbox="true"
     inkscape:bbox-nodes="true"
     showguides="true"
     inkscape:guide-bbox="true"
     inkscape:snap-smooth-nodes="true"
     inkscape:snap-intersection-paths="true">
    <sodipodi:guide
       position="0.0031022925,2.3378902"
       orientation="1,0"
       id="guide141595" />
    <sodipodi:guide
       position="0.0031022925,280"
       orientation="0,-1"
       id="guide142293" />
    <sodipodi:guide
       position="280,0"
       orientation="0,1"
       id="guide142375"
       inkscape:label=""
       inkscape:locked="false"
       inkscape:color="rgb(0,0,255)" />
    <sodipodi:guide
       position="280,0"
       orientation="1,0"
       id="guide142377" />
    <sodipodi:guide
       position="51.343263,259.99982"
       orientation="0,-1"
       id="guide148053" />
  </sodipodi:namedview>
  <defs
     id="defs4">
    <inkscape:path-effect
       effect="skeletal"
       id="path-effect147502"
       is_visible="true"
       lpeversion="1"
       pattern="m 14.504818,14.021376 h 0.89489"
       copytype="repeated_stretched"
       prop_scale="1"
       scale_y_rel="false"
       spacing="0"
       normal_offset="0"
       tang_offset="0"
       prop_units="false"
       vertical_pattern="false"
       hide_knot="false"
       fuse_tolerance="0" />
    <inkscape:path-effect
       effect="skeletal"
       id="path-effect143447"
       is_visible="true"
       lpeversion="1"
       pattern="M 3.3370863,9.9999945e-8 A 3.3339844,3.3339844 0 0 1 0.00310229,3.3339844 3.3339844,3.3339844 0 0 1 -3.3308827,9.9999945e-8 3.3339844,3.3339844 0 0 1 0.00310229,-3.3339843 3.3339844,3.3339844 0 0 1 3.3370863,9.9999945e-8 Z"
       copytype="repeated"
       prop_scale="1"
       scale_y_rel="false"
       spacing="1.7"
       normal_offset="0"
       tang_offset="0"
       prop_units="false"
       vertical_pattern="false"
       hide_knot="false"
       fuse_tolerance="0" />
    <inkscape:path-effect
       effect="skeletal"
       id="path-effect143425"
       is_visible="true"
       lpeversion="1"
       pattern="M 3.3370863,9.9999945e-8 A 3.3339844,3.3339844 0 0 1 0.00310229,3.3339844 3.3339844,3.3339844 0 0 1 -3.3308827,9.9999945e-8 3.3339844,3.3339844 0 0 1 0.00310229,-3.3339843 3.3339844,3.3339844 0 0 1 3.3370863,9.9999945e-8 Z"
       copytype="repeated_stretched"
       prop_scale="0.04"
       scale_y_rel="false"
       spacing="3.2"
       normal_offset="0.1"
       tang_offset="0"
       prop_units="false"
       vertical_pattern="false"
       hide_knot="false"
       fuse_tolerance="0" />
    <inkscape:path-effect
       effect="skeletal"
       id="path-effect143106"
       is_visible="true"
       lpeversion="1"
       pattern="m 14.504818,14.021376 h 0.89489"
       copytype="repeated_stretched"
       prop_scale="1"
       scale_y_rel="false"
       spacing="0"
       normal_offset="0"
       tang_offset="0"
       prop_units="false"
       vertical_pattern="false"
       hide_knot="false"
       fuse_tolerance="0" />
    <inkscape:path-effect
       effect="skeletal"
       id="path-effect143090"
       is_visible="true"
       lpeversion="1"
       pattern="M 0,0 H 1"
       copytype="repeated_stretched"
       prop_scale="1"
       scale_y_rel="false"
       spacing="0"
       normal_offset="0"
       tang_offset="0"
       prop_units="false"
       vertical_pattern="false"
       hide_knot="false"
       fuse_tolerance="0" />
    <inkscape:perspective
       sodipodi:type="inkscape:persp3d"
       inkscape:vp_x="0 : 17.129309 : 1"
       inkscape:vp_y="0 : 1000 : 0"
       inkscape:vp_z="197.98587 : 17.129309 : 1"
       inkscape:persp3d-origin="98.992935 : 11.419539 : 1"
       id="perspective34" />
    <inkscape:perspective
       id="perspective2736"
       inkscape:persp3d-origin="372.04724 : 350.78739 : 1"
       inkscape:vp_z="744.09448 : 526.18109 : 1"
       inkscape:vp_y="0 : 1000 : 0"
       inkscape:vp_x="0 : 526.18109 : 1"
       sodipodi:type="inkscape:persp3d" />
    <inkscape:perspective
       id="perspective3687"
       inkscape:persp3d-origin="372.04724 : 350.78739 : 1"
       inkscape:vp_z="744.09448 : 526.18109 : 1"
       inkscape:vp_y="0 : 1000 : 0"
       inkscape:vp_x="0 : 526.18109 : 1"
       sodipodi:type="inkscape:persp3d" />
    <inkscape:perspective
       id="perspective3743"
       inkscape:persp3d-origin="0.5 : 0.33333333 : 1"
       inkscape:vp_z="1 : 0.5 : 1"
       inkscape:vp_y="0 : 1000 : 0"
       inkscape:vp_x="0 : 0.5 : 1"
       sodipodi:type="inkscape:persp3d" />
    <linearGradient
       id="linearGradient4015">
      <stop
         style="stop-color:#ffffff;stop-opacity:0.37606838;"
         offset="0"
         id="stop4017" />
      <stop
         id="stop4023"
         offset="0.40085495"
         style="stop-color:#5c5c5c;stop-opacity:0.08547009;" />
      <stop
         style="stop-color:#1f1f1f;stop-opacity:0.44444445;"
         offset="1"
         id="stop4019" />
    </linearGradient>
  </defs>
  <g
     id="g143925" />
  <g
     id="g967"
     transform="matrix(0.45066883,0,0,0.45066883,24.630583,24.630583)">
    <path
       style="fill:#656d78"
       d="M 96.01,0 C 72.48,0 53.34,19.141 53.34,42.671 v 383.995 c 0,5.891 4.765,10.656 10.671,10.656 h 53.327 V 0 Z"
       id="path2-3" />
    <path
       style="fill:#e6e9ed"
       d="m 96.01,394.666 c -17.687,0 -31.999,14.328 -31.999,32 0,17.672 14.312,31.998 31.999,31.998 h 351.986 v -63.998 z"
       id="path4-6" />
    <path
       style="fill:#3975f7;fill-opacity:1"
       d="M 458.652,10.672 C 458.652,4.781 453.871,0 447.996,0 H 117.339 v 21.336 0 362.658 0 21.328 h 119.264 211.394 c 5.875,0 10.656,-4.766 10.656,-10.656 v 0 -383.994 z"
       id="path6-7" />
    <g
       id="g12">
      <path
         style="fill:#ccd1d9"
         d="m 192.01,437.322 h -85.343 c -5.875,0 -10.656,-4.766 -10.656,-10.656 0,-5.89 4.781,-10.672 10.656,-10.672 h 85.343 c 5.891,0 10.656,4.781 10.656,10.672 0,5.891 -4.766,10.656 -10.656,10.656 z"
         id="path8-5" />
      <path
         style="fill:#ccd1d9"
         d="m 362.654,415.994 c -5.875,0 -10.656,4.781 -10.656,10.672 0,5.891 4.781,10.656 10.656,10.656 h 85.342 v -21.328 z"
         id="path10-3" />
    </g>
    <rect
       x="160.007"
       y="74.666"
       style="fill:#e6e9ed"
       width="245.33"
       height="128"
       id="rect14" />
    <g
       id="g28">
      <path
         style="fill:#434a54"
         d="m 64.011,85.335 c 5.891,0 10.656,-4.773 10.656,-10.664 0,-5.891 -4.766,-10.672 -10.656,-10.672 H 53.339 v 21.336 z"
         id="path16" />
      <path
         style="fill:#434a54"
         d="m 64.011,149.334 c 5.891,0 10.656,-4.773 10.656,-10.664 0,-5.89 -4.766,-10.671 -10.656,-10.671 H 53.339 v 21.335 z"
         id="path18" />
      <path
         style="fill:#434a54"
         d="m 64.011,213.332 c 5.891,0 10.656,-4.773 10.656,-10.664 0,-5.89 -4.766,-10.671 -10.656,-10.671 H 53.339 v 21.335 z"
         id="path20" />
      <path
         style="fill:#434a54"
         d="m 64.011,277.324 c 5.891,0 10.656,-4.766 10.656,-10.656 0,-5.89 -4.766,-10.672 -10.656,-10.672 H 53.339 v 21.328 z"
         id="path22" />
      <path
         style="fill:#434a54"
         d="m 64.011,341.324 c 5.891,0 10.656,-4.766 10.656,-10.656 0,-5.89 -4.766,-10.672 -10.656,-10.672 H 53.339 v 21.328 z"
         id="path24" />
      <path
         style="fill:#434a54"
         d="m 362.654,149.334 h -159.99 c -5.875,0 -10.656,-4.773 -10.656,-10.664 0,-5.89 4.781,-10.671 10.656,-10.671 h 159.99 c 5.906,0 10.688,4.781 10.688,10.671 0,5.89 -4.782,10.664 -10.688,10.664 z"
         id="path26-5" />
    </g>
    <path
       style="fill:#3975f7;fill-opacity:1"
       d="m 458.652,458.664 c 0,-5.891 -4.781,-10.672 -10.656,-10.672 H 236.602 117.339 v 21.328 h 330.658 c 5.874,0 10.655,-4.765 10.655,-10.656 z"
       id="path30" />
    <path
       style="fill:#656d78"
       d="M 117.339,447.992 H 96.01 c -11.765,0 -21.343,-9.576 -21.343,-21.326 0,-11.766 9.578,-21.344 21.343,-21.344 h 21.328 V 383.994 H 96.01 c -23.53,0 -42.67,19.141 -42.67,42.672 0,23.514 19.14,42.654 42.67,42.654 h 21.328 c 0,0 0,-21.328 0.001,-21.328 z"
       id="path32" />
    <path
       style="fill:#dd2e44;fill-opacity:1"
       d="m 181.338,426.666 h -10.671 -42.656 -10.672 -10.672 v 74.654 c 0,3.438 1.656,6.656 4.438,8.656 2.782,2 6.359,2.547 9.609,1.469 l 28.625,-9.547 28.625,9.547 c 1.109,0.359 2.234,0.547 3.375,0.547 2.203,0 4.391,-0.688 6.234,-2.016 2.781,-2 4.438,-5.219 4.438,-8.656 v -74.654 z"
       id="path34" />
  </g>
</svg>
