<?xml version="1.0" encoding="UTF-8" standalone="no"?>
<!-- Created with Inkscape (http://www.inkscape.org/) -->

<svg
   version="1.0"
   width="280"
   height="280"
   id="svg2"
   sodipodi:version="0.32"
   inkscape:version="1.1.2 (0a00cf5339, 2022-02-04)"
   sodipodi:docname="icon.svg"
   inkscape:output_extension="org.inkscape.output.svg.inkscape"
   inkscape:export-filename="/mnt/nfs/geokrety/templates/logo-jesien.png"
   inkscape:export-xdpi="131.54472"
   inkscape:export-ydpi="131.54472"
   xmlns:inkscape="http://www.inkscape.org/namespaces/inkscape"
   xmlns:sodipodi="http://sodipodi.sourceforge.net/DTD/sodipodi-0.dtd"
   xmlns="http://www.w3.org/2000/svg"
   xmlns:svg="http://www.w3.org/2000/svg"
   xmlns:rdf="http://www.w3.org/1999/02/22-rdf-syntax-ns#"
   xmlns:cc="http://creativecommons.org/ns#"
   xmlns:dc="http://purl.org/dc/elements/1.1/">
  <metadata
     id="metadata32">
    <rdf:RDF>
      <cc:Work
         rdf:about="">
        <dc:format>image/svg+xml</dc:format>
        <dc:type
           rdf:resource="http://purl.org/dc/dcmitype/StillImage" />
      </cc:Work>
    </rdf:RDF>
  </metadata>
  <sodipodi:namedview
     inkscape:window-height="1376"
     inkscape:window-width="2490"
     inkscape:pageshadow="2"
     inkscape:pageopacity="0.0"
     guidetolerance="10.0"
     gridtolerance="10.0"
     objecttolerance="10.0"
     borderopacity="1.0"
     bordercolor="#666666"
     pagecolor="#ffffff"
     id="base"
     showgrid="false"
     inkscape:zoom="2.5865698"
     inkscape:cx="143.62651"
     inkscape:cy="147.49264"
     inkscape:window-x="2560"
     inkscape:window-y="27"
     inkscape:current-layer="svg2"
     inkscape:window-maximized="1"
     fit-margin-top="0"
     fit-margin-left="0"
     fit-margin-right="0"
     fit-margin-bottom="0"
     inkscape:pagecheckerboard="0"
     inkscape:snap-bbox="true"
     inkscape:bbox-nodes="true"
     showguides="true"
     inkscape:guide-bbox="true"
     inkscape:snap-smooth-nodes="true"
     inkscape:snap-intersection-paths="true">
    <sodipodi:guide
       position="0.0031022925,2.3378902"
       orientation="1,0"
       id="guide141595" />
    <sodipodi:guide
       position="0.0031022925,280"
       orientation="0,-1"
       id="guide142293" />
    <sodipodi:guide
       position="280,0"
       orientation="0,1"
       id="guide142375"
       inkscape:label=""
       inkscape:locked="false"
       inkscape:color="rgb(0,0,255)" />
    <sodipodi:guide
       position="280,0"
       orientation="1,0"
       id="guide142377" />
    <sodipodi:guide
       position="51.343263,259.99982"
       orientation="0,-1"
       id="guide148053" />
  </sodipodi:namedview>
  <defs
     id="defs4">
    <inkscape:path-effect
       effect="skeletal"
       id="path-effect147502"
       is_visible="true"
       lpeversion="1"
       pattern="m 14.504818,14.021376 h 0.89489"
       copytype="repeated_stretched"
       prop_scale="1"
       scale_y_rel="false"
       spacing="0"
       normal_offset="0"
       tang_offset="0"
       prop_units="false"
       vertical_pattern="false"
       hide_knot="false"
       fuse_tolerance="0" />
    <inkscape:path-effect
       effect="skeletal"
       id="path-effect143447"
       is_visible="true"
       lpeversion="1"
       pattern="M 3.3370863,9.9999945e-8 A 3.3339844,3.3339844 0 0 1 0.00310229,3.3339844 3.3339844,3.3339844 0 0 1 -3.3308827,9.9999945e-8 3.3339844,3.3339844 0 0 1 0.00310229,-3.3339843 3.3339844,3.3339844 0 0 1 3.3370863,9.9999945e-8 Z"
       copytype="repeated"
       prop_scale="1"
       scale_y_rel="false"
       spacing="1.7"
       normal_offset="0"
       tang_offset="0"
       prop_units="false"
       vertical_pattern="false"
       hide_knot="false"
       fuse_tolerance="0" />
    <inkscape:path-effect
       effect="skeletal"
       id="path-effect143425"
       is_visible="true"
       lpeversion="1"
       pattern="M 3.3370863,9.9999945e-8 A 3.3339844,3.3339844 0 0 1 0.00310229,3.3339844 3.3339844,3.3339844 0 0 1 -3.3308827,9.9999945e-8 3.3339844,3.3339844 0 0 1 0.00310229,-3.3339843 3.3339844,3.3339844 0 0 1 3.3370863,9.9999945e-8 Z"
       copytype="repeated_stretched"
       prop_scale="0.04"
       scale_y_rel="false"
       spacing="3.2"
       normal_offset="0.1"
       tang_offset="0"
       prop_units="false"
       vertical_pattern="false"
       hide_knot="false"
       fuse_tolerance="0" />
    <inkscape:path-effect
       effect="skeletal"
       id="path-effect143106"
       is_visible="true"
       lpeversion="1"
       pattern="m 14.504818,14.021376 h 0.89489"
       copytype="repeated_stretched"
       prop_scale="1"
       scale_y_rel="false"
       spacing="0"
       normal_offset="0"
       tang_offset="0"
       prop_units="false"
       vertical_pattern="false"
       hide_knot="false"
       fuse_tolerance="0" />
    <inkscape:path-effect
       effect="skeletal"
       id="path-effect143090"
       is_visible="true"
       lpeversion="1"
       pattern="M 0,0 H 1"
       copytype="repeated_stretched"
       prop_scale="1"
       scale_y_rel="false"
       spacing="0"
       normal_offset="0"
       tang_offset="0"
       prop_units="false"
       vertical_pattern="false"
       hide_knot="false"
       fuse_tolerance="0" />
    <inkscape:perspective
       sodipodi:type="inkscape:persp3d"
       inkscape:vp_x="0 : 17.129309 : 1"
       inkscape:vp_y="0 : 1000 : 0"
       inkscape:vp_z="197.98587 : 17.129309 : 1"
       inkscape:persp3d-origin="98.992935 : 11.419539 : 1"
       id="perspective34" />
    <inkscape:perspective
       id="perspective2736"
       inkscape:persp3d-origin="372.04724 : 350.78739 : 1"
       inkscape:vp_z="744.09448 : 526.18109 : 1"
       inkscape:vp_y="0 : 1000 : 0"
       inkscape:vp_x="0 : 526.18109 : 1"
       sodipodi:type="inkscape:persp3d" />
    <inkscape:perspective
       id="perspective3687"
       inkscape:persp3d-origin="372.04724 : 350.78739 : 1"
       inkscape:vp_z="744.09448 : 526.18109 : 1"
       inkscape:vp_y="0 : 1000 : 0"
       inkscape:vp_x="0 : 526.18109 : 1"
       sodipodi:type="inkscape:persp3d" />
    <inkscape:perspective
       id="perspective3743"
       inkscape:persp3d-origin="0.5 : 0.33333333 : 1"
       inkscape:vp_z="1 : 0.5 : 1"
       inkscape:vp_y="0 : 1000 : 0"
       inkscape:vp_x="0 : 0.5 : 1"
       sodipodi:type="inkscape:persp3d" />
    <linearGradient
       id="linearGradient4015">
      <stop
         style="stop-color:#ffffff;stop-opacity:0.37606838;"
         offset="0"
         id="stop4017" />
      <stop
         id="stop4023"
         offset="0.40085495"
         style="stop-color:#5c5c5c;stop-opacity:0.08547009;" />
      <stop
         style="stop-color:#1f1f1f;stop-opacity:0.44444445;"
         offset="1"
         id="stop4019" />
    </linearGradient>
  </defs>
  <g
     id="g143925" />
  <g
     id="g1297"
     transform="matrix(0.48969525,0,0,0.48969525,14.638017,14.638017)">
    <path
       style="fill:#3d7a94"
       d="m 499.8,357.55 c 0,-78.5 -98.8,-131.3 -243.8,-131.3 -145,0 -243.8,52.8 -243.8,131.3 0,78.5 98.8,131.3 243.8,131.3 145,0 243.8,-52.8 243.8,-131.3 z"
       id="path1259" />
    <path
       style="fill:#6badb4"
       d="m 75,222.15 c 0,58.3 73.3,97.5 181,97.5 107.7,0 181,-39.2 181,-97.5 0,-58.3 -73.3,-97.5 -181,-97.5 -107.7,0 -181,39.2 -181,97.5 z"
       id="path1261" />
    <path
       style="fill:#83c7c3"
       d="m 374.2,86.65 c 0,38 -47.9,63.6 -118.2,63.6 -70.3,0 -118.2,-25.6 -118.2,-63.6 0,-38 47.9,-63.6 118.2,-63.6 70.3,0 118.2,25.6 118.2,63.6 z"
       id="path1263" />
    <g
       id="g1279">
	<path
   style="fill:#000030"
   d="m 464.4,268.75 c -5.3,-4.1 -13,-3.2 -17.1,2.2 -4.1,5.3 -3.1,13 2.2,17.1 25.3,19.6 38.1,43 38.1,69.6 0,42.6 -33.2,69.4 -61.1,84.3 -42.3,22.7 -101.3,34.8 -170.5,34.8 -69.2,0 -128.2,-12 -170.5,-34.8 -27.9,-15 -61.1,-41.8 -61.1,-84.3 0,-26.6 12.8,-50 38.1,-69.6 5.3,-4.1 6.3,-11.8 2.2,-17.1 -4.1,-5.3 -11.8,-6.3 -17.1,-2.2 -31.1,24.1 -47.6,54.8 -47.6,88.8 0,85.8 102.9,143.5 256,143.5 153.1,0 256,-57.7 256,-143.5 0,-34 -16.5,-64.7 -47.6,-88.8 z"
   id="path1265" />

	<path
   style="fill:#000030"
   d="m 256,331.75 c 115.5,0 193.2,-44.1 193.2,-109.6 0,-34.6 -22,-64.5 -62.1,-84.1 -6,-3 -13.3,-0.5 -16.3,5.6 -3,6 -0.5,13.3 5.6,16.3 22.1,10.9 48.4,30.5 48.4,62.3 0,30.1 -23.8,49.1 -43.7,59.8 -30.5,16.4 -74.9,25.4 -125.1,25.4 -50.2,0 -94.6,-9 -125.1,-25.4 -19.9,-10.7 -43.7,-29.8 -43.7,-59.8 0,-31.8 26.3,-51.4 48.4,-62.3 6,-3 8.5,-10.3 5.6,-16.3 -3,-6 -10.3,-8.5 -16.3,-5.6 -40,19.7 -62.1,49.5 -62.1,84.1 0,65.6 77.7,109.6 193.2,109.6 z"
   id="path1267" />

	<path
   style="fill:#000030"
   d="m 256,162.55 c 78,0 130.3,-30.5 130.3,-75.8 0,-45.3 -52.4,-75.8 -130.3,-75.8 -77.9,0 -130.3,30.4 -130.3,75.7 0,45.4 52.3,75.9 130.3,75.9 z m 0,-127.3 c 62.4,0 106,21.1 106,51.4 0,30.3 -43.6,51.4 -106,51.4 -62.4,0 -106,-21.1 -106,-51.4 0,-30.3 43.6,-51.4 106,-51.4 z"
   id="path1269" />

	<path
   style="fill:#000030"
   d="m 312.6,61.85 c -5.8,0 -10.6,4.8 -10.6,10.6 0,5.8 4.8,10.6 10.6,10.6 5.8,0 10.6,-4.8 10.6,-10.6 0,-5.8 -4.8,-10.6 -10.6,-10.6 z"
   id="path1271" />

	<path
   style="fill:#000030"
   d="m 134.2,239.05 c -5.9,0 -10.6,-4.8 -10.6,-10.6 0,-5.8 4.8,-10.6 10.6,-10.6 5.8,0 10.6,4.8 10.6,10.6 0,5.8 -4.8,10.6 -10.6,10.6 z"
   id="path1273" />

	<path
   style="fill:#000030"
   d="m 175.3,269.85 c -5.9,0 -10.6,-4.8 -10.6,-10.6 0,-5.9 4.8,-10.6 10.6,-10.6 5.8,0 10.6,4.8 10.6,10.6 0,5.8 -4.8,10.6 -10.6,10.6 z"
   id="path1275" />

	<path
   style="fill:#000030"
   d="m 423.8,394.15 c -5.8,0 -10.6,-4.8 -10.6,-10.6 0,-5.9 4.8,-10.6 10.6,-10.6 5.9,0 10.6,4.8 10.6,10.6 0,5.9 -4.7,10.6 -10.6,10.6 z"
   id="path1277" />

</g>
  </g>
</svg>
