<svg width="351.403" height="150.01" xmlns="http://www.w3.org/2000/svg"><path style="fill:#1a1a1a" d="M13.54 292.274c-13.495-4.6-25.65-9.191-27.014-10.201-3.74-2.77-6.19-7.663-6.126-12.239.098-7.116 10.629-27.166 23.299-44.36 26.687-36.219 68.041-62.629 111.742-71.362 87.03-17.392 170.609 21.724 209.732 98.158 6.528 12.756 7.66 17.07 5.86 22.345-2.238 6.557-5.366 8.372-27.724 16.08-29.858 10.294-29.099 10.1-33.559 8.567-5.14-1.767-8.19-4.85-11.75-11.876-8.081-15.956-22.346-32.32-36.452-41.817-20.2-13.599-39.22-19.17-65.45-19.17-26.229 0-45.25 5.571-65.449 19.17-13.954 9.395-28.518 26.035-36.164 41.32-4.096 8.187-7.143 11.093-13.566 12.935-2.295.658-7.592-.802-27.38-7.55z" transform="translate(19.601 -150.024)"/><path style="fill:#fff" d="M72.884 245.505c-5.411 4.498-7.597 6.771-12.003 13.139-54.467-51.7-50.478-57.717 12.003-13.139Z" transform="translate(19.601 -150.024)"/></svg>