<?xml version="1.0" encoding="UTF-8" standalone="no"?><!--Created with Inkscape (http://www.inkscape.org/)--><svg sodipodi:version=".32" inkscape:version=".39" width="800" height="800" sodipodi:docname="Geocaching.svg" xmlns="http://www.w3.org/2000/svg" xmlns:cc="http://web.resource.org/cc/" xmlns:inkscape="http://www.inkscape.org/namespaces/inkscape" xmlns:sodipodi="http://sodipodi.sourceforge.net/DTD/sodipodi-0.dtd" xmlns:rdf="http://www.w3.org/1999/02/22-rdf-syntax-ns#" xmlns:dc="http://purl.org/dc/elements/1.1/" sodipodi:docbase="/home/jpkontio/Projects/Geocaching/Images" data-ember-extension="1"><sodipodi:namedview pagecolor="#ffffff" bordercolor="#666666" borderopacity="1" inkscape:pageopacity="0" inkscape:pageshadow="2" inkscape:zoom=".499" inkscape:cx="515.714" inkscape:cy="337.57" inkscape:window-width="740" inkscape:window-height="641" inkscape:window-x="148" inkscape:window-y="31"/><metadata><rdf:RDF><cc:Work><dc:format>image/svg+xml</dc:format><dc:type rdf:resource="http://purl.org/dc/dcmitype/StillImage"/></cc:Work></rdf:RDF></metadata><path style="fill:#000000;fill-opacity:1.0000000;fill-rule:evenodd;stroke:none;stroke-width:1.0000000pt;stroke-linecap:butt;stroke-linejoin:miter;stroke-opacity:1.0000000" d="M627.5 210.795c1.84.742 4.34-3.791 6.89-4.952 5.086-2.315 10.717-3.544 16.017-5.474 4.917-1.79 10.176-3.086 14.634-5.687 4.026-2.349 11.255-5.71 12.384-7.909 1.376-2.68.544-14.659-1.567-20.526-4.217-11.72-10.152-24.594-18.984-33.49-13.437-13.536-31.266-23.527-47.825-33.807-18.047-11.204-36.846-21.437-55.993-30.647-18.076-8.694-36.585-17.058-55.674-23.064-19.406-6.105-39.69-9.993-59.81-13.27-18.956-3.086-30.149-3.337-49.312-3.79-25.322-.6-50.706-.116-76.036.63-25.279.746-39.171 2.647-63.627 7.9-15.173 3.259-25.467 7.484-37.014 13.582-13.882 7.33-21.895 12.573-33.191 22.648-12.685 11.314-19.772 18.204-30.646 31.382-8.265 10.017-16.916 19.745-24.744 30.093-7.23 9.557-13.864 19.59-20.432 29.621-5.757 8.794-11.396 17.697-16.543 26.856-5.033 8.956-9.464 18.26-13.998 27.487-4.056 8.255-8.275 16.461-11.771 24.96-4.563 11.09-8.968 22.325-12.408 33.806-4.195 14.005-7.821 28.286-10.498 42.653-2.308 12.383-3.467 25.028-4.454 37.598-.816 10.389-1.418 20.88-.955 31.278.598 13.404 2.166 26.842 4.136 40.125 1.53 10.308 3.281 20.71 6.363 30.647 5.084 16.392 10.92 32.772 18.134 48.34 6.89 14.868 15.29 29.187 24.179 42.969 7.548 11.704 16.104 22.884 25.133 33.49 8.363 9.825 17.544 19.06 27.041 27.804 9.38 8.634 19.525 16.48 29.587 24.327 5.739 4.475 11.72 8.665 17.816 12.638 7.478 4.874 15.059 9.655 22.906 13.902 9.863 5.337 19.897 10.487 30.224 14.85 13.109 5.537 26.636 10.153 40.085 14.849 9.775 3.413 19.595 6.793 29.587 9.478 13.126 3.528 26.391 6.819 39.768 9.163 11.154 1.954 22.515 3.17 33.825 3.733 12.035.599 24.166.375 36.211-.249 16.023-.83 32.034-2.393 47.994-4.116 16.262-1.756 32.582-3.506 48.675-6.32 10.419-1.82 20.77-4.44 30.86-7.582 7.832-2.44 15.506-5.611 22.906-9.162 8.401-4.032 16.708-8.483 24.496-13.586 7.483-4.902 14.525-10.585 21.316-16.43 7.526-6.477 14.725-13.398 21.633-20.536 6.242-6.448 12.274-13.162 17.816-20.22 8.35-10.635 16.518-21.516 23.86-32.859 6.02-9.298 11.264-19.156 16.226-29.067 4.37-8.73 8.507-17.67 11.77-26.855 3.1-8.72 5.402-17.792 7.318-26.856 2.114-9.998 3.488-20.182 4.772-30.33 1.261-9.967 2.552-19.985 2.863-30.016.431-13.876.096-27.832-.636-41.705a439.399 439.399 0 0 0-3.5-36.65c-1.617-11.759-3.9-23.452-6.362-35.07-2.204-10.393-4.71-20.748-7.636-30.962-3.861-13.482-7.766-37.451-12.725-40.125-4.323-2.331-47.782 5.923-71.582 9.478-16.391 2.448-32.681 5.58-48.993 8.53-15.714 2.843-31.526 5.297-47.085 8.847-17.21 3.927-34.273 8.632-51.22 13.586-12.958 3.787-25.733 8.224-38.495 12.638-10.993 3.801-21.912 7.837-32.769 12.006-5.05 1.939-11.431 8.34-14.952 6.319-5.281-3.033-8.153-14.088-11.453-21.485-4.124-9.243-7.66-18.81-10.817-28.435-2.888-8.806-5.312-17.805-7.317-26.856-2.661-12.012-4.536-24.207-6.681-36.333-3.37-19.048-6.224-38.198-9.863-57.187-1.345-7.024-3.343-13.914-5.09-20.852-.48-1.909-.593-4.14-1.59-5.687-.7-1.085-2.188-2.05-3.5-2.212-2.93-.364-6.159.337-9.226.632a213 213 0 0 0-10.499 1.264c-2.982.437-5.93 1.461-8.908 1.58-2.324.092-4.671-.598-6.999-.948-1.172-.177-3.433-1.595-3.5-.632-.358 5.25 1.02 12.93 2.228 19.273 2.08 10.928 4.658 21.817 7.635 32.542 2.431 8.758 5.373 17.405 8.59 25.908 3.676 9.716 7.957 19.211 12.09 28.75 4.033 9.313 8.194 18.571 12.407 27.804 5.013 10.988 10.432 21.796 15.27 32.859 4.282 9.79 8.232 19.738 12.09 29.699.914 2.36 3.81 5.987 2.227 7.266-4.674 3.776-13.866 5.676-20.998 7.899-11.108 3.464-22.41 6.401-33.722 9.162-13.714 3.348-27.602 5.982-41.359 9.163a2274.557 2274.557 0 0 0-41.994 10.11c-12.018 3.02-24.017 6.148-35.95 9.479-4.292 1.198-8.57 2.505-12.725 4.107-6.768 2.61-13.539 5.325-20.043 8.53-7.812 3.85-15.327 8.328-22.906 12.638-4.086 2.325-11.237 4.22-12.09 7.267-.738 2.64 5.124 6.372 7.318 9.794 2.26 3.529 4.137 7.317 6.044 11.059 2.441 4.789 4.251 9.984 7 14.533 1.069 1.77 2.862 3.077 4.453 4.423 1.273 1.077 2.567 2.445 4.136 2.844 2.99.76 6.387.834 9.544.632 3.418-.22 6.875-.94 10.18-1.896 5.073-1.466 10.173-3.132 14.953-5.37 6.46-3.027 12.748-6.576 18.77-10.427 9.46-6.049 18.486-12.801 27.679-19.273 7.562-5.324 14.681-11.39 22.588-16.113 6.197-3.702 13.125-6.163 19.724-9.163 8.46-3.845 16.876-7.802 25.452-11.374 11.148-4.643 22.363-9.177 33.722-13.27 10.274-3.7 20.714-7.193 31.178-10.11 1.625-.453 4.04-1.136 5.09 0 3.721 4.024 6.545 10.117 9.226 15.482 4.425 8.852 8.778 17.851 12.09 27.171 4.323 12.165 7.418 24.8 10.816 37.282 2.222 8.159 4.164 16.398 6.045 24.644 2.467 10.816 4.405 21.758 7 32.542 1.965 8.173 4.385 16.238 6.68 24.328 1.947 6.865 3.7 13.805 6.045 20.536 2.534 7.276 5.535 14.407 8.59 21.485 2.036 4.718 3.215 12.772 6.68 13.902 3.64 1.186 9.93-4.334 14.635-6.951 3.248-1.807 6.539-3.886 9.226-6.32.918-.83 1.252-2.257 1.59-3.475.51-1.836 1.016-3.816.955-5.687-.045-1.394-1.074-2.691-1.272-4.107-1.074-7.641-1.362-15.425-2.546-23.064-1.786-11.529-3.786-23.063-6.362-34.438a381.745 381.745 0 0 0-8.59-31.595c-3.37-10.569-7.234-21.018-11.453-31.279-4.053-9.854-8.634-19.514-13.362-29.067-4.498-9.088-9.639-17.855-14.316-26.855-3.806-7.323-11.785-16.309-11.135-22.117.41-3.67 9.49-4.342 14.316-6.318 5.461-2.237 10.904-4.606 16.543-6.32 8.572-2.604 17.322-4.75 26.088-6.634a291.257 291.257 0 0 1 23.86-4.108c12.362-1.598 24.783-2.998 37.223-3.791 15.663-.998 31.386-1.2 47.084-1.58 23.539-.568 47.113-.277 70.627-1.263 14.133-.593 32.656-8.008 42.313-3.476 5.826 2.734 3.144 16.802 4.136 25.276 1.659 14.169 3.284 28.413 3.817 42.653.422 11.246-.204 22.57-.954 33.806-.522 7.826-1.613 15.633-2.863 23.38-1.826 11.315-3.592 22.698-6.363 33.806-2.956 11.851-6.735 23.55-10.817 35.07-3.978 11.228-8.376 22.367-13.362 33.175-3.71 8.044-8.181 15.768-12.725 23.38-4.258 7.132-8.782 14.15-13.68 20.852a221.208 221.208 0 0 1-14.953 18.325c-7.637 8.393-15.394 16.8-23.86 24.328-7.759 6.9-16.186 13.184-24.815 18.957-6.641 4.443-13.904 7.976-20.997 11.69-4.573 2.394-9.299 4.498-13.999 6.635-4.102 1.865-8.146 3.933-12.407 5.371-6.662 2.248-13.502 4.09-20.361 5.687-10.32 2.404-20.703 4.766-31.178 6.319-10.84 1.607-21.825 2.399-32.768 3.16-10.267.713-20.598 1.646-30.86 1.263-12.326-.46-24.712-1.876-36.904-3.791-8.593-1.35-17.068-3.648-25.451-6.003-7.736-2.173-15.378-4.763-22.906-7.583-11.03-4.131-22.103-8.29-32.768-13.27-12.347-5.763-24.357-12.32-36.268-18.956-11.525-6.422-22.798-13.311-34.041-20.221-12.406-7.624-24.668-15.487-36.905-23.38-8.336-5.377-16.937-10.451-24.815-16.43-5.166-3.92-9.964-8.454-14.316-13.27-6.783-7.505-13.594-15.213-19.088-23.695-8.08-12.476-15.161-25.771-21.634-39.177-4.662-9.658-8.355-19.84-11.77-30.015-3.478-10.361-6.511-20.938-8.909-31.595-2.056-9.142-3.385-18.486-4.454-27.803-1.37-11.957-2.205-23.998-2.863-36.018-.403-7.358-.546-14.753-.318-22.117.303-9.802.748-19.646 1.909-29.383 1.702-14.275 3.807-28.575 6.68-42.652 1.9-9.303 4.872-18.392 7.636-27.488 2.644-8.702 5.304-17.434 8.59-25.907 3.82-9.852 8.06-19.587 12.725-29.068 4.456-9.055 9.284-17.987 14.635-26.54 5.784-9.245 12.13-18.2 18.77-26.855 5.238-6.826 10.96-13.323 16.861-19.588 6.4-6.794 12.988-13.49 20.043-19.589 7.686-6.644 15.754-12.973 24.179-18.64 8.012-5.39 16.55-10.094 25.133-14.534 6.687-3.46 13.696-6.33 20.679-9.163 8.075-3.275 16.163-6.697 24.497-9.162 6.618-1.958 13.534-2.97 20.36-4.108 8.34-1.39 16.715-2.914 25.134-3.475 8.973-.598 18.053-.478 27.042 0 8.827.47 17.677 1.431 26.405 2.844 10.148 1.641 20.255 3.8 30.223 6.319 8.378 2.115 16.623 4.82 24.815 7.582a528.391 528.391 0 0 1 26.724 9.795c9.96 3.967 19.865 8.122 29.587 12.637 11.593 5.385 22.984 11.224 34.36 17.062 10.787 5.536 21.385 11.442 32.131 17.06 7.11 3.718 14.687 6.678 21.437 10.95 6.4 4.048 12.441 8.873 18.013 14.01 5.205 4.8 9.638 10.45 14.316 15.798 4.442 5.078 9.074 10.042 13.044 15.481 4.408 6.04 8.054 12.641 12.089 18.957 2.222 3.479 3.997 9.343 6.68 10.426z" sodipodi:nodetypes="csssssssssssssssssssssssssssssssssssssssssssssssssssssssssssssssssssssssssssssssssssssssssssssssssssssssssssssssssssssssssssssssssssssssssssssssssssssssssssssssssssssssssssssssssssssssssssssssssssssssssssss"/></svg>