<svg width="198" height="198" xmlns="http://www.w3.org/2000/svg"><path style="fill:#36b7d7;fill-opacity:1;stroke:none" d="M278.314 410.591h198v198h-198z" transform="translate(-278.314 -410.59)"/><path style="font-size:144px;font-family:Liberation Serif;-inkscape-font-specification:Liberation Serif;fill:#fff" d="M65.563 32.969c-4.032 0-7.61.562-10.75 1.687-3.188 1.125-5.844 2.72-8 4.782-2.204 2.062-3.875 4.593-5 7.593-1.172 3-1.75 6.36-1.75 10.063 0 3.515.468 6.625 1.406 9.343.937 2.72 2.187 5.063 3.781 7.032 1.547 1.922 3.344 3.5 5.406 4.719A20.438 20.438 0 0 0 57 80.718v.688c-3.14.657-5.969 1.64-8.5 2.906-2.531 1.266-4.687 2.907-6.469 4.97-1.78 2.015-3.156 4.5-4.093 7.406-.938 2.859-1.407 6.234-1.407 10.124 0 4.688.64 8.829 1.907 12.438 1.265 3.61 3.062 6.625 5.406 9.063 2.344 2.437 5.234 4.296 8.656 5.562 3.422 1.266 7.266 1.906 11.531 1.906 4.172 0 7.813-.422 10.906-1.219 3.047-.75 5.626-1.593 7.782-2.53v33h11.687v-34.688h9.188v34.687h11.687v-33c2.156.938 4.735 1.781 7.781 2.531 3.094.797 6.735 1.22 10.907 1.22 4.265 0 8.11-.641 11.531-1.907 3.422-1.266 6.312-3.125 8.656-5.563 2.344-2.437 4.14-5.453 5.406-9.062 1.266-3.61 1.907-7.75 1.907-12.438 0-3.89-.47-7.265-1.406-10.124-.938-2.907-2.313-5.391-4.094-7.407-1.782-2.062-3.938-3.703-6.469-4.969-2.531-1.265-5.36-2.25-8.5-2.906v-.687a20.438 20.438 0 0 0 6.344-2.531c2.062-1.22 3.86-2.797 5.406-4.72 1.594-1.968 2.844-4.312 3.781-7.03.938-2.72 1.406-5.829 1.406-9.344 0-3.703-.578-7.063-1.75-10.063-1.125-3-2.796-5.53-5-7.593-2.156-2.063-4.812-3.657-8-4.782-3.14-1.125-6.718-1.687-10.75-1.687-4.265 0-8.187.625-11.75 1.843-3.515 1.172-6.53 3.141-9.062 5.907-2.531 2.719-4.5 6.312-5.906 10.812-1.116 3.57-1.8 7.821-2.031 12.719h-9.376c-.23-4.898-.915-9.149-2.03-12.719-1.407-4.5-3.376-8.093-5.907-10.812-2.531-2.766-5.547-4.735-9.063-5.907-3.562-1.218-7.484-1.843-11.75-1.843zM98.436 35a7.214 7.214 0 0 0-2.968.656c-.89.375-1.672.891-2.375 1.594a8.248 8.248 0 0 0-1.688 2.469 7.959 7.959 0 0 0-.562 2.968c0 1.032.187 2 .562 2.938a8.58 8.58 0 0 0 1.688 2.406 8.434 8.434 0 0 0 2.375 1.688 7.955 7.955 0 0 0 2.969.562c1.03 0 2-.187 2.937-.562a8.245 8.245 0 0 0 2.469-1.688 7.526 7.526 0 0 0 1.625-2.406 7.038 7.038 0 0 0 .625-2.938 7.182 7.182 0 0 0-.625-2.968 7.304 7.304 0 0 0-1.625-2.469c-.703-.703-1.532-1.219-2.469-1.594-.938-.422-1.906-.656-2.938-.656zM65.72 38.594c2.625 0 4.984.469 7.094 1.406 2.109.89 3.906 2.484 5.406 4.781 1.453 2.25 2.578 5.313 3.375 9.157.75 3.843 1.125 8.671 1.125 14.53v58.438c-2.485.797-5.219 1.453-8.219 1.969-3.047.469-6.25.719-9.625.719-5.11 0-9.047-1.844-11.813-5.5-2.812-3.656-4.218-9.36-4.218-17.094 0-3.516.39-6.625 1.187-9.344.75-2.765 1.985-5.11 3.719-7.031 1.688-1.922 3.906-3.422 6.625-4.5 2.719-1.078 6.016-1.672 9.906-1.813v-5.5c-3.328-.093-6.14-.593-8.437-1.53-2.344-.938-4.235-2.313-5.688-4.094-1.453-1.782-2.5-3.97-3.156-6.594-.656-2.672-1-5.766-1-9.281 0-2.813.281-5.391.844-7.688.515-2.297 1.344-4.266 2.468-5.906a10.925 10.925 0 0 1 4.22-3.782c1.734-.89 3.796-1.343 6.187-1.343zm66.562 0c2.39 0 4.453.453 6.188 1.343 1.734.891 3.14 2.141 4.219 3.782 1.124 1.64 1.953 3.61 2.468 5.906.563 2.297.844 4.875.844 7.688 0 3.515-.344 6.609-1 9.28-.656 2.626-1.703 4.813-3.156 6.594-1.453 1.782-3.344 3.157-5.688 4.094-2.297.938-5.11 1.438-8.437 1.531v5.5c3.89.141 7.187.735 9.906 1.813 2.719 1.078 4.937 2.578 6.625 4.5 1.734 1.922 2.969 4.266 3.719 7.031.797 2.719 1.187 5.828 1.187 9.344 0 7.734-1.406 13.438-4.219 17.094-2.765 3.656-6.703 5.5-11.812 5.5-3.375 0-6.578-.25-9.625-.719a62.991 62.991 0 0 1-6.781-1.531v-.156l-1.063-.157c-.124-.038-.252-.085-.375-.125V68.47c0-5.86.375-10.688 1.125-14.531.797-3.844 1.922-6.907 3.375-9.157 1.5-2.297 3.297-3.89 5.406-4.781 2.11-.937 4.47-1.406 7.094-1.406z"/></svg>