<svg width="30" height="23" viewBox="0 0 7.938 6.085" xmlns="http://www.w3.org/2000/svg"><path fill="#fbbc04" d="M0 6.085 3.836 0h2.382v.847L2.91 6.085"/><path fill="#1a73e8" d="M6.218 6.085H3.836V0h2.382v6.085z"/><path fill="#34a853" d="M7.938 4.366c0 .95-.77 1.72-1.72 1.72v-3.44c.95 0 1.72.77 1.72 1.72z"/><path fill="#0d652d" d="M6.218 6.085a1.72 1.72 0 1 1 0-3.44v3.44z"/><path fill="#1a73e8" d="M7.54 1.323c0 .73-.592 1.323-1.322 1.323V0c.73 0 1.323.592 1.323 1.323z"/><path fill="#174ea6" d="M6.218 2.646a1.323 1.323 0 1 1 0-2.646v2.646z"/><path fill="#ea4335" d="M.132 1.19a1.19 1.19 0 1 1 2.382 0 1.19 1.19 0 0 1-2.382 0z"/></svg>