<?xml version="1.0" encoding="UTF-8" standalone="no"?><svg width="84" height="83.755" sodipodi:docname="recaptcha.svg" inkscape:version="1.1.2 (0a00cf5339, 2022-02-04)" xmlns:inkscape="http://www.inkscape.org/namespaces/inkscape" xmlns:sodipodi="http://sodipodi.sourceforge.net/DTD/sodipodi-0.dtd" xmlns="http://www.w3.org/2000/svg"><sodipodi:namedview pagecolor="#ffffff" bordercolor="#666666" borderopacity="1" inkscape:pageshadow="2" inkscape:pageopacity="0" inkscape:pagecheckerboard="0" showgrid="false" fit-margin-top="0" fit-margin-left="0" fit-margin-right="0" fit-margin-bottom="0" inkscape:zoom="5.82" inkscape:cx="42.01" inkscape:cy="54.725" inkscape:window-width="2490" inkscape:window-height="1376" inkscape:window-x="2560" inkscape:window-y="27" inkscape:window-maximized="1" inkscape:current-layer="svg10"/><path d="M84 41.818a42.876 42.876 0 0 0-.043-1.798V6.03l-9.397 9.397C66.869 6.012 55.169 0 42.064 0 28.426 0 16.31 6.51 8.651 16.59l15.403 15.566a20.407 20.407 0 0 1 6.24-7.001c2.689-2.099 6.499-3.814 11.77-3.814.636 0 1.128.074 1.489.214 6.53.516 12.19 4.12 15.524 9.35L48.174 41.81c13.81-.055 29.41-.086 35.825.007" style="fill:#1c3aa9"/><path d="M41.819.001a42.94 42.94 0 0 0-1.798.043H6.031l9.397 9.397C6.013 17.132 0 28.832 0 41.937 0 55.575 6.51 67.691 16.59 75.35l15.566-15.403a20.407 20.407 0 0 1-7.001-6.24c-2.098-2.689-3.814-6.499-3.814-11.77 0-.636.074-1.128.214-1.489.516-6.53 4.12-12.19 9.35-15.524L41.81 35.827c-.055-13.81-.087-29.41.007-35.825" style="fill:#4285f4"/><path d="M.002 41.936c.002.602.016 1.201.043 1.798v33.99l9.397-9.396c7.691 9.414 19.391 15.427 32.496 15.427 13.638 0 25.754-6.51 33.413-16.591L59.948 51.598a20.407 20.407 0 0 1-6.24 7.001c-2.689 2.099-6.499 3.814-11.77 3.814-.636 0-1.128-.074-1.489-.214-6.53-.516-12.19-4.12-15.524-9.35l10.903-10.904c-13.81.055-29.41.086-35.825-.007" style="fill:#ababab"/></svg>