<?xml version="1.0" encoding="UTF-8" standalone="no"?><svg sodipodi:docname="sentry.svg" width="148.809" height="132.57" inkscape:version="1.1.2 (0a00cf5339, 2022-02-04)" xmlns:inkscape="http://www.inkscape.org/namespaces/inkscape" xmlns:sodipodi="http://sodipodi.sourceforge.net/DTD/sodipodi-0.dtd" xmlns="http://www.w3.org/2000/svg"><sodipodi:namedview pagecolor="#ffffff" bordercolor="#666666" borderopacity="1" inkscape:pageshadow="2" inkscape:pageopacity="0" inkscape:pagecheckerboard="0" showgrid="false" fit-margin-top="0" fit-margin-left="0" fit-margin-right="0" fit-margin-bottom="0" inkscape:zoom="3.496" inkscape:cx="74.218" inkscape:cy="66.21" inkscape:window-width="2490" inkscape:window-height="1376" inkscape:window-x="2560" inkscape:window-y="27" inkscape:window-maximized="1" inkscape:current-layer="svg4"/><path d="M86.32 6.87a13.75 13.75 0 0 0-23.81 0l-19.6 33.95 5 2.87a96.14 96.14 0 0 1 47.83 77.4H81.98a82.4 82.4 0 0 0-41-65.54l-5-2.86-18.26 31.75 5 2.87a46.35 46.35 0 0 1 22.46 33.78H13.75a2.27 2.27 0 0 1-2-3.41l8.76-15.17a31.87 31.87 0 0 0-10-5.71l-8.67 15.14a13.75 13.75 0 0 0 11.91 20.62H57v-5.73a57.16 57.16 0 0 0-23.74-46.39l6.88-11.92a70.93 70.93 0 0 1 30.56 58.26v5.74h36.65v-5.73a107.62 107.62 0 0 0-48.84-90.05l13.91-24.13a2.27 2.27 0 0 1 3.93 0l60.66 105.07a2.27 2.27 0 0 1-2 3.41h-14.19c.18 3.83.2 7.66 0 11.48h14.24a13.75 13.75 0 0 0 11.91-20.62z" style="fill:#221f20"/></svg>