<svg xmlns="http://www.w3.org/2000/svg" width="317.333" height="226.667"><path fill="#fff" stroke="#000" stroke-width="3.4" d="M0 0h317.333v226.667H0z"/><path d="M159.452 21.006h83.452v36.046h-83.452z"/><path d="M114.154 45.585v-6.217h-4.975v-2.574h7.99v9.938a13.164 13.164 0 0 1-3.89 1.946c-1.417.439-2.93.659-4.538.659-3.517 0-6.269-1.057-8.254-3.17-1.985-2.115-2.978-5.058-2.978-8.83 0-3.783.993-6.732 2.978-8.845 1.985-2.114 4.737-3.17 8.254-3.17 1.468 0 2.862.185 4.184.557 1.322.372 2.54.92 3.656 1.644v3.333c-1.125-.982-2.322-1.72-3.588-2.217a10.856 10.856 0 0 0-3.995-.744c-2.754 0-4.822.79-6.204 2.372-1.382 1.581-2.073 3.938-2.073 7.07 0 3.121.69 5.472 2.073 7.054 1.382 1.581 3.45 2.372 6.204 2.372 1.075 0 2.035-.096 2.88-.287a7.72 7.72 0 0 0 2.276-.891zm22.917-6.093v1.395h-12.755c.12 1.964.696 3.46 1.726 4.488 1.03 1.029 2.465 1.543 4.304 1.543 1.066 0 2.099-.134 3.099-.403s1.992-.672 2.977-1.21v2.698c-.995.434-2.015.765-3.06.993a14.923 14.923 0 0 1-3.181.34c-2.694 0-4.828-.806-6.4-2.418-1.574-1.612-2.36-3.793-2.36-6.543 0-2.842.746-5.098 2.239-6.767 1.492-1.67 3.505-2.504 6.038-2.504 2.272 0 4.068.752 5.39 2.256 1.322 1.504 1.983 3.548 1.983 6.132zm-2.775-.838c-.02-1.56-.444-2.806-1.274-3.736-.829-.93-1.927-1.395-3.294-1.395-1.548 0-2.786.45-3.716 1.348-.93.9-1.465 2.166-1.606 3.799zm13.871-5.131c-1.488 0-2.663.597-3.528 1.79-.864 1.194-1.296 2.83-1.296 4.907 0 2.078.43 3.714 1.289 4.907.859 1.194 2.037 1.791 3.535 1.791 1.478 0 2.649-.6 3.513-1.798.864-1.2 1.297-2.832 1.297-4.9 0-2.057-.433-3.687-1.297-4.891-.864-1.204-2.035-1.806-3.513-1.806zm0-2.419c2.412 0 4.307.806 5.684 2.419 1.377 1.612 2.065 3.845 2.066 6.697 0 2.843-.689 5.073-2.066 6.69-1.377 1.618-3.272 2.427-5.684 2.427-2.422 0-4.32-.81-5.691-2.427-1.372-1.617-2.058-3.847-2.058-6.69 0-2.852.686-5.085 2.058-6.697 1.372-1.613 3.269-2.419 5.691-2.419z" font-weight="400" font-size="22.949" font-family="Bitstream Vera Sans"/><path d="M162.849 24.655h2.828v14.05l8.394-7.384h3.593l-9.082 8.011 9.464 9.112h-3.67l-8.699-8.363v8.363h-2.828zm28.193 9.296a3.725 3.725 0 0 0-1.032-.406 5.431 5.431 0 0 0-1.231-.13c-1.59 0-2.81.518-3.662 1.552-.85 1.035-1.276 2.52-1.276 4.457v9.02h-2.829V31.321h2.829v2.66c.59-1.04 1.36-1.812 2.308-2.316.948-.505 2.1-.757 3.455-.757.194 0 .408.013.643.038.234.026.494.064.78.115zm17.628 5.228v1.376h-12.935c.123 1.937.706 3.412 1.75 4.426 1.046 1.015 2.5 1.522 4.366 1.522 1.08 0 2.128-.133 3.142-.398a13.978 13.978 0 0 0 3.02-1.192v2.66a16.87 16.87 0 0 1-3.104.978c-1.06.225-2.136.337-3.226.337-2.732 0-4.895-.795-6.49-2.385-1.596-1.59-2.393-3.741-2.393-6.452 0-2.803.757-5.028 2.27-6.674 1.514-1.646 3.555-2.469 6.123-2.469 2.304 0 4.126.742 5.466 2.225 1.34 1.483 2.01 3.498 2.01 6.046zm-2.814-.825c-.02-1.54-.45-2.768-1.291-3.685-.841-.917-1.955-1.376-3.341-1.376-1.57 0-2.826.444-3.769 1.33-.943.887-1.485 2.136-1.628 3.746zm10.213-11.895v4.862h5.795v2.186h-5.795v9.296c0 1.396.192 2.293.574 2.69.382.398 1.16.597 2.331.597h2.89v2.354h-2.89c-2.17 0-3.669-.405-4.495-1.215-.825-.81-1.238-2.286-1.238-4.426v-9.296h-2.064v-2.186h2.064v-4.862zm16.635 23.575c-.795 2.039-1.57 3.369-2.324 3.99-.754.623-1.764.933-3.027.933h-2.248v-2.354h1.651c.775 0 1.376-.184 1.804-.55.428-.367.902-1.234 1.422-2.6l.505-1.284-6.926-16.848h2.981l5.351 13.393 5.351-13.393h2.982z" font-weight="400" font-size="40" font-family="Bitstream Vera Sans" fill="#fff"/><path d="M245.6 44.903h3.226v3.883H245.6zm16.207-11.268c-1.509 0-2.701.588-3.578 1.766-.877 1.177-1.315 2.79-1.315 4.839 0 2.048.436 3.661 1.307 4.838.872 1.178 2.067 1.766 3.586 1.766 1.498 0 2.685-.59 3.562-1.773.876-1.182 1.315-2.793 1.315-4.831 0-2.029-.439-3.637-1.315-4.824-.877-1.187-2.064-1.781-3.562-1.781zm0-2.385c2.446 0 4.367.795 5.764 2.385 1.396 1.59 2.094 3.791 2.094 6.605 0 2.803-.698 5.002-2.094 6.597-1.397 1.595-3.318 2.392-5.764 2.392-2.457 0-4.38-.797-5.772-2.392-1.391-1.595-2.087-3.794-2.087-6.597 0-2.814.696-5.015 2.087-6.605 1.391-1.59 3.315-2.385 5.772-2.385zm22.428 3.042a3.726 3.726 0 0 0-1.032-.405 5.431 5.431 0 0 0-1.23-.13c-1.59 0-2.811.517-3.662 1.552-.851 1.034-1.277 2.52-1.277 4.457v9.02h-2.828V31.663h2.828v2.66c.591-1.04 1.361-1.812 2.309-2.316.948-.505 2.1-.757 3.455-.757a6 6 0 0 1 .642.038c.235.025.495.064.78.115zm14.25 5.734c0-2.039-.42-3.619-1.262-4.74-.84-1.121-2.02-1.682-3.54-1.682-1.508 0-2.682.56-3.523 1.682-.841 1.121-1.262 2.701-1.262 4.74 0 2.028.42 3.603 1.262 4.724.84 1.121 2.015 1.682 3.524 1.682 1.519 0 2.698-.561 3.54-1.682.84-1.121 1.26-2.696 1.26-4.724zm2.813 6.635c0 2.915-.648 5.083-1.942 6.505-1.294 1.422-3.277 2.133-5.947 2.133a16.83 16.83 0 0 1-2.798-.222 14.07 14.07 0 0 1-2.553-.68V51.66c.825.449 1.64.78 2.446.994a9.542 9.542 0 0 0 2.461.321c1.845 0 3.226-.481 4.144-1.445.917-.963 1.376-2.418 1.376-4.365v-1.39c-.581 1.008-1.326 1.762-2.233 2.262s-1.992.749-3.256.749c-2.1 0-3.792-.8-5.076-2.4-1.284-1.6-1.926-3.72-1.926-6.36 0-2.65.642-4.776 1.926-6.376 1.284-1.6 2.976-2.4 5.076-2.4 1.264 0 2.35.25 3.256.749.907.5 1.652 1.254 2.233 2.263v-2.6h2.813z" font-weight="400" font-size="23" font-family="Bitstream Vera Sans"/><g><path class="fil59" fill="#fff" d="M93.882 40.846l-.035.043zM94.337 40.925L94.4 41zM92.543 47.376l-.073.048z"/><path d="M-79.438 41.735c14.166 10.523 62.44 41.11 66.718 48.714 3.21 5.706-3.893 16.477-9.351 14.384-11.732-4.5-6.467-10.177-55.86-47.492" fill="#e9c642" fill-rule="evenodd" stroke="#000" stroke-width="2.815" stroke-linecap="round" stroke-linejoin="round" transform="matrix(.30368 0 0 .31617 96.614 23.103)"/><path d="M-77.634 85.69c2.408-1.227 12.939-3.118 15.153-5.983 2.213-2.863.674-6.332 1.683-8.742 2.589 1.879 7.007 2.911 8.504 2.265 1.403-.607 4.565-5.813 4.59-7.86.026-2.045-2.108-3.608-3.451-4.365 5.518-3.452 9.024-3.412 12.957-2.509 3.934.904 2.802 3.173 4.994 4.513 2.138 1.308 3.855.635 5.236 1.903 1.382 1.27 1.591 3.42 3.1 5.08 1.547 1.7 2.7.91 4.403 3.024 1.704 2.113 1.153 3.302 2.266 5.649s4.01 1.233.9 7.023c-3.017 5.616-6.636 8.594-9.13 10.477-2.555 1.929-8.417 3.643-9.712 2.465-1.544-1.406-.879-1.29-.428-2.664-1.25.51-1.909 1.112-4.285 1.507-2.376.396-2.905-.276-3.882-1.52-.976-1.243 1.212-4.106-.025-3.453-1.237.652-1.104 3.7-4.922 6.062-3.818 2.362-9.784 5.127-14.572 5.921-4.788.794-7.819-2.342-10.02-2.394" fill="#d4af8b" fill-rule="evenodd" stroke="#000" stroke-width="2.815" stroke-linecap="round" stroke-linejoin="round" transform="matrix(.30368 0 0 .31617 96.614 23.103)"/><path d="M-57.646 81.236c6.5 6.193 16.72 15.316 24.958 14.417 3.833-.417-3.066-14.001-8.507-19.288-5.442-5.287-12.766-2.22-14.765-.984M-40.681 76.213c1.42-.483 4.23-3.726 4.79-8.881M-34.332 85.085c2.8-3.154 5.977-7.204 6.566-10.814M-31.27 93.835c4.691-3.274 7.923-7.19 9.414-11.345" fill="none" stroke="#000" stroke-width="2.815" stroke-linecap="round" stroke-linejoin="round" transform="matrix(.30368 0 0 .31617 96.614 23.103)"/><g fill-rule="evenodd" stroke="#000" stroke-width="4" stroke-linejoin="round"><path d="M291.293 966.005l-38.677 74.178-46.898-14.387-55.307-53.999 72.683-27.653z" fill="#667b58" transform="scale(.21373 .22252) rotate(3.027 16529.582 697.984)"/><path d="M205.718 1025.796l-55.307-53.999 72.683-27.653 22.328 7.49-67.753 25.496 49.308 55.018z" fill="#c5c5c5" transform="scale(.21373 .22252) rotate(3.027 16529.582 697.984)"/><path d="M288.18 1000.584l-9.198 19.648c-15.202-9.807-61.663-27.495-52.395-36.464 9.412-9.11 38.416 3.774 61.593 16.816z" fill="#667b58" transform="scale(.21373 .22252) rotate(3.027 16529.582 697.984)"/></g><path d="M-64.624 62.93c-1.833 5.25-3.216 26.675 3.488 42.708-54.838-1.825-58.03-21.903-99.074-30.769 5.657-13.383 12.952-20.429 24.892-29.953 5.335-4.255 11.862-12.187 17.055-17.298 5.194-5.112 9.536-8.731 15.57-11.277 11.124-4.693 26.888-3.517 36.515 5.106-2.855.68-9.77-.106-9.716 4.95.504 5.707-4.006 8.31-7.966 11.344-2.578 2.67-1.1 6.782-4.918 8.32-.18 4.572 1.595 8.986 4.192 13.041 2.711 4.234 5.529 6.961 9.378 9.46 3.85 2.5 8.137-2.758 10.584-5.631z" fill="#5d5d5d" fill-rule="evenodd" stroke="#000" stroke-width="2.815" stroke-linejoin="round" transform="matrix(.30368 0 0 .31617 96.614 23.103)"/><path d="M-64.874 62.627c-3.235 3.506-6.735 8.132-10.584 5.632-3.849-2.5-6.667-5.226-9.378-9.46-2.597-4.055-4.371-8.469-4.192-13.042 3.818-1.537 2.34-5.649 4.918-8.32 3.96-3.034 8.47-5.636 7.966-11.344-.054-5.055 7.977-4.21 9.902-4.112 2.018.103 13.132 1.544 16.776 1.335 2.523-1.789 5.236-4.766 6.889-5.795 1.61-1.002 3.749-3.507 5.783-2.77 6.354.419 4.815 7.673 4.47 12.44-.915 6.24-9.324 7.93-17.676 14.093-6.191 4.704-5.65 5.09-9.368 10.427-3.718 5.335-2.27 7.41-5.506 10.916z" fill="#d4af8b" fill-rule="evenodd" stroke="#000" stroke-width="2.815" stroke-linejoin="round" transform="matrix(.30368 0 0 .31617 96.614 23.103)"/><path d="M-38.083 21.963c.13 3.193-1.028 5.32-2.876 6.112" fill="none" stroke="#000" stroke-width="3.519" stroke-linecap="round" transform="matrix(.30368 0 0 .31617 96.614 23.103)"/><path d="M-70.035 50.038c1.104-.037 6.996-2.643 7.79-3.044-1.905 3.308-3.377 4.007-5.342 8.28-.865 2.36-2.413 5.464-4.956 7.033-3.764-2.748-4.09-8.114-5.83-12.163-4.74-3.04-7.936-8.247-12.253-7.461-1.027-2.372.553-4.245.602-6.43C-88.043 46.51-75.6 50.158-70.035 50.038z" class="fil58" stroke="#000" stroke-width="2.815" stroke-linecap="round" stroke-linejoin="round" transform="matrix(.30368 0 0 .31617 96.614 23.103)"/><path d="M75.82 40.905c-.2.177-1.7.249-2.053.163-.138-.32-.252-1.278-.445-1.659.269.007 2.761.23 3.597-.537-.36.378-1.214 2.075-1.098 2.033z" class="fil59" fill="#fff"/><path d="M-96.3 30.034c3.552-1.028 4.243-2.89 7.363-4.113 3.12-1.223 3.132-1.033 5.115-.778 1.984.255 2.818 1.798 2.818 1.798" fill="none" stroke="#000" stroke-width="2.815" stroke-linecap="round" stroke-linejoin="round" transform="matrix(.30368 0 0 .31617 96.614 23.103)"/></g><g font-weight="400" font-size="40" font-family="sans-serif" letter-spacing="0" word-spacing="0"><text y="88.594" x="8.085" style="line-height:1.25"><tspan y="88.594" x="8.085" font-size="16">My name: Super Picsou Geant #200</tspan></text><text y="109.423" x="8.085" style="line-height:1.25"><tspan y="109.423" x="8.085" font-size="16">My owner: kumy</tspan></text><text y="131.803" x="8.085" style="line-height:1.25"><tspan y="131.803" x="8.085" font-size="16">Reference number: GK10288</tspan></text><text y="151.081" x="9.702" style="line-height:1.25"><tspan y="151.081" x="9.702" font-size="16">Tracking code: DQ9H4B</tspan></text><text y="171.91" x="8.085" style="line-height:1.25"><tspan y="171.91" x="8.085" font-size="16">Info: J&apos;aime les grands enfants :)</tspan></text></g><path d="M8.837 155.969h119.495" fill="red" stroke="red" stroke-width="3"/><path fill="none" stroke="red" stroke-width="3.208" d="M128.436 134.668h83.378v21.197h-83.378z"/></svg>