<?xml version="1.0" standalone="no"?>
<!DOCTYPE svg PUBLIC "-//W3C//DTD SVG 20010904//EN"
 "http://www.w3.org/TR/2001/REC-SVG-20010904/DTD/svg10.dtd">
<svg version="1.0" xmlns="http://www.w3.org/2000/svg"
 width="700.000000pt" height="700.000000pt" viewBox="0 0 700.000000 700.000000"
 preserveAspectRatio="xMidYMid meet">
<metadata>
Created by potrace 1.11, written by Peter Selinger 2001-2013
</metadata>
<g transform="translate(0.000000,700.000000) scale(0.100000,-0.100000)"
fill="#000000" stroke="none">
<path d="M3390 3500 l0 -2070 1650 0 1650 0 0 2070 0 2070 -1650 0 -1650 0 0
-2070z m810 929 l5 -676 720 678 720 679 273 0 c174 0 272 -4 270 -10 -1 -5
-356 -341 -788 -747 -432 -405 -786 -740 -788 -743 -1 -3 381 -392 849 -863
l851 -857 -284 0 -283 0 -772 772 -773 773 0 -773 0 -772 -220 0 -220 0 0
1603 c0 882 3 1607 7 1611 4 3 102 5 217 4 l211 -3 5 -676z"/>
<path d="M1555 5105 c-490 -68 -846 -311 -1058 -720 -126 -244 -187 -534 -187
-885 0 -515 134 -911 405 -1198 241 -255 565 -396 976 -421 439 -28 861 75
1197 291 l82 53 0 673 0 672 -540 0 -540 0 0 -175 0 -175 335 0 335 0 0 -420
0 -420 -67 -34 c-88 -44 -203 -79 -328 -102 -137 -24 -433 -25 -565 -1 -487
88 -756 388 -834 927 -58 407 -7 827 135 1100 125 240 315 386 598 462 113 30
122 31 341 32 250 1 311 -7 497 -69 167 -56 365 -166 489 -271 28 -24 54 -44
58 -44 3 0 6 100 6 223 l0 222 -84 48 c-218 125 -472 206 -741 237 -119 13
-398 11 -510 -5z"/>
</g>
</svg>
