<?xml version="1.0" encoding="UTF-8" standalone="no"?>
<svg
   version="1.1"
   width="843.96899"
   height="896.54205"
   id="svg1032"
   sodipodi:docname="gk-404.svg"
   inkscape:version="1.1.2 (0a00cf5339, 2022-02-04)"
   xmlns:inkscape="http://www.inkscape.org/namespaces/inkscape"
   xmlns:sodipodi="http://sodipodi.sourceforge.net/DTD/sodipodi-0.dtd"
   xmlns="http://www.w3.org/2000/svg"
   xmlns:svg="http://www.w3.org/2000/svg">
  <defs
     id="defs1036" />
  <sodipodi:namedview
     id="namedview1034"
     pagecolor="#ffffff"
     bordercolor="#666666"
     borderopacity="1.0"
     inkscape:pageshadow="2"
     inkscape:pageopacity="0.0"
     inkscape:pagecheckerboard="0"
     showgrid="false"
     inkscape:zoom="0.85253906"
     inkscape:cx="452.17869"
     inkscape:cy="333.70905"
     inkscape:window-width="2490"
     inkscape:window-height="1376"
     inkscape:window-x="2560"
     inkscape:window-y="27"
     inkscape:window-maximized="1"
     inkscape:current-layer="svg1032"
     fit-margin-top="0"
     fit-margin-left="0"
     fit-margin-right="0"
     fit-margin-bottom="0" />
  <path
     d="m 394.4375,0 c 18.15,0 36.3,0 55,0 0,0.66 0,1.32 0,2 0.87656,0.01418 1.75312,0.02836 2.65625,0.04297 26.30927,0.98927 52.1224,9.093746 76.34375,18.95703 0.77344,0.313081 1.54687,0.626162 2.34375,0.94873 18.25019,7.48147 35.28472,17.181143 50.70605,29.49463 1.42447,1.137 2.85884,2.26164 4.29883,3.37891 19.06061,14.92084 35.89218,33.34291 46.65137,55.17773 0,0.66 0,1.32 0,2 3.89867,-0.97467 4.87527,-1.79341 7,-5.3125 0.26813,-0.57363 0.53625,-1.14727 0.8125,-1.73828 1.66574,-2.73423 3.91511,-4.69268 6.1875,-6.94922 2.32759,-2.68285 4.56936,-5.4339 6.8125,-8.1875 0.6202,-0.7574 1.2404,-1.51481 1.87939,-2.29517 4.47597,-5.47407 8.91337,-10.97782 13.30811,-16.51733 6.93959,-8.71589 13.96471,-17.36135 21,-26 0.45117,-0.55462 0.90234,-1.109238 1.36719,-1.680664 C 703.83959,27.298955 703.83959,27.298955 706.4375,26 c -0.33,-0.66 -0.66,-1.32 -1,-2 4.6875,-0.683594 4.6875,-0.683594 7,-1 1.14598,-0.172734 2.29195,-0.345469 3.47266,-0.523438 5.64221,-0.696626 11.2873,-0.660689 16.96484,-0.664062 1.62132,-0.01837 1.62132,-0.01837 3.27539,-0.03711 9.63834,-0.01753 19.00715,0.658156 26.59961,7.224609 3.10561,3.680727 2.83033,7.161823 2.87695,11.799072 0.0125,1.03736 0.0125,1.03736 0.0252,2.095677 0.0267,2.307192 0.0466,4.614402 0.0666,6.921662 0.0177,1.6323 0.0359,3.2646 0.0545,4.89689 0.039,3.47661 0.0753,6.95323 0.10948,10.42989 0.0537,5.41296 0.1157,10.8258 0.17996,16.23865 0.0106,0.89413 0.0212,1.78826 0.0321,2.70949 0.0214,1.80411 0.0429,3.60823 0.0644,5.41234 0.0321,2.70587 0.0638,5.41175 0.0953,8.11764 0.24485,20.97393 0.24485,20.97393 0.56762,41.94677 0.035,2.11447 0.0665,4.229 0.0942,6.34357 0.0382,2.87865 0.0884,5.75683 0.14209,8.63522 0.0126,1.24115 0.0126,1.24115 0.0254,2.50737 0.0852,3.8241 0.18264,5.68943 2.35353,8.94576 4.41819,1.47273 8.8795,1.00576 13.48828,0.87305 5.45046,-0.0817 10.95038,0.0779 15.38672,3.62695 1.93043,2.57391 2.28328,4.38569 2.44141,7.54297 0.0421,0.8196 0.0843,1.6392 0.12768,2.48364 0.0391,0.87809 0.0782,1.75619 0.11841,2.66089 0.041,0.89678 0.082,1.79357 0.12427,2.71753 0.96385,22.42409 0.96385,22.42409 -1.68677,30.09497 -3.93164,3.93164 -8.29398,4.11733 -13.64063,4.31641 -1.60488,0.0628 -1.60488,0.0628 -3.24218,0.12695 -1.11117,0.0393 -2.22235,0.0786 -3.36719,0.11914 -1.12664,0.0432 -2.25328,0.0864 -3.41406,0.13086 -2.77853,0.10596 -5.55714,0.20803 -8.33594,0.30664 -0.0198,1.08418 -0.0396,2.16836 -0.0601,3.2854 -0.0764,4.04629 -0.16509,8.09223 -0.25732,12.13818 -0.0381,1.74668 -0.073,3.49343 -0.1045,5.24024 -0.046,2.51988 -0.10392,5.03926 -0.16406,7.55884 -0.0115,0.7732 -0.0231,1.5464 -0.035,2.34303 -0.14067,5.2407 -0.38999,10.89966 -3.74625,15.1765 -5.4778,4.11544 -9.50651,4.42027 -16.21484,4.46093 -0.73241,0.006 -1.46481,0.0114 -2.21941,0.0173 -1.54737,0.009 -3.09477,0.016 -4.64216,0.0198 -2.35054,0.01 -4.7002,0.0407 -7.05054,0.0723 -1.50846,0.007 -3.01692,0.0118 -4.52539,0.0156 -0.69503,0.0123 -1.39006,0.0247 -2.10616,0.0374 -5.07772,-0.0228 -8.44383,-1.06385 -12.8741,-3.36552 -4.52515,-5.43018 -4.11982,-12.69683 -4.31641,-19.46484 -0.0208,-0.67818 -0.0416,-1.35635 -0.063,-2.05507 -0.0647,-2.13911 -0.12401,-4.27832 -0.18312,-6.41759 -0.0433,-1.4616 -0.0869,-2.92319 -0.13086,-4.38477 -0.1063,-3.55913 -0.20778,-7.11838 -0.30661,-10.67773 -0.99,-0.33 -1.98,-0.66 -3,-1 -0.33,-0.99 -0.66,-1.98 -1,-3 -15.51,-0.33 -31.02,-0.66 -47,-1 0.24017,6.99304 0.48564,13.98547 0.74463,20.97778 0.0865,2.37717 0.16982,4.75445 0.25,7.13184 0.116,3.42345 0.24321,6.84632 0.37256,10.26929 0.0501,1.58634 0.0501,1.58634 0.10129,3.20472 0.2959,7.90802 0.2959,7.90802 2.53152,15.41637 3.61131,3.06223 7.21114,3.57582 11.82812,4.17578 1.35795,0.18624 2.71586,0.37278 4.07374,0.55957 0.7088,0.0935 1.4176,0.187 2.14788,0.28333 31.77477,4.24321 62.37177,12.41061 91.0196,27.03943 2.04457,1.03807 2.04457,1.03807 4.75097,1.97705 2.69284,1.19198 4.15752,2.84276 6.17969,4.96484 1.51871,1.09507 3.06205,2.15656 4.625,3.1875 5.56752,3.82921 10.46013,8.18919 15.375,12.8125 0.61617,0.54012 1.23234,1.08023 1.86719,1.63672 14.89953,13.62929 21.84556,34.71741 23.13281,54.36328 0.0541,0.73348 0.10828,1.46695 0.16406,2.22266 0.6038,16.0007 -4.53836,30.59301 -10.21655,45.27929 -4.51808,11.91162 -5.27567,19.57629 0.0525,31.49805 2.50897,5.11203 5.37303,9.99719 8.36328,14.83984 8.95507,14.60847 15.04685,29.16668 17.63671,46.16016 0.18047,1.01965 0.36094,2.0393 0.54687,3.08984 3.81323,32.90554 -3.60554,65.11794 -19.54687,93.91016 -0.34789,0.63245 -0.69577,1.26489 -1.0542,1.9165 -14.96885,26.87543 -36.65603,44.5912 -61.76611,61.68897 -14.45511,9.92505 -27.04303,21.55302 -30.8086,39.44531 -0.98921,7.86167 -0.14028,15.44328 4.62891,21.94922 6.34156,7.00154 14.59783,11.50251 24.06641,12.23828 13.04123,0.27685 21.70365,-3.77153 32.47656,-10.53125 4.12624,-2.03748 6.87548,-2.51771 11.45703,-2.70703 5.12487,2.61078 8.18446,5.55337 10,11 1.62302,16.57604 -3.2848,33.04749 -10,48 -0.50273,1.21559 -1.00547,2.43117 -1.52344,3.68359 -7.11096,15.97145 -22.58017,28.31308 -38.52783,34.6211 -6.81248,2.43071 -13.92684,3.99706 -20.94873,5.69531 -14.57238,3.5349 -24.11336,7.58122 -35,18 -13.44903,12.35646 -27.1495,20.65437 -45,25 -0.7657,0.19336 -1.53141,0.38672 -2.32031,0.58594 -22.73104,3.51237 -45.59985,-3.38248 -67.44824,-8.85547 -0.69089,-0.17216 -1.38177,-0.34431 -2.09359,-0.52168 -1.88845,-0.47166 -3.77577,-0.94786 -5.66301,-1.42437 -6.52148,-1.47218 -12.82134,-1.99043 -19.47485,-2.03442 -0.74895,-0.0206 -1.49789,-0.0412 -2.26953,-0.0625 -13.86075,-0.0919 -27.64079,4.48016 -40.93262,8.05933 -2.01721,0.54139 -4.03629,1.07534 -6.05566,1.60864 -1.17708,0.31606 -2.35415,0.63212 -3.5669,0.95776 -2.85444,0.61737 -5.27131,0.83037 -8.17529,0.68677 -0.33,0.66 -0.66,1.32 -1,2 -6.10145,0.0746 -12.20264,0.12879 -18.30444,0.16479 -2.07264,0.015 -4.14525,0.0354 -6.21778,0.0615 -2.99137,0.0367 -5.98232,0.0535 -8.97387,0.0666 -0.916,0.0155 -1.83199,0.031 -2.77575,0.0469 -6.12869,0.002 -11.03972,-1.11354 -16.72816,-3.33979 -1.27072,-0.43386 -2.54283,-0.86365 -3.81641,-1.28906 C 430.62912,886.36448 417.93115,878.82733 405.4375,869 c -4.67969,-3.56826 -4.67969,-3.56826 -10,-6 -0.4473,-0.74766 -0.89461,-1.49531 -1.35547,-2.26563 -9.41908,-15.66117 -34.0511,-26.1072 -50.73047,-30.28906 -0.63164,-0.14695 -1.26328,-0.2939 -1.91406,-0.44531 0,0.66 0,1.32 0,2 -0.66,-0.33 -1.32,-0.66 -2,-1 0.33,-0.66 0.66,-1.32 1,-2 -0.9755,-0.0673 -0.9755,-0.0673 -1.9707,-0.13599 -13.25205,-0.92437 -26.49767,-1.9301 -39.72876,-3.11874 -1.98969,-0.17735 -3.98007,-0.34681 -5.97046,-0.51602 -13.4377,-1.2342 -26.08056,-3.31569 -38.33008,-9.22925 -1.38639,-0.64582 -1.38639,-0.64582 -2.80078,-1.30469 -17.81334,-8.91926 -26.75426,-23.76408 -33.4458,-41.72607 -3.45876,-9.04028 -7.2558,-17.9727 -12.75342,-25.96924 -0.66,0.33 -1.32,0.66 -2,1 0,-0.66 0,-1.32 0,-2 -0.66,-0.33 -1.32,-0.66 -2,-1 0.66,-0.33 1.32,-0.66 2,-1 -17.96844,-14.31914 -36.13692,-14.52169 -58.22122,-13.64044 -14.75279,0.5772 -29.49156,0.85686 -44.25534,0.88067 -3.68251,0.01 -7.36449,0.0411 -11.04688,0.0723 -24.86777,0.11033 -49.2707,-1.91076 -68.24609,-19.89063 -7.14842,-7.76186 -10.81721,-16.65839 -10.48047,-27.26562 0.8825,-7.6116 3.48368,-14.20981 7.35938,-20.76953 1.20498,-3.22914 0.80013,-5.08134 -0.10938,-8.38672 -1.01505,-1.95369 -2.10558,-3.86917 -3.25,-5.75 -6.47839,-11.59712 -9.96171,-25.40769 -9.8125,-38.6875 0.009,-1.05059 0.0181,-2.10117 0.0273,-3.18359 0.0116,-0.78504 0.0232,-1.57008 0.0352,-2.37891 -0.66,-0.33 -1.32,-0.66 -2,-1 1.37334,-19.33756 2.87631,-38.50884 6.13281,-57.63672 0.29371,-1.787 0.58288,-3.57476 0.86719,-5.36328 0.14881,-0.92168 0.29761,-1.84336 0.45093,-2.79297 0.12061,-0.88687 0.24121,-1.77375 0.36548,-2.6875 0.16931,-1.17599 0.16931,-1.17599 0.34204,-2.37573 C 11.38435,530.2809 10.29954,529.31391 8.25,527.37503 7.60547,526.82589 6.96094,526.27675 6.29688,525.71097 2.32109,522.05257 0.64813,517.71517 0,512.43753 1.45137,501.03385 9.93424,491.19376 18.4375,484 c 0.66,0 1.32,0 2,0 0.26812,-0.58781 0.53625,-1.17563 0.8125,-1.78125 1.53998,-2.87734 3.56566,-5.03473 5.75,-7.4375 3.81601,-4.72853 3.75651,-8.76276 3.6875,-14.65625 -0.009,-0.85352 -0.0179,-1.70704 -0.0271,-2.58643 C 30.4353,445.11249 28.17703,434.3085 24.00171,422.6333 16.96699,402.83623 16.84099,379.96198 23.4375,360 c 0.37383,-1.15242 0.74766,-2.30484 1.13281,-3.49219 C 29.26141,343.3044 36.70273,332.00922 46.4375,322 c 0.66,0 1.32,0 2,0 0,-0.66 0,-1.32 0,-2 20.44596,-18.38638 43.51335,-21.36603 70,-20 5.04903,0.40348 10.02003,1.06573 15,2 0,-4.1371 -1.68224,-5.14707 -4.4375,-8.1875 C 118.92957,282.17104 112.74799,268.68615 108.4375,254 c -0.26684,-0.90492 -0.53367,-1.80984 -0.80859,-2.74219 -2.26191,-9.76519 -1.36274,-20.2983 -1.19141,-30.25781 -1.70144,0.0157 -1.70144,0.0157 -3.43726,0.0317 -4.24362,0.0364 -8.48722,0.0592 -12.73095,0.0781 -1.8301,0.01 -3.66019,0.0236 -5.49024,0.041 -2.64384,0.0245 -5.28746,0.0357 -7.93139,0.0444 -0.80663,0.0103 -1.61326,0.0206 -2.44432,0.0313 -6.67412,0.001 -13.27834,-0.39681 -18.90334,-4.22659 -5.38676,-7.83529 -4.39828,-18.49825 -4.375,-27.625 -0.0161,-1.27102 -0.0322,-2.54203 -0.0488,-3.85156 -0.005,-10.35766 1.44818,-17.10362 8.48633,-24.83594 0.99426,-1.13344 1.98774,-2.26756 2.98047,-3.40234 0.49161,-0.55543 0.98323,-1.11085 1.48974,-1.68311 8.53778,-9.73668 16.42031,-20.09344 24.49073,-30.21924 3.4905,-4.37417 7.00582,-8.72683 10.54126,-13.06469 5.13088,-6.29635 10.20929,-12.62636 15.20801,-19.02808 3.50202,-4.4738 7.07282,-8.88825 10.66479,-13.29004 7.23231,-8.86861 14.33696,-17.83091 21.26343,-26.94067 19.98708,-26.214053 19.98708,-26.214053 39.88891,-29.49683 12.20606,-1.468397 28.68022,-1.418879 39.22657,5.707031 2.71121,2.556732 3.99525,5.053691 4.27537,8.786289 0.0138,0.793663 0.0277,1.587327 0.0419,2.405041 0.0182,0.912853 0.0364,1.825705 0.0552,2.76622 0.0151,0.999099 0.0302,1.998189 0.0458,3.027559 0.0197,1.05382 0.0393,2.10765 0.0596,3.1934 0.064,3.48991 0.12125,6.9799 0.17849,10.46993 0.043,2.41711 0.0864,4.8342 0.13023,7.2513 0.1143,6.36707 0.22293,12.73423 0.3304,19.10142 0.11062,6.49512 0.22658,12.99014 0.3421,19.48517 0.22594,12.74796 0.44607,25.49601 0.66211,38.24414 0.1962,-0.59706 0.39239,-1.19412 0.59454,-1.80927 0.90278,-2.74227 1.80949,-5.48322 2.71625,-8.22418 0.46275,-1.40858 0.46275,-1.40858 0.93485,-2.84562 2.5044,-7.55583 5.38318,-14.81413 8.69186,-22.05843 0.51869,-1.14751 1.03737,-2.29501 1.57178,-3.47729 C 258.06983,79.09402 275.40577,55.95944 298.4375,38 c 1.01707,-0.795352 2.03414,-1.590703 3.08203,-2.410156 C 316.9468,23.881811 334.44493,16.093203 352.61597,9.67334 354.49756,9.015532 354.49756,9.015532 356.4375,8 357.86856,7.696987 359.30806,7.433574 360.75,7.1875 367.5139,6.00022 374.25564,4.705441 380.99927,3.408936 385.47116,2.552528 389.94122,1.720891 394.4375,1 c 0,-0.33 0,-0.66 0,-1 z m 313.17187,92.80859 c -5.7681,6.26118 -11.01973,12.78318 -16.14379,19.58008 -3.72483,4.93389 -7.54405,9.77003 -11.46558,14.54883 -7.01587,8.5629 -13.80311,17.29644 -20.5625,26.0625 -0.52384,0.67917 -1.04769,1.35835 -1.5874,2.05811 -2.8089,3.6437 -5.61312,7.29095 -8.4126,10.94189 7.87359,2.14164 16.13232,2.1638 24.24219,2.20312 1.39619,0.009 1.39619,0.009 2.82058,0.0173 1.94782,0.009 3.89565,0.0159 5.84348,0.0198 2.98204,0.01 5.96343,0.041 8.94531,0.0723 1.90104,0.007 3.80208,0.0118 5.70313,0.0156 1.33283,0.0185 1.33283,0.0185 2.69259,0.0374 3.52266,-0.0128 6.07468,-0.0415 9.28055,-1.57355 3.57469,-4.35128 2.61737,-10.67093 2.60498,-16.02637 0.001,-0.90318 0.003,-1.80637 0.004,-2.73693 0.002,-2.92627 -0.004,-5.85244 -0.0118,-8.77869 -8.9e-4,-0.98899 -0.002,-1.97799 -0.003,-2.99695 -0.0157,-15.10606 -0.28058,-30.16745 -1.12201,-45.25303 -1.31012,-0.11722 -1.31012,-0.11722 -2.82813,1.80859 z M 170.4375,93 c -5.16349,5.47548 -9.78155,11.24964 -14.3125,17.25 -4.39512,5.81787 -8.90403,11.47588 -13.65894,17.00244 -3.81406,4.44801 -7.43746,9.02808 -11.03808,13.64966 -3.54666,4.5489 -7.17602,9.02332 -10.84204,13.47681 -3.4224,4.17533 -6.786,8.39742 -10.14844,12.62109 2.97748,1.70837 5.09389,2.24847 8.51562,2.23047 0.90662,-0.001 1.81323,-0.002 2.74732,-0.003 0.98573,-0.0131 1.97146,-0.0263 2.98706,-0.0398 1.02891,-0.009 2.05783,-0.0172 3.11792,-0.0261 3.54438,-0.0389 7.08803,-0.0993 10.63208,-0.16138 1.4038,-0.0199 2.80761,-0.0394 4.21143,-0.0586 3.64746,-0.0521 7.29417,-0.12322 10.94104,-0.20688 1.43748,-0.0313 2.87508,-0.058 4.31274,-0.0801 2.02881,-0.0332 4.05724,-0.0875 6.08557,-0.14267 1.75824,-0.0393 1.75824,-0.0393 3.552,-0.0794 2.81817,-0.2119 2.81817,-0.2119 4.55701,-1.53076 2.02854,-2.87828 1.69932,-5.26937 1.68079,-8.75976 4.3e-4,-0.69295 8.7e-4,-1.38589 0.001,-2.09983 -0.002,-2.28903 -0.0254,-4.57733 -0.0489,-6.86624 -0.006,-1.58754 -0.01,-3.1751 -0.0129,-4.76265 -0.0115,-4.17749 -0.0409,-8.35466 -0.0741,-12.53203 -0.0307,-4.26306 -0.0444,-8.52617 -0.0595,-12.7893 -0.0319,-8.36425 -0.0831,-16.72807 -0.14618,-25.09197 -0.66,0.33 -1.32,0.66 -2,1 -0.495,-0.99 -0.495,-0.99 -1,-2 z m -35,208 c 0,0.66 0,1.32 0,2 0.66,-0.33 1.32,-0.66 2,-1 -0.66,-0.33 -1.32,-0.66 -2,-1 z"
     fill="#23201b"
     id="path2" />
  <path
     d="m 394.4375,0 c 18.15,0 36.3,0 55,0 0,0.66 0,1.32 0,2 0.87656,0.01418 1.75312,0.02836 2.65625,0.04297 26.30927,0.98927 52.1224,9.093746 76.34375,18.95703 0.77344,0.313081 1.54687,0.626162 2.34375,0.94873 18.25019,7.48147 35.28472,17.181143 50.70605,29.49463 1.42447,1.137 2.85884,2.26164 4.29883,3.37891 19.06061,14.92084 35.89218,33.34291 46.65137,55.17773 0,0.66 0,1.32 0,2 3.89867,-0.97467 4.87527,-1.79341 7,-5.3125 0.26813,-0.57363 0.53625,-1.14727 0.8125,-1.73828 1.66574,-2.73423 3.91511,-4.69268 6.1875,-6.94922 2.32759,-2.68285 4.56936,-5.4339 6.8125,-8.1875 0.6202,-0.7574 1.2404,-1.51481 1.87939,-2.29517 4.47597,-5.47407 8.91337,-10.97782 13.30811,-16.51733 6.93959,-8.71589 13.96471,-17.36135 21,-26 0.45117,-0.55462 0.90234,-1.109238 1.36719,-1.680664 C 703.83959,27.298955 703.83959,27.298955 706.4375,26 c -0.33,-0.66 -0.66,-1.32 -1,-2 4.6875,-0.683594 4.6875,-0.683594 7,-1 1.14598,-0.172734 2.29195,-0.345469 3.47266,-0.523438 5.64221,-0.696626 11.2873,-0.660689 16.96484,-0.664062 1.62132,-0.01837 1.62132,-0.01837 3.27539,-0.03711 9.63834,-0.01753 19.00715,0.658156 26.59961,7.224609 3.10561,3.680727 2.83033,7.161823 2.87695,11.799072 0.0125,1.03736 0.0125,1.03736 0.0252,2.095677 0.0267,2.307192 0.0466,4.614402 0.0666,6.921662 0.0177,1.6323 0.0359,3.2646 0.0545,4.89689 0.039,3.47661 0.0753,6.95323 0.10948,10.42989 0.0537,5.41296 0.1157,10.8258 0.17996,16.23865 0.0106,0.89413 0.0212,1.78826 0.0321,2.70949 0.0214,1.80411 0.0429,3.60823 0.0644,5.41234 0.0321,2.70587 0.0638,5.41175 0.0953,8.11764 0.24485,20.97393 0.24485,20.97393 0.56762,41.94677 0.035,2.11447 0.0665,4.229 0.0942,6.34357 0.0382,2.87865 0.0884,5.75683 0.14209,8.63522 0.0126,1.24115 0.0126,1.24115 0.0254,2.50737 0.0852,3.8241 0.18264,5.68943 2.35353,8.94576 4.41819,1.47273 8.8795,1.00576 13.48828,0.87305 5.45046,-0.0817 10.95038,0.0779 15.38672,3.62695 1.93043,2.57391 2.28328,4.38569 2.44141,7.54297 0.0421,0.8196 0.0843,1.6392 0.12768,2.48364 0.0391,0.87809 0.0782,1.75619 0.11841,2.66089 0.041,0.89678 0.082,1.79357 0.12427,2.71753 0.96385,22.42409 0.96385,22.42409 -1.68677,30.09497 -3.93164,3.93164 -8.29398,4.11733 -13.64063,4.31641 -1.60488,0.0628 -1.60488,0.0628 -3.24218,0.12695 -1.11117,0.0393 -2.22235,0.0786 -3.36719,0.11914 -1.12664,0.0432 -2.25328,0.0864 -3.41406,0.13086 -2.77853,0.10596 -5.55714,0.20803 -8.33594,0.30664 -0.0198,1.08418 -0.0396,2.16836 -0.0601,3.2854 -0.0764,4.04629 -0.16509,8.09223 -0.25732,12.13818 -0.0381,1.74668 -0.073,3.49343 -0.1045,5.24024 -0.046,2.51988 -0.10392,5.03926 -0.16406,7.55884 -0.0115,0.7732 -0.0231,1.5464 -0.035,2.34303 -0.14067,5.2407 -0.38999,10.89966 -3.74625,15.1765 -5.4778,4.11544 -9.50651,4.42027 -16.21484,4.46093 -0.73241,0.006 -1.46481,0.0114 -2.21941,0.0173 -1.54737,0.009 -3.09477,0.016 -4.64216,0.0198 -2.35054,0.01 -4.7002,0.0407 -7.05054,0.0723 -1.50846,0.007 -3.01692,0.0118 -4.52539,0.0156 -0.69503,0.0123 -1.39006,0.0247 -2.10616,0.0374 -5.07772,-0.0228 -8.44383,-1.06385 -12.8741,-3.36552 -4.52515,-5.43018 -4.11982,-12.69683 -4.31641,-19.46484 -0.0208,-0.67818 -0.0416,-1.35635 -0.063,-2.05507 -0.0647,-2.13911 -0.12401,-4.27832 -0.18312,-6.41759 -0.0433,-1.4616 -0.0869,-2.92319 -0.13086,-4.38477 -0.1063,-3.55913 -0.20778,-7.11838 -0.30661,-10.67773 -0.99,-0.33 -1.98,-0.66 -3,-1 -0.33,-0.99 -0.66,-1.98 -1,-3 -15.51,-0.33 -31.02,-0.66 -47,-1 0.24017,6.99304 0.48564,13.98547 0.74463,20.97778 0.0865,2.37717 0.16982,4.75445 0.25,7.13184 0.116,3.42345 0.24321,6.84632 0.37256,10.26929 0.0501,1.58634 0.0501,1.58634 0.10129,3.20472 0.2959,7.90802 0.2959,7.90802 2.53152,15.41637 3.61131,3.06223 7.21114,3.57582 11.82812,4.17578 1.35795,0.18624 2.71586,0.37278 4.07374,0.55957 0.7088,0.0935 1.4176,0.187 2.14788,0.28333 31.77477,4.24321 62.37177,12.41061 91.0196,27.03943 2.04457,1.03807 2.04457,1.03807 4.75097,1.97705 2.69284,1.19198 4.15752,2.84276 6.17969,4.96484 1.51871,1.09507 3.06205,2.15656 4.625,3.1875 5.56752,3.82921 10.46013,8.18919 15.375,12.8125 0.61617,0.54012 1.23234,1.08023 1.86719,1.63672 14.89953,13.62929 21.84556,34.71741 23.13281,54.36328 0.0541,0.73348 0.10828,1.46695 0.16406,2.22266 0.6038,16.0007 -4.53836,30.59301 -10.21655,45.27929 -4.51808,11.91162 -5.27567,19.57629 0.0525,31.49805 2.50897,5.11203 5.37303,9.99719 8.36328,14.83984 8.95507,14.60847 15.04685,29.16668 17.63671,46.16016 0.18047,1.01965 0.36094,2.0393 0.54687,3.08984 3.81323,32.90554 -3.60554,65.11794 -19.54687,93.91016 -0.34789,0.63245 -0.69577,1.26489 -1.0542,1.9165 -14.96885,26.87543 -36.65603,44.5912 -61.76611,61.68897 -14.45511,9.92505 -27.04303,21.55302 -30.8086,39.44531 -0.98921,7.86167 -0.14028,15.44328 4.62891,21.94922 6.34156,7.00154 14.59783,11.50251 24.06641,12.23828 13.04123,0.27685 21.70365,-3.77153 32.47656,-10.53125 4.12624,-2.03748 6.87548,-2.51771 11.45703,-2.70703 5.12487,2.61078 8.18446,5.55337 10,11 1.62302,16.57604 -3.2848,33.04749 -10,48 -0.50273,1.21559 -1.00547,2.43117 -1.52344,3.68359 -7.11096,15.97145 -22.58017,28.31308 -38.52783,34.6211 -6.81248,2.43071 -13.92684,3.99706 -20.94873,5.69531 -14.57238,3.5349 -24.11336,7.58122 -35,18 -13.44903,12.35646 -27.1495,20.65437 -45,25 -0.7657,0.19336 -1.53141,0.38672 -2.32031,0.58594 -22.73104,3.51237 -45.59985,-3.38248 -67.44824,-8.85547 -0.69089,-0.17216 -1.38177,-0.34431 -2.09359,-0.52168 -1.88845,-0.47166 -3.77577,-0.94786 -5.66301,-1.42437 -6.52148,-1.47218 -12.82134,-1.99043 -19.47485,-2.03442 -0.74895,-0.0206 -1.49789,-0.0412 -2.26953,-0.0625 -13.86075,-0.0919 -27.64079,4.48016 -40.93262,8.05933 -2.01721,0.54139 -4.03629,1.07534 -6.05566,1.60864 -1.17708,0.31606 -2.35415,0.63212 -3.5669,0.95776 -2.85444,0.61737 -5.27131,0.83037 -8.17529,0.68677 -0.33,0.66 -0.66,1.32 -1,2 -6.10145,0.0746 -12.20264,0.12879 -18.30444,0.16479 -2.07264,0.015 -4.14525,0.0354 -6.21778,0.0615 -2.99137,0.0367 -5.98232,0.0535 -8.97387,0.0666 -0.916,0.0155 -1.83199,0.031 -2.77575,0.0469 -6.12869,0.002 -11.03972,-1.11354 -16.72816,-3.33979 -1.27072,-0.43386 -2.54283,-0.86365 -3.81641,-1.28906 C 430.62912,886.36448 417.93115,878.82733 405.4375,869 c -4.67969,-3.56826 -4.67969,-3.56826 -10,-6 -0.4473,-0.74766 -0.89461,-1.49531 -1.35547,-2.26563 -9.41908,-15.66117 -34.0511,-26.1072 -50.73047,-30.28906 -0.63164,-0.14695 -1.26328,-0.2939 -1.91406,-0.44531 0,0.66 0,1.32 0,2 -0.66,-0.33 -1.32,-0.66 -2,-1 0.33,-0.66 0.66,-1.32 1,-2 -0.9755,-0.0673 -0.9755,-0.0673 -1.9707,-0.13599 -13.25205,-0.92437 -26.49767,-1.9301 -39.72876,-3.11874 -1.98969,-0.17735 -3.98007,-0.34681 -5.97046,-0.51602 -13.4377,-1.2342 -26.08056,-3.31569 -38.33008,-9.22925 -1.38639,-0.64582 -1.38639,-0.64582 -2.80078,-1.30469 -17.81334,-8.91926 -26.75426,-23.76408 -33.4458,-41.72607 -3.45876,-9.04028 -7.2558,-17.9727 -12.75342,-25.96924 -0.66,0.33 -1.32,0.66 -2,1 0,-0.66 0,-1.32 0,-2 -0.66,-0.33 -1.32,-0.66 -2,-1 0.66,-0.33 1.32,-0.66 2,-1 -17.96844,-14.31914 -36.13692,-14.52169 -58.22122,-13.64044 -14.75279,0.5772 -29.49156,0.85686 -44.25534,0.88067 -3.68251,0.01 -7.36449,0.0411 -11.04688,0.0723 -24.86777,0.11033 -49.2707,-1.91076 -68.24609,-19.89063 -7.14842,-7.76186 -10.81721,-16.65839 -10.48047,-27.26562 0.8825,-7.6116 3.48368,-14.20981 7.35938,-20.76953 1.20498,-3.22914 0.80013,-5.08134 -0.10938,-8.38672 -1.01505,-1.95369 -2.10558,-3.86917 -3.25,-5.75 -6.47839,-11.59712 -9.96171,-25.40769 -9.8125,-38.6875 0.009,-1.05059 0.0181,-2.10117 0.0273,-3.18359 0.0116,-0.78504 0.0232,-1.57008 0.0352,-2.37891 -0.66,-0.33 -1.32,-0.66 -2,-1 1.37334,-19.33756 2.87631,-38.50884 6.13281,-57.63672 0.29371,-1.787 0.58288,-3.57476 0.86719,-5.36328 0.14881,-0.92168 0.29761,-1.84336 0.45093,-2.79297 0.12061,-0.88687 0.24121,-1.77375 0.36548,-2.6875 0.16931,-1.17599 0.16931,-1.17599 0.34204,-2.37573 C 11.38435,530.2809 10.29954,529.31391 8.25,527.37503 7.60547,526.82589 6.96094,526.27675 6.29688,525.71097 2.32109,522.05257 0.64813,517.71517 0,512.43753 1.45137,501.03385 9.93424,491.19376 18.4375,484 c 0.66,0 1.32,0 2,0 0.26812,-0.58781 0.53625,-1.17563 0.8125,-1.78125 1.53998,-2.87734 3.56566,-5.03473 5.75,-7.4375 3.81601,-4.72853 3.75651,-8.76276 3.6875,-14.65625 -0.009,-0.85352 -0.0179,-1.70704 -0.0271,-2.58643 C 30.4353,445.11249 28.17703,434.3085 24.00171,422.6333 16.96699,402.83623 16.84099,379.96198 23.4375,360 c 0.37383,-1.15242 0.74766,-2.30484 1.13281,-3.49219 C 29.26141,343.3044 36.70273,332.00922 46.4375,322 c 0.66,0 1.32,0 2,0 0,-0.66 0,-1.32 0,-2 20.44596,-18.38638 43.51335,-21.36603 70,-20 5.04903,0.40348 10.02003,1.06573 15,2 0,-4.1371 -1.68224,-5.14707 -4.4375,-8.1875 C 118.92957,282.17104 112.74799,268.68615 108.4375,254 c -0.26684,-0.90492 -0.53367,-1.80984 -0.80859,-2.74219 -2.26191,-9.76519 -1.36274,-20.2983 -1.19141,-30.25781 -1.70144,0.0157 -1.70144,0.0157 -3.43726,0.0317 -4.24362,0.0364 -8.48722,0.0592 -12.73095,0.0781 -1.8301,0.01 -3.66019,0.0236 -5.49024,0.041 -2.64384,0.0245 -5.28746,0.0357 -7.93139,0.0444 -0.80663,0.0103 -1.61326,0.0206 -2.44432,0.0313 -6.67412,0.001 -13.27834,-0.39681 -18.90334,-4.22659 -5.38676,-7.83529 -4.39828,-18.49825 -4.375,-27.625 -0.0161,-1.27102 -0.0322,-2.54203 -0.0488,-3.85156 -0.005,-10.35766 1.44818,-17.10362 8.48633,-24.83594 0.99426,-1.13344 1.98774,-2.26756 2.98047,-3.40234 0.49161,-0.55543 0.98323,-1.11085 1.48974,-1.68311 8.53778,-9.73668 16.42031,-20.09344 24.49073,-30.21924 3.4905,-4.37417 7.00582,-8.72683 10.54126,-13.06469 5.13088,-6.29635 10.20929,-12.62636 15.20801,-19.02808 3.50202,-4.4738 7.07282,-8.88825 10.66479,-13.29004 7.23231,-8.86861 14.33696,-17.83091 21.26343,-26.94067 19.98708,-26.214053 19.98708,-26.214053 39.88891,-29.49683 12.20606,-1.468397 28.68022,-1.418879 39.22657,5.707031 2.71121,2.556732 3.99525,5.053691 4.27537,8.786289 0.0138,0.793663 0.0277,1.587327 0.0419,2.405041 0.0182,0.912853 0.0364,1.825705 0.0552,2.76622 0.0151,0.999099 0.0302,1.998189 0.0458,3.027559 0.0197,1.05382 0.0393,2.10765 0.0596,3.1934 0.064,3.48991 0.12125,6.9799 0.17849,10.46993 0.043,2.41711 0.0864,4.8342 0.13023,7.2513 0.1143,6.36707 0.22293,12.73423 0.3304,19.10142 0.11062,6.49512 0.22658,12.99014 0.3421,19.48517 0.22594,12.74796 0.44607,25.49601 0.66211,38.24414 0.1962,-0.59706 0.39239,-1.19412 0.59454,-1.80927 0.90278,-2.74227 1.80949,-5.48322 2.71625,-8.22418 0.46275,-1.40858 0.46275,-1.40858 0.93485,-2.84562 2.5044,-7.55583 5.38318,-14.81413 8.69186,-22.05843 0.51869,-1.14751 1.03737,-2.29501 1.57178,-3.47729 C 258.06983,79.09402 275.40577,55.95944 298.4375,38 c 1.01707,-0.795352 2.03414,-1.590703 3.08203,-2.410156 C 316.9468,23.881811 334.44493,16.093203 352.61597,9.67334 354.49756,9.015532 354.49756,9.015532 356.4375,8 357.86856,7.696987 359.30806,7.433574 360.75,7.1875 367.5139,6.00022 374.25564,4.705441 380.99927,3.408936 385.47116,2.552528 389.94122,1.720891 394.4375,1 c 0,-0.33 0,-0.66 0,-1 z m -83,78 c -1.21043,1.02674 -1.21043,1.02674 -2.44531,2.07422 -19.54811,17.06629 -32.98928,37.91355 -44.63282,60.88599 -18.4852,36.41534 -18.4852,36.41534 -32.92187,46.03979 -2.17065,0.0139 -2.17065,0.0139 -4.63672,-0.30859 -0.89122,-0.10941 -1.78245,-0.21882 -2.70068,-0.33155 -0.87866,-0.11875 -1.75732,-0.23751 -2.6626,-0.35986 -38.48443,-5.30209 -38.48443,-5.30209 -74,7 -0.75668,0.5298 -1.51336,1.05961 -2.29297,1.60547 -7.31564,5.74713 -13.19392,15.08167 -14.70703,24.39453 -1.00523,16.25766 2.37642,29.00579 12.78906,41.60547 5.00632,5.42203 12.75399,12.418 20.271,13.76318 1.93994,0.63135 1.93994,0.63135 3.15332,2.25098 0.50152,1.04293 0.50152,1.04293 1.01318,2.10693 0.38648,0.7769 0.77296,1.55381 1.17115,2.35425 0.405,0.83958 0.81001,1.67917 1.22729,2.54419 26.1118,51.63882 70.86476,82.8267 122.98877,104.64648 0.82613,0.34612 1.65226,0.69223 2.50342,1.04883 0.72816,0.3018 1.45632,0.60361 2.20654,0.91455 C 299.4375,391 299.4375,391 300.4375,392 c -16.41553,13.76283 -33.4981,26.05497 -55.96094,25.34375 -13.56074,-1.53386 -23.20582,-7.71085 -32.01635,-17.79517 -3.33126,-4.19733 -5.9069,-8.75907 -8.52271,-13.42358 -15.26349,-26.46315 -34.78379,-46.43989 -64.625,-55.5625 -21.6638,-5.40765 -45.49473,-2.75139 -64.80469,8.35547 C 59.858,348.85226 49.39804,362.59634 45.4375,380 c -0.38597,3.47211 -0.4312,6.88427 -0.375,10.375 0.0102,0.91902 0.0203,1.83804 0.0308,2.78491 0.2125,9.33094 1.57234,16.91427 6.3794,24.99634 4.20242,8.29845 4.05857,16.67168 4.27734,25.78125 0.0866,2.48898 0.18086,4.9776 0.27528,7.46629 0.0582,1.61198 0.11028,3.2242 0.15586,4.83658 0.13886,4.73519 0.50986,9.38348 1.0298,14.09557 0.32376,3.89723 0.36655,5.35622 -1.28516,8.98828 -0.71801,0.77988 -1.43601,1.55976 -2.17578,2.36328 -4.45997,5.34105 -7.84681,10.86848 -8.58594,17.92187 C 44.4375,502 44.4375,502 42.14453,503.55469 c -0.95519,0.4357 -1.91039,0.8714 -2.89453,1.32031 -5.07017,2.5747 -8.99063,5.07533 -11.8125,10.125 -0.75191,3.75953 -0.39298,5.28239 1.4375,8.625 2.92692,2.71275 5.67299,4.00336 9.34375,5.48047 2.13893,0.86235 4.16318,1.85192 6.21875,2.89453 -0.1911,0.62229 -0.38221,1.24459 -0.5791,1.88574 -15.20469,49.63187 -15.20469,49.63187 -6.44434,99.33692 3.34203,5.8039 7.22137,10.17582 12.02344,14.77734 1.00228,0.99771 2.00303,1.99697 3,3 -0.56848,0.59426 -1.13695,1.18852 -1.72266,1.80078 -7.67116,8.23466 -15.41082,17.11174 -16.65234,28.69922 0.4606,4.29894 1.59623,6.20935 4.375,9.5 18.40043,13.49709 47.09256,10.18444 68.75,10.25 0.99144,0.005 1.98288,0.0107 3.00436,0.0162 10.58894,0.0433 21.0947,-0.17267 31.64408,-1.14124 0.83755,-0.0754 1.67509,-0.15078 2.53802,-0.22845 10.9885,-1.12633 22.37259,-3.45523 30.06354,-11.89651 1.90371,-3.80741 1.58483,-7.86074 1,-12 -3.2501,-8.45505 -9.19749,-16.42412 -15.73828,-22.65625 C 158.4375,652 158.4375,652 158.4375,650 c 1.16629,-1.06861 2.38506,-2.0803 3.625,-3.0625 10.47972,-8.96146 15.12921,-21.45183 16.375,-34.9375 1.31082,-27.58191 -5.35711,-54.69121 -13,-81 0.59893,-0.0454 1.19786,-0.0907 1.81494,-0.13745 7.35059,-0.66452 11.85085,-2.73041 17.24756,-7.80005 1.41903,-3.12186 0.9753,-4.81937 -0.0625,-8.0625 -3.919,-5.81913 -9.16231,-9.96062 -16,-11.8125 -0.66,-0.0619 -1.32,-0.12375 -2,-0.1875 -0.0825,-1.11375 -0.165,-2.2275 -0.25,-3.375 -1.26352,-9.68133 -5.87743,-17.75243 -12.75,-24.625 0.0407,-2.14798 0.16308,-4.29434 0.3125,-6.4375 0.0471,-0.68361 0.0941,-1.36721 0.14258,-2.07153 0.17509,-2.4975 0.36009,-4.99418 0.54492,-7.49097 0.0765,-1.06412 0.15308,-2.12824 0.23193,-3.22461 0.25147,-3.48798 0.50873,-6.97549 0.76807,-10.46289 0.0829,-1.13429 0.16581,-2.26859 0.25122,-3.43726 0.0821,-1.07644 0.1642,-2.15289 0.24878,-3.26196 0.0722,-0.96124 0.14437,-1.92247 0.21875,-2.91284 0.2727,-2.61839 0.74197,-5.1257 1.28125,-7.70044 0.89195,-8.89405 -0.70095,-15.2003 -5,-23 2.6875,0 2.6875,0 6,1 5.43852,6.41688 6.65392,12.80419 6,21 -0.45887,2.13426 -0.96097,4.25956 -1.5,6.375 -3.94073,16.16077 1.05254,27.42232 9.34375,41.24609 3.24452,5.20622 7.04084,9.83822 11.15625,14.37891 0.88301,0.97711 1.76602,1.95422 2.67578,2.96094 18.74046,20.03413 44.18872,31.91637 70.75391,37.27734 C 260.4375,530 260.4375,530 262.4375,531 c -0.21092,0.72252 -0.42185,1.44504 -0.63916,2.18945 -7.24645,24.75757 -7.24645,24.75757 -13.36084,49.81055 -0.24412,1.1152 -0.48823,2.2304 -0.73975,3.37939 -3.47331,16.55604 -4.73371,32.60774 -4.76025,49.49561 -0.004,0.8792 -0.009,1.7584 -0.0136,2.66425 -0.0708,33.98297 11.15976,64.41073 31.5136,91.46075 0.67547,0.90363 1.35094,1.80727 2.04687,2.73828 14.52137,18.5457 32.48748,33.68666 52.95313,45.26172 0.64115,0.36771 1.28229,0.73541 1.94287,1.11426 10.23094,5.80968 20.78634,10.538 31.68213,14.94824 23.71455,9.61223 45.04136,21.81714 62.875,40.5 16.27367,16.76557 38.06973,28.42744 61.68945,28.81958 19.24846,-0.0474 34.16118,-4.98242 51.59766,-12.69727 10.63171,-4.67735 20.90006,-8.28396 32.65039,-8.12231 0.81928,0.01 1.63856,0.0195 2.48267,0.0295 11.93417,0.34573 21.80662,5.07114 32.48339,9.97241 19.5233,8.95242 41.16993,16.71405 62.5066,8.85742 11.41178,-5.25144 19.26532,-12.33319 27.88452,-21.30541 6.93522,-7.11638 14.88571,-13.99864 25.31469,-14.16651 1.20141,0.0307 2.40282,0.0614 3.64063,0.093 1.34504,0.0224 2.69009,0.0439 4.03516,0.0645 2.09535,0.0367 4.18984,0.0794 6.28466,0.13941 13.72594,0.37411 24.67775,-1.62751 34.93018,-11.24682 5.30525,-5.02666 8.68816,-11.06449 11,-18 -0.33,-0.66 -0.66,-1.32 -1,-2 -0.76184,0.28875 -1.52367,0.5775 -2.30859,0.875 -12.52964,4.50504 -19.56051,3.63067 -31.69141,-1.875 -2.72316,-1.34639 -5.42337,-2.73605 -8.125,-4.125 -18.0669,-9.19414 -33.0784,-7.9886 -52.03906,-2.28516 -9.34605,2.80552 -17.86929,4.06928 -26.82813,-0.39453 -4.51096,-2.68551 -7.64391,-6.09794 -9.49219,-11.0625 -2.05296,-8.49182 -0.74855,-15.61831 3.46094,-23.1875 5.68173,-8.27032 13.50202,-14.41383 21.25781,-20.64062 C 688.744,721.41125 698.41459,709.04376 701.4375,692 c 0.14004,-1.76452 0.24401,-3.53219 0.31641,-5.30078 0.0628,-1.4647 0.0628,-1.4647 0.12695,-2.95899 0.0393,-1.0074 0.0786,-2.0148 0.11914,-3.05273 0.0432,-1.02674 0.0864,-2.05348 0.13086,-3.11133 0.10571,-2.52527 0.2078,-5.05063 0.30664,-7.57617 0.56171,0.0209 1.12342,0.0419 1.70215,0.0635 25.7998,0.82683 49.73236,-3.157 69.29785,-21.0635 11.23516,-11.38953 19.56139,-27.68381 20.09766,-43.96484 -0.0322,-0.67161 -0.0645,-1.34321 -0.0977,-2.03516 1.155,-0.0206 2.31,-0.0412 3.5,-0.0625 5.60643,-0.74422 8.97755,-3.6457 12.5,-7.9375 11.70762,-19.94742 10.99371,-51.14987 5.51123,-72.94287 -3.49305,-12.62696 -8.3416,-24.47968 -19.51119,-32.05713 -1.18594,-0.32871 -2.37188,-0.65742 -3.59375,-0.99609 -3.93903,-2.31735 -4.06304,-2.91167 -5.19141,-7.13282 -0.45317,-2.13891 -0.87744,-4.28408 -1.27734,-6.43359 -0.47653,-2.2618 -0.95967,-4.52223 -1.44922,-6.78125 -0.36037,-1.68223 -0.36037,-1.68223 -0.72803,-3.39844 -1.09854,-4.70743 -2.55337,-9.2559 -4.13525,-13.82031 -0.26305,-0.76063 -0.5261,-1.52125 -0.79712,-2.30493 -0.60027,-1.71405 -1.2125,-3.4239 -1.82788,-5.13257 0.76957,-0.25781 1.53914,-0.51563 2.33203,-0.78125 4.24299,-1.93823 5.77546,-5.07326 7.66797,-9.21875 0.99562,-3.30437 1.54851,-6.58231 2,-10 0.16629,-1.11955 0.16629,-1.11955 0.33594,-2.26172 C 792.31365,393.56011 787.11619,361.45018 769.5,338.5 745.69917,310.97742 709.81486,305.98134 675.4375,303 c -0.80196,-0.072 -1.60392,-0.14405 -2.43018,-0.21826 -12.17715,-1.0342 -24.42097,-0.8804 -36.63232,-0.90674 -0.86912,-0.003 -1.73824,-0.006 -2.6337,-0.008 -2.48803,-0.006 -4.97593,-0.004 -7.46396,5.8e-4 -0.76056,-0.002 -1.52113,-0.004 -2.30474,-0.006 -3.89553,-0.0582 -3.89553,-0.0582 -7.5351,1.13878 0.28025,-0.86637 0.28025,-0.86637 0.56616,-1.75024 C 633.62324,248.13947 629.76943,187.00791 604.10303,137.42187 598.66424,127.32984 592.63102,117.93304 585.4375,109 c -0.97066,-1.27424 -0.97066,-1.27424 -1.96094,-2.57422 C 566.93036,85.22001 546.29024,69.17784 522.4375,57 521.83083,56.67983 521.22417,56.35966 520.59912,56.02979 501.65084,46.07013 480.55658,40.758502 459.4375,38 c -0.74717,-0.1024 -1.49435,-0.2048 -2.26416,-0.310303 -8.37571,-1.002775 -16.81332,-0.889785 -25.23584,-0.877197 -1.20803,0.0014 -1.20803,0.0014 -2.44046,0.0028 C 386.09405,36.924981 344.86416,49.46916 311.4375,78 Z m 396.17187,14.80859 c -5.7681,6.26118 -11.01973,12.78318 -16.14379,19.58008 -3.72483,4.93389 -7.54405,9.77003 -11.46558,14.54883 -7.01587,8.5629 -13.80311,17.29644 -20.5625,26.0625 -0.52384,0.67917 -1.04769,1.35835 -1.5874,2.05811 -2.8089,3.6437 -5.61312,7.29095 -8.4126,10.94189 7.87359,2.14164 16.13232,2.1638 24.24219,2.20312 1.39619,0.009 1.39619,0.009 2.82058,0.0173 1.94782,0.009 3.89565,0.0159 5.84348,0.0198 2.98204,0.01 5.96343,0.041 8.94531,0.0723 1.90104,0.007 3.80208,0.0118 5.70313,0.0156 1.33283,0.0185 1.33283,0.0185 2.69259,0.0374 3.52266,-0.0128 6.07468,-0.0415 9.28055,-1.57355 3.57469,-4.35128 2.61737,-10.67093 2.60498,-16.02637 0.001,-0.90318 0.003,-1.80637 0.004,-2.73693 0.002,-2.92627 -0.004,-5.85244 -0.0118,-8.77869 -8.9e-4,-0.98899 -0.002,-1.97799 -0.003,-2.99695 -0.0157,-15.10606 -0.28058,-30.16745 -1.12201,-45.25303 -1.31012,-0.11722 -1.31012,-0.11722 -2.82813,1.80859 z M 170.4375,93 c -5.16349,5.47548 -9.78155,11.24964 -14.3125,17.25 -4.39512,5.81787 -8.90403,11.47588 -13.65894,17.00244 -3.81406,4.44801 -7.43746,9.02808 -11.03808,13.64966 -3.54666,4.5489 -7.17602,9.02332 -10.84204,13.47681 -3.4224,4.17533 -6.786,8.39742 -10.14844,12.62109 2.97748,1.70837 5.09389,2.24847 8.51562,2.23047 0.90662,-0.001 1.81323,-0.002 2.74732,-0.003 0.98573,-0.0131 1.97146,-0.0263 2.98706,-0.0398 1.02891,-0.009 2.05783,-0.0172 3.11792,-0.0261 3.54438,-0.0389 7.08803,-0.0993 10.63208,-0.16138 1.4038,-0.0199 2.80761,-0.0394 4.21143,-0.0586 3.64746,-0.0521 7.29417,-0.12322 10.94104,-0.20688 1.43748,-0.0313 2.87508,-0.058 4.31274,-0.0801 2.02881,-0.0332 4.05724,-0.0875 6.08557,-0.14267 1.75824,-0.0393 1.75824,-0.0393 3.552,-0.0794 2.81817,-0.2119 2.81817,-0.2119 4.55701,-1.53076 2.02854,-2.87828 1.69932,-5.26937 1.68079,-8.75976 4.3e-4,-0.69295 8.7e-4,-1.38589 0.001,-2.09983 -0.002,-2.28903 -0.0254,-4.57733 -0.0489,-6.86624 -0.006,-1.58754 -0.01,-3.1751 -0.0129,-4.76265 -0.0115,-4.17749 -0.0409,-8.35466 -0.0741,-12.53203 -0.0307,-4.26306 -0.0444,-8.52617 -0.0595,-12.7893 -0.0319,-8.36425 -0.0831,-16.72807 -0.14618,-25.09197 -0.66,0.33 -1.32,0.66 -2,1 -0.495,-0.99 -0.495,-0.99 -1,-2 z m -35,208 c 0,0.66 0,1.32 0,2 0.66,-0.33 1.32,-0.66 2,-1 -0.66,-0.33 -1.32,-0.66 -2,-1 z"
     fill="#ecdab7"
     id="path4" />
  <path
     d="m 318.4375,411 c 1.72555,2.58833 2.59083,4.41043 3.55859,7.29687 3.55892,10.33431 7.45809,20.34357 12.19141,30.20313 0.68921,1.44004 0.68921,1.44004 1.39233,2.90918 1.87402,3.83598 3.72395,7.53658 6.1897,11.02832 C 343.4375,465 343.4375,465 343.375,468.5 c -0.1418,0.67031 -0.28359,1.34063 -0.42969,2.03125 -0.58813,2.5974 -0.58813,2.5974 -0.76562,5.8125 -0.66144,5.62826 -1.16473,9.37846 -5.70313,13.05469 -2.99857,1.75485 -6.13379,3.21863 -9.2749,4.69824 -17.09211,8.75184 -29.46591,27.89969 -36.08838,45.40332 -1.00171,3.15781 -1.90377,6.27821 -2.67578,9.5 -0.17515,0.72816 -0.3503,1.45632 -0.53076,2.20654 -5.28261,23.75524 -0.82811,50.41091 12.21826,70.98096 15.56804,21.92474 36.03091,34.06761 62.1875,39.39844 22.36117,2.96285 45.27064,-2.29898 63.71484,-15.42969 2.54635,-1.97744 4.98962,-4.02696 7.41016,-6.15625 0.76184,-0.66645 1.52367,-1.33289 2.30859,-2.01953 14.15642,-13.2241 24.32654,-33.69405 25.59766,-53.04688 0.0309,-0.96808 0.0619,-1.93617 0.0937,-2.93359 0.0258,-0.66628 0.0516,-1.33257 0.0781,-2.01904 0.87719,-25.35599 -5.17452,-49.40863 -22.34375,-68.78174 C 429.76152,501.13518 418.94713,493.75443 406.4375,488 c -0.3125,-2.25 -0.3125,-2.25 0,-5 3.46599,-3.10416 7.32544,-5.60495 11.1875,-8.1875 5.38529,-3.64432 10.18095,-7.65463 14.88672,-12.16016 C 434.4375,461 434.4375,461 436.4375,461 c 0.34144,0.61295 0.68288,1.2259 1.03467,1.85742 8.20413,14.75539 8.20413,14.75539 17.02783,29.14258 30.64808,48.12286 48.63434,110.57816 36.67187,167.48364 -4.39881,19.4466 -12.28745,36.62789 -25.73437,51.51636 -0.75926,0.84176 -1.51852,1.68352 -2.30078,2.55078 -20.62032,21.70028 -50.92471,33.52179 -80.58985,34.66406 -31.00901,0.77544 -60.65309,-8.4133 -84.10937,-29.21484 -1.04607,-0.92039 -1.04607,-0.92039 -2.11328,-1.85938 C 280.48099,702.28165 271.95253,682.85123 267.4375,662 c -0.24621,-1.0493 -0.49242,-2.09859 -0.74609,-3.17969 C 254.053,594.49517 288.99115,469.89269 318.4375,411 Z"
     fill="#ecdab8"
     id="path6" />
  <path
     d="m 234.4375,212 c 47.45326,6.67861 92.95868,27.05808 127.51367,60.56494 1.42261,1.37354 2.86808,2.72329 4.31445,4.07178 23.11305,22.08947 35.76149,49.76844 40.17188,81.17578 0.17096,1.17289 0.34192,2.34577 0.51807,3.5542 0.79778,5.53366 1.54936,11.06779 2.19287,16.62158 2.40814,20.67521 5.91442,41.95331 16.55468,60.17969 0.73438,1.83203 0.73438,1.83203 0.69922,3.75 -1.45159,3.13238 -3.85832,5.14863 -6.40234,7.39453 -0.80329,0.71978 -0.80329,0.71978 -1.6228,1.4541 -9.73283,8.5855 -9.73283,8.5855 -14.9397,11.2334 -3,-1 -3,-1 -5.0625,-3.75 -3.97277,-5.02653 -10.68402,-8.12251 -16.9375,-9.25 -8.83523,-0.58526 -16.62039,0.12699 -25,3 -7.27475,-12.77123 -12.3391,-25.38391 -16.26563,-39.52734 C 336.10266,397.86164 330.89404,385.16797 317.3125,377.125 306.4544,371.12248 295.06923,366.04858 283.80469,360.86719 245.4407,343.16337 211.59445,317.10824 190.4375,280 c 0,-0.33 0,-0.66 0,-1 1.68416,-0.34611 1.68416,-0.34611 3.40234,-0.69922 14.56407,-3.11587 26.70671,-8.20637 35.47266,-21.11328 8.00914,-14.1438 8.61286,-29.64784 5.125,-45.1875 z"
     fill="#eddab8"
     id="path8" />
  <path
     d="m 411,512.625 c 15.90605,12.23366 28.63679,29.03757 31.4375,49.375 1.57324,20.7768 -1.78119,39.60957 -15.35156,56.11328 -2.11973,2.42614 -4.28428,4.69554 -6.64844,6.88672 -0.50273,0.51949 -1.00547,1.03898 -1.52344,1.57422 -12.85099,12.48622 -30.43635,16.96774 -47.88159,16.91846 -18.74747,-0.57139 -34.57865,-9.80549 -47.81763,-22.64893 -15.09996,-16.06007 -19.40257,-35.22642 -19.01562,-56.5625 0.64033,-17.99231 9.93022,-34.50101 22.83203,-46.74219 C 350.36079,497.36035 385.38658,494.93438 411,512.625 Z"
     fill="#eddbba"
     id="path10" />
  <path
     d="m 761.4375,451 c 16.36791,65.37233 16.36791,65.37233 17,98 0.0311,1.12084 0.0622,2.24168 0.0942,3.39648 0.37233,14.58656 0.29551,28.87988 -1.84424,43.35352 -0.15686,1.06267 -0.31373,2.12534 -0.47534,3.22021 -2.49851,15.10132 -7.87575,30.66109 -20.64966,40.09229 -11.93245,7.57711 -26.61471,10.01249 -40.5,10.375 -0.77384,0.0346 -1.54768,0.0691 -2.34497,0.10474 -4.1277,0.0301 -5.79429,-0.17056 -9.17456,-2.75708 -5.15406,-6.81789 -7.01977,-14.8063 -6.75,-23.28907 1.0383,-5.63197 3.71051,-10.20669 6.41797,-15.19922 13.59776,-25.41221 18.45434,-55.73439 18.47656,-84.17187 6.7e-4,-0.77712 10e-4,-1.55425 0.002,-2.35492 C 721.6582,499.00961 717.2914,479.28493 709.4375,458 c 0.64211,-0.0647 1.28423,-0.12939 1.9458,-0.19604 12.90269,-1.33473 25.48337,-3.01649 38.05859,-6.26563 0.84934,-0.21374 1.69867,-0.42749 2.57373,-0.64771 0.73638,-0.19561 1.47276,-0.39123 2.23145,-0.59277 2.60763,-0.35458 4.6523,0.0679 7.19043,0.70215 z"
     fill="#8f7449"
     id="path12" />
  <path
     d="m 637.25,374.3125 c 0.72187,0.55687 1.44375,1.11375 2.1875,1.6875 -0.66,0.33 -1.32,0.66 -2,1 -0.99,-0.495 -0.99,-0.495 -2,-1 -14.26095,-1.51807 -26.95084,0.20656 -40,6 -0.66081,0.28907 -1.32161,0.57814 -2.00244,0.87598 -23.85203,10.76112 -40.9369,31.81894 -50.31006,55.87402 -11.57975,32.10696 -9.21028,67.78548 5.13306,98.51758 4.19515,8.64843 9.27058,17.35068 16.50756,23.81054 1.67188,1.92188 1.67188,1.92188 1.63282,3.78516 -1.29422,2.87779 -2.75779,5.59076 -4.33594,8.32422 -0.60586,1.06605 -1.21172,2.13211 -1.83594,3.23047 C 558.4375,579 558.4375,579 555.4375,580 531.23372,566.54884 514.66742,540.19388 506.25,514.6875 c -0.63205,-2.22142 -1.23546,-4.45116 -1.8125,-6.6875 -0.45053,-1.71703 -0.45053,-1.71703 -0.91016,-3.46875 -7.16008,-32.76987 -1.72166,-68.01767 15.91016,-96.53125 2.81234,-4.16847 5.81419,-8.11112 9,-12 0.68578,-0.85078 1.37156,-1.70156 2.07812,-2.57813 25.70379,-30.27335 71.91005,-41.97546 106.73438,-19.10937 z"
     fill="#917549"
     id="path14" />
  <path
     d="m 65.4375,534 c 26.4,0 52.8,0 80,0 19.66165,73.73119 19.66165,73.73119 8.64062,93.42969 -2.81589,4.07869 -4.868,6.0114 -9.64062,7.57031 -3.13794,0.22705 -3.13794,0.22705 -6.61328,0.19531 -1.87075,-0.01 -1.87075,-0.01 -3.7793,-0.0195 -1.29357,-0.0168 -2.58715,-0.0335 -3.91992,-0.0508 -1.96937,-0.0135 -1.96937,-0.0135 -3.97852,-0.0273 -3.23651,-0.0235 -6.47265,-0.0564 -9.70898,-0.0977 1.12342,-1.08668 1.12342,-1.08668 2.26953,-2.19531 2.40189,-2.46717 4.4276,-4.87976 6.41797,-7.67969 0.58137,-0.8018 1.16273,-1.60359 1.76172,-2.42969 5.1096,-8.88067 4.64038,-20.2674 2.96875,-30.1289 C 125.89956,578.09754 116.69351,564.63563 107.4375,553 c -0.66,-0.33 -1.32,-0.66 -2,-1 -0.0735,0.68836 -0.14695,1.37672 -0.22266,2.08594 -0.99846,3.74297 -2.95059,6.46627 -5.21484,9.53906 -0.44376,0.61392 -0.88752,1.22783 -1.34473,1.86035 -2.94045,3.99313 -6.0747,7.65018 -9.46777,11.26465 -8.88267,9.46926 -13.41451,18.34137 -13.05859,31.38672 0.76994,9.63891 4.50911,16.17423 11.30859,22.86328 1.00053,0.99947 2.00061,1.99939 3,3 -4.2081,0.11657 -8.41578,0.18738 -12.625,0.25 -1.1898,0.0335 -2.37961,0.067 -3.60547,0.10156 C 63.1737,634.47484 63.1737,634.47484 58.4375,630 51.14166,622.04895 50.95343,610.73336 51.12891,600.50391 52.36065,578.02069 58.34971,555.26337 65.4375,534 Z"
     fill="#eddbba"
     id="path18" />
  <path
     d="m 105.4375,552 c 3.41601,1.13867 3.86738,1.82605 5.85547,4.69141 0.53649,0.77239 1.07298,1.54478 1.62573,2.34057 0.84462,1.25261 0.84462,1.25261 1.7063,2.53052 0.5779,0.85247 1.15581,1.70495 1.75122,2.58325 3.56821,5.36153 6.8557,10.78685 9.74878,16.54175 0.31413,0.62141 0.62826,1.24282 0.9519,1.88306 5.08692,10.59097 6.55809,24.01949 3.2981,35.42944 -2.78963,6.80882 -7.88165,12.8885 -13.9375,17 -3.13794,0.4541 -3.13794,0.4541 -6.61328,0.39062 -1.24717,-0.0129 -2.49434,-0.0258 -3.7793,-0.0391 -1.29357,-0.0335 -2.58715,-0.067 -3.91992,-0.10156 -1.31291,-0.0181 -2.62582,-0.0361 -3.97852,-0.0547 -3.23706,-0.047 -6.47265,-0.11279 -9.70898,-0.19526 -0.29729,-0.62383 -0.59458,-1.24765 -0.90088,-1.89038 -1.21514,-2.3323 -2.62909,-3.80695 -4.47412,-5.67212 -6.87092,-7.8033 -8.46241,-16.50901 -8.12109,-26.73828 1.40359,-10.4662 7.94054,-17.82683 14.67578,-25.46094 6.26682,-7.1171 11.96855,-14.52996 15.82031,-23.23828 z"
     fill="#8a7149"
     id="path20" />
  <path
     d="m 412.4375,528 c 1.03043,2.66476 1.04694,3.85477 0.15479,6.61523 -0.45069,0.98291 -0.90138,1.96582 -1.36573,2.97852 -0.49878,1.10376 -0.99757,2.20752 -1.51147,3.34473 -0.54536,1.1753 -1.09071,2.3506 -1.65259,3.56152 -0.55514,1.21536 -1.10925,2.43118 -1.66235,3.64746 -1.11655,2.4525 -2.23881,4.90227 -3.36451,7.35059 -1.43775,3.1505 -2.8423,6.31225 -4.22705,9.48632 -0.39332,0.89655 -0.78665,1.79309 -1.19189,2.7168 -0.72071,1.645 -1.43687,3.29201 -2.14746,4.94141 -4.04287,9.11973 -8.23236,14.1088 -16.96924,19.04492 -0.86448,0.5033 -1.72896,1.0066 -2.61963,1.52515 -10.03284,5.79757 -20.21021,11.35139 -30.44287,16.78735 -1.11633,0.60715 -2.23266,1.2143 -3.38281,1.83984 C 339.4375,613 339.4375,613 335.4375,613 c 0.55061,-5.03309 1.6754,-9.20106 3.625,-13.86719 0.26275,-0.63282 0.5255,-1.26565 0.79622,-1.91765 0.84939,-2.03452 1.71241,-4.06281 2.57878,-6.09016 0.29345,-0.69109 0.58691,-1.38218 0.88925,-2.09421 3.45256,-8.11469 6.9279,-16.22812 10.92325,-24.09329 0.46696,-0.95979 0.46696,-0.95979 0.94336,-1.93896 4.5054,-8.44879 13.4911,-12.44339 21.61914,-16.74854 1.94173,-1.04367 3.88313,-2.08795 5.82422,-3.13281 0.96728,-0.51853 1.93456,-1.03705 2.93115,-1.57129 4.37193,-2.35521 8.71662,-4.75841 13.05713,-7.1709 0.7475,-0.41347 1.49499,-0.82693 2.26514,-1.25293 C 410.11116,528 410.11116,528 412.4375,528 Z"
     fill="#211e19"
     id="path24" />
  <path
     d="m 565.4375,479 c 16.91351,8.27682 28.61428,27.86062 35,45 4.58098,13.96399 2.93847,29.45613 -3.21484,42.59375 -4.05402,7.42649 -9.93021,13.38901 -15.78516,19.40625 -0.8018,0.83016 -1.60359,1.66031 -2.42969,2.51562 -3.38029,3.43878 -6.80113,6.71292 -10.50781,9.79688 -13.12205,11.31482 -23.85192,27.2617 -25.23218,44.84961 -0.14936,2.4037 -0.27581,4.80741 -0.39282,7.21289 -0.0432,0.83145 -0.0864,1.66289 -0.13086,2.51953 -0.10526,2.035 -0.20637,4.07022 -0.30664,6.10547 -3.48813,-1.74406 -4.04846,-5.62518 -5.30054,-9.15381 -3.95112,-12.0084 -1.64746,-22.60928 3.70288,-33.77197 6.41053,-11.8336 15.72195,-21.32155 25.28516,-30.63672 11.89785,-11.62255 22.24954,-25.44334 22.74438,-42.67554 0.0557,-21.8039 -9.6706,-41.44505 -21.77954,-59.17212 C 565.4375,481 565.4375,481 565.4375,479 Z"
     fill="#eedebf"
     id="path26" />
  <path
     d="m 350.4375,185 c 3.61782,2.54481 4.374,6.62158 5.6875,10.625 3.31804,9.35112 7.60054,15.71171 16.625,20.375 8.57325,3.87613 17.98844,4.44255 27.12891,2.12891 9.66995,-3.76672 17.01591,-9.7179 21.55859,-19.12891 1.11695,-2.87216 2.1469,-5.75095 3.10547,-8.67969 C 425.4375,188 425.4375,188 427.4375,186 c 5.26573,-0.56018 5.26573,-0.56018 7.66406,1.26953 2.07683,2.69017 1.80815,4.83805 1.67969,8.14063 -1.60835,12.11742 -8.78404,22.11706 -17.95313,29.83593 -12.20003,8.95068 -25.74995,9.99124 -40.39062,8.75391 -4.03226,-0.81666 -7.37038,-2.08685 -11,-4 -0.85723,-0.4241 -1.71445,-0.8482 -2.59766,-1.28516 -10.53324,-5.70352 -17.5366,-14.6825 -21.14843,-26.0664 -1.28467,-5.15638 -2.90334,-11.87045 -0.0664,-16.64844 2.47776,-1.36704 4.02406,-1.41827 6.8125,-1 z"
     fill="#edddbd"
     id="path28" />
  <path
     d="m 348.5625,304.625 c 0.74637,-0.0116 1.49273,-0.0232 2.26172,-0.0352 6.6931,0.0349 12.14302,1.51805 17.55078,5.66016 2.5382,3.38427 3.0625,5.53594 3.0625,9.75 -1.69279,3.2163 -2.5118,3.83727 -6,5 -3.20652,0.11876 -6.16787,0.17992 -9.3125,-0.5 -9.16902,-1.70586 -16.85923,0.40632 -25.5625,3.3125 -23.42827,7.63006 -23.42827,7.63006 -31.625,7.5625 -0.95906,0.008 -1.91813,0.0155 -2.90625,0.0234 -3.04051,-0.46699 -4.42724,-1.23185 -6.59375,-3.39836 -0.58106,-3.92215 -0.53253,-6.12023 1.53662,-9.53857 3.10136,-3.0989 6.28701,-4.20521 10.37744,-5.46924 0.76968,-0.25217 1.53936,-0.50433 2.33237,-0.76413 2.45477,-0.80003 4.91623,-1.57667 7.37857,-2.35306 1.632,-0.52845 3.26351,-1.05838 4.89453,-1.58984 3.83543,-1.24542 7.67916,-2.46206 11.52753,-3.66681 1.67519,-0.53041 3.34341,-1.08273 5.01007,-1.63935 5.4533,-1.77974 10.33689,-2.44402 16.06787,-2.354 z"
     fill="#201d18"
     id="path30" />
  <path
     d="m 74.4375,436 c 4.23126,0.22027 8.45905,0.48138 12.6875,0.75 1.79728,0.0928 1.79728,0.0928 3.63086,0.1875 1.15693,0.0773 2.31387,0.15469 3.50586,0.23437 1.59461,0.0943 1.59461,0.0943 3.22143,0.19043 3.5538,0.76709 5.28742,2.22073 7.95435,4.6377 9.80962,6.14653 20.66732,7.39072 32,8 -0.33,5.28 -0.66,10.56 -1,16 -20.13,0 -40.26,0 -61,0 -1.15034,-16.10473 -1.15034,-16.10473 -1.0625,-22.875 0.005,-0.69996 0.009,-1.39992 0.0137,-2.12109 0.0114,-1.66801 0.0293,-3.33598 0.0488,-5.00391 z"
     fill="#eeddbd"
     id="path32" />
  <path
     d="m 97.4375,358 c -0.50789,0.64324 -1.01578,1.28648 -1.53906,1.94922 C 84.09417,375.44509 81.23462,388.98035 82.4375,408 c 0.67279,3.82943 1.57714,7.38357 3,11 -8.49478,-2.8041 -12.11001,-5.31622 -16.8125,-12.9375 -3.02683,-7.90825 -2.15468,-17.59569 0.75,-25.375 4.7386,-9.9457 13.08587,-18.12167 22.875,-23.125 C 94.4375,357 94.4375,357 97.4375,358 Z"
     fill="#ebdab9"
     id="path34" />
  <path
     d="m 125.4375,375 c 0.66,0.33 1.32,0.66 2,1 -0.5066,0.961 -0.5066,0.961 -1.02344,1.94141 -0.44601,0.86496 -0.89203,1.72992 -1.35156,2.62109 -0.44086,0.84691 -0.88172,1.69383 -1.33594,2.56641 -4.79992,10.69072 -4.79131,23.33853 -1.28515,34.46093 1.5642,3.78477 3.6636,7.06245 5.99609,10.41016 0.33,0.66 0.66,1.32 1,2 -7.02921,-0.31241 -11.50207,-1.46851 -16.62891,-6.64453 -5.73557,-6.34368 -6.826,-11.55401 -6.6914,-20.0625 0.45832,-4.71181 1.94169,-8.24601 4.32031,-12.29297 0.5775,-1.01063 1.155,-2.02125 1.75,-3.0625 3.78885,-4.94656 8.05447,-9.47381 13.25,-12.9375 z"
     fill="#ecdcbc"
     id="path36" />
  <path
     d="m 619.4375,655 c 0.33,0 0.66,0 1,0 0.19594,0.96938 0.39188,1.93875 0.59375,2.9375 3.40643,15.69884 10.74496,28.4434 19.40234,41.83203 C 642.4375,703 642.4375,703 643.4375,706 c -9.85135,-2.65497 -17.45406,-6.79653 -22.78125,-15.73438 -0.40219,-0.74765 -0.80438,-1.49531 -1.21875,-2.26562 -0.34031,-0.60328 -0.68062,-1.20656 -1.03125,-1.82813 -4.21217,-8.97035 -2.80801,-20.44896 0.375,-29.51171 0.32484,-0.82178 0.32484,-0.82178 0.65625,-1.66016 z"
     fill="#ecdab8"
     id="path38" />
  <path
     d="m 576.4375,647 c 0.33,0 0.66,0 1,0 0.0387,1.2375 0.0387,1.2375 0.0781,2.5 0.86106,17.53431 6.37297,31.84158 13.92188,47.5 -9.81231,-3.0311 -16.14007,-7.88762 -21,-17 -3.11034,-9.33101 -1.33708,-18.94519 2.71094,-27.60938 C 574.4375,650 574.4375,650 576.4375,647 Z"
     fill="#efe1c3"
     id="path40" />
  <path
     d="m 103.4375,600 c 4.94334,4.40892 7.63339,8.30879 8.28516,14.87109 0.22417,7.80717 -0.94513,12.61887 -5.28516,19.12891 -2.8125,0.6875 -2.8125,0.6875 -6,0 -4.17301,-3.80448 -5.3692,-8.37531 -5.625,-13.875 0.33335,-7.98013 3.82896,-13.93655 8.625,-20.125 z"
     fill="#eedebf"
     id="path42" />
  <path
     d="m 379.4375,470 c 3.52471,2.05608 5.66463,4.11527 7,8 0,1.32 0,2.64 0,4 -7.92,-0.33 -15.84,-0.66 -24,-1 1.20095,-7.20569 1.20095,-7.20569 5.05469,-10.08203 3.87226,-1.82727 7.79914,-1.67245 11.94531,-0.91797 z"
     fill="#eddebf"
     id="path46" />
  <path
     d="m 373.375,561.9375 c 3.85522,1.33752 5.6058,2.81099 8.0625,6.0625 0.625,3 0.625,3 0,6 -2.63211,3.66901 -4.08854,4.8401 -8.5625,5.625 C 369.4375,579 369.4375,579 366.9375,577 c -1.99999,-3.99999 -1.86091,-6.78557 -0.5,-11 2.1479,-3.26163 3.01365,-3.97901 6.9375,-4.0625 z"
     fill="#927549"
     id="path50" />
  <path
     d="m 425.4375,568.6875 c 1.25812,-0.0168 2.51625,-0.0335 3.8125,-0.0508 1.05187,0.11988 2.10375,0.23976 3.1875,0.36328 2,3 2,3 1.6875,6.625 C 433.4375,579 433.4375,579 432.4375,580 c -2.1212,0.15193 -4.24855,0.22184 -6.375,0.25 -1.16273,0.0258 -2.32547,0.0516 -3.52344,0.0781 C 419.4375,580 419.4375,580 417.54297,578.67578 c -1.70079,-2.57823 -1.4248,-4.67412 -1.10547,-7.67578 2.87301,-2.87301 5.00343,-2.30022 9,-2.3125 z"
     fill="#1c1a15"
     id="path52" />
  <path
     d="m 317.66016,564.76953 c 1.90072,0.0213 1.90072,0.0213 3.83984,0.043 1.90459,0.01 1.90459,0.01 3.84766,0.0195 C 328.4375,565 328.4375,565 329.4375,566 c 0.37086,5.84106 0.37086,5.84106 0,8 -3.35198,2.23465 -4.57791,2.27109 -8.5,2.25 -1.43859,0.008 -1.43859,0.008 -2.90625,0.0156 C 315.4375,576 315.4375,576 312.4375,574 c -0.3125,-3.5 -0.3125,-3.5 0,-7 2,-2 2,-2 5.22266,-2.23047 z"
     fill="#1e1b16"
     id="path54" />
  <path
     d="m 371.4375,510.75 c 3,0.25 3,0.25 5,2.25 0.23047,3.1875 0.23047,3.1875 0.1875,7 -0.01,1.88719 -0.01,1.88719 -0.0195,3.8125 -0.168,3.1875 -0.168,3.1875 -1.168,5.1875 -3.375,0.125 -3.375,0.125 -7,0 -2,-2 -2,-2 -2.26563,-5.1875 0.005,-1.25812 0.0103,-2.51625 0.0156,-3.8125 -0.005,-1.25812 -0.0103,-2.51625 -0.0156,-3.8125 0.35297,-4.23557 1.0075,-5.08266 5.26563,-5.4375 z"
     fill="#1b1914"
     id="path56" />
  <path
     d="M 372.875,614.8125 C 376.4375,615 376.4375,615 378.4375,617 c 0.30078,2.93359 0.30078,2.93359 0.3125,6.4375 0.0168,1.15371 0.0335,2.30742 0.0508,3.49609 -0.3633,3.06641 -0.3633,3.06641 -1.72268,4.95703 -2.31523,1.56554 -3.90944,1.45953 -6.64062,1.10938 -2,-2 -2,-2 -2.23047,-5.44141 0.004,-1.37376 0.0187,-2.74753 0.043,-4.12109 6.4e-4,-0.69803 0.001,-1.39605 0.002,-2.11523 0.0546,-6.26058 0.0546,-6.26058 4.62305,-6.50977 z"
     fill="#1f1c16"
     id="path58" />
  <path
     d="m 170.4375,470 c 0.66,0 1.32,0 2,0 1.18607,1.68786 2.29662,3.42888 3.375,5.1875 7.43886,11.40715 16.81662,20.57856 27.625,28.8125 -0.99,0.495 -0.99,0.495 -2,1 -11.75183,-8.42808 -26.2572,-20.77161 -31,-35 z"
     fill="#0c0906"
     id="path80" />
  <path
     d="m 358.4375,744 c 9.9,0.33 19.8,0.66 30,1 0,0.33 0,0.66 0,1 -9.9,0.33 -19.8,0.66 -30,1 0,-0.99 0,-1.98 0,-3 z"
     fill="#e0cdaa"
     id="path114" />
  <path
     d="m 170.4375,470 c 0.66,0 1.32,0 2,0 1.3801,1.88994 2.68019,3.83874 3.9375,5.8125 3.11187,4.93887 3.11187,4.93887 7.0625,9.1875 -0.33,0.99 -0.66,1.98 -1,3 -1.63237,-2.05702 -3.25587,-4.1201 -4.875,-6.1875 -0.69029,-0.86722 -0.69029,-0.86722 -1.39453,-1.75195 C 173.6495,476.83033 171.73005,473.94452 170.4375,470 Z"
     fill="#16130d"
     id="path140" />
  <path
     d="m 270.4375,820 c 11.52164,0.96355 11.52164,0.96355 17,2 0,0.33 0,0.66 0,1 -2.08326,0.0271 -4.16662,0.0464 -6.25,0.0625 -1.74023,0.0174 -1.74023,0.0174 -3.51563,0.0352 -2.64414,-0.0799 -4.73263,-0.31126 -7.23437,-1.0977 0,-0.66 0,-1.32 0,-2 z"
     fill="#f2e0bb"
     id="path162" />
  <path
     d="m 490.4375,600 c 0.99,0 1.98,0 3,0 0.1875,2.8125 0.1875,2.8125 0,6 -0.99,0.99 -1.98,1.98 -3,3 0,-2.97 0,-5.94 0,-9 z"
     fill="#ddccab"
     id="path222" />
  <path
     d="m 266.4375,822 c 4,1 4,1 4,1 z"
     fill="#e1d1ae"
     id="path276" />
  <path
     d="m 508.4375,894 c 3,1 3,1 3,1 z"
     fill="#e8d5b2"
     id="path288" />
  <path
     d="m 449.4375,894 c 0.66,0 1.32,0 2,0 -0.33,0.66 -0.66,1.32 -1,2 -0.33,-0.66 -0.66,-1.32 -1,-2 z"
     fill="#e4d2b0"
     id="path290" />
  <path
     d="m 610.4375,892 c 3,1 3,1 3,1 z"
     fill="#e9d4b0"
     id="path292" />
  <path
     d=""
     fill="#e4d1af"
     id="path294" />
  <path
     d=""
     fill="#ebd8b5"
     id="path300" />
  <path
     d=""
     fill="#ebd8b5"
     id="path302" />
  <path
     d=""
     fill="#ecd9b7"
     id="path306" />
  <path
     d=""
     fill="#ebd8b5"
     id="path308" />
  <path
     d=""
     fill="#ead9b6"
     id="path312" />
  <path
     d=""
     fill="#ead9b5"
     id="path314" />
  <path
     d=""
     fill="#e8d7b4"
     id="path322" />
  <path
     d="m 540.4375,886 c 2,1 2,1 2,1 z"
     fill="#e9d6b2"
     id="path336" />
  <path
     d="m 575.4375,884 c 2,1 2,1 2,1 z"
     fill="#e7d5af"
     id="path338" />
  <path
     d="m 560.4375,883 c 2,1 2,1 2,1 z"
     fill="#e9d4b2"
     id="path340" />
  <path
     d=""
     fill="#e6d3b0"
     id="path342" />
  <path
     d="m 355.4375,835 c 2,1 2,1 2,1 z"
     fill="#e8d4b2"
     id="path346" />
  <path
     d="m 330.4375,829 c 2,1 2,1 2,1 z"
     fill="#e6d3b0"
     id="path348" />
  <path
     d="m 322.4375,828 c 2,1 2,1 2,1 z"
     fill="#e6d3b0"
     id="path350" />
  <path
     d=""
     fill="#e9d6b4"
     id="path356" />
  <path
     d=""
     fill="#e6d4b0"
     id="path368" />
  <path
     d=""
     fill="#e5d3af"
     id="path370" />
  <path
     d=""
     fill="#e7d5b1"
     id="path372" />
  <path
     d=""
     fill="#e6d2b0"
     id="path374" />
  <path
     d=""
     fill="#e6d2af"
     id="path376" />
  <path
     d=""
     fill="#ebd8b4"
     id="path378" />
  <path
     d=""
     fill="#ead6b3"
     id="path380" />
  <path
     d=""
     fill="#e8d5b3"
     id="path382" />
  <path
     d=""
     fill="#e8d5b1"
     id="path384" />
  <path
     d=""
     fill="#ecdab6"
     id="path392" />
  <path
     d=""
     fill="#e8d4b2"
     id="path394" />
  <path
     d=""
     fill="#ecd9b5"
     id="path396" />
  <path
     d=""
     fill="#ecd9b7"
     id="path398" />
  <path
     d=""
     fill="#e2cfae"
     id="path408" />
  <path
     d=""
     fill="#efdbb7"
     id="path410" />
  <path
     d=""
     fill="#ebdcb7"
     id="path412" />
  <path
     d=""
     fill="#efdab6"
     id="path416" />
  <path
     d=""
     fill="#eedcba"
     id="path418" />
  <path
     d=""
     fill="#e8d6b4"
     id="path422" />
  <path
     d=""
     fill="#e5d2af"
     id="path438" />
  <path
     d=""
     fill="#e8d3b0"
     id="path440" />
  <path
     d=""
     fill="#e8d5b0"
     id="path442" />
  <path
     d=""
     fill="#e7d5b1"
     id="path444" />
  <path
     d=""
     fill="#e2cfac"
     id="path446" />
  <path
     d=""
     fill="#e9d4b2"
     id="path448" />
  <path
     d=""
     fill="#e7d3b0"
     id="path450" />
  <path
     d=""
     fill="#e7d3af"
     id="path452" />
  <path
     d=""
     fill="#e4d2ae"
     id="path454" />
  <path
     d=""
     fill="#e8d5b1"
     id="path456" />
  <path
     d=""
     fill="#e5d0ac"
     id="path458" />
  <path
     d=""
     fill="#e4cfad"
     id="path460" />
  <path
     d=""
     fill="#e9d6b1"
     id="path462" />
  <path
     d=""
     fill="#e9d5b1"
     id="path464" />
  <path
     d=""
     fill="#e9d4b1"
     id="path466" />
  <path
     d=""
     fill="#71644e"
     id="path468" />
  <path
     d=""
     fill="#e1cfac"
     id="path470" />
  <path
     d=""
     fill="#e2d0ae"
     id="path472" />
  <path
     d=""
     fill="#e1d0ac"
     id="path474" />
  <path
     d=""
     fill="#e5d2af"
     id="path476" />
  <path
     d=""
     fill="#e5d1af"
     id="path478" />
  <path
     d=""
     fill="#e2ceac"
     id="path480" />
  <path
     d=""
     fill="#e6d6b4"
     id="path482" />
  <path
     d=""
     fill="#e0cfab"
     id="path484" />
  <path
     d=""
     fill="#e9d7b2"
     id="path486" />
  <path
     d=""
     fill="#e7d5b2"
     id="path488" />
  <path
     d=""
     fill="#ddcaa7"
     id="path490" />
  <path
     d=""
     fill="#e6d5b0"
     id="path492" />
  <path
     d=""
     fill="#e5d3b0"
     id="path494" />
  <path
     d=""
     fill="#e4cfae"
     id="path496" />
  <path
     d=""
     fill="#e3d1af"
     id="path498" />
  <path
     d=""
     fill="#e4d2ae"
     id="path500" />
  <path
     d=""
     fill="#e4d2b0"
     id="path502" />
  <path
     d=""
     fill="#e0cfab"
     id="path504" />
  <path
     d=""
     fill="#e2cfad"
     id="path506" />
  <path
     d=""
     fill="#e1ceac"
     id="path508" />
  <path
     d=""
     fill="#e1ccab"
     id="path510" />
  <path
     d=""
     fill="#e1cdab"
     id="path512" />
  <path
     d=""
     fill="#e5d0ae"
     id="path514" />
  <path
     d=""
     fill="#e3cead"
     id="path516" />
  <path
     d=""
     fill="#e2cdab"
     id="path518" />
  <path
     d=""
     fill="#dfcda9"
     id="path520" />
  <path
     d=""
     fill="#decaa7"
     id="path522" />
  <path
     d=""
     fill="#e0cead"
     id="path524" />
  <path
     d=""
     fill="#e4d0ab"
     id="path526" />
  <path
     d=""
     fill="#e1d0ac"
     id="path528" />
  <path
     d=""
     fill="#e2cfad"
     id="path530" />
  <path
     d=""
     fill="#e4d2af"
     id="path532" />
  <path
     d=""
     fill="#e3cfad"
     id="path534" />
  <path
     d=""
     fill="#e2d0ad"
     id="path536" />
  <path
     d=""
     fill="#e5d2ae"
     id="path538" />
  <path
     d=""
     fill="#dcc9a7"
     id="path540" />
  <path
     d=""
     fill="#e6d4b2"
     id="path542" />
  <path
     d=""
     fill="#e7d5b1"
     id="path544" />
  <path
     d=""
     fill="#dac9a7"
     id="path546" />
  <path
     d=""
     fill="#eed9b6"
     id="path548" />
  <path
     d=""
     fill="#ebd6b3"
     id="path550" />
  <path
     d=""
     fill="#ebd7b5"
     id="path552" />
  <path
     d=""
     fill="#eedcb7"
     id="path554" />
  <path
     d=""
     fill="#eedbb6"
     id="path556" />
  <path
     d=""
     fill="#eed9b6"
     id="path558" />
  <path
     d=""
     fill="#efdcb7"
     id="path560" />
  <path
     d=""
     fill="#f0deb7"
     id="path562" />
  <path
     d=""
     fill="#e1cfab"
     id="path564" />
  <path
     d=""
     fill="#ebd7b2"
     id="path566" />
  <path
     d=""
     fill="#ebd6b3"
     id="path568" />
  <path
     d=""
     fill="#ead8b3"
     id="path570" />
  <path
     d=""
     fill="#ead8b3"
     id="path572" />
  <path
     d=""
     fill="#e8d6b1"
     id="path574" />
  <path
     d=""
     fill="#e6d3af"
     id="path576" />
  <path
     d=""
     fill="#e8d8b4"
     id="path578" />
  <path
     d=""
     fill="#e2ceae"
     id="path580" />
  <path
     d=""
     fill="#dac7a5"
     id="path582" />
  <path
     d=""
     fill="#e8d5b4"
     id="path584" />
  <path
     d=""
     fill="#e5d2ae"
     id="path586" />
  <path
     d=""
     fill="#e5d2b0"
     id="path588" />
  <path
     d=""
     fill="#e4d2af"
     id="path590" />
  <path
     d=""
     fill="#e3d1ad"
     id="path592" />
  <path
     d=""
     fill="#e4cfab"
     id="path594" />
  <path
     d=""
     fill="#e9d4b1"
     id="path596" />
  <path
     d=""
     fill="#e8d4b2"
     id="path598" />
  <path
     d=""
     fill="#e6d3b1"
     id="path600" />
  <path
     d=""
     fill="#dfcba9"
     id="path602" />
  <path
     d=""
     fill="#edd9b6"
     id="path604" />
  <path
     d=""
     fill="#eedab8"
     id="path606" />
  <path
     d=""
     fill="#dbcca9"
     id="path608" />
  <path
     d=""
     fill="#ddcba7"
     id="path610" />
  <path
     d=""
     fill="#edd8b6"
     id="path612" />
  <path
     d=""
     fill="#ddc9a6"
     id="path614" />
  <path
     d=""
     fill="#d8c7a4"
     id="path616" />
  <path
     d=""
     fill="#edd9b3"
     id="path618" />
  <path
     d=""
     fill="#decbab"
     id="path620" />
  <path
     d=""
     fill="#e1ccab"
     id="path622" />
  <path
     d=""
     fill="#e0ceac"
     id="path624" />
  <path
     d=""
     fill="#e0d1ad"
     id="path626" />
  <path
     d=""
     fill="#e4d1af"
     id="path628" />
  <path
     d=""
     fill="#ead7b4"
     id="path630" />
  <path
     d=""
     fill="#e6d4b0"
     id="path632" />
  <path
     d=""
     fill="#e4d5b1"
     id="path634" />
  <path
     d=""
     fill="#e5d3ae"
     id="path636" />
  <path
     d=""
     fill="#e5d4b0"
     id="path638" />
  <path
     d=""
     fill="#e5d2ae"
     id="path640" />
  <path
     d=""
     fill="#e6d2ae"
     id="path642" />
  <path
     d=""
     fill="#e6d4b1"
     id="path644" />
  <path
     d=""
     fill="#e6d3b0"
     id="path646" />
  <path
     d=""
     fill="#e6d5b2"
     id="path648" />
  <path
     d=""
     fill="#e7d3b2"
     id="path650" />
  <path
     d=""
     fill="#e9d5b3"
     id="path652" />
  <path
     d=""
     fill="#e9d4b0"
     id="path654" />
  <path
     d=""
     fill="#e8d5b1"
     id="path656" />
  <path
     d=""
     fill="#e9d5b3"
     id="path658" />
  <path
     d=""
     fill="#ead7b3"
     id="path660" />
  <path
     d=""
     fill="#ebd8b6"
     id="path662" />
  <path
     d=""
     fill="#ead7b4"
     id="path664" />
  <path
     d=""
     fill="#e8d3b1"
     id="path666" />
  <path
     d=""
     fill="#e8d7b3"
     id="path668" />
  <path
     d=""
     fill="#e8d6b2"
     id="path670" />
  <path
     d=""
     fill="#ebd9b4"
     id="path672" />
  <path
     d=""
     fill="#e8d5b1"
     id="path674" />
  <path
     d=""
     fill="#eedab5"
     id="path676" />
  <path
     d=""
     fill="#ead7b4"
     id="path678" />
  <path
     d=""
     fill="#e8d6b3"
     id="path680" />
  <path
     d=""
     fill="#ead9b4"
     id="path682" />
  <path
     d=""
     fill="#ecd9b3"
     id="path684" />
  <path
     d=""
     fill="#e9d7b3"
     id="path686" />
  <path
     d=""
     fill="#ead9b4"
     id="path688" />
  <path
     d=""
     fill="#e9d7b1"
     id="path690" />
  <path
     d=""
     fill="#e6d4b3"
     id="path692" />
  <path
     d=""
     fill="#ead6b3"
     id="path694" />
  <path
     d=""
     fill="#e9d6b2"
     id="path696" />
  <path
     d=""
     fill="#e8d7b1"
     id="path698" />
  <path
     d=""
     fill="#e3d2ae"
     id="path700" />
  <path
     d=""
     fill="#e4d1af"
     id="path702" />
  <path
     d=""
     fill="#e4d2af"
     id="path704" />
  <path
     d=""
     fill="#e5d3ae"
     id="path706" />
  <path
     d=""
     fill="#e2cfaf"
     id="path708" />
  <path
     d=""
     fill="#e5d2ac"
     id="path710" />
  <path
     d=""
     fill="#e4d1b0"
     id="path712" />
  <path
     d=""
     fill="#e7d5b1"
     id="path714" />
  <path
     d=""
     fill="#e6d3b1"
     id="path716" />
  <path
     d=""
     fill="#e6d4b2"
     id="path718" />
  <path
     d=""
     fill="#e9d5b2"
     id="path720" />
  <path
     d=""
     fill="#e9d6b2"
     id="path722" />
  <path
     d=""
     fill="#e9d5b0"
     id="path724" />
  <path
     d=""
     fill="#f0debc"
     id="path726" />
  <path
     d=""
     fill="#eddbb6"
     id="path728" />
  <path
     d=""
     fill="#efdcb9"
     id="path730" />
  <path
     d=""
     fill="#eedbb7"
     id="path732" />
  <path
     d=""
     fill="#eeddb6"
     id="path734" />
  <path
     d=""
     fill="#ecd9b5"
     id="path736" />
  <path
     d=""
     fill="#ecd9b6"
     id="path738" />
  <path
     d=""
     fill="#eedbb7"
     id="path740" />
  <path
     d=""
     fill="#f1debb"
     id="path742" />
  <path
     d=""
     fill="#eedab7"
     id="path744" />
  <path
     d=""
     fill="#ecdab8"
     id="path746" />
  <path
     d=""
     fill="#eddbb7"
     id="path748" />
  <path
     d=""
     fill="#eedbb8"
     id="path750" />
  <path
     d=""
     fill="#ebd9b7"
     id="path752" />
  <path
     d=""
     fill="#ecd9b4"
     id="path754" />
  <path
     d=""
     fill="#edd9b7"
     id="path756" />
  <path
     d=""
     fill="#ecdab7"
     id="path758" />
  <path
     d=""
     fill="#f0dcb8"
     id="path760" />
  <path
     d=""
     fill="#e7d5b2"
     id="path762" />
  <path
     d=""
     fill="#ebd7b4"
     id="path764" />
  <path
     d=""
     fill="#eedbb7"
     id="path766" />
  <path
     d=""
     fill="#eed7b5"
     id="path768" />
  <path
     d=""
     fill="#ebd9b5"
     id="path770" />
  <path
     d=""
     fill="#ecd7b7"
     id="path772" />
  <path
     d=""
     fill="#ead7b7"
     id="path774" />
  <path
     d=""
     fill="#e9d4b3"
     id="path776" />
  <path
     d=""
     fill="#e7d3b0"
     id="path778" />
  <path
     d=""
     fill="#e8d4b1"
     id="path780" />
  <path
     d=""
     fill="#ebd9b4"
     id="path782" />
  <path
     d=""
     fill="#ead8b5"
     id="path784" />
  <path
     d=""
     fill="#ecd8b4"
     id="path786" />
  <path
     d=""
     fill="#ecd8b5"
     id="path788" />
  <path
     d=""
     fill="#ecdab2"
     id="path790" />
  <path
     d=""
     fill="#ecd9b4"
     id="path792" />
  <path
     d=""
     fill="#e7d3af"
     id="path794" />
  <path
     d=""
     fill="#ebd8b4"
     id="path796" />
  <path
     d=""
     fill="#edd8b6"
     id="path798" />
  <path
     d=""
     fill="#edd9b5"
     id="path800" />
  <path
     d=""
     fill="#edd9b6"
     id="path802" />
  <path
     d=""
     fill="#edd8b4"
     id="path804" />
  <path
     d=""
     fill="#decaa8"
     id="path806" />
  <path
     d=""
     fill="#dfcbaa"
     id="path808" />
  <path
     d=""
     fill="#e5d1ae"
     id="path810" />
  <path
     d=""
     fill="#e1cfae"
     id="path812" />
  <path
     d=""
     fill="#e1d1af"
     id="path814" />
  <path
     d=""
     fill="#e4d0b0"
     id="path816" />
  <path
     d=""
     fill="#e6d3b0"
     id="path818" />
  <path
     d=""
     fill="#efdbb6"
     id="path820" />
  <path
     d=""
     fill="#eedbb9"
     id="path822" />
  <path
     d=""
     fill="#dfcea9"
     id="path824" />
  <path
     d=""
     fill="#e9d7b3"
     id="path826" />
  <path
     d=""
     fill="#decda8"
     id="path828" />
  <path
     d=""
     fill="#eedcb7"
     id="path830" />
  <path
     d=""
     fill="#ecd8b7"
     id="path832" />
  <path
     d=""
     fill="#eedbb7"
     id="path834" />
  <path
     d=""
     fill="#efdbb8"
     id="path836" />
  <path
     d=""
     fill="#decdab"
     id="path838" />
  <path
     d=""
     fill="#eedab6"
     id="path840" />
  <path
     d=""
     fill="#e2cfad"
     id="path842" />
  <path
     d=""
     fill="#e7d3af"
     id="path844" />
  <path
     d=""
     fill="#efddb7"
     id="path846" />
  <path
     d=""
     fill="#e5d1ac"
     id="path848" />
  <path
     d=""
     fill="#eedcb8"
     id="path850" />
  <path
     d=""
     fill="#e5d1ab"
     id="path852" />
  <path
     d=""
     fill="#edd9b7"
     id="path854" />
  <path
     d=""
     fill="#ecdab7"
     id="path856" />
  <path
     d=""
     fill="#edd8b8"
     id="path858" />
  <path
     d=""
     fill="#efddba"
     id="path860" />
  <path
     d=""
     fill="#eddab6"
     id="path862" />
  <path
     d=""
     fill="#eedbb7"
     id="path864" />
  <path
     d=""
     fill="#eed9b2"
     id="path866" />
  <path
     d=""
     fill="#e3d0ac"
     id="path868" />
  <path
     d=""
     fill="#eddab6"
     id="path870" />
  <path
     d=""
     fill="#eedab6"
     id="path872" />
  <path
     d=""
     fill="#e6cfac"
     id="path874" />
  <path
     d=""
     fill="#eedbb6"
     id="path876" />
  <path
     d=""
     fill="#ecdbba"
     id="path878" />
  <path
     d=""
     fill="#ebdbb6"
     id="path880" />
  <path
     d=""
     fill="#efddb9"
     id="path882" />
  <path
     d=""
     fill="#eedcb7"
     id="path884" />
  <path
     d=""
     fill="#eedbb9"
     id="path886" />
  <path
     d=""
     fill="#e1cfac"
     id="path888" />
  <path
     d=""
     fill="#efdbb8"
     id="path890" />
  <path
     d=""
     fill="#edd9b7"
     id="path892" />
  <path
     d=""
     fill="#e3d2ac"
     id="path894" />
  <path
     d=""
     fill="#ecdab6"
     id="path896" />
  <path
     d=""
     fill="#efdcb8"
     id="path898" />
  <path
     d=""
     fill="#e4d3b0"
     id="path900" />
  <path
     d=""
     fill="#ebdab4"
     id="path902" />
  <path
     d=""
     fill="#e5d1ad"
     id="path904" />
  <path
     d=""
     fill="#e9d7b3"
     id="path906" />
  <path
     d=""
     fill="#e3d2ad"
     id="path908" />
  <path
     d=""
     fill="#ecdab5"
     id="path910" />
  <path
     d=""
     fill="#e8d5b5"
     id="path912" />
  <path
     d=""
     fill="#e8d6b4"
     id="path914" />
  <path
     d=""
     fill="#ead8b2"
     id="path916" />
  <path
     d=""
     fill="#e3d1ae"
     id="path918" />
  <path
     d=""
     fill="#ecdbb6"
     id="path920" />
  <path
     d=""
     fill="#edd8b3"
     id="path922" />
  <path
     d=""
     fill="#ecdbb7"
     id="path924" />
  <path
     d=""
     fill="#e5d1ad"
     id="path926" />
  <path
     d=""
     fill="#e5d3b0"
     id="path928" />
  <path
     d=""
     fill="#ebd7b4"
     id="path930" />
  <path
     d=""
     fill="#e3d0ab"
     id="path932" />
  <path
     d=""
     fill="#e4d1ac"
     id="path934" />
  <path
     d=""
     fill="#e9d7b3"
     id="path936" />
  <path
     d=""
     fill="#e9d7b3"
     id="path938" />
  <path
     d=""
     fill="#e8d5b2"
     id="path940" />
  <path
     d=""
     fill="#ebd6b5"
     id="path942" />
  <path
     d=""
     fill="#e7d3b1"
     id="path944" />
  <path
     d=""
     fill="#e9d8b3"
     id="path946" />
  <path
     d=""
     fill="#e6d5b1"
     id="path948" />
  <path
     d=""
     fill="#ebd7b4"
     id="path950" />
  <path
     d=""
     fill="#e9d6b3"
     id="path952" />
  <path
     d=""
     fill="#e3d2af"
     id="path954" />
  <path
     d=""
     fill="#e6d5b2"
     id="path956" />
  <path
     d=""
     fill="#e8d5b0"
     id="path958" />
  <path
     d=""
     fill="#dbc8a7"
     id="path960" />
  <path
     d=""
     fill="#3c3526"
     id="path962" />
  <path
     d=""
     fill="#e6d1ad"
     id="path964" />
  <path
     d=""
     fill="#e9d6b2"
     id="path966" />
  <path
     d=""
     fill="#e9d7b2"
     id="path968" />
  <path
     d=""
     fill="#e8d3b0"
     id="path970" />
  <path
     d=""
     fill="#e7d4af"
     id="path972" />
  <path
     d=""
     fill="#e1d1ad"
     id="path974" />
  <path
     d=""
     fill="#e9d5b1"
     id="path976" />
  <path
     d=""
     fill="#e1cfab"
     id="path978" />
  <path
     d=""
     fill="#ead7b4"
     id="path980" />
  <path
     d=""
     fill="#ead8b4"
     id="path982" />
  <path
     d=""
     fill="#e7d6b3"
     id="path984" />
  <path
     d=""
     fill="#e9d6b3"
     id="path986" />
  <path
     d=""
     fill="#dfcda9"
     id="path988" />
  <path
     d=""
     fill="#e3cfab"
     id="path990" />
  <path
     d=""
     fill="#e1cdab"
     id="path992" />
  <path
     d=""
     fill="#e3cfab"
     id="path994" />
  <path
     d=""
     fill="#d7c8a7"
     id="path996" />
  <path
     d=""
     fill="#decca9"
     id="path998" />
  <path
     d=""
     fill="#e3cfad"
     id="path1000" />
  <path
     d=""
     fill="#e4d0ab"
     id="path1002" />
  <path
     d=""
     fill="#e4d0ac"
     id="path1004" />
  <path
     d=""
     fill="#e6d2af"
     id="path1006" />
  <path
     d=""
     fill="#e8d5b2"
     id="path1008" />
  <path
     d=""
     fill="#e9d5b2"
     id="path1010" />
  <path
     d=""
     fill="#ead6b3"
     id="path1012" />
  <path
     d=""
     fill="#e9d6b3"
     id="path1014" />
  <path
     d=""
     fill="#e9d5b1"
     id="path1016" />
  <path
     d=""
     fill="#ead5b2"
     id="path1018" />
  <path
     d=""
     fill="#ead6b2"
     id="path1020" />
  <path
     d=""
     fill="#e9d5b2"
     id="path1022" />
  <path
     d=""
     fill="#e8d6b3"
     id="path1024" />
  <path
     d=""
     fill="#e8d5b2"
     id="path1026" />
  <path
     d=""
     fill="#e9d4b0"
     id="path1028" />
  <path
     d=""
     fill="#ead8b1"
     id="path1030" />
</svg>
