<?xml version="1.0" encoding="UTF-8" standalone="no"?><svg width="843.969" height="896.542" sodipodi:docname="gk-404.svg" inkscape:version="1.1.2 (0a00cf5339, 2022-02-04)" xmlns:inkscape="http://www.inkscape.org/namespaces/inkscape" xmlns:sodipodi="http://sodipodi.sourceforge.net/DTD/sodipodi-0.dtd" xmlns="http://www.w3.org/2000/svg"><sodipodi:namedview pagecolor="#ffffff" bordercolor="#666666" borderopacity="1" inkscape:pageshadow="2" inkscape:pageopacity="0" inkscape:pagecheckerboard="0" showgrid="false" inkscape:zoom=".853" inkscape:cx="452.179" inkscape:cy="333.709" inkscape:window-width="2490" inkscape:window-height="1376" inkscape:window-x="2560" inkscape:window-y="27" inkscape:window-maximized="1" inkscape:current-layer="svg1032" fit-margin-top="0" fit-margin-left="0" fit-margin-right="0" fit-margin-bottom="0"/><path d="M394.438 0h55v2l2.656.043c26.309.99 52.122 9.094 76.344 18.957l2.343.949c18.25 7.481 35.285 17.18 50.706 29.494a397 397 0 0 0 4.3 3.38c19.06 14.92 35.891 33.342 46.65 55.177v2c3.9-.975 4.876-1.793 7-5.313l.813-1.738c1.666-2.734 3.915-4.692 6.188-6.949 2.327-2.683 4.569-5.434 6.812-8.188l1.88-2.295A1437.802 1437.802 0 0 0 668.436 71c6.94-8.716 13.965-17.361 21-26l1.368-1.68C703.84 27.298 703.84 27.298 706.438 26l-1-2c4.687-.684 4.687-.684 7-1l3.472-.523c5.642-.697 11.287-.661 16.965-.664l3.275-.038c9.639-.017 19.008.659 26.6 7.225 3.106 3.68 2.83 7.162 2.877 11.8l.025 2.095c.027 2.307.047 4.614.067 6.921.017 1.633.036 3.265.054 4.897.04 3.477.076 6.954.11 10.43a8324.241 8324.241 0 0 0 .212 18.948 97665.485 97665.485 0 0 0 .16 13.53c.244 20.974.244 20.974.567 41.947.035 2.115.067 4.23.094 6.344.039 2.878.089 5.756.142 8.635l.026 2.507c.085 3.824.182 5.69 2.353 8.946 4.419 1.473 8.88 1.006 13.489.873 5.45-.082 10.95.078 15.386 3.627 1.93 2.574 2.284 4.386 2.442 7.543l.127 2.484.119 2.66.124 2.718c.964 22.424.964 22.424-1.687 30.095-3.931 3.932-8.294 4.117-13.64 4.316l-3.242.127-3.368.12-3.414.13c-2.778.106-5.557.208-8.336.307l-.06 3.285c-.076 4.047-.165 8.093-.257 12.139-.038 1.746-.073 3.493-.105 5.24-.046 2.52-.104 5.04-.164 7.559l-.035 2.343c-.14 5.24-.39 10.9-3.746 15.176-5.478 4.116-9.506 4.42-16.215 4.461l-2.22.017c-1.547.01-3.094.016-4.641.02-2.35.01-4.7.04-7.05.073-1.51.007-3.018.011-4.526.015l-2.106.038c-5.078-.023-8.444-1.064-12.875-3.366-4.525-5.43-4.12-12.697-4.316-19.465l-.063-2.055c-.065-2.139-.124-4.278-.183-6.418l-.13-4.384c-.107-3.56-.209-7.119-.308-10.678l-3-1-1-3-47-1c.24 6.993.486 13.985.745 20.978.087 2.377.17 4.754.25 7.132.116 3.423.243 6.846.373 10.269l.101 3.205c.296 7.908.296 7.908 2.532 15.416 3.61 3.062 7.21 3.576 11.828 4.176l4.073.56 2.148.283c31.775 4.243 62.372 12.41 91.02 27.04 2.044 1.037 2.044 1.037 4.75 1.976 2.694 1.192 4.158 2.843 6.18 4.965a135.004 135.004 0 0 0 4.626 3.187c5.567 3.83 10.46 8.19 15.375 12.813l1.867 1.637c14.9 13.629 21.845 34.717 23.133 54.363l.164 2.223c.603 16-4.539 30.593-10.217 45.279-4.518 11.912-5.276 19.576.053 31.498 2.508 5.112 5.373 9.997 8.363 14.84 8.955 14.608 15.047 29.167 17.637 46.16l.546 3.09c3.814 32.905-3.605 65.118-19.546 93.91l-1.055 1.917c-14.969 26.875-36.656 44.59-61.766 61.688-14.455 9.926-27.043 21.553-30.808 39.446-.99 7.861-.14 15.443 4.629 21.949 6.341 7.002 14.597 11.503 24.066 12.238 13.041.277 21.704-3.771 32.476-10.531 4.127-2.037 6.876-2.518 11.458-2.707 5.124 2.61 8.184 5.553 10 11 1.623 16.576-3.285 33.047-10 48l-1.524 3.684c-7.11 15.971-22.58 28.313-38.528 34.62-6.812 2.431-13.927 3.998-20.948 5.696-14.573 3.535-24.114 7.581-35 18-13.45 12.356-27.15 20.654-45 25l-2.32.586c-22.732 3.512-45.6-3.383-67.449-8.856l-2.094-.521c-1.888-.472-3.775-.948-5.663-1.425-6.521-1.472-12.821-1.99-19.474-2.034l-2.27-.062c-13.86-.092-27.64 4.48-40.933 8.059a1562.84 1562.84 0 0 1-6.055 1.608l-3.567.958c-2.855.618-5.272.83-8.175.687l-1 2c-6.102.075-12.203.129-18.305.165-2.073.015-4.145.035-6.218.061-2.991.037-5.982.054-8.974.067-.916.015-1.832.03-2.775.047-6.129.002-11.04-1.114-16.728-3.34a606.32 606.32 0 0 0-3.817-1.29c-14.992-5.346-27.69-12.883-40.183-22.71-4.68-3.568-4.68-3.568-10-6l-1.356-2.266c-9.42-15.66-34.051-26.107-50.73-30.289l-1.915-.445v2l-2-1 1-2-1.97-.136c-13.252-.924-26.498-1.93-39.729-3.119-1.99-.177-3.98-.347-5.97-.516-13.438-1.234-26.081-3.315-38.33-9.229l-2.801-1.305c-17.814-8.919-26.755-23.764-33.446-41.726-3.459-9.04-7.256-17.972-12.754-25.969l-2 1v-2l-2-1 2-1c-17.968-14.32-36.136-14.522-58.22-13.64-14.754.577-29.492.856-44.256.88-3.683.01-7.365.041-11.047.073-24.868.11-49.27-1.911-68.246-19.891-7.148-7.762-10.817-16.658-10.48-27.266.882-7.611 3.483-14.21 7.359-20.77 1.205-3.228.8-5.08-.11-8.386a97.967 97.967 0 0 0-3.25-5.75c-6.478-11.597-9.961-25.408-9.812-38.687l.027-3.184.035-2.379-2-1c1.374-19.338 2.877-38.509 6.133-57.637.294-1.787.583-3.574.867-5.363.15-.922.298-1.843.451-2.793l.366-2.687.342-2.376c-.212-2.863-1.296-3.83-3.346-5.769l-1.953-1.664C2.32 522.053.648 517.715 0 512.438 1.451 501.034 9.934 491.194 18.438 484h2l.812-1.781c1.54-2.878 3.566-5.035 5.75-7.438 3.816-4.728 3.757-8.763 3.688-14.656l-.028-2.586c-.225-12.427-2.483-23.23-6.658-34.906-7.035-19.797-7.161-42.671-.564-62.633l1.132-3.492c4.691-13.204 12.133-24.499 21.867-34.508h2v-2c20.446-18.386 43.514-21.366 70-20a142.71 142.71 0 0 1 15 2c0-4.137-1.682-5.147-4.437-8.188-10.07-11.641-16.252-25.126-20.563-39.812l-.808-2.742c-2.262-9.765-1.363-20.298-1.192-30.258l-3.437.032c-4.243.036-8.487.059-12.73.078-1.83.01-3.66.023-5.49.04-2.645.025-5.288.036-7.932.045-.807.01-1.614.02-2.445.032-6.674 0-13.278-.397-18.903-4.227-5.387-7.835-4.398-18.498-4.375-27.625l-.049-3.852c-.005-10.357 1.448-17.103 8.487-24.836a3353.12 3353.12 0 0 0 2.98-3.402l1.49-1.683c8.538-9.737 16.42-20.093 24.49-30.22 3.491-4.373 7.006-8.726 10.542-13.064 5.13-6.296 10.209-12.626 15.208-19.028 3.502-4.474 7.073-8.888 10.665-13.29 7.232-8.869 14.336-17.831 21.263-26.94 19.987-26.215 19.987-26.215 39.889-29.498 12.206-1.468 28.68-1.418 39.226 5.707 2.712 2.557 3.996 5.054 4.276 8.787l.042 2.405.055 2.766.046 3.028.06 3.193c.063 3.49.12 6.98.178 10.47l.13 7.251c.114 6.367.223 12.734.33 19.102.111 6.495.227 12.99.343 19.485.225 12.748.446 25.496.662 38.244l.594-1.81c.903-2.742 1.81-5.483 2.716-8.224l.935-2.845c2.505-7.556 5.383-14.814 8.692-22.059l1.572-3.477C258.07 79.094 275.406 55.96 298.437 38l3.083-2.41c15.427-11.708 32.925-19.497 51.096-25.917 1.882-.657 1.882-.657 3.822-1.673 1.43-.303 2.87-.566 4.312-.813C367.514 6 374.256 4.705 381 3.41 385.47 2.553 389.94 1.72 394.437 1V0zm313.171 92.809c-5.768 6.26-11.02 12.783-16.143 19.58A456.661 456.661 0 0 1 680 126.937c-7.016 8.563-13.803 17.297-20.563 26.063-.523.68-1.047 1.358-1.587 2.058A5344.66 5344.66 0 0 0 649.437 166c7.874 2.142 16.133 2.164 24.243 2.203 1.396.01 1.396.01 2.82.017 1.948.01 3.896.016 5.844.02 2.982.01 5.963.041 8.945.073 1.901.007 3.802.011 5.703.015l2.693.038c3.522-.013 6.074-.042 9.28-1.574 3.575-4.351 2.618-10.671 2.605-16.026l.004-2.737c.002-2.927-.004-5.853-.011-8.779l-.003-2.997c-.016-15.106-.281-30.167-1.123-45.253-1.31-.117-1.31-.117-2.828 1.809zM170.437 93c-5.163 5.475-9.781 11.25-14.312 17.25-4.395 5.818-8.904 11.476-13.659 17.002-3.814 4.448-7.437 9.029-11.038 13.65-3.547 4.549-7.176 9.023-10.842 13.477-3.422 4.175-6.786 8.397-10.149 12.621 2.978 1.708 5.094 2.248 8.516 2.23l2.747-.003 2.987-.04 3.118-.025c3.545-.04 7.088-.1 10.632-.162 1.404-.02 2.808-.04 4.212-.058 3.647-.053 7.294-.124 10.941-.207 1.437-.032 2.875-.058 4.313-.08a562.07 562.07 0 0 0 6.085-.143l3.552-.08c2.818-.211 2.818-.211 4.557-1.53 2.029-2.878 1.7-5.27 1.681-8.76l.001-2.1a730.965 730.965 0 0 0-.049-6.866 2412.521 2412.521 0 0 0-.087-17.295c-.03-4.263-.044-8.526-.06-12.789-.031-8.364-.082-16.728-.146-25.092l-2 1-1-2zm-35 208v2l2-1-2-1z" fill="#23201b"/><path d="M394.438 0h55v2l2.656.043c26.309.99 52.122 9.094 76.344 18.957l2.343.949c18.25 7.481 35.285 17.18 50.706 29.494a397 397 0 0 0 4.3 3.38c19.06 14.92 35.891 33.342 46.65 55.177v2c3.9-.975 4.876-1.793 7-5.313l.813-1.738c1.666-2.734 3.915-4.692 6.188-6.949 2.327-2.683 4.569-5.434 6.812-8.188l1.88-2.295A1437.802 1437.802 0 0 0 668.436 71c6.94-8.716 13.965-17.361 21-26l1.368-1.68C703.84 27.298 703.84 27.298 706.438 26l-1-2c4.687-.684 4.687-.684 7-1l3.472-.523c5.642-.697 11.287-.661 16.965-.664l3.275-.038c9.639-.017 19.008.659 26.6 7.225 3.106 3.68 2.83 7.162 2.877 11.8l.025 2.095c.027 2.307.047 4.614.067 6.921.017 1.633.036 3.265.054 4.897.04 3.477.076 6.954.11 10.43a8324.241 8324.241 0 0 0 .212 18.948 97665.485 97665.485 0 0 0 .16 13.53c.244 20.974.244 20.974.567 41.947.035 2.115.067 4.23.094 6.344.039 2.878.089 5.756.142 8.635l.026 2.507c.085 3.824.182 5.69 2.353 8.946 4.419 1.473 8.88 1.006 13.489.873 5.45-.082 10.95.078 15.386 3.627 1.93 2.574 2.284 4.386 2.442 7.543l.127 2.484.119 2.66.124 2.718c.964 22.424.964 22.424-1.687 30.095-3.931 3.932-8.294 4.117-13.64 4.316l-3.242.127-3.368.12-3.414.13c-2.778.106-5.557.208-8.336.307l-.06 3.285c-.076 4.047-.165 8.093-.257 12.139-.038 1.746-.073 3.493-.105 5.24-.046 2.52-.104 5.04-.164 7.559l-.035 2.343c-.14 5.24-.39 10.9-3.746 15.176-5.478 4.116-9.506 4.42-16.215 4.461l-2.22.017c-1.547.01-3.094.016-4.641.02-2.35.01-4.7.04-7.05.073-1.51.007-3.018.011-4.526.015l-2.106.038c-5.078-.023-8.444-1.064-12.875-3.366-4.525-5.43-4.12-12.697-4.316-19.465l-.063-2.055c-.065-2.139-.124-4.278-.183-6.418l-.13-4.384c-.107-3.56-.209-7.119-.308-10.678l-3-1-1-3-47-1c.24 6.993.486 13.985.745 20.978.087 2.377.17 4.754.25 7.132.116 3.423.243 6.846.373 10.269l.101 3.205c.296 7.908.296 7.908 2.532 15.416 3.61 3.062 7.21 3.576 11.828 4.176l4.073.56 2.148.283c31.775 4.243 62.372 12.41 91.02 27.04 2.044 1.037 2.044 1.037 4.75 1.976 2.694 1.192 4.158 2.843 6.18 4.965a135.004 135.004 0 0 0 4.626 3.187c5.567 3.83 10.46 8.19 15.375 12.813l1.867 1.637c14.9 13.629 21.845 34.717 23.133 54.363l.164 2.223c.603 16-4.539 30.593-10.217 45.279-4.518 11.912-5.276 19.576.053 31.498 2.508 5.112 5.373 9.997 8.363 14.84 8.955 14.608 15.047 29.167 17.637 46.16l.546 3.09c3.814 32.905-3.605 65.118-19.546 93.91l-1.055 1.917c-14.969 26.875-36.656 44.59-61.766 61.688-14.455 9.926-27.043 21.553-30.808 39.446-.99 7.861-.14 15.443 4.629 21.949 6.341 7.002 14.597 11.503 24.066 12.238 13.041.277 21.704-3.771 32.476-10.531 4.127-2.037 6.876-2.518 11.458-2.707 5.124 2.61 8.184 5.553 10 11 1.623 16.576-3.285 33.047-10 48l-1.524 3.684c-7.11 15.971-22.58 28.313-38.528 34.62-6.812 2.431-13.927 3.998-20.948 5.696-14.573 3.535-24.114 7.581-35 18-13.45 12.356-27.15 20.654-45 25l-2.32.586c-22.732 3.512-45.6-3.383-67.449-8.856l-2.094-.521c-1.888-.472-3.775-.948-5.663-1.425-6.521-1.472-12.821-1.99-19.474-2.034l-2.27-.062c-13.86-.092-27.64 4.48-40.933 8.059a1562.84 1562.84 0 0 1-6.055 1.608l-3.567.958c-2.855.618-5.272.83-8.175.687l-1 2c-6.102.075-12.203.129-18.305.165-2.073.015-4.145.035-6.218.061-2.991.037-5.982.054-8.974.067-.916.015-1.832.03-2.775.047-6.129.002-11.04-1.114-16.728-3.34a606.32 606.32 0 0 0-3.817-1.29c-14.992-5.346-27.69-12.883-40.183-22.71-4.68-3.568-4.68-3.568-10-6l-1.356-2.266c-9.42-15.66-34.051-26.107-50.73-30.289l-1.915-.445v2l-2-1 1-2-1.97-.136c-13.252-.924-26.498-1.93-39.729-3.119-1.99-.177-3.98-.347-5.97-.516-13.438-1.234-26.081-3.315-38.33-9.229l-2.801-1.305c-17.814-8.919-26.755-23.764-33.446-41.726-3.459-9.04-7.256-17.972-12.754-25.969l-2 1v-2l-2-1 2-1c-17.968-14.32-36.136-14.522-58.22-13.64-14.754.577-29.492.856-44.256.88-3.683.01-7.365.041-11.047.073-24.868.11-49.27-1.911-68.246-19.891-7.148-7.762-10.817-16.658-10.48-27.266.882-7.611 3.483-14.21 7.359-20.77 1.205-3.228.8-5.08-.11-8.386a97.967 97.967 0 0 0-3.25-5.75c-6.478-11.597-9.961-25.408-9.812-38.687l.027-3.184.035-2.379-2-1c1.374-19.338 2.877-38.509 6.133-57.637.294-1.787.583-3.574.867-5.363.15-.922.298-1.843.451-2.793l.366-2.687.342-2.376c-.212-2.863-1.296-3.83-3.346-5.769l-1.953-1.664C2.32 522.053.648 517.715 0 512.438 1.451 501.034 9.934 491.194 18.438 484h2l.812-1.781c1.54-2.878 3.566-5.035 5.75-7.438 3.816-4.728 3.757-8.763 3.688-14.656l-.028-2.586c-.225-12.427-2.483-23.23-6.658-34.906-7.035-19.797-7.161-42.671-.564-62.633l1.132-3.492c4.691-13.204 12.133-24.499 21.867-34.508h2v-2c20.446-18.386 43.514-21.366 70-20a142.71 142.71 0 0 1 15 2c0-4.137-1.682-5.147-4.437-8.188-10.07-11.641-16.252-25.126-20.563-39.812l-.808-2.742c-2.262-9.765-1.363-20.298-1.192-30.258l-3.437.032c-4.243.036-8.487.059-12.73.078-1.83.01-3.66.023-5.49.04-2.645.025-5.288.036-7.932.045-.807.01-1.614.02-2.445.032-6.674 0-13.278-.397-18.903-4.227-5.387-7.835-4.398-18.498-4.375-27.625l-.049-3.852c-.005-10.357 1.448-17.103 8.487-24.836a3353.12 3353.12 0 0 0 2.98-3.402l1.49-1.683c8.538-9.737 16.42-20.093 24.49-30.22 3.491-4.373 7.006-8.726 10.542-13.064 5.13-6.296 10.209-12.626 15.208-19.028 3.502-4.474 7.073-8.888 10.665-13.29 7.232-8.869 14.336-17.831 21.263-26.94 19.987-26.215 19.987-26.215 39.889-29.498 12.206-1.468 28.68-1.418 39.226 5.707 2.712 2.557 3.996 5.054 4.276 8.787l.042 2.405.055 2.766.046 3.028.06 3.193c.063 3.49.12 6.98.178 10.47l.13 7.251c.114 6.367.223 12.734.33 19.102.111 6.495.227 12.99.343 19.485.225 12.748.446 25.496.662 38.244l.594-1.81c.903-2.742 1.81-5.483 2.716-8.224l.935-2.845c2.505-7.556 5.383-14.814 8.692-22.059l1.572-3.477C258.07 79.094 275.406 55.96 298.437 38l3.083-2.41c15.427-11.708 32.925-19.497 51.096-25.917 1.882-.657 1.882-.657 3.822-1.673 1.43-.303 2.87-.566 4.312-.813C367.514 6 374.256 4.705 381 3.41 385.47 2.553 389.94 1.72 394.437 1V0zm-83 78-2.446 2.074c-19.548 17.067-32.99 37.914-44.633 60.886-18.485 36.416-18.485 36.416-32.921 46.04-2.171.014-2.171.014-4.637-.309l-2.7-.331-2.664-.36c-38.484-5.302-38.484-5.302-74 7l-2.292 1.605c-7.316 5.748-13.194 15.082-14.708 24.395-1.005 16.258 2.377 29.006 12.79 41.605 5.006 5.422 12.754 12.418 20.27 13.764 1.94.631 1.94.631 3.154 2.25l1.013 2.108 1.171 2.354 1.228 2.544c26.111 51.639 70.864 82.827 122.988 104.646l2.504 1.05 2.206.914c1.676.765 1.676.765 2.676 1.765-16.415 13.763-33.498 26.055-55.96 25.344-13.561-1.534-23.206-7.711-32.017-17.795-3.331-4.198-5.907-8.76-8.522-13.424-15.264-26.463-34.784-46.44-64.625-55.563-21.664-5.407-45.495-2.75-64.805 8.356-14.65 9.934-25.11 23.678-29.07 41.082-.386 3.472-.432 6.884-.376 10.375l.031 2.785c.213 9.33 1.573 16.914 6.38 24.996 4.202 8.299 4.058 16.672 4.277 25.781.087 2.49.18 4.978.275 7.467.059 1.612.11 3.224.156 4.836.139 4.736.51 9.384 1.03 14.096.324 3.897.367 5.356-1.285 8.988l-2.176 2.364c-4.46 5.34-7.847 10.868-8.586 17.921-.727 2.391-.727 2.391-3.02 3.946l-2.894 1.32c-5.07 2.575-8.99 5.075-11.813 10.125-.751 3.76-.392 5.282 1.438 8.625 2.927 2.713 5.673 4.003 9.344 5.48 2.139.863 4.163 1.852 6.218 2.895l-.579 1.886c-15.204 49.632-15.204 49.632-6.444 99.337 3.342 5.804 7.221 10.175 12.024 14.777a798.24 798.24 0 0 1 3 3l-1.723 1.8c-7.671 8.235-15.411 17.113-16.652 28.7.46 4.299 1.596 6.21 4.375 9.5 18.4 13.497 47.092 10.184 68.75 10.25l3.004.016c10.589.044 21.095-.172 31.644-1.141l2.538-.228c10.988-1.127 22.373-3.456 30.064-11.897 1.903-3.807 1.584-7.86 1-12-3.25-8.455-9.198-16.424-15.739-22.656-1.262-1.344-1.262-1.344-1.262-3.344a66.136 66.136 0 0 1 3.625-3.063c10.48-8.961 15.13-21.451 16.375-34.937 1.311-27.582-5.357-54.691-13-81l1.815-.137c7.351-.665 11.851-2.73 17.248-7.8 1.419-3.122.975-4.82-.063-8.063-3.919-5.82-9.162-9.96-16-11.813l-2-.187-.25-3.375c-1.263-9.681-5.877-17.752-12.75-24.625.041-2.148.164-4.294.313-6.438l.143-2.071c.175-2.498.36-4.994.545-7.491l.231-3.225c.252-3.488.51-6.975.768-10.462l.252-3.438.248-3.262.22-2.913c.272-2.618.741-5.125 1.28-7.7.892-8.894-.7-15.2-5-23 2.688 0 2.688 0 6 1 5.439 6.417 6.654 12.804 6 21-.458 2.134-.96 4.26-1.5 6.375-3.94 16.16 1.053 27.422 9.344 41.246 3.245 5.206 7.041 9.838 11.156 14.379l2.676 2.96c18.74 20.035 44.189 31.917 70.754 37.278 3.57.762 3.57.762 5.57 1.762l-.639 2.19c-7.246 24.757-7.246 24.757-13.36 49.81l-.74 3.38c-3.474 16.555-4.734 32.607-4.76 49.495l-.014 2.664c-.07 33.983 11.16 64.411 31.513 91.461l2.047 2.738c14.522 18.546 32.488 33.687 52.954 45.262l1.942 1.114c10.231 5.81 20.787 10.538 31.683 14.948 23.714 9.613 45.04 21.818 62.875 40.5 16.273 16.766 38.07 28.428 61.689 28.82 19.248-.047 34.161-4.982 51.598-12.697 10.631-4.678 20.9-8.284 32.65-8.122l2.483.029c11.934.346 21.806 5.071 32.483 9.972 19.523 8.953 41.17 16.714 62.507 8.858 11.411-5.252 19.265-12.333 27.884-21.306 6.935-7.116 14.886-13.998 25.315-14.166l3.64.093c1.346.022 2.69.044 4.036.064 2.095.037 4.19.08 6.284.14 13.726.374 24.678-1.628 34.93-11.247 5.306-5.027 8.689-11.064 11-18l-1-2-2.308.875c-12.53 4.505-19.56 3.63-31.692-1.875-2.723-1.346-5.423-2.736-8.125-4.125-18.066-9.194-33.078-7.989-52.039-2.285-9.346 2.805-17.869 4.07-26.828-.395-4.51-2.685-7.644-6.098-9.492-11.062-2.053-8.492-.748-15.619 3.461-23.188 5.682-8.27 13.502-14.414 21.258-20.64 13.072-10.894 22.743-23.261 25.765-40.305.14-1.765.245-3.532.317-5.3l.127-2.96.119-3.053.13-3.11c.107-2.526.209-5.051.307-7.577.562.02 1.124.042 1.703.064 25.8.826 49.732-3.157 69.297-21.064 11.236-11.39 19.562-27.684 20.098-43.965l-.098-2.035 3.5-.063c5.607-.744 8.978-3.645 12.5-7.937 11.708-19.947 10.994-51.15 5.512-72.943-3.493-12.627-8.342-24.48-19.512-32.057l-3.593-.996c-3.94-2.317-4.063-2.912-5.192-7.133a264.045 264.045 0 0 1-1.277-6.433c-.477-2.262-.96-4.523-1.45-6.782l-.727-3.398c-1.099-4.708-2.554-9.256-4.135-13.82l-.798-2.305c-.6-1.714-1.212-3.424-1.827-5.133l2.332-.781c4.243-1.938 5.775-5.074 7.668-9.219.995-3.304 1.548-6.582 2-10l.335-2.262c3.54-28.178-1.657-60.288-19.273-83.238-23.8-27.523-59.685-32.519-94.063-35.5l-2.43-.218c-12.177-1.034-24.42-.88-36.632-.907l-2.634-.008c-2.488-.006-4.976-.004-7.464 0l-2.304-.005c-3.896-.059-3.896-.059-7.536 1.138l.567-1.75c16.62-53.11 12.765-114.242-12.901-163.828-5.439-10.092-11.472-19.489-18.665-28.422l-1.961-2.574C566.93 85.22 546.29 69.178 522.437 57l-1.838-.97c-18.948-9.96-40.042-15.271-61.162-18.03l-2.264-.31c-8.375-1.003-16.813-.89-25.236-.877l-2.44.002c-43.403.11-84.633 12.654-118.06 41.185Zm396.171 14.809c-5.768 6.26-11.02 12.783-16.143 19.58A456.661 456.661 0 0 1 680 126.937c-7.016 8.563-13.803 17.297-20.563 26.063-.523.68-1.047 1.358-1.587 2.058A5344.66 5344.66 0 0 0 649.437 166c7.874 2.142 16.133 2.164 24.243 2.203 1.396.01 1.396.01 2.82.017 1.948.01 3.896.016 5.844.02 2.982.01 5.963.041 8.945.073 1.901.007 3.802.011 5.703.015l2.693.038c3.522-.013 6.074-.042 9.28-1.574 3.575-4.351 2.618-10.671 2.605-16.026l.004-2.737c.002-2.927-.004-5.853-.011-8.779l-.003-2.997c-.016-15.106-.281-30.167-1.123-45.253-1.31-.117-1.31-.117-2.828 1.809zM170.437 93c-5.163 5.475-9.781 11.25-14.312 17.25-4.395 5.818-8.904 11.476-13.659 17.002-3.814 4.448-7.437 9.029-11.038 13.65-3.547 4.549-7.176 9.023-10.842 13.477-3.422 4.175-6.786 8.397-10.149 12.621 2.978 1.708 5.094 2.248 8.516 2.23l2.747-.003 2.987-.04 3.118-.025c3.545-.04 7.088-.1 10.632-.162 1.404-.02 2.808-.04 4.212-.058 3.647-.053 7.294-.124 10.941-.207 1.437-.032 2.875-.058 4.313-.08a562.07 562.07 0 0 0 6.085-.143l3.552-.08c2.818-.211 2.818-.211 4.557-1.53 2.029-2.878 1.7-5.27 1.681-8.76l.001-2.1a730.965 730.965 0 0 0-.049-6.866 2412.521 2412.521 0 0 0-.087-17.295c-.03-4.263-.044-8.526-.06-12.789-.031-8.364-.082-16.728-.146-25.092l-2 1-1-2zm-35 208v2l2-1-2-1z" fill="#ecdab7"/><path d="M318.438 411c1.725 2.588 2.59 4.41 3.558 7.297 3.559 10.334 7.458 20.343 12.191 30.203l1.393 2.91c1.874 3.835 3.724 7.536 6.19 11.027 1.668 2.563 1.668 2.563 1.605 6.063l-.43 2.031c-.588 2.598-.588 2.598-.765 5.813-.662 5.628-1.165 9.378-5.703 13.054-2.999 1.755-6.134 3.22-9.275 4.699-17.092 8.752-29.466 27.9-36.089 45.403-1.001 3.158-1.903 6.278-2.675 9.5l-.531 2.207c-5.283 23.755-.828 50.41 12.218 70.98 15.568 21.925 36.03 34.068 62.188 39.399 22.36 2.963 45.27-2.299 63.714-15.43a156.92 156.92 0 0 0 7.41-6.156l2.31-2.02c14.156-13.224 24.326-33.694 25.597-53.046l.093-2.934.079-2.019c.877-25.356-5.175-49.409-22.344-68.782-9.41-10.064-20.225-17.445-32.735-23.199-.312-2.25-.312-2.25 0-5 3.466-3.104 7.326-5.605 11.188-8.188 5.385-3.644 10.18-7.654 14.887-12.16 1.925-1.652 1.925-1.652 3.925-1.652l1.035 1.857c8.204 14.756 8.204 14.756 17.028 29.143 30.648 48.123 48.634 110.578 36.672 167.484-4.399 19.446-12.288 36.628-25.735 51.516l-2.3 2.55c-20.62 21.701-50.925 33.523-80.59 34.665-31.01.775-60.653-8.413-84.11-29.215l-2.113-1.86c-15.843-14.858-24.371-34.289-28.887-55.14l-.746-3.18c-12.638-64.325 22.3-188.927 51.747-247.82Z" fill="#ecdab8"/><path d="M234.438 212c47.453 6.679 92.958 27.058 127.513 60.565a339.79 339.79 0 0 0 4.315 4.072c23.113 22.09 35.761 49.768 40.171 81.175l.519 3.555c.797 5.533 1.549 11.067 2.192 16.621 2.409 20.675 5.915 41.954 16.555 60.18.735 1.832.735 1.832.7 3.75-1.452 3.132-3.859 5.149-6.403 7.394l-1.623 1.455c-9.733 8.585-9.733 8.585-14.94 11.233-3-1-3-1-5.062-3.75-3.973-5.027-10.684-8.123-16.937-9.25-8.836-.585-16.62.127-25 3-7.275-12.771-12.34-25.384-16.266-39.527-4.07-14.611-9.278-27.305-22.86-35.348-10.858-6.003-22.243-11.076-33.507-16.258-38.364-17.704-72.21-43.759-93.368-80.867v-1l3.403-.7c14.564-3.115 26.707-8.206 35.473-21.113 8.009-14.143 8.612-29.647 5.125-45.187z" fill="#eddab8"/><path d="M411 512.625c15.906 12.234 28.637 29.038 31.438 49.375 1.573 20.777-1.782 39.61-15.352 56.113-2.12 2.426-4.284 4.696-6.649 6.887l-1.523 1.574c-12.85 12.486-30.436 16.968-47.882 16.919-18.747-.572-34.578-9.806-47.817-22.65-15.1-16.06-19.403-35.226-19.016-56.562.64-17.992 9.93-34.5 22.832-46.742 23.33-20.179 58.356-22.605 83.969-4.914Z" fill="#eddbba"/><path d="M761.438 451c16.367 65.372 16.367 65.372 17 98 .03 1.12.062 2.242.094 3.396.372 14.587.295 28.88-1.845 43.354l-.475 3.22c-2.498 15.102-7.876 30.661-20.65 40.092-11.932 7.578-26.614 10.013-40.5 10.375l-2.345.105c-4.127.03-5.794-.17-9.174-2.757-5.154-6.818-7.02-14.806-6.75-23.289 1.038-5.632 3.71-10.207 6.418-15.2 13.598-25.411 18.454-55.734 18.476-84.171l.002-2.355c-.03-22.76-4.398-42.485-12.251-63.77l1.945-.196c12.903-1.335 25.484-3.017 38.059-6.266l2.574-.647 2.231-.593c2.608-.355 4.652.068 7.19.702z" fill="#8f7449"/><path d="m637.25 374.313 2.188 1.687-2 1-2-1c-14.261-1.518-26.951.207-40 6l-2.003.876c-23.852 10.761-40.937 31.819-50.31 55.874-11.58 32.107-9.21 67.785 5.133 98.518 4.195 8.648 9.27 17.35 16.508 23.81 1.672 1.922 1.672 1.922 1.632 3.785-1.294 2.878-2.757 5.591-4.335 8.324l-1.836 3.231c-1.79 2.582-1.79 2.582-4.79 3.582-24.203-13.451-40.77-39.806-49.187-65.313a280.77 280.77 0 0 1-1.813-6.687l-.91-3.469c-7.16-32.77-1.721-68.017 15.91-96.531 2.813-4.168 5.815-8.111 9-12l2.079-2.578c25.703-30.273 71.91-41.976 106.734-19.11z" fill="#917549"/><path d="M65.438 534h80c19.661 73.731 19.661 73.731 8.64 93.43-2.816 4.078-4.868 6.011-9.64 7.57-3.138.227-3.138.227-6.614.195l-3.78-.02-3.919-.05-3.979-.027a1765.34 1765.34 0 0 1-9.709-.098l2.27-2.195a63.199 63.199 0 0 0 6.418-7.68l1.762-2.43c5.11-8.88 4.64-20.267 2.968-30.129-3.955-14.468-13.161-27.93-22.417-39.566l-2-1-.223 2.086c-.999 3.743-2.95 6.466-5.215 9.539l-1.345 1.86c-2.94 3.993-6.074 7.65-9.467 11.265-8.883 9.47-13.415 18.341-13.06 31.387.77 9.639 4.51 16.174 11.31 22.863l3 3a984.99 984.99 0 0 1-12.626.25l-3.605.102c-11.033.123-11.033.123-15.77-4.352-7.295-7.951-7.484-19.267-7.308-29.496 1.232-22.483 7.22-45.24 14.309-66.504Z" fill="#eddbba"/><path d="M105.438 552c3.416 1.139 3.867 1.826 5.855 4.691l1.626 2.341 1.706 2.53 1.751 2.584c3.568 5.361 6.856 10.787 9.749 16.542l.952 1.883c5.087 10.59 6.558 24.019 3.298 35.429-2.79 6.809-7.882 12.889-13.938 17-3.137.454-3.137.454-6.613.39l-3.78-.038-3.919-.102-3.979-.055a886.037 886.037 0 0 1-9.709-.195l-.9-1.89c-1.216-2.333-2.63-3.807-4.475-5.672-6.87-7.804-8.462-16.51-8.12-26.739 1.403-10.466 7.94-17.827 14.675-25.46 6.267-7.118 11.969-14.53 15.82-23.239z" fill="#8a7149"/><path d="M412.438 528c1.03 2.665 1.046 3.855.154 6.615l-1.365 2.979-1.512 3.344-1.652 3.562c-.556 1.215-1.11 2.431-1.663 3.647a2165.473 2165.473 0 0 1-3.364 7.351 619.836 619.836 0 0 0-4.227 9.486l-1.192 2.717a876.87 876.87 0 0 0-2.148 4.942c-4.043 9.12-8.232 14.108-16.969 19.045l-2.62 1.525c-10.032 5.797-20.21 11.351-30.442 16.787l-3.383 1.84c-2.618 1.16-2.618 1.16-6.618 1.16.551-5.033 1.676-9.201 3.625-13.867l.797-1.918c.85-2.034 1.712-4.063 2.579-6.09l.889-2.094c3.452-8.115 6.928-16.228 10.923-24.093l.943-1.94c4.506-8.448 13.491-12.443 21.62-16.748l5.824-3.133 2.93-1.571c4.373-2.355 8.717-4.759 13.058-7.171l2.265-1.253C410.111 528 410.111 528 412.438 528Z" fill="#211e19"/><path d="M565.438 479c16.913 8.277 28.614 27.86 35 45 4.58 13.964 2.938 29.456-3.215 42.594-4.054 7.426-9.93 13.389-15.785 19.406l-2.43 2.516c-3.38 3.438-6.801 6.713-10.508 9.797-13.122 11.314-23.852 27.261-25.232 44.85-.15 2.403-.276 4.807-.393 7.212l-.13 2.52c-.106 2.035-.207 4.07-.307 6.105-3.489-1.744-4.049-5.625-5.301-9.154-3.951-12.008-1.647-22.61 3.703-33.772 6.41-11.833 15.722-21.321 25.285-30.636 11.898-11.623 22.25-25.444 22.744-42.676.056-21.804-9.67-41.445-21.78-59.172-1.652-2.59-1.652-2.59-1.652-4.59Z" fill="#eedebf"/><path d="M350.438 185c3.617 2.545 4.374 6.622 5.687 10.625 3.318 9.351 7.6 15.712 16.625 20.375 8.573 3.876 17.988 4.443 27.129 2.129 9.67-3.767 17.016-9.718 21.558-19.129a168.461 168.461 0 0 0 3.106-8.68c.894-2.32.894-2.32 2.894-4.32 5.266-.56 5.266-.56 7.665 1.27 2.076 2.69 1.808 4.838 1.68 8.14-1.61 12.118-8.785 22.117-17.954 29.836-12.2 8.95-25.75 9.991-40.39 8.754-4.033-.817-7.37-2.087-11-4l-2.598-1.285c-10.533-5.704-17.537-14.683-21.149-26.067-1.284-5.156-2.903-11.87-.066-16.648 2.478-1.367 4.024-1.418 6.813-1z" fill="#edddbd"/><path d="m348.563 304.625 2.261-.035c6.693.035 12.143 1.518 17.551 5.66 2.538 3.384 3.063 5.536 3.063 9.75-1.693 3.216-2.512 3.837-6 5-3.207.119-6.168.18-9.313-.5-9.169-1.706-16.86.406-25.563 3.312-23.428 7.63-23.428 7.63-31.625 7.563l-2.906.023c-3.04-.467-4.427-1.231-6.594-3.398-.58-3.922-.532-6.12 1.537-9.539 3.101-3.098 6.287-4.205 10.378-5.469l2.332-.764c2.455-.8 4.916-1.577 7.379-2.353 1.632-.528 3.263-1.058 4.894-1.59 3.835-1.245 7.68-2.462 11.528-3.667 1.675-.53 3.343-1.082 5.01-1.639 5.453-1.78 10.337-2.444 16.068-2.354z" fill="#201d18"/><path d="M74.438 436c4.23.22 8.459.481 12.687.75l3.63.188 3.507.234 3.221.19c3.554.767 5.288 2.221 7.954 4.638 9.81 6.147 20.668 7.39 32 8l-1 16h-61c-1.15-16.105-1.15-16.105-1.062-22.875l.014-2.121c.011-1.668.029-3.336.049-5.004z" fill="#eeddbd"/><path d="m97.438 358-1.54 1.95c-11.804 15.495-14.663 29.03-13.46 48.05.672 3.83 1.577 7.384 3 11-8.495-2.804-12.11-5.316-16.813-12.938-3.027-7.908-2.155-17.595.75-25.375 4.739-9.945 13.086-18.121 22.875-23.125 2.188-.562 2.188-.562 5.188.438Z" fill="#ebdab9"/><path d="m125.438 375 2 1-1.024 1.941-1.351 2.622-1.336 2.566c-4.8 10.69-4.792 23.338-1.286 34.46 1.565 3.786 3.664 7.063 5.997 10.411l1 2c-7.03-.312-11.503-1.469-16.63-6.645-5.735-6.343-6.825-11.554-6.69-20.062.458-4.712 1.94-8.246 4.32-12.293l1.75-3.062c3.788-4.947 8.054-9.474 13.25-12.938z" fill="#ecdcbc"/><path d="M619.438 655h1l.593 2.938c3.407 15.698 10.745 28.443 19.403 41.832 2.004 3.23 2.004 3.23 3.004 6.23-9.852-2.655-17.455-6.797-22.782-15.734L619.438 688l-1.032-1.828c-4.212-8.97-2.808-20.45.375-29.512l.657-1.66z" fill="#ecdab8"/><path d="M576.438 647h1l.078 2.5c.86 17.534 6.373 31.842 13.921 47.5-9.812-3.031-16.14-7.888-21-17-3.11-9.331-1.337-18.945 2.711-27.61 1.29-2.39 1.29-2.39 3.29-5.39Z" fill="#efe1c3"/><path d="M103.438 600c4.943 4.409 7.633 8.309 8.285 14.871.224 7.807-.945 12.619-5.285 19.129-2.813.688-2.813.688-6 0-4.174-3.804-5.37-8.375-5.626-13.875.334-7.98 3.83-13.937 8.626-20.125z" fill="#eedebf"/><path d="M379.438 470c3.524 2.056 5.664 4.115 7 8v4l-24-1c1.2-7.206 1.2-7.206 5.054-10.082 3.872-1.827 7.8-1.672 11.945-.918z" fill="#eddebf"/><path d="M373.375 561.938c3.855 1.337 5.606 2.81 8.063 6.062.625 3 .625 3 0 6-2.633 3.669-4.089 4.84-8.563 5.625-3.438-.625-3.438-.625-5.938-2.625-2-4-1.86-6.786-.5-11 2.148-3.262 3.014-3.979 6.938-4.063z" fill="#927549"/><path d="m425.438 568.688 3.812-.051 3.188.363c2 3 2 3 1.687 6.625-.688 3.375-.688 3.375-1.688 4.375-2.12.152-4.248.222-6.375.25l-3.523.078c-3.101-.328-3.101-.328-4.996-1.652-1.7-2.578-1.425-4.674-1.105-7.676 2.873-2.873 5.003-2.3 9-2.313z" fill="#1c1a15"/><path d="M317.66 564.77c1.9.02 1.9.02 3.84.043l3.848.019c3.09.168 3.09.168 4.09 1.168.37 5.841.37 5.841 0 8-3.352 2.235-4.578 2.271-8.5 2.25l-2.907.016c-2.594-.266-2.594-.266-5.594-2.266-.312-3.5-.312-3.5 0-7 2-2 2-2 5.223-2.23z" fill="#1e1b16"/><path d="M371.438 510.75c3 .25 3 .25 5 2.25.23 3.188.23 3.188.187 7l-.02 3.813c-.168 3.187-.168 3.187-1.168 5.187-3.375.125-3.375.125-7 0-2-2-2-2-2.265-5.188l.015-3.812-.015-3.813c.353-4.235 1.007-5.082 5.265-5.437z" fill="#1b1914"/><path d="M372.875 614.813c3.563.187 3.563.187 5.563 2.187.3 2.934.3 2.934.312 6.438.017 1.153.034 2.307.05 3.496-.363 3.066-.363 3.066-1.722 4.957-2.315 1.565-3.91 1.46-6.64 1.109-2-2-2-2-2.231-5.441.004-1.374.019-2.748.043-4.121l.002-2.116c.055-6.26.055-6.26 4.623-6.51z" fill="#1f1c16"/><path d="M170.438 470h2c1.186 1.688 2.296 3.429 3.375 5.188 7.438 11.407 16.816 20.578 27.625 28.812l-2 1c-11.752-8.428-26.258-20.772-31-35z" fill="#0c0906"/><path d="m358.438 744 30 1v1l-30 1v-3z" fill="#e0cdaa"/><path d="M170.438 470h2c1.38 1.89 2.68 3.839 3.937 5.813 3.112 4.938 3.112 4.938 7.063 9.187l-1 3c-1.633-2.057-3.256-4.12-4.875-6.188l-1.395-1.751c-2.519-3.23-4.438-6.116-5.73-10.061Z" fill="#16130d"/><path d="M270.438 820c11.521.964 11.521.964 17 2v1c-2.084.027-4.167.046-6.25.063l-3.516.035c-2.644-.08-4.733-.312-7.235-1.098v-2z" fill="#f2e0bb"/><path d="M490.438 600h3c.187 2.813.187 2.813 0 6l-3 3v-9z" fill="#ddccab"/><path d="m266.438 822 4 1z" fill="#e1d1ae"/><path d="m508.438 894 3 1z" fill="#e8d5b2"/><path d="M449.438 894h2l-1 2-1-2z" fill="#e4d2b0"/><path d="m610.438 892 3 1z" fill="#e9d4b0"/><path d="m540.438 886 2 1z" fill="#e9d6b2"/><path d="m575.438 884 2 1z" fill="#e7d5af"/><path d="m560.438 883 2 1z" fill="#e9d4b2"/><path d="m355.438 835 2 1z" fill="#e8d4b2"/><path d="m330.438 829 2 1zM322.438 828l2 1z" fill="#e6d3b0"/></svg>