<?xml version="1.0" encoding="UTF-8" standalone="no"?>
<!-- Created with Inkscape (http://www.inkscape.org/) -->

<svg
   width="204.14699mm"
   height="11.661422mm"
   viewBox="0 0 204.14699 11.661422"
   version="1.1"
   id="svg5"
   inkscape:version="1.1.2 (0a00cf5339, 2022-02-04)"
   sodipodi:docname="support-email.svg"
   xmlns:inkscape="http://www.inkscape.org/namespaces/inkscape"
   xmlns:sodipodi="http://sodipodi.sourceforge.net/DTD/sodipodi-0.dtd"
   xmlns="http://www.w3.org/2000/svg"
   xmlns:svg="http://www.w3.org/2000/svg">
  <sodipodi:namedview
     id="namedview7"
     pagecolor="#505050"
     bordercolor="#eeeeee"
     borderopacity="1"
     inkscape:pageshadow="0"
     inkscape:pageopacity="0"
     inkscape:pagecheckerboard="0"
     inkscape:document-units="mm"
     showgrid="false"
     inkscape:snap-page="false"
     showguides="true"
     inkscape:guide-bbox="true"
     inkscape:zoom="1.4904994"
     inkscape:cx="380.07395"
     inkscape:cy="-101.64378"
     inkscape:window-width="2486"
     inkscape:window-height="1376"
     inkscape:window-x="2560"
     inkscape:window-y="27"
     inkscape:window-maximized="1"
     inkscape:current-layer="layer1" />
  <defs
     id="defs2">
    <rect
       x="41.745193"
       y="57.746593"
       width="334.45401"
       height="115.91398"
       id="rect1772" />
  </defs>
  <g
     inkscape:label="Layer 1"
     inkscape:groupmode="layer"
     id="layer1"
     transform="translate(-4.0915663,-20.094483)">
    <rect
       style="fill:#000000;stroke:#000000;stroke-width:0.22231;stroke-linecap:round;stroke-linejoin:round;paint-order:stroke fill markers;fill-opacity:1"
       id="rect12783"
       width="51.032188"
       height="11.439111"
       x="123.45244"
       y="20.205637" />
    <text
       xml:space="preserve"
       transform="scale(0.26458333)"
       id="text1770"
       style="font-style:normal;font-variant:normal;font-weight:normal;font-stretch:normal;font-size:40px;line-height:1.25;font-family:Komix;-inkscape-font-specification:Komix;letter-spacing:0px;word-spacing:0px;white-space:pre;shape-inside:url(#rect1772);fill:#000000;fill-opacity:1;stroke:none" />
    <g
       aria-label="SUPPORT@GEOKRETY.ORG"
       id="text3340"
       style="font-size:10.5833px;line-height:1.25;font-family:OCR-A;-inkscape-font-specification:OCR-A;letter-spacing:0px;word-spacing:0px;stroke-width:0.264583">
      <path
         d="m 9.5382449,21.953869 0.5374331,0.03617 0.103353,-0.03617 h 0.144693 q 0.320393,0.06201 0.645954,0.21704 0.273884,0.07235 0.537433,0.284219 0.232543,0.144694 0.428913,0.428914 0.155029,0.206705 0.320393,0.501259 l -0.03617,0.465087 -0.175699,0.10852 -0.428913,0.03617 -0.253214,-0.144693 q -0.232543,-0.124023 -0.573606,-0.211873 h -0.60978 l -0.103353,-0.07235 q -0.2428783,0.139526 -0.5736064,0.211873 l -0.60978,0.180867 Q 8.623575,24.005417 8.318685,24.139775 l -1.1110397,0.573606 0.428913,0.248046 q 0.2945547,0.0052 0.6821267,0.07235 l 2.578646,0.428913 0.537433,-0.03617 0.10852,0.03617 h 0.10852 l 0.713133,0.289387 0.392739,0.428913 q 0.134359,0.279052 0.217041,0.645954 -0.118856,0.268716 -0.428913,0.428913 L 11.972197,27.5039 q -0.258381,0.103352 -0.573606,0.289387 l -1.8241727,0.640786 q -0.2687166,0.03617 -0.5736065,0.180867 -0.2893871,0.07751 -0.60978,0.21704 -0.2480461,0.10852 -0.5736066,0.139526 l -0.5736065,0.180867 q -0.2687166,0.134358 -0.6459534,0.21704 L 5.383473,29.689806 Q 5.0940859,29.6588 4.8098664,29.508939 L 4.3757858,29.080026 Q 4.220757,28.862986 4.1277397,28.542593 4.1019016,28.41857 4.0915663,28.258373 L 4.1277397,28.149853 4.34478,28.00516 q 0.2738843,-0.124023 0.6407858,-0.211873 0.2635489,-0.09302 0.6097799,-0.144694 0.2997224,-0.06718 0.6459534,-0.21704 L 8.1739915,26.89412 Q 8.4220376,26.775264 8.7837714,26.682247 8.5305577,26.563392 8.2101649,26.537554 7.9207778,26.439369 7.5280381,26.429033 L 6.2412991,26.108641 5.7400393,25.752074 5.3472996,25.317994 Q 5.2026061,25.085451 5.0579125,24.749555 l -0.072347,-0.537433 0.036173,-0.108521 q 0.1291907,-0.253213 0.3617339,-0.501259 0.2015375,-0.19637 0.5012598,-0.361734 L 6.385992,22.920215 6.9234252,22.708342 q 0.2583813,-0.134358 0.6046123,-0.253214 0.2738842,-0.09818 0.6459534,-0.180866 z"
         style="font-family:Komix;-inkscape-font-specification:Komix"
         id="path12389" />
      <path
         d="m 20.168053,21.271742 q 0.248046,0.02584 0.475422,0.19637 l 0.547768,0.04134 0.475422,0.273884 q 0.186034,0.175699 0.428913,0.351399 l 0.552936,0.987016 0.356566,1.178219 0.07752,0.552936 q 0.07235,0.30489 0.07751,0.707965 l -0.470254,1.648473 -0.237711,0.552936 -0.82682,0.630451 q -0.248046,0.12919 -0.552936,0.232543 l -0.470254,0.279052 q -0.232543,0.155029 -0.511595,0.273884 -0.28422,0.09818 -0.630451,0.155029 -0.201537,0.103352 -0.470254,0.201537 l -0.707965,0.07752 -0.589109,-0.04134 q -0.258381,0.09302 -0.552936,0.118855 l -0.630451,-0.07751 q -0.273884,-0.01034 -0.63045,-0.118856 L 15.25364,29.33324 14.266623,28.785471 13.599999,27.91731 13.40363,27.328201 l -0.118856,-1.255734 0.04134,-0.118855 q 0.0052,-0.289387 0.07752,-0.707965 0.0155,-0.28422 0.118855,-0.630451 l 0.155029,-0.63045 q 0.03617,-0.273884 0.273884,-0.470254 l 0.434081,-0.04134 0.785479,0.237711 0.434081,0.351398 0.196369,0.594278 q -0.07751,0.273884 -0.118855,0.625282 l -0.07751,0.475422 0.04134,0.118855 -0.04134,0.03617 -0.03617,0.237711 0.03617,0.07751 V 26.4652 l -0.03617,0.118855 v 0.58911 l 0.03617,0.118855 0.118855,0.625283 q 0.237711,0.129191 0.511595,0.160196 l 1.457271,-0.118855 0.589109,-0.155029 1.493444,-0.790647 0.434081,-0.351398 0.273884,-0.470254 q 0.113688,-0.279052 0.160197,-0.594277 l 0.155029,-1.333248 -0.744139,-2.795686 z"
         style="font-family:Komix;-inkscape-font-specification:Komix"
         id="path12391" />
      <path
         d="m 26.172835,21.871187 2.082554,0.155028 0.113687,-0.04134 0.578775,0.04134 0.232543,-0.04134 0.07235,0.04134 h 0.232543 l 0.310057,-0.04134 0.07751,0.04134 h 0.113688 l 0.423745,-0.04134 2.041213,0.273885 q 0.186034,0.08785 0.382404,0.227375 l 0.423745,0.19637 0.542601,0.651121 0.191202,0.346231 -0.03617,0.578774 -0.232543,0.423746 q -0.113688,0.155028 -0.268717,0.310057 -0.186034,0.08268 -0.387572,0.227376 l -0.423745,0.118855 -0.382405,0.232543 -0.888831,0.346231 -0.50126,0.07235 -0.496092,0.155029 q -0.237711,0.03617 -0.465087,0.118855 l -1.498612,0.346231 -0.351398,0.155029 q -0.170532,0.05168 -0.382405,0.149861 l -0.537433,0.07752 -0.465086,0.155029 q -0.201538,0.05168 -0.423746,0.155028 l -0.03617,0.578775 0.07751,0.997352 q -0.02584,0.253213 -0.118855,0.501259 -0.113688,0.170532 -0.30489,0.310058 l -0.465086,-0.07751 q -0.1757,-0.129191 -0.346231,-0.310058 L 24.751738,29.03353 Q 24.622547,28.883669 24.44168,28.72864 l -0.03617,-1.193721 q -0.06718,-0.191203 -0.19637,-0.387572 -0.10852,-0.155029 -0.30489,-0.310058 l -0.232543,-0.382404 q 0.0052,-0.227376 0.07751,-0.465087 0.186035,-0.10852 0.423746,-0.191202 0.170531,-0.124023 0.268716,-0.346231 l -0.03617,-0.382404 0.03617,-0.155029 0.03617,-0.50126 -0.03617,-0.423745 0.03617,-0.113688 -0.03617,-0.542601 q -0.04651,-0.227376 -0.155029,-0.459919 -0.08268,-0.206705 -0.155028,-0.465086 l -0.03617,-0.268717 0.191202,-0.113688 q 0.206705,-0.06201 0.465087,-0.07751 l 0.50126,0.03617 0.149861,-0.03617 0.387572,0.03617 q 0.19637,-0.01034 0.382404,-0.113687 z m 0.465086,1.731155 -0.501259,0.07751 0.07751,1.503779 0.346231,-0.07751 q 0.28422,-0.06718 0.614948,-0.232543 0.310057,-0.04134 0.656288,-0.149861 l 0.692462,-0.155029 q 0.299723,-0.103353 0.692462,-0.155029 l 1.348751,-0.387572 q 0.206705,-0.10852 0.423745,-0.268717 h -0.50126 v 0.04134 l -0.113687,-0.04134 h -0.273885 v 0.04134 l -2.232414,-0.196369 q -0.129191,0.05168 -0.30489,0.07751 l -0.310058,-0.07751 -0.310058,0.07751 z"
         style="font-family:Komix;-inkscape-font-specification:Komix"
         id="path12393" />
      <path
         d="m 37.381417,21.871187 2.082554,0.155028 0.113687,-0.04134 0.578775,0.04134 0.232543,-0.04134 0.07235,0.04134 h 0.232543 l 0.310057,-0.04134 0.07751,0.04134 h 0.113688 l 0.423745,-0.04134 2.041213,0.273885 q 0.186034,0.08785 0.382404,0.227375 l 0.423745,0.19637 0.542601,0.651121 0.191202,0.346231 -0.03617,0.578774 -0.232543,0.423746 q -0.113688,0.155028 -0.268717,0.310057 -0.186034,0.08268 -0.387572,0.227376 l -0.423745,0.118855 -0.382405,0.232543 -0.888831,0.346231 -0.50126,0.07235 -0.496092,0.155029 q -0.237711,0.03617 -0.465087,0.118855 L 39.619,26.609904 39.267602,26.764933 q -0.170532,0.05168 -0.382405,0.149861 l -0.537433,0.07752 -0.465086,0.155029 q -0.201538,0.05168 -0.423746,0.155028 l -0.03617,0.578775 0.07751,0.997352 q -0.02584,0.253213 -0.118855,0.501259 -0.113688,0.170532 -0.30489,0.310058 l -0.465086,-0.07751 q -0.1757,-0.129191 -0.346231,-0.310058 L 35.96032,29.03353 q -0.129191,-0.149861 -0.310058,-0.30489 l -0.03617,-1.193721 q -0.06718,-0.191203 -0.19637,-0.387572 -0.10852,-0.155029 -0.30489,-0.310058 l -0.232543,-0.382404 q 0.0052,-0.227376 0.07751,-0.465087 0.186035,-0.10852 0.423745,-0.191202 0.170532,-0.124023 0.268717,-0.346231 l -0.03617,-0.382404 0.03617,-0.155029 0.03617,-0.50126 -0.03617,-0.423745 0.03617,-0.113688 -0.03617,-0.542601 q -0.04651,-0.227376 -0.155029,-0.459919 -0.08268,-0.206705 -0.155029,-0.465086 l -0.03617,-0.268717 0.191202,-0.113688 q 0.206705,-0.06201 0.465087,-0.07751 l 0.501259,0.03617 0.149862,-0.03617 0.387572,0.03617 q 0.196369,-0.01034 0.382404,-0.113687 z m 0.465086,1.731155 -0.501259,0.07751 0.07751,1.503779 0.346231,-0.07751 q 0.284219,-0.06718 0.614948,-0.232543 0.310057,-0.04134 0.656288,-0.149861 l 0.692462,-0.155029 q 0.299723,-0.103353 0.692462,-0.155029 L 41.7739,24.026087 q 0.206705,-0.10852 0.423745,-0.268717 h -0.50126 v 0.04134 l -0.113687,-0.04134 h -0.273885 v 0.04134 l -2.232414,-0.196369 q -0.129191,0.05168 -0.30489,0.07751 l -0.310058,-0.07751 -0.310058,0.07751 z"
         style="font-family:Komix;-inkscape-font-specification:Komix"
         id="path12395" />
      <path
         d="m 51.607895,21.969372 0.950843,0.180867 0.434081,0.144693 1.710484,1.059364 0.547769,0.583941 0.620115,1.054196 0.07235,0.475422 -0.03617,0.542601 -0.439248,0.692462 -0.144693,0.403075 -0.289388,0.253213 -0.258381,0.325561 -0.578774,0.511595 -1.059364,0.620115 -0.800982,0.325561 -2.185906,0.511595 -0.361734,0.03617 -0.10852,-0.03617 -0.10852,0.03617 -0.330728,-0.03617 -1.565791,-0.656289 -0.325561,-0.253214 -0.764808,-0.909502 -0.330728,-0.764809 q -0.07751,-0.21704 -0.108521,-0.475421 l -0.03617,-0.289388 0.03617,-0.113687 0.03617,-0.470254 q 0.08785,-0.1757 0.144693,-0.403075 l 0.475422,-0.656289 0.289387,-0.289387 0.294555,-0.21704 0.289387,-0.294555 1.018022,-0.651121 0.294555,-0.258381 0.728635,-0.397908 q 0.165365,-0.09819 0.361734,-0.144693 0.118856,-0.08268 0.294555,-0.113688 0.149861,-0.113688 0.361734,-0.180867 l 0.439248,-0.10852 0.144694,0.03617 0.10852,-0.03617 h 0.180867 z m 0.511595,1.968865 -0.511595,0.108521 q -0.134358,0.149861 -0.144694,0.397907 -0.08268,0.222208 -0.253213,0.403075 -0.258382,-0.01034 -0.547769,-0.07235 l -0.511595,0.07235 q -0.175699,0.07751 -0.397907,0.144693 l -0.439248,0.217041 -0.909503,0.981849 -0.253213,0.403075 -0.108521,0.511595 q -0.03101,0.124023 -0.03617,0.289387 l 0.03617,0.07235 v 0.217041 l 0.470254,0.149861 0.547769,0.07235 q 0.232543,-0.03101 0.475422,-0.10852 l 0.5426,-0.07752 0.987017,-0.32556 1.601964,-0.945676 0.656289,-0.620115 0.506427,-0.764809 0.108521,-0.511595 Q 53.804136,24.408493 53.612934,24.2638 53.406229,24.16561 53.137512,24.119106 l -0.506427,-0.144693 z"
         style="font-family:Komix;-inkscape-font-specification:Komix"
         id="path12397" />
      <path
         d="m 59.927773,21.948701 2.11356,0.10852 q 0.253213,0.02584 0.573606,0.10852 0.242879,0.06201 0.537433,0.211873 l 1.038693,0.397907 q 0.227376,0.113688 0.434081,0.320393 0.206705,0.118856 0.428913,0.320393 l 0.28422,0.434081 q 0.165364,0.222208 0.180867,0.50126 l 0.03617,0.211872 q -0.04651,0.1757 -0.144694,0.361734 l -0.320392,0.39274 -0.862994,0.60978 -0.537433,0.10852 q -0.206705,0.118855 -0.50126,0.139526 l -1.074867,0.180867 -0.10852,-0.03617 -0.03617,0.03617 -0.676959,0.07235 0.211873,0.180867 0.573606,0.1757 q 0.258381,0.03101 0.537433,0.10852 l 0.573607,0.10852 h 0.428913 l 0.289387,0.03617 0.60978,-0.03617 0.60978,0.144694 0.465086,0.248046 q 0.191202,0.149861 0.356567,0.392739 l 0.10852,0.144694 -0.217041,0.289387 q -0.180867,0.144694 -0.428913,0.248046 l -0.537433,0.10852 -1.11104,0.07235 -0.144693,-0.03617 q -0.237711,-0.06201 -0.60978,-0.108521 L 62.366893,28.397899 61.896639,28.2222 q -0.237711,-0.06718 -0.50126,-0.180867 l -1.756993,-0.465086 -0.320393,-0.03617 -0.03617,0.248046 q 0,0.28422 -0.07235,0.645954 -0.01034,0.284219 -0.10852,0.645953 -0.07751,0.237711 -0.284219,0.465086 -0.118856,0.04651 -0.253214,0.144694 l -0.248046,-0.07235 q -0.242879,-0.103352 -0.465087,-0.284219 -0.227375,-0.05684 -0.397907,-0.289387 -0.206705,-0.144694 -0.320393,-0.39274 l -0.03617,-0.32556 0.07235,-0.537434 -0.03617,-0.06718 -0.03617,-1.11104 0.03617,-0.32556 -0.03617,-0.356566 0.03617,-0.465087 -0.03617,-0.10852 0.10852,-1.21956 0.144694,-0.60978 q 0.01033,-0.284219 0.103352,-0.645953 l -0.03617,-0.39274 0.07235,-0.144693 0.43408,-0.248046 q 0.134358,-0.01034 0.28422,-0.07235 l 0.07235,0.10852 1.11104,-0.07235 z m 0.966347,1.6123 -0.573607,0.07235 q -0.248046,0.0052 -0.60978,0.07235 -0.310058,0.0155 -0.428913,0.320393 l -0.07235,0.60978 0.07235,0.253214 0.356566,-0.07235 q 0.253214,-0.01034 0.60978,-0.07235 h 0.50126 l 0.10852,-0.03617 h 0.144694 l 1.147213,-0.144694 0.537433,-0.139526 q 0.248046,-0.08785 0.50126,-0.289387 l 0.180867,-0.21704 -0.180867,-0.139526 -1.038693,-0.180867 -0.10852,0.03617 z"
         style="font-family:Komix;-inkscape-font-specification:Komix"
         id="path12399" />
      <path
         d="m 75.673532,21.933198 0.981849,0.366902 0.775144,0.532265 0.04134,0.568439 -0.366902,0.289387 -0.981849,0.160197 -0.118855,-0.04134 -0.940508,0.248046 -0.573607,0.08268 -0.485757,0.160196 q -0.03617,0.211873 -0.04134,0.490925 v 0.651121 l -0.124023,0.490924 -0.04134,0.408243 v 0.124023 h 0.04134 l -0.04134,0.449583 0.04134,0.160197 q -0.07751,0.21704 -0.08268,0.490924 l -0.118855,1.183387 0.03617,0.165364 -0.03617,0.408242 q -0.149861,0.180867 -0.372069,0.325561 l -0.444416,0.04134 -0.124023,-0.04134 -0.532266,-0.124023 -0.651121,-0.651121 q -0.12919,-0.222208 -0.206705,-0.490925 l 0.248046,-3.26594 v -0.124023 h -0.04134 l -1.591629,0.289387 -0.490924,0.160197 q -0.211873,0.07751 -0.490925,0.124023 -0.227375,0.06201 -0.449583,0.08268 -0.222208,0.09819 -0.490925,0.160196 l -0.60978,-0.07751 q -0.201537,-0.09819 -0.408242,-0.248046 -0.1757,-0.113688 -0.366902,-0.28422 -0.170532,-0.12919 -0.32556,-0.32556 l -0.124023,-0.366902 0.08268,-0.124023 0.408242,-0.242878 0.449584,-0.165364 0.449583,-0.242879 1.467606,-0.248046 0.490925,-0.160196 q 0.273884,-0.03617 0.568439,-0.124023 l 0.532265,-0.08268 q 0.170532,-0.09302 0.408243,-0.124023 l 1.550288,-0.408243 0.408242,-0.160196 q 0.242879,-0.04651 0.490925,-0.165364 l 1.100704,-0.124023 0.532266,-0.118856 q 0.263549,-0.0052 0.568439,-0.08268 z"
         style="font-family:Komix;-inkscape-font-specification:Komix"
         id="path12401" />
      <path
         d="m 88.887155,21.178725 0.423746,0.454751 0.149861,0.268716 0.242878,0.604613 0.08785,0.366901 0.06201,0.754474 -0.09302,0.754473 -0.180867,0.69763 q -0.02584,0.149861 -0.08785,0.330728 l -0.242879,0.635618 -0.149861,0.273884 q -0.08268,0.113688 -0.155029,0.268717 -0.09819,0.113688 -0.180867,0.273884 l -0.237711,0.180867 -0.392739,0.485757 -0.30489,0.149861 -0.723468,0.542601 -0.578774,0.30489 0.335896,0.08785 q 0.05684,0.103352 0.180866,0.180867 l 0.08785,-0.08785 0.155029,0.05684 q 0.07751,0.09302 0.118855,0.242878 -0.01033,0.149861 -0.08785,0.273884 l -0.211873,0.211873 q -0.144694,0.05168 -0.30489,0.149861 l -0.242878,0.180867 -0.604613,0.268717 q -0.155029,0.05684 -0.361734,0.09302 -0.118855,0.07751 -0.273884,0.149861 l -1.601964,0.573607 q -0.149861,0.03101 -0.330728,0.09302 -0.139526,0.03101 -0.299723,0.118856 l -0.30489,0.124023 -0.361733,0.08785 q -0.139526,0.02584 -0.273885,0.09302 l -0.392739,0.03101 -0.273885,0.149862 h -0.08785 v 0.03101 l -0.211873,-0.03101 h -0.09302 l -0.149861,0.03101 -0.06201,-0.06201 -0.05684,0.06201 h -0.392739 v 0.03101 L 79.755955,31.457153 78.93947,30.971396 q -0.10852,-0.08785 -0.211873,-0.211872 L 78.484723,30.547632 78.303856,30.304754 78.185,30.005031 78.035139,29.312569 q -0.03101,-0.134358 -0.03101,-0.30489 l -0.06201,-0.392739 0.03101,-0.39274 -0.03101,-0.273884 0.03101,-0.08785 -0.03101,-0.211873 0.03101,-0.06201 0.031,-0.08785 0.08785,-0.697629 q 0.02584,-0.155029 0.09302,-0.330728 l 0.03101,-0.30489 0.08785,-0.361734 q 0.04651,-0.155029 0.06201,-0.361734 l 0.511595,-1.209225 0.155029,-0.273884 q 0.08785,-0.118856 0.211873,-0.242879 0.09819,-0.09302 0.211872,-0.149861 0.06201,-0.06201 0.149862,-0.08785 0.031,-0.139526 0.118855,-0.273885 0.08785,-0.103352 0.242878,-0.149861 l 0.149862,-0.273884 0.485757,-0.39274 q 0.09302,-0.04134 0.180866,-0.118855 0.103353,-0.07751 0.242879,-0.124023 l 0.268717,-0.180867 q 0.103352,-0.05684 0.242878,-0.118855 l 0.211873,-0.211873 0.573606,-0.30489 q 0.118856,-0.03101 0.242879,-0.118856 l 0.966346,-0.361733 q 0.134358,-0.05684 0.273884,-0.155029 l 0.330728,-0.08785 q 0.129191,-0.02067 0.273884,-0.09302 l 0.69763,-0.180867 0.330728,-0.03101 0.361734,-0.08785 0.69763,-0.03101 0.08785,0.03101 0.754474,0.06201 0.335896,0.08785 0.299722,0.149861 z m -1.93786,0.06201 -2.506299,0.635618 -1.059363,0.511595 -0.330728,0.211873 q -0.160197,0.08268 -0.30489,0.211873 l -0.361734,0.180867 -0.604613,0.423745 -1.302242,1.359086 -0.449583,1.121375 -0.366902,1.782831 0.03101,0.118856 -0.08785,0.604612 v 0.09302 h 0.031 l -0.031,0.268717 0.031,0.09302 0.02584,0.604612 0.124024,0.418578 q 0.06718,0.165364 0.180866,0.335896 0.118856,0.124023 0.299723,0.211873 l 0.790647,-0.09302 1.209224,-0.361734 0.299723,-0.118855 q 0.186034,-0.04651 0.392739,-0.124023 l 2.811189,-0.992184 -0.180867,-0.09302 q -0.186034,-0.04651 -0.392739,-0.149861 -0.170532,-0.08268 -0.330728,-0.211872 l -0.30489,-0.211873 q -0.08785,-0.170532 -0.211873,-0.335896 0.05684,-0.186035 0.06201,-0.39274 l 0.09302,-0.842323 q -0.05684,-0.155029 -0.155029,-0.30489 l -1.266069,0.273885 -0.335895,0.118855 q -0.129191,0.129191 -0.242879,0.30489 l -0.180867,0.330728 -0.268716,0.273884 -0.180867,0.299723 -0.242879,0.30489 q -0.08785,0.144693 -0.211872,0.299722 -0.06718,0.144693 -0.211873,0.273884 -0.10852,0.124023 -0.273884,0.211873 -0.1757,-0.0052 -0.39274,-0.06201 L 80.21071,28.61494 q -0.103353,-0.139526 -0.242879,-0.273885 l -0.06201,-0.206705 0.03101,-0.09302 0.635618,-1.116207 0.242878,-0.273885 q 0.07235,-0.144693 0.08785,-0.330728 L 80.63446,26.077632 80.422588,25.803748 80.63446,25.47302 80.996194,25.38 l 0.480589,-0.03101 1.333248,-1.87068 0.242879,-0.273885 q 0.09302,-0.149861 0.23771,-0.30489 0.09302,-0.144693 0.242879,-0.268716 l 0.273884,-0.273884 0.299722,-0.211873 0.397908,0.03101 0.08785,-0.03101 0.242879,0.06201 0.08785,-0.06201 0.366901,0.180867 0.299722,0.211873 q 0.08268,0.170531 0.149862,0.392739 l 0.124023,1.333248 -0.03101,0.299722 0.03101,0.09302 v 0.08785 l 0.149861,0.30489 q 0.134358,0.118856 0.242878,0.299722 l 0.06201,0.211873 -0.03101,0.06201 -0.06201,0.09302 -0.30489,0.237711 q -0.02584,0.21704 -0.02584,0.485757 l 0.02584,0.454751 -0.05684,0.08785 0.05684,0.180866 v 0.09302 h 0.03101 l 0.635618,-0.39274 0.573607,-0.485757 0.242878,-0.268716 0.180867,-0.366902 q 0.113688,-0.118855 0.211873,-0.299722 l 0.423745,-1.178219 0.149862,-0.847491 -0.08785,-0.909502 -0.124023,-0.39274 -0.180867,-0.361734 -0.211873,-0.299722 -0.361734,-0.180867 z m -2.65616,2.811189 q -0.09819,0.222208 -0.273884,0.454751 l -0.149861,0.330728 0.180867,0.03101 q 0.289387,-0.03101 0.361733,-0.335896 l 0.03101,-0.23771 -0.06201,-0.242879 z"
         style="font-family:Komix;-inkscape-font-specification:Komix"
         id="path12403" />
      <path
         d="m 95.424198,21.922863 0.935341,0.04134 0.470254,0.07751 0.702797,0.232544 0.702797,0.351398 0.625283,0.428913 0.816485,0.744138 0.04134,0.428913 -0.155029,0.351399 -0.428913,0.03617 -0.351398,-0.155028 -0.547769,-0.506428 -0.39274,-0.155029 -0.310057,-0.196369 -0.857826,-0.155029 -0.428913,0.03617 -0.39274,0.118856 q -0.160196,0.03617 -0.310057,0.113687 l -1.328081,0.744139 q -0.12919,0.12919 -0.315225,0.232543 l -0.268716,0.237711 -0.315226,0.191202 q -0.73897,0.480589 -0.857826,1.209225 l 0.108521,0.707964 0.04134,0.506428 0.232543,0.237711 0.392739,0.155029 0.744139,0.227375 1.250565,-0.191202 0.428913,-0.118856 0.07752,-0.196369 0.118855,0.118855 q 0.175699,-0.04134 0.351399,-0.155029 l 0.925005,-0.118855 0.842323,-0.459919 -1.457271,0.149861 -1.364253,-0.07751 -0.310058,-0.19637 q -0.11369,-0.129184 -0.273887,-0.237704 L 94.292488,26.491045 Q 94.173632,26.377357 94.059945,26.217161 93.956592,26.0673 93.863575,25.865762 l 0.19637,-0.315225 q 0.201537,-0.08268 0.428913,-0.113688 l 0.310057,-0.04134 0.118856,0.04134 2.537304,-0.07751 0.387572,0.03617 1.209225,-0.113688 0.118856,0.03617 0.428913,0.04134 q 0.170531,0.04651 0.315225,0.155029 l 0.351394,0.155028 0.31006,0.19637 0.23255,0.273884 q 0.0878,0.19637 0.11885,0.428913 -0.0517,0.180867 -0.15503,0.351399 -0.0672,0.165364 -0.23771,0.273884 l -0.26872,0.268717 -1.483104,1.136878 -0.39274,0.113688 q -0.149861,0.08268 -0.351399,0.155028 -0.175699,0.07752 -0.351398,0.19637 -0.201538,0.03617 -0.428913,0.118856 l -0.39274,0.113687 q -0.191202,0.06718 -0.387572,0.08268 l -0.351399,0.155029 -0.428913,0.07752 q -0.201537,0.0052 -0.428913,0.07751 l -0.857826,-0.04134 -0.118855,0.04134 -1.250566,-0.310058 q -0.180867,-0.05168 -0.387572,-0.160196 l -0.351398,-0.155029 q -0.160197,-0.08785 -0.315226,-0.232543 l -0.583942,-0.428913 -0.232543,-0.315225 -0.315225,-0.702798 -0.155029,-0.893999 0.04134,-0.511595 q 0.03101,-0.175699 0.113688,-0.387572 0.03617,-0.175699 0.118855,-0.39274 l 0.155029,-0.351398 0.428913,-0.620116 0.506428,-0.547768 0.315225,-0.19637 q 0.10852,-0.118855 0.273884,-0.232543 l 1.245398,-0.857826 0.744138,-0.315225 0.387572,-0.113688 0.19637,0.03617 0.118856,-0.03617 h 0.07751 z"
         style="font-family:Komix;-inkscape-font-specification:Komix"
         id="path12405" />
      <path
         d="m 109.84188,21.938366 q 0.25321,0.0155 0.5271,0.07751 0.17569,0.05168 0.37723,0.149861 l 0.34107,0.227376 0.26354,0.299722 0.19121,0.382405 q -0.0724,0.180867 -0.22738,0.299722 l -0.30489,0.227376 -0.94051,0.113687 h -0.53226 l -2.19108,0.227376 -0.11368,-0.04134 -0.5271,0.04134 -1.36426,0.299722 q -0.19637,0.05168 -0.45475,0.07751 l -0.37723,0.149861 q -0.12403,0.118855 -0.14986,0.30489 0.0413,0.180867 0.22737,0.227375 l 0.86816,-0.113687 0.37724,-0.155029 1.20922,-0.263549 0.11369,0.04134 0.37724,-0.155029 0.75964,-0.113688 0.0724,0.04134 h 0.11368 l 0.53227,-0.07751 0.45475,0.03617 q 0.17053,0.08785 0.3359,0.227376 0.18086,0.07751 0.34106,0.227376 0.12919,0.144693 0.22738,0.341063 l 0.0775,0.30489 -0.0413,0.10852 -0.37724,0.227376 -1.35908,0.227375 -0.41858,0.155029 q -0.17053,0.02584 -0.3359,0.113688 l -0.41858,0.07235 q -0.18603,0.0155 -0.41341,0.07751 l -0.41857,0.149861 -0.45475,0.07751 -0.41341,0.149861 -0.30489,0.03617 -0.11369,-0.03617 -0.86816,0.149861 q -0.20154,0.02067 -0.26355,0.227375 l -0.11369,0.341064 v 0.191202 l 0.7183,-0.191202 q 0.20154,-0.06718 0.45475,-0.113688 l 0.41341,-0.149861 1.36425,-0.30489 0.41341,-0.03617 3.10058,-0.568438 0.49093,-0.03617 0.53226,0.03617 q 0.0879,0.134358 0.22221,0.263549 l 0.1912,0.382404 q -0.0258,0.222208 -0.11369,0.449583 -0.11885,0.149862 -0.29972,0.268717 l -1.25056,0.41341 -0.45476,0.03617 -1.81383,0.418577 q -0.20154,0.04651 -0.45475,0.07235 -0.19121,0.103353 -0.44959,0.155029 l -0.9095,0.186034 -0.37724,0.155029 -0.9095,0.227376 -0.41341,0.149861 q -0.2067,0.03617 -0.45475,0.03617 -0.1757,0.08268 -0.37724,0.113688 -0.18086,0.02584 -0.34106,0.113688 l -0.75447,-0.30489 -0.22738,-0.335896 q -0.12919,-0.139526 -0.30489,-0.268716 l -0.0362,-0.449584 0.14986,-1.4366 0.11369,-0.496092 -0.0362,-0.263549 0.18604,-1.400427 v -0.10852 h -0.0362 l 0.0362,-0.155029 -0.0362,-0.03617 v -0.149862 l -0.14986,-0.568439 -0.14986,-0.377236 0.18604,-0.377237 0.37723,-0.191202 0.30489,0.03617 0.5271,-0.186034 0.22738,0.03617 0.0775,-0.03617 3.13675,-0.490925 0.0775,0.03617 h 0.11369 z"
         style="font-family:Komix;-inkscape-font-specification:Komix"
         id="path12407" />
      <path
         d="m 118.46665,21.969372 0.95084,0.180867 0.43408,0.144693 1.71049,1.059364 0.54776,0.583941 0.62012,1.054196 0.0724,0.475422 -0.0362,0.542601 -0.43924,0.692462 -0.1447,0.403075 -0.28939,0.253213 -0.25838,0.325561 -0.57877,0.511595 -1.05936,0.620115 -0.80099,0.325561 -2.1859,0.511595 -0.36174,0.03617 -0.10852,-0.03617 -0.10852,0.03617 -0.33072,-0.03617 -1.5658,-0.656289 -0.32556,-0.253214 -0.76481,-0.909502 -0.33072,-0.764809 q -0.0775,-0.21704 -0.10852,-0.475421 l -0.0362,-0.289388 0.0362,-0.113687 0.0362,-0.470254 q 0.0879,-0.1757 0.14469,-0.403075 l 0.47543,-0.656289 0.28938,-0.289387 0.29456,-0.21704 0.28938,-0.294555 1.01803,-0.651121 0.29455,-0.258381 0.72864,-0.397908 q 0.16536,-0.09819 0.36173,-0.144693 0.11886,-0.08268 0.29456,-0.113688 0.14986,-0.113688 0.36173,-0.180867 l 0.43925,-0.10852 0.14469,0.03617 0.10852,-0.03617 h 0.18087 z m 0.51159,1.968865 -0.51159,0.108521 q -0.13436,0.149861 -0.1447,0.397907 -0.0827,0.222208 -0.25321,0.403075 -0.25838,-0.01034 -0.54777,-0.07235 l -0.51159,0.07235 q -0.1757,0.07751 -0.39791,0.144693 l -0.43925,0.217041 -0.9095,0.981849 -0.25321,0.403075 -0.10852,0.511595 q -0.031,0.124023 -0.0362,0.289387 l 0.0362,0.07235 v 0.217041 l 0.47025,0.149861 0.54777,0.07235 q 0.23254,-0.03101 0.47542,-0.10852 l 0.5426,-0.07752 0.98702,-0.32556 1.60196,-0.945676 0.65629,-0.620115 0.50643,-0.764809 0.10852,-0.511595 q -0.13436,-0.144694 -0.32556,-0.289387 -0.20671,-0.09819 -0.47542,-0.144694 l -0.50643,-0.144693 z"
         style="font-family:Komix;-inkscape-font-specification:Komix"
         id="path12409" />
      <path
         d="m 126.06823,21.959036 h 0.41857 l 0.41341,0.08268 q 0.22221,0.139526 0.45476,0.330728 0.24804,0.1757 0.50126,0.418578 0.13952,0.310058 0.16536,0.707965 0.0155,0.289387 0.0827,0.620115 l 0.66663,-0.248046 1.6588,-0.91467 0.3359,-0.372069 q 0.33589,-0.02584 0.74414,-0.124023 0.26355,-0.113688 0.66662,-0.170532 0.32039,0.04651 0.62528,0.170532 l 0.41341,0.496092 0.12403,0.625283 -0.0413,0.124023 q -0.21188,0.232543 -0.57878,0.289387 l -0.58394,0.206705 -1.74666,0.956011 q -0.24804,0.08268 -0.53743,0.253214 l -0.62528,0.289387 q -0.16537,0.04651 -0.33073,0.165364 l 0.2067,0.08268 q 0.27906,0.06718 0.66663,0.206705 0.31005,0.05168 0.66145,0.211873 l 1.29191,0.41341 q 0.25321,0.144694 0.62012,0.248046 l 0.58394,0.294555 q 0.24288,0.113688 0.57877,0.330728 l 0.58394,0.289387 0.5426,0.377237 0.37207,0.496092 q 0.0879,0.211873 0.12403,0.459919 -0.0413,0.09302 -0.12403,0.206705 l -0.24804,0.206705 -0.41858,-0.04134 q -0.27388,-0.08785 -0.62012,-0.248046 l -0.5426,-0.335896 q -0.27388,-0.09819 -0.57877,-0.330728 -0.33073,-0.08268 -0.66662,-0.248046 l -0.58395,-0.253214 q -0.30489,-0.08268 -0.66145,-0.248046 l -1.99471,-0.496092 q -0.27905,-0.10852 -0.66662,-0.124023 -0.25838,0 -0.33073,0.289387 -0.0775,0.320393 -0.0827,0.749306 -0.0465,0.320393 -0.17053,0.702797 -0.28422,0.155029 -0.66146,0.170532 l -0.58394,-0.211873 -0.53743,-0.372069 q -0.19637,-0.242878 -0.29456,-0.583942 l 0.0879,-0.82682 q -0.24288,-0.206705 -0.58394,-0.294555 -0.23254,-0.170532 -0.45992,-0.41341 -0.21187,-0.201537 -0.37207,-0.50126 l -0.12402,-0.41341 0.2067,-0.206705 1.41593,-0.377237 0.28939,-1.245398 -0.0413,-0.459919 0.0413,-0.289387 q -0.005,-0.330728 -0.0827,-0.749306 0.13436,-0.196369 0.33073,-0.372069 z"
         style="font-family:Komix;-inkscape-font-specification:Komix;fill:#ffffff"
         id="path12411" />
      <path
         d="m 137.80391,21.948701 2.11356,0.10852 q 0.25322,0.02584 0.57361,0.10852 0.24288,0.06201 0.53743,0.211873 l 1.0387,0.397907 q 0.22737,0.113688 0.43408,0.320393 0.2067,0.118856 0.42891,0.320393 l 0.28422,0.434081 q 0.16536,0.222208 0.18087,0.50126 l 0.0362,0.211872 q -0.0465,0.1757 -0.14469,0.361734 l -0.3204,0.39274 -0.86299,0.60978 -0.53743,0.10852 q -0.20671,0.118855 -0.50126,0.139526 l -1.07487,0.180867 -0.10852,-0.03617 -0.0362,0.03617 -0.67696,0.07235 0.21187,0.180867 0.57361,0.1757 q 0.25838,0.03101 0.53743,0.10852 l 0.57361,0.10852 h 0.42891 l 0.28939,0.03617 0.60978,-0.03617 0.60978,0.144694 0.46508,0.248046 q 0.19121,0.149861 0.35657,0.392739 l 0.10852,0.144694 -0.21704,0.289387 q -0.18087,0.144694 -0.42891,0.248046 l -0.53744,0.10852 -1.11104,0.07235 -0.14469,-0.03617 q -0.23771,-0.06201 -0.60978,-0.108521 l -0.64079,-0.10852 -0.47025,-0.175699 q -0.23771,-0.06718 -0.50126,-0.180867 l -1.75699,-0.465086 -0.3204,-0.03617 -0.0362,0.248046 q 0,0.28422 -0.0724,0.645954 -0.0103,0.284219 -0.10852,0.645953 -0.0775,0.237711 -0.28422,0.465086 -0.11885,0.04651 -0.25321,0.144694 l -0.24805,-0.07235 q -0.24287,-0.103352 -0.46508,-0.284219 -0.22738,-0.05684 -0.39791,-0.289387 -0.2067,-0.144694 -0.32039,-0.39274 l -0.0362,-0.32556 0.0724,-0.537434 -0.0362,-0.06718 -0.0362,-1.11104 0.0362,-0.32556 -0.0362,-0.356566 0.0362,-0.465087 -0.0362,-0.10852 0.10852,-1.21956 0.1447,-0.60978 q 0.0103,-0.284219 0.10335,-0.645953 l -0.0362,-0.39274 0.0723,-0.144693 0.43408,-0.248046 q 0.13436,-0.01034 0.28422,-0.07235 l 0.0724,0.10852 1.11104,-0.07235 z m 0.96635,1.6123 -0.57361,0.07235 q -0.24804,0.0052 -0.60978,0.07235 -0.31005,0.0155 -0.42891,0.320393 l -0.0724,0.60978 0.0724,0.253214 0.35657,-0.07235 q 0.25321,-0.01034 0.60978,-0.07235 h 0.50126 l 0.10852,-0.03617 h 0.14469 l 1.14721,-0.144694 0.53744,-0.139526 q 0.24804,-0.08785 0.50126,-0.289387 l 0.18086,-0.21704 -0.18086,-0.139526 -1.0387,-0.180867 -0.10852,0.03617 z"
         style="font-family:Komix;-inkscape-font-specification:Komix;fill:#ffffff"
         id="path12413" />
      <path
         d="m 151.79267,21.938366 q 0.25321,0.0155 0.5271,0.07751 0.1757,0.05168 0.37723,0.149861 l 0.34107,0.227376 0.26354,0.299722 0.19121,0.382405 q -0.0724,0.180867 -0.22738,0.299722 l -0.30489,0.227376 -0.94051,0.113687 h -0.53226 l -2.19108,0.227376 -0.11368,-0.04134 -0.5271,0.04134 -1.36426,0.299722 q -0.19636,0.05168 -0.45475,0.07751 l -0.37723,0.149861 q -0.12403,0.118855 -0.14986,0.30489 0.0413,0.180867 0.22737,0.227375 l 0.86816,-0.113687 0.37724,-0.155029 1.20922,-0.263549 0.11369,0.04134 0.37724,-0.155029 0.75964,-0.113688 0.0724,0.04134 h 0.11368 l 0.53227,-0.07751 0.45475,0.03617 q 0.17053,0.08785 0.3359,0.227376 0.18086,0.07751 0.34106,0.227376 0.12919,0.144693 0.22738,0.341063 l 0.0775,0.30489 -0.0413,0.10852 -0.37724,0.227376 -1.35908,0.227375 -0.41858,0.155029 q -0.17053,0.02584 -0.3359,0.113688 l -0.41857,0.07235 q -0.18604,0.0155 -0.41341,0.07751 l -0.41858,0.149861 -0.45475,0.07751 -0.41341,0.149861 -0.30489,0.03617 -0.11369,-0.03617 -0.86816,0.149861 q -0.20154,0.02067 -0.26355,0.227375 l -0.11369,0.341064 v 0.191202 l 0.7183,-0.191202 q 0.20154,-0.06718 0.45475,-0.113688 l 0.41341,-0.149861 1.36426,-0.30489 0.41341,-0.03617 3.10057,-0.568438 0.49093,-0.03617 0.53226,0.03617 q 0.0878,0.134358 0.22221,0.263549 l 0.1912,0.382404 q -0.0258,0.222208 -0.11369,0.449583 -0.11885,0.149862 -0.29972,0.268717 l -1.25056,0.41341 -0.45476,0.03617 -1.81383,0.418577 q -0.20154,0.04651 -0.45475,0.07235 -0.19121,0.103353 -0.44959,0.155029 l -0.9095,0.186034 -0.37724,0.155029 -0.9095,0.227376 -0.41341,0.149861 q -0.2067,0.03617 -0.45475,0.03617 -0.1757,0.08268 -0.37724,0.113688 -0.18086,0.02584 -0.34106,0.113688 l -0.75447,-0.30489 -0.22738,-0.335896 q -0.12919,-0.139526 -0.30489,-0.268716 l -0.0362,-0.449584 0.14986,-1.4366 0.11369,-0.496092 -0.0362,-0.263549 0.18604,-1.400427 v -0.10852 h -0.0362 l 0.0362,-0.155029 -0.0362,-0.03617 v -0.149862 l -0.14986,-0.568439 -0.14986,-0.377236 0.18604,-0.377237 0.37723,-0.191202 0.30489,0.03617 0.5271,-0.186034 0.22738,0.03617 0.0775,-0.03617 3.13675,-0.490925 0.0775,0.03617 h 0.11368 z"
         style="font-family:Komix;-inkscape-font-specification:Komix;fill:#ffffff"
         id="path12415" />
      <path
         d="m 164.40685,21.933198 0.98185,0.366902 0.77515,0.532265 0.0413,0.568439 -0.3669,0.289387 -0.98185,0.160197 -0.11886,-0.04134 -0.94051,0.248046 -0.5736,0.08268 -0.48576,0.160196 q -0.0362,0.211873 -0.0413,0.490925 v 0.651121 l -0.12402,0.490924 -0.0413,0.408243 v 0.124023 h 0.0413 l -0.0413,0.449583 0.0413,0.160197 q -0.0775,0.21704 -0.0827,0.490924 l -0.11885,1.183387 0.0362,0.165364 -0.0362,0.408242 q -0.14986,0.180867 -0.37207,0.325561 l -0.44442,0.04134 -0.12402,-0.04134 -0.53226,-0.124023 -0.65113,-0.651121 q -0.12919,-0.222208 -0.2067,-0.490925 l 0.24805,-3.26594 v -0.124023 h -0.0413 l -1.59162,0.289387 -0.49093,0.160197 q -0.21187,0.07751 -0.49092,0.124023 -0.22738,0.06201 -0.44959,0.08268 -0.22221,0.09819 -0.49092,0.160196 l -0.60978,-0.07751 q -0.20154,-0.09819 -0.40824,-0.248046 -0.1757,-0.113688 -0.36691,-0.28422 -0.17053,-0.12919 -0.32556,-0.32556 l -0.12402,-0.366902 0.0827,-0.124023 0.40825,-0.242878 0.44958,-0.165364 0.44958,-0.242879 1.46761,-0.248046 0.49092,-0.160196 q 0.27389,-0.03617 0.56844,-0.124023 l 0.53227,-0.08268 q 0.17053,-0.09302 0.40824,-0.124023 l 1.55029,-0.408243 0.40824,-0.160196 q 0.24288,-0.04651 0.49092,-0.165364 l 1.10071,-0.124023 0.53227,-0.118856 q 0.26354,-0.0052 0.56843,-0.08268 z"
         style="font-family:Komix;-inkscape-font-specification:Komix;fill:#ffffff;fill-opacity:1"
         id="path12417" />
      <path
         d="m 172.66989,21.540459 q 0.23771,0.02067 0.50126,0.10852 0.18604,0.06718 0.36173,0.211872 l 0.35657,0.253214 q 0.11369,0.165364 0.21704,0.397907 l 0.0362,0.387572 -0.0362,0.113688 -1.18339,1.756993 -0.18086,0.428913 q -0.12919,0.144694 -0.24805,0.320393 l -0.42891,0.795815 -0.14469,0.428913 q -0.0982,0.170531 -0.18087,0.392739 l -0.13953,0.428913 -0.14469,1.436601 -0.0413,0.144693 0.0413,0.361734 q -0.0517,0.21704 -0.14469,0.459919 -0.19121,0.09302 -0.42892,0.180867 l -0.46508,-0.03617 -0.36174,-0.253213 q -0.13952,-0.129191 -0.32556,-0.248046 l -0.14469,-0.434081 -0.10852,-1.105872 0.10852,-1.080034 0.0723,-0.356566 -0.0362,-0.108521 q 0.093,-0.170531 0.10852,-0.397907 -0.14469,-0.118855 -0.32039,-0.248046 l -1.5813,-1.400427 -0.25321,-0.320393 q -0.16536,-0.113687 -0.32039,-0.289387 l -0.28422,-0.284219 -0.25322,-0.356566 -0.0362,-0.470255 q 0.13953,-0.155028 0.32039,-0.289387 l 0.46509,0.144694 0.47025,-0.03617 0.43409,0.144693 0.38757,0.21704 0.32556,0.248047 0.50126,0.7183 q 0.13952,0.118855 0.28938,0.284219 l 0.46509,0.506428 0.14469,-0.07235 q 0.1447,-0.113688 0.28422,-0.289387 0.0724,-0.186035 0.18087,-0.39274 l 0.46509,-0.713132 q 0.10335,-0.180867 0.25321,-0.361734 l 0.68213,-1.074867 z"
         style="font-family:Komix;-inkscape-font-specification:Komix;fill:#ffffff;fill-opacity:1"
         id="path12419" />
      <path
         d="m 175.51209,27.509067 q 0.21187,0.0155 0.45992,0.134359 0.17569,0.02067 0.3669,0.09818 l 0.33073,0.232543 0.26354,0.263549 q 0.0879,0.170532 0.16537,0.392739 l 0.031,0.465087 q -0.062,0.175699 -0.16536,0.361734 -0.15503,0.103352 -0.36173,0.201537 l -0.33073,0.03101 -0.46509,-0.165364 -0.29455,-0.232543 -0.26355,-0.294555 q -0.0775,-0.191202 -0.13436,-0.428913 -0.062,-0.211873 -0.0982,-0.465086 l 0.16537,-0.361734 z"
         style="font-family:Komix;-inkscape-font-specification:Komix"
         id="path12421" />
      <path
         d="m 183.45472,21.969372 0.95085,0.180867 0.43408,0.144693 1.71048,1.059364 0.54777,0.583941 0.62012,1.054196 0.0723,0.475422 -0.0362,0.542601 -0.43925,0.692462 -0.14469,0.403075 -0.28939,0.253213 -0.25838,0.325561 -0.57878,0.511595 -1.05936,0.620115 -0.80098,0.325561 -2.18591,0.511595 -0.36173,0.03617 -0.10852,-0.03617 -0.10852,0.03617 -0.33073,-0.03617 -1.56579,-0.656289 -0.32556,-0.253214 -0.76481,-0.909502 -0.33073,-0.764809 q -0.0775,-0.21704 -0.10852,-0.475421 l -0.0362,-0.289388 0.0362,-0.113687 0.0362,-0.470254 q 0.0878,-0.1757 0.14469,-0.403075 l 0.47542,-0.656289 0.28939,-0.289387 0.29455,-0.21704 0.28939,-0.294555 1.01802,-0.651121 0.29456,-0.258381 0.72863,-0.397908 q 0.16537,-0.09819 0.36174,-0.144693 0.11885,-0.08268 0.29455,-0.113688 0.14986,-0.113688 0.36173,-0.180867 l 0.43925,-0.10852 0.1447,0.03617 0.10852,-0.03617 h 0.18086 z m 0.5116,1.968865 -0.5116,0.108521 q -0.13435,0.149861 -0.14469,0.397907 -0.0827,0.222208 -0.25321,0.403075 -0.25839,-0.01034 -0.54777,-0.07235 l -0.5116,0.07235 q -0.1757,0.07751 -0.3979,0.144693 l -0.43925,0.217041 -0.90951,0.981849 -0.25321,0.403075 -0.10852,0.511595 q -0.031,0.124023 -0.0362,0.289387 l 0.0362,0.07235 v 0.217041 l 0.47025,0.149861 0.54777,0.07235 q 0.23255,-0.03101 0.47542,-0.10852 l 0.54261,-0.07752 0.98701,-0.32556 1.60197,-0.945676 0.65629,-0.620115 0.50642,-0.764809 0.10852,-0.511595 q -0.13436,-0.144694 -0.32556,-0.289387 -0.2067,-0.09819 -0.47542,-0.144694 l -0.50643,-0.144693 z"
         style="font-family:Komix;-inkscape-font-specification:Komix"
         id="path12423" />
      <path
         d="m 191.7746,21.948701 2.11356,0.10852 q 0.25321,0.02584 0.57361,0.10852 0.24288,0.06201 0.53743,0.211873 l 1.03869,0.397907 q 0.22738,0.113688 0.43408,0.320393 0.20671,0.118856 0.42892,0.320393 l 0.28422,0.434081 q 0.16536,0.222208 0.18086,0.50126 l 0.0362,0.211872 q -0.0465,0.1757 -0.1447,0.361734 l -0.32039,0.39274 -0.86299,0.60978 -0.53744,0.10852 q -0.2067,0.118855 -0.50126,0.139526 l -1.07486,0.180867 -0.10852,-0.03617 -0.0362,0.03617 -0.67695,0.07235 0.21187,0.180867 0.5736,0.1757 q 0.25839,0.03101 0.53744,0.10852 l 0.5736,0.10852 h 0.42892 l 0.28938,0.03617 0.60978,-0.03617 0.60978,0.144694 0.46509,0.248046 q 0.1912,0.149861 0.35657,0.392739 l 0.10852,0.144694 -0.21704,0.289387 q -0.18087,0.144694 -0.42892,0.248046 l -0.53743,0.10852 -1.11104,0.07235 -0.14469,-0.03617 q -0.23771,-0.06201 -0.60978,-0.108521 l -0.64079,-0.10852 -0.47025,-0.175699 q -0.23771,-0.06718 -0.50126,-0.180867 l -1.757,-0.465086 -0.32039,-0.03617 -0.0362,0.248046 q 0,0.28422 -0.0724,0.645954 -0.0103,0.284219 -0.10852,0.645953 -0.0775,0.237711 -0.28422,0.465086 -0.11885,0.04651 -0.25321,0.144694 l -0.24805,-0.07235 q -0.24288,-0.103352 -0.46508,-0.284219 -0.22738,-0.05684 -0.39791,-0.289387 -0.20671,-0.144694 -0.32039,-0.39274 l -0.0362,-0.32556 0.0724,-0.537434 -0.0362,-0.06718 -0.0362,-1.11104 0.0362,-0.32556 -0.0362,-0.356566 0.0362,-0.465087 -0.0362,-0.10852 0.10852,-1.21956 0.1447,-0.60978 q 0.0103,-0.284219 0.10335,-0.645953 l -0.0362,-0.39274 0.0723,-0.144693 0.43408,-0.248046 q 0.13436,-0.01034 0.28422,-0.07235 l 0.0724,0.10852 1.11104,-0.07235 z m 0.96635,1.6123 -0.57361,0.07235 q -0.24804,0.0052 -0.60978,0.07235 -0.31006,0.0155 -0.42891,0.320393 l -0.0724,0.60978 0.0724,0.253214 0.35656,-0.07235 q 0.25322,-0.01034 0.60978,-0.07235 h 0.50126 l 0.10852,-0.03617 h 0.1447 l 1.14721,-0.144694 0.53743,-0.139526 q 0.24805,-0.08785 0.50126,-0.289387 l 0.18087,-0.21704 -0.18087,-0.139526 -1.03869,-0.180867 -0.10852,0.03617 z"
         style="font-family:Komix;-inkscape-font-specification:Komix"
         id="path12425" />
      <path
         d="m 202.73514,21.922863 0.93534,0.04134 0.47026,0.07751 0.70279,0.232544 0.7028,0.351398 0.62528,0.428913 0.81649,0.744138 0.0413,0.428913 -0.15503,0.351399 -0.42891,0.03617 -0.3514,-0.155028 -0.54777,-0.506428 -0.39274,-0.155029 -0.31006,-0.196369 -0.85782,-0.155029 -0.42892,0.03617 -0.39274,0.118856 q -0.16019,0.03617 -0.31005,0.113687 l -1.32808,0.744139 q -0.12919,0.12919 -0.31523,0.232543 l -0.26871,0.237711 -0.31523,0.191202 q -0.73897,0.480589 -0.85783,1.209225 l 0.10852,0.707964 0.0413,0.506428 0.23254,0.237711 0.39274,0.155029 0.74414,0.227375 1.25056,-0.191202 0.42891,-0.118856 0.0775,-0.196369 0.11885,0.118855 q 0.1757,-0.04134 0.3514,-0.155029 l 0.92501,-0.118855 0.84232,-0.459919 -1.45727,0.149861 -1.36425,-0.07751 -0.31006,-0.19637 Q 202.0374,26.79076 201.87721,26.68224 l -0.27389,-0.191202 q -0.11885,-0.113688 -0.23254,-0.273884 -0.10335,-0.149861 -0.19637,-0.351399 l 0.19637,-0.315225 q 0.20154,-0.08268 0.42891,-0.113688 l 0.31006,-0.04134 0.11885,0.04134 2.53731,-0.07751 0.38757,0.03617 1.20923,-0.113688 0.11885,0.03617 0.42891,0.04134 q 0.17054,0.04651 0.31523,0.155029 l 0.3514,0.155028 0.31006,0.19637 0.23254,0.273884 q 0.0879,0.19637 0.11885,0.428913 -0.0517,0.180867 -0.15502,0.351399 -0.0672,0.165364 -0.23772,0.273884 l -0.26871,0.268717 -1.48311,1.136878 -0.39274,0.113688 q -0.14986,0.08268 -0.3514,0.155028 -0.1757,0.07752 -0.3514,0.19637 -0.20154,0.03617 -0.42891,0.118856 l -0.39274,0.113687 q -0.1912,0.06718 -0.38757,0.08268 l -0.3514,0.155029 -0.42891,0.07752 q -0.20154,0.0052 -0.42892,0.07751 l -0.85782,-0.04134 -0.11886,0.04134 -1.25056,-0.310058 q -0.18087,-0.05168 -0.38758,-0.160196 l -0.35139,-0.155029 q -0.1602,-0.08785 -0.31523,-0.232543 l -0.58394,-0.428913 -0.23255,-0.315225 -0.31522,-0.702798 -0.15503,-0.893999 0.0413,-0.511595 q 0.031,-0.175699 0.11369,-0.387572 0.0362,-0.175699 0.11886,-0.39274 l 0.15502,-0.351398 0.42892,-0.620116 0.50642,-0.547768 0.31523,-0.19637 q 0.10852,-0.118855 0.27388,-0.232543 l 1.2454,-0.857826 0.74414,-0.315225 0.38757,-0.113688 0.19637,0.03617 0.11886,-0.03617 h 0.0775 z"
         style="font-family:Komix;-inkscape-font-specification:Komix"
         id="path12427" />
    </g>
  </g>
</svg>
