<?xml version="1.0" encoding="UTF-8" standalone="no"?>
<svg
   version="1.1"
   width="1134.9136"
   height="1134.9136"
   id="svg242"
   sodipodi:docname="the-labeller-geokret.svg"
   inkscape:version="1.1.2 (0a00cf5339, 2022-02-04)"
   inkscape:export-filename="/tmp/0ede301c-d315-48be-96ee-98d8441af59f.png"
   inkscape:export-xdpi="45.169998"
   inkscape:export-ydpi="45.169998"
   xmlns:inkscape="http://www.inkscape.org/namespaces/inkscape"
   xmlns:sodipodi="http://sodipodi.sourceforge.net/DTD/sodipodi-0.dtd"
   xmlns="http://www.w3.org/2000/svg"
   xmlns:svg="http://www.w3.org/2000/svg">
  <defs
     id="defs246" />
  <sodipodi:namedview
     id="namedview244"
     pagecolor="#ffffff"
     bordercolor="#666666"
     borderopacity="1.0"
     inkscape:pageshadow="2"
     inkscape:pageopacity="0.0"
     inkscape:pagecheckerboard="0"
     showgrid="false"
     inkscape:zoom="0.40189077"
     inkscape:cx="725.32146"
     inkscape:cy="618.32721"
     inkscape:window-width="2490"
     inkscape:window-height="1376"
     inkscape:window-x="2560"
     inkscape:window-y="27"
     inkscape:window-maximized="1"
     inkscape:current-layer="svg242"
     fit-margin-top="0"
     fit-margin-left="0"
     fit-margin-right="0"
     fit-margin-bottom="0"
     inkscape:snap-grids="true"
     inkscape:snap-global="false" />
  <g
     id="g33898"
     inkscape:export-filename="/tmp/g33898.png"
     inkscape:export-xdpi="45.169998"
     inkscape:export-ydpi="45.169998">
    <path
       d="m 567.43818,0.38492 c 3.45148,1.465093 6.53025,3.4260014 9.6875,5.4375 1.93924,1.1915094 3.8794,2.3815344 5.82031,3.5703125 1.55703,0.9634135 1.55703,0.9634135 3.14551,1.9462895 6.07918,3.716334 12.25107,7.274962 18.40918,10.858398 8.05659,4.692902 16.05972,9.455578 23.96729,14.395752 3.04194,1.835016 6.14113,3.509325 9.28271,5.166748 6.10503,3.55726 9.72219,7.852098 13.6875,13.625 0.65871,0.944883 1.31742,1.889766 1.99609,2.863281 1.08419,1.565598 2.16803,3.131455 3.24268,4.703614 8.82267,12.882784 18.36478,25.266808 27.8623,37.654545 4.29997,5.62619 8.47846,11.32363 12.58643,17.09106 9.84589,13.77998 20.5071,27.10544 32.65088,38.93628 6.92079,6.76135 12.9216,13.96795 18.66162,21.75122 0.78246,1.0609 1.56492,2.1218 2.37109,3.21484 6.92127,9.70417 12.84453,19.9801 18,30.72266 2.50312,5.03257 5.54512,9.41057 8.94141,13.875 0.59812,0.80043 1.19625,1.60085 1.8125,2.42554 3.34483,4.4625 6.73642,8.88852 10.13672,13.30883 0.70665,0.92064 1.41329,1.84127 2.14136,2.7898 1.35775,1.76497 2.72086,3.52584 4.09033,5.28174 8.79822,11.40343 13.62698,19.65866 12.50659,34.38159 -2.61267,10.94337 -10.18157,19.36854 -19,26 -0.66,0 -1.32,0 -2,0 0,4.62 0,9.24 0,14 1.38703,-0.16081 2.77406,-0.32162 4.20312,-0.4873 6.18529,-0.61501 12.33492,-0.69258 18.54688,-0.71583 1.21156,-0.006 2.42312,-0.0114 3.67139,-0.0173 2.56167,-0.009 5.12336,-0.016 7.68506,-0.0198 3.82672,-0.01 7.65289,-0.0406 11.47949,-0.0723 18.72968,-0.0818 37.54989,0.54907 55.82812,4.99609 8.57732,2.02619 17.20707,1.56522 25.96094,1.37891 24.44031,-0.47037 47.66686,0.88075 66.47656,18.67187 21.78026,22.96828 25.91606,52.40414 25.28466,82.84473 -0.2665,6.69196 -1.3676,12.95272 -3.1362,19.42093 -0.1663,0.64115 -0.3326,1.28229 -0.5039,1.94287 -5.04699,19.20183 -14.63334,37.65228 -29.49612,51.05713 0.51562,0.78375 1.03125,1.5675 1.5625,2.375 0.36867,0.56074 0.73734,1.12148 1.11719,1.69922 0.90542,1.32062 1.85088,2.61442 2.82812,3.88281 14.10262,18.72697 20.69668,42.25735 24.49221,65.04297 0.1802,0.98259 0.3604,1.96518 0.5461,2.97754 1.6427,9.84019 1.727,19.51926 1.6597,29.47363 -0.018,2.80804 -0.02,5.61574 -0.02,8.42383 -0,1.81771 -0.011,3.63542 -0.018,5.45312 -10e-4,0.82317 -0,1.64634 -0,2.49445 -0.041,5.0642 -0.4208,9.97159 -1.1139,14.99045 -0.087,3.7545 1.7995,5.91256 4.0118,8.81198 14.0988,19.85027 16.3351,45.01212 12.6797,68.54687 -3.797,19.58301 -10.8639,37.41316 -23.74252,52.82813 -0.64066,0.83918 -1.28133,1.67836 -1.94141,2.54297 -7.90363,9.43337 -19.35918,16.76248 -31.05859,20.45703 -0.99,0 -1.98,0 -3,0 -0.20625,0.78375 -0.4125,1.5675 -0.625,2.375 -3.55724,9.37818 -9.51333,16.44758 -16.375,23.625 -0.55301,0.62777 -1.10602,1.25555 -1.67578,1.90234 -17.92547,19.61571 -50.78645,27.61263 -76.32422,29.09766 -19.97077,0.80184 -40.38885,1.3351 -60,-3 -0.17306,0.55687 -0.34611,1.11375 -0.52441,1.6875 -1.25034,3.90091 -2.56649,7.67629 -4.33497,11.375 -0.31066,0.65227 -0.62132,1.30453 -0.9414,1.97656 -0.63581,1.31348 -1.28443,2.62084 -1.94531,3.92188 -4.41013,9.41572 -0.453,18.62466 2.30859,28.10156 0.32936,1.15178 0.65871,2.30355 0.99805,3.49023 0.80672,2.81768 1.61999,5.63328 2.43945,8.44727 1.02517,0.19046 1.02517,0.19046 2.07104,0.38477 0.89824,0.17209 1.79647,0.34418 2.72193,0.52148 1.33454,0.25233 1.33454,0.25233 2.69604,0.50977 4.62844,1.07644 7.41983,2.8316 9.94849,6.89257 3.03882,5.81002 4.77208,10.78805 4.49219,17.39453 -0.23829,13.699 2.40448,21.4817 10.61133,32.29981 2.3283,3.187 4.28416,6.55552 6.20898,9.99707 0.54443,0.96909 0.54443,0.96909 1.09985,1.95776 4.47905,8.19278 7.99517,16.91708 11.09156,25.71802 1.00379,2.4599 1.00379,2.4599 2.99218,4.7187 3.86425,4.8723 5.8053,10.8609 8.06641,16.6055 0.34676,0.8495 0.69352,1.699 1.05078,2.5742 2.71454,7.5776 4.10148,17.9723 1.07984,25.6287 -3.07917,5.9848 -7.27806,10.5667 -12.06812,15.2346 -0.74274,0.7336 -1.48548,1.4671 -2.25073,2.2229 -18.03711,17.4559 -18.03711,17.4559 -27.68677,18.7146 -3.99505,-0.4794 -6.00328,-1.8776 -9.125,-4.375 -1.02737,-1.3124 -2.03316,-2.6424 -3,-4 -0.62648,0.4937 -1.25297,0.9874 -1.89844,1.4961 -0.81726,0.6407 -1.63453,1.2813 -2.47656,1.9414 -0.81211,0.6381 -1.62422,1.2762 -2.46094,1.9336 -2.16406,1.6289 -2.16406,1.6289 -4.16406,2.6289 -0.35585,2.3863 -0.35585,2.3863 -0.4375,5.1875 -0.57259,7.5019 -2.85624,11.8505 -8.5625,16.8125 -10.673,7.6209 -10.673,7.6209 -18,7 -3.44497,-2.2432 -6.1028,-5.1028 -9,-8 -0.33,0 -0.66,0 -1,0 -0.0748,0.7129 -0.14953,1.4257 -0.22656,2.1602 -0.76782,5.593 -1.57909,10.2409 -5.63672,14.3476 -4.82895,3.3723 -10.47966,5.0443 -16.13672,6.4922 -0.95286,0.2604 -1.90572,0.5208 -2.88745,0.7891 -12.70685,3.0364 -25.55093,2.7607 -38.55005,2.7109 -1.83273,0 -1.83273,0 -3.70248,-0.01 -19.42952,-0.058 -37.8869,-1.0876 -56.86002,-5.49 -1.75812,-0.4015 -1.75812,-0.4015 -3.55176,-0.811 -10.95008,-2.5711 -21.72841,-5.6174 -32.19824,-9.7515 -0.66121,-0.2564 -1.32242,-0.5127 -2.00366,-0.7769 -5.7724,-2.4559 -10.10619,-6.0175 -12.62134,-11.8481 -2.01642,-12.3001 -0.20805,-25.6188 5.375,-36.8125 0.99,-0.66 1.98,-1.32 3,-2 0.99972,-3.0899 0.99972,-3.0899 1.75,-6.75 4.43052,-18.222 15.16194,-33.5939 31.21582,-43.4507 7.06543,-4.1553 14.06368,-6.7868 22.03418,-8.7993 0.0875,-3.8749 0.14056,-7.7495 0.1875,-11.62498 0.0251,-1.09441 0.0503,-2.18883 0.0762,-3.31641 0.0528,-5.80643 0.0436,-10.0668 -3.26367,-15.05859 -0.7251,-1.19883 -0.7251,-1.19883 -1.46484,-2.42188 -0.48598,-0.76828 -0.97196,-1.53656 -1.47266,-2.32812 -5.72129,-9.45504 -10.66419,-20.96189 -9.0625,-32.25 1.38094,-4.16889 2.87343,-7.87343 6,-11 0.0225,-2.44963 0.0225,-2.44963 -0.375,-5.125 -0.16629,-1.36512 -0.16629,-1.36512 -0.33594,-2.75781 -0.0954,-0.69867 -0.19078,-1.39735 -0.28906,-2.11719 -0.71543,0.14623 -1.43086,0.29246 -2.16797,0.44312 -3.27672,0.6679 -6.55436,1.33117 -9.83203,1.99438 -1.68803,0.34515 -1.68803,0.34515 -3.41016,0.69727 -1.10214,0.22236 -2.20429,0.44472 -3.33984,0.67382 -1.00547,0.20424 -2.01094,0.40848 -3.04688,0.6189 -7.25698,1.29708 -14.2396,1.74191 -21.59765,1.77563 -0.98683,0.006 -1.97367,0.0114 -2.9904,0.0173 -2.08514,0.009 -4.17029,0.016 -6.25545,0.0198 -3.12471,0.01 -6.24874,0.0407 -9.37329,0.0723 -11.94007,0.0621 -23.28512,-0.71491 -35.01718,-2.95276 -2.9784,-0.54414 -5.9692,-0.95284 -8.96915,-1.35976 -1.57824,2.83536 -3.10539,5.69535 -4.625,8.5625 -0.44602,0.79986 -0.89203,1.59973 -1.35156,2.42383 -2.67836,5.11688 -2.67836,5.11688 -2.32032,10.81054 0.64196,1.58555 0.64196,1.58555 1.29688,3.20313 1.31731,9.60411 -1.9624,18.03539 -6.23438,26.49609 -0.40162,0.80446 -0.80324,1.60891 -1.21704,2.43775 -0.7975,1.575 -1.6169,3.13919 -2.4624,4.68896 -5.84511,11.46271 -4.24904,25.44768 -4.21655,38.02168 0.005,2.5118 -2e-5,5.0234 -0.006,7.5352 6.6e-4,1.6094 0.002,3.2187 0.004,4.8281 -0.003,1.1172 -0.003,1.1172 -0.006,2.2569 0.0155,3.4125 0.19319,6.4571 1.13895,9.7353 0.43391,9.9295 0.11342,19.8516 -0.75,29.75 -0.0924,1.2307 -0.0924,1.2307 -0.18677,2.4863 -0.63034,6.3623 -2.20236,11.2611 -7.18433,15.6192 -19.69101,11.3231 -45.22936,13.2748 -67.5664,13.457 -1.79534,0.043 -1.79534,0.043 -3.62695,0.088 -8.01463,0.058 -11.72732,-0.5787 -17.49805,-6.1504 -1.18758,-2.2501 -1.18758,-2.2501 -2.18758,-10.2501 -6.27,0 -12.54,0 -19,0 -0.33,2.97 -0.66,5.94 -1,9 -2.05045,3.7592 -3.43897,5.626 -7,8 -12.92446,1.2993 -25.72988,-0.4096 -38.5,-2.3125 -0.72076,-0.1066 -1.44151,-0.2132 -2.18411,-0.323 -28.01107,-4.1993 -28.01107,-4.1993 -33.31589,-9.3645 -2.80515,-5.018 -3.4955,-10.3496 -4,-16 -1.2516,1.0815 -2.5012,2.1653 -3.75,3.25 -0.73992,0.6355 -1.47984,1.271 -2.24219,1.9258 -2.11149,1.8105 -2.11149,1.8105 -3.88281,4.2617 -3.01116,2.2141 -5.22491,2.234 -8.91797,2.0664 -18.43216,-2.8962 -36.21887,-12.564 -51.58203,-22.6914 -0.88599,-0.582 -1.77198,-1.164 -2.68481,-1.7637 -5.59392,-3.8017 -10.72308,-7.3975 -12.94019,-14.0488 -1.88468,-11.7136 4.17784,-24.1917 10.70313,-33.5938 0.42796,-0.464 0.85593,-0.9281 1.29687,-1.4062 0.66,0 1.32,0 2,0 0.12375,-0.5595 0.2475,-1.1189 0.375,-1.6953 3.26296,-12.6848 10.39108,-23.18557 19.625,-32.30468 0.6123,-0.63422 1.22461,-1.26844 1.85547,-1.92188 12.4608,-12.00913 29.07146,-15.62615 45.83203,-15.39062 1.15822,-0.003 2.31645,-0.006 3.50977,-0.01 6.57454,0.0411 12.44874,0.62381 18.80273,2.32227 0.11086,-0.72316 0.22172,-1.44633 0.33594,-2.19141 1.80017,-7.61366 7.04146,-14.66562 13.66406,-18.80859 2.9375,-0.875 2.9375,-0.875 5,-1 -0.15936,-0.57041 -0.31872,-1.14082 -0.48291,-1.72852 -2.30808,-10.13896 -1.6953,-22.6189 2.9165,-31.9082 3.02346,-4.56157 6.36422,-7.62922 11.56641,-9.36328 2.333,-0.0395 4.66708,-0.044 7,0 0.14695,-1.63582 0.14695,-1.63582 0.29688,-3.30469 0.14902,-1.52363 0.30023,-3.04706 0.45312,-4.57031 0.11674,-1.20946 0.11674,-1.20946 0.23584,-2.44336 0.55605,-5.1472 1.56191,-9.90878 2.99512,-14.87793 2.05536,-6.80243 2.05536,-6.80243 0.84717,-13.59277 -1.93912,-2.39621 -1.93912,-2.39621 -4.27344,-4.61719 -3.0872,-3.13441 -5.26414,-6.48226 -7.55469,-10.21875 -0.42136,-0.68264 -0.84272,-1.36528 -1.27686,-2.0686 -7.70801,-12.69384 -14.02468,-26.21078 -18.72314,-40.30617 -0.006,1.19524 -0.0117,2.39048 -0.0178,3.62193 -0.0573,11.28461 -0.13011,22.56903 -0.21793,33.85345 -0.0447,5.80092 -0.0839,11.60176 -0.11073,17.40279 -0.0261,5.60224 -0.0665,11.20421 -0.11675,16.80628 -0.0166,2.13329 -0.0282,4.26663 -0.0344,6.39997 -0.01,2.9968 -0.0378,5.99292 -0.07,8.98955 0.001,0.87467 0.003,1.74933 0.004,2.6505 -0.11336,7.49119 -1.47667,15.31028 -6.8482,20.93913 -9.24837,7.78052 -19.44892,7.04414 -30.8644,6.9675 -1.94907,0.005 -3.89813,0.0124 -5.84718,0.0217 -5.27062,0.0185 -10.54072,0.006 -15.81132,-0.0141 -5.52557,-0.0164 -11.05111,-0.008 -16.5767,-0.002 -9.27536,0.005 -18.55052,-0.0113 -27.82583,-0.0393 -10.71448,-0.0321 -21.4286,-0.032 -32.14311,-0.0148 -10.32209,0.0159 -20.64404,0.009 -30.96613,-0.008 -4.38659,-0.007 -8.77308,-0.006 -13.15967,0.002 -5.16629,0.008 -10.33215,-0.005 -15.49837,-0.0318 -1.893,-0.007 -3.78604,-0.007 -5.67904,2.1e-4 -2.58953,0.009 -5.17779,-0.007 -7.76722,-0.0294 -0.74417,0.008 -1.48835,0.0165 -2.25507,0.025 -6.29655,-0.099 -11.43476,-2.15818 -16.21792,-6.28573 -0.44601,-0.55817 -0.89203,-1.11633 -1.35156,-1.69141 -0.46148,-0.55559 -0.92297,-1.11117 -1.39844,-1.68359 -2.66825,-4.08736 -3.4765,-7.67813 -3.4738,-12.52304 -0.004,-1.12747 -0.008,-2.25494 -0.0127,-3.41657 0.006,-1.22955 0.0112,-2.45911 0.017,-3.72592 -0.002,-1.30405 -0.004,-2.6081 -0.006,-3.95166 -0.005,-3.59064 0.003,-7.18116 0.0129,-10.77179 0.009,-3.8249 0.007,-7.64979 0.007,-11.4747 9.4e-4,-6.48508 0.01,-12.97011 0.0233,-19.45517 0.0137,-6.51954 0.021,-13.03904 0.0205,-19.5586 -0.001,-22.00088 0.0489,-44.00097 0.1853,-66.00146 0.007,-1.15609 0.007,-1.15609 0.0143,-2.33554 0.0606,-9.74433 0.14376,-19.48811 0.26201,-29.23192 0.033,-2.74477 0.0597,-5.48948 0.0805,-8.23437 0.0318,-3.76512 0.0822,-7.52953 0.13805,-11.29436 0.006,-1.09645 0.0116,-2.19289 0.0176,-3.32256 0.16812,-8.93291 1.66242,-15.31052 8.11255,-21.89375 3.33578,-3.50353 6.50347,-7.01497 9.5,-10.8125 4.7103,-5.84582 9.84497,-11.25857 15.02783,-16.68604 3.80283,-3.98663 7.49588,-8.03774 11.10547,-12.19995 2.97101,-3.39288 6.03933,-6.69275 9.1167,-9.98901 0.60844,-0.66 1.21688,-1.32 1.84375,-2 4.65816,-4.98949 9.61658,-9.53967 14.78125,-14 -0.2214,-0.61706 -0.44279,-1.23412 -0.6709,-1.86987 -12.84411,-36.15834 -12.84411,-36.15834 -11.32884,-54.1311 -0.75281,-0.27715 -1.50562,-0.5543 -2.28125,-0.83984 -7.44545,-3.17716 -11.48854,-8.95432 -14.71875,-16.16016 -0.32098,-0.69223 -0.64195,-1.38445 -0.97266,-2.09766 -5.09349,-13.43259 -3.03697,-30.98986 2.67188,-43.79687 10.80507,-23.1584 27.91539,-39.09456 51.30078,-49.10547 10.71749,-3.8932 20.15037,-5.22365 31.5,-5.3125 1.20398,-0.029 2.40797,-0.058 3.64844,-0.0879 19.31954,-0.13503 35.8213,8.61878 49.85156,21.40039 0.69352,0.6123 1.38703,1.22461 2.10156,1.85547 15.02869,14.04074 23.48148,32.72089 28.73047,52.23828 4.01664,9.99458 17.88819,17.19702 27.30078,21.25781 2.60733,0.96645 5.20099,1.8606 7.86719,2.64844 0.91846,0.29391 0.91846,0.29391 1.85547,0.59375 3.14196,0.5952 6.20135,0.49832 9.39453,0.46875 1.26328,-0.009 2.52656,-0.0181 3.82813,-0.0273 1.44632,-0.0174 1.44632,-0.0174 2.92187,-0.0352 0.17016,-0.69658 0.34031,-1.39315 0.51563,-2.11084 1.40313,-5.68437 2.86739,-11.34575 4.42187,-16.99072 5.5291,-20.10208 9.3914,-39.02502 10.0625,-59.89844 -0.63422,-0.0748 -1.26844,-0.14953 -1.92187,-0.22656 -25.60004,-3.60663 -52.61017,-14.55305 -72.07813,-31.77343 -0.85207,-0.74379 -1.70414,-1.48758 -2.58203,-2.25391 -7.77285,-6.88718 -14.79344,-13.8783 -21.04297,-22.18359 -0.54656,-0.71221 -1.09312,-1.42441 -1.65625,-2.1582 -2.66319,-3.50738 -5.09824,-6.99749 -7.30469,-10.81055 -2.04785,-3.34061 -3.50868,-4.66205 -7.41406,-5.65625 -18.18714,-5.66365 -34.21482,-19.4113 -43.61328,-36.01953 -6.28592,-13.22699 -8.92969,-26.90488 -4.42578,-41.19531 7.40537,-19.4043 20.65433,-29.57212 39.16015,-37.92871 9.60296,-4.0578 19.57064,-4.97257 29.87891,-4.85645 0.77473,0.005 1.54945,0.009 2.34766,0.0137 1.88415,0.0116 3.76825,0.0296 5.65234,0.0488 -0.0236,-0.88184 -0.0236,-0.88184 -0.0476,-1.78149 -0.6274,-27.14776 4.49174,-49.4451 23.57105,-69.8357 7.54431,-7.25872 15.70332,-12.66314 25.47656,-16.38281 0.73992,-0.3184 1.47984,-0.6368 2.24219,-0.96484 10.30775,-3.86987 24.58676,-3.81281 34.75,0.40625 2.75497,0.76646 4.31836,0.52458 7.00781,-0.44141 1.96069,-2.06185 1.96069,-2.06185 3.625,-4.75 7.20033,-10.45472 15.74039,-19.96078 24.375,-29.25 0.69352,-0.74766 1.38703,-1.49531 2.10156,-2.26563 6.08411,-6.32747 12.8189,-11.59342 19.89844,-16.73437 0.54302,-0.40332 1.08604,-0.80663 1.64551,-1.22217 29.76125,-21.93632 69.65021,-35.089007 106.63965,-34.875486 0.94169,0.0014 1.88339,0.0028 2.85362,0.0043 2.97461,0.0055 5.94914,0.01809 8.92372,0.03087 2.0306,0.005 4.0612,0.0096 6.0918,0.01367 4.94858,0.01095 9.89712,0.02817 14.84569,0.04882 -15.16399,-36.683854 -15.16399,-36.683854 -31.37354,-72.909668 -0.45423,-0.968247 -0.90846,-1.936494 -1.37646,-2.934082 -0.41508,-0.870762 -0.83016,-1.741523 -1.25781,-2.638672 -1.53201,-3.887329 -1.98839,-7.4429534 -0.99219,-11.517578 3.38291,-5.18007804 7.11943,-6.0348843 13,-5 z"
       fill="#4e350a"
       id="path4"
       style="fill:#543f21;fill-opacity:1" />
    <path
       d="m 437.43818,261.38492 c 9.07224,-0.4613 9.07224,-0.4613 13,3 0.47482,2.89517 0.64558,5.29091 0.625,8.1875 0.63802,25.16631 9.15124,49.93569 27.375,67.8125 16.48309,14.69337 34.92056,19.27298 56.47559,18.20703 17.5834,-1.44204 33.56803,-13.07218 44.77441,-26.01953 10.72411,-13.42639 16.30581,-27.89476 19.94308,-44.50302 0.26629,-1.21588 0.53257,-2.43176 0.80692,-3.68448 22.69592,-0.19811 45.31663,0.7626 67.98366,1.82879 6.63762,0.31208 13.27495,0.6062 19.91527,0.85334 6.4857,0.24309 12.96775,0.53291 19.44995,0.85601 2.45441,0.11444 4.90964,0.21247 7.36538,0.29338 19.0852,0.6467 19.0852,0.6467 24.49845,4.39022 2.06511,2.53204 3.43032,4.82049 4.78729,7.77826 4.55365,6.95117 9.41621,11.7356 17.77734,13.62891 0.73348,0.12246 1.46696,0.24492 2.22266,0.37109 0.74087,5.32825 1.16848,10.54251 1.20312,15.92578 0.007,0.7367 0.0139,1.4734 0.0211,2.23242 0.0174,2.38483 0.0237,4.76942 0.0258,7.1543 10e-4,0.82052 0.002,1.64104 0.003,2.48642 -0.0123,14.90264 -1.07367,29.44822 -3.25302,44.20108 -0.13922,0.99677 -0.27844,1.99354 -0.42188,3.02051 -0.99355,7.03539 -2.20462,14.00868 -3.57812,20.97949 -0.23703,1.22155 -0.47405,2.4431 -0.71826,3.70166 -0.7741,3.86174 -1.61136,7.70442 -2.46924,11.54834 -0.24267,1.20906 -0.48533,2.41812 -0.73535,3.66382 -1.93338,8.1736 -1.93338,8.1736 -5.02295,10.63867 -2.32543,1.05074 -4.59621,1.76912 -7.0542,2.44751 -1.41481,0.5636 -2.82154,1.14799 -4.21875,1.75391 -1.04426,0.43711 -1.04426,0.43711 -2.10962,0.88305 -13.68071,5.83064 -26.3276,13.72061 -37.67163,23.36304 -0.79406,0.67289 -1.58813,1.34578 -2.40625,2.03906 -24.06692,21.02142 -41.46498,49.19342 -52.59375,78.96094 -0.27393,0.71897 -0.54785,1.43795 -0.83008,2.17871 -3.46677,9.22663 -5.93811,18.5569 -7.98242,28.19629 -0.20714,0.97413 -0.41427,1.94826 -0.62769,2.9519 -6.03754,30.05544 -2.77467,61.25203 5.1355,90.58326 0.43951,1.69542 0.87487,3.39193 1.30469,5.08984 0.18321,0.6886 0.36642,1.3772 0.55518,2.08667 0.39794,1.8352 0.39794,1.8352 0.44482,4.91333 -1.77344,2.23047 -1.77344,2.23047 -4.375,4.1875 -11.13463,9.2503 -19.64493,22.45733 -22.625,36.8125 -1.18094,14.54205 -1.14746,27.63425 8.3125,39.4375 4.56471,4.78349 10.30465,8.69435 16.6875,10.5625 0.69094,-0.0168 1.38187,-0.0335 2.09375,-0.0508 2.62078,-0.0131 4.45512,0.0877 6.90625,1.05078 1.9486,2.6536 3.27519,5.36548 4.6875,8.33594 2.75668,5.5954 7.74975,7.76704 13.35547,9.91015 6.52675,1.66402 13.62058,1.43408 20.19531,0.0937 2.76172,-0.33977 2.76172,-0.33977 5.69922,1.91023 0.50016,0.46277 1.00031,0.92555 1.51562,1.40234 4.91093,4.27846 10.45664,4.88345 16.69922,4.70313 7.64584,-0.95442 14.56901,-4.25513 19.42578,-10.3291 2.37721,-3.2213 4.68162,-6.49129 6.98633,-9.76465 4.03385,-5.62511 8.39125,-10.52092 13.43555,-15.26172 3.15627,1.49407 5.00608,2.86653 7.25,5.5625 0.60844,0.71414 1.21688,1.42828 1.84375,2.16406 1.25198,1.49314 2.50204,2.98788 3.75,4.48438 8.82503,10.30792 19.90975,18.29139 31.15625,25.78906 -0.54486,7.76422 -3.00946,14.79434 -5.5,22.125 -0.33015,0.98429 -0.33015,0.98429 -0.66696,1.98846 -3.86245,11.5033 -8.21832,22.75563 -13.05203,33.88898 -4.85525,12.41813 -0.51081,24.90071 3.28149,36.93506 0.73253,2.3449 1.45935,4.69097 2.17076,7.04237 0.43908,1.44975 0.89018,2.89592 1.35538,4.3375 1.29523,4.25731 1.61986,7.38017 0.41136,11.68263 -6.61006,7.70453 -19.30277,14.79545 -29.375,15.9375 -1.79438,0.0309 -1.79438,0.0309 -3.625,0.0625 -0.22688,-0.7425 -0.45375,-1.485 -0.6875,-2.25 -2.37006,-4.96585 -6.29516,-6.97454 -11.3125,-8.75 -3.73922,-0.7299 -7.52618,-1.08851 -11.3125,-1.5 -1.14251,-0.12673 -2.28502,-0.25346 -3.46216,-0.38403 -17.35025,-1.79165 -34.80455,-2.38557 -52.22534,-3.11597 -0.48079,-1.26312 -0.95976,-2.52693 -1.43799,-3.79102 -0.26692,-0.7037 -0.53385,-1.40741 -0.80887,-2.13244 -1.02266,-2.81965 -1.82044,-5.68884 -2.62814,-8.57654 -1.46551,-4.89071 -3.21735,-8.8558 -6.17188,-13.01172 -0.95312,-1.48828 -0.95312,-1.48828 -0.95312,-3.48828 -1.03254,0.31453 -2.06508,0.62906 -3.12891,0.95312 -8.88045,2.62621 -17.74222,4.72296 -26.87109,6.29688 -1.41261,0.24412 -1.41261,0.24412 -2.85376,0.49316 -12.29684,2.04099 -24.32852,2.49814 -36.77124,2.50684 -1.30007,0.001 -1.30007,0.001 -2.6264,0.002 -27.07611,-0.0334 -56.52836,-2.61657 -80.97907,-15.42001 -2.58711,-1.21642 -4.95739,-0.95981 -7.76953,-0.83199 0.26886,6.04947 0.83021,10.3217 5,15 4.97521,3.96822 10.18822,7.39999 16,10 -0.38865,0.76957 -0.38865,0.76957 -0.78516,1.55469 -1.57842,3.17714 -3.12802,6.36694 -4.65234,9.57031 -0.31783,0.66218 -0.63567,1.32435 -0.96313,2.00659 -1.80966,3.86244 -3.10856,7.49742 -4.03687,11.68091 -0.64453,2.35937 -0.64453,2.35937 -1.5625,4.1875 -3.12697,1.34783 -4.74893,1.77464 -8,2 -1.30582,0.16887 -2.61164,0.33773 -3.95703,0.51172 -15.22432,1.68517 -39.96841,4.30575 -53.04297,-5.51172 -1.1875,-2.01563 -1.1875,-2.01563 -2,-4.25 -5.50508,-13.25932 -15.95387,-18.19229 -28.77173,-23.51611 -4.3946,-1.78325 -8.80327,-3.52752 -13.22827,-5.23389 0.14203,-2.37528 0.28852,-4.75015 0.4375,-7.125 0.0393,-0.66516 0.0786,-1.33031 0.11914,-2.01563 0.25551,-4.00956 0.71118,-7.90931 1.44336,-11.85937 4.3616,1.34908 8.29737,3.08125 12.375,5.125 5.34434,2.48673 8.7902,3.79628 14.625,2.875 3.40242,-1.36489 3.40242,-1.36489 6,-3 0.37721,-2.31538 0.37721,-2.31538 0,-5 -1.90029,-2.32563 -1.90029,-2.32563 -4.5,-4.375 -0.83531,-0.70898 -1.67062,-1.41797 -2.53125,-2.14844 -1.46953,-1.2259 -1.46953,-1.2259 -2.96875,-2.47656 -36.52036,-31.21661 -57.19573,-71.16985 -63,-119 -0.0862,-0.68628 -0.17239,-1.37257 -0.2612,-2.07965 -0.61229,-5.11904 -0.91014,-10.15748 -0.94193,-15.31098 -0.0107,-1.16042 -0.0107,-1.16042 -0.0215,-2.34429 -0.40181,-56.86655 10.77274,-112.8704 31.55693,-165.81196 12.75963,-32.56126 21.04109,-65.45223 22.66773,-100.45312 0.95701,-0.0219 0.95701,-0.0219 1.93335,-0.0442 26.66102,-0.67747 51.61357,-4.4977 75.06665,-17.9558 0.91604,-0.524 0.91604,-0.524 1.85059,-1.05859 9.06691,-5.28621 16.73942,-11.53142 24.14941,-18.94141 0.87527,-0.87527 1.75055,-1.75055 2.65234,-2.65234 6.51567,-6.83694 11.48566,-14.30305 16.34766,-22.34766 2.54171,1.19042 4.25118,2.22474 6.375,4.125 2.51052,2.0716 2.51052,2.0716 5.625,2.4375 4.13608,-0.77551 5.55,-2.17573 8,-5.5625 1.22545,-6.37232 -1.5499,-10.86116 -5,-16 -5.19934,-7.18215 -14.16619,-13.2703 -23,-15 -5.97387,-0.58856 -11.11733,-0.87642 -16.625,1.6875 -3.1673,3.08395 -5.0602,5.46867 -5.8125,9.875 0.60125,3.34985 1.71469,4.43122 4.4375,6.4375 3.14482,0.80316 3.14482,0.80316 6,1 -12.53495,23.26653 -35.16909,38.37735 -60,46 -0.66145,0.21028 -1.3229,0.42056 -2.0044,0.63721 -22.04782,6.69545 -50.00655,5.65506 -71.9956,-0.63721 -1.23847,-0.35409 -1.23847,-0.35409 -2.50195,-0.71533 -17.70494,-5.26868 -34.28025,-13.42568 -48.49805,-25.28467 -0.79535,-0.64453 -1.5907,-1.28906 -2.41016,-1.95313 -6.94688,-5.86255 -13.62807,-12.79309 -17.58984,-21.04687 1.84852,-0.63615 1.84852,-0.63615 3.73437,-1.28516 20.37134,-7.15398 37.0075,-16.86512 47.51563,-36.46484 5.53799,-11.7275 8.15608,-25.74994 4.91797,-38.53516 -0.94878,-2.64023 -1.9983,-5.16632 -3.16797,-7.71484 -0.67306,-1.66409 -1.34152,-3.33008 -2,-5 0.58048,0.0686 1.16096,0.13712 1.75903,0.20776 16.08511,1.76929 32.92242,2.67952 48.24097,-3.20776 0.92684,-0.35062 1.85367,-0.70125 2.80859,-1.0625 9.4792,-4.15526 16.27225,-11.26564 20.19532,-20.80859 1.88803,-5.93067 2.97775,-11.99404 3.99609,-18.12891 z"
       fill="#faeabc"
       id="path6"
       style="fill:#f7ecca;fill-opacity:1" />
    <path
       d="m 199.25068,635.00992 c 1.04285,0.02 2.0857,0.04 3.16016,0.0606 3.34413,0.074 6.68475,0.18911 10.02734,0.31445 1.14517,0.0396 2.29034,0.0793 3.47021,0.12012 6.84592,0.24238 13.68828,0.53524 20.52979,0.87988 -0.95468,6.44166 -2.14933,12.62375 -6,18 -3.06884,1.17727 -5.72169,1.43081 -8.99219,1.67187 -5.28886,0.57697 -9.03138,3.11918 -12.53515,7.03516 -6.42712,8.55086 -6.78273,17.93526 -5.47266,28.29297 2.608,8.84036 7.82627,15.56873 15.89062,20.05078 7.8159,3.58512 15.48831,4.01876 23.60938,1.38672 9.1102,-3.64156 14.33762,-9.21821 18.43359,-18.11328 2.77753,-8.65816 1.89865,-17.19987 -1.93359,-25.32422 -1.22604,-3.67813 -0.6836,-4.2662 0.98437,-7.64063 0.66129,-1.35931 0.66129,-1.35931 1.33594,-2.74609 0.4718,-0.94488 0.9436,-1.88976 1.42969,-2.86328 0.91264,-1.8588 1.82412,-3.71816 2.73437,-5.57813 0.43377,-0.88236 0.86754,-1.76472 1.31446,-2.67382 1.50409,-3.12802 2.87269,-6.292 4.20117,-9.49805 2,0 2,0 4.28906,2.16797 0.89461,0.93457 1.78922,1.86914 2.71094,2.83203 0.87398,0.86238 1.74797,1.72477 2.64844,2.61328 4.76016,4.71243 9.39074,9.46118 13.74218,14.55859 2.14452,2.436 4.45195,4.68299 6.76734,6.95508 1.77313,1.80298 3.4316,3.65943 5.08032,5.57617 3.71862,4.27686 7.56351,8.42199 11.44922,12.54688 0.65033,0.69352 1.30066,1.38703 1.9707,2.10156 3.54666,3.83862 3.54666,3.83862 7.41881,7.33275 2.61387,3.14766 2.4186,5.10088 2.41074,9.16258 0.004,0.68871 0.008,1.37741 0.0125,2.08699 0.009,2.30874 -0.0107,4.61634 -0.0303,6.92501 5.1e-4,1.65632 0.003,3.31265 0.007,4.96898 0.005,4.50799 -0.014,9.01557 -0.0381,13.52349 -0.0214,4.74388 -0.0207,9.48776 -0.0227,14.23168 -0.006,7.99485 -0.0277,15.98955 -0.0591,23.98434 -0.0399,10.16892 -0.0576,20.33774 -0.0673,30.50673 -0.008,8.82202 -0.0256,17.64403 -0.045,26.46603 -0.004,1.87201 -0.008,3.74402 -0.0112,5.61604 -0.0221,11.84692 -0.0733,23.69288 -0.20742,35.53912 -0.0171,1.53771 -0.0331,3.07542 -0.048,4.61315 -0.0424,4.33725 -0.10494,8.67317 -0.20224,13.00954 -0.0391,1.91114 -0.06,3.82262 -0.0803,5.73404 -0.0311,1.1297 -0.0621,2.25941 -0.0942,3.42334 -0.0291,1.46591 -0.0291,1.46591 -0.0589,2.96143 -0.69163,3.27009 -1.99472,4.4676 -4.54212,6.5632 -2.99052,1.49526 -6.0572,1.15164 -9.33734,1.1539 -0.76518,0.004 -1.53037,0.009 -2.31874,0.0133 -2.57786,0.0134 -5.15568,0.0196 -7.73357,0.0257 -1.84275,0.008 -3.68551,0.0162 -5.52826,0.0248 -6.06381,0.0262 -12.12762,0.0415 -18.19146,0.0558 -2.08566,0.005 -4.17131,0.0107 -6.25697,0.0161 -8.6745,0.0216 -17.349,0.0404 -26.02352,0.0516 -12.44075,0.0163 -24.88119,0.0494 -37.32182,0.1064 -8.74231,0.0387 -17.48454,0.0582 -26.22693,0.0635 -5.22391,0.004 -10.44749,0.0157 -15.67131,0.0481 -4.915,0.03 -9.82947,0.0364 -14.74455,0.0246 -1.80356,-2.2e-4 -3.60716,0.008 -5.41064,0.0257 -2.46385,0.0226 -4.92575,0.0144 -7.38961,-10e-4 -0.71266,0.0139 -1.42532,0.0278 -2.15957,0.0421 -3.70674,-0.0589 -6.20784,-0.66799 -9.13052,-2.86868 -2.75396,-2.99775 -3.3027,-3.92611 -3.28345,-7.89162 -0.01,-1.00928 -0.0194,-2.01855 -0.0294,-3.05841 0.02,-1.0987 0.04,-2.19741 0.0606,-3.32941 -0.002,-1.16883 -0.005,-2.33767 -0.007,-3.54192 -6.6e-4,-3.21823 0.0255,-6.43492 0.0633,-9.65288 0.0337,-3.42013 0.0329,-6.84026 0.0362,-10.26053 0.0119,-6.58111 0.0557,-13.16161 0.11198,-19.74247 0.0448,-5.27941 0.0789,-10.55877 0.105,-15.8383 0.004,-0.74526 0.007,-1.49052 0.0112,-2.25837 0.007,-1.50461 0.0148,-3.00922 0.0221,-4.51383 0.0478,-9.68171 0.10322,-19.36332 0.18109,-29.04483 0.12219,-15.25199 0.18915,-30.50074 0.1135,-45.75329 -0.0192,-4.84378 -0.014,-9.68756 -0.004,-14.53137 0.006,-3.53256 -0.001,-7.06376 -0.0442,-10.59609 -0.0378,-3.76917 -0.0212,-7.53411 0.0105,-11.30323 -0.0245,-1.04176 -0.0491,-2.08353 -0.0744,-3.15687 0.14852,-7.407 2.68627,-10.96252 7.90007,-16.13291 0.74975,-0.71777 1.4995,-1.43554 2.27196,-2.17506 1.18152,-1.32019 2.35137,-2.6511 3.5,-4 3.3574,-3.85249 6.77111,-7.65217 10.19531,-11.44531 1.47734,-1.63759 2.95158,-3.27797 4.42188,-4.92188 5.00339,-5.58987 10.09154,-11.09478 15.20801,-16.58081 3.44759,-3.70499 6.83429,-7.4489 10.1123,-11.30591 0.51563,-0.57621 1.03125,-1.15242 1.5625,-1.74609 0.66387,-0.88816 1.32774,-1.77633 2.01172,-2.69141 4.45381,-3.44157 8.33164,-2.89042 13.80045,-2.68412 z"
       fill="#f2c56f"
       id="path8"
       style="fill:#f2b246;fill-opacity:1" />
    <path
       d="m 787.43818,503.38492 c 1.99367,2.11423 3.66896,4.1126 5.375,6.4375 0.48259,0.63817 0.96519,1.27633 1.4624,1.93384 1.40264,1.86556 2.78497,3.74459 4.1626,5.62866 0.9668,1.29938 0.9668,1.29938 1.95312,2.625 19.06696,26.37299 34.84995,59.7294 35.32032,92.75391 0.0126,0.80078 0.0251,1.60156 0.0381,2.4266 0.42538,33.59064 0.42538,33.59064 -5.31154,49.19449 -0.25701,0.71543 -0.51401,1.43086 -0.77881,2.16797 -11.34658,30.59189 -35.38695,50.99846 -64.22119,64.83203 -2.29337,1.02011 -4.59772,2.01114 -6.90576,2.99756 -17.48937,7.47879 -28.05008,17.05823 -36.20362,34.1626 -5.63693,11.71299 -5.63693,11.71299 -9.89062,13.83984 -3.24099,0.28183 -5.30054,0.39645 -8.16406,-1.22656 -1.83594,-1.77344 -1.83594,-1.77344 -2.36719,-3.875 0.15378,-12.41749 3.88587,-24.43535 7.69922,-36.16407 0.78122,-2.5674 1.35527,-5.09534 1.83203,-7.73437 -5.39638,0.42325 -8.04325,1.33499 -12,5 -1.62109,2.12907 -3.0814,4.18441 -4.5,6.4375 -0.38873,0.61327 -0.77747,1.22654 -1.17798,1.8584 -5.11059,8.31604 -8.46634,17.08437 -9.76733,26.77832 -0.55469,1.92578 -0.55469,1.92578 -3.55469,3.92578 -4.33699,0.3115 -7.93755,-0.16123 -11.375,-2.875 -4.37079,-8.40536 -6.42576,-17.9304 -3.74609,-27.14844 2.67431,-7.29036 6.12315,-14.13822 9.76562,-20.98047 1.63026,-3.05541 1.63026,-3.05541 1.35547,-6.99609 -7.26496,0.0336 -11.86185,1.8184 -17,7 -7.25902,8.93547 -10.523,18.90979 -13,30 -5.5301,-0.6272 -5.5301,-0.6272 -7.64453,-2.30469 -5.36666,-7.21537 -5.2819,-15.00845 -4.35547,-23.69531 4.84738,-19.34423 20.76024,-30.09722 36.4834,-40.35498 41.97916,-25.44684 41.97916,-25.44684 65.5166,-66.64502 0.97176,-11.51585 0.97176,-11.51585 -3,-22 -1.90939,-1.3126 -1.90939,-1.3126 -4,-1 -3.48859,2.50368 -4.17369,6.19958 -5.3125,10.125 -1.94948,6.30236 -4.33713,11.79498 -8.6875,16.875 -0.33,0 -0.66,0 -1,0 -1.20423,-39.04291 5.65379,-73.17928 33.12353,-102.50659 7.57786,-7.85263 28.40145,-26.38529 39.87647,-21.49341 z"
       fill="#faeabc"
       id="path10"
       style="fill:#f7ecca;fill-opacity:1" />
    <path
       d="m 563.25068,118.13492 c 0.71728,-0.001 1.43457,-0.003 2.17358,-0.004 39.95671,0.0161 39.95671,0.0161 49.80689,8.72281 0.79019,1.00031 1.58039,2.00062 2.39453,3.03125 0.44795,0.55824 0.8959,1.11649 1.35742,1.69165 5.20806,6.57473 10.10998,13.39803 15.04883,20.17554 4.17756,5.71383 8.55397,11.25832 12.95508,16.80029 8.46611,10.69089 16.75346,21.51186 24.91284,32.43823 3.99583,5.34868 8.03079,10.66443 12.10083,15.95679 5.15172,6.70458 10.18409,13.4906 15.17651,20.31445 4.67508,6.37444 9.46837,12.65207 14.35083,18.86914 0.51434,0.66258 1.02868,1.32516 1.5586,2.00782 0.45552,0.5808 0.91104,1.1616 1.38037,1.76001 0.97119,1.48608 0.97119,1.48608 0.97119,3.48608 -17.54143,-0.59516 -35.00833,-1.84804 -52.4986,-3.2699 -6.12633,-0.4975 -12.25324,-0.98782 -18.38031,-1.47619 -0.9943,-0.0795 -0.9943,-0.0795 -2.00868,-0.16057 -14.69493,-1.17161 -29.40091,-2.15428 -44.11241,-3.09334 -0.23469,-1.06364 -0.46938,-2.12728 -0.71118,-3.22314 -5.23873,-23.2415 -16.21679,-43.48475 -36.71118,-56.61597 -15.2003,-9.23267 -34.18218,-12.0937 -51.62842,-8.4773 -3.11185,0.9157 -5.98925,1.99308 -8.94922,3.31641 -1.00805,0.4241 -2.01609,0.8482 -3.05469,1.28516 -20.46863,9.3489 -33.48995,27.43011 -41.94531,47.71484 -1.21688,-0.165 -2.43375,-0.33 -3.6875,-0.5 -6.09787,-0.69161 -12.18437,-0.58524 -18.3125,-0.5 -0.35191,-1.00418 -0.70383,-2.00836 -1.06641,-3.04297 -4.21058,-11.76823 -8.58073,-23.40437 -17.74609,-32.27344 -1.1875,-1.68359 -1.1875,-1.68359 -1.11719,-3.55859 2.29249,-5.23997 6.38973,-9.66341 9.92969,-14.125 1.19303,-1.50627 1.19303,-1.50627 2.41016,-3.04297 12.72076,-15.51265 26.67006,-29.12077 43.58984,-39.95703 1.34771,-0.89912 1.34771,-0.89912 2.72266,-1.81641 15.36095,-9.82178 33.89049,-15.88348 51.65234,-19.49609 0.78343,-0.15944 1.56686,-0.31888 2.37402,-0.48315 11.59267,-2.19573 23.29691,-2.44128 35.06348,-2.45435 z"
       fill="#faeabc"
       id="path12" />
    <path
       d="m 834.43818,493.38492 c 2.14038,2.68919 3.48995,4.94917 5,8 0.54656,1.09184 1.09312,2.18367 1.65625,3.30859 3.57546,7.33399 6.64612,14.78436 9.30249,22.5 1.61294,4.74247 1.61294,4.74247 5.04126,8.19141 3.41189,0.70164 6.81864,0.66944 9.875,-1.0625 4.16282,-7.1693 4.07418,-15.69615 2.125,-23.5625 -0.495,-1.67062 -0.495,-1.67062 -1,-3.375 7.8755,0.56434 15.01414,2.56226 22.5625,4.8125 2.51532,0.72631 5.03095,1.45158 7.54687,2.17578 3.83354,1.11202 7.65752,2.24379 11.46875,3.42969 7.8471,2.27369 15.08444,2.9467 23.23438,3.01953 0.94335,0.0103 1.8867,0.0206 2.85864,0.0312 5.08443,-0.0642 9.34607,-0.67152 14.20386,-2.21094 4.75176,-1.40603 4.75176,-1.40603 8.10547,-0.0742 13.58795,13.87654 18.77146,30.31451 22.76953,48.94141 0.31651,1.46542 0.31651,1.46542 0.6394,2.96045 2.58226,12.68345 2.753,25.33845 2.6731,38.22705 -0.005,1.43424 -0.01,2.86849 -0.0137,4.30273 -0.0109,3.46163 -0.028,6.92319 -0.0488,10.38477 -2.45226,-1.22463 -4.90114,-2.4553 -7.34766,-3.69141 -1.23825,-0.62374 -2.47654,-1.24744 -3.71484,-1.87109 -0.62455,-0.31646 -1.2491,-0.63293 -1.89258,-0.95898 -2.65958,-1.33689 -5.21627,-2.53564 -8.04492,-3.47852 0.15855,-0.99258 0.31711,-1.98516 0.48047,-3.00781 1.59188,-11.24778 1.80369,-21.70685 -5.05859,-31.16797 -4.18566,-5.15665 -8.42474,-8.59433 -14.85938,-10.57422 -8.6906,-0.84786 -15.45592,-0.014 -22.8125,4.9375 -6.95537,7.11344 -9.80636,14.34555 -10,24.3125 0.0677,4.89041 0.54812,8.92619 2.25,13.5 -0.60586,0.26812 -1.21172,0.53625 -1.83594,0.8125 -6.8762,3.21595 -12.40385,7.28203 -18.16406,12.1875 -1.48307,1.18336 -1.48307,1.18336 -2.99609,2.39062 -13.66522,11.87044 -22.48896,30.3611 -27.00391,47.60938 -0.19465,0.73525 -0.3893,1.4705 -0.58984,2.22803 -7.06646,27.74044 -5.01858,58.74288 9.58984,83.77197 11.54997,17.32496 26.58142,30.30172 47.4707,34.49609 5.49028,0.98346 10.99955,1.77879 16.5293,2.50391 -13.57344,16.03553 -29.82278,23.09105 -50,28 -0.80421,0.19723 -1.60843,0.39445 -2.43701,0.59766 -8.62698,1.84548 -17.28942,1.7095 -26.06299,1.65234 -1.19289,-0.003 -1.19289,-0.003 -2.40988,-0.006 -28.62654,-0.0895 -28.62654,-0.0895 -38.09012,-3.244 0.56316,-12.22048 4.62727,-23.18087 9.0625,-34.4375 8.36594,-21.31041 9.67951,-42.94115 6.00488,-65.39331 -2.03997,-12.52695 -2.03997,-12.52695 0.83887,-17.38794 0.8521,-1.1035 1.71746,-2.19686 2.59375,-3.28125 7.76041,-10.29627 13.16746,-20.77727 17.3125,-33 0.27804,-0.81735 0.55607,-1.63469 0.84253,-2.47681 4.36721,-13.56959 5.83843,-26.4164 5.73608,-40.57324 -0.016,-2.61732 -1.1e-4,-5.23307 0.019,-7.85034 0.0218,-16.15292 -1.79392,-32.04761 -6.53515,-47.53711 -0.29785,-0.99379 -0.59571,-1.98757 -0.90259,-3.01147 -7.44513,-24.02165 -19.06681,-46.12522 -34.73559,-65.77613 -1.92473,-2.43545 -3.24526,-4.30023 -4.23682,-7.2749 2.70726,-0.50648 5.41557,-1.00535 8.125,-1.5 1.14082,-0.21463 1.14082,-0.21463 2.30469,-0.43359 8.41207,-1.52288 8.41207,-1.52288 12.57031,-1.06641 z"
       fill="#a46721"
       id="path14"
       style="fill:#aa8846;fill-opacity:1" />
    <path
       d="m 802.43818,934.38492 c 0.66,0 1.32,0 2,0 0.48424,2.31155 0.96364,4.62382 1.4375,6.9375 0.21185,1.03181 0.21185,1.03181 0.42798,2.08447 0.72522,3.62059 1.30947,7.1708 1.57202,10.85303 0.80059,8.32698 5.81613,15.37688 10.3125,22.1875 17.76673,27.56378 17.76673,27.56378 17.09766,38.40628 -1.12625,3.3631 -2.89104,4.9298 -5.47266,7.3437 -3.06584,2.8913 -5.95643,5.8173 -8.69531,9.0156 -3.73031,4.3139 -7.75953,8.2244 -11.92969,12.1094 -0.74798,0.6995 -1.49596,1.399 -2.2666,2.1196 -5.64499,5.2422 -11.41454,10.1949 -17.4834,14.9429 -1.50047,1.2453 -1.50047,1.2453 -3.03125,2.5156 -23.13409,18.9579 -52.25919,22.7594 -81.28125,22.7344 -0.75705,-6e-4 -1.5141,-10e-4 -2.2941,-0 -14.21525,-0.043 -28.43798,-0.3814 -42.4559,-2.9357 -0.95101,-0.1686 -1.90201,-0.3372 -2.88184,-0.511 -11.80165,-2.1829 -23.66145,-5.0032 -35.05566,-8.8013 -0.8472,-10.1663 2.62531,-18.2524 8.75,-26.3125 9.24662,-10.7877 20.74123,-16.6487 34.89795,-17.9265 18.26476,-0.866 36.21946,1.3581 53.67236,6.8836 3.94107,1.2203 7.46242,1.7606 11.61719,1.7304 1.62229,0.012 1.62229,0.012 3.27734,0.023 2.79088,-0.1765 2.79088,-0.1765 4.66407,-1.7734 1.34587,-1.6218 1.34587,-1.6218 1.12109,-4 -2.43978,-6.4044 -9.15159,-10.5079 -15,-13.625 -13.83049,-6.0104 -28.40309,-8.7018 -43.22437,-10.9988 -5.67039,-0.8959 -5.67039,-0.8959 -6.77563,-2.0012 -0.23828,-2.1445 -0.23828,-2.1445 -0.3125,-4.8125 -0.0561,-1.30902 -0.0561,-1.30902 -0.11328,-2.64451 0.42578,-2.54297 0.42578,-2.54297 1.77344,-4.83985 4.24062,-2.72299 8.47279,-2.24977 13.40234,-2.14062 1.02899,0.0125 2.05799,0.025 3.11816,0.0378 10.74734,0.24548 20.63025,2.0408 30.94434,5.08716 5.3451,1.53641 10.6536,2.03228 16.1875,1.3125 0.99,-0.66 1.98,-1.32 3,-2 0,-3.11418 -0.42667,-5.28011 -2.39063,-7.7461 -15.05925,-14.20505 -35.24872,-15.44205 -54.73437,-15.3164 -1.35156,0.005 -2.70312,0.01 -4.05469,0.0137 -3.27348,0.0117 -6.54687,0.0281 -9.82031,0.0488 -0.7957,-1.5761 -1.58963,-3.1531 -2.38281,-4.73047 -0.44231,-0.87809 -0.88462,-1.75619 -1.34033,-2.66089 -4.43755,-9.066 -4.43755,-9.066 -3.96436,-13.60864 0.22688,-0.66 0.45375,-1.32 0.6875,-2 7.75924,-2.11768 15.04694,-2.27159 23.0625,-2.1875 1.28608,0.008 2.57216,0.0158 3.89722,0.0239 32.99887,0.29573 32.99887,0.29573 40.04028,6.16357 1.14776,2.01065 2.10985,4.0265 3.00781,6.16016 0.98755,2.17551 0.98755,2.17551 3.99219,3.83984 17.55679,2.31882 37.06882,-7.06458 51,-17 4.48631,-3.64587 8.7802,-7.1703 12,-12 z"
       fill="#b26f21"
       id="path16"
       style="fill:#aa7833;fill-opacity:1" />
    <path
       d="m 372.43818,923.38492 c 15.03069,1.62275 33.37857,6.42917 46,15 2.75757,4.13635 2.77448,8.09456 3.33984,12.96875 0.71308,3.27425 1.17516,3.96006 3.66016,6.03125 2.68579,1.12649 5.31128,2.13018 8.0625,3.0625 1.14747,0.39578 1.14747,0.39578 2.31811,0.79956 5.47323,1.84719 10.88578,3.35394 16.61939,4.13794 1.12406,0.17531 2.24812,0.35062 3.40625,0.53125 6.15344,0.75265 12.34104,0.65945 18.53125,0.65625 1.28221,6.4e-4 2.56443,0.001 3.8855,0.002 9.52047,-0.0529 18.78297,-0.66688 28.177,-2.1895 -2.59523,8.21824 -2.59523,8.21824 -4.45166,11.80371 -6.34564,12.96456 -5.60438,26.72347 -5.79834,40.88377 -0.0731,3.8528 -0.15431,7.7052 -0.2453,11.5576 -0.0542,2.3826 -0.097,4.7654 -0.12708,7.1484 -0.0308,1.6087 -0.0308,1.6087 -0.0622,3.2498 -0.0195,1.4111 -0.0195,1.4111 -0.0394,2.8507 -0.29215,2.6521 -0.8166,4.2813 -2.27606,6.506 -10.33142,4.6918 -22.83548,5.6206 -34,7 -0.72784,0.093 -1.45567,0.1871 -2.20557,0.2835 -8.52211,0.9818 -17.10115,1.084 -25.66943,1.279 -0.86828,0.02 -1.73657,0.04 -2.63117,0.06 -6.83085,0.151 -13.66209,0.2696 -20.49379,0.3774 -1.09119,0.018 -2.18238,0.036 -3.30664,0.054 -6.8904,0.1087 -13.78034,0.1868 -20.67145,0.2322 -2.23424,0.017 -4.46843,0.042 -6.70251,0.073 -13.98844,0.1876 -26.78537,-0.7316 -40.3194,-4.3593 -1.05123,-0.2729 -2.10246,-0.5457 -3.18555,-0.8269 -2.47722,-0.6766 -4.92712,-1.4039 -7.37695,-2.1731 -0.8395,-0.2585 -1.679,-0.5171 -2.54395,-0.7834 -5.76219,-1.7997 -11.36479,-3.787 -16.89355,-6.2166 -1.74023,-0.7173 -1.74023,-0.7173 -3.51563,-1.4492 -7.54942,-3.1484 -14.82006,-6.6634 -21.98437,-10.6133 -0.72897,-0.3991 -1.45793,-0.7982 -2.20898,-1.2094 -13.63603,-7.6695 -13.63603,-7.6695 -15.16602,-12.4781 2.82242,-10.4832 10.88346,-19.57149 20.01172,-25.17576 15.2735,-7.87158 34.64322,-6.91797 50.86328,-2.07422 0.64614,0.17741 1.29228,0.35481 1.95801,0.5376 14.82538,4.10115 28.32126,11.17398 41.54931,18.93308 1.17007,0.6816 1.17007,0.6816 2.36377,1.377 0.67861,0.4061 1.35722,0.8122 2.0564,1.2307 3.55496,1.5809 7.2682,1.516 11.07251,0.9216 1.31162,-1.1188 1.31162,-1.1188 1.5,-3.9375 -0.1369,-6.6941 -5.37551,-11.78328 -9.69922,-16.42186 -10.2074,-9.7856 -22.84064,-15.44081 -35.80078,-20.64062 1.19058,-3.4388 2.16623,-5.64503 5.125,-7.8125 0.53883,-0.41895 1.07766,-0.83789 1.63281,-1.26953 6.09363,-2.49478 12.34111,-0.68552 18.24219,1.45703 0.72333,0.25749 1.44665,0.51498 2.19189,0.78027 8.2913,3.13686 15.50942,7.88376 22.80811,12.84473 3.67347,2.44898 5.66356,2.31538 10,2 2.23613,-1.84864 2.23613,-1.84864 2.4375,-4.625 -0.9756,-7.52603 -6.63852,-13.77996 -12.4375,-18.375 -8.04085,-5.34011 -16.0888,-9.0475 -25.33203,-11.79688 -2.66797,-1.20312 -2.66797,-1.20312 -3.54688,-2.83203 -0.17991,-3.52292 -0.2649,-7.03211 -0.24609,-10.55859 -0.004,-0.7367 -0.008,-1.4734 -0.0117,-2.23242 0.01,-5.4534 0.01,-5.4534 1.13672,-6.58008 z"
       fill="#b47121"
       id="path18"
       style="fill:#aa7833;fill-opacity:1" />
    <path
       d="m 955.42255,353.92789 c 17.12262,10.33506 25.28406,26.10842 30.18359,44.90625 5.66049,24.15674 1.19499,50.31667 -10.98047,71.80078 -8.41822,13.12895 -18.86405,23.65899 -34.07031,28.32813 -10.73822,2.13972 -21.65066,0.10008 -31.09765,-5.27344 -15.24006,-10.38426 -23.07933,-26.6585 -27.01954,-44.30469 -4.93016,-26.09698 -0.20305,-53.59759 14,-76 14.68881,-21.01581 34.6048,-32.06166 58.98438,-19.45703 z"
       fill="#9e732c"
       id="path20"
       style="fill:#aa8846;fill-opacity:1" />
    <path
       d="m 600.43818,38.38492 c 6.21321,1.587013 11.21157,5.039791 16.5625,8.4375 1.85536,1.165532 3.71083,2.330902 5.56641,3.496094 1.22312,0.774283 1.22312,0.774283 2.47094,1.564209 1.66698,1.043325 3.35797,2.048871 5.06592,3.023681 3.09513,1.960473 4.82844,4.55437 6.83423,7.541016 0.87806,1.267513 1.75701,2.53441 2.63672,3.800781 0.46326,0.672407 0.92651,1.344815 1.40381,2.037598 2.53982,3.652961 5.15967,7.247823 7.77197,10.849121 1.11089,1.536305 2.22156,3.072765 3.33203,4.609375 0.5551,0.767637 1.11021,1.535273 1.68213,2.326172 3.26564,4.516811 6.52804,9.035958 9.79102,13.554687 2.74483,3.800926 5.4905,7.601236 8.23779,11.400386 1.11074,1.53642 2.22142,3.07288 3.33203,4.60938 0.54471,0.75354 1.08942,1.50708 1.65063,2.28345 2.81776,3.9014 5.62382,7.81055 8.41163,11.7334 9.21826,12.96621 18.6938,25.73444 28.37524,38.35815 5.26367,6.8653 10.35716,13.81204 15.29297,20.91577 4.73006,6.7644 9.75104,13.2963 14.77661,19.84253 5.43667,7.09429 10.66742,14.30384 15.80542,21.6167 1.66316,2.33586 3.33138,4.66803 5,7 -0.5659,1.05961 -1.1318,2.11922 -1.71484,3.21094 -0.7409,1.38801 -1.48179,2.77603 -2.22266,4.16406 -0.37318,0.69867 -0.74637,1.39734 -1.13086,2.11719 -1.99912,3.7366 -1.99912,3.7366 -3.93164,7.50781 -2.47656,0.63281 -2.47656,0.63281 -5.625,1.125 -1.02352,0.16758 -2.04703,0.33516 -3.10156,0.50781 -1.08024,0.12117 -2.16047,0.24235 -3.27344,0.36719 -1.18723,0.13535 -2.37445,0.2707 -3.59766,0.41016 -3.40234,-0.41016 -3.40234,-0.41016 -5.92187,-2.79688 -0.78691,-1.08422 -1.55006,-2.18595 -2.29297,-3.30078 -0.86792,-1.21265 -1.73642,-2.42488 -2.60547,-3.63672 -0.43232,-0.61923 -0.86464,-1.23847 -1.31006,-1.87646 -1.88343,-2.66429 -3.89079,-5.22669 -5.89697,-7.79932 -0.83178,-1.07992 -1.66245,-2.1607 -2.49219,-3.24219 -0.45085,-0.58749 -0.9017,-1.17498 -1.36621,-1.78027 -0.50048,-0.65259 -1.00096,-1.30518 -1.5166,-1.97754 -0.58556,-0.76345 -1.17111,-1.52689 -1.77441,-2.31348 -7.2468,-9.4573 -14.44485,-18.94222 -21.47559,-28.56152 -4.56953,-6.24734 -9.26891,-12.35021 -14.146,-18.35962 -4.11978,-5.09987 -8.06146,-10.32156 -11.979,-15.57788 -9.68481,-12.98434 -19.59911,-25.75748 -29.86719,-38.28564 -4.27157,-5.23919 -8.34704,-10.60692 -12.3728,-16.03638 -2.83343,-3.81653 -5.7157,-7.58221 -8.67749,-11.30005 -1.83073,-2.300432 -3.64061,-4.616562 -5.44336,-6.938965 -1.18151,-1.520125 -2.37287,-3.032582 -3.56494,-4.544434 -5.30187,-7.128804 -9.09171,-14.663113 -12.82422,-22.707031 -0.49822,-1.068472 -0.99645,-2.136943 -1.50977,-3.237793 -0.4531,-1.006919 -0.90621,-2.013838 -1.37304,-3.05127 -0.4088,-0.907016 -0.81759,-1.814033 -1.23877,-2.748535 -0.75342,-2.337402 -0.75342,-2.337402 0.24658,-5.337402 1.52344,-1.359375 1.52344,-1.359375 3.375,-2.75 3.73199,-3.049961 5.08597,-5.723428 6.625,-10.25 z"
       fill="#d38d2e"
       id="path24" />
    <path
       d="m 782.37568,460.38492 c 0.8196,0.21423 1.6392,0.42845 2.48364,0.64917 8.43103,2.35184 15.9556,6.11335 23.57886,10.35083 -2.79625,1.86417 -3.85539,2.31951 -7,2.82422 -0.79519,0.13761 -1.59038,0.27521 -2.40967,0.41699 -0.85481,0.14728 -1.70962,0.29455 -2.59033,0.44629 -21.84961,4.104 -39.89235,13.27025 -57,27.3125 -0.82371,0.66902 -1.64742,1.33805 -2.49609,2.02734 -5.9507,5.04314 -10.76839,10.79285 -15.50391,16.97266 -0.58394,0.74508 -1.16789,1.49016 -1.76953,2.25781 -13.81844,18.57561 -22.04817,40.92755 -25.23047,63.74219 -0.14031,0.97622 -0.14031,0.97622 -0.28345,1.97217 -0.88807,6.8729 -0.90772,13.73098 -0.90405,20.65283 -6.4e-4,1.26223 -0.001,2.52447 -0.002,3.82495 0.0641,11.58718 0.90949,23.03887 2.18945,34.55005 -1.57974,1.01707 -1.57974,1.01707 -3.1914,2.05469 -1.45715,0.93993 -2.91417,1.88004 -4.3711,2.82031 -0.76272,0.49162 -1.52544,0.98323 -2.31128,1.48975 -3.84274,2.48392 -7.66821,4.98759 -11.45435,7.55712 -1.00824,0.68281 -1.00824,0.68281 -2.03686,1.3794 -1.27375,0.86577 -2.54425,1.73636 -3.81104,2.6123 -2.87266,1.95039 -5.34316,3.58794 -8.82397,4.08643 -12.80189,-48.93772 -6.46864,-100.05405 18.2168,-144.1748 2.40153,-4.08261 5.03202,-7.96772 7.7832,-11.8252 0.72059,-1.03512 1.44117,-2.07023 2.1836,-3.13672 18.10332,-24.8195 45.20223,-47.06689 76.11332,-52.5664 6.61912,-0.72696 12.27167,0.0207 18.64063,1.70312 z"
       fill="#9b712b"
       id="path26"
       style="fill:#aa8846;fill-opacity:1" />
    <path
       d="m 964.73115,654.82633 c 11.04838,7.9763 17.91148,19.57919 20.42578,32.97266 2.06366,18.97421 -1.56631,37.0641 -12.92578,52.60546 -7.59473,8.87161 -16.53368,15.2445 -28.34375,16.29688 -10.94063,0.34086 -18.21979,-1.32688 -26.63672,-8.37891 -11.26876,-10.86188 -15.79881,-23.33825 -16.33374,-38.72314 -0.14431,-11.02383 0.85431,-20.16817 5.52124,-30.21436 0.46922,-1.0132 0.93844,-2.0264 1.42188,-3.07031 5.66428,-11.17631 14.86079,-21.47591 27.12109,-25.49609 10.0874,-1.78013 20.93468,-1.53368 29.75,4.00781 z"
       fill="#f9eabd"
       id="path28" />
    <path
       d="m 973.43818,637.38492 c 14.94573,11.92235 25.28329,27.02065 29.00002,46 0.5492,5.27717 0.6325,10.51254 0.5625,15.8125 -0,0.7006 -0.01,1.40121 -0.014,2.12305 -0.099,10.99712 -1.0216,20.93769 -5.54862,31.06445 -0.44207,1.0265 -0.44207,1.0265 -0.89307,2.07373 -3.91094,8.91809 -8.50288,16.7023 -15.10693,23.92627 -0.9784,1.15049 -0.9784,1.15049 -1.97656,2.32422 -9.33295,10.2942 -23.00101,16.85699 -36.80078,17.98437 -13.12131,0.5784 -24.438,-2.66636 -35.22266,-10.30859 -0.68578,-0.47824 -1.37156,-0.95648 -2.07813,-1.44922 -14.17903,-11.08086 -20.56422,-30.04552 -22.68603,-47.27539 -2.56795,-24.7757 4.80752,-49.23336 20.42725,-68.66895 18.15863,-21.81953 45.42387,-30.93265 70.33691,-13.60644 z m -59.07422,28.42187 c -8.83183,12.03122 -13.51461,25.45395 -13.36328,40.32813 0.0125,1.58108 0.0125,1.58108 0.0252,3.19409 0.32034,14.83497 4.55414,26.89043 14.78735,37.93091 8.29493,7.78937 16.63378,9.61878 27.72657,9.40234 11.56815,-0.82298 19.57304,-6.69393 27.46093,-14.71484 11.35089,-13.09567 15.42962,-30.5107 14.78125,-47.57813 -1.16203,-13.46895 -5.77638,-26.11774 -15.78125,-35.48437 -18.06892,-14.83132 -40.93647,-10.24226 -55.63672,6.92187 z"
       fill="#c5841e"
       id="path30"
       style="fill:#b98138;fill-opacity:1" />
    <path
       d="m 257.43818,470.38492 c 0.86367,0.37898 1.72734,0.75797 2.61719,1.14844 18.68502,9.15725 31.27012,27.02934 38.59765,45.99609 0.79546,2.89294 0.99094,5.24161 0.91016,8.23047 -0.0181,0.87398 -0.0361,1.74797 -0.0547,2.64844 -0.0232,0.65226 -0.0464,1.30453 -0.0703,1.97656 -3.17568,-1.42089 -5.49399,-3.16409 -8.0625,-5.5 -2.27182,-2.05816 -4.37457,-3.79138 -6.9375,-5.5 -0.66016,-2.3125 -0.66016,-2.3125 -1.0625,-5 -0.50995,-3.9542 -0.50995,-3.9542 -2.9375,-7 -3.08348,-0.16681 -3.08348,-0.16681 -6,0 -3.01705,4.8335 -4.68073,8.75188 -5.6875,14.4375 -0.12246,0.68667 -0.24492,1.37333 -0.37109,2.08081 -0.82497,4.92571 -1.21362,9.80917 -1.44141,14.79419 -0.74301,15.09791 -0.74301,15.09791 -4.87109,20.47266 -1.62891,1.21484 -1.62891,1.21484 -5.31641,1.33984 -5.38788,-0.92449 -8.8486,-4.04795 -12.3125,-8.125 -4.89293,-7.33122 -3.85385,-17.72877 -2.32031,-25.99219 0.50588,-2.52724 1.07402,-5.02477 1.66406,-7.53515 0.68071,-3.60207 0.88535,-6.81596 0.65625,-10.47266 -2.08344,-2.39209 -3.31364,-2.92568 -6.45313,-3.26562 -2.55898,0.0398 -2.55898,0.0398 -4.20703,1.55859 -7.75424,10.47579 -8.89273,21.70484 -8.40234,34.39453 0.0851,2.48265 0.1574,4.96578 0.21484,7.44922 0.0412,1.07983 0.0823,2.15966 0.12476,3.27222 -0.0914,0.85505 -0.18289,1.7101 -0.2771,2.59106 -3.75158,2.50105 -6.66124,2.72054 -11,2 -5.19093,-1.8798 -8.30014,-4.8489 -11,-9.625 -3.99477,-9.15018 -1.96796,-17.72732 0.34375,-27.11328 0.64672,-3.21438 0.89266,-5.99446 0.65625,-9.26172 -2.186,-2.52231 -3.65459,-2.94121 -6.9375,-3.5 -4.25169,0.69415 -5.43235,2.10849 -8.0625,5.5 -5.98051,10.88494 -6.26361,20.93274 -6,33 -1.80469,0.62891 -1.80469,0.62891 -4,1 -4.84283,-3.19626 -6.50804,-5.28774 -8,-11 -1.44558,-13.88428 2.48673,-27.53684 11.21728,-38.5332 3.09468,-3.65786 6.40064,-7.07497 9.78272,-10.4668 0.64711,-0.67031 1.29422,-1.34062 1.96094,-2.03125 15.50061,-14.89142 42.76373,-23.22334 63.03906,-13.96875 z"
       fill="#f9eabc"
       id="path32"
       style="fill:#f7ecca;fill-opacity:1" />
    <path
       d="m 393.7624,208.67008 c 11.49758,8.1093 19.19307,20.35233 22.19922,34.04297 1.38717,10.68801 3.13471,24.44959 -2.98828,33.89844 -5.96141,6.88671 -13.78976,9.25894 -22.74951,10.06128 -3.39194,0.11336 -6.76711,0.12178 -10.16065,0.0872 -1.69383,0.0174 -1.69383,0.0174 -3.42187,0.0352 -8.10064,-0.0278 -15.40529,-1.26551 -23.20313,-3.41016 -0.91265,-0.25088 -1.82531,-0.50177 -2.76562,-0.76025 -2.52485,-0.71902 -5.03657,-1.47165 -7.54688,-2.23975 -0.82822,-0.2475 -1.65644,-0.495 -2.50976,-0.75 -5.14438,-1.55669 -10.16465,-3.31168 -15.17774,-5.25 -0.9032,-21.22524 2.31047,-39.93305 16.58203,-56.52344 13.99157,-14.33062 33.76371,-19.13245 51.74219,-9.19141 z"
       fill="#a7d2d8"
       id="path34" />
    <path
       d="m 302.43818,544.38492 c 3.14266,-0.52378 4.94708,-0.72214 8,0 2.63705,1.97443 4.89107,4.19768 7.25391,6.49219 12.72425,11.62016 31.80425,19.21837 48.74609,21.50781 -1.63523,5.63861 -3.38464,11.20116 -5.39673,16.71655 -7.69119,21.14582 -12.79785,42.73974 -17.05005,64.79102 -0.55322,2.49243 -0.55322,2.49243 -1.55322,4.49243 -21.21877,-2.56701 -40.72913,-11.63197 -54.87793,-27.50635 -2.26919,-2.54444 -4.2685,-4.59127 -7.12207,-6.49365 1.37232,-4.58826 3.26737,-8.46393 5.625,-12.625 10.7087,-19.51643 21.58139,-44.77268 16.375,-67.375 z"
       fill="#faeabc"
       id="path36"
       style="fill:#f7ecca;fill-opacity:1" />
    <path
       d="m 787.43818,343.38492 c 7.48901,-0.0255 14.978,-0.0429 22.46704,-0.0549 2.54395,-0.005 5.0879,-0.0118 7.63184,-0.0205 3.67147,-0.0122 7.34291,-0.0178 11.0144,-0.0222 1.12441,-0.005 2.24882,-0.0103 3.4073,-0.0156 6.88227,-4.8e-4 13.63814,0.35913 20.47942,1.1133 -2.39438,3.65748 -4.87698,7.19284 -7.50122,10.69165 -5.90914,7.9655 -10.43986,16.27391 -14.49878,25.30835 -0.7251,1.60102 -0.7251,1.60102 -1.46484,3.23438 -8.84486,21.18464 -8.32891,43.22573 -8.53516,65.76562 -4.92307,-1.63249 -9.83785,-3.28469 -14.74219,-4.97266 -2.04423,-0.69672 -4.0885,-1.39333 -6.13281,-2.08984 -1.01191,-0.35127 -2.02383,-0.70254 -3.06641,-1.06445 -6.62856,-2.24489 -13.13817,-3.82773 -20.05859,-4.87305 0.72518,-6.72002 2.00635,-13.25919 3.375,-19.875 1.55376,-7.65107 3.0775,-15.30084 4.375,-23 0.11521,-0.66886 0.23042,-1.33772 0.34912,-2.02686 1.81125,-11.02917 2.14775,-22.13553 2.46338,-33.28564 0.0433,-1.44337 0.0869,-2.88673 0.13086,-4.33008 0.10569,-3.49404 0.20732,-6.98819 0.30664,-10.48242 z"
       fill="#9b712b"
       id="path38"
       style="fill:#aa8846;fill-opacity:1" />
    <path
       d="m 951.43818,383.38492 c 9.41354,6.14762 13.86574,16.41528 16.33594,27.05859 2.56844,15.24445 0.3412,31.72081 -7.58594,45.19141 -5.09273,7.11435 -12.05454,12.87713 -20.75,14.75 -6.56707,0.92494 -11.51166,-0.29296 -17,-4 -2.75,-2.4375 -2.75,-2.4375 -5,-5 -1.02094,-1.08281 -1.02094,-1.08281 -2.0625,-2.1875 -8.57308,-12.44479 -9.25631,-27.459 -7.25,-42 2.55718,-13.15626 9.12592,-26.07653 20.44141,-33.73047 7.67172,-4.43647 15.1502,-3.9583 22.87109,-0.082 z"
       fill="#4f360a"
       id="path40" />
    <path
       d="m 600.43818,38.38492 c 6.21321,1.587013 11.21157,5.039791 16.5625,8.4375 1.85536,1.165532 3.71083,2.330902 5.56641,3.496094 1.22312,0.774283 1.22312,0.774283 2.47094,1.564209 1.66698,1.043325 3.35797,2.048871 5.06592,3.023681 3.09513,1.960473 4.82844,4.55437 6.83423,7.541016 0.87806,1.267513 1.75701,2.53441 2.63672,3.800781 0.46326,0.672407 0.92651,1.344815 1.40381,2.037598 2.53982,3.652961 5.15967,7.247823 7.77197,10.849121 1.11089,1.536305 2.22156,3.072765 3.33203,4.609375 0.5551,0.767637 1.11021,1.535273 1.68213,2.326172 3.26564,4.516811 6.52804,9.035958 9.79102,13.554687 2.74483,3.800926 5.4905,7.601236 8.23779,11.400386 1.11074,1.53642 2.22142,3.07288 3.33203,4.60938 0.54471,0.75354 1.08942,1.50708 1.65063,2.28345 2.81776,3.9014 5.62382,7.81055 8.41163,11.7334 9.21826,12.96621 18.6938,25.73444 28.37524,38.35815 5.26367,6.8653 10.35716,13.81204 15.29297,20.91577 4.73006,6.7644 9.75104,13.2963 14.77661,19.84253 5.43667,7.09429 10.66742,14.30384 15.80542,21.6167 1.66316,2.33586 3.33138,4.66803 5,7 -1.98,3.63 -3.96,7.26 -6,11 -4.49217,-4.49217 -4.49217,-4.49217 -6.44531,-7.43359 -0.43192,-0.6422 -0.86384,-1.28439 -1.30884,-1.94605 -0.45238,-0.67909 -0.90476,-1.35819 -1.37085,-2.05786 -4.64364,-6.86142 -9.52219,-13.46651 -14.63672,-19.98145 -2.11631,-2.70213 -4.20821,-5.42301 -6.30078,-8.14355 -0.41371,-0.53689 -0.82742,-1.07379 -1.25366,-1.62695 -2.80174,-3.64243 -5.56215,-7.31381 -8.30884,-10.99805 -2.66969,-3.57356 -5.3806,-7.09584 -8.1875,-10.5625 -5.04685,-6.2561 -9.82032,-12.71391 -14.62305,-19.15771 -1.51961,-2.03232 -3.04802,-4.05763 -4.58008,-6.08057 -5.14044,-6.79678 -10.16868,-13.64886 -15.04687,-20.63672 -4.97115,-7.11283 -10.21679,-13.95016 -15.63037,-20.72949 -3.83629,-4.8294 -7.56798,-9.74082 -11.30713,-14.64551 -0.76159,-0.9958 -0.76159,-0.9958 -1.53857,-2.01172 -1.61697,-2.11747 -3.22744,-4.239741 -4.83643,-6.36328 -0.75011,-0.981057 -0.75011,-0.981057 -1.51538,-1.981934 -3.06276,-4.06058 -5.67432,-8.176432 -8.10962,-12.643066 -0.94875,0.9075 -1.8975,1.815 -2.875,2.75 -5.21542,4.455279 -10.87116,6.870147 -17.67188,7.664062 -3.45312,-0.414062 -3.45312,-0.414062 -5.71875,-2.414062 -5.00095,-7.560502 -9.03109,-15.404377 -12.85937,-23.625 -0.4979,-1.067344 -0.9958,-2.134687 -1.50879,-3.234375 -0.45343,-1.008047 -0.90685,-2.016094 -1.37402,-3.054688 -0.4088,-0.907016 -0.81759,-1.814033 -1.23877,-2.748535 -0.75342,-2.337402 -0.75342,-2.337402 0.24658,-5.337402 1.52344,-1.359375 1.52344,-1.359375 3.375,-2.75 3.73199,-3.049961 5.08597,-5.723428 6.625,-10.25 z"
       fill="#e7a125"
       id="path42" />
    <path
       d="m 525.62959,206.17398 c 12.61602,-0.58679 24.01676,4.50736 33.53906,12.50391 13.0416,12.41023 20.81405,28.88897 21.60547,46.93359 0.35712,21.15969 -4.03914,41.05562 -19.05469,56.81153 -9.01479,8.89715 -20.55201,15.37637 -33.37378,15.56933 -0.91821,-0.0148 -1.83643,-0.0297 -2.78247,-0.0449 -0.96527,-0.011 -1.93053,-0.0219 -2.92505,-0.0332 -13.3949,-0.40608 -23.61797,-6.28267 -33.2312,-15.47071 -6.8735,-7.46136 -11.05636,-15.64618 -14.28125,-25.18359 -0.25467,-0.75201 -0.50934,-1.50401 -0.77173,-2.27881 -5.80851,-18.06873 -3.59619,-38.1948 4.29517,-55.27978 8.29615,-15.37868 20.79293,-26.94384 37.58984,-32.19141 3.12709,-0.70031 6.20633,-1.02943 9.39063,-1.33594 z"
       fill="#a8d2d7"
       id="path22"
       style="fill:#a8d2d7;fill-opacity:1" />
    <path
       d="m 534.43818,234.38492 c 7.0005,3.98068 10.35708,11.3895 12.56836,18.94092 3.98514,15.82224 3.56026,32.83921 -3.84961,47.61377 -3.40605,5.61998 -7.75757,10.52833 -13.71875,13.44531 -8.20705,1.46402 -14.72049,-0.0171 -21.48828,-4.73438 -2.83663,-2.5587 -4.1287,-4.82767 -5.76172,-8.26562 l -1.51563,-3.125 c -5.02263,-11.69828 -4.57583,-28.15011 -0.23437,-39.875 2.96228,-7.16558 6.05247,-13.80802 12,-19 l 2,-2 c 6.7624,-2.94512 12.71799,-5.37022 20,-3 z"
       fill="#97C3C9"
       id="path44"
       style="fill:#4e350a;fill-opacity:1"
       sodipodi:nodetypes="ccccccccccc" />
    <path
       d="m 386.43818,218.39525 c 0.6716,0.12792 1.3432,0.25584 2.03516,0.38764 6.35922,1.82388 9.69554,6.3043 12.96484,12.01686 4.09427,9.15713 5.1963,18.05099 5.1875,28.03935 -8e-5,0.85672 -1.6e-4,1.71345 -2.4e-4,2.59613 -0.1497,16.83747 -0.1497,16.83747 -3.18726,23.11737 -2.5625,0.64607 -2.5625,0.64607 -5,1.03371 0,0.68225 0,1.3645 0,2.06742 -3.7872,0.91077 -7.29887,1.16675 -11.18359,1.171 -1.17498,0.001 -2.34996,0.003 -3.56055,0.004 -1.21881,-0.004 -2.43762,-0.008 -3.69336,-0.0121 -1.21494,0.004 -2.42988,0.008 -3.68164,0.0121 -1.17627,-0.001 -2.35254,-0.003 -3.56445,-0.004 -1.06791,-10e-4 -2.13582,-0.002 -3.23609,-0.004 -3.1017,-0.13468 -6.03241,-0.57282 -9.08032,-1.16746 0.495,-1.02337 0.495,-1.02337 1,-2.06742 -0.43702,-1.47844 -0.92733,-2.94007 -1.4375,-4.39326 -4.43681,-16.23362 -2.66247,-34.53497 5.04687,-49.35151 5.09678,-8.14456 11.38572,-15.38167 21.39063,-13.44629 z"
       fill="#97C3C9"
       id="path46"
       style="fill:#4f360a;fill-opacity:1;stroke-width:1.01671" />
    <path
       d="m 883.43818,352.38492 c 2.3125,1.5625 2.3125,1.5625 4,3 -1.28586,3.57044 -2.81009,6.25677 -5.125,9.25 -18.30465,25.81719 -21.68125,58.83532 -16.92969,89.375 1.55697,8.72646 4.66597,16.85349 8.80469,24.6875 0.4125,0.88688 0.825,1.77375 1.25,2.6875 -0.33,0.66 -0.66,1.32 -1,2 -17.48213,-0.53943 -17.48213,-0.53943 -22.74609,-5.68359 -1.94201,-3.7413 -3.20832,-7.24919 -4.25391,-11.31641 -0.30696,-1.12438 -0.30696,-1.12438 -0.62012,-2.27148 -7.8789,-29.61083 -6.58727,-61.21561 8.93653,-88.15039 17.32916,-26.53654 17.32916,-26.53654 27.68359,-23.57813 z"
       fill="#9d732c"
       id="path48"
       style="fill:#aa8846;fill-opacity:1" />
    <path
       d="m 600.43818,38.38492 c 6.21321,1.587013 11.21157,5.039791 16.5625,8.4375 1.85536,1.165532 3.71083,2.330902 5.56641,3.496094 1.22312,0.774283 1.22312,0.774283 2.47094,1.564209 1.68801,1.056481 3.39154,2.088338 5.10572,3.101806 3.53075,2.154973 5.57768,4.643239 7.29443,8.400391 1.10555,5.851811 0.2952,11.039486 -2.68359,16.1875 -4.53938,6.250062 -10.86593,9.927705 -18.31641,11.8125 -3.54688,0.414062 -3.54688,0.414062 -7,0 -7.19971,-6.355602 -11.1606,-17.112073 -15.125,-25.625 -0.4979,-1.067344 -0.9958,-2.134687 -1.50879,-3.234375 -0.45343,-1.008047 -0.90685,-2.016094 -1.37402,-3.054688 -0.4088,-0.907016 -0.81759,-1.814033 -1.23877,-2.748535 -0.75342,-2.337402 -0.75342,-2.337402 0.24658,-5.337402 1.52344,-1.359375 1.52344,-1.359375 3.375,-2.75 3.73199,-3.049961 5.08597,-5.723428 6.625,-10.25 z"
       fill="#e6be82"
       id="path50" />
    <path
       d="m 965.62568,668.75992 c 0.59812,0.20625 1.19625,0.4125 1.8125,0.625 0.30769,6.38083 -0.69556,11.49744 -2.625,17.5625 -0.41258,1.30892 -0.41258,1.30892 -0.8335,2.64429 -0.56594,1.76821 -1.13959,3.53398 -1.72119,5.29712 -0.51374,1.56325 -1.01568,3.1305 -1.5,4.70312 -3.37364,10.89144 -8.58862,16.90039 -17.32031,23.79297 -0.95906,0.8018 -1.91813,1.60359 -2.90625,2.42969 -2.66988,2.22739 -5.37798,4.39932 -8.09375,6.57031 -0.84047,0.70898 -1.68094,1.41797 -2.54688,2.14844 -1.18335,0.9784 -1.18335,0.9784 -2.39062,1.97656 -0.68965,0.58008 -1.3793,1.16016 -2.08984,1.75781 -1.97266,1.11719 -1.97266,1.11719 -4.09595,0.68701 -0.61932,-0.18804 -1.23863,-0.37608 -1.87671,-0.56982 -0.58653,-8.20261 1.50323,-14.73352 4.1875,-22.4375 0.38736,-1.16338 0.77473,-2.32676 1.17383,-3.52539 6.5662,-19.28617 6.5662,-19.28617 13.45117,-24.34961 0.94488,-0.7193 1.88977,-1.43859 2.86328,-2.17969 0.52159,-0.38897 1.04318,-0.77795 1.58057,-1.17871 3.49002,-2.66027 6.85251,-5.48221 10.24365,-8.2666 1.36306,-1.11515 2.72755,-2.22854 4.09375,-3.33984 0.58459,-0.47688 1.16918,-0.95375 1.77148,-1.44507 4.27322,-3.33957 4.27322,-3.33957 6.82227,-2.90259 z"
       fill="#4c330a"
       id="path54"
       style="fill:#543f21;fill-opacity:1" />
    <path
       d="m 283.43818,535.38492 c 6.02992,5.74992 9.1605,10.985 9.5,19.4375 -0.47686,11.78744 -3.65582,23.0835 -8.05078,33.96875 -0.34699,0.86206 -0.69397,1.72412 -1.05147,2.6123 -3.46834,8.43562 -7.54973,16.5018 -11.80736,24.56119 -2.21497,4.19503 -4.39845,8.40631 -6.57867,12.61948 -0.4318,0.834 -0.86359,1.66799 -1.30847,2.52727 -4.46928,8.6805 -8.58373,17.50795 -12.56922,26.41999 -8.09563,17.96347 -8.09563,17.96347 -12.05688,19.69312 -1.95215,0.2854 -1.95215,0.2854 -5.07715,0.1604 -0.56054,-6.4246 1.2926,-10.70465 4.0625,-16.4375 0.76309,-1.62305 1.52476,-3.24678 2.28516,-4.87109 0.41838,-0.88511 0.83676,-1.77021 1.26782,-2.68213 1.29519,-2.81512 2.52753,-5.65217 3.74655,-8.50093 3.91724,-9.12932 8.315,-17.96885 12.83081,-26.81447 12.10827,-23.7745 23.1137,-46.55617 24.36966,-73.63138 0.0648,-1.31194 0.0648,-1.31194 0.13086,-2.65039 0.10511,-2.13723 0.20628,-4.27465 0.30664,-6.41211 z"
       fill="#f7e09d"
       id="path56"
       style="fill:#af7534;fill-opacity:1" />
    <path
       id="path58"
       d="m 204.2038,770.8068 c -2.56589,0.0209 -4.71209,0.66713 -4.89257,3.74218 l -0.002,2.89063 -0.01,3.26562 0.006,3.55469 c -0.002,2.45312 -0.003,4.90625 -0.004,7.35938 0.006,3.8913 0.0112,7.78251 0.006,11.67382 -0.004,2.53206 -0.005,5.06364 -0.004,7.59571 l 0.002,3.62109 -0.006,3.55469 0.01,3.26562 c 10e-4,1.68545 0.0302,3.37214 0.12891,5.05469 1.15493,1.15493 1.15493,1.15492 6.48242,1.23438 l 2.20508,0.0156 c 4.32687,0.12599 7.59602,0.0265 11.68359,-1.55078 3.97108,-2.56674 5.3679,-5.19254 6.62891,-9.69922 0.57937,-5.65612 1.01257,-10.99757 -2,-16 -1.40855,-1.81702 -1.40855,-1.81702 -2,-4 1.05725,-1.97033 2.04435,-3.97843 3,-6 0.54047,-5.24481 0.98028,-10.44077 -2,-15 -4.67262,-3.29832 -8.12085,-4.2187 -13.875,-4.32031 -1.65197,0.007 -3.60376,-0.27211 -5.35938,-0.25781 z m 5.23438,10.57812 c 2.00721,0.28674 4.00859,0.61867 6,1 0.0343,0.92683 0.0617,1.85408 0.0859,2.78125 0.20246,4.2722 0.17444,4.4898 -0.0859,6.21875 l -0.40625,0.27148 c -0.29936,0.43238 -0.77917,0.91394 -1.59375,1.72852 -2.625,0.125 -2.625,0.125 -5,0 -0.0269,-1.81242 -0.0463,-3.62495 -0.0625,-5.4375 l -0.0352,-3.05859 c 0.0977,-2.50391 0.0977,-2.50391 1.0977,-3.50391 z m -1,23 h 6 c 2.42522,2.42522 2.29629,3.17207 2.3125,6.5 l 0.0508,2.40625 -0.3633,2.09375 c -3,2 -3,2 -8,2 z"
       style="fill:#4d330b;fill-opacity:1" />
    <path
       d="m 807.43818,730.38492 c 2.04647,3.38877 2.25716,6.0178 2.26562,9.94531 0.004,1.74024 0.004,1.74024 0.008,3.51563 -0.008,1.20914 -0.0155,2.41828 -0.0234,3.66406 0.0116,1.77891 0.0116,1.77891 0.0234,3.59375 -0.0214,9.69864 -1.45306,18.17743 -4.39843,27.40625 -0.3532,1.11633 -0.70641,2.23266 -1.07031,3.38281 -0.26555,0.82242 -0.5311,1.64485 -0.80469,2.49219 -13.08638,-5.96923 -24.93543,-18.1982 -33,-30 0,-0.66 0,-1.32 0,-2 1.00418,-0.48469 2.00836,-0.96938 3.04297,-1.46875 11.99179,-5.85145 23.4837,-12.1779 33.95703,-20.53125 z"
       fill="#9e732c"
       id="path60" />
    <path
       d="m 291.25068,771.25211 c 0.72187,0.003 1.44375,0.005 2.1875,0.008 0.72187,-0.003 1.44375,-0.005 2.1875,-0.008 1.8125,0.13281 1.8125,0.13281 2.8125,1.13281 0.23701,2.85878 0.42219,5.69884 0.5625,8.5625 0.0432,0.80631 0.0864,1.61262 0.13086,2.44336 0.10639,1.99783 0.20705,3.99596 0.30664,5.99414 0.84885,-1.69769 0.84885,-1.69769 1.71484,-3.42968 2.42839,-4.85678 4.85677,-9.71355 7.28516,-14.57032 2.64,0 5.28,0 8,0 0.82379,2.33983 1.17311,3.54769 0.27148,5.90357 -0.38865,0.6467 -0.7773,1.29341 -1.17773,1.95971 -0.41379,0.72252 -0.82758,1.44504 -1.25391,2.18946 -0.88809,1.49785 -1.78127,2.99269 -2.67968,4.48437 -1.96043,3.44144 -3.14453,5.73344 -3.23047,9.74414 1.88864,6.56201 4.4674,12.84562 7.00781,19.17774 0.40477,1.03834 0.80953,2.07668 1.22656,3.14648 0.37592,0.93997 0.75185,1.87994 1.13916,2.84839 0.7347,2.68471 0.64885,3.97087 -0.30322,6.54614 -2.64,0 -5.28,0 -8,0 -3.38509,-6.51943 -6.23345,-13.19701 -9,-20 -1.91582,3.83164 -1.41893,8.71439 -1.60547,12.9668 -0.29384,5.93251 -0.29384,5.93251 -1.39453,7.0332 -1.8125,0.13282 -1.8125,0.13282 -4,0.125 -0.72188,0.003 -1.44375,0.005 -2.1875,0.008 -1.8125,-0.13281 -1.8125,-0.13281 -2.8125,-1.13281 -0.0987,-1.68255 -0.12799,-3.36924 -0.12939,-5.05469 -0.003,-1.07781 -0.006,-2.15563 -0.01,-3.26611 0.002,-1.17289 0.004,-2.34577 0.006,-3.5542 -9.6e-4,-1.1948 -0.002,-2.3896 -0.003,-3.62061 -6.9e-4,-2.53206 0.001,-5.06413 0.005,-7.59619 0.005,-3.89131 5e-5,-7.78251 -0.006,-11.67383 6.6e-4,-2.45312 0.002,-4.90625 0.004,-7.35937 -0.002,-1.17289 -0.004,-2.34577 -0.006,-3.5542 0.003,-1.07782 0.006,-2.15563 0.01,-3.26611 7.9e-4,-0.95407 0.002,-1.90814 0.002,-2.89112 0.15767,-2.68646 0.25089,-3.09936 2.93948,-3.29637 z"
       fill="#4d330b"
       id="path62" />
    <path
       d="m 280.43818,773.38492 c 2,2 2,2 2.23047,5.22266 -0.0213,1.90072 -0.0213,1.90072 -0.043,3.83984 -0.006,1.26973 -0.0129,2.53945 -0.0195,3.84766 -0.16797,3.08984 -0.16797,3.08984 -1.16797,4.08984 -2.33297,0.0409 -4.66705,0.0424 -7,0 -0.66,-2.97 -1.32,-5.94 -2,-9 -2.4448,0.18829 -2.4448,0.18829 -5,1 -2.08102,3.10071 -2.2568,5.71819 -2.26563,9.39453 -0.003,1.03834 -0.005,2.07668 -0.008,3.14649 0.008,1.07958 0.0155,2.15917 0.0234,3.27148 -0.008,1.06799 -0.0155,2.13598 -0.0234,3.23633 0.0141,5.70632 0.33853,10.5688 2.27342,15.95117 2.07554,0.55348 3.84366,1 6,1 0,-3.96 0,-7.92 0,-12 -1.32,-0.33 -2.64,-0.66 -4,-1 -0.0977,-6.15234 -0.0977,-6.15234 0,-8 1,-1 1,-1 3.46875,-1.13281 1.50047,0.004 1.50047,0.004 3.03125,0.008 1.00031,-0.003 2.00062,-0.005 3.03125,-0.008 2.46875,0.13281 2.46875,0.13281 3.46875,1.13281 0.30922,3.90857 0.27848,7.83071 0.3125,11.75 0.029,1.09828 0.058,2.19656 0.0879,3.32812 0.0642,8.13473 0.0642,8.13473 -2.2793,12.10547 -4.05467,3.47223 -7.76844,4.30294 -13.13281,4.1211 -3.51306,-0.53835 -5.38545,-1.93848 -7.98828,-4.30469 -5.33761,-8.01494 -5.20434,-16.4801 -5.25,-25.8125 -0.0309,-1.56331 -0.0309,-1.56331 -0.0625,-3.1582 -0.0395,-7.87485 0.59375,-14.75286 5.75,-20.9668 6.89188,-5.54712 12.90506,-4.96629 20.5625,-1.0625 z"
       fill="#4a310a"
       id="path64" />
    <path
       id="path66"
       d="m 174.43818,771.38492 c -1.11624,2.23248 -1.11551,2.23239 -2.30664,8.32227 l -0.50586,2.63867 c -0.35737,1.85275 -0.71412,3.70561 -1.07031,5.55859 -0.55527,2.91445 -1.11292,5.828 -1.67969,8.74024 -1.99034,10.2193 -4.00067,20.31363 -4.4375,30.74023 2.67568,0.0425 5.32941,0.14115 8,0 1.125,-1.125 1.125,-1.125 1.5625,-6.0625 l 0.4375,-4.9375 h 10 c 0,4.45389 0.4894,6.94027 2,11 l 6.15234,0.0977 c 1.84766,-0.0977 1.84766,-0.0977 2.84766,-1.0977 0.20763,-2.69916 0.14047,-5.23864 -0.34961,-7.90625 -1.02451,-4.75305 -1.90998,-9.52146 -2.71094,-14.31641 l -0.37695,-2.26953 c -0.52224,-3.12737 -1.04415,-6.25479 -1.5625,-9.38281 -0.39058,-2.38879 -0.78162,-4.77683 -1.18164,-7.16406 l -0.38086,-2.26563 c -0.69,-4.29463 -1.45858,-7.73747 -3.4375,-11.69531 z m 5,16 h 1 c 1.32388,6.43029 2.24794,12.42948 2,19 h -6 c 0.51554,-6.4985 1.46668,-12.66227 3,-19 z"
       style="fill:#4d330b;fill-opacity:1" />
    <path
       d="m 774.43818,251.38492 c 0.66,0 1.32,0 2,0 2.78227,2.96436 5.16418,6.26734 7.625,9.5 0.70641,0.88687 1.41281,1.77375 2.14062,2.6875 5.69399,7.47474 5.69399,7.47474 5.75782,12.27734 -1.03327,6.97843 -4.11389,10.61661 -9.41407,14.98828 -5.4556,4.00078 -10.39168,5.29329 -17.10937,4.54688 -5.5714,-2.72885 -9.15404,-7.26715 -13,-12 -0.66,-0.80824 -1.32,-1.61648 -2,-2.44922 -5,-6.26008 -5,-6.26008 -5,-8.55078 0.82242,-0.0748 1.64484,-0.14953 2.49219,-0.22656 7.90244,-0.93078 14.42248,-2.41337 20.50781,-7.77344 3.01677,-4.02004 4.92412,-8.09753 6,-13 z"
       fill="#ba7229"
       id="path68" />
    <path
       d="m 939.56318,403.50992 c 3.89367,1.18503 5.84543,3.48502 7.875,6.875 3.59111,7.47101 2.93692,16.14654 0.375,23.875 -1.9598,4.69665 -4.17566,9.08272 -8.375,12.125 -3.625,0.75 -3.625,0.75 -7,0 -4.1825,-3.84338 -5.75553,-8.49815 -6.30078,-14.07812 -0.0385,-10.41097 1.00063,-18.73336 8.46875,-26.46875 1.83203,-1.45313 1.83203,-1.45313 4.95703,-2.32813 z"
       fill="#9f742c"
       id="path70"
       style="fill:#aa8846;fill-opacity:1" />
    <path
       d="m 146.00068,771.19742 c 3.4375,0.1875 3.4375,0.1875 4.4375,1.1875 0.0929,1.41225 0.11747,2.82909 0.11353,4.24438 -8e-5,0.90086 -1.6e-4,1.80172 -2.3e-4,2.72988 -0.005,0.97916 -0.0103,1.95832 -0.0156,2.96715 -0.001,0.9974 -0.003,1.99481 -0.004,3.02244 -0.006,3.19958 -0.0182,6.39909 -0.0309,9.59865 -0.005,2.16341 -0.01,4.32682 -0.0137,6.49023 -0.0111,5.31579 -0.0283,10.63152 -0.0488,15.94727 3.96,0 7.92,0 12,0 0.0977,6.93359 0.0977,6.93359 0,9 -1.58938,1.58938 -3.239,1.12981 -5.4375,1.13281 -1.34191,0.002 -1.34191,0.002 -2.71094,0.004 -0.94101,-0.004 -1.88203,-0.008 -2.85156,-0.0117 -1.41152,0.006 -1.41152,0.006 -2.85156,0.0117 -0.89461,-0.001 -1.78922,-0.003 -2.71094,-0.004 -0.82629,-0.001 -1.65258,-0.002 -2.50391,-0.003 -1.93359,-0.12941 -1.93359,-0.12941 -2.93359,-1.12941 -0.1039,-1.64644 -0.13853,-3.29732 -0.14526,-4.94702 -0.006,-1.05457 -0.0128,-2.10914 -0.0193,-3.19567 -0.001,-1.14787 -0.002,-2.29575 -0.003,-3.4784 -0.003,-1.17024 -0.007,-2.34047 -0.0101,-3.54616 -0.005,-2.48079 -0.007,-4.96158 -0.007,-7.44237 -0.002,-3.80797 -0.0203,-7.61566 -0.0393,-11.42358 -0.003,-2.4043 -0.005,-4.8086 -0.006,-7.21289 -0.007,-1.14585 -0.0144,-2.29171 -0.0218,-3.47228 0.003,-1.05772 0.006,-2.11544 0.009,-3.20521 -0.001,-0.93409 -0.003,-1.86817 -0.004,-2.83056 0.44492,-4.04154 1.93675,-4.22952 5.80974,-4.43336 z"
       fill="#4c330c"
       id="path72" />
    <path
       d="m 235.93818,771.25992 c 3.5,0.125 3.5,0.125 4.5,1.125 0.0929,1.41225 0.11747,2.82909 0.11353,4.24438 -8e-5,0.90086 -1.6e-4,1.80172 -2.3e-4,2.72988 -0.005,0.97916 -0.0103,1.95832 -0.0156,2.96715 -0.001,0.9974 -0.003,1.99481 -0.004,3.02244 -0.006,3.19958 -0.0182,6.39909 -0.0309,9.59865 -0.005,2.16341 -0.01,4.32682 -0.0137,6.49023 -0.0111,5.31579 -0.0283,10.63152 -0.0488,15.94727 4.29,0 8.58,0 13,0 0.0977,6.93359 0.0977,6.93359 0,9 -1.58938,1.58938 -3.239,1.12981 -5.4375,1.13281 -1.34191,0.002 -1.34191,0.002 -2.71094,0.004 -0.94101,-0.004 -1.88203,-0.008 -2.85156,-0.0117 -1.41152,0.006 -1.41152,0.006 -2.85156,0.0117 -0.89461,-0.001 -1.78922,-0.003 -2.71094,-0.004 -0.82629,-0.001 -1.65258,-0.002 -2.50391,-0.003 -1.93359,-0.12942 -1.93359,-0.12942 -2.93359,-1.12942 -0.0987,-1.68255 -0.12799,-3.36924 -0.12939,-5.05469 -0.003,-1.07782 -0.006,-2.15563 -0.01,-3.26611 0.002,-1.17289 0.004,-2.34577 0.006,-3.5542 -9.6e-4,-1.1948 -0.002,-2.3896 -0.003,-3.62061 -6.9e-4,-2.53206 0.001,-5.06413 0.005,-7.59619 0.005,-3.89131 5e-5,-7.78251 -0.006,-11.67383 6.6e-4,-2.45312 0.002,-4.90625 0.004,-7.35937 -0.002,-1.17289 -0.004,-2.34577 -0.006,-3.5542 0.003,-1.07782 0.006,-2.15563 0.01,-3.26611 7.9e-4,-0.95407 0.002,-1.90814 0.002,-2.89112 0.21353,-3.63815 0.83977,-3.15331 4.62698,-3.28857 z"
       fill="#472f08"
       id="path74" />
    <path
       d="m 182.43818,566.38492 c 3.3,0 6.6,0 10,0 0.15855,1.22332 0.31711,2.44664 0.48047,3.70703 2.16547,15.94342 5.00121,31.39571 12.38281,45.82422 1.13672,2.46875 1.13672,2.46875 1.13672,5.46875 -3.3,0 -6.6,0 -10,0 -9.1254,-16.64044 -14.79364,-35.95276 -14,-55 z"
       fill="#f6e19e"
       id="path76"
       style="fill:#af7534;fill-opacity:1" />
    <path
       d="m 244.50068,576.32242 c 4.70622,2.18673 9.31605,2.96864 14.43359,3.66797 2.50391,0.39453 2.50391,0.39453 4.50391,1.39453 -2.39707,8.17825 -6.08859,15.46651 -10,23 -9.31192,-3.78899 -16.34687,-15.51332 -21,-24 -0.69658,-1.65439 -1.37302,-3.318 -2,-5 5.6041,-2.72199 8.68429,-1.64985 14.0625,0.9375 z"
       fill="#f8eabe"
       id="path78"
       style="fill:#f7ecca;fill-opacity:1" />
    <path
       d="m 220.43818,675.38492 c 0.33,0 0.66,0 1,0 0.18176,0.62648 0.36352,1.25297 0.55078,1.89844 0.25137,0.81726 0.50274,1.63453 0.76172,2.47656 0.24363,0.81211 0.48727,1.62422 0.73828,2.46094 0.8629,2.49591 0.8629,2.49591 3.94922,4.16406 5.55243,0.66629 9.08907,-0.69175 13.88672,-3.22266 2.4849,-0.91404 3.66018,-0.6578 6.11328,0.22266 -1.20744,6.15796 -2.87984,8.37322 -8,12 -3.74106,1.87053 -7.92662,1.5419 -12,1 -3.8106,-1.67278 -6.28887,-3.82509 -8.4375,-7.375 -1.05454,-4.92121 -1.34688,-9.2744 1.4375,-13.625 z"
       fill="#f9f8f6"
       id="path82" />
    <path
       d="m 935.87568,586.82242 c 4.04967,0.63942 5.69347,1.69347 8.5625,4.5625 1.56936,3.13871 1.35201,5.53856 1,9 -1.99525,2.93052 -3.42836,4.64521 -6.97266,5.44531 -3.31125,0.18568 -5.65716,-0.23245 -8.52734,-1.88281 -2.24317,-3.83209 -2.24716,-7.23361 -1.5,-11.5625 2.03756,-3.99362 2.99476,-4.83551 7.4375,-5.5625 z"
       fill="#a96b23"
       id="path84" />
    <path
       d="m 204.43818,573.38492 c 3.33642,2.68088 4.25492,5.92618 5.6875,9.875 4.01146,10.53953 9.77112,19.69435 17.0625,28.32031 1.25,1.80469 1.25,1.80469 1.25,4.80469 -1.94257,-0.56621 -3.87897,-1.15366 -5.8125,-1.75 -1.07895,-0.32484 -2.15789,-0.64969 -3.26953,-0.98438 -3.82668,-1.65976 -5.24341,-3.68939 -6.86939,-7.48877 -0.39723,-1.19278 -0.39723,-1.19278 -0.80249,-2.40966 -0.29713,-0.88946 -0.59425,-1.77891 -0.90039,-2.69532 -0.2997,-0.92296 -0.59941,-1.84593 -0.9082,-2.79687 -0.30357,-0.89977 -0.60715,-1.79953 -0.91992,-2.72656 -2.39077,-7.25045 -4.51758,-14.47176 -4.51758,-22.14844 z"
       fill="#f9f7f5"
       id="path88" />
    <path
       d="m 762.43818,315.38492 c 0.66,0 1.32,0 2,0 1.10989,6.27751 1.18351,12.44756 1.1875,18.8125 0.0122,1.04865 0.0245,2.09731 0.0371,3.17773 0.002,0.99967 0.004,1.99934 0.006,3.0293 0.004,0.90855 0.008,1.8171 0.0125,2.75318 -0.24292,2.22729 -0.24292,2.22729 -2.24292,4.22729 -0.67842,-10.68515 -1.15498,-21.28907 -1,-32 z"
       fill="#f8efcc"
       id="path114" />
    <path
       d="m 326.43818,846.38492 c 0.66,0 1.32,0 2,0 0.98044,2.94132 1.11621,4.82502 1.09766,7.88672 -0.005,1.40669 -0.005,1.40669 -0.01,2.8418 -0.008,0.97646 -0.0168,1.95293 -0.0254,2.95898 -0.005,0.98807 -0.009,1.97613 -0.0137,2.99414 -0.0118,2.43951 -0.0282,4.87891 -0.0488,7.31836 -0.33,0 -0.66,0 -1,0 -0.33,-4.29 -0.66,-8.58 -1,-13 -0.33,0 -0.66,0 -1,0 0,-3.63 0,-7.26 0,-11 z"
       fill="#eac068"
       id="path138" />
    <path
       d="m 791.43818,464.38492 c 4.59808,0.53894 7.86784,1.76572 11.875,4.0625 0.9668,0.54785 1.93359,1.0957 2.92969,1.66016 1.08668,0.63228 1.08668,0.63228 2.19531,1.27734 -3.08889,2.05926 -3.70936,2.23904 -7.1875,2.125 -1.88719,-0.0619 -1.88719,-0.0619 -3.8125,-0.125 0.63937,-0.30937 1.27875,-0.61875 1.9375,-0.9375 1.99861,-0.89702 1.99861,-0.89702 3.0625,-2.0625 -3.63,-1.65 -7.26,-3.3 -11,-5 0,-0.33 0,-0.66 0,-1 z"
       fill="#a6782e"
       id="path148" />
    <path
       d="m 588.94015,386.2914 c 18.184,0.347 36.435,9.817 49.153,22.389 5.957,6.435 9.507,12.19 9.211,21.113 -0.238,1.883 -0.238,1.883 -1.238,3.883 -3.973,0.294 -5.797,-0.146 -8.863,-2.676 l -2.162,-1.742 -2.287,-1.894 a 1583.662,1583.662 0 0 0 -4.875,-3.887 l -2.461,-1.959 c -14.561,-11.407 -30.765,-20.721 -47.352,-28.842 -0.043,-1.666 -0.04,-3.334 0,-5 2.258,-2.258 7.757,-1.371 10.874,-1.385 z"
       fill="#503c20"
       id="path66-2-4" />
    <path
       d="m 612.21815,348.9714 c 20.1,-3.713 42.572,1.453 59.733,10.875 8.175,4.946 13.53,9.764 15.45,18.53 0.21,1.888 0.21,1.888 -0.387,4.061 -4.299,1.172 -6.417,1.15 -10.428,-0.634 l -2.818,-1.217 -2.994,-1.337 c -2.113,-0.904 -4.227,-1.805 -6.344,-2.702 l -3.201,-1.361 c -18.896,-7.877 -39.073,-13.346 -59.373,-17.567 a 90.435,90.435 0 0 1 -1.258,-4.874 c 1.917,-2.705 8.193,-3.066 11.62,-3.774 z"
       fill="#503c20"
       style="stroke-width:1.06256"
       id="path68-2-7" />
  </g>
</svg>
