<?xml version="1.0" encoding="UTF-8" standalone="no"?>
<svg
   version="1.1"
   width="834.87817"
   height="837.3819"
   id="svg150"
   sodipodi:docname="the-lost-geokret.svg"
   inkscape:version="1.1.2 (0a00cf5339, 2022-02-04)"
   xmlns:inkscape="http://www.inkscape.org/namespaces/inkscape"
   xmlns:sodipodi="http://sodipodi.sourceforge.net/DTD/sodipodi-0.dtd"
   xmlns="http://www.w3.org/2000/svg"
   xmlns:svg="http://www.w3.org/2000/svg">
  <defs
     id="defs154" />
  <sodipodi:namedview
     id="namedview152"
     pagecolor="#ffffff"
     bordercolor="#666666"
     borderopacity="1.0"
     inkscape:pageshadow="2"
     inkscape:pageopacity="0.0"
     inkscape:pagecheckerboard="0"
     showgrid="false"
     inkscape:zoom="0.60283615"
     inkscape:cx="193.25317"
     inkscape:cy="510.08885"
     inkscape:window-width="2490"
     inkscape:window-height="1376"
     inkscape:window-x="2560"
     inkscape:window-y="27"
     inkscape:window-maximized="1"
     inkscape:current-layer="svg150"
     fit-margin-top="0"
     fit-margin-left="0"
     fit-margin-right="0"
     fit-margin-bottom="0" />
  <path
     d="m 431.48263,2.5348711 c 1.11786,0.1774073 1.11786,0.1774073 2.2583,0.3583985 40.11172,6.4938845 79.18556,25.8917174 103.45654,59.3291014 2.86426,4.038175 5.59624,8.15605 8.28516,12.3125 0.70125,1.076367 1.4025,2.152734 2.125,3.261719 11.92142,19.540555 18.62774,41.96983 23.00781,64.28125 0.27179,1.37206 0.27179,1.37206 0.54907,2.77185 0.4411,2.22806 0.88044,4.45645 1.31812,6.68518 1.01641,-0.01 1.01641,-0.01 2.05336,-0.0202 32.767,-0.30692 65.32187,-0.491 97.94664,3.02019 1.11713,0.11215 2.23427,0.2243 3.38525,0.33984 27.3669,2.79052 54.35095,8.40794 78.61475,21.66016 0.98871,0.53238 1.97742,1.06477 2.99609,1.61328 18.43644,10.78358 30.86149,29.56653 36.29688,49.98047 1.01475,4.11595 1.89907,8.24481 2.70703,12.40625 0.19336,0.93199 0.38672,1.86398 0.58594,2.82422 3.6566,28.04543 -2.99649,55.21697 -17.58594,79.17579 -0.96923,1.25772 -1.94787,2.50827 -2.9375,3.75 -2.39633,2.97341 -2.39633,2.97341 -1.63672,5.74219 0.51949,0.82758 1.03899,1.65515 1.57422,2.50781 0.94939,1.64355 0.94939,1.64355 1.91797,3.32031 0.36408,0.60804 0.72816,1.21607 1.10327,1.84253 7.87163,13.24352 13.62004,27.39217 14.97876,42.83716 0.89848,0.26426 1.79695,0.52852 2.72266,0.80078 4.89521,1.79122 8.34851,4.84249 12.27734,8.19922 0.61102,0.51434 1.22203,1.02867 1.85156,1.55859 14.59957,13.36627 22.12767,35.37084 23.35987,54.77002 0.91242,23.77852 -1.06073,51.28954 -17.58081,70.24243 -2.79221,3.33223 -2.79221,3.33223 -3.74854,7.46778 0.31552,2.41882 0.78823,4.76479 1.30542,7.14868 1.84656,10.47516 2.14528,20.71136 2.125,31.3125 0.003,0.76291 0.006,1.52583 0.008,2.31186 0.0352,13.29939 -0.98113,26.20417 -4.88339,39.00064 -0.25612,0.84039 -0.51224,1.68078 -0.77612,2.54663 -4.28013,13.32444 -11.65258,30.00366 -23.93872,37.69165 -2.18867,1.78875 -2.67315,2.62576 -3.10718,5.46143 0.0186,3.16833 0.22816,6.26948 0.50952,9.42529 0.14466,2.26163 0.2879,4.52335 0.42969,6.78516 0.0783,1.08555 0.15662,2.1711 0.2373,3.28955 0.87474,12.56465 0.76293,24.36736 -6.95605,34.9292 -18.13822,20.33839 -59.93562,24.92956 -85.83555,28.05859 -2.36711,0.12126 -4.63066,0.11036 -7,0 4.9312,8.5725 10.0868,15.87155 17,23 0.53883,0.6123 1.07766,1.22461 1.63281,1.85547 13.51184,14.83586 32.90756,20.10026 51.64258,24.70361 2.07706,0.51368 4.15082,1.03925 6.22461,1.56592 1.18594,0.29133 2.37187,0.58266 3.59375,0.88281 2.86301,0.97743 4.13645,1.58861 5.90625,3.99219 1.2697,3.8091 1.80442,7.06964 1,11 -6.81779,12.86423 -26.82347,19.11339 -39.6875,23.1875 -12.68452,3.74495 -24.71312,5.01767 -37.9375,5.0625 -1.14356,0.008 -2.28712,0.0151 -3.46533,0.023 -6.53507,-0.0286 -12.45776,-0.55201 -18.78467,-2.14795 -6.8954,-1.54428 -9.98654,-0.32367 -15.96094,3.16797 -23.27971,12.55955 -61.62788,7.22095 -85.82812,0.0703 -2.66724,-0.80438 -5.31972,-1.62805 -7.95899,-2.52002 -7.27922,-2.41063 -10.91416,-1.17821 -17.87695,2.0317 -21.24023,9.46487 -47.13637,9.7309 -69.5,4.125 -1.2288,-0.30599 -1.2288,-0.30599 -2.48242,-0.61816 -38.56326,-9.84869 -77.55609,-31.72467 -102.51758,-63.38184 -0.52207,0.94359 -1.04414,1.88719 -1.58203,2.85937 -5.19687,9.15566 -10.93102,16.75191 -18.41797,24.14063 -1.10988,1.10795 -1.10988,1.10795 -2.24219,2.23828 -16.67594,15.72914 -38.34636,22.51636 -60.93359,21.98828 -35.16184,-2.08313 -35.16184,-2.08313 -44.56641,-12.07812 -2.26178,-3.86329 -2.11803,-7.83333 -1.25781,-12.14844 4.96617,-5.67563 10.94746,-6.9936 18.1875,-7.875 10.68989,-1.58459 19.63591,-4.34142 26.34766,-13.13672 5.63852,-9.25095 4.56622,-20.85343 2.32959,-31.06982 -4.03513,-16.32155 -11.26427,-31.3837 -18.31006,-46.56592 -15.0235,-32.39678 -28.18729,-65.01941 -35.36719,-100.16504 -0.18281,-0.89155 -0.36561,-1.7831 -0.55396,-2.70166 -0.6046,-3.15467 -1.13051,-6.31321 -1.63354,-9.48584 -0.12528,-0.78755 -0.25056,-1.57509 -0.37964,-2.38651 -2.17087,-13.99332 -3.09989,-27.71143 -3.01147,-41.86764 0.0162,-3.07523 -4e-5,-6.14917 -0.019,-9.22437 -0.0126,-12.9047 0.28819,-26.15558 4.41016,-38.52148 -1.2375,-0.14115 -1.2375,-0.14115 -2.5,-0.28516 -4.17355,-0.85241 -7.66596,-2.33557 -11.5,-4.15234 -0.74041,-0.34982 -1.48081,-0.69964 -2.24365,-1.06006 -10.25481,-5.01866 -19.30545,-11.85634 -27.7564,-19.50244 -0.42732,0.89912 -0.42732,0.89912 -0.86328,1.81641 -2.40698,4.62371 -5.58049,7.93596 -9.8125,10.875 -0.62431,0.43642 -1.24862,0.87285 -1.89185,1.32251 -0.47268,0.3254 -0.94536,0.65081 -1.43237,0.98608 0.43313,1.89686 0.43313,1.89686 0.875,3.83203 0.37517,1.66012 0.75016,3.32028 1.125,4.98047 0.19078,0.83338 0.38156,1.66676 0.57813,2.52539 0.18046,0.80244 0.36093,1.60488 0.54687,2.43164 0.16758,0.73839 0.33516,1.47678 0.50781,2.23755 0.36719,1.99292 0.36719,1.99292 0.36719,4.99292 0.81791,0.23783 0.81791,0.23783 1.65234,0.48047 14.40193,4.45598 25.83634,13.30443 33.34766,26.51953 2.92233,5.90123 4.31142,12.03012 5.375,18.49609 0.12643,0.76478 0.25286,1.52955 0.38312,2.31749 1.81101,11.33242 3.0992,22.7402 4.48846,34.13008 2.46059,20.15274 5.09834,40.20278 8.75342,60.18134 3.96672,21.90212 6.36259,41.29608 -5.97266,61.08984 -6.7326,9.24923 -15.65557,14.44965 -26.02734,18.78516 -0.66,0 -1.32,0 -2,0 0.19336,1.01578 0.38672,2.03156 0.58594,3.07812 0.12479,0.66089 0.24959,1.32178 0.37817,2.00269 0.27563,1.45513 0.55415,2.90972 0.83545,4.36377 0.84142,4.40616 1.47345,8.78792 2.01294,13.24292 0.60224,3.77677 1.10083,5.83663 4.125,8.25 1.01063,0.68062 2.02125,1.36125 3.0625,2.0625 2.78939,3.44024 3.60813,6.4202 3.40625,10.88672 -1.25736,6.54067 -5.81295,11.08106 -11.12109,14.74219 -11.09887,6.65932 -23.4634,9.9106 -36.03516,12.49609 -0.76047,0.15864 -1.52093,0.31727 -2.30444,0.48071 -16.07294,3.15426 -31.9805,3.80094 -48.32056,3.76929 -1.58573,-8.2e-4 -1.58573,-8.2e-4 -3.20349,-0.002 -28.130919,-0.0661 -66.016299,-0.96779 -87.421509,-22.373 -3.34445,-3.90186 -3.51388,-7.60094 -3.35156,-12.56641 0.52493,-3.63371 1.94783,-5.70504 4.35156,-8.43359 0.84458,-0.57976 1.68916,-1.15951 2.55933,-1.75684 3.12132,-2.86873 3.29305,-4.59587 3.80395,-8.75879 0.24653,-1.87558 0.24653,-1.87558 0.49805,-3.78906 0.14888,-1.30195 0.29777,-2.6039 0.45117,-3.94531 0.16791,-1.33098 0.33781,-2.66172 0.50977,-3.99219 0.41222,-3.25068 0.80395,-6.50252 1.17773,-9.75781 -0.93336,-0.29947 -1.86672,-0.59893 -2.82837,-0.90747 -12.42739,-4.28085 -21.39698,-13.57661 -27.17163,-25.09253 -8.00947,-19.23292 -5.82914005,-39.45633 -2.34351,-59.60791 1.67931,-9.78649 3.06477,-19.59227 4.31617,-29.44287 0.0857,-0.67329 0.17133,-1.34657 0.25959,-2.04026 0.78655,-6.19167 1.56468,-12.38439 2.33147,-18.57855 1.60739,-12.97621 3.22498,-25.9343 5.53784,-38.80697 0.15619,-0.87605 0.31237,-1.7521 0.47328,-2.6547 2.93754,-15.64727 10.45165,-27.93234 23.35875,-37.26718 5.03995,-3.34644 11.88302,-7.60156 18.06641,-7.60156 0.18563,-1.63969 0.18563,-1.63969 0.375,-3.3125 0.42532,-3.47038 1.02537,-6.87977 1.6875,-10.3125 0.31297,-1.79158 0.62553,-3.58324 0.9375,-5.375 0.20625,-1.05188 0.4125,-2.10375 0.625,-3.1875 -0.89154,-4.01195 -3.37212,-5.61301 -6.32812,-8.35938 -11.43373,-12.21153 -15.67708,-29.25767 -15.58985,-45.53515 0.53062,-7.0961 1.89629,-15.59803 5.38184,-21.88062 1.06199,-2.37469 0.98008,-3.49442 0.55957,-6.03344 -3.12951,-22.72837 -0.1588,-42.75534 13.29687,-61.75 13.8389,-17.82776 33.52641,-30.94514 55.998049,-34.87891 6.41705,-0.78727 12.84995,-0.85554 19.30664,-0.875 0.6691,-0.005 1.33821,-0.009 2.02759,-0.0142 12.90975,-0.0348 25.8125,1.28904 37.47241,7.20166 0.70971,0.34813 1.41942,0.69625 2.15063,1.05493 9.29172,4.69175 16.94143,10.9527 24.57203,17.96851 21.25593,19.25189 40.10432,28.11587 68.52734,30.28906 0.049,-0.76441 0.098,-1.52883 0.14844,-2.31641 0.40752,-5.83888 0.96046,-11.58557 1.85156,-17.37109 1.60536,-11.3573 1.67991,-22.86081 2,-34.3125 -1.34929,-0.0684 -1.34929,-0.0684 -2.72583,-0.13818 -35.87354,-1.94707 -67.29763,-16.34242 -92.63354,-41.92432 -1.64063,-1.93746 -1.64063,-1.93746 -3.53125,-4.74996 -5.30194,-7.85472 -10.17679,-11.31412 -18.44922,-15.33984 -10.89533,-5.33367 -18.12449,-13.73259 -22.32422,-25.07422 -1.56597,-4.92889 -1.83619,-9.56556 -1.77344,-14.71094 0.008,-0.87954 0.0166,-1.75909 0.0251,-2.66528 0.31029,-11.90279 4.93638,-19.52249 12.99829,-28.08081 10.86281,-10.20041 25.95187,-13.67234 40.41411,-14.31641 1.60295,-0.0793 1.60295,-0.0793 3.23828,-0.16016 15.63511,-0.40725 31.38637,2.74861 44.76172,11.16016 -0.0464,-1.2607 -0.0928,-2.52141 -0.14062,-3.82031 -1.05781,-41.79949 15.47213,-83.540439 44.09399,-113.970949 1.34438,-1.407226 2.69542,-2.808072 4.04663,-4.20874 0.78762,-0.850781 1.57523,-1.701563 2.38672,-2.578125 24.2678,-25.511274 59.24042,-39.1625411 93.61328,-43.4218749 0.76321,-0.096438 1.52641,-0.192876 2.31274,-0.2922363 17.3177,-1.97339147 35.49502,-1.63496947 52.68726,1.2922363 z"
     fill="#543e20"
     id="path4" />
  <path
     d="m 389.20529,20.366901 c 0.82254,-0.0033 1.64508,-0.0067 2.49254,-0.01009 1.73547,-0.005 3.47096,-0.0074 5.20644,-0.0072 2.60897,-0.0022 5.21751,-0.02031 7.82641,-0.03931 37.86484,-0.132399 73.72841,12.631292 101.75195,38.224609 0.78633,0.703828 1.57266,1.407656 2.38282,2.132812 32.14685,30.303305 40.64516,73.868338 48.26904,115.419918 6.52564,35.47583 15.26293,70.52737 37.41455,99.75977 1.93359,2.6875 1.93359,2.6875 2.93359,5.6875 -1.29357,0.2765 -1.29357,0.2765 -2.61328,0.55859 -22.54861,5.35738 -40.50904,17.11408 -56.96289,33.06885 -1.25407,1.20892 -2.5325,2.39246 -3.81445,3.57178 -10.86127,10.25569 -19.27585,23.02462 -26.58008,35.97705 -0.67325,1.19288 -1.35397,2.38158 -2.04297,3.56543 -22.13184,38.06202 -31.39044,84.19492 -20.98633,127.2583 0.17661,0.74894 0.35321,1.49789 0.53516,2.26953 5.20167,21.38464 15.54131,41.626 29.36694,58.69702 3.0979,3.84263 3.0979,3.84263 3.0979,6.03345 -0.95084,0.1049 -0.95084,0.1049 -1.92089,0.21191 -24.43826,2.14806 -24.43826,2.14806 -43.75879,15.92481 -4.46745,6.30465 -5.44463,13.03027 -5.44971,20.60498 -0.002,0.66056 -0.004,1.32112 -0.005,2.00169 -0.004,2.18713 -0.001,4.37417 0.002,6.5613 -0.001,1.54703 -0.002,3.09406 -0.004,4.64109 -0.003,4.12573 0.002,8.25141 0.008,12.37713 0.004,2.54872 0.006,5.09745 0.007,7.64617 0.0145,19.11675 0.0436,38.23233 0.55881,57.34342 0.0196,0.74659 0.0391,1.49318 0.0593,2.26239 0.0327,25.02784 0.0327,25.02784 11.50323,46.42511 0.75217,0.81404 0.75217,0.81404 1.51953,1.64453 17.27001,16.5977 49.30994,14.74837 71.48047,14.66797 1.50387,-0.002 1.50387,-0.002 3.03812,-0.004 31.6992,-0.0713 63.24217,-2.84008 94.76315,-5.99356 4.7304,-0.46647 9.4641,-0.89439 14.19873,-1.31543 0.47309,0.94359 0.94618,1.88719 1.4336,2.85937 4.47323,8.75058 9.36258,16.48243 15.5664,24.14063 0.53883,0.70383 1.07766,1.40765 1.63282,2.13281 13.10555,16.26669 33.8849,26.58826 53.36718,32.86719 -1,2 -1,2 -3.37109,3 -1.01191,0.33 -2.02383,0.66 -3.06641,1 -0.98871,0.33 -1.97742,0.66 -2.99609,1 -33.24221,9.32093 -64.26948,-2.38513 -95.28833,-13.71118 -1.13462,-0.41242 -2.26923,-0.82484 -3.43823,-1.24976 -1.51026,-0.55373 -1.51026,-0.55373 -3.05103,-1.11865 -2.59102,-0.85513 -5.10394,-1.4519 -7.78882,-1.92041 2.19119,11.18659 6.42276,19.53131 14,28 -39.82006,8.93628 -85.55147,-15.51481 -118.12841,-34.97534 -1.99651,-1.1653 -1.99651,-1.1653 -4.87159,-2.02466 3.03186,13.80425 6.34953,23.19592 17,33 0.66,0.66 1.32,1.32 2,2 -17.28204,8.36228 -44.18149,2.27177 -61.66015,-3.4375 -23.03319,-8.04283 -44.05653,-20.84424 -61.96485,-37.375 -2.31516,-2.13239 -4.68198,-4.19117 -7.0625,-6.25 -3.38103,-2.99883 -6.31692,-6.15533 -9.23437,-9.59766 -11.08476,-13.28252 -11.08476,-13.28252 -25.07813,-22.33984 -0.14695,0.70383 -0.2939,1.40765 -0.44531,2.13281 -4.86956,21.43726 -17.07322,43.14308 -35.88672,55.40625 -12.28377,6.7264 -23.85594,8.8452 -37.66797,8.46094 2.51237,-2.57379 5.08657,-4.9198 7.875,-7.1875 8.74898,-7.6411 13.39666,-17.7922 14.32813,-29.32813 0.45893,-26.77132 -11.23919,-51.33332 -22.52735,-74.9541 -45.32341,-95.48028 -42.1557,-175.41454 -13.98828,-274.71777 8.37896,-29.55331 16.50034,-59.02751 18.3125,-89.8125 0.0846,-1.41007 0.0846,-1.41007 0.1709,-2.84863 0.31551,-5.38227 0.59027,-10.76518 0.8291,-16.15137 53.58047,-9.91352 53.58047,-9.91352 75.5625,3.92578 2.99712,1.32085 4.38894,1.20198 7.4375,0.0742 2.32912,-2.85919 2.32912,-2.85919 1.875,-6.3125 -1.68518,-7.10183 -5.39665,-10.55967 -11.38672,-14.30469 -17.13506,-9.52247 -34.70156,-7.86735 -53.38211,-5.24411 -36.89541,5.11487 -72.2857,4.36642 -103.48117,-18.7012 -1.885,-1.46639 -3.76119,-2.94426 -5.625,-4.4375 -1.019,-0.80438 -1.019,-0.80438 -2.05859,-1.625 -4.44147,-3.64022 -8.51786,-7.75477 -11.94141,-12.375 0,-0.66 0,-1.32 0,-2 1.30711,-0.0387 1.30711,-0.0387 2.64063,-0.0781 12.72144,-0.60578 23.70356,-3.20157 33.35937,-11.92187 8.71332,-9.63396 10.36794,-19.56341 10.20313,-32.22656 -0.23063,-4.28438 -0.68026,-8.51631 -1.20313,-12.77344 1.04342,0.0157 2.08683,0.0314 3.16187,0.0476 3.90812,0.0547 7.81621,0.0889 11.72461,0.11718 1.68463,0.015 3.36922,0.0354 5.05371,0.0615 14.82181,0.7881 14.82181,0.7881 27.55981,-5.60132 4.59462,-8.04058 3.41789,-20.99617 1.96875,-29.88281 -0.66603,-2.36733 -1.43274,-4.51456 -2.46875,-6.74219 -0.29004,-0.63551 -0.58007,-1.27102 -0.8789,-1.92578 -0.97382,-1.93319 -0.97382,-1.93319 -3.1211,-4.07422 -3,-0.91667 -3,-0.91667 -6,0 -5.43437,4.65803 -6.79646,12.14045 -7.40625,18.98437 -0.2718,3.66873 -0.4516,7.33956 -0.59375,11.01563 -6.625,0.125 -6.625,0.125 -10,-1 -1.30905,-38.29815 12.53878,-75.591115 38.43739,-103.784637 24.8739,-26.2903 60.77012,-43.330246 97.28516,-43.382812 z"
     fill="#f7ecca"
     id="path6" />
  <path
     d="m 757.48263,582.28487 c 3.5437,3.98666 4.26861,7.06797 4.57837,12.36939 0.0767,1.23972 0.15341,2.47944 0.23244,3.75673 0.075,1.35508 0.14975,2.71018 0.22435,4.06529 0.0837,1.40612 0.16812,2.81221 0.25328,4.21824 0.22273,3.7126 0.43485,7.42573 0.64485,11.13906 0.21161,3.70746 0.43363,7.4143 0.6546,11.12121 0.70559,11.89198 1.38308,23.78565 2.01758,35.68164 0.0382,0.71246 0.0764,1.42491 0.11574,2.15895 1.02745,19.76609 1.02745,19.76609 -2.72121,25.73949 -10.01682,9.37535 -26.11161,11.78282 -39,15 -0.85868,0.21656 -1.71735,0.43313 -2.60205,0.65625 -39.96593,9.88529 -82.36183,13.99827 -123.39795,16.34375 -0.71896,0.0424 -1.43793,0.0847 -2.17868,0.12839 -13.73697,0.79342 -27.44752,1.05793 -41.20633,1.05691 -3.30994,0.002 -6.61956,0.0205 -9.92944,0.0393 -40.89839,0.10797 -40.89839,0.10797 -52.2168,-8.70117 -5.19356,-5.38694 -6.54199,-12.3461 -6.76587,-19.55664 -0.04,-1.22601 -0.0799,-2.45201 -0.12108,-3.71517 -0.0392,-1.34429 -0.0782,-2.68858 -0.11696,-4.03288 -0.0432,-1.40009 -0.0867,-2.80017 -0.1305,-4.20024 -0.11517,-3.73611 -0.22384,-7.47239 -0.33053,-11.20875 -0.0661,-2.30362 -0.13397,-4.60718 -0.20224,-6.91074 -0.65771,-22.30158 -1.11751,-44.58656 -0.80157,-66.89901 0.5804,0.0873 1.1608,0.17456 1.75879,0.26448 16.78063,2.46069 33.29714,3.26084 50.24121,3.42302 2.44403,0.0333 4.88804,0.0678 7.33203,0.10352 5.88921,0.0835 11.77844,0.15241 17.66797,0.20898 0.33193,0.73751 0.66387,1.47501 1.00586,2.23486 0.4415,0.97695 0.88301,1.9539 1.33789,2.96045 0.43506,0.96438 0.87012,1.92876 1.31836,2.92237 4.34073,9.35157 9.37556,17.77623 19.33789,21.88232 5.37511,0.88567 9.59263,0.64196 14.5625,-1.625 2.75136,-2.68081 3.59366,-4.66209 4.4375,-8.375 4.0047,1.02685 6.97528,2.57803 10.3125,4.9375 7.01123,4.80334 14.14616,7.17239 22.6875,6.0625 3.45204,-0.72573 3.45204,-0.72573 6,-3 1.36737,-2.92119 2.25141,-5.86772 3,-9 3.89442,0.6138 6.95968,1.85556 10.5,3.5625 8.94531,3.79598 17.61432,3.494 26.79297,0.58203 2.50317,-1.67832 2.93212,-3.26513 3.70703,-6.14453 0.0652,-2.93008 0.0652,-2.93008 -0.3125,-5.9375 -0.0993,-0.99902 -0.19852,-1.99805 -0.30078,-3.02734 -0.24713,-1.93956 -0.5448,-3.87377 -0.90698,-5.79517 -0.50689,-3.42334 -0.57753,-6.6566 -0.54224,-10.11499 0.009,-1.15242 0.0181,-2.30484 0.0273,-3.49219 0.0174,-1.30324 0.0174,-1.30324 0.0352,-2.63281 7.25865,-1.26609 14.51782,-2.5292 21.77734,-3.79028 2.46757,-0.42901 4.93502,-0.85869 7.40235,-1.28906 3.55438,-0.61987 7.10918,-1.23729 10.66406,-1.85425 1.09615,-0.19171 2.19229,-0.38341 3.32166,-0.58092 23.97949,-4.15097 23.97949,-4.15097 29.83459,-0.73549 z"
     fill="#efc774"
     id="path8" />
  <path
     d="m 626.48263,341.53487 c 2.20758,1.94536 4.0254,4.15527 5.875,6.4375 0.53029,0.63962 1.06058,1.27923 1.60693,1.93823 4.12729,5.02812 8.0325,10.12602 11.51807,15.62427 0.36803,0.58024 0.73606,1.16048 1.11523,1.7583 37.12924,59.17659 38.23352,121.02095 25.1543,187.55029 -1.77522,9.21545 -2.4631,17.98592 -2.45703,27.37891 8e-5,1.15814 1.6e-4,2.31628 2.4e-4,3.50952 0.0524,7.83737 0.6612,15.11441 2.18726,22.80298 0.38518,2.99682 0.69428,5.99379 1,9 -8.68985,-0.60981 -14.39534,-3.68717 -20.37109,-9.95703 -5.07616,-6.3665 -7.75855,-14.50627 -10.62891,-22.04297 -1.65,0.33 -3.3,0.66 -5,1 -1.97386,8.0323 -2.41308,15.87782 -2.625,24.125 -0.0387,1.24266 -0.0773,2.48531 -0.11719,3.76562 -0.0934,3.03632 -0.17919,6.07265 -0.25781,9.10938 -8.54477,-1.30436 -14.75549,-4.76409 -19.9375,-11.8125 -2.9073,-4.56181 -4.70772,-8.97418 -6.0625,-14.1875 -0.26555,-0.96938 -0.53109,-1.93875 -0.80469,-2.9375 -0.52582,-1.92302 -1.04231,-3.84863 -1.54687,-5.77734 -0.57312,-2.28958 -0.57312,-2.28958 -1.64844,-4.28516 -1.65,0 -3.3,0 -5,0 -5.55646,12.43461 -6.40209,24.57844 -7,38 -4.71875,-0.64844 -4.71875,-0.64844 -7.25,-3.8125 -7.33672,-13.36331 -2.34199,-32.10884 0.5,-46.25 0.23785,-1.18895 0.23785,-1.18895 0.4805,-2.40192 1.41395,-7.0178 2.84664,-14.02546 4.62497,-20.96136 2.79666,-11.22264 3.03563,-22.24966 3.08203,-33.76172 0.006,-0.80411 0.0127,-1.60823 0.0193,-2.43671 0.0965,-19.6163 -2.38477,-40.62494 -13.45676,-57.37579 -0.48211,-0.73863 -0.96422,-1.47727 -1.46094,-2.23828 -0.50789,-0.58137 -1.01578,-1.16274 -1.53906,-1.76172 -0.99,0 -1.98,0 -3,0 -0.32926,9.19873 1.05416,18.174 2.29102,27.26367 1.34852,9.99006 1.97287,19.64803 1.70898,29.73633 -14.2299,-11.13556 -22.25398,-31.42574 -24.61719,-49.10547 -3.14514,-31.997 9.70466,-65.05478 29.8125,-89.57812 7.52648,-8.97388 30.34227,-33.55967 43.80469,-28.31641 z"
     fill="#f7ebcb"
     id="path10" />
  <path
     d="m 132.17013,322.22237 c 1.44802,0.007 1.44802,0.007 2.92529,0.0149 22.81401,0.37166 39.99219,10.04534 56.15625,25.41748 19.00456,18.00141 39.06069,27.51368 65.04346,30.93091 0.69287,0.0917 1.38574,0.18345 2.09961,0.27796 1.69588,0.22441 3.39187,0.44793 5.08789,0.67126 -8.36667,31.75248 -17.07226,63.40082 -26,95 -12.92775,-2.3042 -23.64769,-11.28594 -33,-20 -0.9423,-0.69738 -1.88461,-1.39477 -2.85547,-2.11328 -3.36256,-4.52629 -2.58653,-8.92038 -2.33203,-14.38672 0.044,-2.18087 0.0819,-4.36188 0.11328,-6.54297 0.0176,-1.03947 0.0351,-2.07893 0.0532,-3.1499 0.14843,-19.8448 -10.81057,-40.37744 -23.979,-54.80713 -2.71306,-0.50379 -2.71306,-0.50379 -5,0 -1.15394,2.30788 -1.24299,3.93801 -1.42969,6.50781 -0.0735,0.90493 -0.14695,1.80985 -0.22265,2.74219 -0.14659,1.89278 -0.28737,3.78602 -0.42188,5.67969 -0.56814,6.81769 -1.42565,13.11562 -5.98828,18.50781 -3.51952,2.83832 -6.21195,2.90988 -10.62109,2.83203 -3.7176,-0.43257 -5.59776,-1.74055 -8.31641,-4.26953 -7.98399,-12.48778 -4.99642,-27.11421 -3,-41 -3.15284,-0.33996 -4.54051,-0.35424 -7.09766,1.61719 -9.18832,10.55836 -11.35279,20.66144 -10.90234,34.38281 0.24612,3.02138 0.59917,5.99375 1,9 -3.95347,1.97674 -8.69091,1.42725 -13,1 -6.42888,-2.97633 -9.91964,-8.0676 -12.312499,-14.5625 -1.884509,-9.27896 -0.897202,-18.90377 0.875,-28.10937 0.499062,-2.26092 0.499062,-2.26092 0.4375,-4.32813 -3.499415,0.49992 -5.481092,1.33005 -7.664062,4.14844 -5.050151,8.28424 -6.650242,14.79702 -6.523438,24.41406 6.45e-4,0.93264 0.0013,1.86527 0.002,2.82617 0.02797,4.36071 0.233346,8.34044 1.185547,12.61133 -6.756836,-0.47416 -12.07922,-1.73709 -16.734422,-6.9375 -6.769833,-8.76854 -6.188864,-18.33968 -5.265625,-29.0625 2.542651,-14.79483 13.355267,-27.81409 25.261719,-36.41797 7.163664,-4.93843 14.23992,-8.45468 22.73828,-10.58203 0.6538,-0.17443 1.30759,-0.34885 1.9812,-0.52856 5.93789,-1.47905 11.60058,-1.82088 17.7063,-1.78394 z"
     fill="#f7ebca"
     id="path12" />
  <path
     d="m 156.48263,561.53487 c 25.45707,73.47523 25.45707,73.47523 15.48047,95.30078 -5.30752,9.67677 -12.07716,15.80224 -22.48047,19.69922 -10.75216,2.78299 -21.31979,3.5393 -32.375,3.4375 -0.71601,-0.003 -1.43203,-0.007 -2.16974,-0.0102 -16.829751,-0.11458 -32.285104,-1.2448 -45.310728,-13.11869 -8.633643,-9.1879 -9.957755,-21.17911 -9.667968,-33.28906 1.050512,-17.09552 8.113375,-58.60949 20.523437,-71.01955 1.894016,-0.1236 3.792583,-0.17795 5.69043,-0.20532 1.828907,-0.0299 1.828907,-0.0299 3.694763,-0.0604 1.345559,-0.017 2.69112,-0.0339 4.036682,-0.0506 1.379909,-0.0206 2.759812,-0.0416 4.139709,-0.063 3.651195,-0.0554 7.302445,-0.10464 10.953735,-0.15285 2.94213,-0.0399 5.88418,-0.084 8.82624,-0.12843 12.88642,-0.19416 25.77015,-0.37526 38.65844,-0.33934 z"
     fill="#f2b246"
     id="path14" />
  <path
     d="m 637.48263,310.53487 c 2.13212,1.57645 4.04463,3.20317 6,5 -3.39542,2.26361 -6.26297,2.6486 -10.1875,3.25 -19.35761,3.35984 -37.36944,12.44772 -51.8125,25.75 -0.53834,0.49065 -1.07669,0.9813 -1.63135,1.48682 -14.12954,13.01416 -24.59496,27.97595 -32.36865,45.51318 -0.28069,0.62616 -0.56139,1.25233 -0.85059,1.89746 -4.1684,9.43169 -7.11007,18.99706 -9.14941,29.10254 -0.17878,0.87125 -0.35755,1.74249 -0.54175,2.64014 -1.50949,8.05912 -1.80719,15.92276 -1.77075,24.10986 0.002,0.65953 0.004,1.31905 0.007,1.99857 0.13532,25.82848 7.72141,48.53825 25.67609,67.64791 4.77843,4.70114 10.22207,8.6641 15.62988,12.60352 -5.24908,27.75312 -5.24908,27.75312 -8,34 -2.125,1.36719 -2.125,1.36719 -4,2 -6.07579,-3.74233 -11.37216,-7.9417 -16.60156,-12.79297 -2.0626,-1.89756 -4.17331,-3.67799 -6.33641,-5.45703 -21.24903,-18.68891 -34.09857,-45.53543 -40.0625,-72.75 -0.36738,-1.5082 -0.36738,-1.5082 -0.74219,-3.04688 -8.08178,-38.30543 6.20428,-83.46159 27.03125,-115.54687 2.14501,-3.20416 4.4094,-6.31251 6.71094,-9.40625 0.58781,-0.81211 1.17562,-1.62422 1.78125,-2.46094 24.0441,-31.74242 62.64423,-59.47976 101.21875,-35.53906 z"
     fill="#ae8e4e"
     id="path16" />
  <path
     d="m 749.92013,200.40987 c 13.10713,7.46213 20.36363,19.80395 24.4375,34.0625 5.77626,23.06848 3.23467,49.24005 -8.53906,69.99609 -7.09333,11.51494 -15.59333,21.35927 -28.94263,25.49952 -3.95258,0.93623 -7.78275,1.05592 -11.83081,1.00439 -1.24668,-0.0103 -1.24668,-0.0103 -2.51855,-0.0207 -9.60352,-0.25109 -16.66428,-3.3205 -24.04395,-9.41675 0,-0.66 0,-1.32 0,-2 -0.66,0 -1.32,0 -2,0 -13.78809,-17.86339 -15.81629,-39.34257 -13.375,-61.0625 2.76551,-16.63203 9.32742,-32.1468 20.375,-44.9375 0.59426,-0.68965 1.18852,-1.3793 1.80078,-2.08984 11.84649,-12.77857 28.40738,-18.56647 44.63672,-11.03521 z"
     fill="#ae8e4d"
     id="path18" />
  <path
     d="m 786.04513,400.22237 c 13.95068,8.04632 22.82512,21.67589 27.27466,37.04395 5.78049,22.36629 2.44926,45.62118 -8.677,65.7373 -6.34104,10.73409 -15.98681,19.20418 -28.16016,22.53125 -11.48341,1.25327 -19.57264,-1.14265 -28.6875,-8.0625 -12.78134,-11.03269 -19.12685,-28.47764 -21.3125,-44.9375 -1.52529,-21.35403 1.50891,-42.92719 15.83887,-59.73022 5.01651,-5.62492 10.31271,-10.02087 17.16113,-13.26978 0.77473,-0.36867 1.54945,-0.73734 2.34766,-1.11719 7.93092,-2.63974 16.79105,-1.80513 24.21484,1.80469 z"
     fill="#f6d285"
     id="path20" />
  <path
     d="m 675.85763,175.47237 c 1.40636,0.19073 1.40636,0.19073 2.84113,0.38532 10.3937,1.42648 20.61656,3.04455 30.78387,5.67718 -3.02306,3.2246 -6.17533,5.93695 -9.6875,8.625 -21.77037,17.31294 -33.58871,43.68848 -36.9375,70.9375 -1.53911,18.24127 1.29492,34.77938 5.625,52.4375 -3.43471,-2.68075 -6.31649,-5.30305 -9.0625,-8.6875 -8.17438,-9.47728 -18.40871,-15.46927 -29.60156,-20.71875 -6.09211,-2.91052 -6.09211,-2.91052 -7.06641,-5.64062 -4.17208,-24.67589 0.48007,-48.58404 8.73047,-71.95313 -10.42844,2.12825 -16.13864,9.65428 -21.90674,18.23486 -4.36347,7.04509 -7.60025,14.88867 -10.09326,22.76514 -14.23167,-16.46495 -23.35069,-54.5364 -23,-76 32.76669,-3.59887 66.84467,-0.49991 99.375,3.9375 z"
     fill="#af8f4e"
     id="path22" />
  <path
     d="m 76.357631,729.47237 c 12.420947,4.54412 25.774359,4.41065 38.839839,4.37817 2.65016,-0.003 5.2992,0.0204 7.94922,0.0457 12.71172,0.0475 26.10067,-0.25409 37.83594,-5.67383 4.18241,-1.85251 6.97993,-1.80579 11.39453,-0.75391 3.20006,1.62081 4.89213,3.20598 7.10547,6.06641 1.02593,3.35284 1.42769,6.70953 1.8125,10.1875 0.18079,1.34288 0.18079,1.34288 0.36523,2.71289 0.7649,6.05364 0.9631,12.0026 0.82227,18.09961 -15.86331,9.06475 -37.00702,11.49065 -55,12 -0.85416,0.0272 -1.70833,0.0545 -2.58838,0.0825 -20.26508,0.56067 -41.137625,-0.26054 -60.411619,-7.08252 -1.082812,-0.37769 -2.165625,-0.75539 -3.28125,-1.14453 -2.584896,-0.92364 -5.156059,-1.87223 -7.71875,-2.85547 -0.408853,-8.16192 0.19209,-16.03701 1.25,-24.125 0.163993,-1.38675 0.163993,-1.38675 0.331299,-2.80151 0.122702,-0.87246 0.245405,-1.74491 0.371826,-2.6438 0.104736,-0.78133 0.209473,-1.56267 0.317383,-2.36768 0.967597,-2.73505 2.289318,-3.56292 4.729492,-5.06201 6.164139,-2.62304 9.885737,-1.5347 15.875,0.9375 z"
     fill="#af7534"
     id="path24" />
  <path
     d="m 647.48263,334.53487 c 11.52253,0.61728 22.25924,4.88451 32.90381,9.0603 20.95305,8.19813 44.68489,12.90422 66.37353,4.22876 2.65774,-1.21365 2.65774,-1.21365 4.85157,-2.51562 1.87109,-0.77344 1.87109,-0.77344 3.8789,-0.75391 7.36281,3.62366 11.82315,17.60971 14.96094,24.88672 0.97963,2.93888 1.2599,5.02981 1.03125,8.09375 -0.98098,0.0258 -1.96195,0.0516 -2.97266,0.0781 -19.36085,0.72092 -36.35506,6.14398 -50.36718,20.03125 -3.94354,4.28519 -6.93281,8.75852 -9.66016,13.89062 -0.45891,0.8611 -0.91781,1.72219 -1.39062,2.60938 -4.39027,8.9392 -6.75534,18.63839 -8.60938,28.39062 -1.97234,-2.95852 -2.71888,-5.07129 -3.66406,-8.46094 -0.46962,-1.65104 -0.46962,-1.65104 -0.94873,-3.33545 -0.50104,-1.77141 -0.50104,-1.77141 -1.01221,-3.57861 -8.9449,-30.77487 -21.56149,-61.02116 -41.63281,-86.3125 -1.54604,-2.05214 -2.69314,-3.97648 -3.74219,-6.3125 z"
     fill="#ae8e4e"
     id="path26" />
  <path
     d="m 700.48263,494.53487 c 1.90279,2.85419 3.00616,5.38243 4.25,8.5625 6.73002,16.3134 16.67913,27.46561 32.78516,34.82422 2.64816,1.00191 5.2312,1.87539 7.96484,2.61328 0.64203,0.17443 1.28407,0.34885 1.94556,0.52857 5.98729,1.49367 11.71113,1.81928 17.86694,1.78393 0.9647,-0.003 1.9294,-0.005 2.92334,-0.008 7.8089,-0.11435 15.32936,-0.73665 22.38135,-4.40576 1.88281,-0.89844 1.88281,-0.89844 4.88281,-0.89844 4.79492,26.73674 4.19058,58.75845 -11.12109,82.40625 -0.62004,0.85594 -1.24008,1.71188 -1.87891,2.59375 -0.33,0 -0.66,0 -1,0 -0.0297,-1.00245 -0.0297,-1.00245 -0.0601,-2.02515 0.85977,-27.51527 0.85977,-27.51527 -8.80322,-52.06079 -7.03288,-6.48985 -13.25631,-7.51549 -22.68018,-7.29687 -11.73786,0.61387 -23.36298,3.23824 -34.89404,5.38281 -2.65116,0.4847 -5.30305,0.96536 -7.95508,1.44531 -3.70979,0.6714 -7.41909,1.34465 -11.12632,2.03003 -1.62925,0.30031 -1.62925,0.30031 -3.2914,0.60669 -0.95688,0.17765 -1.91377,0.3553 -2.89965,0.53833 -2.29005,0.37964 -2.29005,0.37964 -4.29005,0.37964 0.54003,-2.4587 1.08196,-4.91696 1.625,-7.375 0.17531,-0.79656 0.35063,-1.59312 0.53125,-2.41382 1.05955,-4.78292 2.15835,-9.55374 3.30469,-14.31665 4.18606,-17.49294 7.39652,-35.03296 9.53906,-52.89453 z"
     fill="#ae8e4d"
     id="path28" />
  <path
     d="m 786.04513,400.22237 c 13.95068,8.04632 22.82512,21.67589 27.27466,37.04395 5.78049,22.36629 2.44926,45.62118 -8.677,65.7373 -6.34104,10.73409 -15.98681,19.20418 -28.16016,22.53125 -11.48341,1.25327 -19.57264,-1.14265 -28.6875,-8.0625 -12.78134,-11.03269 -19.12685,-28.47764 -21.3125,-44.9375 -1.52529,-21.35403 1.50891,-42.92719 15.83887,-59.73022 5.01651,-5.62492 10.31271,-10.02087 17.16113,-13.26978 0.77473,-0.36867 1.54945,-0.73734 2.34766,-1.11719 7.93092,-2.63974 16.79105,-1.80513 24.21484,1.80469 z m -35.5625,24.3125 c -10.6277,15.13097 -13.58769,32.36027 -10.58838,50.48779 2.58652,12.0147 7.62543,23.81542 17.58838,31.51221 6.53404,3.86932 12.57939,3.98996 20,3 9.76245,-3.60642 15.81485,-11.15143 20.25,-20.25 7.45303,-17.41697 8.40758,-36.27791 1.375,-54 -1.87181,-4.28705 -3.80769,-8.02389 -6.625,-11.75 -0.5775,-0.84562 -1.155,-1.69125 -1.75,-2.5625 -5.03362,-5.45309 -10.96821,-8.45719 -18.375,-8.8125 -8.96217,0.13267 -16.51603,5.49934 -21.875,12.375 z"
     fill="#b98138"
     id="path30" />
  <path
     d="m 115.48263,594.53487 c 14.21092,5.73713 25.26519,27.38111 30.9834,40.68457 3.94171,9.61818 4.7187,19.87777 0.9541,29.69043 -3.0273,6.50183 -7.18175,11.84015 -13.9375,14.625 -4.20051,0.50687 -8.39589,0.58328 -12.62475,0.64527 -1.36677,0.028 -2.73328,0.0756 -4.09864,0.14355 -11.2213,0.55556 -11.2213,0.55556 -16.1521,-2.66968 -7.262015,-7.05879 -11.185807,-15.43745 -11.417478,-25.52856 -0.166341,-21.53085 10.263754,-36.56738 23.091308,-53.00342 1.12555,-1.48664 2.16733,-3.03567 3.20166,-4.58716 z"
     fill="#fdd87b"
     id="path32" />
  <path
     d="m 191.48263,540.53487 c 6.39458,4.94127 5.97833,16.37503 6.91797,23.67969 0.17932,1.35928 0.35929,2.71848 0.53987,4.07759 0.38233,2.88071 0.76238,5.7617 1.14055,8.64296 3.39071,25.7972 7.10387,51.48943 11.78833,77.08877 1.16901,6.69252 1.81997,13.10753 1.86328,19.88599 0.0206,0.79922 0.0412,1.59844 0.0625,2.42187 0.0442,6.82173 -1.1283,12.89789 -4.93359,18.65625 -7.08403,7.00786 -16.75076,11.6992 -26.81641,11.67188 -1.42119,0.004 -1.42119,0.004 -2.87109,0.008 -2.69141,-0.133 -2.69141,-0.133 -6.69141,-1.133 -1.32,-5.28 -2.64,-10.56 -4,-16 1.83563,-1.62938 3.67125,-3.25875 5.5625,-4.9375 12.80102,-11.66675 19.91456,-24.74686 20.80859,-42.29687 0.31229,-13.93683 -1.59776,-26.38508 -5.37109,-39.76563 -0.31066,-1.11053 -0.62133,-2.22105 -0.94141,-3.36523 -3.35912,-11.88866 -6.80006,-23.73139 -11.34375,-35.22852 -0.71484,-2.40625 -0.71484,-2.40625 0.28516,-5.40625 1.70703,-1.21094 1.70703,-1.21094 3.8125,-2.375 5.15332,-3.10674 7.9216,-6.04 9.4375,-11.9375 0.2475,-1.21687 0.495,-2.43375 0.75,-3.6875 z"
     fill="#f6dfa6"
     id="path34" />
  <path
     d="m 176.48263,418.53487 c 2,1 2,1 2.61011,2.81836 2.33122,13.04431 0.46621,25.8949 -6.48511,37.18164 -3.31807,4.60195 -6.60334,7.53028 -12.3125,8.59375 -0.92812,0.13406 -1.85625,0.26813 -2.8125,0.40625 -0.098,-0.80824 -0.19594,-1.61648 -0.29687,-2.44922 -0.96495,-8.13806 -0.96495,-8.13806 -5.70313,-14.55078 -3.37777,-2.11565 -6.10033,-2.2625 -10.05029,-2.29053 -1.22162,-0.0128 -2.44324,-0.0255 -3.70188,-0.0387 -1.3167,-0.002 -2.63341,-0.005 -3.99002,-0.007 -1.36996,-0.006 -2.73993,-0.0132 -4.10989,-0.0202 -2.86981,-0.012 -5.73951,-0.0157 -8.60935,-0.0145 -3.66753,2.1e-4 -7.33429,-0.0271 -11.00164,-0.0615 -2.82942,-0.0223 -5.65864,-0.0263 -8.48814,-0.0252 -2.006298,-0.003 -4.012543,-0.0251 -6.018729,-0.0471 -8.858781,-0.0616 -8.858781,-0.0616 -16.03006,4.50445 -2.468653,3.9158 -3.45516,7.42332 -4,12 -9.04787,-6.87638 -14.28312,-15.71154 -16,-27 -0.98489,-13.74742 -0.98489,-13.74742 1.52344,-16.9375 0.7309,-0.52594 0.7309,-0.52594 1.47656,-1.0625 0.74766,0.42152 1.49531,0.84305 2.26562,1.27734 1.47727,0.82178 1.47727,0.82178 2.98438,1.66016 0.97453,0.54527 1.94906,1.09055 2.95312,1.65234 7.410062,3.73608 15.583343,3.01988 23.48438,1.16016 4.829648,-1.00043 7.419079,-0.41258 11.558589,2.20703 4.91803,2.92453 10.8912,2.67477 16.32032,1.47657 3.73296,-1.06259 6.80872,-1.99162 9.99609,-4.2461 4.76963,-2.32366 10.13962,0.39532 14.9375,1.9375 7.77315,1.94329 15.17142,1.16563 22.5,-2.125 2.56208,-1.79803 4.81398,-3.76331 7,-6 z"
     fill="#f7dfa6"
     id="path36" />
  <path
     d="m 41.482631,543.53487 c 0.66,0 1.32,0 2,0 0.219141,0.51949 0.438281,1.03899 0.664062,1.57422 3.415711,7.51179 7.736156,10.98778 15.335938,14.42578 -0.56737,4.76358 -1.528082,9.0176 -3.109375,13.54297 -0.422812,1.2292 -0.845625,2.4584 -1.28125,3.72485 -0.222363,0.64011 -0.444727,1.28022 -0.673828,1.93973 -4.30905,12.44511 -8.20337,24.89557 -10.935547,37.79245 -0.243633,1.11117 -0.487266,2.22235 -0.738281,3.36719 -3.627031,19.39351 -2.340458,38.86858 8.738281,55.63281 3.378643,4.5711 6.60406,7.80452 11.5,10.6875 2.027344,1.40625 2.027344,1.40625 3.5,3.3125 0.553527,5.5216 -0.251045,10.75313 -2,16 -6.261012,2.40052 -13.981174,1.68853 -20.125,-0.625 -8.943624,-4.05236 -16.020769,-8.7219 -19.972656,-17.93359 -5.089135,-19.40921 0.917145,-41.89968 4.350097,-61.19239 0.976371,-5.50817 1.846124,-11.03088 2.685059,-16.56152 0.147034,-0.95721 0.294067,-1.91442 0.445557,-2.90063 1.162869,-7.63345 2.27314,-15.27441 3.382568,-22.91577 0.157271,-1.08246 0.314541,-2.16491 0.476578,-3.28017 0.798305,-5.49767 1.593716,-10.99574 2.384506,-16.49449 0.294962,-2.03997 0.589964,-4.07992 0.88501,-6.11988 0.135251,-0.94674 0.270501,-1.89348 0.409851,-2.86891 0.127315,-0.87776 0.25463,-1.75553 0.385803,-2.65989 0.110069,-0.76542 0.220138,-1.53083 0.333542,-2.31943 0.350727,-2.07879 0.818845,-4.09137 1.359085,-6.12833 z"
     fill="#f6dfa6"
     id="path38" />
  <path
     d="m 372.48263,114.53487 c 5.86684,2.61913 9.48556,7.393 11.94141,13.24219 4.7877,13.73862 5.76995,33.196 0.0586,46.75781 -3.39707,6.51356 -7.79897,12.59966 -15,15 -5.39869,0.63822 -9.85493,0.37646 -14.44141,-2.69531 -7.88966,-6.60438 -10.22955,-17.50305 -11.55859,-27.30469 -0.83651,-12.70845 -0.24416,-28.56814 8,-39 6.41529,-6.52589 12.11522,-6.75846 21,-6 z"
     fill="#543f21"
     id="path40" />
  <path
     d="m 579.60763,648.59737 c 6.75949,6.01848 9.28835,15.59956 10.09375,24.30078 0.34195,8.93334 -1.29422,18.69656 -7.21875,25.63672 -6.18252,5.81698 -10.17263,6.35921 -18.57812,6.27344 -4.30862,-0.3443 -6.32583,-1.25479 -9.42188,-4.27344 -0.50789,-0.45117 -1.01578,-0.90234 -1.53906,-1.36719 -6.87252,-6.80481 -8.66408,-16.46631 -8.89844,-25.82031 0.30157,-9.34878 2.28779,-17.69888 9.10938,-24.47266 8.46378,-7.64995 17.0735,-6.46789 26.45312,-0.27734 z"
     fill="#533d1f"
     id="path42" />
  <path
     d="m 86.342651,483.29436 c 1.221336,0.004 2.442673,0.009 3.701019,0.0135 0.673289,-2.9e-4 1.346577,-5.8e-4 2.040268,-8.9e-4 2.229384,0.001 4.458434,0.017 6.68776,0.0326 1.544132,0.004 3.088272,0.007 4.632412,0.009 4.06728,0.008 8.13441,0.0273 12.20163,0.0494 4.14905,0.0204 8.29812,0.0296 12.44721,0.0397 8.14329,0.0215 16.28647,0.0556 24.42968,0.0977 0.65093,1.24736 1.29552,2.49802 1.9375,3.75 0.53948,1.04414 0.53948,1.04414 1.08985,2.10938 1.83226,4.03245 2.08764,7.48191 2.03515,11.89062 -0.009,0.98484 -0.018,1.96969 -0.0273,2.98438 -0.0116,0.74765 -0.0232,1.49531 -0.0352,2.26562 -1.99872,0.48445 -3.99905,0.96228 -6,1.4375 -1.11375,0.26684 -2.2275,0.53367 -3.375,0.80859 -6.9655,1.44865 -13.72176,1.91962 -20.8125,1.95704 -1.29115,0.009 -1.29115,0.009 -2.60839,0.0173 -1.81526,0.009 -3.63053,0.016 -5.4458,0.0198 -2.72314,0.01 -5.4455,0.0407 -8.16846,0.0723 -24.670612,0.14711 -24.670612,0.14711 -33.589845,-4.31251 1.42264,-22.61507 1.42264,-22.61507 8.860016,-23.24051 z"
     fill="#af7534"
     id="path44" />
  <path
     d="m 63.482631,521.53487 c 0.873984,0.19336 1.747969,0.38672 2.648437,0.58594 16.639375,3.52322 33.046252,4.79543 50.039062,4.72656 0.86803,-8.2e-4 1.73607,-0.002 2.6304,-0.002 15.37155,-0.0335 30.48067,-0.80677 45.46726,-4.47406 3.37288,-0.78291 5.84782,-0.92207 9.21484,0.16406 0.13489,2.26922 0.23194,4.54071 0.3125,6.8125 0.058,1.26457 0.11602,2.52914 0.17578,3.83203 -0.48828,3.35547 -0.48828,3.35547 -2.64453,5.20313 -2.87732,1.16595 -5.63626,2.05698 -8.65625,2.77734 -0.97582,0.23977 -1.95164,0.47953 -2.95703,0.72656 -8.65777,1.73784 -17.15071,1.8275 -25.95703,1.85157 -0.70334,0.003 -1.40668,0.006 -2.13133,0.009 -3.72495,0.0149 -7.44985,0.0242 -11.17482,0.0285 -3.80548,0.005 -7.61059,0.0295 -11.41595,0.058 -2.96353,0.0188 -5.92697,0.0238 -8.89055,0.0254 -1.400742,0.003 -2.801481,0.0109 -4.202159,0.0242 -10.866372,0.0959 -23.228037,0.13297 -32.45863,-6.34778 -1.23005,-2.4601 -1.13314,-4.13173 -1.125,-6.875 -0.0026,-0.86367 -0.0052,-1.72734 -0.0078,-2.61719 0.122574,-2.31447 0.483149,-4.2907 1.132813,-6.50781 z"
     fill="#b17734"
     id="path46" />
  <path
     d="m 740.48263,232.53487 c 3.88946,1.98009 6.88844,4.1288 9,8 0.25,2.6875 0.25,2.6875 0,5 -1.73305,1.73305 -4.26512,1.16802 -6.625,1.25 -5.80129,0.44784 -9.32289,1.55033 -13.375,5.75 -5.01436,6.09855 -6.51839,12.97476 -6.31641,20.75781 0.69747,4.94254 2.82108,8.79218 6.37891,12.24219 3.92814,1.33724 7.48941,1.17305 11.60938,1.00781 0.76828,-0.003 1.53656,-0.005 2.32812,-0.008 1,1 1,1 1.375,4.8125 -0.0253,3.52522 -0.14026,3.94658 -2.75,6.625 -6.18646,3.68242 -12.61861,3.28272 -19.625,2.5625 -6.40067,-2.22954 -10.69339,-5.94333 -14.0625,-11.77734 -4.32491,-10.25364 -4.88249,-23.71982 -1.375,-34.34766 4.36211,-9.83763 11.1682,-16.5226 20.90234,-21.01172 4.18457,-1.42494 8.17317,-1.43649 12.53516,-0.86328 z"
     fill="#533e1f"
     id="path48" />
  <path
     d="m 746.48263,622.53487 c -0.56158,4.20452 -1.53943,7.63267 -3.32031,11.47656 -0.45246,1.00032 -0.90492,2.00063 -1.3711,3.03125 -0.96006,2.08755 -1.92363,4.17347 -2.89062,6.25782 -0.67482,1.4966 -0.67482,1.4966 -1.36328,3.02343 -0.41782,0.90444 -0.83564,1.80888 -1.26612,2.74073 -0.88288,2.76562 -0.88207,3.81775 0.21143,6.47021 1.14231,1.95005 1.14231,1.95005 2.58203,3.86328 0.52014,0.72252 1.04028,1.44504 1.57617,2.18946 0.54592,0.74572 1.09184,1.49144 1.6543,2.25976 3.70991,5.09721 7.16592,10.14916 10.1875,15.6875 -2.96179,1.6711 -5.37071,2.32683 -8.75,2.625 -0.79922,0.0748 -1.59844,0.14953 -2.42187,0.22656 -0.60329,0.049 -1.20657,0.098 -1.82813,0.14844 -2.3413,-3.32781 -4.67333,-6.66194 -7,-10 -0.4473,-0.6368 -0.89461,-1.27359 -1.35547,-1.92969 -2.64453,-3.83791 -2.64453,-3.83791 -2.64453,-6.07031 -0.99,0.495 -0.99,0.495 -2,1 0,6.6 0,13.2 0,20 -7.875,2.25 -7.875,2.25 -12,1 -4.56915,-38.64564 -4.56915,-38.64564 -5,-57 4.14092,-1.23886 7.65859,-2.26311 12,-2 1.24912,7.65084 1.09053,15.27441 1,23 0.66,0 1.32,0 2,0 0.13575,-0.72614 0.27151,-1.45229 0.41138,-2.20044 0.93306,-4.43773 2.35449,-8.68532 3.77612,-12.98706 0.27908,-0.91459 0.55816,-1.82918 0.8457,-2.77148 2.22715,-6.66178 2.22715,-6.66178 6.03711,-8.61524 0.9668,-0.14051 1.9336,-0.28101 2.92969,-0.42578 0.88688,-0.20625 1.77375,-0.4125 2.6875,-0.625 2.3125,-0.375 2.3125,-0.375 5.3125,-0.375 z"
     fill="#523d1f"
     id="path50" />
  <path
     d="m 691.85763,634.40987 c 1.24524,0.0181 2.49047,0.0361 3.77344,0.0547 1.41152,0.0348 1.41152,0.0348 2.85156,0.0703 0.0269,1.64575 0.0463,3.29162 0.0625,4.9375 0.0116,0.91652 0.0232,1.83305 0.0352,2.77734 -0.0977,2.28516 -0.0977,2.28516 -1.09766,3.28516 -1.56114,0.10584 -3.12415,0.18457 -4.6875,0.25 -5.4119,0.49551 -7.66723,1.7402 -11.3125,5.75 -3.50237,6.92049 -3.19767,16.39648 -0.8125,23.6875 1.95701,3.57661 3.02949,4.87135 6.8125,6.3125 1.65,0 3.3,0 5,0 0,-3.63 0,-7.26 0,-11 -1.65,0 -3.3,0 -5,0 -1,-1 -1,-1 -1.09766,-3.28515 0.0326,-2.57162 0.0651,-5.14323 0.0977,-7.71485 5.28,-0.66 10.56,-1.32 16,-2 1.32556,6.05969 2.34352,12.10029 3.125,18.25 0.0875,0.67289 0.17499,1.34578 0.26514,2.03906 0.48222,3.92765 0.69585,7.75532 0.60986,11.71094 -8.26124,4.31838 -15.77577,4.8262 -25,4 -6.1071,-1.91724 -9.3813,-6.31205 -12.77344,-11.52344 -4.56475,-9.21673 -5.09626,-21.29523 -2.1289,-31.10546 3.30837,-7.04905 7.36615,-12.49494 14.66015,-15.51172 3.67003,-0.97278 6.8264,-1.0559 10.61719,-0.98438 z"
     fill="#523d1f"
     id="path52" />
  <path
     d="m 86.482631,697.53487 c 1.007886,0.10611 1.007886,0.10611 2.036133,0.21436 8.180255,0.77913 16.308376,0.93977 24.516596,0.91601 2.18042,-0.005 4.36062,-3e-5 6.54102,0.006 9.67002,0.004 19.26349,-0.42238 28.90625,-1.13672 1.83525,6.19396 3.19571,11.46832 3,18 -2.51974,0.65036 -5.04066,1.29538 -7.5625,1.9375 -0.70447,0.1824 -1.40894,0.36481 -2.13477,0.55274 -14.72457,3.73203 -30.40881,3.65328 -45.365229,1.19726 -0.730657,-0.11763 -1.461314,-0.23525 -2.214111,-0.35644 -4.13051,-0.76154 -7.274435,-1.93091 -10.723389,-4.33106 0.452248,-5.91492 1.15826,-11.352 3,-17 z"
     fill="#af7534"
     id="path56" />
  <path
     d="m 610.98263,643.34737 c 1.37672,0.01 1.37672,0.01 2.78125,0.0195 2.65741,0.16418 5.12501,0.58062 7.71875,1.16797 0.0269,1.64575 0.0463,3.29162 0.0625,4.9375 0.0116,0.91652 0.0232,1.83305 0.0352,2.77734 -0.0977,2.28516 -0.0977,2.28516 -1.09766,3.28516 -3.10043,0.32446 -6.20207,0.51335 -9.3125,0.71875 -2.60347,-0.0127 -2.60347,-0.0127 -3.6875,1.28125 -0.50135,2.37222 -0.50135,2.37222 0,5 2.05337,2.09676 2.05337,2.09676 5,4 5.93472,4.2307 11.02431,8.12426 14,15 0.83753,5.88446 -0.009,10.81631 -3,16 -3.79211,3.99933 -7.10755,5.9138 -12.6875,6.16797 -1.43746,0.0119 -2.87498,0.0182 -4.3125,0.0195 -0.72445,0.0122 -1.44891,0.0245 -2.19531,0.0371 -3.81169,0.0105 -5.55832,-0.0604 -8.80469,-2.22461 -0.29297,-2.38281 -0.29297,-2.38281 -0.1875,-5.125 0.0271,-0.91008 0.0541,-1.82015 0.082,-2.75781 0.0348,-0.69867 0.0696,-1.39734 0.10547,-2.11719 3,-1 3,-1 6,0 1.51767,0.11633 3.04043,0.17496 4.5625,0.1875 0.78504,0.0142 1.57008,0.0284 2.37891,0.043 2.28294,-0.0388 2.28294,-0.0388 4.05859,-2.23047 0.91956,-2.82491 0.91956,-2.82491 0,-6 -2.0328,-1.73912 -4.18131,-3.04663 -6.47266,-4.42578 -4.99978,-3.11424 -10.41013,-6.89438 -12.52734,-12.57422 -0.79917,-5.34664 -1.24935,-10.70134 1.39063,-15.55859 4.61118,-5.46326 8.88281,-7.74056 16.10937,-7.62891 z"
     fill="#523d1f"
     id="path58" />
  <path
     d="m 384.3569,261.14986 c 18.18319,0.34683 36.43455,9.81743 49.15308,22.38892 5.95693,6.4355 9.50633,12.18931 9.21093,21.11328 -0.23828,1.88281 -0.23828,1.88281 -1.23828,3.88281 -3.9727,0.29416 -5.79677,-0.14594 -8.86328,-2.67578 -0.71325,-0.57508 -1.42651,-1.15017 -2.16138,-1.74268 -0.75498,-0.62503 -1.50997,-1.25006 -2.28784,-1.89404 -1.62242,-1.29879 -3.24747,-2.59432 -4.875,-3.88672 -0.81211,-0.6463 -1.62422,-1.2926 -2.46093,-1.95849 -14.56099,-11.40752 -30.76419,-20.72138 -47.35157,-28.84229 -0.0427,-1.66612 -0.0406,-3.33383 0,-5 2.25799,-2.25799 7.75686,-1.37151 10.87427,-1.38501 z"
     fill="#503c20"
     id="path60" />
  <path
     d="m 661.48263,640.53487 c 0.495,5.94 0.495,5.94 1,12 -3.63,0.33 -7.26,0.66 -11,1 0.14438,1.72863 0.28875,3.45727 0.4375,5.23828 1.09711,13.62199 1.86212,27.09597 1.5625,40.76172 -1.81181,0.19402 -3.62448,0.38005 -5.4375,0.5625 -1.514,0.15662 -1.514,0.15662 -3.05859,0.31641 -1.23944,0.0599 -1.23944,0.0599 -2.50391,0.12109 -1.93988,-1.93988 -1.5256,-5.48989 -1.75391,-8.14844 -0.0652,-0.72716 -0.13034,-1.45432 -0.19749,-2.20352 -0.1375,-1.54833 -0.27269,-3.09688 -0.40578,-4.6456 -0.20153,-2.33351 -0.41281,-4.66599 -0.62524,-6.99853 -0.71199,-8.01847 -1.24555,-15.9447 -1.01758,-24.00391 -0.8341,0.0863 -1.66821,0.17257 -2.52759,0.26148 -5.9685,0.61743 -5.9685,0.61743 -8.47241,0.73852 -1,-1 -1,-1 -1.09766,-3.5039 0.0116,-1.00934 0.0232,-2.01868 0.0352,-3.0586 0.009,-1.01191 0.0181,-2.02383 0.0273,-3.06641 0.0116,-0.78246 0.0232,-1.56492 0.0352,-2.37109 26.43431,-3.15862 26.43431,-3.15862 35,-3 z"
     fill="#513c1e"
     id="path62" />
  <path
     d="m 516.20529,643.43721 c 1.65322,0.0174 1.65322,0.0174 3.33984,0.0352 1.65709,0.0135 1.65709,0.0135 3.34766,0.0273 0.85465,0.0116 1.7093,0.0232 2.58984,0.0352 0.7616,16.01176 1.13572,31.97044 1,48 5.61,0 11.22,0 17,0 0,3.96 0,7.92 0,12 -4.11172,0.0247 -8.22342,0.0428 -12.3352,0.0549 -1.39975,0.005 -2.79949,0.0119 -4.19922,0.0205 -2.00803,0.0121 -4.0161,0.0173 -6.02417,0.0222 -1.2097,0.005 -2.41941,0.0105 -3.66577,0.0159 -2.77564,-0.11353 -2.77564,-0.11353 -3.77564,-1.11353 -0.1596,-1.54876 -0.25163,-3.10454 -0.3164,-4.66015 -0.0421,-1.00684 -0.0841,-2.01368 -0.12744,-3.05103 -0.0392,-1.10593 -0.0783,-2.21187 -0.11866,-3.35132 -0.0417,-1.13494 -0.0835,-2.26988 -0.12646,-3.43921 -0.31983,-9.68682 -0.41949,-19.3693 -0.43604,-29.06079 -0.003,-0.71512 -0.005,-1.43023 -0.008,-2.16702 -0.006,-2.02895 -0.003,-4.05793 4e-5,-6.08688 0.001,-1.16991 0.002,-2.33981 0.003,-3.54517 0.17655,-3.60014 0.2389,-3.60649 3.85204,-3.73609 z"
     fill="#4f3a1d"
     id="path64" />
  <path
     d="m 789.48263,439.53487 c -0.66091,6.5702 -2.01945,12.8026 -3.6875,19.1875 -0.23139,0.97131 -0.46277,1.94262 -0.70117,2.94336 -1.8735,7.13689 -4.19574,10.20392 -10.6228,14.08325 -2.17785,1.25751 -4.38402,2.43525 -6.61353,3.59839 -1.12535,0.61005 -1.12535,0.61005 -2.27344,1.23242 -0.72703,0.3835 -1.45406,0.767 -2.20312,1.16211 -0.65307,0.34523 -1.30614,0.69046 -1.97901,1.04615 -1.91943,0.74682 -1.91943,0.74682 -5.91943,0.74682 2.62312,-25.35685 2.62312,-25.35685 9.78467,-32.87305 3.77675,-2.81706 7.8705,-4.66927 12.26221,-6.32373 2.05091,-0.84343 3.86687,-1.86791 5.76562,-3.01025 3.1875,-1.79297 3.1875,-1.79297 6.1875,-1.79297 z"
     fill="#523d1f"
     id="path66" />
  <path
     d="m 518.67013,570.45674 c 2.54169,-0.0804 5.08239,-0.1307 7.625,-0.17187 0.8254,-0.0216 1.65081,-0.0432 2.50122,-0.0654 8.51693,-0.0452 12.39573,3.79425 18.40503,9.47558 2.35214,1.89702 4.43499,2.87272 7.28125,3.83985 -2.81422,1.58367 -4.8601,2.25514 -8.08398,2.29052 -1.19406,0.0191 -1.19406,0.0191 -2.41224,0.0387 -0.85718,0.002 -1.71437,0.005 -2.59753,0.007 -0.90134,0.007 -1.80267,0.0133 -2.73132,0.0202 -1.91653,0.0101 -3.83309,0.0148 -5.74964,0.0145 -2.85985,0.004 -5.71806,0.0404 -8.57763,0.0786 -12.73492,0.0753 -24.47235,-1.47341 -36.84766,-4.44922 0,-3 0,-3 1.02734,-4.55468 2.8987,-2.1238 6.09116,-2.77545 9.53516,-3.57032 1.08898,-0.25765 1.08898,-0.25765 2.19995,-0.5205 6.18522,-1.41995 12.08097,-2.206 18.42505,-2.43258 z"
     fill="#b07735"
     id="path68" />
  <path
     d="m 566.79513,655.40987 c 4.25187,1.77985 5.88967,4.9907 7.6875,9.125 0.72825,3.014 0.92069,5.90688 1,9 0.0754,1.11569 0.0754,1.11569 0.15234,2.25391 0.24352,5.60077 -0.68378,10.6731 -3.15234,15.74609 -2.8747,1.43735 -4.81894,1.38173 -8,1 -4.6401,-4.25342 -5.77859,-9.57226 -6.33594,-15.68359 -0.0791,-7.59866 0.0742,-12.92375 4.33594,-19.31641 2,-2 2,-2 4.3125,-2.125 z"
     fill="#eec674"
     id="path70" />
</svg>
