<?xml version="1.0" encoding="UTF-8" standalone="no"?>
<svg
   version="1.1"
   width="963.56421"
   height="963.56421"
   id="svg150"
   sodipodi:docname="the-painter-geokret.svg"
   inkscape:export-filename="/tmp/avatars/painter.png"
   inkscape:export-xdpi="57.227798"
   inkscape:export-ydpi="57.227798"
   inkscape:version="1.1.2 (0a00cf5339, 2022-02-04)"
   xmlns:inkscape="http://www.inkscape.org/namespaces/inkscape"
   xmlns:sodipodi="http://sodipodi.sourceforge.net/DTD/sodipodi-0.dtd"
   xmlns="http://www.w3.org/2000/svg"
   xmlns:svg="http://www.w3.org/2000/svg">
  <defs
     id="defs154" />
  <sodipodi:namedview
     id="namedview152"
     pagecolor="#ffffff"
     bordercolor="#666666"
     borderopacity="1.0"
     inkscape:pageshadow="2"
     inkscape:pageopacity="0.0"
     inkscape:pagecheckerboard="0"
     showgrid="false"
     inkscape:snap-global="false"
     fit-margin-top="0"
     fit-margin-left="0"
     fit-margin-right="0"
     fit-margin-bottom="0"
     inkscape:zoom="1.2056723"
     inkscape:cx="223.52674"
     inkscape:cy="484.79176"
     inkscape:window-width="2490"
     inkscape:window-height="1376"
     inkscape:window-x="2560"
     inkscape:window-y="27"
     inkscape:window-maximized="1"
     inkscape:current-layer="svg150" />
  <g
     id="g76948"
     transform="translate(-16.313124,-18.83919)">
    <path
       id="path2"
       d="M 451.3125,18.931641 C 423.65183,19.790195 396.85266,26.73086 376,44 l -2.16797,1.789062 C 363.29647,55.366848 357.24704,68.977361 356.55078,83.0625 356.1554,100.01472 363.32971,116.76043 375,129 c -1.49781,3.57541 -3.54687,5.63238 -6.375,8.25 C 357.49006,148.20819 349.09658,161.15253 342,175 l -1.0625,2.05078 C 333.1933,192.16785 325.06354,210.67549 326,228 l -3,-0.875 c -21.66652,-5.31228 -46.80254,-5.94686 -66.80469,4.85156 C 251.23103,235.1202 247.07395,238.78323 243,243 l -1.80469,1.84766 c -9.33048,10.18925 -10.77803,21.87103 -10.5039,35.1875 0.59152,13.02089 7.06185,23.48202 16.33984,32.35937 6.36357,5.31341 6.36357,5.31341 13.96875,7.60547 l 0.82422,1.75391 C 269.52559,336.46582 284.46752,347.96786 298,357 l 1.82031,1.21875 C 312.09775,366.30478 329.95787,377 345,377 c -2.68208,15.96162 -6.96495,31.58634 -20.64258,41.71289 -18.23633,12.68545 -40.96876,18.54835 -63.01367,14.63867 -10.75627,-3.24351 -17.29068,-9.89998 -24.10547,-18.52734 C 224.34059,398.55017 207.42879,381.43473 186,378 c -6.99464,-0.51966 -13.99993,-0.32871 -21,0 l 1,-2 c 0.22447,-1.84101 0.39562,-3.68817 0.54102,-5.53711 l 0.2832,-3.52734 0.29687,-3.84961 c 0.10551,-1.32973 0.21211,-2.65861 0.31836,-3.98828 0.28071,-3.52508 0.5554,-7.05062 0.83008,-10.57618 0.21883,-2.80161 0.44015,-5.60293 0.66211,-8.40429 0.109,-1.37634 0.21782,-2.75448 0.32617,-4.13086 0.26886,-3.41146 0.54293,-6.82213 0.82617,-10.23242 0.51812,-6.29346 0.97476,-12.57677 1.24024,-18.88672 L 171.5,303.54688 c 0.10327,-2.01381 0.17803,-4.02885 0.2168,-6.04493 0.2247,-3.91826 0.44718,-6.50829 3.02343,-9.57226 2.01699,-1.76708 4.10406,-3.33758 6.25977,-4.92969 10.70474,-10.23355 15.72045,-24.6157 16.24609,-39.21875 0.48525,-24.95259 -4.11253,-50.9 -21.3164,-70.00391 -3.99115,-3.67605 -7.51207,-4.31019 -12.82031,-4.13672 -2.30635,0.21653 -2.30635,0.21653 -4.35938,2.17188 -2.06664,3.76424 -3.80736,7.6264 -5.54688,11.55078 -4.33521,9.50089 -12.04979,16.17227 -20.32812,22.26172 C 121.33762,214.12853 111.20645,225.59958 108,240 l -0.55078,2.32031 C 105.43205,254.35314 107.41484,266.20621 113,277 l 1.4668,1.63672 c 3.29776,3.71619 4.98242,6.32225 4.74218,11.3789 -0.21857,1.89255 -0.47362,3.78055 -0.75976,5.66407 l -0.38672,3.12109 c -0.42455,3.36339 -0.89769,6.71794 -1.375,10.07422 -0.46982,3.50492 -0.9309,7.01158 -1.39258,10.51758 -0.31427,2.37609 -0.63376,4.75012 -0.95703,7.125 -1.02692,7.64878 -1.7934,15.28065 -2.38086,22.97461 -0.24246,2.85065 -0.49072,5.70074 -0.74023,8.55078 -0.14367,1.78852 -0.26416,3.57955 -0.36328,5.37109 -0.76174,13.41672 -0.76333,13.41666 -4.25782,17.04297 -3.86644,2.88021 -8.19641,4.6334 -12.5957,6.54297 -2.42481,1.67732 -4.30036,3.44041 -6.4375,5.5 l -1.48047,1.42383 C 84.70422,395.26525 83.35164,396.6322 82,398 l -2.01953,1.98828 c -12.98135,13.68463 -19.38584,33.07614 -19.19922,51.69141 1.01759,15.44563 6.29335,28.0479 17.59375,38.57031 6.54978,5.5827 10.96973,7.84537 19.625,7.75 l -0.0469,3.69336 c -0.055,4.5997 -0.089,9.19889 -0.11719,13.79883 -0.0149,1.97628 -0.0362,3.95352 -0.0625,5.92969 -0.32944,22.29724 -0.3292,22.29675 6.53906,43.26562 l 1.67578,3.32422 c 2.6547,3.94338 5.70406,6.83445 10.01172,8.98828 5.42542,0.36019 9.18331,-0.68635 13.3125,-4.25 4.8896,-4.63333 8.37822,-9.57538 11.1875,-15.6875 l 0.91016,-1.96875 C 144.91963,547.26907 148.40347,538.68274 148,530 l 2.44922,1.05859 3.23828,1.37891 3.19922,1.37109 c 4.67754,1.79003 8.37661,2.33933 13.35156,1.78907 l 2.98633,-0.25586 c 2.04962,-0.18539 4.09691,-0.39873 6.14062,-0.64063 7.41959,-0.56553 7.41911,-0.56602 10.92774,1.92969 1.36125,1.39633 2.67835,2.83761 3.94726,4.31836 C 200.69497,548.47541 211.56433,552.72346 221,555 h 3 l -0.21094,1.98828 c -2.57256,24.5138 -4.35102,49.08297 -6.11523,73.66602 -0.44408,6.1855 -0.89892,12.36946 -1.37305,18.55273 l -0.29101,3.85352 c -0.16377,2.16678 -0.3303,4.33187 -0.50196,6.49804 -1.90494,13.65506 -1.90518,13.65579 1.42969,26.19141 7.01938,5.1571 16.80107,4.82444 25.21484,5.50391 l 3.80078,0.32031 c 2.64812,0.22215 5.29668,0.44248 7.94532,0.6582 3.99636,0.32559 7.99096,0.66243 11.98633,1 2.58915,0.21597 5.17834,0.43148 7.76757,0.64649 l 3.80274,0.31836 c 5.43209,0.44334 10.84658,0.84754 16.29492,1.01171 l 2.54297,0.0859 c 1.49504,0.0415 2.99071,0.0644 4.48633,0.0625 3.52093,0.0948 4.96711,0.40665 7.59375,2.83789 1.62719,2.49121 1.62695,2.49219 3.0332,5.49219 1.28916,2.67944 2.45192,4.57246 4.25,6.875 l 1.42187,1.82617 c 0.92591,1.17185 1.86295,2.33356 2.8125,3.48633 2.28902,3.01537 3.10674,4.85905 3.14454,8.66406 -1.49793,7.60762 -4.01607,15.04128 -6.24024,22.45899 l -1.08008,3.66992 -0.99609,3.32031 C 314.04889,756.79543 313.85386,759.13073 314,762 l -2.53906,-0.47656 c -7.48268,-1.13169 -16.36932,-2.38165 -23.14844,1.60156 -7.28011,5.70433 -8.94049,13.06525 -10.3125,21.875 -0.5576,5.65428 -0.80285,11.32336 -1,17 l -2.79688,0.79297 c -5.35469,2.0178 -8.19512,6.05358 -10.57812,11.14453 L 263,816 l -2.49609,-0.48438 c -19.19604,-2.82483 -36.76336,1.6847 -52.64844,12.65626 C 205.10722,830.33972 202.53853,832.59082 200,835 l -2.39062,2.26562 C 183.32381,851.93991 174.587,875.99924 173.4375,896.25 c 0.0664,4.90986 0.5983,7.7553 3.75,11.5625 11.90154,11.38137 32.52979,21.75113 49.24219,21.52344 3.44318,-0.45002 5.26332,-1.7903 7.57031,-4.33594 l 0.59375,1.60938 0.90625,2.14062 0.84375,2.10938 c 4.8851,6.31376 14.49136,7.66577 21.84375,9.39062 l 3.36133,0.79102 c 13.13397,3.14438 13.13324,3.14389 25.95117,0.27148 2.57138,-2.37852 5.09451,-4.76552 7.5,-7.3125 l 1.35547,1.67969 1.83203,2.19531 1.79297,2.17969 c 4.6032,4.43402 9.6588,4.29956 15.70703,4.25781 l 2.50586,-0.0117 c 5.96247,-0.10625 11.79077,-0.63092 17.68164,-1.55078 l 2.24805,-0.33008 C 342.75383,941.60605 345.68463,940.34613 349,937 c 1.18256,-1.85042 1.18256,-1.85042 1.8125,-3.75 L 352,930 l 3.22266,4.39453 c 4.78636,4.32351 10.37,5.05926 16.58984,5.00391 l 2.2168,0.008 c 1.54297,0.002 3.08598,-0.003 4.6289,-0.0156 2.30873,-0.0159 4.61516,2.8e-4 6.92383,0.0195 15.93203,0.0248 31.50223,-1.96973 44.51953,-12.03516 10.77137,-11.03667 9.06184,-34.28702 9.14844,-48.5625 l 0.0273,-2.85938 c -0.0233,-5.14769 -0.58989,-9.67958 -1.82812,-14.66406 -0.8402,-4.27627 -0.69615,-8.57243 -0.63672,-12.91406 l 0.002,-2.73438 c 0.0327,-4.9857 0.46406,-9.70207 1.18555,-14.64062 0.18674,-3.18829 0.22993,-6.36931 0.25,-9.5625 l 0.0625,-2.49805 C 438.34593,813.71211 437.45081,810.69291 435,806 c 0.18359,-2.48828 0.18359,-2.48828 1,-5 l 0.97266,-3.04297 1.08984,-3.14453 c 1.43345,-3.82603 1.43345,-3.82603 1.9375,-7.8125 12.54415,-0.56541 12.54415,-0.56541 18,1 3.29265,3.16883 4.4002,6.78737 6,11 15.31906,23.73869 41.21926,35.8554 67.84961,41.86914 13.55272,2.67129 27.01343,2.47198 40.77539,2.31836 2.37499,-0.0151 4.74999,-0.0288 7.125,-0.041 5.75021,-0.0326 11.50006,-0.0825 17.25,-0.14648 0.57593,1.88428 0.57593,1.88428 1,4 -1.21484,1.85156 -1.21484,1.85156 -2.9375,3.625 -2.47432,2.28803 -2.47432,2.28803 -3.0625,5.375 l -3.07812,-0.10547 C 570.99443,855.46144 556.80525,860.27073 543,872 l -2.01562,1.57812 c -19.50783,15.82131 -28.63145,43.72063 -31.39063,67.9961 l -0.0937,3.11328 -0.15625,3.13672 c 1.09727,5.31 4.29501,8.5379 8.68945,11.58594 2.26331,1.33322 4.55443,2.54109 6.9043,3.71484 l 2.54297,1.29688 c 16.1884,8.06499 33.70595,11.63327 51.39453,14.76562 l 2.84375,0.50586 c 9.82871,1.68109 19.62556,2.50368 29.59375,2.61914 l 2.58789,0.0879 C 619.45295,982.4562 622.6327,981.7576 627,978 c 1.68645,-1.83993 1.68645,-1.83993 2.875,-3.75 L 632,971 l 1.39062,1.46094 1.85938,1.91406 1.82812,1.89844 c 4.18922,3.76348 7.76789,4.21302 13.25391,4.10937 4.85697,-0.5069 9.5364,-1.48058 14.29297,-2.57031 l 2.67383,-0.59375 C 674.3562,975.50134 681.82771,973.25843 686,967 c 0.39388,-2.32388 0.73486,-4.65794 1,-7 l 2.4375,2 c 4.16806,2.70439 7.72952,2.82233 12.5625,2 10.70982,-3.03311 23.29499,-8.83265 29,-19 1.3055,-3.95124 2.23478,-7.9121 3,-12 l 2.4375,1.5 c 6.01409,2.53225 11.18984,2.22929 17.3125,0.0625 14.27139,-6.34039 28.97738,-18.08938 35.31641,-32.64844 3.63944,-11.35994 -1.02609,-23.94413 -5.62891,-34.49609 -1.44899,-3.4453 -2.30041,-6.71519 -3.125,-10.35547 -3.48528,-14.04013 -11.17892,-29.30237 -21.6875,-39.25 -4.17125,-4.48289 -4.31622,-8.68178 -4.40625,-14.50586 -0.14406,-8.75203 -1.48154,-18.53032 -7.09375,-25.55664 -4.66703,-4.49375 -8.66565,-5.92564 -15.125,-6.125 -4.84334,0.10843 -7.9818,0.6962 -12,3.375 -0.34274,-1.66476 -0.67364,-3.33195 -1,-5 l -0.76172,-2.66797 c -0.33034,-4.61939 1.33976,-7.46128 3.38672,-11.51953 C 725.96477,746.7066 731,735.26711 731,725 l 3.84375,0.4375 c 13.56421,1.40027 27.03138,1.78469 40.65625,1.8125 l 2.5625,0.0156 c 14.22323,0.0689 28.09413,-0.84295 42,-4.07812 l 2.26172,-0.51953 C 840.14379,718.43369 856.70965,711.64563 871,700 l 2.54297,-2.04688 C 892.46866,681.87362 901.57409,660.20658 905,636 c 0.10105,-2.22775 0.17291,-4.45751 0.1875,-6.6875 0.31521,-6.25011 4.00739,-9.69635 8.04688,-14.125 17.74403,-19.74859 23.34311,-47.67978 21.98437,-73.40234 C 933.71308,522.62152 924.95839,504.77029 910.625,491.9375 908.75915,490.35785 907.1852,489.0926 905,488 l -0.0273,-2.20898 C 904.50216,456.50718 899.71937,431.25685 879,409 c -1.63929,-1.36685 -3.29897,-2.7108 -5,-4 1.41289,-3.20208 3.12669,-5.31764 5.5625,-7.8125 C 901.45721,372.94834 906.51913,340.46545 905,309 c -1.82998,-21.5444 -12.92895,-43.16233 -29.39844,-57.11328 -14.32679,-10.39015 -29.9767,-11.05393 -47.03906,-12.44922 -2.27629,-0.18842 -4.55218,-0.37772 -6.82812,-0.57031 -2.04581,-0.17283 -4.09249,-0.34155 -6.13868,-0.50977 C 812.35839,238.03587 809.20576,237.54135 806,237 c -1.81034,-0.16832 -3.62323,-0.31099 -5.4375,-0.42969 L 797.39648,236.35352 794,236.125 c -10.18908,-0.71315 -20.34143,-1.62698 -30.5,-2.6875 C 752.33796,232.27625 741.21445,231.4096 730,231 l 1.17188,-1.76562 c 8.63863,-13.59944 12.19386,-29.38387 9.46093,-45.37696 C 733.37421,152.44623 708.64439,125.29575 684,106 l -2.84375,-2.28906 C 664.85123,90.809802 647.181,80.027247 629,70 l 1.05859,-2.046875 1.37891,-2.703125 1.37109,-2.671875 C 635.29912,57.188794 635.64231,51.873878 635,46 632.47343,40.420487 628.29286,37.727942 623,35 617.3878,33.129266 611.05581,32.795764 605.49219,34.988281 599.36003,38.78082 595.18964,44.223554 591,50 587.36537,49.372635 584.15506,48.377095 580.73828,46.996094 L 577.63672,45.761719 574.3125,44.4375 C 561.06814,39.253627 547.66664,34.920995 534,31 l -2.20312,-0.646484 C 507.49633,23.29713 478.97317,18.073086 451.3125,18.931641 Z"
       style="fill:#543f21;fill-opacity:1" />
    <path
       d="M 0,0 C 0.82661133,0.36657715 1.6532227,0.7331543 2.5048828,1.1108398 20.95537,9.3393586 38.472373,19.391606 55,31 c 0.733799,0.51208 1.467598,1.02416 2.223633,1.551758 C 62.548778,36.281354 67.798162,40.10054 73,44 c 0.56751,0.416367 1.13502,0.832734 1.719727,1.261719 5.02662,3.740444 8.465773,6.811743 9.83496,13.058593 0.358078,1.59582 0.358078,1.59582 0.723389,3.223877 C 85.635428,63.254816 85.635428,63.254816 86,65 c 0.250481,1.153953 0.500962,2.307905 0.759033,3.496826 0.838117,3.933222 1.640422,7.872183 2.428467,11.815674 0.22052,1.097919 0.22052,1.097919 0.445496,2.218018 3.159681,15.799669 5.853517,31.674422 8.512756,47.564692 1.808548,10.8023 3.679378,21.58303 5.729248,32.34229 1.7422,9.1598 3.17309,18.28489 4.125,27.5625 -0.48767,0.2558 -0.97534,0.5116 -1.47778,0.77515 C 96.542593,196.05115 87.40421,201.37254 79,209 c -0.995156,0.86496 -1.990313,1.72992 -3.015625,2.62109 C 69.25961,217.52798 63.40331,223.84997 58,231 c -0.777305,1.01191 -1.554609,2.02383 -2.355469,3.06641 -28.548754,38.00209 -43.042883,87.31135 -36.816162,134.73022 1.334739,8.65357 3.592836,17.06111 6.085693,25.44556 0.846492,2.92922 1.516,5.77031 2.085938,8.75781 -9.333333,2.66667 -18.6666667,5.33333 -28,8 0.26873475,-4.81262 0.54014051,-9.62508 0.8125,-14.4375 0.0425189,-0.75338 0.0850378,-1.50675 0.12884521,-2.28296 0.58710396,-10.37785 1.20750759,-20.75321 1.85943599,-31.1272 0.068124,-1.08945 0.1362479,-2.1789 0.2064362,-3.30137 0.5503124,-8.79951 0.5503124,-8.79951 0.8244782,-13.07213 0.1971123,-3.07193 0.3900528,-6.1441 0.5823669,-9.21634 0.059282,-0.90408 0.1185635,-1.80816 0.1796417,-2.73964 0.2839011,-4.59332 0.487085,-9.18649 0.5835419,-13.7877 0.020816,-0.88938 0.041633,-1.77875 0.06308,-2.69507 C 4.1635195,315.67974 4.1635195,315.67974 1.75,312.875 c -4.6854435,-3.19462 -9.4152394,-3.155 -14.964844,-3.51025 -0.825458,-0.0559 -1.650916,-0.11184 -2.501388,-0.16945 -1.794786,-0.12133 -3.589677,-0.2411 -5.384659,-0.3595 -4.89009,-0.323 -9.779318,-0.65863 -14.66864,-0.99303 -1.014915,-0.0691 -2.029831,-0.1383 -3.075501,-0.20954 -10.430224,-0.71375 -20.855233,-1.49236 -31.279968,-2.28167 -1.867728,-0.14093 -3.735459,-0.28181 -5.603195,-0.42264 -3.80574,-0.28706 -7.611456,-0.57443 -11.41716,-0.86196 -25.835115,-1.951 -51.670215,-3.8887 -77.522615,-5.59821 -1.32836,-0.0879 -1.32836,-0.0879 -2.68357,-0.17757 -8.37938,-0.55343 -16.75923,-1.09906 -25.13999,-1.63127 -3.00537,-0.19137 -6.01056,-0.38552 -9.01573,-0.58009 -2.03916,-0.13072 -4.07857,-0.25694 -6.11803,-0.38292 -1.20155,-0.0777 -2.4031,-0.15541 -3.64107,-0.23547 -1.56327,-0.0982 -1.56327,-0.0982 -3.15812,-0.19846 C -217,295 -217,295 -220,294 c 1.76298,-6.40307 3.92015,-12.58104 6.29297,-18.77734 0.30876,-0.80638 0.61753,-1.61275 0.93565,-2.44356 0.65065,-1.69695 1.30164,-3.39377 1.95293,-5.09047 6.09955,-15.92344 11.65434,-31.80208 16.09506,-48.27725 0.76265,-2.54224 1.70337,-4.9623 2.72339,-7.41138 0.96938,0.0722 1.93875,0.14437 2.9375,0.21875 35.37993,2.50963 68.86337,-2.57211 96.601563,-26.17188 C -85.907805,180.26645 -80.174111,174.06555 -75,167 c 0.567188,0.31969 1.134375,0.63937 1.71875,0.96875 3.723979,1.68344 7.288844,1.85752 11.28125,1.03125 3.28242,-3.20427 3.982231,-4.98718 4.0625,-9.5625 -1.662142,-5.37752 -4.080986,-7.293 -8.78125,-10.00781 C -76.49044,144.32176 -85.803579,141.25241 -97,143 c -2.960032,2.30334 -3.87788,3.2673 -4.5,7 0.61346,3.68079 1.587744,4.73491 4.5,7 2.133092,1.23512 2.133092,1.23512 4,2 -3.819013,11.45704 -16.10348,18.22512 -26,24 -1.26457,0.74057 -1.26457,0.74057 -2.55469,1.49609 -26.73675,14.44866 -60.26676,13.12159 -88.69531,4.81641 -21.75426,-6.72494 -39.45642,-18.78485 -56.75,-33.3125 3.5082,-2.3388 6.8276,-2.95937 10.875,-3.8125 20.33239,-4.57506 39.24637,-14.03096 51.1875,-31.6875 6.25555,-10.79938 8.34808,-20.43121 5.8125,-32.5625 -1.85796,-6.888462 -5.08381,-11.656356 -10.58984,-16.15625 C -212,69 -212,69 -212.26172,65.277344 c 0.157,-1.450752 0.35083,-2.897821 0.57422,-4.339844 0.10611,-0.782219 0.21221,-1.564438 0.32153,-2.370361 C -209.08778,43.539435 -203.94155,29.456166 -197,16 c 0.49371,-0.983555 0.98742,-1.967109 1.49609,-2.980469 C -188.3438,-0.73797054 -173.54247,-23.728765 -159,-31 c 53.08504,-8.637286 111.082306,9.450625 159,31 z"
       fill="#FDECBC"
       transform="translate(557,169)"
       id="path6"
       style="fill:#f7ecca;fill-opacity:1" />
    <path
       d="m 0,0 c 11.615299,-0.11617204 23.115774,0.16300912 34.703125,0.953125 1.552242,0.1015572 3.104514,0.2026435 4.656815,0.3032989 4.113325,0.2683423 8.22611,0.5442203 12.33881,0.8219643 3.450532,0.2321027 6.901355,0.4597255 10.352173,0.6875315 22.506154,1.4870683 45.002907,3.0814128 67.493507,4.7882795 14.71373,1.1138521 29.4321,2.1221656 44.15668,3.0813598 25.34667,1.651936 50.67976,3.458138 76.00965,5.348793 2.71758,0.202466 5.43525,0.403736 8.15295,0.604698 4.28432,0.317061 8.56837,0.637487 12.85223,0.960623 1.58854,0.119411 3.17716,0.23782 4.76586,0.355167 2.18656,0.161813 4.37279,0.327552 6.55897,0.49433 1.22912,0.0923 2.45823,0.184608 3.7246,0.279709 C 288.57416,18.957725 291.2484,19.383806 294,20 c -1.04036,20.03576 -2.1549,40.06676 -3.36459,60.093048 -0.13154,2.181317 -0.2621,4.362693 -0.39167,6.544129 -0.18377,3.087273 -0.37141,6.174287 -0.56015,9.26126 -0.0541,0.918372 -0.10824,1.836743 -0.164,2.782944 -0.89968,14.474769 -0.89968,14.474769 -6.76959,19.756119 -4.48005,4.16774 -7.80739,8.18464 -10.75,13.5625 -2.28072,-3.42108 -3.4461,-6.87372 -4.6875,-10.75 -0.23783,-0.69094 -0.47566,-1.38187 -0.7207,-2.09375 -0.21979,-0.68578 -0.43957,-1.37156 -0.66602,-2.07812 -0.20198,-0.61457 -0.40396,-1.22913 -0.61206,-1.86231 -0.83811,-5.91961 1.0362,-10.47235 3.99487,-15.481445 0.66452,-1.136953 1.32903,-2.273906 2.01368,-3.445313 0.70489,-1.179794 1.40997,-2.35948 2.11523,-3.539062 0.70221,-1.194706 1.40339,-2.390014 2.10352,-3.585938 C 280.42131,80.868039 280.42131,80.868039 283,77 c 0,-1.32 0,-2.64 0,-4 -4.62,0 -9.24,0 -14,0 -0.49629,0.992578 -0.99258,1.985156 -1.50391,3.007812 C 262.9974,85.005208 258.4987,94.002604 254,103 c -1.00403,-3.01209 -1.01665,-4.288614 -0.66016,-7.351563 0.14019,-1.278105 0.14019,-1.278105 0.28321,-2.582031 0.10377,-0.888164 0.20754,-1.776328 0.31445,-2.691406 C 254.68902,83.868253 255.113,77.553769 255,71 c -2.48755,-1.243774 -4.22655,-1.133062 -7,-1.125 -0.88688,-0.0026 -1.77375,-0.0052 -2.6875,-0.0078 C 242.97323,69.84872 242.97323,69.84872 241,71 c -0.43838,2.039503 -0.43838,2.039503 -0.5625,4.534424 -0.11031,1.457265 -0.11031,1.457265 -0.22284,2.94397 -0.0708,1.06545 -0.14168,2.1309 -0.21466,3.228637 -0.0807,1.100819 -0.16133,2.201638 -0.24445,3.335816 -0.26086,3.5893 -0.5083,7.179391 -0.75555,10.769653 -0.1746,2.437154 -0.35006,4.87425 -0.52637,7.31128 -0.42578,5.91165 -0.84142,11.82396 -1.25366,17.73657 -0.30106,4.29704 -0.61094,8.59341 -0.9231,12.88965 -0.44078,6.08275 -0.87426,12.16596 -1.29687,18.25 2.6233,1.31165 4.63699,1.13263 7.5625,1.125 0.99129,0.003 1.98258,0.005 3.00391,0.008 2.38171,0.14157 2.38171,0.14157 3.43359,-1.13281 0.20464,-1.94985 0.34778,-3.90622 0.46484,-5.86328 0.078,-1.1969 0.15598,-2.39379 0.23633,-3.62695 0.15682,-2.53627 0.31049,-5.07273 0.46094,-7.60938 0.11892,-1.80114 0.11892,-1.80114 0.24023,-3.63867 0.10043,-1.65576 0.10043,-1.65576 0.20288,-3.34497 0.37485,-2.76948 0.97231,-4.53972 2.39478,-6.91675 10.95708,32.40271 10.95708,32.40271 10.92969,45.74219 0.0986,4.5682 1.31906,8.07005 3.07031,12.25781 -1.01707,0.61875 -1.01707,0.61875 -2.05469,1.25 C 253.32184,187.46235 236.33357,198.33286 230,211 c -13.36983,0.40731 -26.63252,-0.82193 -39.94922,-1.86328 -2.5417,-0.19502 -5.08343,-0.3896 -7.6252,-0.58379 -5.32497,-0.40789 -10.64968,-0.81907 -15.97416,-1.23335 -6.71633,-0.52256 -13.43312,-1.03889 -20.15009,-1.55315 -24.00671,-1.83855 -48.01077,-3.69349 -71.996398,-5.79103 -12.823143,-1.11927 -25.65541,-2.09324 -38.492432,-3.0379 -4.368593,-0.32284 -8.737084,-0.64702 -13.105469,-0.97266 -1.046144,-0.078 -2.092289,-0.15591 -3.170135,-0.23623 C 8.3521649,194.88785 -2.8238887,193.94735 -14,193 c 0.651241,-17.03008 1.781269,-34.01435 3.02189,-51.01014 0.214802,-2.94798 0.427652,-5.89611 0.640517,-8.84423 0.504298,-6.98436 1.0114791,-13.96851 1.5206985,-20.95251 0.51764,-7.10001 1.0310071,-14.200324 1.5421046,-21.300808 0.44535,-6.185363 0.8931673,-12.370543 1.3428652,-18.555591 0.2656881,-3.654255 0.5306558,-7.308556 0.7933406,-10.963028 C -3.6648066,40.891748 -1.9259281,20.443921 0,0 Z"
       fill="#FCEDCA"
       transform="translate(249,478)"
       id="path8"
       style="fill:#efc774;fill-opacity:1" />
    <path
       d="M 0,0 C 4.2150289,1.5416078 6.3981957,4.6559276 9,8.125 9.6380859,8.9409766 9.6380859,8.9409766 10.289063,9.7734375 15.615126,16.765939 18.557376,23.951249 20.6875,32.4375 c 0.212051,0.794707 0.424102,1.589414 0.642578,2.408203 C 26.945204,56.615389 24.921073,79.799592 15,100 c -0.525937,1.07895 -1.051875,2.15789 -1.59375,3.26953 C 9.6661273,110.57127 5.3785292,116.82278 0,123 c -0.66515625,0.79793 -1.3303125,1.59586 -2.015625,2.41797 C -12.535254,137.67139 -24.996604,147.08504 -39,155 c -0.636313,0.36078 -1.272627,0.72155 -1.928223,1.09326 -10.465647,5.822 -21.41443,9.70676 -32.839843,13.21973 -1.763965,0.54296 -3.520849,1.10893 -5.274903,1.6831 -31.467521,9.65538 -71.830491,8.68188 -101.699221,-5.74218 C -192.1968,159.11842 -204.26032,150.34473 -211,139 c -0.37254,-0.62004 -0.74508,-1.24008 -1.12891,-1.87891 C -220.69285,121.47847 -220.75558,102.7777 -216,86 c 7.15735,-21.979658 20.80707,-39.951687 39,-54 0.52771,-0.408472 1.05542,-0.816943 1.59912,-1.237793 12.68081,-9.78104 12.68081,-9.78104 16.54151,-9.73877 1.95312,0.325521 3.90625,0.651042 5.85937,0.976563 0.0864,0.629062 0.17273,1.258125 0.26172,1.90625 1.29684,7.899996 3.82116,13.176631 9.48828,18.84375 7.59019,5.254749 14.47833,7.504131 23.6875,6.875 5.98527,-0.06039 5.98527,-0.06039 8.39062,1.753906 0.92082,1.225106 1.81621,2.469661 2.6875,3.730469 3.78045,4.815091 9.207788,6.611258 15.113286,7.335937 C -80.84844,62.824404 -72.157508,59.468974 -63,51 c 1.168621,-1.313406 2.315127,-2.646859 3.4375,-4 5.969276,-7.027466 12.780939,-10.904088 21.375,-13.875 C -21.356079,27.260793 -8.8041304,15.334346 0,0 Z"
       fill="#BC8630"
       transform="translate(690,649)"
       id="path10"
       style="fill:#af7534;fill-opacity:1" />
    <path
       d="m 0,0 c 16.347506,7.4685663 27.860151,39.519186 33.885742,55.241699 5.415478,14.610573 9.634348,30.027666 10.106445,45.668461 0.03996,1.16789 0.07992,2.33578 0.121094,3.53906 0.725347,41.21678 -18.594083,76.01214 -46.1210935,105.46094 -1.7296243,1.7288 -3.4720141,3.44493 -5.2265625,5.14843 -0.886875,0.8611 -1.77375,1.72219 -2.6875,2.60938 -1.807449,1.74494 -3.62259,3.48195 -5.445313,5.21094 -5.462504,5.3351 -9.490991,10.53701 -13.052978,17.30371 -6.382373,10.96476 -17.279188,16.38407 -28.525146,21.10254 -10.608205,4.49208 -18.564855,10.46051 -25.992188,19.32812 -3.031002,3.3627 -6.40844,6.9308 -11.058594,7.57031 -4.449733,0.19445 -6.365716,0.22453 -10.011716,-2.58593 -3.83389,-5.15179 -3.67154,-10.49532 -3,-16.6875 3.17059,-11.3934 10.018877,-21.37926 19.531248,-28.36719 1.70927,-1.59134 1.70927,-1.59134 1.8125,-4.20313 -0.120594,-2.60725 -0.120594,-2.60725 -2.34375,-4.42968 -5.855,-1.08426 -9.027761,0.24171 -14.062498,3.375 -10.504,7.52742 -16.57248,19.28657 -19.9375,31.625 -0.34404,2.33178 -0.67949,4.66487 -1,7 -1.63931,1.63931 -3.49744,1.21001 -5.75,1.25 -5.65034,-0.0644 -8.31149,-1.52688 -12.5,-5.25 -3.3486,-3.82697 -3.14752,-8.04073 -3.08985,-12.89844 1.3726,-12.52689 9.47163,-22.87329 18.77735,-30.72656 0.54471,-0.41903 1.08942,-0.83806 1.65063,-1.26978 2.22623,-1.84331 3.78241,-3.30936 4.25611,-6.22143 0.0393,-2.46485 0.0393,-2.46485 -0.34424,-5.88379 -6.73922,-0.56161 -11.31858,0.29828 -17,4 -0.86045,0.54914 -0.86045,0.54914 -1.73828,1.10937 -8.95892,6.67285 -14.70558,18.9541 -19.26172,28.89063 -5.16786,-2.58393 -8.5928,-4.51159 -11,-10 -1.78101,-10.24081 1.31484,-18.61337 7,-27 12.60996,-17.36496 30.67596,-23.20095 50.65381,-28.19458 21.683943,-5.42188 38.368997,-14.05865 54.346188,-29.80542 0.839179,-0.80309 1.678359,-1.60618 2.542968,-2.4336 11.3987,-11.63413 18.261729,-28.49407 18.644532,-44.6914 -0.03939,-3.69674 -0.290002,-6.60709 -2.1875,-9.875004 -3.115499,-1.557749 -6.604439,-1.564806 -10,-1 -1.850898,1.010654 -1.850898,1.010654 -3,3 -0.546416,3.253824 -0.546416,3.253824 -0.625,6.875004 -0.185216,4.15413 -0.434292,8.06916 -1.375,12.125 -6.712398,-10.0686 -3.608034,-28.604761 -1.407959,-39.963627 6.5563,-30.689607 24.637482,-57.283392 50.4353022,-75.1730955 C -2.0078125,-0.08984375 -2.0078125,-0.08984375 0,0 Z"
       fill="#FDECBC"
       transform="translate(698.00781,407.08984)"
       id="path12"
       style="fill:#f7ecca;fill-opacity:1" />
    <path
       d="M 0,0 C 0,0 32.917218,11.252354 76.596935,13.201289 86.467142,14.479858 96.536277,14.22371 106.5,14.246094 l 2.34109,0.0078 c 5.02465,-0.0586 9.45866,-0.707868 14.1511,-2.5 4.27238,-1.604223 6.37204,-1.9870221 10.75781,-0.378906 14.0599,7.822801 20.72759,22.697897 25.33984,37.347656 1.63062,5.871615 2.03873,11.026376 1.97266,17.089844 l -0.0137,2.388672 C 161.03711,70.134148 161.01918,72.067084 161,74 l -16,-1 -0.6875,-5.9375 c -1.16299,-7.518511 -3.34173,-13.091731 -8.75,-18.5 C 130.35509,45.387252 125.07937,43.999325 119,45 c -8.29516,2.56538 -12.98634,7.417375 -17,15 -2.143237,4.715122 -2.040634,8.591062 -1.76782,13.640137 0.60683,11.885688 0.60683,11.885688 -1.759524,16.043457 C 96.406592,91.400687 94.344503,92.695197 92,94 c -15.80464,12.91525 -24.794806,36.1961 -27.6875,55.77344 -2.213089,22.85014 2.403205,45.98194 16.5,64.41406 C 91.305315,226.64895 105.53871,235.89593 122,238 c 11.11836,0.79906 22.25275,0.15256 32.70703,-4.10156 C 157,233 157,233 160,233 c -0.82393,15.92941 -8.51969,31.02263 -20,42 -21.46863,18.38312 -50.177045,27.12104 -78.25,27.16797 l -2.327972,0.0123 c -2.474053,0.009 -4.94796,0.009 -7.422028,0.007 l -2.548645,0.002 C 35.540704,302.18837 21.834252,301.54634 8,300 L 7,282 c 8.686869,1.91622 8.686869,1.91622 11.058594,2.55078 7.219362,1.67048 12.760412,0.0338 18.875,-3.74609 8.354485,-6.22108 14.260594,-18.51836 15.894531,-28.73047 0.645924,-7.79514 0.902455,-15.56474 -3.285156,-22.48047 C 45.911838,225.89011 41.695281,224.05479 37.0625,221.8125 28.164375,217.3375 20.57276,212.46675 13,206 l -2.339844,-1.95703 C 9.0897822,202.71515 7.5409937,201.36181 6,200 7.3959272,196.97304 9.1167368,194.25375 10.968994,191.48682 18.881859,179.5983 24.740064,167.4558 29.375,153.9375 l 1.011963,-2.89795 C 34.764165,137.72214 35.441717,124.02726 35.4375,110.125 l 0.0032,-2.29367 C 35.412364,93.782575 33.757707,80.577445 30,67 L 29.335449,64.57373 C 23.498744,44.011914 14.389049,21.622069 1.1835937,4.6679687 0,3 0,3 0,0 Z"
       fill="#A3853A"
       transform="translate(724,406)"
       id="path14"
       style="fill:#ae8e4e;fill-opacity:1"
       sodipodi:nodetypes="ccccccccccccccccccccccccccccccccccccccccccccccc" />
    <path
       d="M 0,0 C 2,2 2,2 3,5 2.9651953,6.0170703 2.9303906,7.0341406 2.8945313,8.0820313 2.6426586,19.536239 6.8251561,24.269749 14.481445,32.309082 23.814366,42.701334 30.710396,58.098645 30.523437,72.195312 29.555276,77.382927 25.97968,79.845222 22,83 c -0.855938,0.718008 -1.711875,1.436016 -2.59375,2.175781 -1.84336,1.533485 -3.702084,3.048655 -5.574219,4.546875 -1.816023,1.460334 -3.612525,2.945485 -5.3828122,4.460938 C -19.048429,117.59206 -53.708717,133.24029 -89,140 c -1.507357,0.28931 -1.507357,0.28931 -3.045166,0.58447 -8.800404,1.52619 -17.489474,1.81405 -26.392334,1.79053 -0.7434,-2.1e-4 -1.48679,-4.2e-4 -2.25272,-6.4e-4 C -133.49589,142.33817 -145.53884,141.06713 -158,138 c -0.8142,-0.18724 -1.62841,-0.37447 -2.46729,-0.56738 C -191.38741,130.3213 -191.38741,130.3213 -199,123 c -1.7346,-9.05848 4.45996,-19.00341 9.16406,-26.429688 C -181.23894,84.534516 -170.81063,75.383885 -156,72 c 23.54895,-1.975239 48.54453,4.763714 67.375,19 3.092963,2.269184 4.881354,3.486848 8.75,2.9375 1.423125,-0.464062 1.423125,-0.464062 2.875,-0.9375 0.476688,-4.528536 0.726792,-7.733648 -2.125,-11.4375 C -90.358693,70.040091 -107.64484,62.875701 -123,59 c 1,-2 1,-2 2.67969,-2.609375 15.68095,-2.639891 36.338602,0.529826 49.63281,9.359375 3.340952,2.218173 5.60337,3.009838 9.6875,2.25 2.083333,-0.916667 2.083333,-0.916667 3,-3 0.555644,-3.395521 0.555644,-3.395521 -1,-7 C -71.959328,45.122867 -92.639056,43.203187 -109.91846,41.645752 -115.90335,41.096651 -115.90335,41.096651 -117,40 c -0.0406,-1.666171 -0.0427,-3.333881 0,-5 0.61706,-0.184739 1.23412,-0.369478 1.86987,-0.559814 12.74842,-3.877187 24.632006,-8.117767 36.087894,-15.021485 5.001742,-2.883655 8.362334,-3.929053 14.122802,-3.073486 C -61.371468,17.555548 -59.91829,19.919109 -58,23 c 0.711431,1.984518 1.389913,3.982021 2,6 5.786958,2.893479 13.244605,0.733725 19.109375,-1.027344 C -21.627762,22.836909 -7.4431678,14.886336 0,0 Z"
       fill="#BC8730"
       transform="translate(734,802)"
       id="path16"
       style="fill:#aa7833;fill-opacity:1" />
    <path
       d="M 0,0 C 7.2723749,0.48913181 13.896995,2.7004508 20.761719,5.0183105 22.72794,5.6800753 24.699337,6.3241454 26.671875,6.9667969 48.508809,14.195426 48.508809,14.195426 53,20 c 0.09158,3.589097 -0.198306,7.074526 -0.480469,10.652344 0.146899,3.536801 0.146899,3.536801 3.027344,5.683593 3.677121,1.772007 6.876051,2.640692 10.890625,3.351563 1.256836,0.230742 2.513672,0.461484 3.808594,0.699219 C 71.484883,40.589102 72.723672,40.791484 74,41 c 1.682227,0.282305 1.682227,0.282305 3.398437,0.570312 4.284607,0.511179 8.477914,0.620592 12.789063,0.617188 0.85626,6.45e-4 1.71252,0.0013 2.594727,0.002 C 102.25261,42.113607 111.60432,41.119485 121,40 c -0.90324,16.738762 -0.90324,16.738762 -1.5625,21.9375 -0.86543,7.328261 -0.48099,14.195558 0.5625,21.5 1.34821,9.562696 1.74469,18.2376 -1,27.5625 -0.23977,0.99387 -0.23977,0.99387 -0.48437,2.00781 -0.84869,2.74101 -1.84371,4.60498 -4.35938,6.05469 -9.26275,3.39199 -19.486326,3.09939 -29.21875,3.0625 -1.02416,0.004 -2.04832,0.008 -3.103516,0.0117 -5.366428,-0.007 -10.593832,-0.2349 -15.918701,-0.90088 -10.278775,-1.26568 -20.249775,0.56805 -30.339844,2.37524 -7.178508,1.08403 -14.223751,1.54753 -21.481689,1.55689 -0.923573,0.003 -1.847146,0.007 -2.798706,0.0101 -1.9463248,0.005 -3.8926581,0.007 -5.8389893,0.007 -2.9203993,0.002 -5.84041031,0.0203 -8.7607422,0.0393 -15.5144075,0.0484 -30.4250335,-0.95435 -45.5078125,-4.84961 -1.01135,-0.2587 -2.0227,-0.5174 -3.064697,-0.78394 C -67.022404,115.55875 -88.628674,109.37133 -100,98 c 0.66591,-11.387061 9.800797,-23.691148 18,-31 12.323522,-9.485267 25.607928,-13.094007 41,-12 17.371043,2.723551 33.2080348,10.295664 46.375,21.90625 0.5291602,0.465754 1.0583203,0.931509 1.6035156,1.411377 1.4345487,1.2916 2.8385382,2.616911 4.2402344,3.944092 2.760633,2.082399 2.760633,2.082399 6.5,1.632812 C 21.053995,83.276823 21.053995,83.276823 23,81 23.711807,77.757322 23.44486,75.752092 21.75,72.886719 11.919292,59.710839 -2.2254027,50.774527 -17,44 c 1.151734,-2.468 2.047836,-4.047836 4,-6 10.4473691,-2.735148 20.570198,4.828135 29.15625,9.84375 5.23954,3.237918 10.075822,6.790288 14.773437,10.773437 C 33.333436,60.22271 35.130166,60.741668 38,61 40.30504,59.668467 40.30504,59.668467 42,58 42,51.830255 39.767291,48.739553 35.5625,44.332031 24.993527,34.713622 12.525691,28.317903 -1,24 -1.029098,20.750019 -1.046832,17.500071 -1.0625,14.25 -1.07088,13.329609 -1.079258,12.409219 -1.087891,11.460938 -1.091111,10.571484 -1.094341,9.6820313 -1.097661,8.765625 -1.102901,7.9486816 -1.108135,7.1317383 -1.11353,6.2900391 -1.0029902,4.0603186 -0.62055567,2.1386625 0,0 Z"
       fill="#BC8731"
       transform="translate(299,778)"
       id="path18"
       style="fill:#aa7833;fill-opacity:1" />
    <path
       d="m 0,0 c 12.822051,10.666966 20.147044,25.406775 22.921875,41.742187 1.604837,27.669596 -1.331719,54.575976 -20.4375,76.312503 -9.764579,10.29239 -20.140313,18.50744 -34.9375,19 -9.266811,-0.21551 -15.686082,-3.31591 -22.625,-9.3125 -0.585234,-0.47953 -1.170469,-0.95907 -1.773437,-1.45313 -11.365492,-10.18265 -18.449809,-28.293452 -19.403565,-43.339109 -0.281341,-13.956102 -0.525168,-26.93377 4.177002,-40.207764 0.362227,-1.05832 0.724453,-2.11664 1.097656,-3.207031 4.536825,-11.980294 12.145244,-21.603617 20.902344,-30.7929685 0.55043,-0.6367969 1.100859,-1.2735938 1.667969,-1.9296875 C -35.935482,-7.0482496 -15.416453,-11.308007 0,0 Z"
       fill="#A3853B"
       transform="translate(862.07812,266.25781)"
       id="path20"
       style="fill:#ae8e4e;fill-opacity:1" />
    <path
       d="m 0,0 c 7.1664339,5.3562274 13.594393,11.559831 19.007812,18.6875 7.723145,10.119983 14.42132,18.103531 26.625,22.6875 1.057032,0.409922 2.114063,0.819844 3.203125,1.242187 24.709602,8.332308 51.389553,-0.246351 73.796873,-11.242187 -6.65,20.65 -6.65,20.65 -9,23 C 104.29837,55.154558 94.699066,53.832213 85.390961,53.091064 71.882776,52.032877 58.37248,51.050408 44.820312,50.875 c -1.623251,-0.04544 -1.623251,-0.04544 -3.279296,-0.0918 -4.60911,-0.003 -7.108528,0.04716 -10.982422,2.685547 -3.398366,5.128568 -4.163943,10.621429 -4.611817,16.667725 -0.09995,1.30082 -0.199905,2.60164 -0.302887,3.941879 -0.100204,1.399652 -0.200247,2.799315 -0.30014,4.19899 -0.108606,1.447359 -0.217859,2.89467 -0.327728,4.341934 -0.285899,3.788844 -0.563061,7.578277 -0.838349,11.367905 -0.283071,3.875113 -0.574483,7.7496 -0.865173,11.62415 -0.568016,7.5873 -1.126795,15.17525 -1.679688,22.76367 -11.9061516,-2.2405 -21.58060248,-9.65937 -28.9999995,-19 -4.1897615,-2.49121 -7.3230915,-1.93538 -11.9999995,-1 -0.565899,0.17145 -1.131797,0.34289 -1.714844,0.51953 -10.995047,2.31178 -21.454739,0.78397 -31.285156,-4.51953 -0.110457,-5.611197 0.256692,-10.894113 1.09375,-16.437503 0.16647,-1.148313 0.16647,-1.148313 0.336303,-2.319824 0.351339,-2.415038 0.7105,-4.828834 1.069947,-7.242676 0.241406,-1.649663 0.482296,-3.299403 0.722656,-4.949219 0.586491,-4.017825 1.179994,-8.034557 1.777344,-12.050781 0.659999,0 1.32,0 2,0 0.279726,0.761836 0.559453,1.523672 0.847656,2.308594 4.102754,10.566901 10.583839,21.407154 21.152344,26.691406 5.223365,0.484896 5.223365,0.484896 9.999999,-1.125 1.473763,-2.763305 1.314062,-4.784789 1,-7.875 -1.696341,-2.054692 -1.696341,-2.054692 -4.062499,-3.6875 -9.111228,-7.549712 -15.040098,-18.529169 -16.25,-30.371094 0.380026,-3.576997 1.429933,-4.983884 3.75,-7.691406 3.662549,-4.350665 4.894274,-6.432667 4.765625,-12.339844 -0.09936,-1.99439 -0.09936,-1.99439 -1.203125,-3.910156 -3.556837,-1.778418 -6.251746,-2.150514 -10,-1 -2.511056,1.853311 -4.823532,3.837282 -7.136475,5.930176 -7.238792,6.419113 -16.538996,11.609858 -26.301025,12.319824 -3.926435,-0.275539 -5.528974,-0.790384 -8.5625,-3.25 -4.025485,-5.367312 -5.641637,-9.262813 -5,-16 C -77.920821,8.4480021 -67.328132,-0.98171116 -55.464844,-7.1289062 -36.390218,-16.115744 -16.9182,-11.613814 0,0 Z"
       fill="#FCEBBC"
       transform="translate(204.36719,407.625)"
       id="path24"
       style="fill:#f7ecca;fill-opacity:1" />
    <path
       d="m 0,0 c 11.700906,-0.23205093 23.181217,0.34952859 34.831207,1.4241638 5.073124,0.4677171 10.14848,0.9102768 15.22348,1.3570862 1.090069,0.096655 2.180138,0.193309 3.303238,0.2928925 9.046685,0.7980238 18.09726,1.5428862 27.149887,2.2696075 0.698039,0.056047 1.396077,0.1120943 2.115267,0.1698399 5.585159,0.4480222 11.170515,0.8935572 16.755915,1.3385486 3.330126,0.2653209 6.660206,0.531057 9.990236,0.7975197 2.41507,0.193229 4.8302,0.3855948 7.24542,0.5769043 C 123.0849,8.7442634 129.54438,9.3233097 136,10 c -1.11383,2.803216 -2.24719,5.596287 -3.40234,8.382812 -5.89164,14.291942 -8.78637,27.10275 -8.66016,42.617188 0.005,1.060898 0.009,2.121797 0.0137,3.214844 C 123.96286,66.809956 123.97925,69.404947 124,72 108.32318,71.7792 93.693501,68.774751 79.226562,62.601562 76.482697,61.860238 74.705107,62.209848 72,63 c -0.33,0.33 -0.66,0.66 -1,1 0.15283,3.973587 0.515918,6.359762 2.9375,9.5625 C 79.80483,78.232416 86.288016,81.697743 93,85 c -0.616672,2.460701 -1.242884,4.918265 -1.875,7.375 -0.174023,0.698672 -0.348047,1.397344 -0.527344,2.117187 C 89.226562,99.773437 89.226562,99.773437 87,102 c -5.026552,1.78444 -9.65875,2.28537 -14.945313,2.23047 -0.732902,-4.6e-4 -1.465805,-9.2e-4 -2.220916,-10e-4 -1.537869,-0.003 -3.075735,-0.0108 -4.613556,-0.0233 -2.345651,-0.0183 -4.690906,-0.0205 -7.036621,-0.0203 -1.501306,-0.005 -3.002609,-0.0108 -4.503907,-0.0176 -1.043914,-0.002 -1.043914,-0.002 -2.108917,-0.003 C 47.926342,104.12925 44.545225,103.8591 41,103 40.902031,102.34773 40.804062,101.69547 40.703125,101.02344 39.303577,92.843318 36.634647,87.535031 29.808594,82.644531 23.208582,78.77999 16.036325,75.967319 9,73 7.6467217,72.42154 6.2938194,71.842199 4.9414062,71.261719 3.4854102,70.637168 3.4854102,70.637168 2,70 2.5675921,62.994908 4.0465354,56.658941 6.0625,49.9375 6.3441602,48.976504 6.6258203,48.015508 6.9160156,47.025391 7.6040128,44.681536 8.2987601,42.33992 9,40 c 3.111872,1.499061 5.579537,3.17523 8.25,5.375 5.294633,4.157589 9.845669,7.297092 16.625,8.0625 C 34.90625,53.293125 35.9375,53.14875 37,53 39.604634,49.093049 39.91102,47.631016 39,43 35.981981,39.925628 32.469389,37.539156 29,35 17.310244,25.367924 8.4253261,13.488479 0,1 0,0.67 0,0.34 0,0 Z"
       fill="#FDECBC"
       transform="translate(329,698)"
       id="path26"
       style="fill:#f7ecca;fill-opacity:1" />
    <path
       d="m 0,0 1.875,1.4375 v 2 L 0.25,3.59375 c -15.971327,2.3116394 -32.154364,13.234694 -43.207031,24.707031 0,0 -6.481635,6.57249 -11.542969,11.699219 -23.369074,25.880505 -33.064259,61.21422 -31.833496,95.38477 0.494136,7.23498 2.212201,14.10505 4.208496,21.05273 l 0.933594,3.32422 c 0.652861,2.23972 1.3321,4.46174 2.066406,6.67578 -5.704861,5.67743 -11.634791,10.29773 -18.4375,14.5625 l -2.115234,1.3374 c -5.059676,3.1001 -5.059676,3.1001 -8.447266,3.1001 -2.78237,-6.02354 -4.66562,-12.12429 -6.1875,-18.5625 l -0.50488,-2.10718 c -4.85874,-21.29315 -3.44195,-44.25748 1.69238,-65.33032 l 0.53516,-2.249023 C -103.23394,59.054495 -79.514709,22.525737 -46.125,1.4375 -31.847516,-6.6115512 -14.851703,-7.4258514 0,0 Z"
       fill="#C28D35"
       transform="translate(710.125,378.5625)"
       id="path28"
       style="fill:#ae8e4e;fill-opacity:1"
       sodipodi:nodetypes="ccccccccccccccccccc" />
    <path
       d="m 0,0 c 9.354432,-0.18081213 18.499066,0.35251068 27.804687,1.2773437 1.377079,0.1326193 2.754206,0.2647348 4.131379,0.3963776 2.859253,0.2745454 5.718083,0.5530153 8.576629,0.8348236 3.647292,0.3595431 7.295202,0.7122452 10.943404,1.0624151 3.512248,0.3373739 7.024185,0.6779422 10.536088,1.0188837 1.951707,0.1891221 1.951707,0.1891221 3.942841,0.3820649 C 71.644492,5.5342689 77.331507,6.110442 83,7 81.608021,10.196655 80.008122,12.105764 77.4375,14.4375 60.730849,30.811228 51.03193,54.588191 50.759766,77.797363 50.721598,90.803095 51.717117,103.19955 54,116 c -9.434476,-2.81897 -9.434476,-2.81897 -12.855469,-3.91406 -5.324776,-1.6233 -10.458826,-2.37081 -16.007812,-2.67188 -1.033808,-0.0622 -1.033808,-0.0622 -2.088501,-0.12573 C 21.365743,109.18769 19.682903,109.09321 18,109 16.997815,103.31288 15.998082,97.625338 15,91.9375 14.846158,91.060857 14.692317,90.184214 14.533813,89.281006 11.544085,72.229167 8.632377,55.164456 5.7539062,38.093506 5.4351075,36.208135 5.1161021,34.322799 4.796875,32.4375 4.6448865,31.537659 4.4928979,30.637818 4.3363037,29.710709 3.6297359,25.560674 2.8997467,21.418252 2.0996094,17.285156 1.9587189,16.556916 1.8178284,15.828677 1.6726685,15.078369 1.2960219,13.155207 0.91060133,11.233769 0.52441406,9.3125 0.02167408,6.1369059 -0.03763214,3.2067913 0,0 Z"
       fill="#C38E36"
       transform="translate(666,246)"
       id="path30"
       style="fill:#ae8e4e;fill-opacity:1" />
    <path
       d="M 0,0 C 1.1653125,0.18949219 2.330625,0.37898438 3.53125,0.57421875 4.3459375,0.71472656 5.160625,0.85523438 6,1 3.0216779,4.5594581 0.08199295,7.9605077 -3.3125,11.125 c -17.809854,17.692168 -26.852569,43.443399 -27,68.0625 -0.02666,21.12051 4.539745,39.43308 15.210937,57.73828 C -14,139 -14,139 -14,141 c -24.757646,-0.0552 -24.757646,-0.0552 -31.144043,-4.48828 -3.264041,-3.80132 -4.754673,-8.26204 -6.121582,-13.02344 -0.752352,-2.54919 -1.67566,-4.96248 -2.671875,-7.42578 -8.957126,-22.664884 -11.992652,-48.26837 -2.75,-71.375 0.86787,-1.908796 1.763444,-3.805261 2.6875,-5.6875 0.45375,-0.93457 0.9075,-1.869141 1.375,-2.832031 C -49.158618,29.433015 -44.905181,23.747674 -40,18 c 0.592969,-0.750234 1.185938,-1.500469 1.796875,-2.273437 C -27.019929,2.1060032 -17.501127,-3.0172851 0,0 Z"
       fill="#A4853B"
       transform="translate(797,256)"
       id="path34"
       style="fill:#ae8e4e;fill-opacity:1" />
    <path
       d="m 0,0 c 1.1176172,0.58587891 1.1176172,0.58587891 2.2578125,1.1835937 0.6625781,0.3390235 1.3251563,0.6780469 2.0078125,1.0273438 5.3567236,3.2580938 8.627009,8.2477555 10.992188,13.9726565 1.449749,7.138081 -0.422847,13.78096 -4,20 -6.4982225,9.065747 -14.4806139,14.726492 -25.531251,16.710937 -11.313738,1.32471 -20.310104,0.150014 -29.890624,-6.355469 -5.397937,-4.36366 -8.126618,-8.440693 -8.921875,-15.335937 -0.42385,-9.0386 1.501038,-15.179931 7.105468,-22.2382812 C -34.464832,-3.5551997 -15.512602,-6.854957 0,0 Z"
       fill="#553F10"
       transform="translate(543.74219,702.81641)"
       id="path36"
       style="fill:#543f21;fill-opacity:1" />
    <path
       d="m 467.75,203.8125 c 6.75605,5.54219 9.82708,15.02061 11.00781,23.40625 1.25542,14.41708 -0.28681,29.91075 -9.50781,41.71875 -4.35721,4.55831 -9.8854,8.24619 -16.3125,8.625 -6.54177,-0.93454 -11.01717,-3.02449 -15.25,-8.1875 -5.47373,-8.2789 -6.21798,-17.03266 -6.125,-26.75 0.008,-1.10473 0.0152,-2.20945 0.0229,-3.34766 0.25354,-12.51031 3.23433,-22.89061 12.18017,-32.09375 7.0317,-6.34381 15.33048,-8.52497 23.98438,-3.37109 z"
       fill="#564212"
       id="path40"
       style="fill:#543f21;fill-opacity:1" />
    <path
       d="m 0,0 c 4.8598914,4.9987454 6.4493767,9.6537366 6.6875,16.625 -0.3079538,8.324376 -2.3618451,14.661283 -8,20.875 -9.760676,9.012661 -21.847389,12.258676 -34.832031,12.066406 C -43.810706,48.905107 -49.390237,45.546164 -54.8125,40.25 c -4.569011,-6.050853 -6.020779,-11.490824 -5,-19 C -56.101054,10.332024 -48.763638,4.2043556 -38.917969,-1.2382812 -25.598753,-7.7219749 -12.558532,-7.8141976 0,0 Z"
       fill="#554111"
       transform="translate(590.8125,757.75)"
       id="path42"
       style="fill:#543f21;fill-opacity:1" />
    <path
       d="m 849.125,297.5 c 6.37842,3.57141 10.41349,9.8342 12.40234,16.77734 2.47622,14.26383 0.25013,30.44987 -7.89453,42.60547 C 849.22713,362.59545 845.12585,366.94679 838,369 c -4.99399,0.63618 -8.7474,0.61448 -13.3125,-1.625 -6.90473,-6.10186 -10.99765,-12.34873 -11.91943,-21.7373 C 811.87601,330.66131 813.43514,318.07409 823,306 c 7.01995,-7.89744 15.73634,-13.02634 26.125,-8.5 z"
       fill="#564211"
       id="path44" />
    <path
       d="M 0,0 C 3.807921,2.904714 6.9106387,6.2744023 9.0585938,10.570313 9.677355,18.8678 10.191989,26.633291 5.0585937,33.570312 4.6190234,34.232891 4.1794531,34.895469 3.7265625,35.578125 -1.5308268,42.579104 -10.087916,47.019002 -18.476562,49.242187 c -8.531967,1.135793 -16.229841,1.372715 -23.464844,-3.671875 -1.051875,-0.721874 -2.10375,-1.44375 -3.1875,-2.1875 -5.701385,-5.701384 -8.122176,-10.667304 -8.5,-18.8125 0.331286,-8.099076 2.975398,-12.510346 8.773437,-17.960937 C -32.911682,-3.3228268 -14.14636,-8.3494538 0,0 Z"
       fill="#554111"
       transform="translate(658.94141,742.42969)"
       id="path48"
       style="fill:#543f21;fill-opacity:1" />
    <path
       d="M 0,0 C 4.8463576,3.5148331 9.5584497,8.4433862 10.933594,14.402344 11.712466,21.282381 9.6164003,25.96522 5.4609375,31.289062 0.67118022,36.509105 -5.2891964,40.546359 -12.355469,41.8125 -20.963473,42.162295 -28.554253,39.278834 -35.375,34.195312 -40.574182,28.683939 -40.591643,22.882556 -40.410156,15.683594 -39.795693,9.818259 -36.866485,7.0402828 -32.753906,3.2148438 -23.628732,-4.0738175 -10.581547,-5.6208217 0,0 Z"
       fill="#564111"
       transform="translate(686.06641,692.59766)"
       id="path56"
       style="fill:#543f21;fill-opacity:1" />
    <g
       id="g3477"
       style="fill:#543f21;fill-opacity:1">
      <path
         id="path38"
         style="fill:#543f21;fill-opacity:1"
         d="m 318.70508,534.34961 c -2.9853,0.054 -5.58007,0.80344 -6.04688,3.95117 l -0.30664,3.0957 -0.35351,3.50391 -0.37305,3.83789 c -0.336,3.3891 -0.67224,6.77825 -1.00195,10.16797 -0.27476,2.83409 -0.55041,5.66853 -0.83203,8.50195 -1.29313,12.92363 -2.62196,25.8509 -3.5,38.81055 l -0.16602,2.63672 c -0.21026,2.79257 -0.27111,5.3341 -0.125,8.14453 3,2 3,2 5.41016,2.23047 l 2.65234,-0.043 c 2.74805,-0.0202 4.4738,0.0444 6.9375,-1.1875 l 0.41016,-1.79102 0.22265,-2.33007 0.25391,-2.58789 0.23828,-2.72852 c 0.62542,-6.26822 0.96599,-12.44479 0.90625,-18.74609 L 323,588 h 3 c 0.84888,6.46163 2.09196,12.8174 3.68555,19.13477 l 0.62695,2.42773 c 0.70035,2.91936 1.391,5.72106 2.6875,8.4375 2.53878,2.15044 4.11631,2.87851 7.38672,3.32812 l 2.30078,-0.0781 c 2.55787,-0.0516 4.01373,-0.10061 6.3125,-1.25 0,-4 0,-4 -0.73438,-7.10938 L 347.25,609.25 c -0.92541,-3.47826 -1.83869,-6.95401 -2.92969,-10.38477 C 342.82821,594.25453 341.50478,589.833 341,585 c 0.82865,-2.38112 0.82865,-2.38112 2.5,-4.1875 5.47979,-5.55285 7.13985,-12.72034 7.8125,-20.36328 0.14693,-8.1086 -0.87915,-13.73269 -6.45703,-19.80078 -5.71265,-5.07524 -11.89293,-5.8455 -19.29297,-5.96289 -1.97776,0.002 -4.53552,-0.37794 -6.85742,-0.33594 z m 12.19726,15.33203 c 1.80849,0.0816 2.55281,0.69181 4.53516,2.31836 2.36008,4.53136 2.25461,8.3812 0.98438,13.1875 -2.2972,6.64721 -2.2972,6.64721 -5.42188,8.8125 -3.6875,0.1875 -3.6875,0.1875 -7,0 0.14165,-2.87526 0.28819,-5.75014 0.4375,-8.625 l 0.11914,-2.44922 C 324.78796,558.54849 325.16921,554.31453 326,550 c 2.34965,-0.22593 3.81725,-0.36735 4.90234,-0.31836 z" />
      <path
         id="path50"
         style="fill:#543f21;fill-opacity:1"
         d="m 287.37109,531.76953 -2.93359,0.043 c -6.47918,0.043 -7.49356,0.77509 -9.70117,7.02148 l -0.86914,2.55274 c -3.58621,10.40703 -6.72356,20.93657 -9.76563,31.51367 -0.99628,3.48576 -1.99363,6.97082 -3.00195,10.45313 -0.67312,2.32165 -1.34324,4.64379 -2.01172,6.96679 l -0.95508,3.32422 C 256.36336,599.7501 254.69006,605.6704 254,612 l 1.5,1.5 c 3.43458,2.06075 3.43458,2.06075 10.5,1.5 3,-2 3,-2 4.16797,-5.03906 l 1.01953,-3.58594 1.04297,-3.60156 L 273,600 l 13,-1 c 0.0615,1.98204 0.12643,3.96404 0.20898,5.94531 l 0.10352,2.42969 c 0.0837,2.94473 0.30365,5.68902 0.6875,8.625 3,2 3,2 5.66406,2.23047 l 2.96094,-0.043 c 2.34983,-0.0154 4.64527,0.54223 6.375,-1.1875 0.2166,-5.98764 -0.1909,-11.78892 -0.83789,-17.74023 l -0.36914,-3.24805 c -0.25918,-2.34056 -0.51897,-4.68105 -0.7793,-7.02149 -0.41152,-3.63447 -0.82317,-7.26869 -1.22461,-10.90429 -1.21347,-11.02068 -2.45109,-22.04297 -3.93359,-33.03125 l -0.36719,-2.66016 C 294.12229,539.5161 293.66022,536.83668 293,534 c -3,-2 -3,-2 -5.62891,-2.23047 z M 282,553 h 1 c 0.88071,7.23432 1.12571,14.34184 1.0625,21.625 l -0.0137,3.04297 C 284.0372,580.11201 284.0192,582.55601 284,585 h -9 l 0.76953,-3.19141 C 278.05845,572.2413 280.14374,562.66099 282,553 Z" />
      <path
         d="M 0,0 C 1,1 1,1 1.0195312,2.8554688 0.52771752,8.3953328 -0.53281399,11.638056 -4,16 -5.03125,15.505 -6.0625,15.01 -7.125,14.5 -10.607648,13.046556 -13.198589,12.256246 -17,13 c -6.817315,6.00573 -9.033554,15.246227 -10,24 -1.148319,14.155609 -1.148319,14.155609 4.40625,26.652344 C -20.272247,65.615379 -17.958872,65.671236 -15,66 -15.0116,65.214961 -15.0232,64.429922 -15.03516,63.621094 -15.083755,57.962802 -15.012947,52.571211 -14,47 -14.969375,46.855625 -15.93875,46.71125 -16.9375,46.5625 -20,46 -20,46 -21,45 c -0.125357,-1.600482 -0.175748,-3.207159 -0.1875,-4.8125 -0.01418,-0.872695 -0.02836,-1.745391 -0.04297,-2.644531 C -20.990104,34.890809 -20.341873,33.27535 -19,31 c 2.208055,-0.05445 4.416506,-0.09299 6.625,-0.125 1.229766,-0.0232 2.4595312,-0.04641 3.7265625,-0.07031 C -5.0375281,30.997991 -2.3808836,31.795221 1,33 1.1481404,42.038498 0.86504281,51.001895 0.1027832,60.005615 -0.00861716,61.391949 -0.10598567,62.779473 -0.19018555,64.167725 -0.89873646,75.754219 -0.89873646,75.754219 -3.5776367,78.784668 -5.4335937,79.871094 -5.4335937,79.871094 -9,81 c -0.99,0.33 -1.98,0.66 -3,1 -7.431539,0.671591 -13.911491,0.655145 -20,-4 C -39.054472,71.713263 -43.139284,63.540046 -43.910156,54.101562 -43.939805,53.408047 -43.969453,52.714531 -44,52 -44.03996,51.203359 -44.07992,50.406719 -44.121094,49.585937 -44.538975,32.919841 -41.848852,15.470673 -30.082031,2.9609375 -21.045322,-5.5339185 -10.713538,-5.4707428 0,0 Z"
         fill="#534013"
         transform="translate(479,548)"
         id="path52"
         style="fill:#543f21;fill-opacity:1" />
      <path
         d="M 0,0 C 2.375,1.625 2.375,1.625 4.375,3.625 4.6757812,5.6835937 4.6757812,5.6835937 4.6875,8.0625 4.704258,8.8449609 4.721016,9.6274219 4.738281,10.433594 4.2932587,13.118085 3.5420645,14.021894 1.375,15.625 c -2.25,-0.25 -2.25,-0.25 -5,-1 -4.9310838,-1.262928 -4.9310838,-1.262928 -9.4375,0.5 -2.226773,3.562837 -2.244796,5.337994 -1.5625,9.5 2.464555,4.842023 5.8155698,8.857276 9.5,12.8125 C 1.4316427,44.811898 5.3848517,52.811865 4.8359375,62.796875 3.7088529,69.712207 0.51882264,76.632786 -5.2695312,80.8125 -11.51206,84.474105 -17.941298,84.585556 -24.929687,83.152344 -30.039022,81.542421 -32.879928,79.229637 -35.625,74.625 c 0,-4.653621 0.840776,-7.566061 4,-11 4.60274,0.767123 4.60274,0.767123 6.8125,2.0625 3.519531,1.50837 6.368322,1.240609 10.1875,0.9375 2.166667,-0.833333 2.166667,-0.833333 3,-3 0.568007,-4.949773 0.581345,-8.20724 -2.53125,-12.320313 C -16.073276,49.112344 -18.074009,47.002685 -20.0625,44.875 -27.651163,36.447326 -30.550768,29.767597 -30.097656,18.253906 -29.134375,10.858138 -26.46365,5.6243554 -20.5625,1 -14.05996,-2.8384558 -6.9251441,-2.6267788 0,0 Z"
         fill="#534012"
         transform="translate(426.625,542.375)"
         id="path54"
         style="fill:#543f21;fill-opacity:1" />
      <path
         d="m 0,0 c 1.4031322,0.07090268 2.8056753,0.15411933 4.2075195,0.24707031 0.742349,0.0424786 1.4846979,0.0849573 2.2495423,0.12872315 1.5722402,0.0925903 3.1441774,0.19045307 4.7157902,0.29315185 2.400252,0.15513647 4.801021,0.28973931 7.202636,0.42187499 1.527419,0.092517 3.054766,0.1862286 4.582032,0.28125 0.716789,0.039699 1.433578,0.079398 2.172088,0.1203003 3.624122,0.2492223 6.482407,0.6246247 9.585724,2.5828247 0.553531,11.7061507 0.553531,11.7061507 -3,15.9999997 -3.63,-0.33 -7.26,-0.66 -11,-1 0.02111,1.712923 0.04222,3.425845 0.06396,5.190674 -0.0025,6.630526 -0.477858,13.159571 -1.087402,19.758545 -0.106237,1.179235 -0.212474,2.358471 -0.32193,3.573441 -0.224175,2.466582 -0.451207,4.932906 -0.681,7.398971 -0.351125,3.792793 -0.686169,7.586799 -1.020508,11.381104 -0.220383,2.403084 -0.441702,4.806082 -0.664062,7.208984 -0.09905,1.138378 -0.198093,2.276756 -0.300141,3.449631 -0.149929,1.563469 -0.149929,1.563469 -0.302887,3.158523 -0.08438,0.920889 -0.168766,1.841779 -0.255707,2.790573 -0.142008,0.689553 -0.284016,1.379106 -0.430328,2.089554 -2.816709,1.408355 -4.944532,0.900006 -8.0625,0.625 C 6.5687305,85.609961 5.4846289,85.519727 4.3676758,85.426758 1.715332,85.075195 1.715332,85.075195 0.71533203,84.075195 0.58397994,81.669266 0.52820471,79.306654 0.53173828,76.899414 c 0.001012,-0.751871 0.002024,-1.503742 0.003067,-2.278397 0.0927027,-8.99787 0.94856162,-17.921581 1.83457952,-26.870285 0.286808,-2.896983 0.5624409,-5.79487 0.8361816,-8.693115 0.1784058,-1.862691 0.3574195,-3.725323 0.5371094,-5.58789 0.082334,-0.856275 0.1646676,-1.71255 0.2494964,-2.594773 C 4.4193227,26.574119 4.9406636,22.33092 5.715332,18.075195 4.6499219,17.984316 4.6499219,17.984316 3.5629883,17.891602 2.6438867,17.807812 1.7247852,17.724023 0.77783203,17.637695 -0.59695313,17.515879 -0.59695313,17.515879 -1.9995117,17.391602 -4.284668,17.075195 -4.284668,17.075195 -5.284668,16.075195 -5.4102396,13.765261 -5.4604252,11.45101 -5.472168,9.1376953 -5.4863477,7.8705469 -5.5005273,6.6033984 -5.5151367,5.2978516 -5.1958414,0.83312868 -4.4874809,0.10273109 0,0 Z"
         fill="#534013"
         transform="translate(360.28467,536.9248)"
         id="path58"
         style="fill:#543f21;fill-opacity:1" />
    </g>
    <path
       d="M 0,0 C 2.8501871,1.3384311 5.2931898,2.8575556 7.8007812,4.7578125 18.588126,12.811353 29.330109,20.174507 42,25 c 0.561509,9.774423 -0.950706,18.135917 -7,26 -0.33,0.33 -0.66,0.66 -1,1 C 30.815937,51.94314 28.118538,51.597421 25,51 24.045046,50.82646 24.045046,50.82646 23.070801,50.649414 16.990545,49.424024 10.564749,47.988079 6.3818359,43.114746 3.4775424,38.688443 1.3067723,33.928856 -0.91357422,29.134766 -2.9157222,25.200657 -5.6958579,22.05768 -8.6015625,18.75 -10,17 -10,17 -10,15 c -0.66,0 -1.32,0 -2,0 1.378229,-3.126727 2.9624587,-5.1580254 5.4375,-7.5 C -4.1192676,5.1331186 -1.9211285,2.8251891 0,0 Z"
       fill="#C38E35"
       transform="translate(717,621)"
       id="path60"
       style="fill:#ae8e4e;fill-opacity:1" />
    <path
       d="m 0,0 c 3.7674514,2.3403865 6.0755121,5.3072741 8.0625,9.28125 0.5471487,6.346925 -0.3002995,10.744249 -4,16 -4.89005716,5.362117 -10.7835362,8.970556 -18.121094,9.433594 -1.438613,0.02337 -2.877746,0.02418 -4.316406,0.0039 -0.749912,-0.0076 -1.499824,-0.01515 -2.272461,-0.02295 -6.482882,-0.193667 -11.090651,-1.31236 -15.833008,-5.910645 -3.64964,-4.099455 -4.944271,-7.752813 -4.863281,-13.25 C -40.288534,9.6807388 -36.074412,4.8549976 -31.4375,1.34375 -22.395961,-4.8390671 -9.6719442,-4.4541848 0,0 Z"
       fill="#FCA82E"
       transform="translate(540.9375,711.71875)"
       id="path62"
       style="fill:#f2b246;fill-opacity:1" />
    <path
       d="m 0,0 c 0.16303747,8.3869711 -0.34110469,16.634739 -1.0585937,24.988281 -0.1629129,1.952953 -0.1629129,1.952953 -0.3291169,3.945359 -0.2283608,2.734037 -0.459759,5.467794 -0.6935882,8.20137 -0.2984746,3.490619 -0.5906813,6.981728 -0.8808127,10.47305 -0.2794447,3.356137 -0.5630381,6.711919 -0.8464823,10.067721 -0.1042076,1.246952 -0.2084152,2.493903 -0.3157806,3.778641 -0.1000282,1.165287 -0.2000564,2.330575 -0.3031158,3.531174 -0.086604,1.019391 -0.1732077,2.038783 -0.2624359,3.089065 C -5.008143,71.076824 -5.4741949,74.027766 -6,77 -11.95224,76.709647 -15.086773,74.205805 -19,70 -26.516706,60.584337 -26.950087,49.686067 -26,38 -22.976701,22.746083 -15.136381,10.129883 -2.6015625,1.03125 -1,0 -1,0 0,0 Z"
       fill="#FBEBBC"
       transform="translate(106,403)"
       id="path64"
       style="fill:#f7ecca;fill-opacity:1" />
    <path
       d="M 0,0 C 0.53367187,0.19335938 1.0673437,0.38671875 1.6171875,0.5859375 7.342927,2.5869745 13.031336,3.9408424 19,5 18.05778,12.236076 17.101876,19.470216 16.129849,26.702352 15.678588,30.062893 15.231552,33.423869 14.795166,36.786377 9.411545,78.076208 9.411545,78.076208 1,92 0.34,92 -0.32,92 -1,92 -9.8473197,63.509524 -2.5137207,29.042415 0,0 Z"
       fill="#C28D34"
       transform="translate(120,462)"
       id="path66"
       style="fill:#af7534;fill-opacity:1" />
    <path
       d="m 556,290 c 1.20914,0.37383 2.41828,0.74766 3.66406,1.13281 6.62336,2.29915 13.17899,4.9478 17.33594,10.86719 1.00007,3.62026 0.73258,6.62103 -1.0625,10 -3.03086,1.56431 -5.56218,1.21053 -8.9375,1 -3.47266,-1.20703 -3.47266,-1.20703 -7.0625,-2.8125 -13.2688,-5.55472 -25.4737,-6.5873 -39.78418,-6.72192 -1.13728,-0.0196 -2.27455,-0.0392 -3.44629,-0.0593 -1.5395,-0.0106 -1.5395,-0.0106 -3.11011,-0.0215 C 511,303 511,303 509.17065,301.7207 507.13717,298.73176 507.39152,295.4227 508,292 c 2.33552,-3.54999 4.92309,-4.49963 8.94604,-5.58545 C 529.86832,283.80644 543.60166,286.14791 556,290 Z"
       fill="#544113"
       id="path68"
       style="fill:#543f21;fill-opacity:1" />
    <path
       d="m 0,0 c 3.8295151,2.0168235 6.2472353,4.2477368 7.7695312,8.2773438 1.008358,5.9141892 0.06676,10.3025182 -3.375,15.2109372 -4.63681996,5.104961 -11.3001448,8.435355 -18.1132812,9.160156 -12.671357,0.220034 -12.671357,0.220034 -18.058594,-3.949218 -2.960474,-2.896808 -4.205809,-5.185298 -5.015625,-9.234375 1.044898,-5.921085 4.493615,-9.6418856 9.234375,-13.183594 C -18.936036,0.67658735 -10.443096,-3.38349 0,0 Z"
       fill="#83782D"
       transform="translate(578.23047,763.72266)"
       id="path70"
       style="fill:#efc774;fill-opacity:1" />
    <path
       d="m 0,0 c 2.8078019,1.7548762 5.0974586,3.6130837 7.4375,5.953125 0.7700173,4.476845 0.4349306,8.112742 -1.5625,12.1875 -5.25071639,6.058519 -10.7516581,11.122015 -19.042969,12.128906 -6.282145,0.268616 -11.305869,-0.460996 -16.394531,-4.316406 -3.034811,-3.338292 -3.899327,-5.432568 -4.6875,-9.875 0.252962,-4.553324 2.523068,-7.1703335 5.609375,-10.3632813 C -21.02546,-0.7408693 -9.5181324,-3.8885053 0,0 Z"
       fill="#83782D"
       transform="translate(650.5625,751.04687)"
       id="path72"
       style="fill:#a3853a;fill-opacity:1" />
    <path
       d="M 523.79687,319.55469 C 539.8346,322.79635 556.68819,334.6129 566,348 c 0.0752,4.28507 -0.309,6.23003 -3.1875,9.4375 -3.49701,1.94279 -4.87412,2.41195 -8.8125,1.5625 -2.91105,-2.06467 -5.41324,-4.54891 -8,-7 -6.97483,-6.25887 -14.16344,-11.10042 -22.33765,-15.63794 -0.70455,-0.39534 -1.4091,-0.79068 -2.13501,-1.198 -0.63172,-0.34595 -1.26344,-0.6919 -1.9143,-1.04834 C 518,333 518,333 516,330 c -0.34745,-3.26606 -0.28373,-5.36577 1.0625,-8.375 2.26222,-1.89735 3.79701,-2.25544 6.73437,-2.07031 z"
       fill="#523f12"
       id="path74"
       style="fill:#543f21;fill-opacity:1" />
    <path
       d="m 0,0 c 12.669704,0.96355353 12.669704,0.96355353 18,2 0.0029,2.6063196 0.0028,5.2125295 -0.0034,7.8188477 0.0022,2.0388263 0.01997,4.0777313 0.05762,6.1162113 0.213714,17.322506 0.213714,17.322506 -3.524414,21.842773 C 10.446837,40.928234 5.857878,42.42069 1,44 c -2.0160079,0.967322 -4.0225964,1.956029 -6,3 0.6584843,-9.030918 1.4349572,-18.04763 2.3022461,-27.060547 0.2008425,-2.096696 0.3965549,-4.193837 0.5922851,-6.291015 0.1285937,-1.34378 0.2574884,-2.687532 0.3867188,-4.0312505 C -1.5476269,7.81677 -1.5476269,7.81677 -1.3730469,5.9799805 -1,3 -1,3 0,0 Z"
       fill="#C28D34"
       transform="translate(131,346)"
       id="path76"
       style="fill:#af7534;fill-opacity:1" />
    <path
       d="M 0,0 C 5.61,0.33 11.22,0.66 17,1 17.241361,12.223304 16.292709,22.850384 15,34 9.06,33.67 3.12,33.34 -3,33 c 0.3096454,-4.187729 0.6226124,-8.375165 0.9375,-12.5625 0.087012,-1.181426 0.1740234,-2.362852 0.2636719,-3.580078 0.087012,-1.150488 0.1740234,-2.300977 0.2636719,-3.486328 0.078552,-1.0526 0.1571044,-2.1052 0.2380371,-3.189698 C -0.97898567,6.7749896 -0.48383503,3.3868452 0,0 Z"
       fill="#b5b8bc"
       transform="translate(136,295)"
       id="path80" />
    <path
       d="m 0,0 c 2.8504779,3.3618871 4.2525999,6.8108414 5.75,10.9375 0.6728906,1.80791 0.6728906,1.80791 1.359375,3.652344 C 8.464426,19.778263 8.464426,19.778263 7,23 4.7755145,24.654946 2.7987865,25.910906 0.375,27.1875 -0.22957031,27.529746 -0.83414063,27.871992 -1.4570312,28.224609 -6.2385586,30.849862 -11.106362,32.862208 -16.625,33.125 c -2.849847,-1.349927 -3.42571,-2.525356 -5.023437,-5.195313 -0.442632,-0.732348 -0.885264,-1.464697 -1.341309,-2.219238 C -23.32313,25.146001 -23.656514,24.581553 -24,24 c 0.417737,-0.387444 0.835474,-0.774888 1.265869,-1.174072 1.933498,-1.794762 3.865069,-3.591584 5.796631,-5.388428 0.656777,-0.609082 1.313555,-1.218164 1.990234,-1.845703 C -6.8461441,8.3475841 -6.8461441,8.3475841 0,0 Z"
       fill="#FAEABA"
       transform="translate(705,781)"
       id="path82"
       style="fill:#f7ecca;fill-opacity:1" />
    <path
       d="M 0,0 C 1.96875,1.4648437 1.96875,1.4648437 4,4 4.4056057,7.0092361 4.5708174,9.5631214 4.5,12.5625 4.48864,13.365183 4.47728,14.167866 4.465576,14.994873 4.2115279,22.813739 2.8763105,30.27808 -2.625,36.1875 -5,38 -5,38 -7,38 c -2.7060883,-4.622602 -3.517103,-8.469665 -3.4375,-13.75 0.0076,-0.703022 0.01515,-1.406045 0.02295,-2.130371 C -10.169468,14.325285 -8.2882301,8.0444678 -2.75,2.375 -1.8425,1.59125 -0.935,0.8075 0,0 Z"
       fill="#C18D35"
       transform="translate(840,314)"
       id="path84"
       style="fill:#ae8e4e;fill-opacity:1" />
    <path
       d="M 0,0 C 1.875,0.3125 1.875,0.3125 4,1 6.6792734,5.0189101 6.1560125,7.2416192 6,12 2.04,12.99 -1.92,13.98 -6,15 -5.6854187,8.0792118 -4.9117422,4.9117422 0,0 Z"
       fill="#A7863B"
       transform="translate(846,467)"
       id="path90"
       style="fill:#b98138;fill-opacity:1" />
    <g
       id="g31510-0-2"
       transform="matrix(1.0895989,-0.04740593,0.05068252,1.0191571,-615.7052,-181.66251)"
       style="opacity:1">
      <path
         d="m 1351.7424,732.71814 c 0.6136,0.54914 1.2272,1.09828 1.8594,1.66406 0.6548,0.52852 1.3097,1.05703 1.9844,1.60156 11.7524,10.34031 16.1321,26.23754 17.3242,41.29688 0.6644,20.49484 -6.3578,40.26992 -19.3086,56.10156 -0.5298,0.70383 -1.0596,1.40766 -1.6055,2.13282 -7.8376,9.86963 -21.0191,18.57451 -33.6245,20.14501 -13.7027,1.11648 -24.9795,-1.24687 -35.7427,-10.27783 -11.3162,-11.16364 -16.2129,-26.38814 -16.4074,-41.94946 0.03,-21.76276 0.5876,-21.64744 4.3801,-32.05054 0.3506,-0.91652 0.7013,-1.83304 1.0625,-2.77734 7.6537,-18.52303 20.5378,-33.74245 39.25,-41.59766 13.7157,-5.02264 29.3592,-3.90969 40.8281,5.71094 z"
         fill="#C98428"
         id="path20-5-3-0"
         style="fill:#b98138;fill-opacity:1"
         sodipodi:nodetypes="ccccccccccccc" />
      <path
         d="m 1338.1018,747.3822 c 9.0617,5.39492 13.2265,13.19286 16.5,23 3.8026,15.30716 -0.255,31.66703 -8.0195,45.02734 -6.457,9.69175 -14.523,17.82362 -25.9805,20.97266 -8.5205,0.98459 -15.7723,0.89999 -22.918,-4.17188 -7.3437,-6.44816 -12.4171,-16.06066 -13.259,-25.89599 -0.5634,-20.27592 3.1407,-36.28079 17.509,-51.4751 9.8255,-9.04868 23.4692,-13.2879 36.168,-7.45703 z"
         fill="#fcebc1"
         id="path30-9-6-6" />
      <path
         d="m 1337.8049,740.41345 c 11.1835,5.62297 16.8484,14.39512 20.7969,25.96875 0.2462,0.66516 0.4924,1.33031 0.7461,2.01562 4.9085,15.57176 -0.2125,33.23199 -7.3279,47.24122 -6.7306,12.31427 -16.729,21.87779 -30.2307,26.01269 -7.7192,1.76899 -14.976,1.73396 -22.0977,-1.94922 -9.9136,-6.26318 -16.2114,-14.97235 -19.0898,-26.32031 -0.1843,-0.71414 -0.3687,-1.42828 -0.5586,-2.16406 -1.7237,-11.07437 -1.4427,-23.33901 2.5586,-33.83594 0.2668,-0.82242 0.5337,-1.64484 0.8086,-2.49219 2.4837,-7.08677 6.5755,-12.6454 11.1914,-18.50781 0.4834,-0.66129 0.9668,-1.32258 1.4648,-2.00391 9.579,-12.41096 26.6654,-18.81757 41.7383,-13.96484 z m -40.2031,18.96875 c -11.5874,14.83361 -14.038,30.79625 -13,49 1.3036,9.00394 5.8563,17.92324 13.125,23.5 1.2648,0.87364 2.5564,1.70992 3.875,2.5 0.8875,0.56074 0.8875,0.56074 1.793,1.13281 6.3446,2.49295 15.9087,1.85859 22.1445,-0.75781 14.6531,-7.86262 22.9567,-20.345 28.2344,-35.80859 3.5005,-13.49028 2.8628,-26.64602 -3.4922,-39.16797 -4.1869,-6.84094 -9.9791,-11.92803 -17.6797,-14.39844 -15.0576,-1.63483 -24.7581,2.93047 -35,14 z"
         fill="#533611"
         id="path46-2-1-1"
         style="fill:#543f21;fill-opacity:1" />
      <path
         d="m 1340.6018,762.3822 c -0.5025,7.05647 -2.0962,12.97318 -4.625,19.5625 -0.3184,0.89396 -0.6368,1.78793 -0.9648,2.70898 -5.6343,14.86893 -18.7586,22.74946 -31.9141,30.61133 -2.4961,1.11719 -2.4961,1.11719 -5.4961,0.11719 0.5138,-6.22417 2.5678,-11.17893 5.1875,-16.8125 0.6172,-1.33285 0.6172,-1.33285 1.2468,-2.69263 1.1736,-2.50573 2.3664,-5.00136 3.5657,-7.49487 0.4976,-1.05961 0.9952,-2.11922 1.5078,-3.21094 3.8231,-7.25698 9.7727,-11.30938 16.4922,-15.78906 1.0171,-0.69867 2.0341,-1.39734 3.082,-2.11719 7.3243,-4.88281 7.3243,-4.88281 11.918,-4.88281 z"
         fill="#5A3B13"
         id="path58-2-0-5"
         style="fill:#543f21;fill-opacity:1" />
    </g>
  </g>
</svg>
