<?xml version="1.0" encoding="UTF-8" standalone="no"?>
<svg
   version="1.1"
   width="934.19373"
   height="934.19373"
   id="svg192"
   sodipodi:docname="the-beacon-geokret.svg"
   inkscape:version="1.1.2 (0a00cf5339, 2022-02-04)"
   inkscape:export-filename="/tmp/avatars/beacon.png"
   inkscape:export-xdpi="57.227798"
   inkscape:export-ydpi="57.227798"
   xmlns:inkscape="http://www.inkscape.org/namespaces/inkscape"
   xmlns:sodipodi="http://sodipodi.sourceforge.net/DTD/sodipodi-0.dtd"
   xmlns="http://www.w3.org/2000/svg"
   xmlns:svg="http://www.w3.org/2000/svg">
  <defs
     id="defs196" />
  <sodipodi:namedview
     id="namedview194"
     pagecolor="#ffffff"
     bordercolor="#666666"
     borderopacity="1.0"
     inkscape:pageshadow="2"
     inkscape:pageopacity="0.0"
     inkscape:pagecheckerboard="0"
     showgrid="false"
     inkscape:zoom="0.30141808"
     inkscape:cx="61.376545"
     inkscape:cy="1136.2955"
     inkscape:window-width="2490"
     inkscape:window-height="1376"
     inkscape:window-x="2560"
     inkscape:window-y="27"
     inkscape:window-maximized="1"
     inkscape:current-layer="svg192"
     fit-margin-top="0"
     fit-margin-left="0"
     fit-margin-right="0"
     fit-margin-bottom="0" />
  <g
     id="g31446"
     transform="translate(-37.151947,-49.744558)">
    <path
       d="m 0,0 c 9.840415,7.588574 9.840415,7.588574 12.318604,10.60498 2.340093,1.941527 3.915968,1.763797 6.931396,1.766114 1.069358,0.01434 2.138716,0.02868 3.240479,0.04346 1.158142,0.0076 2.316284,0.01515 3.509521,0.02295 30.028372,0.703335 59.819864,6.503203 87,19.5625 1.18433,0.562434 1.18433,0.562434 2.39258,1.13623 C 131.38383,40.833702 145.17182,50.738437 158,63 c 0.70898,0.64582 1.41797,1.291641 2.14844,1.957031 C 171.91633,76.066436 181.2736,89.848521 189,104 c 0.33838,0.61633 0.67676,1.23267 1.02539,1.86768 8.11211,14.97949 14.4448,30.97278 18.17773,47.60498 0.68911,3.05029 1.50425,6.02129 2.35938,9.02734 2.84343,11.26437 4.62222,23.86811 4.4375,35.5 0.80776,-0.0209 1.61552,-0.0419 2.44775,-0.0635 20.58989,-0.45014 40.95483,0.36135 61.48975,1.93848 1.70715,0.1307 1.70715,0.1307 3.44879,0.26404 81.84447,6.33781 81.84447,6.33781 97.61371,23.3883 17.63957,21.8083 24.13959,47.07542 21.52734,74.78907 -2.27799,20.96784 -8.70778,42.5386 -22.86328,58.66796 -1.59486,1.93181 -2.6476,3.73629 -3.66406,6.01563 0.4125,0.41508 0.825,0.83016 1.25,1.25781 19.99456,21.33348 24.76832,50.99295 24.82031,79.10156 0.0152,2.83285 0.0315,5.6657 0.0478,8.49854 0.005,1.93523 -0.002,3.87051 -0.0186,5.80566 -0.59682,12.62335 -0.59682,12.62335 4.25586,23.78565 1.19856,1.20008 2.41139,2.38626 3.64453,3.55078 11.45917,19.51677 13.23303,43.95108 7.97266,65.72656 -3.48369,11.72421 -8.19854,23.53305 -16.07422,33.01563 -3.50579,4.59701 -4.13038,8.93836 -4.83594,14.57031 -3.71134,23.92445 -14.45157,46.89443 -34.25391,61.75391 -27.86572,19.18432 -59.62794,24.55849 -92.99609,24.30859 -1.02667,-0.003 -2.05334,-0.005 -3.11111,-0.008 C 250.6129,684.32106 235.87878,683.71405 221,681 c -2.18292,6.99559 -3.46517,13.29678 -3.3125,20.625 -0.003,0.78117 -0.006,1.56234 -0.01,2.36719 0.048,5.27265 0.16314,11.12766 2.32227,16.00781 1.95256,1.06921 3.76864,1.56769 5.91016,2.16406 4.81297,1.92519 7.14783,6.85263 9.27588,11.33301 2.97682,7.07106 5.37485,14.21709 7.65649,21.53052 3.69679,11.82991 7.21682,22.82626 14.80591,32.79663 9.77203,13.19711 18.12904,33.5602 16.35156,50.17578 -3.36679,14.68948 -16.16793,27.24859 -28,36 -5.88019,1.96006 -11.9969,1.00052 -18,0 -0.0561,0.88752 -0.0561,0.88752 -0.11328,1.79297 -0.0657,0.79019 -0.13149,1.58039 -0.19922,2.39453 -0.058,0.7773 -0.11602,1.55461 -0.17578,2.35547 -0.93635,4.49588 -2.75232,6.87065 -6.375,9.66797 -1.14101,0.73509 -2.29135,1.45583 -3.44922,2.16406 -0.61738,0.38503 -1.23476,0.77005 -1.87085,1.16675 C 202.51955,901.69463 187.13953,910.47182 171,908 c -2.5134,-1.06298 -3.90277,-2.17164 -6,-4 -0.99,-0.66 -1.98,-1.32 -3,-2 -0.22688,0.88688 -0.45375,1.77375 -0.6875,2.6875 -1.71702,4.33342 -3.8588,7.04466 -8.06641,9.21875 C 121.49172,926.7363 73.557544,920.35755 42.625,908 21.102867,898.6859 21.102867,898.6859 15.835693,889.13892 14.196528,884.94355 14.414148,880.6344 14.5,876.1875 c 0.0203,-1.52089 0.0203,-1.52089 0.04102,-3.07251 0.669058,-24.7532 10.675953,-45.32754 28.478515,-62.54077 C 52.480019,802.40323 63.270786,797.90974 75,794 c 1.392672,-2.25337 1.392672,-2.25337 2.5625,-4.9375 C 79.815508,784.18449 79.815508,784.18449 82,782 81.596036,777.85019 79.952777,774.16761 78.4375,770.3125 76.333673,764.4365 74.621732,759.21799 76,753 c 1.180576,-2.42828 2.516057,-4.67561 3.945312,-6.96484 1.315964,-2.14345 1.315964,-2.14345 0.992188,-5.34766 C 80.113189,738.32447 79.140629,736.21973 78,734 c -6.317458,0.45467 -12.551981,1.07937 -18.816406,2.01953 -10.513785,1.40803 -21.071651,1.31636 -31.661377,1.29614 -3.42245,-0.003 -6.844015,0.0203 -10.266358,0.0457 C 1.970461,737.40404 -12.876899,736.18289 -28,734 c -0.743054,-0.10541 -1.486108,-0.21082 -2.251678,-0.31943 C -31.834754,733.45583 -33.417438,733.22833 -35,733 c 0.396468,3.36998 1.021277,5.02901 3.0625,7.8125 4.239005,6.97385 1.244615,15.33421 -0.5,22.8125 -4.11052,18.05405 -3.87383,33.9771 -1.5625,52.25 4.727847,37.73464 4.727847,37.73464 -3.835937,49.6875 C -46.372922,875.17816 -61.900764,876.95931 -74,878 c -6.330065,0.36558 -12.660798,0.45643 -19,0.5 -0.797527,0.0105 -1.595054,0.0211 -2.416748,0.0319 -2.299311,0.0235 -4.596422,0.0168 -6.895752,-6.7e-4 -0.68671,0.008 -1.37342,0.0158 -2.08093,0.024 -5.85764,-0.1119 -9.29832,-2.40084 -13.48157,-6.30521 -0.37125,-0.4125 -0.7425,-0.825 -1.125,-1.25 -1.94907,0.59533 -1.94907,0.59533 -4,2 -0.43313,0.96938 -0.86625,1.93875 -1.3125,2.9375 -1.81021,3.2852 -3.07139,4.23939 -6.57178,5.48071 -9.11952,2.50771 -18.07185,2.91916 -27.49072,2.89429 -1.24395,0.0161 -2.48789,0.0322 -3.76953,0.0488 -1.19754,6.4e-4 -2.39508,10e-4 -3.62891,0.002 -1.07685,0.003 -2.1537,0.006 -3.26318,0.009 C -175.3347,883.58103 -178.33008,879.71847 -182,875 c -4.60798,1.49082 -7.39531,3.87594 -11,7 -10.83197,5.41599 -29.33451,-2.08283 -40.01562,-5.60938 -18.09737,-6.27718 -41.22395,-15.50678 -52.16016,-32.18359 -2.32941,-6.23753 -1.84836,-14.36736 0.37891,-20.54297 1.50329,-2.95345 3.12297,-5.80466 4.79687,-8.66406 0.62824,-1.38516 1.2342,-2.78075 1.8125,-4.1875 10.22768,-23.20245 23.17593,-39.69543 47.03516,-49.73438 8.81639,-3.01527 17.1853,-3.41921 26.44922,-3.46875 7.22137,-0.17424 13.06913,-1.77642 19.70312,-4.60937 0.10546,-0.7562 0.21092,-1.51239 0.31958,-2.2915 0.48683,-3.44613 0.98971,-6.88973 1.49292,-10.3335 0.16564,-1.1898 0.33129,-2.37961 0.50195,-3.60547 0.1708,-1.15371 0.3416,-2.30742 0.51758,-3.49609 0.15187,-1.05784 0.30374,-2.11568 0.46021,-3.20557 1.12965,-4.89661 3.06829,-9.00904 6.89526,-12.31787 0.5298,-0.47953 1.05961,-0.95906 1.60547,-1.45313 3.24854,-1.90887 6.53247,-2.48793 10.20703,-3.29687 0.0647,-0.56695 0.12939,-1.13389 0.19604,-1.71802 2.05117,-17.49913 5.33541,-34.07528 12.0813,-50.39917 1.21035,-4.82832 -1.5496,-8.53641 -3.85156,-12.73437 -16.42867,-30.379 -24.932,-61.93434 -24.55078,-96.58594 0.0101,-1.61783 0.0192,-3.23567 0.0273,-4.85352 0.0217,-3.90315 0.056,-7.80599 0.0977,-11.70898 -1.11979,-0.3781 -2.23958,-0.7562 -3.39331,-1.14575 -19.97692,-6.77537 -40.47371,-14.88438 -56.37231,-29.10425 -2.17837,-1.70614 -3.53171,-2.35328 -6.23438,-2.75 -0.35062,0.86625 -0.70125,1.7325 -1.0625,2.625 -3.48569,6.07185 -7.46142,9.25391 -14.25,11.125 -2.22109,0.45776 -4.45154,0.87149 -6.6875,1.25 -1.17047,0.20496 -2.34094,0.40992 -3.54687,0.62109 -20.82279,3.14687 -43.25325,2.41783 -64.14063,0.12891 -1.03705,-0.10917 -2.0741,-0.21833 -3.14258,-0.33081 -7.50773,-0.95347 -14.67224,-2.76769 -19.60742,-8.91919 -0.47309,-0.56719 -0.94617,-1.13437 -1.43359,-1.71875 -2.06963,-3.26556 -2.23529,-6.43653 -2.16407,-10.23047 0.41458,-11.22346 0.41458,-11.22346 -4.71484,-20.67578 -0.72059,-0.6484 -1.44117,-1.2968 -2.18359,-1.96484 -8.10925,-7.49607 -9.87349,-20.73932 -10.37891,-31.22266 -0.37003,-4.83407 -2.40297,-7.51949 -5.1875,-11.375 -5.79183,-8.92907 -5.56577,-21.04304 -4.5,-31.3125 1.23266,-5.69277 3.16801,-10.14614 6.875,-14.625 2.35078,-3.00468 2.35078,-3.00468 1.99609,-5.44922 -0.38057,-1.52497 -0.7935,-3.04214 -1.23437,-4.55078 -2.56437,-9.56527 0.41867,-18.79142 4.90625,-27.30078 4.28754,-7.09358 4.28754,-7.09358 7.38397,-9.69 4.18775,-3.58683 6.56304,-6.18118 7.07306,-11.79047 0.0402,-2.03085 0.0383,-4.06286 0,-6.09375 0.0163,-1.61443 0.0163,-1.61443 0.033,-3.26147 0.026,-3.41388 -0.003,-6.82474 -0.033,-10.23853 0.008,-2.32423 0.0198,-4.64846 0.0352,-6.97266 0.0298,-5.67632 0.0147,-11.35118 -0.0352,-17.02734 -0.60546,-0.11972 -1.21091,-0.23944 -1.83472,-0.36279 -1.20136,-0.24968 -1.20136,-0.24968 -2.427,-0.5044 -0.79108,-0.16097 -1.58216,-0.32194 -2.39722,-0.48779 -4.46544,-1.23034 -7.87873,-3.51048 -10.50866,-7.34935 -2.78773,-5.29124 -3.42284,-9.64732 -3.36365,-15.58083 -0.004,-0.85992 -0.008,-1.71984 -0.0116,-2.60582 -0.003,-1.80596 0.005,-3.61197 0.0214,-5.41786 0.0215,-2.75016 1.3e-4,-5.49772 -0.0254,-8.2478 0.003,-1.76368 0.008,-3.52735 0.0156,-5.29102 -0.008,-0.81372 -0.0162,-1.62745 -0.0245,-2.46583 0.0925,-5.67947 1.32205,-8.9967 4.55579,-13.68651 2.03516,-1.74219 2.03516,-1.74219 4.0625,-2.875 0.6716,-0.3893 1.3432,-0.77859 2.03516,-1.17969 C -369,216 -369,216 -366,215 c 0.004,-0.78546 0.007,-1.57091 0.0111,-2.38017 0.0381,-7.45731 0.0952,-14.91413 0.17285,-22.37111 0.0393,-3.83236 0.0716,-7.66448 0.0871,-11.49701 0.0153,-3.70912 0.05,-7.41763 0.0973,-11.12648 0.0147,-1.40428 0.0227,-2.80865 0.0236,-4.213 0.023,-18.95119 6.40509,-34.73173 19.60812,-48.41223 14.94924,-12.82925 32.18454,-18.494909 51.70752,-17.223145 16.64819,1.620495 31.55912,9.802265 42.25342,22.562985 10.21702,13.76398 13.36001,27.15125 13.23437,43.87891 -0.004,1.4683 -0.007,2.9366 -0.009,4.40491 -0.008,3.84032 -0.0272,7.68049 -0.0494,11.52075 -0.0206,3.9284 -0.0296,7.85683 -0.0397,11.78528 -0.0214,7.69017 -0.0554,15.38022 -0.0977,23.07031 1.98,0.33 3.96,0.66 6,1 0.44988,-0.61746 0.89977,-1.23492 1.36328,-1.87109 C -218.98235,197.46774 -201.48441,188.27182 -181,185 c 3.70589,-0.33912 7.40639,-0.49965 11.125,-0.625 0.95648,-0.0387 1.91297,-0.0773 2.89844,-0.11719 2.32534,-0.093 4.6507,-0.17885 6.97656,-0.25781 2.99112,-6.03308 3.96699,-11.87121 4.9375,-18.5 2.62818,-16.60797 6.47053,-32.49932 15.16406,-47.07812 1.80845,-3.25967 2.82716,-6.08501 3.77344,-9.67188 2.22014,-7.62953 5.73271,-14.161565 10.125,-20.75 0.30441,-2.954801 0.30441,-2.954801 0.27344,-6.328125 0.0177,-1.267954 0.0355,-2.535908 0.0537,-3.842285 0.007,-0.66703 0.0141,-1.334059 0.0214,-2.021301 C -125.50468,64.400726 -125.1109,53.791102 -121,43 c 0.36094,-1.032539 0.72187,-2.065078 1.09375,-3.128906 7.80442,-20.644792 24.004773,-36.9212015 43.824219,-46.1445315 C -51.649805,-17.004318 -22.068815,-15.708217 0,0 Z"
       fill="#543814"
       id="path4"
       style="fill:#543f21;fill-opacity:1"
       transform="translate(503,63)" />
    <path
       d="m 0,0 c 1.4427105,1.3476482 2.8564496,2.7265771 4.25,4.125 4.2664379,3.9072252 8.554679,6.676281 13.6875,9.25 0.631318,0.321138 1.262637,0.642275 1.913086,0.973145 9.269203,4.451378 18.46903,6.218242 28.711914,6.151855 1.561014,-0.0086 1.561014,-0.0086 3.153564,-0.01733 C 67.375167,20.125876 83.517448,15.621829 95.4375,5 c 6.29464,-4.64075165 18.27092,-0.9840495 25.58203,0.09375 2.93389,0.4515228 5.86376,0.925388 8.79297,1.40625 0.78364,0.1273856 1.56728,0.2547711 2.37466,0.3860168 C 160.75697,11.567932 189.22284,17.828548 217,26 c 1.23976,0.361743 2.47951,0.723486 3.75684,1.096191 C 239.6316,32.633989 258.03403,38.925275 276,47 c 1.09635,0.490488 2.1927,0.980977 3.32227,1.486328 1.07443,0.504668 2.14886,1.009336 3.25585,1.529297 0.96841,0.451494 1.93682,0.902988 2.93458,1.368164 2.90979,1.890739 4.01448,3.498328 5.4873,6.616211 0.50132,2.729109 0.87213,5.313119 1.125,8.0625 0.11021,1.031572 0.11021,1.031572 0.22266,2.083984 0.23768,2.282998 0.44738,4.567352 0.65234,6.853516 0.13136,1.402822 0.13136,1.402822 0.26538,2.833984 1.92862,21.544631 0.50989,42.897666 -1.07788,64.416016 -0.0828,1.14056 -0.16554,2.28112 -0.25082,3.45624 C 290.773,161.54124 289.12912,177.2656 287,193 c -1.07395,0.36771 -2.1479,0.73541 -3.25439,1.11426 -34.92883,12.06844 -56.85183,39.70845 -72.84156,72.00024 -15.45816,32.0789 -20.00558,68.04467 -10.52905,102.698 0.21552,0.80752 0.43103,1.61503 0.65308,2.44702 1.5185,5.5224 3.44427,10.59156 5.97192,15.74048 0,0.66 0,1.32 0,2 -0.88301,0.0374 -1.76602,0.0748 -2.67578,0.11328 C 196.49975,389.5419 189.41586,390.44946 182,393 c -0.95391,0.32742 -1.90781,0.65484 -2.89063,0.99219 -20.07209,7.61899 -35.66728,23.54565 -44.96093,42.6914 C 132.6348,440.08741 131.27587,443.50082 130,447 c -0.33902,0.87527 -0.67805,1.75055 -1.02734,2.65234 -3.49146,10.44218 -4.28043,25.22648 0.69921,35.27344 4.14954,6.4806 8.49994,10.59571 15.32813,14.07422 3.81022,2.3301 5.04321,4.75894 6.8125,8.8125 2.63246,5.45576 5.04839,8.97155 10.1875,12.1875 0.60973,0.39832 1.21945,0.79664 1.84766,1.20703 5.23351,2.85373 9.90463,2.96295 15.71484,3.04297 7.51834,0.14237 7.51834,0.14237 10.99609,2.44141 1.27949,1.39791 2.52221,2.83053 3.72266,4.29687 3.95912,4.63397 8.60741,5.82352 14.53125,6.35156 16.0532,0.60804 26.68174,-5.35867 38.29687,-16.05468 2.07204,-1.94133 4.12586,-3.8973 6.15845,-5.87989 7.79903,-7.58047 15.39406,-12.55157 25.41968,-16.84277 1.52851,-0.68739 1.52851,-0.68739 3.08789,-1.38867 0.98549,-0.42733 1.97098,-0.85465 2.98633,-1.29492 0.88647,-0.386 1.77294,-0.77199 2.68628,-1.16968 2.98952,-0.83082 4.61448,-0.65394 7.552,0.29077 1.7417,1.05981 1.7417,1.05981 3.30469,2.36328 0.58394,0.47502 1.16789,0.95004 1.76953,1.43945 0.59426,0.49823 1.18851,0.99645 1.80078,1.50977 4.51933,3.74955 8.94554,6.89907 14.125,9.6875 -2.15296,13.34836 -7.08505,25.9141 -12.1875,38.375 -8.76572,21.62923 -6.94533,39.11244 -3.27002,61.77393 0.52618,3.27895 1.00394,6.56139 1.45752,9.85107 -10.56682,7.18116 -21.95909,13.18787 -35,14 -1.86328,-1.07422 -1.86328,-1.07422 -3.3125,-2.6875 -8.82763,-8.53843 -19.94929,-7.93495 -31.4375,-8 -2.36772,-0.0292 -4.73526,-0.0639 -7.10284,-0.10249 -1.46244,-0.0222 -2.925,-0.0382 -4.38758,-0.0469 C 216.74596,623.1209 212.90444,622.96978 209,622 c -1.70081,-2.1923 -2.7332,-3.90186 -3.875,-6.375 -0.33024,-0.6832 -0.66048,-1.36641 -1.00073,-2.07031 -4.1563,-9.10323 -6.68077,-18.81568 -9.36255,-28.42969 C 192.68446,575.88378 192.68446,575.88378 187,569 c -3,-0.5 -3,-0.5 -6,0 -3.81378,3.81378 -4.17235,8.00403 -4.5625,13.1875 -0.0838,1.08668 -0.16758,2.17336 -0.25391,3.29297 -0.0606,0.83144 -0.12117,1.66289 -0.18359,2.51953 -3.53092,1.55397 -6.67298,2.37253 -10.5,2.81641 -1.04511,0.12399 -2.09021,0.24798 -3.16699,0.37573 -1.09989,0.12222 -2.19979,0.24444 -3.33301,0.37036 -1.70011,0.19396 -1.70011,0.19396 -3.43457,0.39185 -3.18749,0.35842 -6.37602,0.70477 -9.56543,1.04565 -1.25297,0.13664 -2.50594,0.27328 -3.79688,0.41406 -3.07075,0.28433 -6.12146,0.46516 -9.20312,0.58594 -0.68224,0.0272 -1.36447,0.0545 -2.06738,0.0825 C 83.632677,595.69019 34.838842,586.09388 -2,555 -2.8224219,554.31293 -3.6448438,553.62586 -4.4921875,552.91797 -35.619356,526.00897 -48.770774,484.96391 -51.816895,445.052 c -3.52353,-58.73021 16.31919,-114.45693 35.619767,-168.99379 2.747885,-7.77111 5.371578,-15.51235 7.447128,-23.49571 0.2294531,-0.85014 0.4589062,-1.70027 0.6953125,-2.57617 C -6.1997758,243.03041 -4.5889804,236.02077 -3,229 c 0.884458,-0.009 1.768916,-0.0187 2.68017578,-0.0283 C 38.951784,228.4522 74.728428,222.48311 104,194 c 4.75936,-4.90751 8.58469,-10.08222 12,-16 3.00658,1.00219 4.75131,1.71815 6.875,4.125 2.10476,2.21322 2.10476,2.21322 5.6875,2.3125 3.28477,-0.2185 3.28477,-0.2185 5.375,-1.4375 1.76705,-3.32621 1.70418,-6.39525 1.0625,-10 -3.1833,-9.08365 -10.9679,-16.14716 -19.375,-20.5 -5.91763,-2.44868 -11.22533,-3.22371 -17.625,-2.5 -3.228388,1.33016 -3.228388,1.33016 -5,4 -0.532524,3.72767 -0.552384,5.97809 1.25,9.3125 1.814924,1.7501 3.429426,2.72726 5.75,3.6875 -1.74543,8.88404 -10.126364,15.77604 -17,21 C 56.182922,205.70666 21.991778,211.39466 -9.5568848,205.82202 -13.413317,205.01775 -17.20945,204.07082 -21,203 c -1.002568,-0.27288 -1.002568,-0.27288 -2.025391,-0.55127 C -45.256838,196.24809 -70.155529,182.76342 -84,164 c 0,-0.66 0,-1.32 0,-2 0.776016,-0.0142 1.552031,-0.0284 2.351563,-0.043 14.955788,-0.66034 27.990814,-5.71539 38.398437,-16.64453 9.968297,-12.11278 12.699912,-26.0902 11.25,-41.3125 -1.506245,-6.562345 -4.801928,-11.807647 -9,-17 -0.99,-0.495 -0.99,-0.495 -2,-1 0,-0.66 0,-1.32 0,-2 0.94875,-0.433125 1.8975,-0.86625 2.875,-1.3125 3.325419,-1.480522 3.325419,-1.480522 5.125,-4.6875 0.435548,-2.159201 0.781897,-4.33685 1.078125,-6.519531 0.189467,-1.335703 0.379599,-2.671311 0.570313,-4.006836 0.09765,-0.69976 0.195292,-1.399519 0.295898,-2.120484 7.34277,-52.023991 7.34277,-52.023991 23.1455077,-65.0797115 C -6.0243256,-2.3171162 -3.9780905,-2.359269 0,0 Z"
       fill="#FDEAB5"
       transform="translate(400,184)"
       id="path6"
       style="fill:#fef1c7;fill-opacity:1" />
    <path
       d="M 0,0 C 16.476708,6.9277066 27.466193,33.192455 33.996094,48.530273 48.666004,84.619965 52.495448,123.95466 37.904297,160.76416 23.004055,195.85684 -3.3300111,218.64033 -37.890625,233.55469 -49.91589,238.78776 -59.63603,243.76562 -69,253 c -1.817769,1.72726 -3.645282,3.44343 -5.478027,5.15479 -1.177682,1.10433 -2.346821,2.21788 -3.504883,3.34277 -5.844845,5.58227 -12.159346,10.58529 -20.51709,10.75244 -0.773437,0.0258 -1.54688,0.0516 -2.34375,0.0781 -2.70257,-0.41126 -3.51202,-1.1826 -5.15625,-3.32812 -2.90242,-8.70726 0.20305,-16.04669 4,-24 4.211335,-7.38815 9.294889,-13.76409 15.117188,-19.94141 2.509639,-2.74394 3.825484,-4.35632 4.132812,-8.12109 0.05746,-3.05977 0.05746,-3.05977 -2.25,-4.9375 -5.877589,-0.9796 -9.466185,0.85239 -14.382812,4.04297 -13.141208,9.82648 -20.894768,23.24907 -26.242188,38.51953 C -127,258 -127,258 -130,260 c -3.00574,0.46756 -5.05043,0.59128 -7.6875,-1.05078 -2.19875,-1.79177 -4.03299,-3.3902 -5.3125,-5.94922 -1.46075,-14.7744 3.15946,-27.2781 12,-39 2.39246,-2.85529 4.82362,-5.6781 7.35596,-8.4104 3.0722,-3.42768 4.5533,-5.94234 4.64404,-10.5896 -0.66,-0.99 -1.32,-1.98 -2,-3 -5.83681,-1.0944 -9.50604,0.87825 -14.38281,4.04297 C -147.02183,204.74618 -153.85529,216.08921 -160,229 c -0.66393,1.3347 -1.3297,2.66849 -2,4 -3.69268,-3.53212 -4.21401,-5.69185 -4.375,-10.8125 0.11151,-14.41647 8.27965,-27.48708 17.375,-38.1875 0.57234,-0.68063 1.14469,-1.36125 1.73438,-2.0625 C -136.64436,170.31765 -122.3406,165.27494 -107,164 c 2.48185,-0.10981 4.96233,-0.17708 7.445801,-0.23901 C -79.590223,163.20033 -64.250008,158.41505 -49,145 c 0.761836,-0.66645 1.523672,-1.33289 2.308594,-2.01953 12.47973,-11.65784 22.213825,-29.04347 23.90625,-46.152345 C -22.726218,93.76336 -23.065652,90.919837 -24,88 c -4.612963,0.07625 -4.612963,0.07625 -8.501953,2.326172 -3.693759,4.484911 -6.864393,9.143867 -9.873047,14.111328 -0.449883,0.73154 -0.899766,1.46309 -1.363281,2.2168 -1.092707,1.77855 -2.17801,3.56165 -3.261719,5.3457 -2.365019,-3.54753 -2.269115,-5.11982 -2.300781,-9.32812 -0.0096,-1.2674 -0.01917,-2.53479 -0.02905,-3.840581 0.0038,-1.36044 0.0096,-2.720876 0.01733,-4.081299 0.0025,-0.684945 0.005,-1.369891 0.0075,-2.075592 C -49.249055,82.786666 -48.993598,73.502808 -46,64 c 0.225747,-0.72123 0.451494,-1.442461 0.684082,-2.185547 C -40.20598,45.881727 -33.000716,31.680028 -22,19 c 0.833929,-1.062033 1.667341,-2.124472 2.5,-3.1875 C -13.807449,9.40838 -7.2178356,4.5612711 0,0 Z"
       fill="#FDEAB5"
       transform="translate(712,429)"
       id="path8"
       style="fill:#fef1c7;fill-opacity:1" />
    <path
       d="m 0,0 c 10.375736,1.743052 19.239069,4.972653 28.6875,9.5 16.888865,8.022488 31.191147,10.687342 49.769287,10.685303 2.209265,0.0022 4.418021,0.02037 6.627197,0.03931 10.677147,0.04304 21.344386,-0.338464 31.675786,-3.303711 3.39126,-0.963822 4.96315,-1.128243 8.24023,0.0791 12.78199,9.82249 17.64501,27.870305 20,43 0.15578,0.975619 0.15578,0.975619 0.3147,1.970947 1.0366,7.65347 0.79442,15.385964 0.7478,23.091553 -0.005,1.452472 -0.01,2.904947 -0.0137,4.357422 C 146.03791,92.94665 146.02071,96.473314 146,100 134.4207,96.86717 134.4207,96.86717 129.3125,95.3125 128.48363,95.061133 127.65477,94.809766 126.80078,94.550781 126.20652,94.369023 125.61227,94.187266 125,94 124.951,92.877227 124.902,91.754453 124.85156,90.597656 124.28776,73.537697 124.28776,73.537697 116,59 c -5.30623,-3.367416 -10.86148,-3.999071 -17,-3 -4.96384,1.83909 -8.015175,4.419265 -10.4375,9.125 -1.96855,4.537376 -2.647778,8.081383 -2.527344,13.046875 0.0032,1.222031 0.0064,2.444062 0.0098,3.703125 0.01165,2.56811 0.05812,5.136314 0.140625,7.703125 -0.06284,9.203867 -0.06284,9.203867 -3.359863,12.780765 C 80.287898,104.13186 77.74761,105.58137 75,107 c -16.226264,11.4936 -27.331938,33.43123 -31.375,52.5 -0.234099,1.4962 -0.443726,2.99649 -0.625,4.5 -0.108281,0.76828 -0.216563,1.53656 -0.328125,2.32812 C 39.926295,188.72628 44.369942,211.71009 58,230 c 0.582656,0.78891 1.165312,1.57781 1.765625,2.39062 9.345638,11.54462 23.699048,18.02769 38.171875,20.28907 12.4864,1.30597 23.07781,-0.17712 35.0625,-3.67969 1.33131,-0.34131 2.66355,-0.67939 4,-1 -4.20709,15.09602 -14.48369,28.52965 -28.05469,36.44922 C 96.77131,290.85914 84.465021,294.41618 71,297 c -1.402339,0.28472 -1.402339,0.28472 -2.833008,0.5752 -11.36193,1.98226 -22.819979,1.72644 -34.317871,1.68554 -3.604824,-0.0108 -7.209155,-4e-5 -10.813965,0.0127 -2.319011,-10e-4 -4.638022,-0.004 -6.957031,-0.008 -1.063779,0.004 -2.127557,0.008 -3.223572,0.0123 C 6.3442042,299.23746 0.32892376,298.53715 -6,297 c 0.4552777,-1.87574 0.9143718,-3.75056 1.375,-5.625 0.2552344,-1.04414 0.5104688,-2.08828 0.7734375,-3.16406 C -3.0235959,285.08897 -2.0540571,282.05218 -1,279 c 0.88042969,-0.0142 1.76085937,-0.0284 2.6679687,-0.043 1.1614454,-0.0477 2.3228907,-0.0954 3.5195313,-0.14453 1.1485547,-0.0348 2.2971094,-0.0696 3.4804688,-0.10547 C 12.964721,277.79529 14.361991,276.48478 17,273 c 0.969382,-2.62873 1.673252,-4.92045 2.25,-7.625 0.162744,-0.71076 0.325488,-1.42151 0.493164,-2.15381 C 21.004352,257.49664 21.803161,251.86417 22,246 c 0.07734,-1.76924 0.07734,-1.76924 0.15625,-3.57422 C 22.31744,235.99832 22.368434,231.64923 19,226 15.641405,222.64141 12.180459,221.12295 7.7695312,219.61328 6,219 6,219 4,218 c 0,-0.66 0,-1.32 0,-2 0.66,0 1.32,0 2,0 0.3538477,-0.81211 0.3538477,-0.81211 0.7148437,-1.64063 C 8.3492324,211.35886 10.410122,208.90426 12.5625,206.25 27.048984,187.77597 34.248545,166.75419 39,144 c 0.180308,-0.73025 0.360615,-1.46051 0.546387,-2.21289 0.64223,-3.94602 0.636454,-7.83791 0.656738,-11.83008 0.0085,-1.3237 0.0085,-1.3237 0.01727,-2.67415 0.0094,-1.87187 0.01598,-3.74375 0.01984,-5.61564 0.0096,-2.80021 0.04056,-5.59963 0.07227,-8.39966 0.0913,-15.328627 -1.607132,-29.901896 -6,-44.64258 C 33.930132,67.325021 33.930132,67.325021 33.540039,65.998779 26.667528,43.314155 16.192969,23.577124 2.0563965,4.6154785 1,3 1,3 0,0 Z"
       fill="#AB6F25"
       transform="translate(738,424)"
       id="path10"
       style="fill:#ae8e4e;fill-opacity:1" />
    <path
       d="M 0,0 C 0.24008789,0.88034912 0.48017578,1.7606982 0.72753906,2.6677246 5.3728377,19.379656 9.7130924,33.743875 20.793945,47.408691 25.202457,53.225429 26.953988,59.845089 26,67 c -1.227235,2.45447 -2.249332,3.959926 -4,6 -0.609727,0.739922 -1.219453,1.479844 -1.847656,2.242187 C 2.3023157,96.040224 -23.989979,110.08519 -50,118 c -1.740234,0.53561 -1.740234,0.53561 -3.515625,1.08203 C -73.811262,124.56678 -97.028801,126.15677 -118,125 c -0.77602,-0.0425 -1.55203,-0.0851 -2.35156,-0.12891 C -170.25809,121.74191 -170.25809,121.74191 -182,110 c -0.48798,-6.28191 0.5174,-10.348031 3.4375,-15.875 0.5408,-1.043174 0.5408,-1.043174 1.09253,-2.107422 C -170.24797,78.621513 -158.56964,68.596838 -144,64 c 16.27898,-4.603228 32.5329,0.211822 47.375,6.8125 5.341803,2.341612 9.853604,2.762086 15.625,2.1875 0.950204,-2.239835 0.950204,-2.239835 1,-5 -1.626487,-2.114433 -2.929025,-3.391893 -5,-5 -0.621328,-0.485977 -1.242656,-0.971953 -1.882812,-1.472656 C -96.684153,54.456635 -108.5358,51.358579 -120,48 c 0.495,-0.99 0.495,-0.99 1,-2 16.12435,-0.430195 27.728283,0.374218 41.996094,8.546875 C -72.972323,56.497134 -70.380477,56.601242 -66,56 c 0.84169,-2.693407 1.260709,-4.246918 1,-7 C -71.235111,37.34899 -85.946644,32.916101 -97.710937,29.164062 -101.23412,28.120558 -104.51132,27.754917 -108.1875,27.5625 -110.71875,27.21875 -110.71875,27.21875 -113,26 c -3.70239,-4.893811 -7,-11.865125 -7,-18 0.8366,0.1392993 1.6732,0.2785986 2.53516,0.4221191 10.13792,1.5822959 20.055279,1.9470559 30.312496,2.0563969 1.838848,0.03964 1.838848,0.03964 3.714844,0.08008 1.094414,0.01345 2.188828,0.02691 3.316406,0.04077 4.381051,0.562368 7.887689,1.942709 10.773438,5.35376 0.636152,1.136953 0.636152,1.136953 1.285156,2.296875 0.487266,0.870117 0.974531,1.740234 1.476563,2.636719 2.529275,4.965104 4.871996,10.009456 7.167968,15.085937 1.123973,2.84682 1.123973,2.84682 2.417969,4.027344 2.332974,0.04093 4.667052,0.04242 7,0 3.851511,-5.860995 3.705113,-12.146411 4,-19 0.547126,-0.164919 1.094253,-0.329839 1.657959,-0.499756 9.930526,-3.037121 19.591827,-6.230565 28.779541,-11.125244 0.677966,-0.3595679 1.355933,-0.7191357 2.054443,-1.0895996 3.215663,-1.7794708 6.0641667,-3.6627113 8.8557133,-6.0588379 C -2,0 -2,0 0,0 Z"
       fill="#AB6E25"
       transform="translate(722,818)"
       id="path12"
       style="fill:#aa7833;fill-opacity:1" />
    <path
       d="m 0,0 c 10.447958,0.88292603 27.421874,4.3019036 35,12 3.22081,5.219403 3.691462,10.303336 4.171875,16.253906 C 39.569537,32.29935 39.907253,35.203818 43,38 c 2.090722,0.703579 2.090722,0.703579 4.375,0.625 0.750234,0.03352 1.500469,0.06703 2.273437,0.101562 2.698959,-0.571738 2.698959,-0.571738 4.464844,-3.722656 1.669247,-2.170279 2.480131,-2.908493 5.179688,-3.541992 C 62.144183,31.289462 64.956379,31.27191 67.8125,31.3125 77.593531,31.182322 86.467547,30.177577 96,28 97.473398,27.682891 97.473398,27.682891 98.976562,27.359375 100.98817,26.923422 102.99501,26.465445 105,26 c -0.14235,1.729457 -0.28904,3.458557 -0.4375,5.1875 -0.12182,1.444395 -0.12182,1.444395 -0.24609,2.917969 C 104,37 104,37 103.49072,39.319092 c -0.92439,5.0501 -0.67535,10.186276 -0.67822,15.305908 -0.0122,1.125352 -0.0245,2.250703 -0.0371,3.410156 -0.011,6.349735 0.50467,12.190763 1.7771,18.40625 0.68703,3.928009 0.6652,7.771027 0.57251,11.746094 -0.009,0.761191 -0.0181,1.522383 -0.0273,2.306641 -0.0231,1.83543 -0.0589,3.670692 -0.0977,5.505859 -2.54094,0.648814 -5.082683,1.294129 -7.625,1.9375 -0.712852,0.182402 -1.425703,0.364805 -2.160156,0.552734 -0.702539,0.177246 -1.405078,0.354493 -2.128907,0.53711 -0.638891,0.162341 -1.277783,0.324682 -1.936035,0.491943 -5.071582,1.133993 -9.842023,1.592893 -15.040527,1.586183 -16.015456,0.10609 -30.648271,1.21126 -46.214844,5.42187 -11.891751,3.12084 -23.6556675,3.82214 -35.8798826,3.78833 -2.3803491,-0.003 -4.7594514,0.0204 -7.1396484,0.0457 -10.28949,0.0426 -19.853043,-1.0495 -29.875,-3.36133 -0.841919,-0.19344 -1.683838,-0.38688 -2.55127,-0.58618 C -63.128146,102.06155 -80.928765,94.04749 -96,84 c 0.577872,-12.135305 6.512324,-19.626444 15,-28 10.65342,-9.51271 23.379649,-12.630268 37.472656,-12.378906 12.328847,1.324361 23.884637,6.579223 33.8789065,13.761718 0.5753247,0.411534 1.1506494,0.823067 1.7434082,1.247071 1.63467,1.185048 3.2490024,2.398002 4.8620605,3.612304 C 0.31835556,64.183902 2.1871418,64.376156 6,64 7.0738987,60.563524 7.7060452,58.386364 6.0351562,55.105469 1.7074443,49.698582 -3.9394447,46.123249 -9.7558594,42.500732 -13.195953,40.339277 -15.822069,38.543202 -18,35 c 11.3836369,-1.161596 24.0365542,4.235135 33,11 1.087277,1.12235 2.15237,2.266882 3.1875,3.4375 2.640515,2.972922 2.640515,2.972922 6.5625,2.625 C 28.255065,51.287437 28.255065,51.287437 30,48 30.243872,43.935473 29.794134,42.038059 27.308594,38.789062 18.981971,30.060259 8.5641136,24.578342 -2,19 -2.0991667,12.906757 -2.1732897,6.9968141 -1,1 -0.67,0.67 -0.34,0.34 0,0 Z"
       fill="#AB6E25"
       transform="translate(342,799)"
       id="path14"
       style="fill:#aa7833;fill-opacity:1" />
    <path
       d="m 0,0 c 6.5466913,3.5433123 11.239956,8.10818 15.4375,14.1875 0.641107,0.907581 0.641107,0.907581 1.295166,1.833496 3.020758,4.343421 5.698431,8.830615 8.329834,13.416504 4.285557,7.405634 9.502257,13.370784 15.5625,19.375 0.837246,0.88752 0.837246,0.88752 1.691406,1.792969 3.828546,3.728584 8.469721,6.035881 13.183594,8.457031 0.990363,0.512886 0.990363,0.512886 2.000732,1.036133 9.60412,4.723762 18.590534,4.985333 29.186768,4.838867 1.870752,-0.01354 1.870752,-0.01354 3.779297,-0.02734 3.052938,-0.02339 6.105466,-0.05617 9.158203,-0.09766 -0.553269,5.407748 -1.535637,10.354742 -3.222656,15.53125 -0.457338,1.449448 -0.914355,2.898996 -1.371094,4.348633 -0.239766,0.753014 -0.479531,1.506028 -0.726563,2.28186 C 90.1987,99.910131 86.397017,112.89031 83.125,126.0625 c -0.313323,1.25104 -0.626646,2.50207 -0.949463,3.79102 -2.181132,8.93174 -3.932577,17.91203 -5.550537,26.95898 -19.039305,-2.5298 -37.719305,-11.172 -52,-24 -0.850781,-0.74379 -1.701563,-1.48758 -2.578125,-2.25391 -2.507097,-2.2181 -4.984092,-4.45193 -7.421875,-6.74609 -0.865895,-0.57185 -0.865895,-0.57185 -1.749283,-1.15526 -3.6168132,-2.74972 -5.0776531,-4.8738 -5.884796,-9.40213 C 6.6754885,108.6822 6.7606896,104.11134 6.828125,99.53125 6.826355,97.831658 6.821075,96.132066 6.812439,94.432495 6.797217,89.969769 6.820969,85.508179 6.855652,81.045593 6.906206,73.904448 6.904442,66.763352 6.889244,59.622086 c 0.00136,-2.485724 0.023657,-4.970607 0.048561,-7.456192 0.00345,-1.533813 0.0063,-3.067626 0.00848,-4.601441 C 6.958717,46.880611 6.97115,46.196768 6.983959,45.492203 6.9652603,40.493049 5.9335638,37.160567 3.625,32.8125 0.58292576,30.784451 -0.82437,30.26485 -4.4101562,30.878906 -8.8932841,33.00906 -11.565814,37.873663 -14.375,41.8125 -18.368785,47.359423 -22.658644,50.865689 -29.457031,52.230469 -33.236078,52.49782 -35.803362,51.885043 -38.75,49.625 -43.522262,44.511862 -43.820371,39.772038 -43.6875,33.003906 -42.815307,24.096631 -38.653871,16.855589 -33.375,9.8125 -32.773652,8.9636523 -32.773652,8.9636523 -32.160156,8.0976563 -24.532162,-1.9959516 -11.498993,-5.5662805 0,0 Z"
       fill="#FDEAB6"
       transform="translate(252.375,415.1875)"
       id="path16"
       style="fill:#fef1c7;fill-opacity:1" />
    <path
       d="m 0,0 c 9.0810905,7.2923909 14.239712,17.979182 15.8125,29.40625 1.048912,17.609627 -2.576665,33.928559 -14.5,47.5 -1.47872658,1.520976 -2.9769377,3.023422 -4.5,4.5 -0.5633203,0.572344 -1.1266406,1.144688 -1.7070312,1.734375 C -14.430348,92.142807 -27.790971,96.412339 -40.6875,96.78125 -53.700432,96.393499 -65.158383,92.102823 -74.9375,83.34375 -85.294967,72.021617 -89.881529,58.031682 -89.464844,42.847656 -88.147997,26.507634 -80.024413,13.314149 -68.1875,2.40625 -47.523284,-13.705334 -21.323497,-15.53569 0,0 Z"
       fill="#F7B632"
       transform="translate(491.1875,84.59375)"
       id="path18"
       style="fill:#f2b246;fill-opacity:1" />
    <path
       d="m 0,0 c 12.086955,8.3432076 19.197676,19.174836 22.238281,33.632812 3.126691,24.358407 -3.39347,46.921759 -18.2460935,66.363282 -6.6292926,7.516106 -16.7815335,13.379576 -26.8085935,14.507816 -8.380654,0.47153 -15.608202,-0.6899 -22.535156,-5.67578 -0.703829,-0.49629 -1.407657,-0.99258 -2.132813,-1.50391 -9.465018,-7.467649 -14.184772,-18.305005 -17.867187,-29.496095 -0.247501,-0.734766 -0.495001,-1.469531 -0.75,-2.226563 -4.875309,-17.537567 -0.171287,-37.482371 8.414062,-53.039062 5.439818,-9.117903 13.478535,-16.9529065 22.335938,-22.734375 0.970664,-0.64775391 0.970664,-0.64775391 1.960937,-1.3085937 C -23.254232,-7.09238 -9.68381,-5.6776311 0,0 Z"
       fill="#F7B731"
       transform="translate(882.35156,544.17187)"
       id="path20"
       style="fill:#b98138;fill-opacity:1" />
    <path
       d="m 0,0 c 10.367922,4.4286133 16.696701,14.558432 20.850586,24.55127 5.010782,12.654065 5.445328,24.419871 4.731445,37.847167 -0.03867,0.728965 -0.07734,1.45793 -0.117187,2.208985 -1.276575,19.76814 -8.798377,40.420718 -23.8828128,53.791018 -7.5772329,4.83606 -15.0127942,7.11049 -24.0000002,6 -10.220968,-3.29411 -17.399162,-10.85489 -22.617187,-20.00781 -2.8139,-6.088839 -4.595458,-12.540625 -6.382813,-18.992193 -0.271549,-0.93453 -0.271549,-0.93453 -0.548584,-1.887939 -4.236118,-19.81972 0.442356,-43.074446 10.470459,-60.440186 1.930083,-2.977414 3.94549,-5.836725 6.078125,-8.671874 0.554297,-0.750235 1.108594,-1.500469 1.679688,-2.273438 C -24.85016,1.0254802 -14.125584,-3.5142809 0,0 Z"
       fill="#A27533"
       transform="translate(859.41797,295.60156)"
       id="path22"
       style="fill:#ae8e4e;fill-opacity:1" />
    <path
       d="M 0,0 C 1.0190039,0.65162109 1.0190039,0.65162109 2.0585938,1.3164062 3.2168164,2.0453711 3.2168164,2.0453711 4.3984375,2.7890625 14.276779,9.7417053 21.167819,20.869491 23.659363,32.639374 c 0.782432,5.246575 0.641107,10.512928 0.594543,15.805938 -0.002,1.091796 -0.004,2.183592 -0.0061,3.308472 -0.01039,4.041751 -0.03831,8.083441 -0.06421,12.125122 -0.04125,9.054375 -0.0825,18.10875 -0.125,27.4375 -28.0500002,0 -56.1,0 -85,0 -0.06188,-9.85875 -0.12375,-19.7175 -0.1875,-29.875 -0.04097,-4.640383 -0.04097,-4.640383 -0.08276,-9.374511 -0.0088,-2.476722 -0.01641,-4.953447 -0.02271,-7.430176 -0.01535,-1.26594 -0.0307,-2.53188 -0.04651,-3.836182 -0.0038,-12.926053 2.76328,-21.68921 11.339478,-31.4841307 C -37.642097,-2.8228753 -16.043371,-8.2075711 0,0 Z"
       fill="#F8B632"
       id="path24"
       style="fill:#f2b246;fill-opacity:1"
       transform="translate(219.94141,186.68359)" />
    <path
       d="m 205,226.00433 c 6.62001,2.29412 10.50924,7.16653 13.56885,13.37679 1.66449,4.04331 1.8177,7.88792 1.72412,12.22765 -0.003,0.67405 -0.006,1.34811 -0.009,2.04259 -0.0155,2.48452 -0.0574,4.96882 -0.0963,7.45307 -0.0619,5.57078 -0.12375,11.14157 -0.1875,16.88117 -11.88,0 -23.76,0 -36,0 -0.0825,-5.88611 -0.165,-11.77222 -0.25,-17.83671 -0.0364,-1.84138 -0.0728,-3.68276 -0.11035,-5.57994 -0.0117,-1.48439 -0.0219,-2.96879 -0.0303,-4.4532 -0.0205,-0.75055 -0.0409,-1.50109 -0.062,-2.27439 -0.004,-6.5798 1.96189,-11.8798 6.3042,-16.80054 0.58524,-0.4638 1.17047,-0.92759 1.77344,-1.40544 0.59039,-0.48219 1.18078,-0.96438 1.78906,-1.46118 3.67241,-2.6644 7.21911,-2.61162 11.58594,-2.16987 z"
       fill="#feeebd"
       id="path54"
       style="fill:#fef1c7;fill-opacity:1;stroke-width:1.00957" />
    <path
       d="M 0,0 C 2.789586,2.5320858 4.6562348,5.4022963 6.6875,8.5625 28.831827,42.01969 62.339983,61.875395 100,74 98.774171,82.371124 97.111304,90.59437 95.023437,98.789062 94.335301,101.49343 93.837812,104.06179 93.414062,106.83594 92.72179,110.46019 92.064469,112.93599 90,116 78.696601,122.27644 60.603202,121.87969 48.28125,119.1875 34.967771,114.24642 28.140038,103.7278 21.25,92.087402 12.688782,77.790837 3.7520813,65.419241 -11,57 c -0.99,-0.66 -1.98,-1.32 -3,-2 -0.360764,-2.024811 -0.360764,-2.024811 -0.340576,-4.541504 2.26e-4,-0.940824 4.53e-4,-1.881648 6.86e-4,-2.850983 0.01548,-1.017745 0.03097,-2.03549 0.04692,-3.084076 0.0042,-1.040384 0.0085,-2.080768 0.01286,-3.152679 0.01683,-3.332179 0.05449,-6.66376 0.09261,-9.995758 0.01504,-2.2552 0.02873,-4.510409 0.04102,-6.765625 C -14.113357,19.072711 -14.063114,13.536398 -14,8 c 0.614158,-0.1853833 1.228315,-0.3707666 1.861084,-0.5617676 0.807678,-0.254187 1.615356,-0.508374 2.4475097,-0.7702637 0.7997828,-0.2472583 1.5995655,-0.4945166 2.423584,-0.7492675 C -3.9514396,4.5752252 -2.2772384,2.7179942 0,0 Z"
       fill="#f3f3f3"
       transform="translate(274,337)"
       id="path26" />
    <path
       d="M 0,0 C 0.92079346,8.8623e-4 1.8415869,0.00177246 2.7902832,0.00268555 9.8765169,0.12545294 16.446911,0.83912068 22.75,4.375 c 0.99,1.485 0.99,1.485 2,3 C 23.792227,7.5593359 22.834453,7.7436719 21.847656,7.9335937 6.0340941,11.264138 -7.3723371,18.360485 -19.25,29.375 c -0.826289,0.746367 -1.652578,1.492734 -2.503906,2.261719 -23.292473,22.053123 -38.709417,55.49267 -39.75,87.562501 -0.257098,15.67544 1.13432,30.81016 4.253906,46.17578 -6.057215,4.52096 -11.641554,7.24872 -19,9 -14.243397,-26.91068 -16.219665,-58.7543 -8,-88 0.300352,-1.094414 0.600703,-2.188828 0.910156,-3.316406 C -77.612027,64.436992 -68.273969,44.94292 -55.25,30.375 c 0.746367,-0.888164 1.492734,-1.776328 2.261719,-2.691406 C -39.210908,11.732013 -21.634874,-0.03735235 0,0 Z"
       fill="#A27533"
       transform="translate(704.25,395.625)"
       id="path28"
       style="fill:#ae8e4e;fill-opacity:1" />
    <path
       d="m 0,0 c 26.4,0 52.8,0 80,0 0,13.86 0,27.72 0,42 -4.29,0.66 -8.58,1.32 -13,2 -3.609291,1.036178 -3.609291,1.036178 -6.5,2.375 -0.938438,0.399609 -1.876875,0.799219 -2.84375,1.210937 -2.77869,1.353433 -2.77869,1.353433 -5.238281,3.644532 C 50,53 50,53 47.957031,52.839844 47.249336,52.54207 46.541641,52.244297 45.8125,51.9375 31.241017,46.787049 15.183789,46.380344 0,45 0,30.15 0,15.3 0,0 Z"
       fill="#AB6E25"
       transform="translate(161,346)"
       id="path30"
       style="fill:#b98138;fill-opacity:1" />
    <path
       d="m 0,0 c 12.371464,0.34557163 23.940479,2.3426093 36,5 2.144474,0.4625073 4.289007,0.9247345 6.433594,1.3867187 29.964871,6.5078843 59.984916,13.6185883 88.585936,24.8403323 1.88174,0.734416 3.77464,1.440059 5.66797,2.144043 1.0725,0.413789 2.145,0.827578 3.25,1.253906 0.8959,0.342891 1.7918,0.685781 2.71484,1.039062 5.48929,3.123687 7.65163,8.654563 10.03516,14.210938 0.30744,0.681914 0.61488,1.363828 0.93164,2.066406 C 155.5283,56.327884 156.53366,60.237122 157,65 c -4.42455,-0.584538 -8.0989,-1.710922 -12.19141,-3.476563 -1.17973,-0.50217 -2.35946,-1.00434 -3.57495,-1.521728 -0.61813,-0.265476 -1.23627,-0.530953 -1.87314,-0.804474 C 113.26549,48.039568 86.471649,40.917363 59,34 57.992719,33.745128 57.992719,33.745128 56.965088,33.485107 35.264429,28.000514 13.162836,24.102975 -9,21 -7.9465247,18.878418 -6.878426,16.767373 -5.78125,14.667969 -5.3584375,13.849414 -4.935625,13.030859 -4.5,12.1875 -4.0771875,11.37668 -3.654375,10.565859 -3.21875,9.7304688 -1.801904,6.5561888 -0.89155532,3.3557152 0,0 Z"
       fill="#AC7026"
       transform="translate(527,148)"
       id="path32"
       style="fill:#b98138;fill-opacity:1" />
    <path
       d="M 0,0 C 0.99561951,-0.00137466 1.991239,-0.00274933 3.0170288,-0.00416565 4.1132254,-5.7037e-4 5.209422,0.0030249 6.3388367,0.00672913 7.49005,0.0065831 8.6412634,0.00643707 9.8273621,0.00628662 c 3.8200869,6.9885e-4 7.6401259,0.00849 11.4602049,0.01631165 2.642731,0.0018643 5.285461,0.0032881 7.928192,0.0042877 6.254402,0.003111 12.508786,0.01132139 18.76318,0.02134949 7.119618,0.01116816 14.239237,0.01667336 21.358862,0.02169543 14.647327,0.01045926 29.29464,0.02805433 43.941949,0.05032361 0.11619,3.9164171 0.18725,7.832391 0.25,11.7500005 0.0335,1.111171 0.067,2.222343 0.10157,3.367187 0.0193,1.604883 0.0193,1.604883 0.0391,3.242188 0.0314,1.476782 0.0314,1.476782 0.0635,2.983398 -0.58998,3.452305 -1.66028,4.593322 -4.45411,6.657227 -2.24857,0.500571 -2.24857,0.500571 -4.75074,0.501205 -0.95197,0.0098 -1.90393,0.01967 -2.88474,0.0298 -1.55631,-0.0145 -1.55631,-0.0145 -3.144056,-0.0293 -1.646878,0.0081 -1.646878,0.0081 -3.327027,0.01637 -3.632719,0.01252 -7.264651,-0.004 -10.897339,-0.02199 -2.520584,1.55e-4 -5.041169,0.0016 -7.561752,0.0044 -5.283487,0.0014 -10.566696,-0.01076 -15.850113,-0.03395 -6.10881,-0.02662 -12.21724,-0.02835 -18.326088,-0.01661 -5.877605,0.01078 -11.755094,0.0045 -17.632696,-0.0096 -2.501121,-0.0045 -5.002254,-0.0048 -7.503376,-9.34e-4 -3.490876,0.0029 -6.981125,-0.01354 -10.4719219,-0.0354 -1.0395634,0.0045 -2.0791269,0.009 -3.1501922,0.01364 -0.9491428,-0.0099 -1.8982856,-0.01981 -2.87619022,-0.03001 -0.82534021,-0.0024 -1.65068041,-0.0049 -2.50103088,-0.0074 -2.6354663,-0.47218 -3.5265373,-1.262827 -5.1227332,-3.380316 -0.3405761,-2.543702 -0.3405761,-2.543702 -0.2929687,-5.542969 0.00967,-1.073145 0.019336,-2.146289 0.029297,-3.251953 0.025137,-1.119551 0.050273,-2.239102 0.076172,-3.392578 0.020303,-1.696729 0.020303,-1.696729 0.041016,-3.4277349 0.035385,-2.7953988 0.084755,-5.5898445 0.1464843,-8.3847656 C -4.281143,-0.09929664 -2.7264741,-0.00289435 0,0 Z"
       fill="#A96D24"
       transform="translate(147.72025,297.87975)"
       id="path34"
       style="fill:#b98138;fill-opacity:1" />
    <path
       d="M 0,0 C 34.695667,-0.20638953 34.695667,-0.20638953 49,1 48.386994,5.0636341 46.136427,7.9988259 43.875,11.3125 25.7894,38.824512 20.108501,71.754565 26,104 22.169525,103.04238 19.126778,102.06808 15.625,100.1875 8.9115202,96.643532 1.2716182,95.038525 -6,93 c 0.464611,-8.553832 0.9743061,-17.099305 1.6835938,-25.636719 0.060369,-0.726749 0.1207388,-1.453498 0.1829376,-2.20227 0.1255492,-1.50614 0.2512895,-3.012263 0.3772125,-4.518372 C -2.077076,40.448575 -0.95393476,20.239858 0,0 Z"
       fill="#A27633"
       transform="translate(719,282)"
       id="path36"
       style="fill:#ae8e4e;fill-opacity:1" />
    <path
       d="M 0,0 C 3.9356897,2.5356165 7.1855195,5.4305594 10.445313,8.7851563 6.6863563,12.634087 2.9292002,16.432721 -1.1796875,19.910156 c -1.466284,1.282634 -2.9231252,2.576078 -4.375,3.875 -0.5402783,0.48211 -1.0805566,0.964219 -1.637207,1.460938 -8.5253245,7.715476 -14.3681485,14.140945 -17.3627925,25.539062 -0.386491,1.313337 -0.775929,2.625809 -1.167969,3.9375 -1.663272,5.751857 -3.081083,11.020692 -2.832031,17.0625 3.68752,0.54529 4.886826,0.08069 7.980468,-2.125 1.080161,-0.945748 2.148679,-1.904909 3.207032,-2.875 1.151863,-1.029342 2.305525,-2.056674 3.460937,-3.082031 0.566865,-0.504829 1.13373,-1.009658 1.717773,-1.529785 2.1971265,-1.866835 4.5734242,-3.441125 6.9462895,-5.075684 9.7643498,-7.80516 13.5183238,-21.874364 17.4304195,-33.280517 2.05741,-5.932148 2.05741,-5.932148 4.25708,-7.031983 5.944043,14.541676 6.111451,30.134325 0.496094,44.785156 -2.072837,4.454165 -4.482472,8.346235 -7.4960935,12.214844 -0.598125,0.886875 -1.19625,1.77375 -1.8125,2.6875 -5.7590676,6.088157 -12.7313276,10.029569 -21.1250005,10.5625 -8.18327,-0.324855 -12.871553,-3.110433 -18.757812,-8.683594 -10.514539,-11.708563 -10.059451,-26.970049 -9.495605,-41.768066 0.688983,-10.098636 4.767064,-18.08155 11.190918,-25.79834 0.546562,-0.658711 1.093125,-1.3174216 1.65625,-1.9960935 C -21.663862,0.85491761 -10.525671,-5.0053266 0,0 Z"
       fill="#FDEDBC"
       transform="translate(870.55469,555.21484)"
       id="path38"
       style="fill:#fcebc1;fill-opacity:1" />
    <path
       d="M 0,0 C 1.0741113,0.00773437 1.0741113,0.00773437 2.1699219,0.015625 5.5910653,0.06635558 8.7922906,0.19123769 12.0625,1.25 10.452809,4.8632423 8.2311299,7.7571063 5.8125,10.875 -12.491719,35.036423 -17.991752,64.063561 -14.476563,94.015625 -12.370238,106.45533 -7.7380685,118.09506 -1.9375,129.25 c 0,0.66 0,1.32 0,2 -7.8489121,-0.3991 -15.216394,-1.86973 -22,-6 C -38.57248,109.01804 -40.948064,84.86912 -40.132812,64.100586 -38.518277,40.536447 -27.223929,19.90279 -10.9375,3.25 -10.314883,2.38375 -10.314883,2.38375 -9.6796875,1.5 -6.766172,-0.59041471 -3.443398,-0.09864703 0,0 Z"
       fill="#A27633"
       transform="translate(803.9375,286.75)"
       id="path40"
       style="fill:#ae8e4e;fill-opacity:1" />
    <path
       d="m 0,0 c 37.874082,-1.2044761 80.216417,10.596872 109,36 0.83918,0.730898 1.67836,1.461797 2.54297,2.214844 C 126.24267,51.224415 126.24267,51.224415 129,57 123.74438,55.950883 118.72191,54.646257 113.67578,52.843506 77.661342,39.989179 39.658714,32.972484 2,27 2.0348047,25.458926 2.0348047,25.458926 2.0703125,23.886719 2.1972118,15.685851 1.9060488,8.0326342 0,0 Z"
       fill="#FCEAB7"
       transform="translate(528,101)"
       id="path42"
       style="fill:#fef1c7;fill-opacity:1" />
    <path
       d="M 0,0 C 3.1691193,2.6761452 6.3101156,5.3438536 9.3164063,8.203125 26.738174,24.693958 48.625401,38.288043 71.71875,45.070312 72.471563,45.377109 73.224375,45.683906 74,46 c 1.255975,3.767926 0.542731,5.268146 -0.6875,9 -0.333867,1.051875 -0.667734,2.10375 -1.011719,3.1875 -1.80668,3.906337 -3.73257,5.180534 -7.65625,6.761719 C 56.86226,66.977976 49.079296,67.528479 41.0625,67.8125 39.972356,67.88493 38.882212,67.957358 37.759033,68.031982 34.547392,68.082827 32.056286,68.002009 29,67 26.2627,63.990452 24.730885,60.650483 23,57 15.397272,48.054809 4.9021819,44.395762 -6,41 -6.9888589,27.090052 -4.4022711,13.206813 0,0 Z"
       fill="#FCEAB7"
       transform="translate(370,741)"
       id="path44"
       style="fill:#fef1c7;fill-opacity:1" />
    <path
       d="m 0,0 c 0.04665034,7.6157479 0.08203343,15.231481 0.10362434,22.84734 0.0103704,3.537592 0.0244039,7.075085 0.0472546,10.612621 0.0261921,4.081063 0.0356495,8.162026 0.0444336,12.243164 0.0103226,1.250491 0.0206451,2.500983 0.0312805,3.789368 C 0.22852727,64.862058 0.22852727,64.862058 -2,72 c -9.396667,6.264444 -25.588925,4.279915 -36.47168,4.205811 -2.788178,-0.01838 -5.576024,-0.02051 -8.364257,-0.02026 C -71.378566,76.139936 -71.378566,76.139936 -77,73 c 0,-2.31 0,-4.62 0,-7 1.887187,-0.02127 1.887187,-0.02127 3.8125,-0.04297 16.585435,-0.381012 32.172518,-2.561251 44.242188,-15.089844 C -21.149132,41.582939 -20.342377,32.879193 -21,21 -21.207083,19.455212 -21.431733,17.912477 -21.6875,16.375 -22,13 -22,13 -20.6875,10.8125 -20.130625,10.214375 -19.57375,9.61625 -19,9 -18.619082,7.7431641 -18.619082,7.7431641 -18.230469,6.4609375 -17,4 -17,4 -14.539063,3.1445313 -13.577422,3.0349609 -12.615781,2.9253906 -11.625,2.8125 -7.6235318,2.3217539 -3.7919161,0 0,0 Z"
       fill="#AC6F25"
       transform="translate(239,482)"
       id="path46"
       style="fill:#b98138;fill-opacity:1" />
    <path
       d="M 0,0 C 6.4472049,3.2048969 9.4329228,9.5716992 12,16 15.851444,29.102513 13.893042,45.708719 7.609375,57.640625 4.8003369,62.223792 2.0322536,65.816192 -3,68 -7.5891938,68.785726 -11.880084,69.067752 -16.125,66.929687 -20.515115,63.466795 -23.000557,59.154963 -25,54 c -0.35707,-0.853359 -0.714141,-1.706719 -1.082031,-2.585938 -3.487185,-12.96936 -1.823798,-28.224469 4.4375,-39.953124 C -16.50729,3.0044601 -10.344596,-2.2821413 0,0 Z"
       fill="#543915"
       transform="translate(854,324)"
       id="path48" />
    <path
       d="m 0,0 c 5.0896086,3.3221264 8.3623199,8.67053 10.148438,14.402344 0.216601,2.776438 0.333934,5.414499 0.3125,8.1875 -0.0085,1.135019 -0.0085,1.135019 -0.01709,2.292968 -0.234096,10.828683 -3.4881503,19.411445 -11.0297855,27.34375 -4.5597697,4.166339 -8.5493332,5.933256 -14.7656255,6.488282 -6.448566,-0.575765 -10.340469,-3.496201 -14.499999,-8.3125 -5.922046,-8.843323 -6.186502,-18.559226 -4.539063,-28.890625 2.443191,-9.140407 7.786095,-16.7024591 15.539063,-22.10937525 C -12.481226,-4.1013414 -6.3107822,-3.0261601 0,0 Z"
       fill="#FEEEBB"
       transform="translate(465.85156,97.597656)"
       id="path50"
       style="fill:#fef1c7;fill-opacity:1" />
    <path
       d="m 0,0 c 6.1766444,2.5638901 9.2951812,8.1015397 12,14 3.835534,12.641609 3.503358,26.906201 -2,39 -2.9615442,5.257573 -6.0758949,9.141457 -12,11 -4.5983197,0.654536 -7.952983,0.492714 -12.1875,-1.5 -6.79645,-6.041289 -11.020095,-12.873488 -12.113525,-22.017334 -0.135592,-2.627175 -0.166492,-5.22724 -0.136475,-7.857666 0.01027,-1.383728 0.01027,-1.383728 0.02075,-2.79541 C -26.18517,19.999236 -23.799072,11.358995 -17,4 -11.869349,-0.7641761 -6.6778615,-0.93829444 0,0 Z"
       fill="#533714"
       transform="translate(510,235)"
       id="path52"
       style="fill:#543f21;fill-opacity:1" />
    <path
       d="m 0,0 c 1.736084,1.0944824 1.736084,1.0944824 3.4335938,2.6679688 0.6870703,0.6353466 1.3741406,1.2706933 2.0820312,1.9252929 4.8984,4.745325 9.754458,9.5297723 14.568604,14.3605953 1.869869,1.875289 3.7451,3.745098 5.620849,5.614502 1.191077,1.191737 2.381843,2.383783 3.572266,3.576172 0.560334,0.55831 1.120668,1.11662 1.697983,1.691849 3.466246,3.487476 4.903227,4.949164 5.399673,9.91362 -0.06352,3.48711 -0.507454,4.477655 -2.375,7.6875 -3.1893,2.724193 -4.828155,3.401634 -8.839844,3.945312 C 18.855672,50.265562 13.967735,44.24618 9.6679688,39.898437 8.6521447,38.881926 8.6521447,38.881926 7.6157989,37.844879 6.1940421,36.420115 4.7747021,34.992936 3.357666,33.563477 1.1823653,31.369822 -1.0009293,29.184372 -3.1855469,27 -4.5681829,25.612452 -5.9503607,24.224447 -7.3320312,22.835937 -7.9861348,22.180721 -8.6402383,21.525505 -9.3141632,20.850433 -9.9153648,20.242852 -10.516566,19.63527 -11.135986,19.009277 -11.66638,18.475072 -12.196774,17.940866 -12.74324,17.390472 -15.32429,14.534813 -15.327239,11.80884 -15.292969,8.0390625 -14.83745,4.8686543 -13.246843,3.1807598 -11,1 -7.4014392,-0.79928041 -3.9133336,-0.66445659 0,0 Z"
       fill="#F8B32F"
       transform="translate(101,117)"
       id="path56"
       style="fill:#f2b246;fill-opacity:1" />
    <path
       d="m 0,0 c 2.5625,0.1875 2.5625,0.1875 4.5625,2.1875 -0.54444,9.093306 -4.63954196,17.645343 -8,26 -0.2926172,0.741211 -0.5852344,1.482422 -0.8867187,2.246094 -4.385102,10.813939 -10.1256683,17.465969 -19.4165043,24.455078 -2.503872,1.916633 -4.863128,4.000103 -7.259277,6.048828 -2.576549,2.196988 -3.763729,3.184077 -7.152344,3.515625 C -40.4375,64.1875 -40.4375,64.1875 -41.4375,63.1875 c 0.08091,-7.01015 1.762214,-13.595474 3.8125,-20.25 0.248145,-0.858516 0.496289,-1.717031 0.751953,-2.601563 2.938512,-9.720269 8.563326,-15.56797 15.685547,-22.585937 0.821133,-0.820488 1.642266,-1.640977 2.488281,-2.486328 C -14.24392,10.840146 -9.7068923,6.5694634 -4.9423828,2.4802246 -2.2572412,0.17363394 -2.2572412,0.17363394 0,0 Z"
       fill="#513613"
       transform="translate(882.4375,563.8125)"
       id="path58"
       style="fill:#543f21;fill-opacity:1" />
    <path
       d="M 0,0 C 3.0133311,1.6225629 5.2613278,3.1007469 7.4375,5.75 8.3681994,9.4727975 8.3105173,12.432296 7,16 4.007739,19.898328 0.50643671,23.195443 -3.0625,26.5625 c -0.9300586,0.906855 -1.8601172,1.813711 -2.8183594,2.748047 -4.7051606,4.559674 -9.5105906,8.970993 -14.4768066,13.243896 -1.336601,1.176456 -2.608053,2.426605 -3.857178,3.695557 -2.530392,2.570557 -4.494493,4.513956 -8.113281,5.175781 C -36.396076,51.230466 -39.2139,50.344303 -42.0625,47.375 -44.399007,43.304956 -44.953746,41.609774 -44,37 c 5.134954,-7.388262 12.493363,-13.679514 18.843994,-20.029297 1.85503,-1.857241 3.70188,-3.722375 5.548584,-5.58789 1.185058,-1.187989 2.370588,-2.3755058 3.556641,-3.5625005 0.547987,-0.555173 1.095975,-1.1103461 1.660568,-1.6823425 C -9.7637838,1.539037 -6.6546753,-0.79856104 0,0 Z"
       fill="#F8B32F"
       transform="translate(307,117)"
       id="path60"
       style="fill:#f2b246;fill-opacity:1" />
    <path
       d="m 0,0 c 0.86462357,-0.00637985 1.7292471,-0.0127597 2.6200714,-0.01933289 0.9364385,-0.0011128 1.8728769,-0.0022256 2.8376923,-0.0033722 0.9619377,-0.0033284 1.9238754,-0.0066568 2.9149627,-0.01008606 2.0385136,-0.0050693 4.0770356,-0.0074083 6.1155546,-0.0072479 3.114317,-0.0021811 6.228276,-0.0203218 9.34253,-0.03930664 1.979816,-0.002935 3.959634,-0.0049191 5.939453,-0.0058594 1.395548,-0.01077827 1.395548,-0.01077827 2.81929,-0.02177429 8.407358,0.02959263 8.407358,0.02959263 12.223678,2.25224308 1.660157,2.6445312 1.660157,2.6445312 3.0625,5.8125 1.904562,4.2470143 3.897023,7.6500853 6.9375,11.1875003 -3.2052,2.1368 -4.21678,2.279756 -7.927002,2.410644 -1.502198,0.05984 -1.502198,0.05984 -3.034744,0.12088 -1.621885,0.05014 -1.621885,0.05014 -3.276535,0.101288 -1.113523,0.04156 -2.227047,0.08313 -3.374313,0.125946 -3.566382,0.130873 -7.133067,0.248572 -10.699906,0.366242 -2.392608,0.0864 -4.785187,0.173633 -7.177734,0.261718 C 7.7425343,22.94989 7.7425343,22.94989 3.3008728,23.069641 c -2.0312785,0.06175 -4.06117754,0.16755 -6.0899353,0.286072 -0.7912427,-0.06945 -1.5824853,-0.138897 -2.3977051,-0.210449 -3.4788913,-5.218337 -3.4547462,-10.877563 -3,-17.0000003 0.875,-3 0.875,-3 2,-5 C -3.8839323,-0.00615399 -2.5614776,0.0128112 0,0 Z"
       fill="#FCEBB8"
       transform="translate(145.18677,460.85474)"
       id="path62"
       style="fill:#fef1c7;fill-opacity:1" />
    <path
       d="m 0,0 c 3.0250815,1.736021 5.4179007,3.8358014 7,7 0.1041924,1.3927304 0.1486209,2.7902013 0.1611328,4.186768 0.00961,0.864623 0.019215,1.729247 0.029114,2.620071 0.00425,0.936438 0.0085,1.872877 0.012878,2.837692 0.0057,0.961938 0.0114,1.923876 0.017273,2.914963 0.00946,2.038507 0.015987,4.077029 0.019837,6.115555 0.00969,3.114449 0.040706,6.228235 0.072266,9.342529 0.00653,1.979814 0.011781,3.959632 0.015625,5.939453 0.012347,0.930366 0.024694,1.860732 0.037414,2.81929 C 7.3448061,49.815 6.5612873,53.347238 2.25,57.8125 -1.0017156,59.528683 -3.3746016,59.381621 -7,59 c -3.830499,-1.702444 -5.444473,-3.156422 -7,-7 -0.267426,-2.19371 -0.267426,-2.19371 -0.290527,-4.597412 -0.01276,-0.904514 -0.02552,-1.809028 -0.03867,-2.740952 -0.0022,-0.969863 -0.0045,-1.939727 -0.0067,-2.93898 -0.0067,-1.0035 -0.01331,-2.007 -0.02017,-3.040909 -0.01012,-2.120703 -0.01482,-4.241439 -0.0145,-6.362167 -0.0044,-3.241826 -0.04071,-6.482291 -0.07861,-9.723877 -0.0059,-2.061844 -0.0098,-4.123695 -0.01172,-6.185547 -0.01437,-0.967839 -0.02874,-1.935678 -0.04355,-2.932846 0.02948,-4.3490948 0.08469,-6.7963587 2.408295,-10.5654448 C -8.4413809,-0.42156373 -4.8086082,-0.82076429 0,0 Z"
       fill="#F8B42F"
       transform="translate(205,77)"
       id="path64"
       style="fill:#f2b246;fill-opacity:1" />
    <path
       d="m 0,0 c 4.483009,2.3978885 6.9213127,6.1701372 9.046875,10.683594 1.251107,4.353237 1.468078,8.428844 1.515625,12.941406 0.01458,0.799299 0.02917,1.598599 0.04419,2.422119 C 10.487102,33.073795 8.3693775,39.038954 3.25,44 -0.78226295,46.481393 -3.3975303,46.933433 -8,46 -13.851689,43.659324 -16.302067,39.056807 -18.859375,33.558594 -21.391444,25.658886 -21.434264,16.59029 -18.375,8.8125 -14.285043,1.1730438 -8.4914103,-2.0326928 0,0 Z"
       fill="#523714"
       transform="translate(398,234)"
       id="path66"
       style="fill:#543f21;fill-opacity:1" />
    <path
       d="m 0,0 c 1.0849072,0.04455322 2.1698145,0.08910645 3.2875977,0.13500977 1.1464599,0.0650171 2.2929199,0.13003418 3.474121,0.19702148 1.1645069,0.0553491 2.3290137,0.11069824 3.5288083,0.16772461 8.463961,0.44277912 16.801816,1.22438224 25.158692,2.64477544 1.146801,3.440403 0.871247,4.0027038 -0.433594,7.2304687 -0.319043,0.802441 -0.638086,1.604883 -0.966797,2.431641 -0.342246,0.833379 -0.684492,1.666757 -1.037109,2.52539 -0.338379,0.844981 -0.676758,1.689961 -1.025391,2.560547 -0.837365,2.087515 -1.683311,4.171117 -2.537109,6.251953 -5.926464,0.09879 -11.85245,0.171433 -17.779541,0.219727 -2.0166867,0.02013 -4.0333148,0.04744 -6.049805,0.08203 -2.8968751,0.04846 -5.7929794,0.0712 -8.6901855,0.08887 -0.9032149,0.02064 -1.8064298,0.04129 -2.7370148,0.06256 -6.2479957,0.0022 -6.2479957,0.0022 -8.8044887,-2.347717 C -16.2952,18.4753 -16.377336,15.178119 -15.550781,11.144532 -12.058766,4.6125419 -7.72672,-0.35642096 0,0 Z"
       fill="#FAE9B7"
       transform="translate(159.55078,414.85547)"
       id="path68"
       style="fill:#fef1c7;fill-opacity:1" />
    <path
       d="m 0,0 c 1.7573617,1.8119947 2.1827868,2.9554848 2.5703125,5.4296875 -0.020625,1.03125 -0.04125,2.0625 -0.0625,3.125 C -0.87449133,11.465749 -0.87449133,11.465749 -3.4726563,11.839844 -9.8232993,11.199159 -15.393483,9.1912448 -21.310303,6.9267578 -28.617321,4.260974 -36.057032,3.0412968 -43.737061,1.9362793 c -8.990373,-1.34720026 -8.990373,-1.34720026 -12.755126,-4.3815918 -2.165512,-3.2482667 -2.55157,-4.2309416 -2,-8.0000005 1.738429,-2.235123 3.137611,-3.630404 5.75,-4.75 C -34.883729,-17.179586 -14.522264,-10.215281 0,0 Z"
       fill="#523613"
       transform="translate(609.49219,316.44531)"
       id="path70"
       style="fill:#543f21;fill-opacity:1" />
    <path
       d="m 0,0 c 1.078623,-0.01836914 2.1572461,-0.03673828 3.2685547,-0.05566406 0.9360205,-0.01981934 1.872041,-0.03963867 2.8364258,-0.0600586 2.2182617,0.2084961 2.2182617,0.2084961 4.2182615,2.20849606 0.462553,4.6255305 0.459913,7.0433804 -1.5624998,11.2499996 -4.7811352,5.394102 -10.1668056,7.438204 -17.2966309,7.958741 -3.3594473,0.108011 -6.7176173,0.175121 -10.0783693,0.228759 -1.167246,0.04576 -2.334492,0.09152 -3.537109,0.138672 -9.608088,0.125918 -9.608088,0.125918 -13.279297,-3.416015 -2.666719,-3.751958 -3.396583,-6.229561 -3.433594,-10.7226566 -0.01418,-0.785039 -0.02836,-1.5700781 -0.04297,-2.3789062 0.230469,-2.0585938 0.230469,-2.0585938 2.230469,-4.0585938 3.065918,-0.31884762 3.065918,-0.31884762 6.992188,-0.41406246 0.701179,-0.0193661 1.402359,-0.0387323 2.124786,-0.0586853 2.25255,-0.0598088 4.505161,-0.10601981 6.758026,-0.15225219 1.479189,-0.0382102 2.958357,-0.0772637 4.4375,-0.1171875 C -12.796805,0.25777916 -9.2294237,0.18688062 -5.6612549,0.1282959 -3.7739877,0.09451385 -1.8869689,0.04761276 0,0 Z"
       fill="#fcecba"
       transform="translate(187.67676,504.90723)"
       id="path72" />
    <path
       d="m 0,0 c 16.708461,3.214692 32.730846,11.258729 44.414062,23.757812 2.158891,3.3103 2.491786,4.998066 1.875,8.875 -2,2 -2,2 -5.6875,2.371094 -4.498283,-0.122588 -7.640102,-1.839475 -11.3125,-4.308594 -1.30987,-0.831521 -2.621115,-1.66088 -3.933593,-2.488281 -0.668863,-0.427485 -1.337725,-0.85497 -2.026856,-1.29541 -3.307716,-2.073955 -6.697101,-3.994986 -10.10205,-5.903809 -0.658228,-0.370605 -1.316456,-0.74121 -1.994629,-1.123046 C 5.5801412,16.732992 -0.18665269,13.851232 -6.015625,11.042969 -8.7109375,9.6328125 -8.7109375,9.6328125 -10.710938,7.6328125 -11.070559,4.827766 -11.193076,3.2874733 -9.4882813,0.97265625 -6.4421567,-1.323653 -3.6313799,-0.45032943 0,0 Z"
       fill="#513513"
       transform="translate(556.71094,338.36719)"
       id="path74"
       style="fill:#543f21;fill-opacity:1" />
    <path
       d="M 0,0 C 1.668503,0.66205726 3.3347768,1.329736 5,2 5.8224219,2.3003516 6.6448437,2.6007031 7.4921875,2.9101563 10.43739,4.3344754 12.043343,5.3405077 14,8 14.885945,13.625117 13.850724,19.42372 13,25 3.1391877,23.98901 -4.8825596,16.4704 -12,10 -11.319375,9.46375 -10.63875,8.9275 -9.9375,8.375 -6.5661583,5.6492344 -3.2793446,2.8351682 0,0 Z"
       fill="#AD7026"
       transform="translate(727,658)"
       id="path76"
       style="fill:#ae8e4e;fill-opacity:1" />
    <path
       d="m 0,0 c 0,4.0446722 -1.8812451,6.7777487 -3.75,10.25 -10.095563,19.400361 -12.526094,42.666302 -6.605469,63.78125 1.7190871,5.403224 4.2521,10.344728 6.964844,15.308594 C -2,92 -2,92 -2,94 -2.66,94 -3.32,94 -4,94 -17.263205,77.557728 -19.174203,58.331548 -18,38 -16.460424,23.992381 -9.834307,10.080165 0,0 Z"
       fill="#B57426"
       transform="translate(814,554)"
       id="path78"
       style="fill:#ae8e4e;fill-opacity:1" />
    <path
       d="M 0,0 C 0.99,0 1.98,0 3,0 6.080838,6.1616759 4.6803285,18.027105 2.75,24.5 1,28 1,28 -1.109375,28.71875 -1.7332812,28.811562 -2.3571875,28.904375 -3,29 -4.7337068,25.532586 -4.2270366,21.63303 -4.25,17.8125 -4.270625,16.973965 -4.29125,16.13543 -4.3125,15.271484 -4.3471104,9.729501 -3.5810292,5.9209017 -1,1 -0.67,0.67 -0.34,0.34 0,0 Z"
       fill="#A67833"
       transform="translate(847,344)"
       id="path82"
       style="fill:#ae8e4e;fill-opacity:1" />
    <path
       d="m 0,0 c 2.0625,0.25 2.0625,0.25 4,1 1.585869,3.171738 1.3786644,6.6351382 1.5625,10.125 0.043184,0.754102 0.086367,1.508203 0.1308594,2.285156 C 5.7994832,15.273219 5.90025,17.136585 6,19 2.04,19.495 2.04,19.495 -2,20 -2.053792,17.041426 -2.093571,14.083823 -2.125,11.125 -2.141758,10.283242 -2.158516,9.4414844 -2.175781,8.5742188 -2.182231,7.7685547 -2.188672,6.9628906 -2.195312,6.1328125 -2.211022,5.0173706 -2.211022,5.0173706 -2.22705,3.8793945 -2,2 -2,2 0,0 Z"
       fill="#F3B42F"
       transform="translate(842,496)"
       id="path84"
       style="fill:#b98138;fill-opacity:1" />
  </g>
</svg>
