<?xml version="1.0" encoding="UTF-8" standalone="no"?>
<svg
   version="1.1"
   width="991.5293"
   height="991.5293"
   id="svg158"
   sodipodi:docname="the-polyglot-geokret.svg"
   inkscape:version="1.1.2 (0a00cf5339, 2022-02-04)"
   inkscape:export-filename="/tmp/ChatGPT Image Sep 13, 2025, 10_35_22 PM.png"
   inkscape:export-xdpi="45.169998"
   inkscape:export-ydpi="45.169998"
   xmlns:inkscape="http://www.inkscape.org/namespaces/inkscape"
   xmlns:sodipodi="http://sodipodi.sourceforge.net/DTD/sodipodi-0.dtd"
   xmlns="http://www.w3.org/2000/svg"
   xmlns:svg="http://www.w3.org/2000/svg">
  <defs
     id="defs162" />
  <sodipodi:namedview
     id="namedview160"
     pagecolor="#ffffff"
     bordercolor="#666666"
     borderopacity="1.0"
     inkscape:pageshadow="2"
     inkscape:pageopacity="0.0"
     inkscape:pagecheckerboard="0"
     showgrid="false"
     inkscape:zoom="0.42626953"
     inkscape:cx="-38.707904"
     inkscape:cy="559.50515"
     inkscape:window-width="2490"
     inkscape:window-height="1376"
     inkscape:window-x="2560"
     inkscape:window-y="27"
     inkscape:window-maximized="1"
     inkscape:current-layer="svg158"
     fit-margin-top="0"
     fit-margin-left="0"
     fit-margin-right="0"
     fit-margin-bottom="0" />
  <g
     id="g48751"
     transform="translate(-9.409479)">
    <path
       id="path2"
       d="m 502,0 c -3.20801,1.604004 -6.28315,2.864091 -9.625,4.125 C 485.94236,6.794859 481.17347,10.398556 476,15 l -2.24609,1.917969 c -5.71032,4.97847 -11.07424,10.301629 -16.44141,15.644531 -0.71293,0.708259 -1.42562,1.416763 -2.16016,2.146484 -3.98617,3.998214 -7.79402,8.093573 -11.48046,12.369141 C 441.02281,50.122366 438.26007,53.056698 435.5,56 c -4.017,4.304416 -7.99133,8.629724 -11.83594,13.089844 -1.97946,2.272201 -4.00989,4.494755 -6.03906,6.722656 -3.11029,3.441282 -6.08978,6.950713 -9,10.5625 -4.16463,5.147545 -8.57805,10.008525 -13.07422,14.86328 -4.29747,4.65285 -8.42524,9.44284 -12.53906,14.25781 -0.8045,0.94094 -0.80425,0.94045 -1.625,1.90039 -1.07217,1.25501 -2.14352,2.51213 -3.21289,3.76954 -0.49572,0.58088 -0.99121,1.16127 -1.50195,1.75976 -0.44248,0.5199 -0.88592,1.04052 -1.3418,1.57617 -0.43924,0.4946 -0.87752,0.98847 -1.33008,1.49805 -0.46914,0.54479 -0.93852,1.08909 -1.42188,1.65039 -2.95427,2.52518 -7.14932,2.16288 -10.89062,2.41211 -1.50905,0.11722 -1.5093,0.11673 -3.04883,0.23633 -7.64025,0.54679 -15.28159,0.85312 -22.93555,1.12695 -1.50272,0.0562 -1.50206,0.0559 -3.03515,0.11328 -5.06822,0.18941 -10.13716,0.3614 -15.20703,0.5 -14.0946,0.45479 -31.32393,1.02256 -42.07813,11.54297 -4.01265,4.65876 -4.80518,7.75048 -4.71875,13.75781 0.85265,6.75179 5.6816,11.67074 10.77344,15.83594 13.89238,9.88985 30.19657,16.5679 45.5625,23.82422 -1.17318,3.1556 -2.39025,5.80703 -4.42578,8.48828 -0.46495,0.6206 -0.92916,1.24145 -1.4082,1.88086 l -1.47852,1.94336 C 315.8713,214.41381 312.24841,219.5113 309,225 c -4.87315,-0.5905 -9.30139,-1.67382 -14,-3.0625 -21.89687,-5.6508 -48.79205,-3.82753 -68.71484,6.96875 C 213.83513,236.84111 205.2093,247.57888 201,261.875 c -3.38393,16.60999 -0.23301,31.90839 9,46.125 3.38867,4.72083 6.73151,7.89828 11.75,10.8125 6.75212,4.46049 9.74778,11.41159 13.53125,18.32422 19.52204,35.57087 53.01883,62.0242 91.79297,73.40234 8.55825,2.37935 17.12696,4.20397 25.92578,5.46094 l -2,12 c -1.19109,-0.14438 -2.38219,-0.28875 -3.60938,-0.4375 C 300.47278,422.27041 254.65541,427.7153 212,448 c -0.44988,-0.72703 -0.89977,-1.45406 -1.36328,-2.20312 C 205.46214,437.70837 199.7256,430.82293 193,424 c -0.6948,-0.7077 -1.38961,-1.41539 -2.10547,-2.14453 C 178.11276,409.71649 161.91347,402.09968 146,395 c -0.8764,-0.39945 -1.75329,-0.79939 -2.65625,-1.21094 -2.54442,-1.15681 -5.09742,-2.28954 -7.65625,-3.41406 -0.75781,-0.34313 -1.51611,-0.68553 -2.29688,-1.03906 C 128.32256,387.16996 124.51718,386.3386 119,387 c -2.68219,1.27082 -4.8347,2.47395 -7.25,4.125 -0.99906,0.65368 -0.99833,0.65343 -2.01758,1.32031 -2.26121,1.49393 -4.49836,3.02047 -6.73242,4.55469 -0.87028,0.59377 -1.74007,1.18706 -2.63672,1.79883 -4.438488,3.03777 -8.861094,6.0993 -13.257811,9.19726 -0.720344,0.50717 -1.441421,1.01457 -2.183594,1.53711 -3.640007,2.60082 -3.639274,2.60117 -5.320313,6.55469 0.06609,6.77097 1.40294,12.64713 3.398438,19.0957 0.46762,1.56924 0.468245,1.569 0.945312,3.16993 1.005898,3.36516 2.029893,6.72453 3.054688,10.08398 0.692201,2.30631 1.382791,4.61279 2.072266,6.91992 1.667065,5.56909 3.348159,11.13418 5.035156,16.69727 1.612772,5.3207 3.215365,10.64412 4.808594,15.9707 0.660316,2.20553 1.326574,4.40978 2.000004,6.61133 0.42635,1.41552 0.42635,1.41527 0.86132,2.85937 0.23969,0.78561 0.47962,1.57145 0.72657,2.38086 C 103.00025,502.00024 103,502 103,506 c -1.53906,1.45703 -1.53906,1.45703 -3.625,2.8125 C 91.320404,514.53737 86.525938,521.32619 84,531 c -1.298348,9.65805 -0.506184,18.27719 4,27 1,3 1,3 0,6 -1.260648,11.86249 2.023297,22.40479 9.414062,31.68359 3.137318,4.58234 3.858538,9.61888 4.773438,15.00391 1.99584,9.3666 5.82982,16.44742 13.5625,22.25 6.39805,4.04854 12.97073,6.86672 20.55469,7.35938 5.29283,0.54237 8.85728,2.7182 13.25781,5.57812 1.74752,1.09173 3.49631,2.18143 5.24609,3.26953 0.96922,0.60796 1.93891,1.21542 2.9375,1.8418 5.707,3.53038 11.49616,6.92166 17.27539,10.33203 3.46773,2.04972 6.92767,4.11277 10.38868,6.17383 4.45378,2.65202 8.91676,5.28588 13.39843,7.89062 12.76023,7.48667 12.76023,7.48667 17.57422,13.83594 6.18549,6.813 16.97097,10.23679 25.89844,11.09766 12.24484,0.4199 22.21875,-3.16007 32.86719,-8.94922 5.83214,-2.79623 11.37013,-3.65136 17.78906,-3.99219 1.02577,-0.058 1.02577,-0.058 2.07227,-0.11719 1.66303,-0.093 3.32659,-0.17645 4.99023,-0.25781 1.9693,4.40625 3.9283,8.81551 5.82422,13.25391 5.24764,12.19779 10.69044,24.68475 19.36328,34.87109 1.6875,2.07422 1.6875,2.07422 2.8125,3.875 -0.3125,2.9375 -0.3125,2.9375 -2,6 -3.77636,8.41171 -5.91391,17.05646 -8,26 -0.58008,0.098 -1.16016,0.19595 -1.75781,0.29688 C 310.86106,772.32694 307.40369,773.77779 303,777 h -2 c -3.90103,7.60963 -6.13153,14.04187 -6.0625,22.6875 -0.24609,6.55137 -0.24609,6.55137 -3.26172,9.87109 -2.92578,2.06641 -2.92577,2.06641 -5.8164,3.73047 -3.0109,1.55128 -3.0109,1.55128 -4.85157,4.41797 -5.04641,3.84707 -10.75352,2.62824 -16.88281,2.35547 -10.87338,-0.24912 -19.88032,0.014 -30.125,3.9375 -0.88688,0.28875 -1.77375,0.5775 -2.6875,0.875 -21.75603,7.61461 -35.09463,25.91351 -46.71484,44.59375 -1.57503,2.4954 -3.23173,4.9171 -4.91016,7.34375 -3.82536,5.75335 -5.70778,11.19858 -4.6875,18.1875 5.00367,16.48937 21.4019,24.90155 35.58203,32.64844 11.07561,6.22954 11.07586,6.23027 23.41797,7.35156 2.08705,-0.69042 4.09337,-1.45859 6.10547,-2.34375 C 242,932 242,932 246,932 c 0.67155,1.28913 1.33709,2.5814 2,3.875 0.37125,0.7193 0.7425,1.43859 1.125,2.17969 C 250,940 250,940 250,942 c 22.46575,9.69809 50.07444,12.94355 74.375,13.3125 1.04378,0.0266 1.04451,0.0256 2.10938,0.0527 4.36826,-0.006 7.06699,-0.67156 10.51562,-3.36523 1.82843,-2.00004 1.82843,-2.00004 3.3125,-4.1875 0.51176,-0.71543 1.02352,-1.43086 1.55078,-2.16797 0.56268,-0.81404 0.56268,-0.81404 1.13672,-1.64453 3.25,-0.0625 3.25,-0.0625 7,1 1.28592,2.20757 2.04887,4.32976 2.78516,6.77344 1.78699,3.2752 3.76548,3.89502 7.21484,5.22656 13.22004,3.2647 26.83702,3.3154 40.375,3.375 0.80816,0.008 1.61657,0.0154 2.44922,0.0234 21.7393,0.34002 21.73905,0.34011 40.6914,-8.77735 4.68514,-5.15634 5.71513,-10.56739 5.86329,-17.33984 0.0342,-1.26199 0.0683,-2.52398 0.10351,-3.82422 0.0264,-1.30582 0.0529,-2.61164 0.0801,-3.95703 0.0602,-2.59384 0.12385,-5.1876 0.19141,-7.78125 0.0239,-1.14533 0.0476,-2.29066 0.0723,-3.4707 0.17357,-3.24801 0.17456,-3.24707 0.68555,-6.04493 0.6717,-4.39845 0.58542,-8.71416 0.55859,-13.15624 0.0691,-39.56057 0.0691,-39.56058 6.4336,-57.83985 1.97845,-5.95359 3.21595,-13.54713 0.46093,-19.4082 C 457.64628,818.20521 457.32821,817.6116 457,817 c 0.37088,-4.06622 1.9642,-7.58313 3.5625,-11.3125 0.45504,-1.06863 0.91008,-2.13727 1.37891,-3.23828 0.34933,-0.80824 0.69867,-1.61649 1.05859,-2.44922 7.19052,0.75309 14.31,1.7737 21.45117,2.89453 2.51403,0.38678 5.02974,0.75321 7.54883,1.10547 1.08305,0.15336 1.08256,0.1541 2.1875,0.31055 8.04776,0.97219 16.1464,0.87577 24.24023,0.875 2.53843,0.002 5.07689,0.0201 7.61524,0.0391 14.66804,0.0514 29.088,-1.10958 43.45703,-4.16211 0.83459,-0.17112 1.66942,-0.34323 2.5293,-0.51953 5.15281,-1.08163 10.20315,-2.33084 15.19336,-4.02735 C 589,796.00001 589,796 592,796 c 1.31779,3.63038 2.44685,7.17052 3,11 -1.75,3.125 -1.75,3.125 -4,6 -3.19293,9.48143 1.64104,19.38779 5.8125,27.8125 2.20241,4.77532 2.92508,8.1545 1.1875,13.1875 -0.33387,1.10859 -0.66773,2.21719 -1.01172,3.35938 -2.24458,5.82977 -4.16333,10.1089 -10.03516,12.8164 -3.10689,1.2128 -6.26594,2.23988 -9.4375,3.26953 -14.90168,4.8533 -26.74509,17.28807 -33.80078,30.96875 -4.6706,9.76677 -7.19687,19.1565 -8.68554,29.81446 -0.6042,4.29845 -1.34641,8.32231 -2.7168,12.45898 -2.07309,6.41881 -2.11341,11.0743 0.5,17.375 6.05236,11.0089 20.41832,15.32383 31.85156,18.73242 21.07383,5.95017 41.37719,8.4594 63.21094,8.64258 0.83791,0.0123 1.67576,0.0244 2.53906,0.0371 2.4224,0.0298 4.84309,0.0303 7.26563,0.0215 0.72008,0.0111 1.43973,0.0218 2.18164,0.0332 6.26163,-0.0838 11.66194,-2.05257 16.13867,-6.5293 3.46869,0.2365 5.81149,0.89755 8.875,2.5625 9.38311,4.31623 20.788,-0.59966 29.97266,-3.91797 C 710.8665,977.95741 710.8665,977.95743 723,967 c 0.88595,-2.63996 0.88595,-2.63996 1.25,-5.3125 l 0.45312,-2.67578 c 0.098,-0.66387 0.19594,-1.32774 0.29688,-2.01172 4,0 4,0 7,2 6.12842,1.0509 11.198,0.16295 16.4375,-3.12109 C 761.58047,946.85636 761.58047,946.85636 770,934 c 0.35086,-3.71118 0.30706,-7.28803 0,-11 1.155,0.26813 2.31,0.53625 3.5,0.8125 4.5112,0.54898 6.92469,-0.64264 10.55859,-3.23828 9.4768,-7.68441 16.46773,-17.66783 18.29297,-29.9375 0.59703,-9.85094 -4.15326,-17.91548 -9.35156,-25.94922 -3.68029,-5.76075 -5.66741,-11.36216 -7.67188,-17.86328 -3.3218,-10.13359 -9.4514,-19.37204 -15.35742,-28.16992 -4.79243,-7.18971 -5.67108,-13.66766 -6.65039,-22.08594 -0.95315,-7.17573 -2.78669,-14.17893 -8.69531,-18.88086 -0.54398,-0.44988 -1.08797,-0.89977 -1.64844,-1.36328 -2.03813,-1.48193 -2.03813,-1.48193 -4.93359,-2.38281 -4.54643,-2.90062 -5.55698,-6.75354 -7.35547,-11.69141 -0.34611,-0.88172 -0.69223,-1.76343 -1.04883,-2.67188 -4.59373,-12.03503 -4.59373,-12.03504 -2.64258,-17.23046 0.47567,-0.75411 0.95133,-1.50821 1.44141,-2.28516 0.47309,-0.77215 0.94617,-1.5443 1.43359,-2.33984 0.37254,-0.56848 0.74508,-1.13696 1.12891,-1.72266 1.01449,0.14437 2.02898,0.28875 3.07422,0.4375 11.04732,1.4067 22.06135,1.80478 33.18555,1.86133 1.59425,0.008 3.18709,0.022 4.78125,0.041 32.09065,0.34133 62.96056,-9.75866 86.62304,-31.89453 2.1702,-2.27181 3.92188,-4.5583 5.71094,-7.13281 3.56589,-4.87424 8.02638,-6.92053 13.34766,-9.57812 C 907.91161,679.05037 920.45876,657.16341 927,636 c 6.75237,-22.80625 4.15571,-47.72378 -6,-69 -1.42778,-2.10677 -1.42778,-2.10677 -2.875,-3.8125 -3.3441,-5.01614 -2.51976,-9.57946 -1.88477,-15.38477 3.62832,-33.83337 -2.15191,-68.0256 -18.00976,-98.16601 C 897,447 897,447 897.5,444.875 899,443 899,443 901.29297,441.24219 919.29996,426.32731 927.70572,399.50367 930,377 c 1.37436,-18.71116 -1.2822,-36.88085 -9,-54 -0.51434,-1.14211 -1.02867,-2.28422 -1.55859,-3.46094 -6.94307,-14.01933 -18.71745,-26.41074 -33.30469,-32.48047 C 857.12099,277.26624 821.27033,280.52857 791,280 c -0.13227,-0.61951 -0.26411,-1.23867 -0.40039,-1.87695 -0.17622,-0.81184 -0.35361,-1.6245 -0.53516,-2.46094 -0.17353,-0.80513 -0.3466,-1.60992 -0.52539,-2.43945 -3.13478,-12.91925 -14.59613,-20.16864 -25.15625,-26.77344 -10.85995,-6.60499 -22.03772,-12.68402 -33.25586,-18.6543 -0.6885,-0.36679 -1.37657,-0.73342 -2.08593,-1.11133 C 727.36099,225.78863 725.68031,224.89443 724,224 c 0.007,-0.97401 0.0126,-1.94765 0.0195,-2.95117 0.0615,-9.29309 0.10757,-18.58567 0.13672,-27.87891 0.0155,-4.77488 0.0358,-9.54945 0.0703,-14.32422 C 725.84428,123.24989 725.84407,123.24892 702,75 701.16469,74.087344 701.16469,74.087344 700.3125,73.15625 688.74274,61.793091 670.65464,56.060768 656.09375,49.689453 650.81584,47.373308 645.56403,45.001061 640.31641,42.617188 613.6367,30.502726 587.04745,18.654349 559,10 558.19272,9.750244 557.38447,9.4995115 556.55273,9.2421875 544.54155,5.5835225 532.35907,3.16642 520,1 V 0 Z"
       style="fill:#543f21;fill-opacity:1" />
    <path
       d="M 0,0 C 0.85240265,0.1292688 1.7048053,0.2585376 2.5830383,0.39172363 24.117327,3.6682899 45.518994,7.6844506 66.937592,11.633896 c 13.383575,2.4622 26.783524,4.829814 40.187408,7.178604 1.19416,0.209392 2.38831,0.418784 3.61865,0.634521 16.34803,2.863182 32.70802,5.64564 49.08234,8.354065 17.01841,2.815067 34.0173,5.725002 50.98651,8.823914 1.0087,0.184024 1.0087,0.184024 2.03778,0.371765 62.82597,11.491983 62.82597,11.491983 68.96222,17.628235 6.34126,42.228104 6.54623,101.9647 -13,141 -3.42347,2.67338 -7.58501,4.22158 -11.53467,6.00537 -36.39881,16.5305 -64.89358,48.95457 -79.46533,85.99463 -6.3481,17.31415 -11.14053,35.10018 -11.16797,53.64453 -0.003,0.80927 -0.007,1.61853 -0.0101,2.45232 -0.005,1.70851 -0.007,3.41704 -0.007,5.12556 -0.002,2.54518 -0.0203,5.08991 -0.0393,7.63501 -0.005,1.67903 -0.007,3.35807 -0.006,5.03711 1e-4,1.24518 1e-4,1.24518 2e-4,2.5155 0.0455,4.34336 0.30041,8.55849 0.89311,12.86341 0.11547,0.85438 0.23094,1.70876 0.3499,2.58903 0.23479,1.62087 0.4985,3.23792 0.79617,4.84842 0.47195,3.19617 0.78407,5.31615 -0.9387,8.14285 -2.4815,2.79165 -5.27511,5.18264 -8.33115,7.32985 -10.78355,8.16387 -18.26918,23.68947 -20.53906,36.81641 -1.25684,13.90068 -0.83357,26.99063 8.30078,38.21875 4.77554,5.00608 10.14447,8.51688 16.69922,10.78125 1.17562,0.0206 2.35125,0.0412 3.5625,0.0625 3.4375,0.9375 3.4375,0.9375 4.96484,3.00781 0.99969,1.77663 1.98359,3.56221 2.95313,5.35547 3.90735,6.6194 10.36526,10.21194 17.51953,12.57422 3.40358,0.47405 6.75465,0.51559 10.1875,0.5 6.58253,-0.0295 10.45989,0.21137 15.8125,4.5 6.72949,3.12999 14.64138,2.9352 21.6875,0.875 12.25432,-4.6964 19.39625,-15.15976 24.9375,-26.5 2.97938,-6.04388 5.79393,-11.39701 10.375,-16.375 4.52622,0.51379 6.8344,2.19442 10.3125,5.0625 10.85073,8.56094 26.05429,16.60389 39.6875,18.9375 -2.73934,15.61426 -10.69307,29.76575 -17.8125,43.75 -1.30655,2.57793 -2.61131,5.15675 -3.91399,7.73663 -0.80317,1.58948 -1.60882,3.17772 -2.41726,4.76453 -0.36096,0.71215 -0.72191,1.42429 -1.0938,2.15802 -0.31721,0.62316 -0.63443,1.24632 -0.96126,1.88837 -3.95965,8.41386 -2.01936,17.6074 0.92342,26.03643 2.8136,7.5262 6.17893,16.27158 12.27539,21.66602 -3.59673,10.52793 -13.69391,18.21627 -23.29297,23.1875 -0.56332,0.26813 -1.12664,0.53625 -1.70703,0.8125 -0.4357,-0.40992 -0.87141,-0.81984 -1.32031,-1.24219 -6.93987,-6.27893 -12.53742,-7.13167 -21.67969,-6.75781 -3.8689,0.39859 -7.7117,0.95638 -11.5625,1.5 -8.97751,1.16799 -17.82042,1.80161 -26.875,1.8125 -1.01071,0.005 -2.02141,0.0103 -3.06274,0.0156 -6.37424,-0.0594 -12.30184,-0.84385 -18.49976,-2.32812 -2.19111,-6.24297 -3.95532,-12.5066 -5.5,-18.9375 -1.65212,-6.75307 -3.40027,-13.43177 -5.5,-20.0625 -1.40186,0.54527 -1.40186,0.54527 -2.83203,1.10156 C 134.31166,602.52733 76.276536,603.38457 19.8125,579.625 16.197804,578.01377 12.631284,576.32203 9.1054688,574.52344 6.7111655,573.30293 6.7111655,573.30293 3.8125,574.625 c 0.1639431,8.68899 4.2618401,15.11705 10.21875,21.30469 4.333712,3.93299 8.947303,7.40411 13.78125,10.69531 -2.190372,6.72046 -4.557657,13.36724 -7,20 -9.214049,1.16693 -18.2742736,1.26837 -27.5507812,1.04492 -2.0660885,-0.0379 -4.1332308,-0.01 -6.1992188,0.0332 -3.355095,-0.15406 -5.339316,-0.38139 -8.25,-2.07812 -2.009098,-3.0228 -3.56422,-5.97415 -5.081055,-9.2561 -3.010461,-6.42689 -6.571725,-9.48847 -12.918945,-12.7439 -1.125352,-0.59039 -2.250703,-1.18078 -3.410156,-1.78906 -8.868361,-4.46255 -18.061432,-7.4939 -27.589844,-10.21094 1.271218,-12.39779 5.574012,-23.37835 12,-34 -0.311147,-0.47607 -0.622295,-0.95213 -0.942871,-1.44263 C -86.1875,514.5839 -86.1875,514.5839 -86.1875,500.625 c 10.48409,-1.79239 21.00941,-2.92217 31.585938,-4.00201 3.104549,-0.31718 6.20854,-0.63945 9.3125,-0.96235 11.43213,-1.18305 22.868588,-2.30468 34.312499,-3.36767 2.3286292,-0.21883 4.6572426,-0.43782 6.9858403,-0.65698 4.46544346,-0.42017 8.9319087,-0.82558 13.3994141,-1.22315 2.0513216,-0.19175 4.1025936,-0.38402 6.1538086,-0.5769 0.921952,-0.078 1.843903,-0.15603 2.793793,-0.23641 6.218314,-0.60174 12.52815,-1.50398 17.456207,-5.66203 2.797098,-6.46829 0.379707,-13.9226 -1.284668,-20.41943 -0.366794,-1.47881 -0.366794,-1.47881 -0.740998,-2.98749 -0.81341,-3.27026 -1.639994,-6.53705 -2.466522,-9.80402 -0.579975,-2.32172 -1.159063,-4.64366 -1.737319,-6.9658 -1.231886,-4.94003 -2.469356,-9.8786 -3.71138,-14.81609 -1.939141,-7.70933 -3.865987,-15.42169 -5.789826,-23.13486 -0.31866,-1.27746 -0.637321,-2.55493 -0.965638,-3.87111 -0.643142,-2.5783 -1.28625,-5.1566 -1.929326,-7.73492 -0.964935,-3.86701 -1.931067,-7.73373 -2.897471,-11.60037 C 8.8987896,361.02708 3.6066405,339.42785 -1.625,317.8125 c -0.5402279,-2.23129 -1.0804913,-4.46257 -1.6207619,-6.69386 -0.3440054,-1.42089 -0.6879276,-2.8418 -1.0317611,-4.26274 -1.0883079,-4.49671 -2.1817712,-8.99214 -3.2766762,-13.48725 -1.0444496,-4.2917 -2.0669309,-8.58748 -3.0673828,-12.88965 -0.429489,-1.80941 -0.859011,-3.61882 -1.288574,-5.42822 -0.176154,-0.78486 -0.352307,-1.56972 -0.533798,-2.37837 -1.661145,-6.90638 -4.715975,-12.04643 -10.743546,-16.04741 -3.553146,-1.53497 -3.553146,-1.53497 -7.3125,-2.75 -0.645176,-0.22043 -1.290352,-0.44086 -1.955078,-0.66797 -1.574397,-0.53646 -3.153002,-1.06054 -4.732422,-1.58203 0.145071,-1.33342 0.29111,-2.66673 0.4375,-4 0.121816,-1.11375 0.121816,-1.11375 0.246094,-2.25 0.412683,-3.58678 0.86485,-7.16791 1.316406,-10.75 0.682881,-0.0647 1.365762,-0.12939 2.069336,-0.19604 35.8026259,-3.49331 70.372211,-12.47169 94.629883,-40.90552 1.520553,-1.85601 3.022463,-3.72762 4.496093,-5.6211 1.511,-1.90673 3.04167,-3.6074 4.804688,-5.27734 0.99,0.495 1.98,0.99 3,1.5 4.212069,1.79783 7.443937,1.95561 12,1.5 2.128707,-0.96118 2.128707,-0.96118 3,-3 0.910428,-4.89355 -0.636026,-8.08971 -3.332031,-12.04688 -5.697822,-6.67192 -14.98921,-11.18843 -23.655274,-12.18066 -2.153349,-0.15698 -4.291551,-0.2358 -6.450195,-0.27246 -1.02976,-0.0278 -1.02976,-0.0278 -2.080322,-0.0562 -3.365444,0.0424 -5.210139,0.35461 -7.939209,2.37646 -1.835978,2.19618 -1.835978,2.19618 -1.792969,5.55469 1.73343,5.02695 4.84843,6.88781 9.25,9.625 -10.496923,17.215 -29.825764,27.11229 -48.5625,32.81255 -0.6352661,0.19505 -1.2705322,0.3901 -1.9250488,0.59106 C -9.9545606,212.50697 -22.515694,213.03569 -35.1875,213 c -0.764908,-8.8e-4 -1.529815,-0.002 -2.317902,-0.003 -38.526486,-0.14493 -74.122218,-14.17509 -101.682098,-41.37234 -4.91268,-4.99738 -9.07536,-10.61947 -13.3125,-16.1875 -0.52844,-0.68981 -1.05687,-1.37962 -1.60132,-2.09033 -2.59025,-3.45228 -4.75276,-6.56028 -6.08618,-10.72217 1.7615,-0.0387 1.7615,-0.0387 3.55859,-0.0781 23.34623,-0.73269 45.54195,-6.29379 62.31641,-23.60937 10.706459,-12.63875 13.867378,-26.03198 13.125,-42.3125 -0.31959,-2.335255 -0.651031,-4.668954 -1,-7 0.861658,-0.02506 1.723315,-0.05011 2.611084,-0.07593 3.2374,-0.09589 6.474679,-0.19507 9.711914,-0.296386 1.393515,-0.04296 2.78707,-0.08466 4.180664,-0.125 9.339445,-0.232422 9.339445,-0.232422 18.625244,-1.18628 4.103716,-0.335419 5.851677,0.04273 9.371094,2.058594 0.835313,0.461484 1.670625,0.922969 2.53125,1.398437 1.96875,1.226563 1.96875,1.226563 2.96875,2.226563 0.109465,1.604108 0.155882,3.212597 0.175781,4.820312 0.422857,20.329753 2.813893,38.67478 17.546875,53.9961 10.3891924,9.9615 22.3647666,14.61926 36.738281,14.45703 13.552453,-1.0471 25.188393,-7.89487 34.410157,-17.64453 9.617738,-11.87628 14.008556,-25.86888 17.128906,-40.6286 0.91322,-0.0647 1.82644,-0.12939 2.767334,-0.196045 21.001906,-1.501333 41.988406,-3.161708 62.965116,-4.982574 2.43256,-0.211004 4.86524,-0.420662 7.29804,-0.628846 12.64029,-1.084365 25.27054,-2.256833 37.87967,-3.661285 1.04425,-0.108241 2.08851,-0.216482 3.16441,-0.328003 6.9403,-0.768124 6.9403,-0.768124 12.92543,-4.203247 1.56936,-3.138712 1.35201,-5.538558 1,-9 -2.74697,-3.723799 -4.22667,-4.882003 -8.84814,-5.587158 -1.55357,0.0029 -3.10728,0.03828 -4.65967,0.09888 -0.86497,0.01762 -1.72994,0.03524 -2.62113,0.05339 -11.32609,0.343258 -22.60001,1.614296 -33.85882,2.828629 -5.9529,0.641291 -11.90863,1.254791 -17.8646,1.866783 -1.97854,0.203404 -3.95699,0.407749 -5.93544,0.612099 C 116.81899,66.64608 105.60594,67.635525 94.375,68.5 93.591995,68.56112 92.80899,68.622239 92.002258,68.685211 78.999651,69.694349 78.999651,69.694349 73.8125,69.625 73.653945,68.753594 73.495391,67.882187 73.332031,66.984375 70.063977,50.30105 63.865303,35.918162 49.8125,25.625 37.599696,18.274874 24.013736,16.410611 10.105469,19.429687 -9.7440962,26.390236 -19.280447,41.852131 -28.1875,59.625 -28.897129,59.010117 -28.897129,59.010117 -29.621094,58.382812 -34.622404,54.307671 -38.80172,52.48235 -45.1875,51.625 -45.346055,50.562812 -45.504609,49.500625 -45.667969,48.40625 -47.178792,38.9942 -48.609329,31.694485 -56,25.125 c -0.721875,-0.495 -1.44375,-0.99 -2.1875,-1.5 C -47.246354,-0.91133195 -22.57757,-3.4810074 0,0 Z"
       fill="#FEEBC0"
       transform="translate(413.1875,183.375)"
       id="path6"
       style="fill:#f7ecca;fill-opacity:1" />
    <path
       d="M 0,0 C 1.9536127,2.2919138 3.7707318,4.5852734 5.5625,7 6.0997168,7.7233252 6.6369336,8.4466504 7.1904297,9.1918945 29.896571,40.360497 41.519937,78.838999 36.175537,117.34473 32.067895,142.43808 21.092616,163.78198 0.29980469,179.26611 -7.8269939,185.07193 -16.412065,190.01368 -25.136719,194.85156 -43.514441,205.05072 -53.22081,215.78275 -62.125,234.5625 c -2.828345,5.74867 -5.390529,8.99272 -11.4375,11.5 -3.603134,-0.0924 -4.965994,-1.5242 -7.4375,-4.0625 -2.614759,-4.35793 -2.673677,-9.07542 -2,-14 1.696534,-6.3881 3.816279,-12.61992 6,-18.85547 1.333574,-3.82761 2.395146,-7.06136 2,-11.14453 -4.839208,-0.27919 -7.340807,-0.25262 -11,3 -0.66,0 -1.32,0 -2,0 -0.406055,0.86818 -0.406055,0.86818 -0.820312,1.75391 -1.181897,2.2503 -2.543284,4.14359 -4.054688,6.18359 -5.640075,8.41185 -7.4917,17.80987 -7.94922,27.79687 C -101,239 -101,239 -102,240 c -2.98631,0.49772 -5.11537,0.48235 -7.8125,-0.98828 -5.92525,-4.53333 -8.42869,-10.31568 -9.60156,-17.57422 -0.64436,-11.39496 4.40931,-22.58095 10.27734,-32.07031 1.28781,-2.68183 1.43678,-4.42758 1.13672,-7.36719 -1.08635,-1.28722 -1.08635,-1.28722 -3.6875,-1.375 -4.36895,0.4946 -6.5098,2.16692 -9.3125,5.375 -7.77234,10.48649 -13.09905,22.30196 -16,35 -5.14713,-2.35297 -7.54425,-6.07905 -10,-11 -3.16786,-9.34317 -1.43885,-20.14203 2.38281,-28.92969 5.9441,-11.28516 14.32273,-19.84309 24.74219,-27.00781 1.12076,-0.78021 1.12076,-0.78021 2.26416,-1.57617 5.79419,-4.00078 11.72488,-7.73456 17.757324,-11.36572 C -72.680005,125.92357 -72.680005,125.92357 -56,101 c 0.270587,-2.448811 0.210227,-4.52983 0,-7 -3.976644,0.556026 -6.439121,1.729623 -9.6875,4.0625 C -69.8,101 -69.8,101 -72,101 c 1.07996,-25.487056 12.41472,-49.915996 29,-69 0.736055,-0.88043 1.472109,-1.760859 2.230469,-2.667969 C -32.803712,20.11871 -13.237477,0 0,0 Z"
       fill="#FDEBC0"
       transform="translate(719,431)"
       id="path8"
       style="fill:#f7ecca;fill-opacity:1" />
    <path
       d="m 0,0 c 1.4233577,0.41792633 2.8469458,0.83506889 4.2707519,1.2514648 3.5154084,1.0352756 7.0224761,2.0958484 10.5262451,3.1697999 1.701336,0.5208259 3.404686,1.0350582 5.108276,1.5484619 29.527148,8.9804694 57.938714,21.6608484 85.673617,35.0922084 4.0808,1.973864 8.17728,3.907763 12.29428,5.804963 2.65063,1.222645 5.29473,2.459042 7.93811,3.69728 1.80061,0.838126 3.60878,1.659928 5.41724,2.480988 12.06081,5.70098 21.76201,13.796907 26.82617,26.341553 6.48047,18.179862 7.07973,37.334981 6.82031,56.425781 -0.0151,1.9759 -0.0288,3.95181 -0.041,5.92773 -0.0324,4.75355 -0.0839,9.50653 -0.14648,14.25977 -7.74407,-3.37629 -15.4837,-6.76012 -23.19141,-10.21875 C 109.90042,131.66867 77.650848,119.51311 44.6875,109 43.706685,108.6816 42.725869,108.3632 41.715332,108.03516 -6.9417309,92.263013 -57.686177,81.141879 -108.3125,74 c 1.78411,-3.776984 4.15342,-6.735776 6.875,-9.875 0.48469,-0.565173 0.96937,-1.130347 1.46875,-1.712646 1.028036,-1.198222 2.057698,-2.395051 3.088867,-3.590577 1.532921,-1.781721 3.055576,-3.571674 4.575196,-5.364746 C -37.360953,-11.277233 -37.360953,-11.277233 0,0 Z"
       fill="#C88328"
       transform="translate(536.3125,27)"
       id="path10"
       style="fill:#b98138;fill-opacity:1" />
    <path
       d="M 0,0 C 2.2339872,3.3509808 2.6076421,5.6230793 3.3125,9.5625 5.3938402,19.569338 9.5524602,26.501596 15.473145,34.73999 22.188068,44.291752 29.34965,56.012944 28,68 c -0.931895,2.809937 -2.279072,5.225461 -3.8125,7.75 -0.403799,0.686829 -0.807598,1.373657 -1.223633,2.081299 C 18.692608,84.871057 13.613995,91.002601 8,97 7.5051611,97.537217 7.0103223,98.074434 6.5004883,98.62793 -14.12167,120.83844 -40.096373,134.64807 -69,143 c -0.970664,0.29906 -1.941328,0.59812 -2.941406,0.90625 C -107.31544,153.96999 -151.40928,148.73796 -185,135 c -1,-1 -1,-1 -1.3125,-3.75 0.22794,-12.3343 6.69475,-23.60113 14.8125,-32.4375 10.56686,-10.121265 25.05578,-15.141594 39.5,-15.8125 1.14984,-0.06445 2.29969,-0.128906 3.48438,-0.195313 16.90513,-0.50919 32.432418,3.737258 48.207026,9.552735 C -74.24064,94.532183 -69.449689,95.398539 -63,95 c 0.756448,-2.723213 1.170315,-4.458088 0.3125,-7.1875 C -64.283791,85.608098 -65.551141,85.189209 -68,84 -70.083333,82.75 -72.166667,81.5 -74.25,80.25 -90.322355,70.960745 -107.68263,67.121622 -126,65 c 0.375,-2.4375 0.375,-2.4375 1,-5 16.27817,-8.139085 45.061187,1.630955 61.486084,6.413818 C -59.159879,67.42907 -54.092867,68.046433 -50,66 -50.31168,61.103314 -50.31168,61.103314 -52.664062,56.949219 -67.015468,44.973715 -92.832535,41.899824 -110.6875,41.375 c -1.09506,-0.03867 -2.19012,-0.07734 -3.31836,-0.117188 C -116.67042,41.164727 -119.33499,41.078901 -122,41 c -1.20183,-2.577501 -2.38657,-5.160712 -3.5625,-7.75 -0.34225,-0.729609 -0.68449,-1.459219 -1.03711,-2.210938 -0.31904,-0.708984 -0.63809,-1.417968 -0.9668,-2.148437 -0.44774,-0.974048 -0.44774,-0.974048 -0.90454,-1.967773 C -129.10866,24.605065 -128.75543,23.250957 -128,21 c 0.69738,0.07219 1.39477,0.144375 2.11328,0.21875 17.95517,1.578477 36.058909,1.44388 53.941408,-0.773438 C -67.243069,19.914564 -62.723796,19.845121 -58,20 c 0.386719,0.759258 0.773438,1.518516 1.171875,2.300781 0.520781,0.993867 1.041562,1.987735 1.578125,3.011719 0.510469,0.986133 1.020938,1.972266 1.546875,2.988281 2.235351,3.54893 2.235351,3.54893 5.703125,5.699219 6.132354,-0.100944 10.15589,-1.730626 15.25,-5 0.643323,-0.400818 1.286646,-0.801636 1.949463,-1.2146 C -18.826887,20.210717 -7.9285142,11.892771 0,0 Z"
       fill="#C98328"
       transform="translate(742,802)"
       id="path12"
       style="fill:#aa7833;fill-opacity:1" />
    <path
       d="m 0,0 c 13.82474,-0.83927595 25.501966,2.7885989 38.125,7.9375 0.805825,0.3235547 1.61165,0.6471094 2.441895,0.9804688 5.918897,2.5158122 9.948244,5.1948022 12.97998,11.0898432 0.595547,1.543008 0.595547,1.543008 1.203125,3.117188 0.611016,1.550742 0.611016,1.550742 1.234375,3.132812 C 56.688923,28.160091 57.358513,30.07554 58,32 c 2.598859,1.576264 5.381491,2.577095 8.25,3.5625 0.706406,0.248789 1.412812,0.497578 2.140625,0.753906 6.667681,1.746773 13.507916,1.86616 20.359375,2 0.898718,0.02078 1.797437,0.04156 2.723389,0.06297 2.842133,0.06485 5.684351,0.124078 8.526611,0.183121 1.93881,0.04325 3.87761,0.08686 5.81641,0.130859 4.72778,0.106486 9.45564,0.20793 14.18359,0.306641 -0.26555,1.160156 -0.53109,2.320312 -0.80469,3.515625 -0.92678,4.077597 -1.82647,8.160608 -2.7102,12.247742 -0.3848,1.774158 -0.77984,3.546097 -1.17847,5.317199 -2.23231,11.24247 -1.71892,22.912669 -1.83838,34.327149 -0.0338,2.934569 -0.0789,5.868818 -0.12451,8.803228 -0.005,0.89383 -0.0105,1.78767 -0.016,2.70859 -0.14945,9.37778 -0.14945,9.37778 -2.32776,13.08047 -7.45317,3.26876 -16.17179,2.23152 -24.175781,2.14844 -1.6002,-0.009 -3.200405,-0.018 -4.800614,-0.0258 -4.178724,-0.0233 -8.357227,-0.0595 -12.53582,-0.0997 -2.415492,-0.0223 -4.830981,-0.0412 -7.246513,-0.0585 -9.262073,-0.0667 -18.523437,-0.16225 -27.784973,-0.28186 -3.129848,-0.04 -6.259688,-0.0745 -9.389649,-0.10449 -3.899598,-0.0373 -7.798997,-0.0837 -11.698419,-0.13619 -1.445653,-0.0181 -2.891346,-0.0334 -4.337063,-0.0453 -13.7429735,-0.11792 -27.365656,-1.37117 -40.843668,-4.14666 -0.824194,-0.16919 -1.648389,-0.33838 -2.497559,-0.5127 C -59.761766,110.30645 -88.675713,100.27595 -108,82 c -1.00391,-1.929688 -1.00391,-1.929688 -1,-4 6.40099,-13.749487 18.096197,-22.178877 31.636719,-28.175781 20.574441,-7.175549 42.383745,-2.711001 61.570312,6.257812 C -7.0548958,60.368592 0.56708548,66.255309 8.0390625,72.433594 11.456242,75.163253 13.683074,75.093846 18,75 18.769227,69.261319 18.497955,64.942948 15.3125,60 6.7069768,49.002141 -5.8944037,42.433526 -18,36 c 2.7361,-2.860468 4.143722,-3.899261 8.1875,-4.375 12.1716264,0.282052 23.786075,7.114616 34.223145,12.716064 C 30.824613,47.815601 30.824613,47.815601 38,48 39.369591,46.820145 39.369591,46.820145 39.625,43.5625 39.51831,38.140686 36.472106,35.179536 32.8125,31.457031 22.710185,22.631536 10.286865,16.903849 -3,15 -3.3152595,9.0100695 -2.6821982,5.3643964 0,0 Z"
       fill="#C98328"
       transform="translate(317,793)"
       id="path14"
       style="fill:#aa7833;fill-opacity:1" />
    <path
       d="m 0,0 c 7.6348462,0.6578779 14.072451,1.7044283 20.6875,5.8125 11.476887,7.097321 23.590997,10.477683 36.941406,11.753906 11.783962,1.15965 21.364161,2.882208 31.8125,8.59375 6.506319,3.50104 12.619664,4.17089 19.871094,4.089844 0.83507,-0.0039 1.67014,-0.0077 2.53052,-0.01172 C 117.78037,30.155072 123.23856,29.511198 129,28 c 16.04977,25.425922 18.72152,51.510191 18,81 -4.11669,-1.60872 -7.6259,-3.07089 -11,-6 -0.35904,-2.76839 -0.3856,-4.723888 -0.125,-7.4375 0.44478,-9.716379 -0.95031,-18.512577 -7.3125,-26.25 -3.25886,-3.531066 -6.47494,-5.051175 -11.24609,-5.648438 C 111.3393,63.579281 107.56857,63.750163 103,68 c -6.115993,6.131398 -8.467591,13.598173 -10,22 0.08762,2.417323 0.191443,4.834121 0.3125,7.25 -0.243656,5.75156 -0.243656,5.75156 -2.817383,8.15576 -3.485005,2.38959 -7.212516,4.25302 -10.975586,6.16065 C 72.961622,114.92165 68.096808,119.76802 63,125 c -0.650977,0.64195 -1.301953,1.28391 -1.972656,1.94531 C 51.510792,136.96045 45.414844,150.0641 41,163 c -0.620684,1.74023 -0.620684,1.74023 -1.253906,3.51562 -6.472237,21.19827 -4.357371,45.1086 4.929687,65.08985 C 46.300403,234.5522 48.043247,237.26471 50,240 c 0.605859,0.87785 1.211719,1.7557 1.835937,2.66016 C 61.926473,256.31327 77.130849,263.21675 93,268 c -8.661605,9.70517 -24.829523,12.17319 -37,15 -0.641832,0.16639 -1.283665,0.33279 -1.944946,0.50423 -5.673494,1.39605 -10.968266,1.77604 -16.797242,1.72624 -1.335282,-6.9e-4 -1.335282,-6.9e-4 -2.69754,-0.001 -1.863854,-0.003 -3.727707,-0.0108 -5.591522,-0.0233 -2.856861,-0.0184 -5.713399,-0.0205 -8.570313,-0.0203 -1.817711,-0.005 -3.63542,-0.0107 -5.453124,-0.0176 -1.279662,-0.002 -1.279662,-0.002 -2.585175,-0.003 C 8.9965556,285.13749 6.2125091,285.07084 3,284 3.7545449,278.54015 5.3622298,273.479 7.0957031,268.27344 7.7699506,266.19198 8.3966915,264.1031 9,262 c 0.1977905,-0.67426 0.3955811,-1.34852 0.5993652,-2.04321 2.0366138,-8.25784 1.6657038,-16.75056 1.6064458,-25.19678 -0.01824,-2.68768 -0.02051,-5.37501 -0.02026,-8.06274 -0.01627,-7.75592 -0.117932,-15.41389 -0.951904,-23.13208 C 9.7582383,198.34567 9.7743889,193.11252 9.75,187.875 9.729375,186.75996 9.70875,185.64492 9.6875,184.49609 9.635303,173.41728 13.00974,165.64817 17.875,155.875 35.03014,120.55012 35.971948,83.816817 23.3479,46.868896 17.94663,31.822941 11.248699,16.496612 1.3085937,3.8476563 0,2 0,2 0,0 Z"
       fill="#9E763D"
       transform="translate(748,430)"
       id="path16"
       style="fill:#ae8e4e;fill-opacity:1" />
    <path
       d="M 0,0 C 15.427394,11.849353 26.294246,30.676198 29,50 30.610935,68.200802 28.588599,85.961759 16.859375,100.6875 14.648863,103.2138 12.369083,105.62252 10,108 c -0.5414062,0.56461 -1.0828125,1.12922 -1.640625,1.71094 -11.1351192,10.62897 -27.203311,14.8801 -42.171875,14.72656 -1.050989,-0.008 -2.101978,-0.0166 -3.184814,-0.0251 C -56.248516,123.9953 -72.544798,115.56667 -86,102 -102.14392,83.70714 -106.07442,62.52099 -105.19531,38.84375 -104.80309,33.132961 -103.41318,28.209766 -101,23 c 0.63615,-1.417324 0.63615,-1.417324 1.285156,-2.863281 C -92.247444,5.0979157 -78.596488,-6.8732468 -62.75,-12.3125 -41.020801,-19.271716 -18.064661,-13.123445 0,0 Z"
       fill="#5A3C14"
       transform="translate(363,511)"
       id="path18"
       style="fill:#543f21;fill-opacity:1" />
    <path
       d="M 0,0 C 0.61359375,0.54914062 1.2271875,1.0982813 1.859375,1.6640625 2.5142188,2.1925781 3.1690625,2.7210938 3.84375,3.265625 15.596172,13.605934 19.975897,29.503164 21.167969,44.5625 21.83234,65.057341 14.810177,84.83242 1.859375,100.66406 c -0.5298047,0.70383 -1.05960938,1.40766 -1.60546875,2.13282 -7.83765235,9.86963 -21.01909725,18.57451 -33.62451125,20.14501 -13.702689,1.11648 -24.979492,-1.24687 -35.742676,-10.27783 -11.316274,-11.16364 -16.212968,-26.388142 -16.407471,-41.94946 0.03036,-21.762758 0.03036,-21.762758 4.380127,-32.050538 0.350625,-0.916523 0.70125,-1.833046 1.0625,-2.777343 7.653706,-18.523033 20.537767,-33.7424461 39.25,-41.5976565 C -27.112447,-10.73358 -11.468928,-9.6206294 0,0 Z"
       fill="#C98428"
       transform="translate(894.14062,559.33594)"
       id="path20"
       style="fill:#b98138;fill-opacity:1" />
    <path
       d="M 0,0 C 0.680625,0.39058594 1.36125,0.78117187 2.0625,1.1835937 2.68125,1.5226172 3.3,1.8616406 3.9375,2.2109375 17.092712,10.462309 23.427004,26.828044 27.0625,41.183594 31.875768,63.528635 27.15477,90.661876 14.75,109.88281 c -8.6293891,11.76554 -19.0176138,21.36681 -33.6875,24.30078 -11.47891,0.9488 -20.215355,-1.10036 -29.203125,-8.39843 -12.046193,-10.73683 -18.983837,-27.044853 -20.015625,-42.979984 -0.607801,-14.558742 -0.881669,-28.818574 4.21875,-42.621582 0.4125,-1.178203 0.825,-2.356407 1.25,-3.570313 C -56.532113,20.700206 -45.809022,6.3360793 -30.066406,-0.94140625 -21.08622,-4.6323453 -8.7421708,-4.2677151 0,0 Z"
       fill="#9E763D"
       transform="translate(882.9375,306.81641)"
       id="path22"
       style="fill:#ae8e4e;fill-opacity:1" />
    <path
       d="M 0,0 C 1.1664404,0.11956055 2.3328809,0.23912109 3.534668,0.36230469 9.2900954,1.0893876 15.005394,1.96323 20.722656,2.9453125 c 1.280845,0.2173682 2.56169,0.4347363 3.881348,0.6586914 22.0541,3.7792425 44.004962,8.1505481 65.868652,12.9038081 1.261187,0.273121 2.522373,0.546241 3.821778,0.827637 8.027566,1.771431 15.966276,3.787184 23.896756,5.950226 2.72529,0.740005 5.45462,1.464529 8.18386,2.189835 29.07682,7.732988 57.93296,15.858773 86.41011,25.594802 0.85541,0.292416 1.71082,0.584832 2.59216,0.886109 14.69685,5.039468 29.2875,10.324194 43.65784,16.238891 0.91475,0.375037 1.8295,0.750074 2.77197,1.136475 8.86194,3.656566 17.62141,7.532347 26.35303,11.488525 -3.30644,1.102147 -4.29379,0.904726 -7.59766,0.136719 -0.99894,-0.222363 -1.99789,-0.444726 -3.0271,-0.673828 -1.13446,-0.255879 -2.26891,-0.511758 -3.43774,-0.775391 -15.38329,-3.322182 -30.86532,-6.026971 -46.375,-8.6875 -1.27024,-0.218123 -2.54048,-0.436246 -3.84922,-0.66098 -15.92348,-2.7281 -31.85915,-5.348922 -47.82611,-7.808777 -17.29625,-2.671671 -34.49274,-5.863803 -51.70324,-9.03395 C 113.22532,51.27335 102.08937,49.329574 90.950928,47.396973 89.303219,47.111024 87.655514,46.825054 86.007812,46.539062 85.194711,46.398021 84.38161,46.256979 83.543869,46.111664 77.785467,45.110181 72.032691,44.079691 66.28125,43.039062 48.678752,39.866263 31.063861,36.976218 13.347656,34.507812 12.467579,34.384616 11.587502,34.26142 10.680756,34.134491 4.8455113,33.322385 -0.99393486,32.551646 -6.8398437,31.820312 -7.6897992,31.713018 -8.5397546,31.605724 -9.4154663,31.495178 -11.955324,31.180517 -14.49657,30.88238 -17.039062,30.589844 c -0.75304,-0.09348 -1.506079,-0.186965 -2.281937,-0.28328 -10.312673,-1.132588 -17.895116,0.647678 -26.518845,6.513748 -2.735218,2.295156 -5.342538,4.659896 -7.90625,7.144532 -2.09375,1.855468 -2.09375,1.855468 -5.09375,2.855468 -2.333984,-0.569824 -2.333984,-0.569824 -5.09375,-1.554687 -1.021823,-0.363274 -2.043647,-0.726548 -3.096435,-1.10083 -1.638358,-0.603644 -1.638358,-0.603644 -3.309815,-1.219483 -1.116086,-0.40694 -2.232173,-0.813881 -3.38208,-1.233154 -12.1563,-4.51857 -24.447648,-9.414253 -35.117916,-16.891846 0.495,-1.485 0.495,-1.485 1,-3 6.59632,-0.947477 13.128177,-1.278987 19.785153,-1.5 1.132718,-0.04061 2.265436,-0.08121 3.432479,-0.123046 3.614846,-0.128991 7.229836,-0.253189 10.844864,-0.376954 2.370455,-0.08299 4.740898,-0.166316 7.111328,-0.25 1.74886,-0.06115 1.74886,-0.06115 3.533051,-0.123535 2.339363,-0.08415 4.678584,-0.172349 7.017639,-0.264648 5.637517,-0.219658 11.261869,-0.382374 16.9039,-0.400879 1.043854,-0.01482 2.087707,-0.02965 3.163193,-0.04492 1.945428,-0.02645 3.891461,-0.02708 5.836822,0.0039 5.049895,-0.100914 7.72361,-0.712924 11.376694,-4.329101 1.021263,-1.177401 2.02265,-2.372612 2.994873,-3.59082 0.696094,-0.768282 1.392188,-1.536563 2.109375,-2.3281255 0.541406,-0.6342187 1.082813,-1.2684375 1.640625,-1.921875 1.075659,-1.2566105 2.1584615,-2.5071588 3.2500002,-3.75 C -8.4327417,2.2845459 -8.0256397,1.7487793 -7.6062012,1.1967773 -5.0041918,-0.8308839 -3.2340905,-0.33421004 0,0 Z"
       fill="#C98428"
       transform="translate(404.83984,132.17969)"
       id="path24"
       style="fill:#b98138;fill-opacity:1" />
    <path
       d="M 0,0 C 10.237153,7.374484 17.125254,17.476229 19.682129,29.913574 22.39749,47.736518 19.664282,65.223527 9,80 8.5501172,80.643242 8.1002344,81.286484 7.6367187,81.949219 3.2016226,87.708597 -3.7032982,92.809758 -11,94 c -9.898446,0.720261 -18.667705,1.142902 -27,-5 -0.630352,-0.461484 -1.260703,-0.922969 -1.910156,-1.398438 C -47.480136,81.046459 -53.209918,68.949178 -54,59 -55.025632,41.44832 -52.942961,24.944525 -41.05542,11.144287 -30.411891,-0.62554088 -15.451423,-8.3940257 0,0 Z"
       fill="#fcebc1"
       transform="translate(451,220)"
       id="path26" />
    <path
       d="M 0,0 C 2.296875,1.1601562 2.296875,1.1601562 4.9375,2.75 6.1660756,3.3441751 7.4010564,3.925207 8.640625,4.4960937 21.407038,10.457137 33.152259,17.650551 43.9375,26.75 c 0.612305,0.478242 1.224609,0.956484 1.855469,1.449219 9.179977,7.331377 15.617422,17.436021 21.980468,27.167968 0.378663,0.5746 0.757325,1.1492 1.147461,1.741211 C 69.9375,58.75 69.9375,58.75 71.351562,61.695312 c 1.449982,2.353544 1.449982,2.353544 4.386719,2.558594 C 79.426543,63.672971 81.8607,62.496582 85.125,60.6875 100.18275,52.755092 116.28783,48.016144 132.9375,44.75 c 0.81163,-0.165161 1.62325,-0.330322 2.45947,-0.500488 27.22551,-5.279139 59.39696,-5.137625 86.54053,0.500488 0.76683,0.144536 1.53366,0.289072 2.32373,0.437988 9.68868,1.834531 18.09242,4.60025 26.67627,9.562012 0,0.33 0,0.66 0,1 -26.01932,2.359706 -52.03857,4.716053 -78.07993,6.821136 -2.99082,0.242032 -5.98146,0.486218 -8.97207,0.730866 -9.14898,0.746532 -18.29852,1.478773 -27.45207,2.167191 -4.20266,0.318752 -8.40426,0.650195 -12.60576,0.983657 -1.95832,0.152403 -3.91707,0.299306 -5.87628,0.439759 -15.06575,1.082406 -29.545988,3.645562 -44.177006,7.414627 C 67.138312,75.906801 59.942263,74.950936 53.9375,71.75 50.951289,68.465168 49.987996,66.692586 49.75,62.25 48.648219,57.503865 46.590758,56.8785 42.623779,54.365234 37.951414,51.555785 33.210038,48.884984 28.4375,46.25 26.219997,45.017026 24.002551,43.78395 21.785156,42.550781 20.65481,41.923813 19.524463,41.296846 18.359863,40.650879 12.856761,37.594298 7.3661998,34.515397 1.875,31.4375 -0.1874997,30.282552 -2.2499997,29.127604 -4.3125,27.972656 -11.567782,23.907819 -18.816754,19.831806 -26.0625,15.75 -19.921291,9.1747266 -9.5659171,-1.3705752 0,0 Z"
       fill="#FCEBC2"
       transform="translate(131.0625,401.25)"
       id="path28"
       style="fill:#fcebc1;fill-opacity:1" />
    <path
       d="M 0,0 C 9.0616636,5.3949208 13.226445,13.192861 16.5,23 20.302569,38.307157 16.24501,54.667035 8.4804688,68.027344 2.0235477,77.719093 -6.0425434,85.850957 -17.5,89 -26.020476,89.984588 -33.27232,89.899995 -40.417969,84.828125 -47.761706,78.379965 -52.835135,68.767461 -53.677002,58.932129 -54.240346,38.656214 -50.536261,22.651338 -36.167969,7.4570312 -26.342454,-1.5916494 -12.698781,-5.8308732 0,0 Z"
       fill="#fcebc1"
       transform="translate(880.5,574)"
       id="path30" />
    <path
       d="m 0,0 c 8.58,0.66 17.16,1.32 26,2 2.9526,10.976409 5.802945,21.973544 8.5625,33 0.211044,0.842503 0.422087,1.685006 0.639526,2.55304 5.32253,21.287643 10.295251,42.656733 15.239991,64.03473 0.49241,2.12875 0.98544,4.25735 1.478881,6.38586 1.187624,5.12484 2.37094,10.25062 3.547852,15.37793 1.0447,4.5476 2.09959,9.09275 3.159073,13.63692 C 67.033364,173.04655 67.033364,173.04655 70,189 c -2.709424,0.10862 -5.414439,0.18759 -8.125,0.25 -1.14082,0.0503 -1.14082,0.0503 -2.304688,0.10156 C 54.237389,189.44351 51.124823,188.69643 47,185 c -3.557361,-5.74242 -4.774797,-12.30943 -6.363281,-18.79688 -0.314466,-1.2616 -0.628932,-2.52321 -0.952927,-3.82305 -0.667377,-2.67871 -1.33014,-5.35849 -1.989212,-8.03925 -0.824056,-3.35168 -1.655805,-6.70138 -2.490693,-10.05037 C 32.032403,131.5648 28.930445,118.82641 26.015625,106.03906 22.745392,91.700136 19.167952,77.440402 15.579041,63.178833 14.720908,59.766786 13.865433,56.354072 13.009766,52.941406 11.667641,47.589965 10.324734,42.238722 8.980957,36.887695 8.8183167,36.239993 8.6556765,35.592291 8.4881077,34.924961 7.6478067,31.578739 6.8071479,28.232607 5.9660034,24.886597 4.9747172,20.942957 3.9853613,16.998834 2.9960938,13.054688 2.6933302,11.851519 2.3905667,10.64835 2.0786285,9.4087219 1.804456,8.3146201 1.5302835,7.2205182 1.2478027,6.0932617 1.0058568,5.1299191 0.76391083,4.1665765 0.51463318,3.1740418 0,1 0,1 0,0 Z"
       fill="#C98428"
       transform="translate(182,492)"
       id="path32"
       style="fill:#aa7833;fill-opacity:1" />
    <path
       d="M 0,0 C 0.495,0.99 0.495,0.99 1,2 0.33097656,2.1353516 -0.33804688,2.2707031 -1.0273437,2.4101563 -32.797213,9.5317243 -61.840613,31.767438 -79.639648,58.830566 -92.545661,79.412553 -102.76833,103.82 -103.15625,128.45312 c -0.29567,12.72873 -0.29567,12.72873 -3.29639,16.25293 -5.70958,4.6914 -12.57629,7.10737 -19.54736,9.29395 -6.81749,-38.06884 4.99838,-78.36673 26.6875,-109.625 C -93.268988,35.900437 -86.36895,28.332705 -79,21 c 0.85207,-0.85207 1.704141,-1.704141 2.582031,-2.582031 C -65.854467,8.4150509 -53.220191,0.92686025 -40,-5 c 1.196895,-0.5414062 1.196895,-0.5414062 2.417969,-1.09375 C -24.478301,-11.249316 -11.528807,-7.107145 0,0 Z"
       fill="#9E763D"
       transform="translate(728,405)"
       id="path34"
       style="fill:#ae8e4e;fill-opacity:1" />
    <path
       d="M 0,0 C 15.427394,11.849353 26.294246,30.676198 29,50 30.610935,68.200802 28.588599,85.961759 16.859375,100.6875 14.648863,103.2138 12.369083,105.62252 10,108 c -0.5414062,0.56461 -1.0828125,1.12922 -1.640625,1.71094 -11.1351192,10.62897 -27.203311,14.8801 -42.171875,14.72656 -1.050989,-0.008 -2.101978,-0.0166 -3.184814,-0.0251 C -56.248516,123.9953 -72.544798,115.56667 -86,102 -102.14392,83.70714 -106.07442,62.52099 -105.19531,38.84375 -104.80309,33.132961 -103.41318,28.209766 -101,23 c 0.63615,-1.417324 0.63615,-1.417324 1.285156,-2.863281 C -92.247444,5.0979157 -78.596488,-6.8732468 -62.75,-12.3125 -41.020801,-19.271716 -18.064661,-13.123445 0,0 Z m -83.113281,15.339844 c -10.626539,14.982759 -13.419965,32.038473 -10.5,50.044922 3.633291,15.623151 13.633104,30.531705 26.925781,39.490234 13.691288,8.10181 29.301168,11.86161 45.007813,8.25391 C -13.431886,110.89331 -6.636569,107.42513 0,102 0.886875,101.40188 1.77375,100.80375 2.6875,100.1875 13.568692,89.894481 18.898388,75.620233 19.375,60.9375 19.060727,41.334747 10.958603,24.541137 -3,10.875 -16.817803,-0.94823318 -32.769583,-4.1223965 -50.44873,-3.2382813 -63.440283,-2.0249075 -74.838165,5.5540572 -83.113281,15.339844 Z"
       fill="#FBEBC3"
       transform="translate(363,511)"
       id="path36"
       style="fill:#fcebc1;fill-opacity:1" />
    <path
       d="m 0,0 c 1.2987305,0.00966797 2.5974609,0.01933594 3.9355469,0.02929688 1.3717507,0.02506602 2.7434955,0.05046086 4.1152344,0.07617187 1.3834492,0.0150498 2.7669137,0.0287377 4.1503907,0.0410156 3.387761,0.0354121 6.774741,0.0848038 10.162109,0.14648437 -1.41871,2.95850238 -2.835119,5.02121598 -5.125,7.37499998 C -0.98472699,28.164117 -6.013175,56.88605 -4.5166016,83.422852 c 1.0361131,13.746647 4.89375609,26.470688 10.9619141,38.831058 0.9179687,2.03906 0.9179687,2.03906 0.9179687,4.03906 -20.1434102,0.8997 -20.1434102,0.8997 -27.9843752,-5.66016 C -32.928803,107.82543 -35.288157,88.416291 -35.179443,71.458252 -34.462038,47.772621 -25.449538,21.061317 -9.6367188,3.2929688 -9.2408154,2.7615527 -8.8449121,2.2301367 -8.4370117,1.6826172 -5.7017575,-0.42872905 -3.4092604,-0.0446628 0,0 Z"
       fill="#9E763D"
       transform="translate(797.63672,302.70703)"
       id="path38"
       style="fill:#ae8e4e;fill-opacity:1" />
    <path
       d="M 0,0 C 7.126008,4.9090278 11.208421,11.852693 13.398438,20.160156 16.046482,37.922037 13.043826,55.987324 2.8125,70.9375 c -3.9925945,4.503374 -8.2350633,7.59435 -14.320313,8.25 -5.783241,0.276214 -9.193279,-0.285268 -13.679687,-4.25 -8.598538,-8.598538 -9.304031,-20.22046 -9.314697,-31.828857 C -34.259887,28.843892 -29.537796,14.197063 -19.5,3.75 -13.716731,-1.7020074 -7.4681193,-2.4893731 0,0 Z"
       fill="#5C3D15"
       transform="translate(873.1875,334.0625)"
       id="path40"
       style="fill:#543f21;fill-opacity:1" />
    <path
       d="m 0,0 c 3.5877332,1.221356 4.9231029,1.7459739 6.9375,5 0.3297097,3.6906216 0.2293221,7.305367 0,11 C 7.7508984,15.867227 8.5642969,15.734453 9.4023438,15.597656 16.295462,14.535387 23.170256,13.70153 30.125,13.1875 c 0.730173,-0.06502 1.460347,-0.130034 2.212646,-0.197021 5.086812,-0.330127 5.086812,-0.330127 7.564698,1.310302 1.614272,2.649843 1.413288,4.674161 1.035156,7.699219 -1.687782,2.314515 -2.650177,2.927832 -5.480469,3.511719 -0.89332,0.05801 -1.78664,0.116015 -2.707031,0.175781 -0.901055,0.06574 -1.802109,0.131484 -2.730469,0.199219 -0.68707,0.03738 -1.37414,0.07476 -2.082031,0.113281 0.0825,1.19625 0.165,2.3925 0.25,3.625 -0.01705,10.846666 -4.733148,20.757492 -9.25,30.375 0.741614,0.347805 1.483228,0.69561 2.247314,1.053955 3.358239,1.579527 6.711723,3.168905 10.065186,4.758545 1.750869,0.820811 1.750869,0.820811 3.537109,1.658203 1.118262,0.531738 2.236524,1.063477 3.388672,1.611328 1.031653,0.487024 2.063306,0.974048 3.126221,1.47583 2.386931,1.306124 3.97573,2.307457 5.635498,4.442139 0.540686,3.630318 0.463798,5.322141 -1.625,8.375 -3.185703,2.179691 -4.524583,2.070286 -8.375,1.625 -3.303654,-1.338556 -6.384239,-3.024944 -9.5,-4.75 C 26.194199,79.584844 26.194199,79.584844 24.925781,78.90625 20.433471,76.477974 16.130959,73.913637 11.9375,71 8.2279234,72.532953 6.043065,74.783495 3.3125,77.6875 -8.348002,89.536906 -8.348002,89.536906 -15.9375,91.1875 -19.0625,91 -19.0625,91 -21.5,89.5 -23.0625,87 -23.0625,87 -23.9375,83.625 c 0.875,-3.625 0.875,-3.625 2.730469,-5.128906 1.711719,-0.99873 3.445788,-1.959708 5.195312,-2.890625 3.155543,-1.717786 6.0268654,-3.641971 8.949219,-5.730469 0.9075,-0.641953 1.815,-1.283906 2.75,-1.945313 C -2.1027802,66.034546 -1.1108906,64.680544 -0.0625,62 -0.91972656,61.226562 -1.7769531,60.453125 -2.6601563,59.65625 -13.011055,50.2594 -13.011055,50.2594 -17.4375,45.5625 -17.981484,44.986289 -18.525469,44.410078 -19.085937,43.816406 -20.0625,42 -20.0625,42 -19.914062,39.402344 -19.0625,37 -19.0625,37 -16.0625,35 c 3.522591,-0.621634 5.895731,-0.726609 8.953125,1.285156 2.1123936,1.825474 4.0875785,3.725805 6.046875,5.714844 0.73089844,0.741211 1.46179688,1.482422 2.2148437,2.246094 1.3852916,1.405332 2.7600483,2.821173 4.1210938,4.25 C 6.8109768,50.223501 6.8109768,50.223501 8.9375,50 c 3.742399,-7.514382 6.186596,-14.814407 8,-23 -0.949153,0.120608 -0.949153,0.120608 -1.91748,0.243652 -10.6889877,1.355215 -21.3787982,2.709424 -32.08252,3.943848 -0.697222,0.08363 -1.394443,0.167256 -2.112793,0.253418 -4.673532,0.527346 -9.193641,0.761173 -13.887207,0.559082 -2.0625,-1.6875 -2.0625,-1.6875 -3,-4 0.131871,-2.703356 0.551082,-4.34526 2.082031,-6.578125 2.885452,-2.139113 6.00544,-2.260428 9.480469,-2.609375 1.068311,-0.120608 1.068311,-0.120608 2.158203,-0.243652 C -16.90878,17.992358 -11.525212,17.763633 -6.0625,18 c -0.33,-0.825 -0.66,-1.65 -1,-2.5 C -8.2867924,11.214977 -8.5644253,8.445624 -8.0625,4 -5.4345541,0.83100644 -4.1304483,0 0,0 Z"
       fill="#FBEBC2"
       transform="translate(318.0625,517)"
       id="path42"
       style="fill:#fcebc1;fill-opacity:1" />
    <path
       d="M 0,0 C 0,0.66 0,1.32 0,2 -0.66,2 -1.32,2 -2,2 -2.3789844,3.0306055 -2.3789844,3.0306055 -2.765625,4.0820312 -3.9140277,6.796768 -5.2579689,9.3010537 -6.7163086,11.859131 -17.283634,30.550368 -20.87474,49.854703 -21.5625,71.0625 c -0.06478,1.870752 -0.06478,1.870752 -0.130859,3.779297 C -21.798623,77.894441 -21.900759,80.947155 -22,84 -22.740486,83.798423 -23.480972,83.596846 -24.243896,83.38916 -27.641188,82.46564 -31.039334,81.545299 -34.4375,80.625 -36.184502,80.149336 -36.184502,80.149336 -37.966797,79.664062 -44.285612,77.955313 -50.595997,76.356142 -57,75 -56.403269,69.203181 -55.263892,63.851134 -53.6875,58.25 -48.766309,40.084101 -45.854311,21.585145 -43,3 -42.351521,2.980181 -41.703042,2.960361 -41.034912,2.939941 -29.547905,2.5717877 -18.196565,2.1802848 -6.828125,0.40234375 -4,0 -4,0 0,0 Z"
       fill="#9E763D"
       transform="translate(764,306)"
       id="path44"
       style="fill:#ae8e4e;fill-opacity:1" />
    <path
       d="m 0,0 c 11.183463,5.6229704 16.848413,14.39512 20.796875,25.96875 0.246211,0.665156 0.492422,1.330313 0.746094,2.015625 C 26.451457,43.55613 21.33048,61.21636 14.215088,75.225586 7.4844475,87.539859 -2.5139053,97.10338 -16.015625,101.23828 c -7.719216,1.76899 -14.975981,1.73396 -22.097656,-1.949218 -9.91361,-6.263177 -16.211437,-14.972347 -19.089844,-26.320312 -0.184336,-0.714141 -0.368672,-1.428281 -0.558594,-2.164063 -1.723696,-11.074369 -1.442713,-23.339002 2.558594,-33.835937 0.266836,-0.822422 0.533672,-1.644844 0.808594,-2.492188 2.483683,-7.086776 6.575551,-12.645405 11.191406,-18.507812 0.483398,-0.661289 0.966797,-1.322578 1.464844,-2.003906 C -32.159346,1.5538759 -15.072878,-4.8527315 0,0 Z m -40.203125,18.96875 c -11.587346,14.833607 -14.038018,30.796248 -13,49 1.303638,9.003939 5.856257,17.923236 13.125,23.5 1.264751,0.873643 2.556429,1.709925 3.875,2.5 0.88752,0.560742 0.88752,0.560742 1.792969,1.132812 6.344659,2.492946 15.908782,1.858586 22.144531,-0.757812 C 2.3874358,86.481132 10.691073,73.998749 15.96875,58.535156 19.469287,45.044879 18.83155,31.889145 12.476563,19.367187 8.2896355,12.526252 2.4974403,7.4391626 -5.203125,4.96875 c -15.057641,-1.6348296 -24.758095,2.9304666 -35,14 z"
       fill="#533611"
       transform="translate(880.20312,567.03125)"
       id="path46"
       style="fill:#543f21;fill-opacity:1" />
    <path
       d="M 0,0 C 5.3474088,2.3652001 7.105089,5.5081274 9.2382813,10.683594 12.349442,20.144714 11.770273,29.832113 8,39 5.6302468,43.265556 3.2571884,46.540291 -1,49 -4.9843815,49.870411 -8.3775082,49.854928 -12.03125,47.929687 -16.458765,44.496487 -19.084951,40.563822 -20,35 -20.893723,23.72792 -20.726312,13.754583 -13.4375,4.5 -9.216405,0.17067178 -5.9177448,-0.86464202 0,0 Z"
       fill="#5a3c14"
       transform="translate(439,250)"
       id="path48" />
    <path
       d="m 0,0 c 5.3307106,0.59886147 9.6700709,2.3689093 14.5,4.5625 1.181063,0.5324634 1.181063,0.5324634 2.385986,1.0756836 C 40.713518,16.570277 40.713518,16.570277 47,26 c -0.125,2.5 -0.125,2.5 -1,5 -6.321347,5.5925 -15.418026,6.200093 -23.5,7.1875 -1.012599,0.125804 -1.012599,0.125804 -2.045654,0.25415 C 14.634016,39.084808 8.8504937,39.079299 3,39 -0.58165209,12.042353 -0.58165209,12.042353 0,0 Z"
       fill="#C98428"
       transform="translate(719,249)"
       id="path50"
       style="fill:#b98138;fill-opacity:1" />
    <path
       d="m 0,0 c 3.8621344,2.7293855 7.8498416,5.6996832 10,10 0.578786,3.729139 1.089994,7.483949 -1.1992187,10.667969 C 1.2587855,27.146106 -9.6943548,25.369825 -19,25 c -12.496386,-1.030495 -12.496386,-1.030495 -17,-6 -1.844558,-3.689115 -1.35063,-7.964571 -1,-12 1.724529,-4.1751763 4.24746,-6.52673503 8,-9 9.910064,-3.8115629 19.4427457,-2.2607464 29,2 z"
       fill="#FDECC2"
       transform="translate(143,528)"
       id="path52"
       style="fill:#f7ecca;fill-opacity:1" />
    <path
       d="m 0,0 c 13.497693,4.60746 25.977794,10.710172 36.722656,20.164062 0.857227,0.670313 1.714453,1.340625 2.597656,2.03125 4.38889,3.596749 7.437193,7.45362 8.339844,13.15625 0.09339,5.696987 0.09339,5.696987 -1.9375,7.8125 -4.014509,1.038484 -6.083182,1.532304 -9.738281,-0.589843 C 35.134883,41.799492 34.285391,41.024766 33.410156,40.226562 32.458828,39.392539 31.5075,38.558516 30.527344,37.699219 29.601797,36.862617 28.67625,36.026016 27.722656,35.164062 18.355827,26.987408 7.9224926,21.424968 -3.015625,15.664063 -3.790271,15.255994 -4.564917,14.847925 -5.3630371,14.42749 -6.8625924,13.640851 -8.3646326,12.858927 -9.8693848,12.082275 -15.06283,9.3785764 -15.06283,9.3785764 -17.277344,7.1640625 c 0.25,-3.5625 0.25,-3.5625 1,-7 C -11.355333,-2.2969428 -5.1471537,-1.3128616 0,0 Z"
       fill="#5a3b14"
       transform="translate(531.27734,338.83594)"
       id="path54" />
    <path
       d="m 0,0 c 12.31505,4.2506828 12.31505,4.2506828 16.125,9.125 1.25,3.625 1.25,3.625 1,7 -1.4375,2.4375 -1.4375,2.4375 -4,4 C 7.3259374,20.482986 2.5680897,19.718474 -2.96875,18.078125 -3.7185413,17.865651 -4.4683325,17.653177 -5.2408447,17.434265 -7.6218302,16.757645 -9.9984525,16.067029 -12.375,15.375 c -2.3394,-0.672286 -4.679641,-1.34151 -7.020508,-2.008667 -1.545821,-0.44128 -3.090752,-0.885687 -4.634765,-1.333252 -3.77938,-1.085588 -7.553774,-2.0943885 -11.391602,-2.9530029 -0.72401,-0.1651007 -1.44802,-0.3302014 -2.19397,-0.5003051 C -39.586218,8.139021 -41.561539,7.7205512 -43.537109,7.3037109 -47.424836,5.9308362 -49.293189,4.3076026 -51.875,1.125 -52,-1.5 -52,-1.5 -50.875,-3.875 -38.550253,-12.959849 -13.236427,-4.288797 0,0 Z"
       fill="#5b3c15"
       transform="translate(577.875,315.875)"
       id="path56" />
    <path
       d="m 0,0 c -0.50249535,7.0564705 -2.0961509,12.973178 -4.625,19.5625 -0.3183984,0.893965 -0.6367969,1.78793 -0.9648437,2.708984 C -11.224155,37.140409 -24.348374,45.02094 -37.503906,52.882812 -40,54 -40,54 -43,53 c 0.513768,-6.224174 2.567764,-11.178927 5.1875,-16.8125 0.617179,-1.33285 0.617179,-1.33285 1.246826,-2.692627 C -35.392066,30.989136 -34.199316,28.49351 -33,26 c 0.497578,-1.059609 0.995156,-2.119219 1.507813,-3.210938 C -27.669106,15.532076 -21.719518,11.479679 -15,7 -13.98293,6.3013281 -12.965859,5.6026562 -11.917969,4.8828125 -4.59375,0 -4.59375,0 0,0 Z"
       fill="#5A3B13"
       transform="translate(883,589)"
       id="path58"
       style="fill:#543f21;fill-opacity:1" />
    <path
       d="M 0,0 C 1.9691421,1.6357424 2.9104233,2.5310396 3.3984375,5.0859375 3.3135584,13.375795 3.3135584,13.375795 0,17 -10.370987,23.889121 -22.668326,25.47514 -34.75,23.3125 -40.239547,21.857919 -45.226005,19.753441 -48.386719,14.847656 -50.337563,10.73377 -51.193636,7.5827086 -51,3 c 1.562344,0.2165625 1.562344,0.2165625 3.15625,0.4375 C -32.06055,5.529048 -14.800621,7.4003107 0,0 Z"
       fill="#FCEBC3"
       transform="translate(161,566)"
       id="path60"
       style="fill:#f7ecca;fill-opacity:1" />
    <path
       d="M 0,0 C 3.7890625,0.7109375 3.7890625,0.7109375 5.6875,3.3125 10.681899,13.539127 7.7426663,25.654759 4.6635742,36.08252 3.250036,40.167115 1.1736392,44.029474 -2,47 -2.99,47 -3.98,47 -5,47 -7.4834393,41.192168 -8.4928794,36.545305 -8.375,30.25 -8.36557,29.465042 -8.356148,28.680083 -8.346436,27.871338 -8.0783549,17.446098 -5.628415,8.8096931 0,0 Z"
       fill="#9E763D"
       transform="translate(864,350)"
       id="path62"
       style="fill:#ae8e4e;fill-opacity:1" />
    <path
       d="m 0,0 c 0.49237155,5.9084586 -0.53739593,10.114117 -4,15 -7.084821,5.756417 -14.159907,5.58429 -23,5 -5.450643,-1.163067 -10.381739,-4.819579 -14,-9 -0.369675,-1.3237181 -0.707707,-2.6570728 -1,-4 0.598367,-0.00935 1.196733,-0.018691 1.813232,-0.02832 C -21.947639,6.7315903 -21.947639,6.7315903 -4.8515625,0.87109375 -3,0 -3,0 0,0 Z"
       fill="#F9EAC3"
       transform="translate(166,601)"
       id="path64"
       style="fill:#f7ecca;fill-opacity:1" />
    <path
       d="m 0,0 c 2.3829787,20.531915 2.3829787,20.531915 2,30 -9.8748207,-2.436404 -19.922769,-5.529411 -28,-12 0,-0.66 0,-1.32 0,-2 1.664795,-1.265137 1.664795,-1.265137 3.980469,-2.679687 1.252002,-0.775372 1.252002,-0.775372 2.529297,-1.566407 C -18.606582,11.216367 -17.72293,10.678828 -16.8125,10.125 -0.29470803,0 -0.29470803,0 0,0 Z"
       fill="#9F763D"
       transform="translate(738,623)"
       id="path66"
       style="fill:#ae8e4e;fill-opacity:1" />
    <path
       d="M 0,0 C 3.9502425,0.08587484 5.5253428,0.5125142 8.3125,3.375 11.077758,7.6765119 11.336527,10.952094 11,16 10.17622,18.46655 9.1485161,20.655113 8,23 6.230509,23.108152 4.4591251,23.185661 2.6875,23.25 1.7013672,23.296406 0.71523438,23.342812 -0.30078125,23.390625 -3,23 -3,23 -4.828125,21.320312 -6.9806782,17.058257 -6.62538,12.646641 -6,8 -4.6270761,4.7320543 -2.4986852,2.4986852 0,0 Z"
       fill="#C88329"
       transform="translate(861,509)"
       id="path68"
       style="fill:#b98138;fill-opacity:1" />
    <path
       d="M 0,0 C 3.7383823,1.3351365 5.1081418,2.4934918 6.8554687,6.0625 8.040073,10.082975 7.8001474,14.106298 7.5,18.25 c -7.41834582,0.09377 -14.6623629,0.174022 -22,-1 1.078111,-1.898808 2.162733,-3.79392 3.25,-5.6875 0.603281,-1.055742 1.206562,-2.1114844 1.828125,-3.1992187 C -4.4555597,0.31825427 -4.4555597,0.31825427 0,0 Z"
       fill="#faecc5"
       transform="translate(345.5,219.75)"
       id="path70" />
    <path
       d="M 0,0 C 6.2047786,1.936243 12.108257,4.2560914 18,7 14.825694,8.058102 13.821718,7.9586954 10.65625,7.2929687 9.8222266,7.1183008 8.9882031,6.9436328 8.1289063,6.7636719 7.2613672,6.5735352 6.3938281,6.3833984 5.5,6.1875 4.6324609,6.0089648 3.7649219,5.8304297 2.8710938,5.6464844 -1.0208127,4.8133637 -3.6376678,4.2415548 -7,2 -3.37,2.33 0.26,2.66 4,3 2.68,2.34 1.36,1.68 0,1 0,0.67 0,0.34 0,0 Z"
       fill="#d68c29"
       transform="translate(675,206)"
       id="path84" />
    <path
       d="M 0,0 C 2.0204544,0.60183749 4.0211104,1.273061 6,2 6.33,2.66 6.66,3.32 7,4 2.05,4 -2.9,4 -8,4 -8,3.67 -8,3.34 -8,3 -3.545,2.505 -3.545,2.505 1,2 0.67,1.34 0.34,0.68 0,0 Z"
       fill="#fdfbea"
       transform="translate(375,453)"
       id="path130" />
    <path
       d="M 0,0 C 0.66,0 1.32,0 2,0 1.25,6.75 1.25,6.75 -1,9 -1.0976562,2.8476563 -1.0976562,2.8476563 -1,1 -0.67,0.67 -0.34,0.34 0,0 Z"
       fill="#f8f0d0"
       transform="translate(585,479)"
       id="path154" />
  </g>
</svg>
