<?xml version="1.0" encoding="UTF-8" standalone="no"?>
<svg
   version="1.1"
   width="982.10406"
   height="982.10406"
   id="svg120"
   sodipodi:docname="the-social-geokret.svg"
   inkscape:export-filename="/tmp/avatars/social.png"
   inkscape:export-xdpi="57.227798"
   inkscape:export-ydpi="57.227798"
   inkscape:version="1.1.2 (0a00cf5339, 2022-02-04)"
   xmlns:inkscape="http://www.inkscape.org/namespaces/inkscape"
   xmlns:sodipodi="http://sodipodi.sourceforge.net/DTD/sodipodi-0.dtd"
   xmlns="http://www.w3.org/2000/svg"
   xmlns:svg="http://www.w3.org/2000/svg">
  <g
     id="g45111"
     transform="translate(-3.3262866,-20.302531)">
    <path
       id="path2"
       d="M 409.37891,20.375 C 390.74448,19.706051 378.40445,23.621174 345.5,34.0625 340.59751,38.917925 338.49438,43.31877 337,50 l -0.43945,1.958984 c -4.24403,19.816089 -6.32235,45.383801 3.87304,63.705076 C 346.1897,124.24799 354.54768,133.63714 365,136 l -0.92969,1.81055 C 355.89652,153.86495 349.74029,168.99328 348,187 l -3.78516,-0.875 C 326.28062,182.21065 307.80741,180.59749 290,186 l -2.9375,0.87891 C 272.56784,191.69033 260.981,200.30735 254,214 l -0.99609,1.94531 c -5.11083,10.90636 -4.38696,26.92496 -1.04297,38.34766 1.7839,4.64753 4.15216,8.664 7.03906,12.70703 l 1.52344,2.15234 C 265.16703,275.05311 271.18485,278.92405 278,282 h 4 l 0.26953,2.51172 c 0.8758,4.18227 2.46757,7.52566 4.41797,11.30078 l 1.09766,2.14648 C 292.72779,307.48613 298.6263,315.19401 306,323 l 2.05078,2.28125 C 323.79577,342.12335 347.00809,352.34343 369,358 h 4 c -0.36538,15.67819 -6.69831,36.81529 -17.6875,48.5 -1.39681,1.21509 -2.83895,2.3792 -4.3125,3.5 l -2.83203,2.1875 C 331.31079,424.49262 312.28339,433.30355 291,431 c -4.42209,-0.9432 -8.65313,-2.37821 -12.90234,-3.90625 C 275.2332,425.88902 275.2332,425.88902 273,426 l 0.0625,-2.23633 c 0.33041,-13.48915 0.32091,-26.28206 -2.62891,-39.48437 C 268.31252,374.53425 268.04045,364.79775 270,355 c 0.8565,-12.69307 0.11823,-25.23722 -8.43359,-35.41797 -6.3477,-6.41102 -12.85635,-7.68226 -21.50391,-7.89453 -5.7392,0.0674 -9.90802,0.83835 -15.0625,3.3125 l -0.16016,-1.67969 c -0.53891,-5.27597 -1.37164,-10.38597 -2.51172,-15.5625 l -0.49218,-2.29492 c -0.34627,-1.61311 -0.69527,-3.22746 -1.04492,-4.83984 -2.67462,-12.34415 -5.24685,-24.69039 -7.47852,-37.12305 -1.50003,-8.22567 -3.02289,-16.44358 -4.75,-24.625 l -0.51172,-2.63867 c -1.62417,-7.41731 -5.04265,-13.30533 -10.48828,-18.61133 -6.94206,-4.40228 -12.33394,-5.11087 -20.4375,-5 l -3.39062,0.0312 C 147.40234,203.10983 121.18112,205.78539 95.0625,209 l -3.136719,0.38086 c -2.965063,0.36269 -5.927905,0.73783 -8.890625,1.11914 l -2.630859,0.32227 c -9.779537,1.30055 -20.641584,3.37739 -27.197266,11.36132 -7.297496,10.55624 -6.208295,22.97854 -4.105469,35.21875 0.812126,4.35546 1.692054,8.69586 2.585938,13.03516 0.371021,1.8611 0.741448,3.72227 1.109375,5.58398 0.725639,3.6623 1.458538,7.32314 2.199219,10.98243 1.092292,5.4093 2.127616,10.82748 3.152344,16.25 C 60.851437,317.55655 63.824732,331.79529 67,346 l -1.814453,0.44727 c -7.739153,2.0133 -13.554479,6.37434 -17.826172,13.1582 -5.766351,11.21787 -5.277917,20.68868 -1.527344,32.64453 1.125125,2.64912 2.095596,3.8474 4.167969,5.75 0.405265,2.99896 0.04785,4.87011 -1,7.71484 -2.697053,8.86024 -2.008327,19.88536 2,28.28516 2.058533,3.22718 4.287668,6.28767 7,9 0.09512,2.11158 0.183395,4.22292 0.238281,6.33594 C 58.580371,461.44319 60.487989,470.87858 69,480 c 2.512065,2.29432 5.117028,4.19747 8,6 l 1.949219,1.22266 c 7.485423,3.97796 16.834292,4.15096 25.162111,3.65039 3.47924,-0.17874 5.46774,-0.15586 8.40039,1.81445 L 114.6875,495 c 17.93662,17.47038 42.32106,24.08907 66.70117,24.3418 5.60811,0.17188 8.47255,0.59529 12.61133,4.6582 34.16245,25.22923 73.52129,40.79913 116,43 l -0.42578,2.30469 c -1.48929,8.70403 -1.93515,17.18955 -1.88672,26.00781 l 0.006,2.10156 c 0.15251,34.75976 7.57499,71.20013 24.63086,101.8125 l 1.16016,2.13477 c 0.73615,1.33977 1.49867,2.66727 2.29101,3.97461 1.52355,2.77746 2.39275,4.64645 1.86914,7.83398 -0.76932,2.33721 -1.67589,4.56871 -2.64453,6.83008 -0.51167,1.42555 -1.01193,2.85526 -1.5,4.28906 l -0.74609,2.14063 C 328.51726,738.75983 325.26039,750.824 326,764 l -3.375,-0.3125 c -6.31994,0.0224 -11.79681,2.81634 -16.48828,6.95703 -7.47418,8.21604 -8.33413,17.42638 -7.88672,28.04297 l 0.14062,2.25977 c 0.0625,2.18945 0.0625,2.18945 -0.39062,6.05273 -2.14062,1.89453 -2.14062,1.89453 -5,4 -0.81718,1.73265 -1.61474,3.47461 -2.39844,5.22266 C 289.07129,818.8833 289.07129,818.8833 287,821 c -4.88244,1.20097 -9.65428,0.81286 -14.625,0.4375 -17.0638,-0.91986 -30.31941,1.29982 -43.5,12.8125 -1.64542,1.5621 -3.2707,3.1457 -4.875,4.75 l -2.34375,2.34375 C 211.02438,852.55819 204.7874,865.87567 199,880 l -1.39062,3.32422 c -3.09057,8.15081 -4.73725,17.63512 -1.25391,25.88672 7.13547,12.10149 22.17559,19.12204 34.08203,25.72656 l 2.50781,1.39453 C 243.86864,942.293 243.86938,942.29398 256,943 c 2.71337,-2.19622 4.43961,-4.87921 6,-8 l 3,-1 0.25,3.6875 c 0.55331,4.17562 1.53326,6.42568 4.75,9.3125 10.55718,5.48161 25.35214,5.76003 37,5 3.40452,-1.13484 3.60056,-1.55278 5.1875,-4.5625 L 314,944 c 4.01413,1.33804 4.73006,3.52415 7,7 4.20034,2.80023 7.68735,2.33042 12.625,2.3125 l 2.62109,0.0488 c 6.89952,0.005 13.45958,-0.93393 19.12891,-5.11133 2.1256,-2.94313 3.32176,-5.86158 4.625,-9.25 h 2 c 1.33346,1.9503 2.43891,3.99004 3.58594,6.05469 1.65343,2.27461 2.83597,2.87977 5.41406,3.94531 1.99408,0.30432 1.99408,0.30505 4.08398,0.27539 l 2.41211,0.0273 2.59766,-0.002 2.73047,0.0137 c 1.91653,0.006 3.83346,0.006 5.75,0.002 2.85962,-0.003 5.71863,0.0194 8.57812,0.0449 9.33749,0.0339 18.50063,-0.32025 27.75391,-1.63086 l 2.42383,-0.32813 c 6.46451,-1.02952 12.12184,-3.12248 17.04492,-7.52734 4.46968,-7.9079 3.85222,-17.24957 3.68359,-26.06641 -0.0401,-2.18506 -0.0644,-4.3713 -0.084,-6.55664 -0.0574,-6.20629 -0.13429,-12.41155 -0.24219,-18.61718 -0.0652,-3.8176 -0.10448,-7.63506 -0.1289,-11.45313 -0.014,-1.4363 -0.0367,-2.87262 -0.0703,-4.30859 C 447.2877,862.24674 449.14068,853.83191 453,844 c 0.51779,-1.41457 1.03393,-2.82976 1.54688,-4.24609 L 455.75,836.5625 c 2.91231,-8.17651 4.42738,-15.18718 1.25,-23.5625 -1.48845,-2.40025 -2.95,-4.00125 -5,-6 h -2 l 6,-13 c 10.60402,-0.14795 21.20761,-0.25457 31.8125,-0.3125 l 2.35938,-0.0137 c 22.33896,-0.1086 44.16433,0.30006 66.12695,4.86719 2.62582,0.44614 5.04391,0.54385 7.70117,0.45898 0.50644,2.22771 1.0049,4.45724 1.5,6.6875 l 0.84375,3.76172 c 0.55692,3.01334 0.98648,5.51479 0.65625,8.55078 -2.375,2.9375 -2.375,2.9375 -3.71094,4.27734 -3.94226,5.2683 -3.49208,10.92673 -2.90234,17.13672 1.05355,6.16026 3.25626,11.81952 5.61328,17.58594 l 0.99609,2.4375 c 0.645,1.53072 1.31927,3.0491 2.00391,4.5625 l -2.38672,0.77734 c -23.40464,8.22625 -37.56983,25.81579 -48.04687,47.52344 -6.38657,14.49214 -8.66097,29.84197 -8.94141,45.57422 l -0.0801,2.66797 c -0.018,7.03004 1.71521,12.02246 6.10352,17.52344 25.35064,21.96672 65.12724,23.95422 96.97656,24.05862 l 3.89844,0.016 c 29.26408,0.7169 29.26359,0.716 55.44531,-9.84766 C 674.39627,989.57346 675.83944,987.48169 677,984 l 3,1 c 7.76743,0.98858 13.5275,-1.78266 20,-6 3.74293,-3.44453 8.78266,-8.23983 9.19531,-13.48047 l -0.0703,-2.70703 -0.0547,-2.73047 L 709,958 l 1.6875,0.35938 c 5.22801,0.88311 8.76923,0.74987 13.39844,-1.9336 C 732.93601,949.83338 737.27192,940.64668 739,930 c 0.28817,-3.50539 0.33434,-6.98392 0.3125,-10.5 l -0.0176,-2.91992 c -0.34837,-20.82273 -5.64912,-47.1287 -19.01367,-63.71289 -4.11441,-5.996 -0.79807,-17.06229 0.28125,-23.70313 0.38425,-2.77895 0.52135,-5.36564 0.4375,-8.16406 l 3.18164,0.87891 c 5.89871,1.46997 11.89204,2.23804 17.9082,3.0664 l 3.8125,0.5293 c 2.65818,0.36713 5.31573,0.73182 7.97461,1.09375 2.69183,0.36703 5.38246,0.74146 8.07227,1.12305 28.68155,5.14549 28.68179,5.14598 56.23828,-1.37891 6.95911,-5.72193 11.42785,-11.35647 12.67969,-20.42578 l 0.4375,-3.07227 0.46093,-3.34961 c 0.34924,-2.44701 0.70024,-4.89329 1.05274,-7.33984 l 0.28125,-1.96484 c 1.15393,-8.00152 2.42844,-15.98481 3.69727,-23.96875 0.24331,-1.53625 0.48736,-3.0731 0.73046,-4.60938 0.99514,-6.28602 1.99138,-12.57034 2.99219,-18.85547 0.62319,-3.91456 1.243,-7.83076 1.86133,-11.74609 0.23329,-1.47336 0.46945,-2.94693 0.70508,-4.41992 0.32567,-2.03622 0.64771,-4.07242 0.96875,-6.10938 l 0.55469,-3.49414 C 845.08739,713.83639 845.08733,713.83616 845,710 l 2.95312,0.16016 c 4.56259,-0.008 8.51039,-1.25412 12.79688,-2.72266 l 2.39844,-0.81445 C 869.74404,704.28017 875.42336,701.26228 881,697 l 2.19531,-1.64844 C 895.38293,685.48098 902.62418,670.27025 905,655 c 0.17809,-2.40618 0.16818,-4.58935 0,-7 l 2,-0.5625 c 15.68444,-7.51546 25.93045,-26.95362 32,-42.4375 8.63012,-26.03418 9.87037,-55.84719 -1.58203,-81.25391 -6.00738,-11.97371 -6.00738,-11.97469 -15.54688,-20.92968 C 920,500.99902 920,501.00098 919.60938,497.62891 c 0.0274,-1.40254 0.0758,-2.80573 0.14062,-4.20703 0.0345,-1.55875 0.0679,-3.11702 0.10156,-4.67579 l 0.0762,-2.47461 C 920.37233,470.78588 919.77882,456.10618 916,441 l -0.66992,-2.69727 c -1.64705,-6.33404 -3.74143,-12.36847 -6.20508,-18.42773 l -0.98828,-2.51172 c -2.05231,-5.10282 -4.40499,-9.72117 -7.38281,-14.35156 -0.75342,-2.01221 -0.75415,-2.01245 0.0117,-4.15625 1.41617,-2.13 3.0096,-3.83736 4.79688,-5.66797 18.96435,-21.02944 25.70095,-50.04626 24.85938,-77.67578 C 929.13823,290.91699 920.9794,268.20636 903,251 890.74792,240.43186 875.57466,236.63989 859.75,236.6875 l -3.19922,-0.0488 c -6.63007,-0.004 -12.4287,0.82998 -18.78906,2.7168 -5.05132,1.1798 -8.84827,0.81916 -13.57422,-1.16797 -5.85588,-2.01826 -11.5763,-2.96179 -17.71875,-3.6875 l -3.24023,-0.38477 c -15.73386,-1.7427 -31.55477,-2.39948 -47.35938,-3.17578 -3.42922,-0.17072 -6.85837,-0.35122 -10.28711,-0.53125 -3.35364,-0.17548 -6.70663,-0.34539 -10.06055,-0.51562 -1.57659,-0.0802 -3.15395,-0.16238 -4.73046,-0.24414 -2.2071,-0.11352 -4.41369,-0.22078 -6.6211,-0.32813 l -3.76953,-0.18945 C 714.26945,228.94742 708.13369,229 702,229 l -1,-28 8,10 c 4.47812,3.172 8.65121,3.7869 14,3 4.23157,-1.41927 4.23157,-1.41927 6.875,-4.75 L 730,207 l 0.25781,-3.05078 C 729.92414,198.83803 728.18812,195.13926 726,190.5625 l -1.23633,-2.6582 C 723.52671,185.26092 722.2687,182.62827 721,180 l -1.08203,-2.24609 c -3.80998,-7.8472 -7.84705,-15.56639 -11.98633,-23.24414 -2.25383,-4.19217 -4.39369,-8.42605 -6.49414,-12.69727 -2.70976,-5.46878 -5.65458,-10.73387 -8.76953,-15.98047 -2.03803,-3.46035 -3.95484,-6.97693 -5.86719,-10.50781 -2.44319,-4.51009 -4.90031,-9.01241 -7.36328,-13.51172 l -1.39062,-2.556641 C 675.5096,94.62511 672.87326,90.102748 670.00586,85.667969 668.61308,83.360193 667.92663,81.714679 668,79 c 1.875,-2.6875 1.875,-2.6875 4,-5 2.46907,-4.938133 1.74487,-12.586424 1,-18 -2.25323,-5.856673 -6.87231,-9.136622 -12.35547,-11.855469 C 643.98218,36.933203 626.45551,33.263889 608.625,30.25 l -3.74219,-0.638672 C 591.812,27.481735 578.85585,26.804735 565.625,26.8125 h -3.98438 c -10.08872,0.03941 -20.13601,0.482267 -30.20312,1.125 l -2.07812,0.130859 C 523.17075,28.46912 517.11715,28.978907 511,30 492.44453,31.234266 473.86398,28.560167 455.52148,26.111328 434.00637,22.828497 420.55956,20.776369 409.37891,20.375 Z"
       style="fill:#543f21;fill-opacity:1" />
    <path
       d="m 0,0 c 3.9319885,0.26657549 4.9748171,0.53877126 7.6875,3.25 0.6342773,2.4575195 0.6342773,2.4575195 0.8359375,5.3828125 0.09104,1.07677 0.1820801,2.1535405 0.2758789,3.2629395 C 8.9295923,13.61798 8.9295923,13.61798 9.0625,15.375 c 1.796135,18.498667 6.52466,34.409725 20.25,47.6875 10.713598,8.515936 23.222269,13.053503 36.375,16.1875 1.026094,0.246211 2.052188,0.492422 3.109375,0.746094 20.768361,4.159409 43.707645,0.653108 62.097655,-9.855469 11.63884,-7.878596 21.24982,-18.767476 28.34766,-30.800781 0.47695,-0.689649 0.9539,-1.379297 1.44531,-2.089844 0.66,0 1.32,0 2,0 20.7768,37.172681 28.01638,75.45044 31.91406,117.35156 0.0838,0.89035 0.16763,1.78069 0.25398,2.69801 1.84952,19.65314 3.51481,39.32129 5.12444,58.99535 0.38807,4.74244 0.78173,9.4844 1.17671,14.22627 0.30944,3.72305 0.61582,7.44636 0.92129,11.16974 0.14413,1.75186 0.28924,3.50363 0.43541,5.25532 0.20149,2.41952 0.39878,4.83936 0.59501,7.25932 0.0592,0.70006 0.11834,1.40013 0.1793,2.12141 0.37195,4.65999 0.44813,9.25295 0.3998,13.92302 -1.02738,0.4357 -2.05477,0.87141 -3.11328,1.32031 -31.90042,13.64402 -54.92027,35.56602 -71.87793,65.88086 -0.97614,1.7406 -1.98031,3.46539 -2.98535,5.18945 -23.38728,41.55669 -34.005766,92.07527 -21.17066,138.66016 1.60174,5.59733 3.50084,10.74108 6.14722,15.94922 0,0.66 0,1.32 0,2 -1.6875,1.22656 -1.6875,1.22656 -4,2.625 -14.12969,9.22078 -22.738077,24.58923 -28,40.375 -3.75085,-0.40922 -7.500597,-0.82773 -11.25,-1.25 -1.16064,-0.1306 -2.321279,-0.2612 -3.51709,-0.39575 -7.447519,-0.85902 -14.856537,-1.86957 -22.267822,-2.99756 -22.743657,-4.28976 -22.743657,-4.28976 -44.105713,2.08472 C -18.628894,552.60207 -17.572557,578.6047 -20.125,597.5 c -0.526852,3.8835 -1.054275,7.76693 -1.581879,11.65033 -0.354059,2.60658 -0.707596,5.21323 -1.060608,7.81995 -1.091698,8.03715 -2.22884,16.06637 -3.400482,24.09222 -0.417922,2.90457 -0.834384,5.80935 -1.250091,8.71423 -0.256992,1.77431 -0.519129,3.54789 -0.787171,5.32056 -1.450635,9.60908 -2.370205,19.10027 -2.513519,28.82458 -0.02413,0.8977 -0.04826,1.79539 -0.07312,2.72028 0.0018,5.57772 0.976101,9.63798 3.520996,14.61157 0.954875,1.98899 1.498394,3.84441 1.958374,5.99628 -3,1 -3,1 -6.1875,0.0625 -3.09682,-0.86305 -4.955848,-1.18354 -8.050781,-1.12891 -1.241367,0.0219 -2.482735,0.0438 -3.761719,0.0664 -0.507891,1.02738 -1.015781,2.05477 -1.539062,3.11328 -8.026223,16.18361 -8.026223,16.18361 -12.460938,23.88672 -0.556875,1.05187 -1.11375,2.10375 -1.6875,3.1875 -4.056476,3.1794 -8.37496,2.34735 -13.3125,1.8125 -13.894569,-1.96486 -13.894569,-1.96486 -20,-4 -0.519531,-1.78516 -0.519531,-1.78516 -0.8125,-4.0625 -1.526297,-7.81762 -6.477038,-13.04404 -12.88281,-17.50391 -9.55905,-5.94604 -19.56755,-9.35416 -30.30469,-12.43359 -1.10682,-13.95825 3.21821,-28.02812 8,-41 3.298,1.55245 6.26907,3.43581 9.3125,5.4375 7.28762,4.62706 13.73319,8.23222 22.6875,6.5625 2.278917,-2.798 2.278917,-2.798 1.9375,-5.875 -1.62376,-5.41253 -6.19686,-8.40734 -10.49121,-11.86401 C -128.88717,634.05229 -140.8131,604.09319 -148,574.75 c -0.20262,-0.81767 -0.40525,-1.63534 -0.61401,-2.47778 -3.32658,-14.15982 -4.10833,-28.10933 -4.07349,-42.58472 8.8e-4,-0.89523 0.002,-1.79047 0.003,-2.71283 0.11754,-36.67283 8.22512,-71.92519 19.37234,-106.72467 0.30486,-0.95713 0.60973,-1.91426 0.92383,-2.90039 6.02945,-18.68741 13.86512,-36.64148 21.60742,-54.66406 9.79781,-22.81378 18.103756,-45.41614 24.46875,-69.43555 0.561709,0.0157 1.123418,0.0314 1.702148,0.0476 33.678567,0.80951 67.619121,-5.69953 93.297852,-29.04761 10.907006,-10.77735 18.601863,-22.87281 22,-38 4.75,1.875 4.75,1.875 7,3 3.378224,0.14375 5.77391,0.0754 9,-1 0.477021,-4.77021 0.567956,-8.01554 -1.875,-12.25 -6.273033,-6.39708 -17.469802,-10.74144 -26.375,-11.125 -3.914252,0.39143 -5.916392,0.62994 -8.75,3.375 -0.833833,3.41409 -0.833833,3.41409 0,7 2.354265,2.77122 2.354265,2.77122 5,5 1,3 1,3 -0.1875,5.67187 -3.706973,6.29547 -7.3783608,11.45977 -12.8125,16.32813 -0.804375,0.84562 -1.60875,1.69125 -2.4375,2.5625 -3.3132074,3.15159 -6.8150699,5.82363 -10.5625,8.4375 -0.683203,0.48469 -1.366406,0.96938 -2.070313,1.46875 -24.522912,16.06379 -59.541246,19.65892 -87.742187,13.84375 -3.08638,-0.69319 -6.13857,-1.47053 -9.1875,-2.3125 -0.67273,-0.18192 -1.34546,-0.36384 -2.03857,-0.55127 -25.243,-7.04587 -46.73597,-22.19324 -60.41455,-44.61279 -1.54688,-2.83594 -1.54688,-2.83594 -1.54688,-4.83594 1.04156,-0.15855 2.08313,-0.31711 3.15625,-0.48047 24.08269,-3.8419 45.3588,-11.70017 60.31641,-32.07031 7.60946,-12.2024 11.515834,-24.62672 9.09765,-39.00391 -1.48706,-5.30571 -4.09804,-8.53585 -8.14453,-12.23047 -3.78153,-5.87432 -0.85787,-15.31522 0.47266,-21.73046 1.87793,-8.12215 4.90654,-15.804647 8.10156,-23.48438 0.29503,-0.748945 0.59007,-1.497891 0.89404,-2.269531 1.890715,-4.707445 3.834036,-8.822794 7.10596,-12.730469 3.237492,-1.377176 5.812312,-1.619218 9.320313,-1.78125 20.298809,-1.206723 41.355314,-13.718375 55.019531,-28.289063 C -19.696284,31.397269 -13.427969,19.616072 -7.1665039,6.9277344 -3.8862098,0.29329885 -3.8862098,0.29329885 0,0 Z"
       fill="#FAE8B8"
       transform="translate(484.3125,67.75)"
       id="path6"
       style="fill:#fef1c7;fill-opacity:1" />
    <path
       d="M 0,0 C 0.67760376,0.05832504 1.3552075,0.11665009 2.0533447,0.17674255 12.637931,1.1790309 23.153597,2.9124254 33.65625,4.5351562 c 2.191309,0.3333191 4.382715,0.6660059 6.574219,0.9980469 5.309724,0.8058762 10.618213,1.6195044 15.925781,2.4394531 0.285688,1.2069251 0.285688,1.2069251 0.577148,2.4382328 0.258135,1.065813 0.51627,2.131626 0.782227,3.229736 0.378501,1.578175 0.378501,1.578175 0.764648,3.188232 2.553199,9.163193 7.126183,16.727641 15.407227,21.647705 5.191408,2.679683 9.634661,4.755902 15.550781,4.382813 12.537209,-0.565966 12.537209,-0.565966 16.339849,1.304687 1.64062,1.558594 1.64062,1.558594 3.1289,3.207032 3.4077,3.765922 7.61374,5.347487 12.62891,5.796875 11.193,0.688355 11.193,0.688355 21.82031,-2.195313 4.36547,0.117986 7.35029,2.345684 10.83984,4.746094 7.30289,4.239109 15.75453,4.412812 23.875,2.671875 12.82006,-4.435375 20.31923,-15.51725 26.22266,-27.105469 0.35062,-0.763125 0.70125,-1.52625 1.0625,-2.3125 6.97749,0.632433 13.88649,1.512223 20.8125,2.5625 1.09949,0.16492 2.19898,0.329839 3.33179,0.499756 2.64544,0.397377 5.2907,0.795853 7.93579,1.195557 4.79905,0.724744 9.59889,1.444133 14.39876,2.163467 4.67986,0.70166 9.35949,1.404897 14.03907,2.108475 2.33688,0.351229 4.67381,0.702088 7.01081,1.052551 6.51227,0.9772 13.02281,1.964772 19.53116,2.967804 2.7951,0.427699 5.5918,0.843286 8.38885,1.257996 1.62007,0.249421 3.24003,0.499533 4.85986,0.750488 0.71705,0.102808 1.4341,0.205616 2.17287,0.311539 5.45495,0.868266 10.00668,2.740047 13.51854,7.129867 4.87541,13.737207 -1.99477,35.112551 -4.1875,48.9375 -0.71973,4.597314 -1.43572,9.195214 -2.14992,13.793384 -0.30655,1.97255 -0.61402,3.94496 -0.92149,5.91737 -1.2524,8.07114 -2.44431,16.14805 -3.56531,24.23846 -0.20308,1.46068 -0.20308,1.46068 -0.41026,2.95086 -0.62002,4.47574 -1.22914,8.95267 -1.82485,13.43171 -2.54652,18.75617 -2.54652,18.75617 -7.00317,24.29322 -8.53348,4.17596 -20.49236,0.5572 -29.58984,-0.76563 -1.66152,-0.23639 -3.32312,-0.47219 -4.98481,-0.70743 -4.4934,-0.63794 -8.98552,-1.2846 -13.47744,-1.93291 -4.78311,-0.68883 -9.56737,-1.36961 -14.35147,-2.05155 -10.89956,-1.55549 -21.79729,-3.12353 -32.69449,-4.69542 -2.73772,-0.39489 -5.47547,-0.78954 -8.21323,-1.1841 -15.15133,-2.18383 -30.30191,-4.37281 -45.45117,-6.57092 -19.17106,-2.78103 -38.34491,-5.54147 -57.522706,-8.27564 -1.077754,-0.1537 -2.155508,-0.30739 -3.265921,-0.46575 -9.569345,-1.36462 -19.138734,-2.72893 -28.70878,-4.08863 -1.472399,-0.20924 -1.472399,-0.20924 -2.974544,-0.42271 -1.962117,-0.27882 -3.92425,-0.55751 -5.8864,-0.83609 -4.80291,-0.68273 -9.605035,-1.37032 -14.405765,-2.06823 -1.901934,-0.27614 -3.803886,-0.55216 -5.705856,-0.82806 -1.413443,-0.20511 -1.413443,-0.20511 -2.855441,-0.41437 -6.220763,-0.89573 -12.4472,-1.73542 -18.679521,-2.54667 -4.3579945,-0.57144 -8.7126023,-1.16644 -13.06695896,-1.7649 -2.07919534,-0.27984 -4.15985764,-0.54901 -6.24189754,-0.80683 -2.8836661,-0.35813 -5.7600225,-0.75333 -8.6376265,-1.15693 -0.848538,-0.0957 -1.697076,-0.19147 -2.571327,-0.29011 -5.527271,-0.82611 -8.142137,-2.51041 -11.566418,-6.93501 -5.463779,-8.82857 -0.365379,-26.03388 1.023487,-35.809301 0.211206,-1.513706 0.421991,-3.027471 0.632385,-4.541291 0.440567,-3.161996 0.884588,-6.32348 1.331482,-9.484588 0.557198,-3.941645 1.108226,-7.884118 1.656975,-11.826946 1.28942,-9.262288 2.606648,-18.520388 3.937965,-27.776738 0.336524,-2.34859 0.669637,-4.697644 1.001984,-7.046829 0.542407,-3.829131 1.095108,-7.656648 1.655281,-11.483219 0.207283,-1.426164 0.41133,-2.852802 0.611862,-4.27993 2.41882,-17.1689956 2.41882,-17.1689956 7.822457,-21.9449807 C -6.27044,-0.30350188 -4.1974334,-0.37630795 0,0 Z"
       fill="#EDAC47"
       transform="translate(504.84375,623.02734)"
       id="path8"
       style="fill:#efc774;fill-opacity:1" />
    <path
       d="m 0,0 c 26.692758,24.555145 48.40112,67.674636 50.152344,104.17529 0.09993,3.52603 0.145431,7.04732 0.160156,10.57471 0.0056,1.11222 0.01112,2.22444 0.01685,3.37036 -0.09522,11.00518 -1.72231,21.63651 -4.579346,32.25464 -0.21761,0.80889 -0.43522,1.61777 -0.659424,2.45117 C 39.751036,172.05534 30.760495,190.60672 18,206 c -0.434575,0.53319 -0.86915,1.06638 -1.316895,1.61572 -11.6590014,14.29315 -22.3803818,27.00898 -41.489501,29.79175 -4.119755,0.69087 -5.727958,1.06113 -8.57251,4.30737 -1.590609,3.22338 -2.926698,6.39566 -4.121094,9.78516 -3.010934,8.05356 -6.47457,14.48729 -14.5,18.5 -3.913305,0.62964 -7.483527,0.81188 -11.042969,-1.09375 C -67.210108,265.56543 -69.548259,262.20919 -71,257 c -0.734703,-6.72615 0.165207,-12.27085 2.332031,-18.62891 C -67.66776,234.82064 -67.796312,231.66638 -68,228 c -2.195149,-0.95932 -2.195149,-0.95932 -5,-1 -6.543076,3.75879 -9.418562,10.11129 -12,17 -1.048873,3.9454 -1.890894,7.92781 -2.619629,11.94409 C -88.37373,259.94726 -88.873887,262.35468 -92,265 c -3.500683,1.75034 -7.275003,0.82634 -11,0 -4.79608,-2.81509 -6.93146,-6.55694 -8.5625,-11.8125 -1.88012,-9.40059 -0.746,-20.5705 3.5625,-29.1875 0.22468,-1.53669 0.40797,-3.07968 0.5625,-4.625 0.0838,-0.81727 0.16758,-1.63453 0.25391,-2.47656 0.0606,-0.62649 0.12117,-1.25297 0.18359,-1.89844 -3.50804,-0.32633 -5.43645,-0.35952 -8.44922,1.5625 -3.02772,2.89326 -4.85068,5.97447 -6.67578,9.6875 -0.34764,0.69368 -0.69529,1.38735 -1.05347,2.10205 -2.70987,5.72077 -4.09937,11.33068 -4.89819,17.59424 -0.22567,1.69752 -0.56624,3.3789 -0.92334,5.05371 -3.76876,2.51251 -5.5315,2.53016 -10,2 -5.57988,-3.39169 -8.36979,-7.68864 -10,-14 -1.72168,-13.33901 2.37399,-24.15337 10.25391,-34.78125 0.57621,-0.73219 1.15242,-1.46438 1.74609,-2.21875 0.61617,-0.82371 1.23234,-1.64742 1.86719,-2.49609 9.53657,-11.19587 21.61996,-15.02473 35.579343,-17.29932 C -87.527603,180.16983 -76.901272,176.3112 -67,169 c 0.982266,-0.7077 0.982266,-0.7077 1.984375,-1.42969 13.534543,-10.60006 20.551999,-29.36528 23.601563,-45.71093 0.578867,-5.39549 0.638376,-10.74887 0.664062,-16.17188 0.02063,-1.07701 0.04125,-2.15402 0.0625,-3.26367 C -40.648973,94.472781 -41.26712,84.142371 -47,78 c -2.332104,-0.07572 -4.668059,-0.0806 -7,0 -0.01458,0.566946 -0.02916,1.133892 -0.04419,1.718018 C -55.398585,127.28458 -55.398585,127.28458 -69,143 c -0.66,0.33 -1.32,0.66 -2,1 C -81.759001,115.85368 -71.974396,83.819441 -60.458496,57.454346 -48.886978,31.738519 -31.733461,10.384806 -5.8320312,-1.671875 -3.2281727,-2.1382377 -2.1872393,-1.446812 0,0 Z"
       fill="#FAE8B8"
       transform="translate(729,393)"
       id="path10"
       style="fill:#fef1c7;fill-opacity:1" />
    <path
       d="m 0,0 c 2.7163084,4.8647502 3.80072,9.9073289 4.8320312,15.34375 0.2354453,1.190104 0.2354453,1.190104 0.475647,2.404251 C 5.816701,20.330609 6.3146759,22.915212 6.8125,25.5 7.1672196,27.310922 7.5226147,29.121712 7.8786621,30.932373 8.9290367,36.286342 9.9654284,41.642959 11,47 c 0.280445,1.447458 0.561034,2.894889 0.841797,4.342285 0.983494,5.071328 1.96549,10.142934 2.940918,15.21582 1.693862,8.797816 3.442526,17.583511 5.21167,26.366395 3.368139,16.7261 6.583405,33.47802 9.721008,50.24881 0.859484,4.5866 1.732906,9.17028 2.618668,13.75188 0.57001,2.95013 1.135287,5.90117 1.700088,8.85231 0.265275,1.37948 0.532731,2.75854 0.802551,4.13714 0.371522,1.89971 0.734387,3.8011 1.096894,5.70255 0.310221,1.60271 0.310221,1.60271 0.626709,3.23779 C 37.046044,182.32934 37.270647,185.49797 37,189 c -2.082104,2.72741 -3.766945,3.43063 -7.112061,3.90381 -0.833061,0.12394 -1.666123,0.24789 -2.524429,0.37559 -0.907575,0.12178 -1.815151,0.24357 -2.750229,0.36904 -0.9537,0.13777 -1.907399,0.27554 -2.889999,0.41749 -3.135266,0.44913 -6.272772,0.87957 -9.410782,1.30907 -2.163997,0.30473 -4.3278959,0.61016 -6.4916992,0.91626 -14.1346631,1.98517 -28.2850048,3.85737 -42.4458008,5.64624 -0.8463,0.10746 -1.692599,0.21491 -2.564545,0.32562 -2.386782,0.30114 -4.774197,0.59645 -7.162017,0.88922 -1.037487,0.13071 -1.037487,0.13071 -2.095933,0.26406 -3.873982,0.46558 -7.6517,0.66554 -11.552505,0.5836 0.33,-0.88688 0.66,-1.77375 1,-2.6875 2.517822,-9.11562 1.627167,-17.9111 -2.289062,-26.44531 -2.459647,-4.12188 -5.522818,-7.4356 -8.917969,-10.8086 C -72,162 -72,162 -72,159 c 0.320977,-0.76957 0.641953,-1.53914 0.972656,-2.33203 2.140571,-5.55897 1.94353,-11.78035 0.152344,-17.42578 -2.767919,-5.95467 -6.876197,-12.68472 -13.321533,-15.04737 -1.134415,-0.40968 -1.134415,-0.40968 -2.291748,-0.82763 -3.37716,-1.87111 -4.370447,-3.01564 -5.828614,-6.64429 -1.184336,-4.53669 -1.888332,-9.15879 -2.620605,-13.7854 -0.308655,-1.77187 -0.620515,-3.543177 -0.935303,-5.313965 -0.693858,-3.952664 -1.36003,-7.908869 -2.009033,-11.86914 -1.013086,-6.167432 -2.082735,-12.324322 -3.160934,-18.480637 -1.07184,-6.12181 -2.12367,-12.247044 -3.17234,-18.37286 -0.34672,-2.022003 -0.69561,-4.043626 -1.04463,-6.065235 -0.65785,-3.820521 -1.29585,-7.644222 -1.93167,-11.468476 -0.19848,-1.146303 -0.39697,-2.292607 -0.60147,-3.473648 C -109.49834,17.455059 -109.49834,17.455059 -108,12 c 3.75312,-4.7660798 10.032643,-4.6237061 15.685455,-5.3405457 2.859185,-0.3122209 5.719588,-0.5840567 8.584076,-0.8430481 1.594875,-0.1503293 1.594875,-0.1503293 3.22197,-0.3036956 C -77.068668,5.1902767 -73.628166,4.8758907 -70.1875,4.5625 -67.811187,4.3430594 -65.434885,4.1234947 -63.058594,3.9038086 -56.040042,3.2581527 -49.020269,2.6266736 -42,2 c 1.527751,-0.1368924 1.527751,-0.1368924 3.086365,-0.2765503 5.347526,-0.4781001 10.695695,-0.94685516 16.045562,-1.39804076 1.567911,-0.13269161 3.135646,-0.2674889 4.703187,-0.40447998 2.148186,-0.18654763 4.296926,-0.36381342 6.446136,-0.53811646 1.186582,-0.0990967 2.3731641,-0.19819336 3.5957031,-0.30029297 C -2.5135145,-1.0656998 -2.5135145,-1.0656998 0,0 Z"
       fill="#FAE8B8"
       transform="translate(183,227)"
       id="path12"
       style="fill:#fcebc1;fill-opacity:1" />
    <path
       d="m 0,0 c 15.101524,0.32292567 32.11238,4.668612 43.820312,14.820313 3.832981,4.256254 5.544956,7.54921 5.71875,13.335937 0.03287,0.874629 0.06574,1.749258 0.09961,2.650391 0.06106,1.835816 0.118372,3.67176 0.171875,5.507812 0.03416,0.875918 0.06832,1.751836 0.103515,2.654297 0.02506,0.797849 0.05011,1.595698 0.07593,2.417725 0.329717,2.440327 1.088105,4.116174 2.302979,6.242431 3.189006,0.354334 4.568655,0.320428 7.1875,-1.625 2.055352,-2.693221 2.925659,-5.123251 3.8125,-8.375 1.750328,0.141837 3.500255,0.288635 5.25,0.4375 0.974531,0.08121 1.949062,0.162422 2.953125,0.246094 2.796875,0.316406 2.796875,0.316406 4.496093,0.830078 3.294992,0.69648 6.55919,0.60865 9.910157,0.583984 0.726809,-0.0014 1.453619,-0.0028 2.202453,-0.0043 2.312767,-0.0056 4.625435,-0.01813 6.938172,-0.03087 1.571613,-0.005 3.143228,-0.0096 4.714843,-0.01367 3.845086,-0.011 7.690106,-0.02825 11.535156,-0.04883 -0.50073,4.949619 -1.17509,9.073261 -3.10156,13.695313 -5.49505,13.898461 -7.73511,24.502907 -6.15918,39.298828 0.51082,5.888764 0.52982,11.785907 0.57324,17.693367 0.0434,1.76621 0.0434,1.76621 0.0876,3.56811 0.008,1.09514 0.0169,2.19028 0.0256,3.31861 0.0219,1.46312 0.0219,1.46312 0.0442,2.95581 -0.46997,2.46997 -0.46997,2.46997 -2.13281,4.20361 -12.374809,6.70512 -28.714041,4.47926 -42.245851,4.20483 -12.522816,-0.23104 -23.860849,0.29007 -36.091308,3.06153 -40.460169,6.96349 -87.532271,0.94529 -122,-23 -3.505491,-3.75757 -3.693591,-6.81449 -3.527351,-11.808602 1.98931,-12.038987 10.100039,-20.98949 18.527351,-29.191406 0.945527,-0.94166 0.945527,-0.94166 1.910156,-1.902344 6.428259,-5.972354 14.260933,-9.87091 23.089844,-10.097656 1.164023,-0.06188 2.328047,-0.12375 3.527344,-0.1875 19.074594,-0.745709 34.488779,6.888572 50.992187,15.550781 0.7142212,0.370284 1.4284424,0.740567 2.1643066,1.122071 1.3333367,0.695106 2.66000585,1.403228 3.97802738,2.126953 4.27840782,2.239788 7.53804382,2.807408 12.33813502,2.387695 0.66,-0.33 1.32,-0.66 2,-1 0.702722,-3.669773 0.778652,-5.783956 -1.265625,-8.976562 -7.500049,-8.140297 -17.4681078,-13.741912 -26.722412,-19.654053 -2.011963,-1.369385 -2.011963,-1.369385 -4.011963,-3.369385 0.366816,-2.934532 0.864372,-3.864372 3,-6 6.8342365,0.264652 12.77055242,2.482435 19.1249997,4.875 0.9629297,0.351914 1.9258594,0.703828 2.9179688,1.066406 3.9125235,1.447688 7.6728555,2.914732 11.3984375,4.800782 3.31959,1.63192 5.91055,1.543933 9.558594,1.257812 1.808665,-1.808665 1.344958,-4.280354 1.523437,-6.699219 C 29.716908,38.096818 26.108641,35.204982 22.234375,32.46875 21.119336,31.840977 20.004297,31.213203 18.855469,30.566406 18.253638,30.22408 17.651807,29.881753 17.031738,29.529053 12.682258,27.143436 8.4111202,25.628725 3.6679688,24.191406 -2.178942,22.244621 -2.178942,22.244621 -4.4726562,19.570312 -6.6246996,15.076785 -7.4692427,10.58328 -6.7070312,5.6289062 -4.7311098,2.4683575 -3.696581,0.85880165 0,0 Z"
       fill="#A46A28"
       transform="translate(324.70703,784.37109)"
       id="path14"
       style="fill:#aa7833;fill-opacity:1" />
    <path
       d="M 0,0 C -0.00112793,0.69448242 -0.00225586,1.3889648 -0.00341797,2.1044922 -0.20489308,20.521718 -0.20489308,20.521718 7,37 13.701845,49.011404 18.973031,63.116245 17,77 13.681852,87.228444 7.3356228,96.269856 0,104 c -0.73605469,0.7773 -1.4721094,1.55461 -2.2304688,2.35547 C -15.552942,119.32089 -33.789402,126.5074 -51.6875,130.25 c -1.158223,0.25523 -2.316445,0.51047 -3.509766,0.77344 C -88.506875,138.2112 -133.93149,137.49349 -164,120 c -2.56711,-2.56711 -2.32675,-3.61219 -2.375,-7.1875 0.34493,-16.942392 7.88382,-30.071465 18.375,-42.8125 0.57363,-0.895898 1.14727,-1.791797 1.73828,-2.714844 2.55196,-2.578404 4.00709,-2.924219 7.58789,-2.980224 0.71737,0.02312 1.43473,0.04625 2.17383,0.07007 1.16112,0.02211 1.16112,0.02211 2.3457,0.04468 18.10333,0.714697 36.170569,5.163459 53.453128,10.344238 C -74.519727,76.565505 -68.466152,78.01129 -62,77 c 0.66,-0.66 1.32,-1.32 2,-2 -0.08964,-3.316764 -0.868998,-4.835191 -2.9375,-7.4375 C -76.881811,55.894812 -95.209181,51.533691 -113,50 c 0,-0.66 0,-1.32 0,-2 19.395469,-3.978558 38.159672,-1.329919 57.179688,3.4375 4.288624,0.855349 8.469765,0.827657 12.820312,0.5625 -0.159345,-3.259323 -0.659908,-6.011693 -2,-9 -3.009881,-2.687812 -6.348189,-4.325611 -10,-6 -0.823711,-0.378984 -1.647422,-0.757969 -2.496094,-1.148438 C -69.697593,30.658604 -81.781361,28.935653 -94.9375,28.4375 -96.00291,28.39432 -97.06832,28.35113 -98.166016,28.306641 -100.77723,28.201255 -103.38854,28.099129 -106,28 c -1.29674,-2.53919 -2.58748,-5.081142 -3.875,-7.625 -0.3648,-0.712852 -0.72961,-1.425703 -1.10547,-2.160156 C -116.71854,6.8430321 -116.71854,6.8430321 -115,1 c 7.12998,-0.27020698 13.85053,0.777459 20.875,1.9375 26.619018,4.334397 53.638178,5.0346806 79.939697,-1.6162109 C -9.3293067,0.12634924 -5.0041132,-0.16867797 0,0 Z"
       fill="#A46A28"
       transform="translate(698,832)"
       id="path16"
       style="fill:#aa7833;fill-opacity:1" />
    <path
       d="M 0,0 C 0.76441406,-0.02835937 1.5288281,-0.05671875 2.3164063,-0.0859375 4.4375,0.375 4.4375,0.375 6.0605469,1.8146973 8.1706788,5.7382705 7.7284378,9.4221832 7.5898437,13.800781 c -0.031296,1.919748 -0.061868,3.839508 -0.091797,5.759278 -0.020706,1.0015 -0.041411,2.003001 -0.062744,3.034851 C 7.1553428,36.952492 6.9325412,50.75838 10.002197,64.840576 13.0431,79.107511 13.990859,98.696684 7.8125,112.3125 c -1.477782,3.29142 -1.63579,5.49837 -1.375,9.0625 2.2487575,0.8685 2.2487575,0.8685 5,1 3.447189,-2.16451 5.507333,-4.20048 7,-8 3.992016,0.65673 7.450247,1.90345 11.1875,3.4375 19.624563,7.56136 40.573059,6.19906 59.820312,-2.10547 2.224114,-1.02896 4.43425,-2.08935 6.621094,-3.19531 C 98.4375,111.375 98.4375,111.375 100.4375,111.375 98.656794,116.84475 96.766491,122.26611 94.800781,127.67188 84.921987,154.93011 76.145299,182.69459 71.4375,211.375 36.321705,212.00962 3.3714204,197.44334 -25.375,178.3125 c -0.621409,-0.40775 -1.242817,-0.81549 -1.883057,-1.2356 -2.947431,-1.96951 -5.549274,-3.92608 -8.175537,-6.33081 -8.565462,-7.4265 -16.127713,-7.13983 -27.133789,-6.56689 -10.955407,0.55966 -20.338228,-1.38522 -30.057617,-6.4917 -0.669023,-0.34378 -1.338047,-0.68755 -2.027344,-1.04175 -5.957976,-3.14235 -12.020176,-6.59834 -16.910156,-11.27075 0,-3.44827 0.99062,-4.40715 2.91724,-7.11548 1.32046,-2.29824 1.99391,-4.55258 2.71948,-7.09936 0.2587,-0.89711 0.5174,-1.79422 0.78393,-2.71851 0.19119,-0.68199 0.38237,-1.36399 0.57935,-2.06665 0.89605,-0.11489 0.89605,-0.11489 1.81021,-0.2321 34.498289,-4.3411 34.498289,-4.3411 68.87729,-9.5179 1.709539,-0.2788 1.709539,-0.2788 3.453613,-0.56323 13.718276,-2.13118 13.718276,-2.13118 24.858887,-9.68677 2.8149559,-5.38748 3.5154428,-9.715262 3.4375,-15.75 -0.012447,-1.297562 -0.012447,-1.297562 -0.025146,-2.621338 -0.3778181,-15.272726 -3.3794781,-30.333389 -6.2365723,-45.300537 -0.1581568,-0.828993 -0.3163137,-1.657986 -0.4792633,-2.5121 -0.7876687,-4.1124 -1.5881404,-8.221725 -2.4096524,-12.3275 -0.151006,-0.768825 -0.302013,-1.53765 -0.457596,-2.329773 -0.281849,-1.43479 -0.569446,-2.868469 -0.864227,-4.300659 C -13.520265,16.494315 -13.859035,12.176519 -13.5625,7.375 -9.8457396,2.6258061 -6.0495356,0.10236101 0,0 Z"
       fill="#FAE8B8"
       transform="translate(241.5625,332.625)"
       id="path18"
       style="fill:#fef1c7;fill-opacity:1" />
    <path
       d="M 0,0 C 7.1330685,2.1795487 13.581886,5.1186546 20.25,8.4375 33.176055,14.697269 44.534289,18.037575 58.754639,19.7146 67.272813,20.817003 74.193259,23.506984 82,27 93.578896,31.311722 108.48099,29.733332 119.65625,24.835937 122,24 122,24 124.12891,24.109375 c 6.51014,3.098774 9.41977,14.253607 11.71484,20.542969 5.77323,16.71505 9.36989,33.128883 9.21875,50.847656 -0.005,1.013203 -0.009,2.026406 -0.0137,3.070312 C 145.0371,101.04694 145.0207,103.52344 145,106 c -6,-2 -6,-2 -12,-4 -0.004,-0.67466 -0.008,-1.34933 -0.0125,-2.044434 -0.0333,-3.111028 -0.10395,-6.220182 -0.17505,-9.330566 -0.006,-1.060898 -0.0116,-2.121797 -0.0176,-3.214844 C 132.58976,79.978646 131.22289,74.208511 127,68 c -5.18571,-4.413371 -10.93388,-6.540756 -17.79297,-6.304688 -7.53787,1.040626 -12.838256,4.187891 -17.734374,9.914063 -5.485669,8.905118 -4.6516,17.366507 -3.958496,27.484619 0.733371,11.348026 0.733371,11.348026 -2.421387,15.287846 C 82.807474,116.15143 80.50649,117.56936 78,119 61.29276,133.0132 51.37827,156.2583 49.316406,177.5 47.231339,203.92274 50.243874,228.30707 67.09375,249.65234 77.519507,261.85856 91.846157,270.59606 108,272 c 3.33502,0.10922 6.66369,0.0958 10,0.0625 0.87012,-0.005 1.74023,-0.009 2.63672,-0.0137 2.12112,-0.0117 4.24221,-0.0296 6.36328,-0.0488 -2.27958,10.21551 -7.46338,16.85114 -16,23 -5.53339,3.19793 -10.65785,4.53875 -17,5 -0.01418,-0.94359 -0.02836,-1.88719 -0.04297,-2.85938 -0.388026,-10.44526 -1.606028,-20.41192 -9.51953,-28.07812 -9.422278,-6.9955 -20.22621,-9.09972 -31.609375,-10.73828 -1.417951,-0.21571 -2.835693,-0.43279 -4.253235,-0.65117 -3.686994,-0.5643 -7.376472,-1.11021 -11.066833,-1.65199 -3.78305,-0.55883 -7.563381,-1.13548 -11.343995,-1.71051 C 18.778554,253.18983 11.390322,252.08858 4,251 3.8793484,247.98446 3.791824,244.97383 3.7226563,241.95703 3.6854748,241.11209 3.6482935,240.26715 3.6099854,239.39661 3.5047572,233.26225 4.6880325,229.53727 8.4375,224.6875 8.9298413,224.04667 9.4221826,223.40585 9.9294434,222.74561 10.353625,222.2701 10.777808,221.7946 11.214844,221.30469 37.945283,190.13907 48.705279,146.17776 46,106 41.769421,67.446415 25.262895,32.594992 1.1796875,2.5742188 0,1 0,1 0,0 Z"
       fill="#A46B28"
       transform="translate(754,387)"
       id="path20"
       style="fill:#ae8e4e;fill-opacity:1" />
    <path
       d="M 0,0 C 0.82886719,0.46277344 1.6577344,0.92554688 2.5117188,1.4023437 16.258363,10.012417 22.670679,24.362827 26.375977,39.587891 27.509969,45.788468 27.486806,51.96306 27.4375,58.25 27.4338,58.933535 27.4301,59.617071 27.42627,60.32132 27.268258,80.788274 22.007108,99.515078 8,115 c -0.5414062,0.62133 -1.0828125,1.24266 -1.640625,1.88281 -7.7280818,8.342 -17.621518,13.43295 -28.9375,14.4336 C -36.46711,131.75219 -45.508955,127.77761 -55.625,118.625 -61.313193,112.33805 -65.697918,105.83002 -69,98 -69.593613,96.613613 -69.593613,96.613613 -70.199219,95.199219 -77.379489,74.968494 -73.978016,51.373678 -65.3125,32.25 -61.721386,24.77612 -57.393567,18.322832 -52,12 c 0.612305,-0.747656 1.224609,-1.495313 1.855469,-2.265625 C -38.042604,-3.7867549 -16.133257,-9.2072253 0,0 Z"
       fill="#A98242"
       transform="translate(881,264)"
       id="path24"
       style="fill:#ae8e4e;fill-opacity:1" />
    <path
       d="m 0,0 c 0.92261627,-0.0033284 1.8452325,-0.0066568 2.7958069,-0.01008606 1.9481049,-0.0050405 3.8962184,-0.0074092 5.8443298,-0.0072479 2.9182843,-0.0021653 5.8361773,-0.02029305 8.7543943,-0.03930664 8.944151,-0.02768573 17.801105,0.12535593 26.699219,1.0917968 0.697977,0.075113 1.395954,0.1502262 2.115082,0.2276154 10.228295,1.2573595 20.384488,3.7176076 28.01773,10.9051974 1.955183,3.910366 1.227012,8.100685 0.1875,12.21875 -6.221691,17.191515 -13.657144,32.516072 -30.703125,41.039062 -16.208816,6.881102 -33.9875565,6.411648 -50.4843745,0.742188 -3.9156625,-1.689382 -7.4600725,-3.627628 -10.9999995,-6 -0.885586,-0.583946 -0.885586,-0.583946 -1.789063,-1.179688 -8.249796,-6.134463 -12.460227,-15.978746 -14.210937,-25.820312 -0.301202,-3.502419 -0.40759,-6.985488 -0.4375,-10.5 -0.01015,-0.860852 -0.0203,-1.721704 -0.03076,-2.608643 0.06674,-4.784362 0.39764,-8.00091 3.468262,-11.8913572 C -22.400295,0.03405851 -11.00426,0.01416208 0,0 Z"
       fill="#A36A28"
       transform="translate(552.77344,52.832031)"
       id="path26"
       style="fill:#b98138;fill-opacity:1" />
    <path
       d="M 0,0 C 0.99,0.99 0.99,0.99 2,2 1.4872754,2.2004492 0.97455078,2.4008984 0.44628906,2.6074219 -10.186653,6.8072674 -19.833444,11.073547 -29,18 c -0.787617,0.567187 -1.575234,1.134375 -2.386719,1.71875 C -44.603582,29.680551 -56.188468,42.010483 -65,56 c -0.436187,0.678047 -0.872373,1.356094 -1.321777,2.054687 C -78.598143,77.341767 -86.642784,98.832051 -92,121 c -0.17644,0.71495 -0.352881,1.42989 -0.534668,2.1665 C -97.97304,146.03569 -95.437165,168.95277 -88,191 c -7.948191,3.20716 -15.51739,3.6759 -24,4 -14.63845,-27.05646 -14.50703,-55.35202 -8,-85 0.25693,-1.18698 0.25693,-1.18698 0.51904,-2.39795 C -111.11993,70.519561 -88.481293,28.096016 -55.9375,6.875 -39.734616,-3.2097636 -18.18883,-7.0806518 0,0 Z"
       fill="#A98242"
       transform="translate(728,362)"
       id="path28"
       style="fill:#ae8e4e;fill-opacity:1" />
    <path
       d="M 0,0 C 1,1 1,1 1.4375,4.3125 1.1944227,17.949135 -11.972335,31.702091 -21.199219,40.613281 -33.869544,51.410448 -47.041477,57.145259 -63.6875,57.3125 c -1.414424,0.04351 -1.414424,0.04351 -2.857422,0.08789 C -74.618032,57.472521 -81.271019,55.675139 -87.875,50.9375 -90.967197,46.662992 -92.474046,42.019191 -94,37 c -0.195937,-0.607148 -0.391875,-1.214297 -0.59375,-1.839844 -1.932942,-10.278045 -1.499961,-23.971544 3.730469,-33.1562497 4.59637,-6.0463296 11.129348,-6.5654086 18.1875,-7.5625 C -49.427486,-8.3503657 -21.544731,-10.845647 0,0 Z"
       fill="#A36A27"
       transform="translate(453,55)"
       id="path30"
       style="fill:#b98138;fill-opacity:1" />
    <path
       d="M 0,0 C 5.7871273,5.6424491 8.5949135,10.298551 8.7924805,18.542969 8.8626073,26.930827 8.4075724,33.829298 4.5,41.4375 4.0758984,42.274102 3.6517969,43.110703 3.2148438,43.972656 -1.8266346,53.058552 -10.002902,63.688951 -19.5,68.4375 c -6.313839,0.488288 -10.282052,-0.529047 -15.8125,-3.5 -0.693596,-0.362388 -1.387192,-0.724775 -2.101807,-1.098145 C -50.500408,56.838087 -63.372927,47.35215 -68.074219,32.640625 -69.328707,26.149513 -69.630857,18.916686 -66.875,12.875 -60.468139,6.2995375 -54.831017,2.4310938 -45.5625,2 c 4.602906,0.1205692 8.017051,1.4170403 12.054688,3.5625 2.253933,1.141339 2.253933,1.141339 6.007812,0.875 1.842939,-1.2189162 1.842939,-1.2189162 3.5,-2.875 C -17.322376,-2.7205367 -8.4603475,-3.7769408 0,0 Z"
       fill="#52340F"
       transform="translate(174.5,291.5625)"
       id="path32"
       style="fill:#543f21;fill-opacity:1" />
    <path
       d="M 0,0 C 6.9578484,4.3931389 10.973087,10.891177 13.5625,18.605469 16.764389,34.414796 13.843238,51.714125 5.71875,65.621094 0.98393357,72.243137 -4.8063934,77.116999 -12.964844,78.574219 -19.590072,78.922101 -24.54358,78.093987 -29.816406,73.953125 -38.106554,65.579239 -40.785923,54.677771 -41.1875,43.1875 -40.810915,28.955743 -36.069732,15.514643 -26.3125,5 -18.632776,-1.9800156 -9.7185864,-4.8184588 0,0 Z"
       fill="#52350f"
       transform="translate(874.75,290)"
       id="path36" />
    <path
       d="m 0,0 c 7.4113616,-0.08486999 14.743786,0.14527039 22.136719,0.65625 1.50818,0.0998822 1.50818,0.0998822 3.046829,0.20178223 C 28.35177,1.0686271 31.519627,1.2842226 34.6875,1.5 36.853493,1.6448641 39.019509,1.7893983 41.185547,1.9335937 46.457292,2.2852546 51.728749,2.6410065 57,3 55.463789,7.0016373 53.591388,10.339204 51.25,13.9375 39.68761,32.264783 35.118522,52.282109 33.875,73.625 33.788386,75.024778 33.70115,76.424519 33.613281,77.824219 33.402768,81.215821 33.198497,84.607677 33,88 29.180684,87.466568 25.43076,86.930364 21.6875,86 16.827972,84.877282 11.9654,84.393915 7,84 6.0010417,80.530186 5.6657381,77.127697 5.3515625,73.535156 5.294456,72.885408 5.2373495,72.23566 5.1785126,71.566223 4.9899192,69.398646 4.8070715,67.230634 4.625,65.0625 4.5613022,64.316324 4.4976044,63.570148 4.4319763,62.801361 2.6531022,41.889732 1.3342823,20.943798 0,0 Z"
       fill="#A98242"
       transform="translate(704,253)"
       id="path40"
       style="fill:#ae8e4e;fill-opacity:1" />
    <path
       d="m 0,0 c -1.8109777,2.7526861 -3.6177662,5.4834167 -5.578125,8.1328125 -13.693773,18.6901495 -19.797741,39.9276505 -19.79248,62.9172365 -0.0044,2.117612 -0.04075,4.233098 -0.07861,6.350342 C -25.569296,91.990511 -21.948881,104.66478 -16,118 c 0.33,0.99 0.66,1.98 1,3 -18.228415,-1.23582 -18.228415,-1.23582 -23.988281,-6.98437 C -40.506628,111.74007 -41.762802,109.43824 -43,107 c -0.906235,-1.40263 -1.822466,-2.79886 -2.75,-4.1875 C -54.157857,89.176681 -52.978149,66.982411 -49.872314,51.847656 -49.057385,48.512725 -48.089607,45.254914 -47,42 c 0.224941,-0.686265 0.449883,-1.372529 0.681641,-2.07959 C -41.911475,26.745284 -36.059659,15.581538 -27,5 -26.492109,4.2691016 -25.984219,3.5382031 -25.460937,2.7851563 -19.299792,-5.1927367 -8.7087896,-1.8685526 0,0 Z"
       fill="#A98242"
       transform="translate(811,261)"
       id="path42"
       style="fill:#ae8e4e;fill-opacity:1" />
    <path
       d="M 0,0 C 8.6505122,8.2179866 11.620113,15.783124 11.974854,27.755859 12.082024,40.782801 11.03219,52.607447 1.5,62.375 -4.177327,67.090068 -9.3634134,67.730321 -16.554687,67.652344 -21.914109,67.147677 -24.423183,64.426179 -28.125,60.8125 -34.112647,53.10913 -35.145498,43.808123 -35,34.375 -35.01547,33.372109 -35.03094,32.369219 -35.04687,31.335937 -34.992343,20.784089 -31.955632,11.05656 -24.5,3.375 -17.754621,-2.9536169 -8.3320349,-3.8684448 0,0 Z"
       fill="#52340F"
       transform="translate(508.5,170.625)"
       id="path44"
       style="fill:#543f21;fill-opacity:1" />
    <path
       d="m 0,0 c 7.7632142,4.1158966 7.7632142,4.1158966 10.082031,7.6445312 0.373394,2.8004568 0.233932,5.1460308 0,7.9999998 -1.5941494,1.59415 -3.2403425,1.170324 -5.4453123,1.1875 -5.35511981,-0.06066 -10.2352711,-0.952447 -15.4296877,-2.1875 -1.994615,-0.4578 -3.989421,-0.914769 -5.984375,-1.371093 -1.109238,-0.256363 -2.218476,-0.512725 -3.361328,-0.776856 -3.550255,-0.800413 -7.105833,-1.563451 -10.667328,-2.311676 -3.266388,-0.6867598 -6.530322,-1.3848142 -9.794159,-2.0835876 -1.621248,-0.3446414 -3.243444,-0.6848536 -4.866577,-1.0205079 -2.30185,-0.4774313 -4.59927,-0.9725162 -6.896545,-1.4714355 -0.688702,-0.1384987 -1.377404,-0.2769974 -2.086975,-0.419693 -4.384798,-0.9752451 -7.28101,-2.3618362 -10.467713,-5.54515075 -0.625,-3.00000005 -0.625,-3.00000005 0,-5.99999995 C -50.540905,-20.732532 -15.592226,-7.2429753 0,0 Z"
       fill="#51330F"
       transform="translate(609.91797,255.35547)"
       id="path58"
       style="fill:#543f21;fill-opacity:1" />
    <path
       d="m 0,0 c 19.825144,-0.15191681 37.889571,9.8676705 52.496094,22.601562 4.309856,4.646436 8.58219,10.323277 9.3125,16.75 -0.3125,2.25 -0.3125,2.25 -2.3125,4.25 -6.415382,0.857502 -9.539105,-1.173596 -14.5,-4.75 -6.868228,-4.699069 -13.914035,-8.754095 -21.3125,-12.5625 C 22.697622,25.780769 21.71165,25.272476 20.695801,24.748779 16.663658,22.685846 12.622294,20.647537 8.5390625,18.6875 -3.1521977,13.065316 -3.1521977,13.065316 -5.5039062,7.0390625 -5.5039062,3.0523506 -3.8947014,0.93570048 0,0 Z"
       fill="#51330F"
       transform="translate(551.50391,277.39844)"
       id="path60"
       style="fill:#543f21;fill-opacity:1" />
    <path
       d="m 0,0 c 9.386107,0.60167036 18.651619,1.6755164 27.960937,2.9960938 1.402752,0.1959224 2.805554,0.391476 4.208405,0.5866851 3.66066,0.5103132 7.320651,1.0252664 10.980499,1.5413666 4.415133,0.6217542 8.831029,1.2380577 13.246821,1.8551111 3.442552,0.4811496 6.884948,0.9633325 10.327062,1.447608 C 75.477554,9.6569381 84.236314,10.842583 93,12 c 0,0.66 0,1.32 0,2 -2.457342,0.484761 -4.915699,0.962859 -7.375,1.4375 -0.679336,0.134707 -1.358672,0.269414 -2.058594,0.408203 C 72.373523,17.990134 61.23763,18.235993 49.875,18.25 49.085298,18.252 48.295596,18.254 47.481964,18.2561 16.825205,18.275068 16.825205,18.275068 4,14 2.8320313,11.347656 2.8320313,11.347656 1.8125,8.0625 1.4683203,6.9809766 1.1241406,5.8994531 0.76953125,4.7851562 0,2 0,2 0,0 Z"
       fill="#f8e8bb"
       transform="translate(588,801)"
       id="path64" />
    <g
       id="g868"
       style="fill:#efc774;fill-opacity:1">
      <path
         id="path46"
         d="m 566.35742,675.5 c -5.56905,-0.0538 -10.77169,2.27406 -15.36133,6.42578 -8.51946,8.85291 -10.1192,20.43408 -10.29297,32.23828 l -0.0156,3.27344 c -0.0158,2.99495 0.009,5.98764 0.0371,8.98242 0.66159,6.21543 3.94181,10.34071 8.27539,14.58008 4.55923,3.36514 4.55923,3.36514 15.29297,3.20312 5.52817,-0.41481 9.70028,-2.90899 13.28906,-7.01171 C 587.33547,723.73413 587.6971,707.05253 586,691 c -1.97366,-5.92424 -5.23052,-10.24664 -10.625,-13.375 -3.0832,-1.41533 -6.10046,-2.09684 -9.01758,-2.125 z m -0.48242,14.25 c 3.125,0.25 3.125,0.25 4.9375,1.5625 3.81347,5.41914 2.58033,13.059 1.65625,19.24219 C 571.13936,717.2739 569.60176,723.14714 566,729 c -3,2 -3,2 -5.5,1.875 -3.21131,-1.12396 -3.87157,-1.87868 -5.5,-4.875 -0.44788,-3.04724 -0.42616,-6.05002 -0.375,-9.125 l 0.0273,-2.58398 c 0.17306,-7.4364 1.49828,-23.69542 11.22266,-24.54102 z"
         style="fill:#efc774;fill-opacity:1" />
      <path
         id="path48"
         d="m 671,693 c -2,2 -2,2.00049 -3.16992,4.53711 l -1.29883,3.23633 c -0.75038,1.86614 -1.50118,3.73168 -2.24219,5.60156 l -0.78906,2 c -3.76251,9.4753 -7.45846,18.97538 -10.96484,28.54883 l -1.34766,3.70117 -1.32812,3.58789 -1.19141,3.32617 C 647.1924,751.61679 646.90795,752.63179 648,757 l 12,1 4,-10 h 11 l -0.0703,2.55469 -0.0547,3.32031 -0.0703,3.30469 C 675,760 675,760 677,762 c 2.82031,0.19531 2.82031,0.19531 12,0 0.0529,-12.93514 -0.0319,-25.86048 -0.30664,-38.79297 -0.0669,-3.01965 -0.13318,-6.03876 -0.19141,-9.05859 -0.0389,-2.02448 -0.0796,-4.04983 -0.12304,-6.07422 l -0.0625,-2.8711 C 688.26011,702.12693 688.16136,699.07367 688,696 c -1.14816,-1.14816 -1.14816,-1.14816 -6.67773,-1.89648 L 679.0625,693.8125 C 676.34679,693.41847 673.74984,693.15554 671,693 Z m 4,17 h 1 c 0.16312,8.71783 -0.34345,17.31239 -1,26 l -7,-1 c 2.00835,-8.4442 4.37174,-16.72831 7,-25 z"
         style="fill:#efc774;fill-opacity:1" />
      <path
         d="m 0,0 c 3.4591783,2.0037923 6.2880618,4.0616482 8.6875,7.3125 0.1875,3.125 0.1875,3.125 -1,6 -2.75,2 -2.75,2 -6,3 -2.4375,-0.75 -2.4375,-0.75 -5,-2 -3.4597586,-1.077671 -3.4597586,-1.077671 -7,-1 -5.492597,3.620121 -6.542229,8.942371 -8,15 -0.172734,0.627693 -0.345469,1.255386 -0.523437,1.9021 -0.793528,3.493229 -0.702354,7.033106 -0.726563,10.5979 -0.02062,0.759258 -0.04125,1.518516 -0.0625,2.300781 -0.02303,3.287974 0.08847,5.760693 1.597656,8.714844 1.803446,1.861957 1.803446,1.861957 5.402344,1.734375 1.093125,-0.0825 2.18625,-0.165 3.3125,-0.25 0.66,-3.96 1.32,-7.92 2,-12 -1.98,0 -3.96,0 -6,0 -1,-1 -1,-1 -1.1875,-4.3125 0.175265,-3.446875 0.574031,-4.798562 2.1875,-7.6875 6.6675363,-0.250555 12.54950724,0.317416 19,2 C 6.8269791,37.874659 6.3565275,44.077582 5.375,50.5625 5.2570508,51.433906 5.1391016,52.305312 5.0175781,53.203125 4.327876,57.843582 3.6317519,61.507963 0.6875,65.3125 c -5.2206648,3.784982 -10.805416,3.757116 -17,3 -6.638679,-1.742653 -11.449222,-5.104798 -15,-11 -6.242244,-13.004675 -3.298253,-28.819162 1,-42 2.679565,-6.9039336 6.947506,-11.745527 13,-16 C -11.560824,-2.6047255 -5.5325564,-2.6085057 0,0 Z"
         fill="#50330E"
         transform="translate(756.3125,703.6875)"
         id="path50"
         style="fill:#efc774;fill-opacity:1" />
      <path
         d="M 0,0 C 0.89589844,0.10699219 1.7917969,0.21398437 2.7148438,0.32421875 4.0625586,0.47310547 4.0625586,0.47310547 5.4375,0.625 7.6523437,1.0117187 7.6523437,1.0117187 8.6523438,2.0117188 8.474071,10.088845 7.1005516,18.081726 5.6523437,26.011719 c 0.6754688,-1.085391 1.3509375,-2.170782 2.046875,-3.289063 0.900993,-1.445343 1.8020374,-2.890653 2.7031253,-4.335937 0.443437,-0.712852 0.886875,-1.425703 1.34375,-2.160157 0.880198,-1.410905 1.766211,-2.8182 2.658203,-4.221679 0.790878,-1.263053 1.558491,-2.5412288 2.292969,-3.8378908 1.557125,-2.6427267 2.361841,-3.9955559 5.392578,-4.8115234 1.268437,0.077344 1.268437,0.077344 2.5625,0.15625 1.268437,0.046406 1.268437,0.046406 2.5625,0.09375 2.494389,0.4157316 4.255479,1.1536085 6.4375,2.4062499 -0.621744,3.6878754 -2.215407,5.9642773 -4.4375,8.9375003 -0.696094,0.992578 -1.392188,1.985156 -2.109375,3.007812 -1.893657,2.358025 -3.291429,3.806403 -5.59375,5.609375 -3.547486,3.046501 -6.212629,5.65394 -6.859375,10.445313 1.713191,9.316817 5.803902,18.083706 9.718017,26.657715 1.334617,3.47951 1.89559,6.646173 2.281983,10.342285 -2.969467,0.989822 -4.84416,1.178791 -7.9375,1.0625 -0.854649,-0.009 -1.709297,-0.01805 -2.589844,-0.02734 C 12.702967,70.61427 12.03793,68.726874 10.570068,65.415771 8.9521349,61.177466 7.6447616,56.872859 6.4023437,52.511719 c -0.268125,-0.917813 -0.53625,-1.835625 -0.8125,-2.78125 -0.6526629,-2.237702 -1.298328,-4.477165 -1.9374999,-6.71875 -1.2148974,5.85983 -2.3111998,11.695883 -3.12500005,17.625 -0.16757812,1.20914 -0.33515625,2.418281 -0.5078125,3.664062 -0.12117187,0.89461 -0.24234375,1.789219 -0.3671875,2.710938 -1.97909395,0.02687 -3.95828975,0.04633 -5.93749995,0.0625 -1.1021485,0.0116 -2.2042969,0.0232 -3.3398438,0.03516 -2.722656,-0.09766 -2.722656,-0.09766 -3.722656,-1.097656 0.14802,-10.183595 1.793994,-20.27461 3.3749997,-30.3125 0.2265013,-1.459038 0.4528184,-2.918104 0.6789551,-4.377198 0.6389855,-4.105005 1.2913852,-8.207768 1.946045,-12.310302 0.1632275,-1.03544 0.326455,-2.070879 0.4946289,-3.137696 0.3868831,-2.435216 0.7854155,-4.867958 1.1928711,-7.2998042 0.2101171,-1.25684 0.4202343,-2.5136759 0.6367187,-3.8085978 C -4.1961963,1.3944976 -3.6295836,0.01811772 0,0 Z"
         fill="#50330E"
         transform="translate(776.34766,707.98828)"
         id="path52"
         style="fill:#efc774;fill-opacity:1" />
      <path
         d="m 0,0 c 2.6780763,1.4172302 4.4797723,2.5660402 6.140625,5.1328125 0.6179316,3.7075899 0.5019725,5.2935205 -1.6875,8.3750005 -2.754466,1.93557 -4.01474568,2.132346 -7.3125,1.625 -0.99,-0.66 -1.98,-1.32 -3,-2 -2.251225,-0.278315 -2.251225,-0.278315 -4.625,-0.1875 -0.796641,0.0064 -1.593281,0.01289 -2.414063,0.01953 -1.963834,-0.04386 -1.963834,-0.04386 -2.960937,1.167969 -0.501694,2.830734 -0.501694,2.830734 0,5.999999 1.614591,1.991329 3.052521,3.371357 5,5 1.7160934,1.470157 3.4237709,2.950169 5.125,4.4375 0.8482031,0.720586 1.6964063,1.441172 2.5703125,2.183594 3.93492175,4.06164 5.7338164,8.040927 5.7421875,13.691406 -0.1952185,6.238504 -1.6737286,11.59858 -5.8984375,16.320313 -5.1280985,4.555417 -10.0550255,4.714001 -16.6523435,4.652344 -6.627,-0.654629 -11.99894,-3.870389 -16.886719,-8.285157 0.453361,-4.873628 1.708916,-7.390423 5,-11 2.623147,0.504452 4.396053,1.22503 6.75,2.5625 4.130307,1.826867 6.770089,1.741223 11.25,1.4375 1.258648,-1.078962 1.258648,-1.078962 1.5625,-3.5625 -1.04676,-6.396867 -6.896024,-10.167669 -11.8125,-14 -4.196562,-3.719679 -6.427435,-6.773623 -7.097656,-12.308593 -0.2207,-7.686108 0.930318,-12.4612206 5.160156,-18.8789065 C -18.591072,-5.286013 -9.0634517,-4.0757031 0,0 Z"
         fill="#51330E"
         transform="translate(534.85937,671.86719)"
         id="path54"
         style="fill:#efc774;fill-opacity:1" />
      <path
         d="m 0,0 c 4.2722211,2.4511329 6.820243,5.2503102 8.625,9.875 0,2.4375 0,2.4375 -1.5625,4.75 -3.1240753,2.162821 -4.7077888,2.309119 -8.4375,1.6875 -0.639375,-0.680625 -1.27875,-1.36125 -1.9375,-2.0625 -2.0183085,-2.304309 -2.0183085,-2.304309 -5.5625,-2.1875 -3.721946,1.329266 -4.092416,1.546272 -5.8125,4.8125 -3.052627,6.864957 -4.033172,13.701185 -4,21.125 -0.01611,0.732832 -0.03223,1.465664 -0.04883,2.220703 -0.0041,4.50801 0.417007,7.595416 3.361328,11.091797 4.469782,0.506013 8.6028755,-0.142024 13,-1 2.10538339,2.829109 3.8020598,5.168651 4.625,8.625 -0.625,2.375 -0.625,2.375 -3.375,4.625 -6.1865711,3.331231 -11.919689,3.565211 -18.75,1.75 -5.213146,-1.889208 -8.648161,-5.2917 -11.5,-10 -4.777496,-12.830534 -3.20552,-29.548525 2,-42 2.952821,-6.2291252 5.78467,-10.8232757 12,-14 C -11.59787,-2.6132099 -5.5650706,-2.5893762 0,0 Z"
         fill="#50330E"
         transform="translate(623.375,685.6875)"
         id="path56"
         style="fill:#efc774;fill-opacity:1" />
      <path
         d="M 0,0 C 1.9795644,0.14033111 3.9586514,0.2874123 5.9375,0.4375 7.0396484,0.51871094 8.1417969,0.59992187 9.2773438,0.68359375 12,1 12,1 13,2 13.077123,10.699494 11.287281,19.182207 9.592041,27.667725 7.6704182,37.391083 6.3134688,47.178836 5,57 c 0.8546484,0.06059 1.7092969,0.121172 2.5898437,0.183594 1.1047266,0.08379 2.2094532,0.167578 3.3476563,0.253906 1.102148,0.08121 2.204297,0.162422 3.339844,0.246094 C 17,58 17,58 18,59 c -0.06379,1.67013 -0.200281,3.33781 -0.375,5 -0.09023,0.9075 -0.180469,1.815 -0.273438,2.75 C 17,69 17,69 16,70 7.5704939,69.830103 -0.72325595,68.505785 -9,67 -9.6607824,55.727269 -7.8794856,44.904886 -6.1191406,33.80542 c 0.4955726,-3.126956 0.9765,-6.255901 1.4550781,-9.385498 0.3116536,-2.011199 0.624125,-4.022272 0.9375,-6.033203 0.1427939,-0.924122 0.2855878,-1.848244 0.4327087,-2.80037 C -2.4516703,10.302089 -1.3767944,5.1714567 0,0 Z"
         fill="#51330E"
         transform="translate(702,697)"
         id="path62"
         style="fill:#efc774;fill-opacity:1" />
      <path
         d="M 0,0 C 1.4162322,-0.05447047 2.8330819,-0.09300508 4.25,-0.125 5.0389062,-0.14820313 5.8278125,-0.17140625 6.640625,-0.1953125 9.2073194,0.0171622 10.791607,0.71345895 13,2 13.164927,7.6582477 12.614629,12.720632 11.375,18.25 9.1877607,28.532069 7.4591636,38.880278 5.75,49.25 5.6135809,50.076329 5.4771619,50.902659 5.3366089,51.754028 4.55338,56.501978 3.7747374,61.250658 3,66 c -1.6040733,0.02709 -3.2082785,0.04644 -4.8125,0.0625 -0.8933203,0.0116 -1.7866406,0.0232 -2.7070312,0.03516 C -7,66 -7,66 -10,65 -10.199619,58.489334 -9.4484683,52.415473 -8.375,46 -8.1163818,44.416508 -8.1163818,44.416508 -7.8525391,42.801025 -5.4746942,28.491715 -2.7321247,14.245101 0,0 Z"
         fill="#50330E"
         transform="translate(639,689)"
         id="path66"
         style="fill:#efc774;fill-opacity:1" />
    </g>
    <path
       d="M 0,0 C 0.69544922,-0.020625 1.3908984,-0.04125 2.1074219,-0.0625 8.2443511,-0.10834074 12.941013,1.1905512 17.6875,5.3125 c 2.685114,3.2014818 3.033252,5.710515 2.964844,9.90625 -0.5948,3.555124 -2.535936,4.943233 -5.339844,7.03125 -6.6378694,4.184744 -14.37625047,3.923055 -22,3 -4.136765,-1.822491 -6.264759,-4.905441 -8,-9 -0.655286,-3.793761 -0.863511,-7.4527415 1.050781,-10.8828125 C -9.4324519,0.23277306 -6.2836562,0.04532845 0,0 Z"
       fill="#F9E8BA"
       transform="translate(83.6875,404.75)"
       id="path68"
       style="fill:#fef1c7;fill-opacity:1" />
    <path
       d="M 0,0 C 0.93779297,-0.03738281 1.8755859,-0.07476562 2.8417969,-0.11328125 7.3257365,-0.17015998 10.67052,-0.17461848 14.300781,2.65625 16.6875,5.375 16.6875,5.375 17.5625,9.25 c -0.285799,3.772545 -1.761193,5.47187 -4.5,8 -6.3516642,4.874791 -12.4739927,6.10167 -20.375,5.125 -4.639268,-1.3909 -7.143128,-3.708502 -9.4375,-7.9375 C -18.085739,11.307225 -19.162791,8.7761655 -18.3125,5.375 -12.689048,-0.09646689 -7.4066292,0.11062175 0,0 Z"
       fill="#F9E8BA"
       transform="translate(99.3125,447.625)"
       id="path72"
       style="fill:#fef1c7;fill-opacity:1" />
    <path
       d="M 0,0 C 4.4685569,4.6281482 4.2845417,9.7024438 4.2109375,15.796875 3.6551365,24.236817 1.0353826,30.101341 -5,36 c -2.3125,-0.125 -2.3125,-0.125 -5,-1 -2.982451,-4.626713 -3.545173,-8.862347 -3.5,-14.25 0.0028,-0.747092 0.0056,-1.494185 0.0085,-2.263916 C -13.309175,12.225552 -11.908644,7.0316912 -8,2 -4.7785672,-0.14762184 -3.7404533,-0.561068 0,0 Z"
       fill="#AA8342"
       transform="translate(868,311)"
       id="path76"
       style="fill:#ae8e4e;fill-opacity:1" />
    <path
       d="m 0,0 c 6.7758245,3.2555336 6.7758245,3.2555336 9.2617188,6.984375 0.5542986,6.208145 0.5542986,6.208145 -1.3125001,8.875 -4.0631872,2.708791 -8.4408209,2.308567 -13.1249999,2.3125 -0.7637696,0.01225 -1.5275391,0.02449 -2.3144532,0.03711 -7.0948876,0.01853 -7.0948876,0.01853 -10.2480466,-2.224609 -2.302095,-3.222933 -2.475107,-6.1199632 -2,-10 C -15.020968,-1.4285462 -8.0850814,-2.9987463 0,0 Z"
       fill="#F7E7B9"
       transform="translate(83.738281,368.01562)"
       id="path78"
       style="fill:#fef1c7;fill-opacity:1" />
    <path
       d="m 0,0 c 3.7183609,0.71202655 4.7674257,1.4623939 6.9375,4.5625 1.9518692,5.758014 2.2518513,10.955569 2,17 C 7.2292717,21.875574 5.520912,22.18793 3.8125,22.5 2.8611719,22.674023 1.9098437,22.848047 0.9296875,23.027344 -2.0640747,23.562782 -5.0616809,24.0683 -8.0625,24.5625 -8.1978084,21.498515 -8.2967407,18.440529 -8.375,15.375 -8.4168945,14.510684 -8.4587891,13.646367 -8.5019531,12.755859 -8.5890526,8.2092646 -8.5581085,6.2177676 -5.734375,2.484375 -3.0625,0.5625 -3.0625,0.5625 0,0 Z"
       fill="#D2923B"
       transform="translate(864.0625,465.4375)"
       id="path80"
       style="fill:#b98138;fill-opacity:1" />
    <g
       id="g31510-0-2"
       transform="matrix(1.1849033,-0.05082317,0.05511559,1.0926227,-731.3612,-222.81265)">
      <path
         d="m 1351.7424,732.71814 c 0.6136,0.54914 1.2272,1.09828 1.8594,1.66406 0.6548,0.52852 1.3097,1.05703 1.9844,1.60156 11.7524,10.34031 16.1321,26.23754 17.3242,41.29688 0.6644,20.49484 -6.3578,40.26992 -19.3086,56.10156 -0.5298,0.70383 -1.0596,1.40766 -1.6055,2.13282 -7.8376,9.86963 -21.0191,18.57451 -33.6245,20.14501 -13.7027,1.11648 -24.9795,-1.24687 -35.7427,-10.27783 -11.3162,-11.16364 -16.2129,-26.38814 -16.4074,-41.94946 0.03,-21.76276 0.5876,-21.64744 4.3801,-32.05054 0.3506,-0.91652 0.7013,-1.83304 1.0625,-2.77734 7.6537,-18.52303 20.5378,-33.74245 39.25,-41.59766 13.7157,-5.02264 29.3592,-3.90969 40.8281,5.71094 z"
         fill="#C98428"
         id="path20-5-3-0"
         style="fill:#b98138;fill-opacity:1"
         sodipodi:nodetypes="ccccccccccccc" />
      <path
         d="m 1338.1018,747.3822 c 9.0617,5.39492 13.2265,13.19286 16.5,23 3.8026,15.30716 -0.255,31.66703 -8.0195,45.02734 -6.457,9.69175 -14.523,17.82362 -25.9805,20.97266 -8.5205,0.98459 -15.7723,0.89999 -22.918,-4.17188 -7.3437,-6.44816 -12.4171,-16.06066 -13.259,-25.89599 -0.5634,-20.27592 3.1407,-36.28079 17.509,-51.4751 9.8255,-9.04868 23.4692,-13.2879 36.168,-7.45703 z"
         fill="#fcebc1"
         id="path30-9-6-6" />
      <path
         d="m 1337.8049,740.41345 c 11.1835,5.62297 16.8484,14.39512 20.7969,25.96875 0.2462,0.66516 0.4924,1.33031 0.7461,2.01562 4.9085,15.57176 -0.2125,33.23199 -7.3279,47.24122 -6.7306,12.31427 -16.729,21.87779 -30.2307,26.01269 -7.7192,1.76899 -14.976,1.73396 -22.0977,-1.94922 -9.9136,-6.26318 -16.2114,-14.97235 -19.0898,-26.32031 -0.1843,-0.71414 -0.3687,-1.42828 -0.5586,-2.16406 -1.7237,-11.07437 -1.4427,-23.33901 2.5586,-33.83594 0.2668,-0.82242 0.5337,-1.64484 0.8086,-2.49219 2.4837,-7.08677 6.5755,-12.6454 11.1914,-18.50781 0.4834,-0.66129 0.9668,-1.32258 1.4648,-2.00391 9.579,-12.41096 26.6654,-18.81757 41.7383,-13.96484 z m -40.2031,18.96875 c -11.5874,14.83361 -14.038,30.79625 -13,49 1.3036,9.00394 5.8563,17.92324 13.125,23.5 1.2648,0.87364 2.5564,1.70992 3.875,2.5 0.8875,0.56074 0.8875,0.56074 1.793,1.13281 6.3446,2.49295 15.9087,1.85859 22.1445,-0.75781 14.6531,-7.86262 22.9567,-20.345 28.2344,-35.80859 3.5005,-13.49028 2.8628,-26.64602 -3.4922,-39.16797 -4.1869,-6.84094 -9.9791,-11.92803 -17.6797,-14.39844 -15.0576,-1.63483 -24.7581,2.93047 -35,14 z"
         fill="#533611"
         id="path46-2-1-1"
         style="fill:#543f21;fill-opacity:1" />
      <path
         d="m 1340.6018,762.3822 c -0.5025,7.05647 -2.0962,12.97318 -4.625,19.5625 -0.3184,0.89396 -0.6368,1.78793 -0.9648,2.70898 -5.6343,14.86893 -18.7586,22.74946 -31.9141,30.61133 -2.4961,1.11719 -2.4961,1.11719 -5.4961,0.11719 0.5138,-6.22417 2.5678,-11.17893 5.1875,-16.8125 0.6172,-1.33285 0.6172,-1.33285 1.2468,-2.69263 1.1736,-2.50573 2.3664,-5.00136 3.5657,-7.49487 0.4976,-1.05961 0.9952,-2.11922 1.5078,-3.21094 3.8231,-7.25698 9.7727,-11.30938 16.4922,-15.78906 1.0171,-0.69867 2.0341,-1.39734 3.082,-2.11719 7.3243,-4.88281 7.3243,-4.88281 11.918,-4.88281 z"
         fill="#5A3B13"
         id="path58-2-0-5"
         style="fill:#543f21;fill-opacity:1" />
    </g>
  </g>
  <defs
     id="defs124" />
  <sodipodi:namedview
     id="namedview122"
     pagecolor="#ffffff"
     bordercolor="#666666"
     borderopacity="1.0"
     inkscape:pageshadow="2"
     inkscape:pageopacity="0.0"
     inkscape:pagecheckerboard="0"
     showgrid="false"
     inkscape:snap-global="false"
     fit-margin-top="0"
     fit-margin-left="0"
     fit-margin-right="0"
     fit-margin-bottom="0"
     inkscape:zoom="0.60283615"
     inkscape:cx="699.19496"
     inkscape:cy="841.85396"
     inkscape:window-width="2490"
     inkscape:window-height="1376"
     inkscape:window-x="2560"
     inkscape:window-y="27"
     inkscape:window-maximized="1"
     inkscape:current-layer="svg120" />
</svg>
