<?xml version="1.0" encoding="UTF-8" standalone="no"?>
<svg
   version="1.1"
   width="1160.7848"
   height="1160.7848"
   id="svg268"
   sodipodi:docname="the-guardian-geokret.svg"
   inkscape:export-filename="/tmp/31b5072c-7505-453b-87f3-ec8254fd1c11.png"
   inkscape:export-xdpi="45.169998"
   inkscape:export-ydpi="45.169998"
   inkscape:version="1.1.2 (0a00cf5339, 2022-02-04)"
   xmlns:inkscape="http://www.inkscape.org/namespaces/inkscape"
   xmlns:sodipodi="http://sodipodi.sourceforge.net/DTD/sodipodi-0.dtd"
   xmlns="http://www.w3.org/2000/svg"
   xmlns:svg="http://www.w3.org/2000/svg">
  <g
     id="g73692">
    <path
       d="m 679.73319,13.839863 c 3.84607,3.083485 7.52581,6.339205 11.1997,9.624512 1.31241,1.10428 2.62489,2.208462 3.9375,3.3125 9.91007,8.755292 18.89901,18.295014 27.0625,28.6875 0.88121,1.05972 1.76549,2.116886 2.65235,3.171875 18.30139,21.968547 33.13994,47.01789 45.34765,72.82812 0.35659,0.74508 0.71318,1.49016 1.08057,2.25781 16.70953,35.11391 26.45131,73.1945 30.91944,111.74219 0.0897,0.76333 0.17937,1.52665 0.27177,2.31311 0.65332,5.972 0.86162,11.84651 0.82588,17.85095 -10e-4,0.91809 -0.003,1.83617 -0.004,2.78208 -0.006,2.89299 -0.0181,5.7859 -0.0309,8.67886 -0.005,1.97787 -0.01,3.95573 -0.0137,5.9336 -0.011,4.81383 -0.0282,9.6276 -0.0488,14.4414 0.78399,-0.0123 1.56798,-0.0246 2.37573,-0.0372 8.04355,-0.0707 15.93074,0.35641 23.93677,1.09581 2.54854,0.22321 5.09713,0.44592 7.64575,0.66821 1.97162,0.17452 1.97162,0.17452 3.98306,0.35257 20.51351,1.81397 40.97879,3.56419 61.59189,3.46725 21.44504,0.10723 39.34755,7.86241 54.79492,22.68775 17.82755,18.5552 23.20548,42.66073 23.09351,67.61474 -0.54411,25.73307 -9.57886,49.81978 -27.68726,68.31104 -2.41997,2.51331 -4.6065,5.07867 -6.73437,7.83984 0.42128,0.75785 0.42128,0.75785 0.85107,1.53101 15.69673,28.48017 30.85755,62.40957 30.03955,95.62134 -0.0424,1.88174 -0.0424,1.88174 -0.0857,3.80151 -0.0768,2.48225 -0.19319,4.96367 -0.35401,7.44189 -0.38187,6.26415 -0.38187,6.26415 2.17212,11.74121 2.05345,1.78616 2.05345,1.78616 4.2854,3.34107 3.17009,2.30679 5.10168,5.20241 7.21656,8.45947 0.41959,0.6397 0.83918,1.2794 1.27148,1.93848 11.62828,18.44576 14.73318,41.71105 10.52488,62.98608 -3.03724,13.02713 -9.10178,31.28698 -20.00828,39.75904 -2.7508,3.42059 -2.46068,6.69285 -2.41699,10.89453 -0.008,0.83989 -0.0164,1.67978 -0.0248,2.54512 -0.0171,1.7979 -0.0262,3.59589 -0.0281,5.39387 -0.01,4.67609 -0.0912,9.35064 -0.17758,14.02585 -0.0165,0.91833 -0.033,1.83666 -0.05,2.78282 -0.22672,10.70376 -1.30183,21.19787 -3.21562,31.73671 -0.19868,1.12318 -0.19868,1.12318 -0.40137,2.26904 -3.79695,20.3776 -13.92163,36.32407 -30.85645,48.14551 -26.4074,17.42861 -58.99639,23.80675 -90.17968,23.83545 -0.75751,10e-4 -1.51501,0.002 -2.29547,0.003 -15.91066,-0.0143 -30.29224,-1.46867 -45.26703,-7.25305 -0.25395,0.56203 -0.50789,1.12406 -0.76953,1.70313 -1.39891,2.61128 -3.05272,4.74553 -4.91797,7.04687 -0.70512,0.87914 -1.41024,1.75828 -2.13672,2.66406 -2.49044,2.95991 -5.14794,5.71522 -7.92578,8.40625 -2.48888,4.33999 -1.49861,9.70573 -0.33203,14.39258 0.41259,1.4841 0.8362,2.96518 1.26953,4.44336 0.22196,0.78774 0.44392,1.57548 0.6726,2.38709 0.70357,2.48844 1.42145,4.97248 2.1399,7.45666 0.48272,1.69765 0.9645,3.39556 1.44531,5.09375 1.17397,4.13862 2.36079,8.27334 3.55469,12.40625 0.67692,0.12335 1.35383,0.2467 2.05127,0.37378 1.33974,0.25391 1.33974,0.25391 2.70654,0.51294 0.88317,0.1646 1.76634,0.32919 2.67627,0.49878 5.93332,1.42095 10.26469,4.44258 13.56592,9.6145 4.13533,7.8919 6.26958,15.71939 8.1875,24.375 2.51715,10.45603 5.17447,16.99992 12.44482,24.97559 2.77661,3.34858 4.94365,7.11605 7.18018,10.83691 0.46696,0.77449 0.93392,1.54897 1.41504,2.34693 3.76013,6.3132 7.13914,12.73226 10.08496,19.46557 1.57922,2.80757 3.25837,4.97017 5.3125,7.43747 7.80693,9.5498 16.10093,21.644 17.875,34.0625 -2.88482,20.1937 -21.66977,37.7556 -37.13037,49.7666 -18.30917,13.6687 -18.30917,13.6687 -29.88916,13.1787 -3.61759,-0.6494 -5.57697,-2.25 -8.48047,-4.4453 -3.82202,0.2707 -5.84988,2.3993 -8.5625,4.9375 -2.43741,2.2648 -4.66108,4.2116 -7.4375,6.0625 -0.5776,1.9233 -0.5776,1.9233 -0.8125,4.125 -2.04408,10.3028 -11.08224,17.4282 -19.41016,23.0508 -16.56839,10.5347 -16.56839,10.5347 -25.77735,8.8242 -3.19308,-1.3954 -6.09688,-3.0783 -9,-5 -0.14695,0.6033 -0.2939,1.2066 -0.44531,1.8281 -0.2243,0.7993 -0.44859,1.5985 -0.67969,2.4219 -0.20882,0.7889 -0.41765,1.5778 -0.63281,2.3906 -2.12004,4.0268 -5.31943,5.7325 -9.58594,7.1236 -2.68629,0.7105 -5.37887,1.3316 -8.09375,1.9233 -0.91588,0.2121 -1.83175,0.4241 -2.77539,0.6426 -7.63899,1.7384 -15.05431,2.8252 -22.90429,2.9082 -1.14901,0.014 -1.14901,0.014 -2.32123,0.029 -2.47892,0.025 -4.95756,0.037 -7.43659,0.045 -0.84858,0 -1.69717,0.01 -2.57147,0.01 -13.57971,0 -26.55607,-1.0031 -39.8836,-3.7691 -2.55616,-0.5278 -5.11618,-1.0029 -7.68555,-1.4614 -55.59865,-10.1493 -55.59865,-10.1493 -66.34765,-23.8243 -4.89956,-8.1491 -3.05034,-17.6824 -0.94922,-26.4531 1.37511,-5.3631 3.12995,-10.1628 6.16406,-14.8203 1.93067,-3.3491 2.85613,-7.028 3.97266,-10.7109 3.88072,-12.5026 9.40856,-23.5146 18.17577,-33.2813 0.54141,-0.6458 1.08282,-1.2916 1.64063,-1.957 5.62677,-6.2687 13.18088,-9.9814 21.25781,-12.1406 9.08933,-2.4476 9.08933,-2.4476 15.10156,-9.4024 1.90782,-4.0427 2.15617,-6.2219 1,-10.5 -1.21599,-2.5428 -1.21599,-2.5428 -2.76562,-5.0976 -0.56074,-0.9675 -1.12149,-1.9349 -1.69922,-2.9317 -1.17413,-1.995 -2.3486,-3.9898 -3.52344,-5.98434 -12.04017,-20.77548 -12.04017,-20.77548 -10.01172,-31.98633 1.08992,-2.42799 2.25519,-3.93795 4,-6 0.33,-0.66 0.66,-1.32 1,-2 -0.46374,-0.69561 -0.92748,-1.39122 -1.40527,-2.10791 -4.86491,-7.29736 -9.72982,-14.59473 -14.59473,-21.89209 -1.11036,-1.60367 -1.11036,-1.60367 -2.24316,-3.23974 -1.75684,-2.76026 -1.75684,-2.76026 -1.75684,-4.76026 -1.52705,0.21221 -1.52705,0.21221 -3.08496,0.42871 -12.01717,1.5601 -23.89069,1.8807 -35.99951,1.83203 -3.14782,-0.0107 -6.29506,-5e-5 -9.44287,0.0127 -13.59405,0.008 -26.96002,-0.80402 -40.47265,-2.27344 -0.99,2.97 -1.98,5.94 -3,9 0.78375,0.5775 1.5675,1.155 2.375,1.75 2.93702,2.51745 4.40182,4.37921 4.86425,8.25562 -0.0983,5.75804 -0.64877,11.36114 -1.48925,17.05688 -0.1306,0.9096 -0.2612,1.81919 -0.39575,2.75635 -1.06596,7.06143 -2.63845,13.8692 -4.58472,20.73584 -1.4365,6.43143 -0.62883,12.16858 0.66797,18.50778 2.6998,13.654 2.6998,13.654 2.58984,20.5859 -0.0122,1.253 -0.0245,2.506 -0.0371,3.7969 -0.0351,2.6121 -0.0741,5.224 -0.11719,7.836 -0.19793,7.4152 -0.19793,7.4152 1.10743,14.6562 1.71997,5.6844 1.39151,11.6939 1.39013,17.5811 0.004,2.1092 0.0409,4.2163 0.0786,6.3252 0.006,1.3567 0.01,2.7135 0.0117,4.0703 0.008,1.2164 0.0164,2.4328 0.0249,3.686 -0.77485,5.4224 -3.735,9.2643 -8.04834,12.5249 -17.54316,12.2706 -45.32728,12.9151 -66.0625,13.3125 -1.00773,0.035 -2.01545,0.069 -3.05371,0.1045 -6.63363,0.038 -11.31544,-1.0014 -16.32129,-5.542 -1.73247,-2.6976 -2.14678,-4.8537 -3,-8 -1.21688,-0.021 -2.43375,-0.041 -3.6875,-0.062 -0.6845,-0.012 -1.36899,-0.023 -2.07422,-0.035 -2.61121,0.1139 -4.74623,0.2656 -7.23828,1.0976 -1.50765,2.151 -1.50765,2.151 -2.5,4.8125 -2.3936,5.2435 -4.71115,7.8288 -9.9375,10.375 -7.40253,2.3472 -15.06374,2.1018 -22.75,2.1875 -1.28326,0.037 -2.56653,0.075 -3.88867,0.1133 -1.22655,0.012 -2.45309,0.023 -3.7168,0.035 -1.11915,0.02 -2.2383,0.04 -3.39136,0.06 -2.81567,-0.5835 -2.81567,-0.5835 -4.70361,-3.1162 -0.36698,-0.8142 -0.73396,-1.6284 -1.11206,-2.4673 -5.00459,0.2043 -5.00459,0.2043 -8.8125,3.0625 -3.0396,2.6922 -5.12806,2.3685 -9.08594,2.1992 -27.97752,-2.3608 -27.97752,-2.3608 -33.72656,-7.6992 -0.45375,-0.8456 -0.9075,-1.6912 -1.375,-2.5625 -0.4125,-0.7631 -0.825,-1.5262 -1.25,-2.3125 -0.2475,-0.5569 -0.495,-1.1137 -0.75,-1.6875 -3.58608,1.1983 -3.58608,1.1983 -6.375,3.625 -2.67242,2.2613 -5.20961,1.5636 -8.625,1.375 -3.04767,-0.5449 -6.01437,-1.3099 -9,-2.125 -1.2485,-0.3367 -1.2485,-0.3367 -2.52222,-0.6802 -22.06056,-6.1414 -50.04928,-17.517 -63.7356,-36.9839 -2.08808,-6.2202 -0.60418,-11.8736 1.88282,-17.7109 0.26852,-0.6514 0.53705,-1.3029 0.81372,-1.9741 1.88888,-4.4047 4.06383,-8.1735 7.16675,-11.815 3.28951,-4.0358 5.15812,-8.4497 7.04443,-13.2463 7.46607,-18.8708 18.81996,-34.18879 37.3501,-43.46457 12.40163,-4.81278 25.20608,-6.35693 38.40625,-4.38672 4.36601,0.59835 8.19667,0.94767 12.59375,0.38672 2.90216,-2.41557 4.40572,-4.64787 6.16406,-7.97265 1.82551,-3.01015 2.60835,-3.57674 5.40234,-5.37891 4.33774,-3.53086 4.5767,-8.043 5.16046,-13.2751 0.21604,-2.22725 0.40239,-4.45567 0.58564,-6.68584 0.27806,-2.93456 0.57138,-5.86756 0.86328,-8.80078 0.0672,-0.69979 0.13444,-1.39959 0.2037,-2.12059 0.99037,-10.01477 2.63553,-18.24486 10.30802,-25.20363 5.63397,-2.65753 11.3085,-3.17945 17.3125,-1.5625 1.76309,-23.72392 1.76309,-23.72392 -7.49854,-44.34497 -1.00262,-1.0472 -2.01811,-2.08224 -3.04687,-3.10376 -2.4883,-2.65369 -4.30134,-5.67806 -6.14209,-8.80127 -0.36328,-0.61359 -0.72655,-1.22719 -1.10083,-1.85937 -8.03433,-14.00728 -13.04877,-29.35869 -17.21167,-44.89063 -0.24968,-0.93062 -0.49935,-1.86124 -0.75659,-2.82007 -8.26281,-31.83509 -6.69229,-64.57113 -6.24341,-97.17993 -0.25612,1.09554 -0.51224,2.19109 -0.77613,3.31983 -0.34897,1.45338 -0.69836,2.90666 -1.04809,4.35986 -0.16722,0.72018 -0.33443,1.44037 -0.50672,2.18237 -2.18686,8.99931 -6.90033,15.96929 -14.66906,21.13794 -9.13483,4.90545 -18.65576,6.54772 -28.91016,4.38672 -8.35047,-2.66604 -14.16047,-7.50728 -19.40234,-14.44922 -4.55757,-9.17814 -6.44679,-19.79253 -5.6875,-29.9375 -1.09055,-0.0213 -1.09055,-0.0213 -2.20313,-0.043 -15.93757,-0.75601 -28.40074,-8.50113 -39.15625,-19.91797 -15.16755,-16.92943 -19.85318,-39.32371 -19.95312,-61.35156 -0.006,-1.1927 -0.0113,-2.38541 -0.0171,-3.61426 0.16232,-19.71551 7.22725,-35.70928 19.32959,-51.07324 -0.72599,0.15936 -1.45197,0.31872 -2.19995,0.48291 -4.36453,0.80601 -8.68395,0.8241 -13.11255,0.89209 -0.91201,0.0374 -1.82403,0.0748 -2.76367,0.11328 -6.57254,0.0848 -10.95436,-1.08018 -15.92383,-5.48828 -4.29492,-4.53511 -6.16426,-9.5508 -7.75,-15.5 -0.31131,-1.08088 -0.31131,-1.08088 -0.62891,-2.18359 -2.88091,-10.27834 -5.07688,-23.70559 -1.71484,-34.125 3.40289,-5.76965 8.41678,-8.94094 14.82812,-10.70069 5.04735,-1.09322 10.19993,-1.55451 15.32813,-2.11572 1.15822,-0.13406 2.31644,-0.26812 3.50976,-0.40625 5.17873,-0.58301 10.21048,-1.04158 15.42774,-0.96875 -0.72427,-4.1467 -1.45546,-8.29216 -2.1875,-12.4375 -0.29488,-1.68899 -0.29488,-1.68899 -0.59571,-3.41211 -1.81803,-10.26492 -3.86349,-20.48058 -5.92065,-30.69995 -1.98725,-9.87254 -3.92244,-19.75528 -5.85864,-29.63794 -0.20793,-1.06078 -0.41587,-2.12155 -0.6301,-3.21448 -7.15889,-36.53254 -14.22519,-73.08342 -21.24048,-109.64379 -0.36828,-1.91909 -0.73685,-3.83812 -1.10577,-5.75708 -0.99604,-5.18323 -1.98468,-10.36778 -2.96216,-15.55454 -0.34814,-1.84371 -0.6983,-3.68705 -1.04999,-5.53009 -0.56058,-2.94397 -1.11304,-5.88936 -1.66385,-8.83517 -0.17068,-0.88934 -0.34136,-1.77867 -0.51721,-2.69495 -3.79816,-20.52517 1.43923,-35.97954 9.66956,-54.7074 0.27507,-0.62876 0.55014,-1.25752 0.83355,-1.90533 4.10745,-9.37709 8.32836,-18.70408 12.71091,-27.95594 0.58699,-1.24144 1.17002,-2.48477 1.74872,-3.7301 3.7143,-7.9664 7.58532,-16.04363 15.26932,-20.84613 4.15816,-0.72768 7.60323,-0.60017 11.2915,1.66065 5.54035,4.17079 10.41135,8.83889 15.271,13.77685 0.76377,0.76442 1.52754,1.52883 2.31445,2.31641 4.17601,4.20815 8.18702,8.50866 12.05688,12.99951 2.1927,2.5328 4.47318,4.98035 6.75367,7.43408 16.78254,18.22754 26.98296,32.48504 30.375,57.625 0.21047,1.50336 0.42166,3.00661 0.63354,4.50977 0.5208,3.72063 1.02647,7.44312 1.52539,11.16675 0.26093,1.94223 0.52642,3.88386 0.79224,5.82543 0.44301,3.24812 0.87462,6.49743 1.29883,9.74805 0.12383,0.92845 0.24766,1.8569 0.37524,2.81348 0.74013,5.92321 0.94925,11.71957 0.81226,17.68652 1.16571,-0.008 1.16571,-0.008 2.35498,-0.0159 3.50666,-0.0207 7.01331,-0.0338 10.52002,-0.0466 1.22332,-0.008 2.44664,-0.0168 3.70703,-0.0254 1.7499,-0.005 1.7499,-0.005 3.53515,-0.01 1.61818,-0.008 1.61818,-0.008 3.26905,-0.0159 2.61377,0.11352 2.61377,0.11352 4.61377,1.11352 -0.0464,-1.21172 -0.0928,-2.42344 -0.14063,-3.67187 -0.41291,-15.83273 1.86756,-30.38889 7.14063,-45.32813 -1.03899,-0.55687 -2.07797,-1.11375 -3.14844,-1.6875 -24.11952,-13.11636 -24.11952,-13.11636 -27.85156,-24.3125 -1.11271,-9.62457 1.36303,-16.86076 5.25,-25.5625 0.54482,-1.25605 1.088,-2.51282 1.62964,-3.77026 1.1227,-2.59584 2.25878,-5.18523 3.40503,-7.77075 1.41459,-3.19778 2.78906,-6.41072 4.14718,-9.63283 1.27982,-3.03128 2.58146,-6.05315 3.88065,-9.07616 0.46632,-1.10738 0.93263,-2.21477 1.41308,-3.35571 3.65206,-8.32635 7.45035,-15.38254 15.96192,-19.37476 4.89733,-1.69943 9.11069,-1.50951 14.2185,-1.04419 8.85736,1.01291 8.85736,1.01291 17.0232,-1.69018 3.19111,-3.44985 5.13727,-7.54889 7.09814,-11.78223 1.436,-2.8648 3.34871,-5.18712 5.41016,-7.62793 0.73992,-0.87656 1.47984,-1.75312 2.24218,-2.65625 12.3964,-14.19116 25.34238,-28.156494 40.32032,-39.656245 1.5024,-1.193028 1.5024,-1.193028 3.03515,-2.410157 12.85227,-10.155148 26.46732,-18.969599 40.96485,-26.589843 0.74894,-0.39687 1.49789,-0.793741 2.26953,-1.202637 32.01019,-16.730425 69.95988,-27.40573 106.22246,-26.693844 18.84852,0.287937 32.26181,-0.713865 48.27832,-11.6684571 22.1885,-14.3015224 44.90744,-10.4357134 65.02979,4.9384761 z"
       fill="#624507"
       id="path4"
       style="fill:#543f21;fill-opacity:1" />
    <path
       d="m 372.23759,231.78468 c 1.47444,0.20805 1.47444,0.20805 2.97867,0.42029 3.1983,0.45418 6.39509,0.91802 9.59164,1.3844 1.10432,0.16039 2.20865,0.32078 3.34643,0.48602 7.59642,1.10636 15.18867,2.23885 22.77857,3.38898 0.8165,0.12311 1.633,0.24621 2.47424,0.37305 87.85535,13.31272 173.93029,39.91469 255.52576,74.62695 -0.10154,1.62472 -0.20312,3.24944 -0.30485,4.87415 -0.0899,1.44031 -0.17914,2.88066 -0.26786,4.32104 -0.22145,3.58263 -0.45262,7.16365 -0.70536,10.74426 -0.66804,9.68873 -0.97024,19.35175 -1.01709,29.06348 -0.0117,1.67912 -0.0323,3.3582 -0.0615,5.03711 -0.0428,2.47648 -0.0588,4.9519 -0.0691,7.42871 -0.0263,1.10958 -0.0263,1.10958 -0.053,2.24157 0.0255,6.16349 1.82278,11.60996 6.23274,16.05921 8.58246,4.94928 18.20626,6.65997 27.93359,7.91797 0.96881,0.12737 1.93762,0.25475 2.93579,0.38598 11.10848,1.3264 22.20941,1.21575 33.37671,0.92652 -0.40885,9.38118 -1.9423,18.05166 -4.3125,27.125 -0.29584,1.18465 -0.59168,2.36929 -0.89648,3.58984 -1.85551,7.26976 -4.07388,14.29163 -6.79102,21.28516 -5.07359,-0.98399 -10.13022,-2.01171 -15.16406,-3.1836 -28.7413,-6.65402 -57.52587,-9.21351 -86.83594,-4.8164 -0.86012,0.1289 -1.72025,0.25781 -2.60644,0.39062 -21.63237,3.36279 -41.54973,9.37744 -61.39356,18.60938 -0.72026,0.33258 -1.44052,0.66515 -2.18261,1.00781 -20.78322,9.69686 -39.90564,22.41123 -56.71192,38.03516 -1.90938,1.77477 -3.86467,3.46258 -5.85547,5.14453 -10.00043,8.74277 -19.08931,18.34082 -27.25,28.8125 -0.89022,1.10164 -1.78224,2.20183 -2.67578,3.30078 -6.373,7.889 -12.10294,16.0041 -17.32422,24.69922 -0.51563,0.83789 -1.03125,1.67578 -1.5625,2.53906 -4.12796,7.34679 -5.32569,15.22529 -6.4375,23.46094 -0.1368,0.97324 -0.2736,1.94648 -0.41455,2.94922 -6.13178,45.40421 -3.88031,92.63734 7.41455,137.05078 0.27215,1.08055 0.54431,2.16111 0.82471,3.27441 11.439,44.69969 32.5998,86.08596 63.17529,120.72559 1.04994,1.21623 1.04994,1.21623 2.1211,2.45703 13.53176,15.42468 28.14842,28.85271 45.18359,40.30078 0.83918,0.61488 0.83918,0.61488 1.69531,1.24219 0,0.33 0,0.66 0,1 -37.25026,0.40879 -71.23752,-1.5747 -106.70752,-14.19287 -3.74731,-1.31934 -7.51965,-2.56303 -11.29248,-3.80713 1.1515,8.63795 4.48193,13.22246 11.12109,18.77343 11.31309,8.43235 24.54577,13.8933 37.87891,18.22657 -1.21429,2.59129 -2.44537,5.17209 -3.6875,7.75 -0.5095,1.09441 -0.5095,1.09441 -1.02929,2.21093 -2.12258,4.36418 -3.92884,7.57221 -8.28321,10.03907 -10.54936,2.24783 -22.00537,1.23846 -32.72754,1.04931 -1.94185,-0.0293 -3.88419,-0.0434 -5.82617,-0.0244 -6.34864,0.0532 -11.12773,-0.46623 -15.77051,-4.99365 -2.26235,-2.42269 -4.38932,-4.94568 -6.51953,-7.48438 -7.47659,-8.7533 -18.48391,-12.8107 -28.97315,-16.84717 -0.78745,-0.30953 -1.57491,-0.61907 -2.38623,-0.93798 -0.70801,-0.26853 -1.41603,-0.53706 -2.1455,-0.81372 -1.65137,-0.948 -1.65137,-0.948 -2.65137,-3.948 0.0606,-3.53479 0.46803,-7.04514 0.8125,-10.5625 0.0831,-0.97131 0.16629,-1.94262 0.25195,-2.94336 0.0883,-0.92748 0.1766,-1.85496 0.26758,-2.81055 0.0797,-0.85022 0.15936,-1.70043 0.24146,-2.57641 0.42651,-2.10718 0.42651,-2.10718 2.42651,-4.10718 2.38281,-0.63282 2.38281,-0.63282 5.125,-1.125 1.36512,-0.25137 1.36512,-0.25137 2.75781,-0.50782 0.69867,-0.12117 1.39735,-0.24234 2.11719,-0.36718 0.4367,-2.25629 0.4367,-2.25629 0,-5 -1.66837,-2.10425 -3.28576,-3.88173 -5.1875,-5.75 -11.66036,-12.07699 -21.21335,-25.28668 -28.8125,-40.25 -0.31663,-0.61553 -0.63325,-1.23106 -0.95947,-1.86524 -32.73638,-64.34437 -22.51071,-143.38889 -1.02107,-209.39649 4.49956,-13.4849 9.64457,-26.71081 14.83066,-39.94177 18.77983,-47.65253 18.77983,-47.65253 28.14981,-97.79651 0.68812,-0.095 1.37623,-0.18998 2.0852,-0.28784 14.57576,-2.04345 28.83306,-4.3701 42.9148,-8.71216 0.65952,-0.20239 1.31903,-0.40477 1.99853,-0.61328 14.98531,-4.70783 27.88881,-12.0228 35.81007,-25.99219 2.97737,-5.98404 3.91688,-10.72233 3.1914,-17.39453 -1.15412,-2.92799 -1.15412,-2.92799 -3,-5 -0.4125,-0.59813 -0.825,-1.19625 -1.25,-1.8125 -2.98237,-2.02376 -5.25646,-1.6612 -8.75,-1.1875 -4.03991,2.60911 -6.42785,5.51762 -9.25,9.375 -12.31797,16.20927 -36.33929,23.01985 -55.70044,25.79809 -34.53049,4.25647 -69.796,-2.33691 -97.84644,-23.59106 -7.01809,-5.53673 -13.31345,-11.44908 -17.20312,-19.58203 0.89719,-0.19594 1.79437,-0.39188 2.71875,-0.59375 13.27059,-3.18056 25.83248,-8.43317 36.28125,-17.40625 0.63808,-0.49629 1.27617,-0.99258 1.93359,-1.50391 11.95992,-9.67517 20.71144,-24.48536 24.06641,-39.49609 0.98515,-11.02685 1.54073,-23.10584 -4,-33 -0.4357,-0.79277 -0.87141,-1.58555 -1.32031,-2.40234 -4.1342,-6.78867 -9.51268,-12.12029 -16.67969,-15.59766 -0.151,-6.68032 0.19921,-13.08111 1.1875,-19.6875 0.13164,-0.89211 0.26329,-1.78422 0.39892,-2.70337 6.10393,-39.6342 6.10393,-39.6342 13.06592,-47.4685 5.99532,-2.91287 14.28093,-0.74601 20.65235,0.17968 z"
       fill="#fceebd"
       id="path6"
       style="fill:#f7ecca;fill-opacity:1" />
    <path
       d="m 654.90556,30.241713 c 18.43456,12.887879 35.40306,28.260293 49.02734,46.222656 0.80703,1.040999 0.80703,1.040999 1.63037,2.103028 18.17322,23.442223 33.47322,48.691803 45.36963,75.896973 0.31888,0.72203 0.63776,1.44407 0.96631,2.18798 12.95189,29.69348 20.66625,61.65794 24.03369,93.81202 0.0943,0.84844 0.18853,1.69689 0.28565,2.57104 3.82015,38.81505 -0.074,77.67766 -8.85596,115.53052 -0.20383,0.87995 -0.40766,1.75989 -0.61767,2.6665 -0.91538,2.51606 -1.65023,3.659 -3.81202,5.23194 -8.93746,2.15008 -19.13029,1.23974 -28.3125,1.25 -0.79043,0.002 -1.58085,0.003 -2.39523,0.005 -33.40333,0.004 -33.40333,0.004 -41.29227,-5.25506 -0.29235,-2.47086 -0.37392,-4.65467 -0.3125,-7.125 0.008,-0.7276 0.0168,-1.45519 0.0254,-2.20484 0.21881,-10.58265 1.28699,-21.13831 2.28711,-31.67016 0.66717,0.28222 1.33434,0.56444 2.02173,0.85522 6.80049,2.70012 12.61763,3.82619 19.91577,3.70728 0.96075,-0.011 1.92151,-0.0219 2.91138,-0.0332 14.05859,-0.42821 25.35257,-7.14133 34.96362,-17.27929 11.07552,-13.64567 14.73782,-31.09147 13.1875,-48.25 -1.77954,-13.47156 -7.74429,-24.99463 -18,-34 -10.49575,-7.51744 -20.94698,-11.34866 -34,-10 -5.39205,1.34011 -10.36235,2.90823 -15,6 -7.56684,-1.12859 -14.46325,-3.9185 -21.5625,-6.6875 -1.25674,-0.48339 -2.51383,-0.96587 -3.77124,-1.44751 -2.74373,-1.05121 -5.48659,-2.10464 -8.22876,-3.15992 -46.91236,-18.03798 -94.30917,-34.25606 -143.00537,-46.80957 -3.21041,-0.83766 -6.40984,-1.70735 -9.60791,-2.59082 -21.75407,-5.94031 -43.87823,-10.24621 -65.96875,-14.72473 -2.68677,-0.54569 -5.37284,-1.09468 -8.05859,-1.64538 -17.87614,-3.66502 -35.76114,-7.13127 -53.79688,-9.93457 4.57848,-9.46236 12.54978,-16.76855 20,-24 2.35,-2.33203 4.68576,-4.66889 6.96485,-7.07031 5.92092,-6.16714 12.38442,-11.37947 19.18359,-16.526859 1.2122,-0.918421 2.4207,-1.841751 3.625,-2.770508 30.28164,-23.342096 65.42365,-39.45263 103.22656,-45.632324 1.55655,-0.291972 1.55655,-0.291972 3.14453,-0.589844 3.11559,-0.447518 6.08461,-0.50761 9.23047,-0.472656 1.58942,0.01354 1.58942,0.01354 3.21094,0.02734 0.79664,0.0116 1.59328,0.0232 2.41406,0.03516 -3.26459,4.037791 -6.60276,7.628306 -10.5,11.0625 -9.4442,8.344045 -18.36122,17.315882 -26.5,26.9375 -0.97098,1.109543 -1.94382,2.217451 -2.91796,3.324219 -7.32584,8.34112 -14.34037,16.856842 -21.08204,25.675782 -0.48855,0.63551 -0.97711,1.27102 -1.48046,1.92578 -3.56643,4.64827 -7.07077,9.33802 -10.51954,14.07422 -0.49548,0.67837 -0.99096,1.35673 -1.50146,2.05566 -1.43734,1.98826 -2.84705,3.99319 -4.24854,6.00684 -0.43062,0.59482 -0.86125,1.18964 -1.30493,1.80249 -2.83797,4.16913 -3.37741,7.14397 -2.94507,12.13501 4.39301,2.1965 9.28663,1.97224 14,1 3.98317,-2.80339 6.92084,-6.25099 10,-10 1.14372,-1.29355 2.28936,-2.58539 3.4375,-3.875 0.55043,-0.64196 1.10086,-1.28391 1.66797,-1.94532 3.61753,-4.16202 7.38111,-8.19496 11.1211,-12.24682 1.376,-1.4997 2.74427,-3.00648 4.10937,-4.51611 6.63056,-7.30413 13.4495,-14.38847 20.42529,-21.36328 1.74266,-1.744859 3.47711,-3.497608 5.21143,-5.250736 6.70312,-6.736224 13.57771,-12.891968 21.02734,-18.802735 1.07929,-0.922077 2.15237,-1.851561 3.21484,-2.792969 14.59243,-12.833801 30.99301,-23.487331 47.78516,-33.207031 0.65307,-0.378823 1.30614,-0.757646 1.979,-1.147949 6.98132,-4.002289 14.10427,-7.499672 21.5835,-10.47705 0.98251,-0.408593 0.98251,-0.408593 1.98486,-0.82544 5.96491,-2.247361 9.15336,-0.924247 14.4253,2.227833 z"
       fill="#a59c77"
       id="path8" />
    <path
       d="m 515.8704,585.21437 c 1.15133,-0.0138 1.15133,-0.0138 2.32592,-0.0278 3.7288,0.0213 6.57381,0.19685 9.73658,2.27783 -0.61875,0.89526 -0.61875,0.89526 -1.25,1.8086 -12.33712,18.53321 -18.43107,38.34922 -21.75,60.1914 -0.17129,1.08322 -0.34257,2.16643 -0.51905,3.28247 -6.97724,53.93021 12.71142,106.02803 44.6753,148.58862 12.31,15.76589 26.90967,31.02597 42.84375,43.12891 0.55623,0.42732 1.11246,0.85465 1.68554,1.29492 9.06322,6.93764 18.37812,13.09914 28.31446,18.70508 1.01224,0.57814 2.02447,1.15629 3.06738,1.75195 2.8659,1.6289 5.73967,3.24185 8.62339,4.83896 1.71324,0.95296 3.4182,1.92076 5.12295,2.88883 7.13251,3.89978 11.72,5.93409 19.78394,3.84838 21.85657,-9.56008 42.92807,-21.17202 61.40234,-36.32812 0.5696,-0.46664 1.13921,-0.93328 1.72607,-1.41406 12.27471,-10.13129 23.56475,-20.92526 33.27393,-33.58594 0.52352,-0.67418 1.04704,-1.34836 1.58643,-2.04297 8.60021,-11.12711 16.03815,-22.42332 22.41357,-34.95703 0.38495,-0.74153 0.76989,-1.48307 1.1665,-2.24707 22.29082,-43.23691 30.66108,-95.92844 16.14454,-142.98632 -2.56649,-7.95217 -5.41748,-15.62842 -9.42823,-22.98145 -0.88281,-1.78516 -0.88281,-1.78516 -0.88281,-3.78516 13.37076,-0.30117 26.5957,-0.39737 39.875,1.375 0.94883,0.12609 1.89766,0.25218 2.87524,0.38208 4.40715,0.64371 8.11761,1.54653 12.24976,3.24292 0.76816,8.59699 1.1489,17.10863 1.13281,25.73828 10e-4,1.74667 10e-4,1.74667 0.003,3.52861 6.8e-4,2.44449 -10e-4,4.88897 -0.005,7.33346 -0.005,3.6925 -4e-5,7.38489 0.006,11.07739 0.007,17.1286 -0.3842,33.7687 -3.26172,50.69726 -0.21737,1.28366 -0.43474,2.56733 -0.65869,3.88989 -11.17935,64.11301 -45.34688,125.6389 -97.21631,165.73511 -1.26471,1.00472 -2.52901,2.00996 -3.79297,3.01562 -20.72072,16.33344 -43.56472,29.44446 -67.64453,40.17188 -1.04817,0.46994 -2.09634,0.93989 -3.17627,1.42407 -7.82779,3.40043 -13.00306,5.49927 -21.28076,2.35327 -2.3153,-0.98757 -4.62086,-1.99818 -6.91797,-3.02734 -0.61054,-0.26871 -1.22108,-0.53742 -1.85013,-0.81427 -30.24638,-13.31608 -58.65033,-30.31325 -82.90387,-52.87714 -2.03765,-1.88065 -4.11452,-3.66254 -6.24609,-5.43359 -30.687,-26.78824 -50.62078,-63.44371 -65.1875,-100.8125 -0.52473,-1.3088 -0.52473,-1.3088 -1.06006,-2.64404 -7.78145,-19.48756 -11.59314,-40.67923 -14.81494,-61.35596 -0.10796,-0.68385 -0.21592,-1.3677 -0.32715,-2.07227 -2.07954,-14.71783 -2.00042,-29.72175 -1.98535,-44.55273 -6e-5,-0.91821 -1.2e-4,-1.83643 -1.9e-4,-2.78247 0.0163,-17.41617 0.51958,-34.50768 4.18769,-51.59253 7.61724,-1.74948 15.14801,-2.58453 22.9375,-3.125 1.17699,-0.0835 2.35399,-0.16693 3.56665,-0.25293 7.14358,-0.47614 14.2735,-0.82518 21.43335,-0.87207 z"
       fill="#a36b17"
       id="path10"
       style="fill:#aa7833;fill-opacity:1" />
    <path
       d="m 657.9329,586.46437 c 6.18998,2.85686 11.48967,6.70148 16.6875,11.0625 0.60521,0.49694 1.21043,0.99387 1.83398,1.50586 2.17327,1.79454 4.32488,3.61359 6.47852,5.43164 1.03359,0.85688 2.0672,1.71373 3.10083,2.57056 9.268,7.74554 17.76582,16.11692 26.21167,24.74194 10.4297,10.79053 10.4297,10.79053 21.94604,20.37329 2.19742,1.65831 3.9813,3.51537 5.74146,5.62671 0.55687,0.65614 1.11375,1.31227 1.6875,1.98828 6.04904,7.83136 2.74805,25.89376 1.625,35.38672 -0.39562,2.44465 -0.83689,4.88215 -1.3125,7.3125 -0.15066,0.77344 -0.30132,1.54688 -0.45655,2.34375 -6.01342,29.94582 -19.32297,57.54714 -40.54345,79.65625 -0.84176,0.90492 -1.68352,1.80984 -2.55078,2.74219 -10.30555,10.76787 -22.44397,18.22192 -35.44922,25.25781 -1.47147,0.85465 -1.47147,0.85465 -2.97266,1.72656 -4.31801,1.81635 -7.69072,2.13961 -12.15332,0.48535 -2.38924,-1.10932 -4.69111,-2.31708 -6.99902,-3.58691 -1.25406,-0.67785 -1.25406,-0.67785 -2.53345,-1.36938 -7.40199,-4.10179 -13.91721,-8.74664 -20.34155,-14.25562 -0.77465,-0.65936 -0.77465,-0.65936 -1.56494,-1.33203 -7.28991,-6.25557 -13.6273,-12.99637 -19.43506,-20.66797 -0.78891,-1.01191 -1.57782,-2.02383 -2.39063,-3.06641 -20.59014,-27.04491 -30.61886,-59.86554 -30.92187,-93.62109 -0.0435,-1.63292 -0.0435,-1.63292 -0.0879,-3.29882 -0.0617,-7.80566 1.00161,-11.93515 6.04101,-17.98243 2.92884,-2.78666 5.89176,-5.50247 8.96875,-8.125 5.03926,-4.39511 9.70033,-9.14489 14.39063,-13.90625 5.28019,-5.36019 10.56379,-10.61825 16.27929,-15.51562 2.2277,-1.92174 4.33982,-3.95636 6.47071,-5.98438 5.22064,-4.76 10.7372,-9.05771 16.375,-13.3125 0.83499,-0.63422 1.66998,-1.26843 2.53027,-1.92187 15.61592,-11.64577 15.61592,-11.64577 23.34473,-10.26563 z"
       fill="#624407"
       id="path12"
       style="fill:#543f21;fill-opacity:1" />
    <path
       d="m 653.2454,543.21437 c 1.00619,0.007 2.01238,0.015 3.04907,0.0227 17.60506,0.25334 33.92639,4.14864 49.63843,12.22729 0.59248,0.29858 1.18497,0.59716 1.79541,0.90479 10.65224,5.42651 19.48847,11.94143 28.20459,20.09521 0.83144,0.76184 1.66289,1.52368 2.51953,2.3086 22.59894,21.56992 36.82909,52.94455 37.71875,84.15624 0.6994,46.90718 -12.9364,92.18371 -43.23828,128.53516 -0.41653,0.50676 -0.83306,1.01353 -1.26221,1.53564 -9.6703,11.76347 -19.92036,22.03304 -32.0874,31.21534 -1.45106,1.09817 -2.88787,2.21512 -4.32227,3.33496 -30.37395,23.11062 -30.37395,23.11062 -43.09765,22.85937 -4.56291,-1.33521 -8.47457,-3.49428 -12.60547,-5.82031 -0.87906,-0.49033 -1.75812,-0.98065 -2.66382,-1.48584 -17.77188,-10.07132 -33.17554,-22.62098 -47.96118,-36.63916 -0.87786,-0.82371 -1.75571,-1.64742 -2.66016,-2.49609 -6.85384,-6.61488 -12.67461,-13.87185 -18.33984,-21.50391 -0.60159,-0.81042 -0.60159,-0.81042 -1.21534,-1.63721 -26.53179,-36.15138 -41.39717,-82.35961 -36.03466,-127.30029 5.28606,-33.60157 22.8434,-64.03426 50.22412,-84.54101 21.3471,-15.39534 45.63971,-26.03637 72.33838,-25.77149 z m -28.3125,61.25 c -0.56445,0.46536 -1.1289,0.93071 -1.71045,1.41016 -14.20489,11.77386 -27.482,24.58848 -40.40601,37.74292 -3.91354,3.96465 -7.929,7.71777 -12.17456,11.32617 -3.81888,3.39826 -6.5046,6.60058 -6.87012,11.823 -0.71556,46.37004 13.43868,87.97702 46.03223,121.6665 8.90107,8.83609 19.25721,15.85479 30.12891,22.03125 0.92039,0.52852 1.84078,1.05703 2.78906,1.60156 5.03438,2.72252 8.35303,3.96693 14.21094,3.39844 2.78682,-0.976 5.30088,-2.31188 7.875,-3.75 0.73541,-0.40412 1.47082,-0.80824 2.22851,-1.22461 20.54004,-11.55486 38.37294,-26.8904 50.89649,-47.02539 0.35352,-0.56783 0.70705,-1.13566 1.07129,-1.7207 16.19745,-26.43448 24.95098,-55.49412 25.24121,-86.5293 0.029,-1.0493 0.058,-2.09859 0.0879,-3.17969 0.05,-6.07702 -0.21876,-9.81164 -4.40039,-14.57031 -0.52981,-0.61746 -1.05961,-1.23492 -1.60547,-1.87109 -2.92437,-2.89548 -5.86545,-5.51268 -9.20313,-7.92188 -8.05807,-6.21312 -14.93343,-13.8423 -22.03857,-21.09521 -7.73053,-7.87678 -15.44356,-15.3114 -24.15283,-22.11182 -1.12156,-0.93332 -2.23845,-1.87233 -3.34766,-2.82031 -11.72694,-11.03116 -11.72694,-11.03116 -26.45703,-15.63672 -10.47453,2.18064 -20.11159,11.76336 -28.19531,18.45703 z"
       fill="#e4ab39"
       id="path14"
       style="fill:#f2b246;fill-opacity:1" />
    <path
       d="m 799.9329,935.46437 c 0.66,0 1.32,0 2,0 0.12528,0.57331 0.25056,1.14662 0.37964,1.73731 3.4651,15.67078 7.02743,28.3294 16.96313,41.12671 5.19314,6.70501 9.55013,13.72523 13.65723,21.13598 0.35529,0.63273 0.71059,1.26553 1.07666,1.91753 1.03898,1.8703 2.04891,3.7532 3.04834,5.645 0.58007,1.0944 1.16015,2.1888 1.75781,3.3164 1.32647,3.7057 1.318,5.3868 0.11719,9.1211 -1.43513,2.2438 -2.82874,4.2041 -4.5,6.25 -0.44707,0.5635 -0.89413,1.1271 -1.35474,1.7077 -3.4598,4.3158 -7.08923,8.469 -10.84448,12.5306 -1.88136,2.0538 -3.70561,4.1367 -5.52344,6.2461 -9.93664,11.3825 -20.83438,22.0145 -32.77734,31.2656 -1.11364,0.9222 -2.22411,1.8482 -3.33203,2.7773 -30.35161,25.2635 -64.39678,39.2783 -104.26953,35.8789 -4.4806,-0.4476 -8.93794,-1.0436 -13.39844,-1.6562 -1.19061,-0.1528 -1.19061,-0.1528 -2.40527,-0.3086 -23.20791,-2.9827 -44.64496,-9.8408 -66.59473,-17.6914 1.00703,-13.6261 5.94066,-25.3319 16.01172,-34.9141 11.55665,-9.2181 25.90985,-9.0846 39.98828,-8.0859 14.4563,1.7242 28.75942,4.6307 42.95483,7.8222 5.73827,1.2419 11.19784,1.6508 17.04517,1.1778 0,-3.668 -0.0582,-5.9312 -2.53125,-8.7378 -4.85834,-4.1752 -9.7624,-7.4266 -15.46875,-10.3247 -0.82452,-0.4249 -1.64903,-0.8497 -2.49854,-1.2874 -11.72477,-5.921 -23.59362,-10.1304 -36.50146,-12.6501 0,-0.66 0,-1.32 0,-2 4.10415,-0.03 8.20827,-0.047 12.3125,-0.062 1.14791,-0.01 2.29582,-0.017 3.47852,-0.025 6.24968,-0.018 12.35665,0.2197 18.57202,0.8586 4.41942,0.3842 8.82881,0.3743 13.26196,0.3543 0.89589,0 1.79179,0.01 2.71484,0.012 1.27424,0 1.27424,0 2.57422,0 1.14396,0 1.14396,0 2.31103,0 1.80026,0.063 1.80026,0.063 2.77491,-1.1294 0.50407,-3.6966 0.3756,-5.45 -1.75,-8.5625 -4.34127,-3.7834 -9.90083,-5.5477 -15.25,-7.4375 -1.06863,-0.3854 -2.13727,-0.7709 -3.23828,-1.168 -6.23162,-1.9548 -11.44606,-2.9397 -17.96094,-2.7734 -16.73435,0.389 -16.73435,0.389 -20.73779,-2.4155 -3.02016,-3.3947 -4.77866,-7.26088 -6.29199,-11.51029 -0.87981,-2.43382 -1.9098,-4.77242 -2.97022,-7.13281 -0.34249,-0.76313 -0.68497,-1.52625 -1.03784,-2.3125 -0.25177,-0.5569 -0.50354,-1.11378 -0.76294,-1.68753 0.67764,-0.0449 1.35529,-0.0897 2.05347,-0.13598 11.69379,-0.79168 23.30474,-1.63757 34.88403,-3.48902 6.87345,-1.0546 13.66949,-1.76519 20.625,-1.9375 1.18807,-0.0583 1.18807,-0.0583 2.40014,-0.11767 2.22876,-0.0112 2.22876,-0.0112 6.03736,0.68017 4.8034,4.87979 6.65494,12.32999 9.0625,18.625 0.86017,2.24439 1.72585,4.48663 2.59765,6.72653 0.37778,0.9883 0.75555,1.9765 1.14478,2.9947 1.14625,2.5454 2.51049,4.4488 4.19507,6.6538 0,0.66 0,1.32 0,2 1.91812,0.2784 1.91812,0.2784 3.875,0.5625 0.71929,0.1044 1.43859,0.2088 2.17968,0.3164 2.02672,0.2895 2.02672,0.2895 3.94532,-0.8789 1.15927,-3.4779 1.11313,-6.1881 1.09765,-9.8555 -10e-4,-0.6616 -0.003,-1.3233 -0.004,-2.005 -0.006,-2.109 -0.0181,-4.21799 -0.0309,-6.32703 -0.005,-1.43164 -0.01,-2.86328 -0.0137,-4.29492 -0.011,-3.50589 -0.0283,-7.01172 -0.0488,-10.51758 0.50225,-0.26103 1.0045,-0.52207 1.52197,-0.79101 5.84127,-3.04114 11.66429,-6.11557 17.47803,-9.20899 0.99797,-0.52738 0.99797,-0.52738 2.01611,-1.06543 15.18628,-8.08122 31.48779,-19.07342 42.18701,-32.75097 0.59297,-0.72059 1.18594,-1.44117 1.79688,-2.1836 z"
       fill="#a46b17"
       id="path16"
       style="fill:#aa7833;fill-opacity:1" />
    <path
       d="m 354.9329,924.46437 c 7.32158,1.18195 13.8615,3.25387 20.6875,6.125 1.42542,0.5918 1.42542,0.5918 2.87964,1.19556 5.87044,2.47982 11.61487,5.13122 17.24536,8.11694 0.62157,0.32952 1.24314,0.65904 1.88354,0.99854 4.16975,2.29555 4.16975,2.29555 5.30396,4.56396 0.26456,6.3652 0.42509,12.93296 -0.5,19.25 -1.46769,9.7477 -1.46769,9.7477 1.5,18.75 3.31809,1.26007 3.31809,1.26007 7,1 6.89569,-4.85833 8.19621,-13.22985 10,-21 0.81855,0.0722 1.63711,0.14438 2.48047,0.21875 19.01718,1.44282 38.67875,2.81429 57.21094,-2.34375 3.30859,-0.875 3.30859,-0.875 7.30859,-0.875 -0.31605,8.05918 -1.65024,15.62261 -3.62793,23.41553 -2.01443,8.28873 -1.77019,15.41281 0.56543,23.5845 3.40529,12.8379 3.97765,25.4993 2.5,38.75 -0.10441,0.9436 -0.20883,1.8872 -0.31641,2.8594 -1.12109,2.3906 -1.12109,2.3906 -4.2539,4.0937 -16.89662,6.0861 -35.42678,7.6196 -53.22657,8.7148 -13.61928,0.8407 -26.63869,2.6632 -39.97339,5.4622 -48.376,10.1279 -99.45208,-0.9195 -141.60473,-25.8801 -0.6144,-0.3614 -1.2288,-0.7227 -1.86182,-1.095 -4.07171,-2.5181 -4.07171,-2.5181 -5.20068,-5.905 1.04754,-2.6293 2.14885,-5.0547 3.4375,-7.5625 0.36472,-0.7166 0.72945,-1.4331 1.10522,-2.1714 6.61778,-12.6217 15.26341,-21.719 28.45728,-27.26613 21.71895,-6.25472 44.53415,4.30293 64.17578,12.28123 4.73101,1.8987 9.46952,3.7708 14.24219,5.5625 1.09465,0.4145 2.18931,0.8289 3.31713,1.2559 3.57364,0.9855 6.57451,1.1314 10.2649,0.9004 0.33,-0.33 0.66,-0.66 1,-1 0,-8.5994 -4.31305,-13.858 -9.86719,-20.09768 -6.87536,-6.72822 -15.60428,-10.67235 -24.13281,-14.90235 1.26294,-3.57834 2.62971,-6.12488 5.25,-8.875 0.56203,-0.61617 1.12406,-1.23234 1.70312,-1.86718 2.97327,-1.82709 4.68526,-1.00834 8.04688,-0.25782 2.21006,0.76772 4.3999,1.5952 6.57031,2.46875 1.2259,0.48856 2.4518,0.97711 3.71484,1.48047 1.2801,0.51656 2.56005,1.03349 3.83985,1.55078 2.52211,1.0138 5.04593,2.0231 7.57031,3.03125 1.11391,0.44924 2.22782,0.89848 3.37549,1.36133 5.23972,1.98095 9.35404,2.29022 14.9292,2.10742 0.33,-0.33 0.66,-0.66 1,-1 -0.10773,-5.38635 -1.43483,-8.44543 -5.03125,-12.2539 -8.353,-7.40831 -19.00679,-11.91505 -28.96875,-16.7461 -1.3346,-0.66413 -2.66872,-1.32925 -4,-2 -0.6578,-9.04467 1.76562,-17.31187 4,-26 z"
       fill="#a46a17"
       id="path18"
       style="fill:#aa7833;fill-opacity:1" />
    <path
       d="m 783.39384,515.28468 c 2.53097,2.26175 2.53097,2.26175 5.53906,4.17969 0,0.66 0,1.32 0,2 0.54656,0.21399 1.09312,0.42797 1.65625,0.64844 3.16122,1.82297 5.41395,4.30303 7.84375,6.97656 0.78395,0.859 0.78395,0.859 1.58374,1.73535 8.54607,9.53231 15.93119,19.92756 22.91626,30.63965 0.44481,0.68159 0.88961,1.36318 1.3479,2.06543 2.87989,4.50344 5.29666,9.13868 7.6521,13.93457 -6.22155,-0.67516 -12.44306,-1.35063 -18.66455,-2.02637 -2.10807,-0.22892 -4.21614,-0.45776 -6.32422,-0.68652 -5.07521,-0.55076 -10.1503,-1.10268 -15.2251,-1.65723 -3.73439,-0.40788 -7.46937,-0.80939 -11.20508,-1.20507 -1.63379,-0.17543 -3.26758,-0.35088 -4.90136,-0.52637 -0.7404,-0.0769 -1.48079,-0.15378 -2.24363,-0.233 -5.22305,-0.56603 -8.13515,-0.99577 -11.49856,-5.10294 -23.03611,-26.91537 -57.69069,-46.3051 -93.30761,-49.39038 -37.95827,-2.48427 -71.62605,8.0417 -102.28223,30.51538 -0.68288,0.48235 -1.36576,0.9647 -2.06934,1.46167 -2.43436,1.87012 -2.43436,1.87012 -4.70508,4.6333 -6.71782,7.19559 -13.29641,8.98749 -23.03276,9.41232 -6.70072,0.18629 -13.39543,0.13531 -20.09687,0.0241 -3.88873,-0.0526 -7.77726,-0.042 -11.66626,-0.0372 -7.59362,3e-4 -15.18448,-0.0681 -22.77735,-0.18164 1.11278,-1.76038 2.22709,-3.5198 3.34204,-5.2788 0.93055,-1.46982 0.93055,-1.46982 1.8799,-2.96933 28.15084,-43.56836 75.05436,-73.60258 125.15819,-84.8212 61.6442,-13.10329 123.95124,4.62895 171.08081,45.88964 z"
       fill="#a36a18"
       id="path20"
       style="fill:#aa7833;fill-opacity:1" />
    <path
       d="m 336.9329,167.46437 c 44.67769,0.59571 89.57456,10.54133 132.94885,20.52857 2.12675,0.48881 4.2544,0.97355 6.3822,1.45776 61.79673,14.09534 123.20579,31.41882 182.1001,55.02588 6.84954,2.74424 13.7735,5.20687 20.75562,7.59131 5.60251,1.92642 11.01363,4.08032 16.40307,6.54883 2.75414,0.96863 4.51243,1.24485 7.41016,0.84765 2.67215,-1.46327 2.67215,-1.46327 5.1875,-3.4375 5.65258,-4.19494 8.778,-5.17773 15.8125,-4.5625 6.97026,2.07885 12.72772,6.35314 16.58203,12.53907 4.86065,9.49717 6.23958,20.06123 3.66406,30.52343 -3.00756,7.73711 -6.90549,14.27638 -14.51953,18.07031 -8.14945,3.41752 -17.53666,4.90788 -25.94531,1.60156 -5.45199,-3.39983 -8.35541,-9.03285 -10.28125,-15.04687 -1.98491,-4.87957 -4.91904,-6.49311 -9.51398,-8.61951 -2.34792,-0.98619 -4.7116,-1.91709 -7.08758,-2.83361 -0.89236,-0.35031 -1.78472,-0.70061 -2.70412,-1.06153 -2.9366,-1.14929 -5.87755,-2.28687 -8.81932,-3.42285 -1.01752,-0.39506 -2.03505,-0.79011 -3.0834,-1.19714 -43.24978,-16.78741 -86.94532,-32.9795 -131.82773,-44.88977 -2.26461,-0.60946 -4.51741,-1.24812 -6.76856,-1.90527 -15.05776,-4.3774 -30.37166,-7.79815 -45.65368,-11.29041 -1.88199,-0.43086 -3.76312,-0.86546 -5.64417,-1.30041 -43.70007,-10.04732 -88.25973,-15.51381 -132.83399,-19.91187 -0.77217,-0.0777 -1.54434,-0.15532 -2.33992,-0.23534 -1.4455,-0.14516 -2.89136,-0.28676 -4.33761,-0.42422 -4.77347,-0.48309 -4.77347,-0.48309 -5.88594,-1.59557 -1.22424,-8.32263 1.51203,-14.71541 5,-22.125 0.47695,-1.05187 0.9539,-2.10375 1.44531,-3.1875 1.16846,-2.57061 2.35336,-5.13213 3.55469,-7.6875 z"
       fill="#a59c78"
       id="path22" />
    <path
       d="m 209.9329,171.46437 c 4.26285,1.42096 5.90898,4.60746 8.4375,8.125 1.07869,1.47025 2.15947,2.93896 3.24218,4.40625 0.5514,0.74766 1.1028,1.49532 1.6709,2.26563 2.49731,3.33566 5.09481,6.5861 7.71192,9.82812 0.99482,1.23435 1.98961,2.46873 2.98437,3.70313 0.48791,0.60521 0.97582,1.21043 1.47852,1.83398 2.45045,3.05414 4.87003,6.13232 7.28711,9.21289 0.41967,0.53448 0.83934,1.06896 1.27173,1.61963 0.84561,1.07841 1.68172,2.16433 2.50903,3.25684 1.41271,1.81543 1.41271,1.81543 3.20801,3.5791 6.46611,7.02299 6.73523,14.72819 7.44873,23.79443 0.14729,1.59165 0.29739,3.18304 0.45019,4.77417 0.3084,3.25719 0.60006,6.51522 0.87793,9.77515 0.39676,4.61749 0.85312,9.22738 1.32813,13.8374 2.28782,22.41898 2.28782,22.41898 2.09375,28.98828 -1.01707,0.49307 -1.01707,0.49307 -2.05469,0.99609 -12.78514,6.53424 -23.6454,16.38722 -28.94531,30.00391 -3.19605,11.86797 -1.74446,25.86669 3,37 0.25781,0.60876 0.51562,1.21752 0.78125,1.84473 6.44438,14.85042 16.39276,26.90218 26.78125,39.15527 3.94028,4.84958 7.47466,9.96681 11.01074,15.11646 1.44815,1.98343 1.44815,1.98343 3.42383,3.99169 6.55219,7.15373 7.65412,14.13849 8.50293,23.45435 0.15326,1.37208 0.3095,2.74383 0.46875,4.11523 0.7533,6.79798 1.11461,13.48578 1.03125,20.32227 -6.38583,0.57524 -12.77218,1.14422 -19.15894,1.70898 -2.16972,0.1926 -4.33932,0.38659 -6.50879,0.58204 -3.12997,0.28173 -6.26036,0.55832 -9.39087,0.83398 -0.95974,0.0875 -1.91948,0.17499 -2.90831,0.26514 -5.70311,0.49629 -11.30827,0.6919 -17.03309,0.60986 -4.35207,-21.95807 -8.58279,-43.92955 -12.49659,-65.97021 -0.28623,-1.61151 -0.57252,-3.223 -0.85888,-4.83448 -0.13924,-0.78362 -0.27848,-1.56724 -0.42194,-2.3746 -1.33863,-7.51191 -2.74258,-15.01077 -4.16009,-22.50821 -2.36268,-12.51186 -4.66313,-25.03429 -6.9375,-37.5625 -0.16846,-0.92699 -0.33691,-1.85397 -0.51047,-2.80905 -1.71678,-9.44755 -3.42876,-18.89592 -5.12346,-28.34746 -0.66343,-3.69822 -1.32904,-7.39604 -1.99556,-11.0937 -0.32919,-1.82683 -0.65783,-3.65375 -0.9859,-5.48078 -1.82491,-10.14516 -3.73475,-20.26497 -5.82602,-30.35885 -0.1892,-0.91865 -0.3784,-1.8373 -0.57333,-2.78378 -0.90176,-4.37153 -1.81777,-8.73912 -2.76065,-13.10196 -0.32665,-1.56403 -0.65285,-3.12815 -0.97852,-4.69239 -0.15473,-0.68867 -0.30947,-1.37735 -0.46889,-2.08689 -1.4793,-7.24516 -0.56501,-13.93302 1.92592,-20.87404 0.38173,-1.07154 0.76345,-2.14307 1.15674,-3.24707 0.41749,-1.13406 0.83499,-2.26811 1.26514,-3.43653 0.64751,-1.78809 0.64751,-1.78809 1.3081,-3.6123 5.39264,-14.77177 11.41531,-29.30338 17.4419,-43.8252 z"
       fill="#d8d7c3"
       id="path24" />
    <path
       d="m 931.40556,331.88234 c 13.43462,8.40962 21.33098,22.23738 25.55859,37.24219 5.31619,23.40599 0.71903,47.36108 -10.95312,68.16797 -9.17386,14.0022 -21.26785,22.90178 -37.07813,28.17187 -13.93232,1.36388 -26.348,0.17854 -37.875,-8.375 -1.39322,-1.18728 -2.76946,-2.39487 -4.125,-3.625 -0.61359,-0.52207 -1.22719,-1.04414 -1.85937,-1.58203 -12.42019,-11.29357 -18.23398,-29.97372 -19.26172,-46.34716 -1.05146,-22.25407 4.74149,-43.38698 19.55859,-60.32081 1.50498,-1.59841 3.02496,-3.18288 4.5625,-4.75 0.92039,-0.95712 0.92039,-0.95712 1.85938,-1.93359 16.90949,-16.223 39.81317,-18.06196 59.61328,-6.64844 z"
       fill="#9c6e21"
       id="path26"
       style="fill:#af8f4e;fill-opacity:1" />
    <path
       d="m 653.9329,623.45656 c 2.67326,1.34708 4.56824,3.08308 6.75,5.13282 0.88172,0.81726 1.76343,1.63453 2.67187,2.47656 1.27617,1.18723 1.27617,1.18723 2.57813,2.39844 1.32775,1.17301 2.66061,2.34028 4,3.5 3.8511,3.35618 7.64934,6.76874 11.4414,10.1914 1.65112,1.48979 3.3046,2.97696 4.96094,4.46094 4.83414,4.33271 9.63468,8.70048 14.41016,13.09766 0.53923,0.4954 1.07846,0.9908 1.63403,1.50122 1.03321,0.95367 2.06116,1.91308 3.08325,2.87866 1.4211,1.32434 2.88853,2.59843 4.35694,3.87012 2.11328,2.5 2.11328,2.5 2.48828,5.23437 -0.18563,1.49274 -0.18563,1.49274 -0.375,3.01563 -0.13922,1.14468 -0.27844,2.28937 -0.42188,3.46875 -0.19078,1.24781 -0.38156,2.49562 -0.57812,3.78125 -0.0935,0.65613 -0.18692,1.31226 -0.28321,1.98828 -3.86601,26.78049 -13.56325,51.66082 -31.71679,72.01171 -0.53754,0.63164 -1.07508,1.26328 -1.62891,1.91406 -3.66075,4.01858 -7.91968,6.98457 -12.43359,9.96094 -0.58999,0.39397 -1.17998,0.78794 -1.78784,1.19385 -3.69386,2.34833 -6.73699,3.91946 -11.14966,3.93115 -24.47598,-12.07905 -40.34501,-37.70302 -49.1792,-62.52197 -2.11404,-6.38235 -3.52482,-12.88897 -4.8208,-19.47802 -0.2243,-1.03899 -0.4486,-2.07797 -0.67969,-3.14844 -0.53953,-2.63851 -1.03477,-5.17272 -1.32031,-7.85156 -0.096,-0.74887 -0.19207,-1.49773 -0.29102,-2.26929 -0.28108,-3.73108 -0.4176,-6.56901 1.57129,-9.82959 1.80656,-2.00943 3.69464,-3.79999 5.71973,-5.58862 1.0422,-0.9784 1.0422,-0.9784 2.10547,-1.97657 3.8015,-3.54474 7.6999,-6.98783 11.67578,-10.33593 3.36888,-3.03675 6.52765,-6.27829 9.71875,-9.5 4.408,-4.4462 8.7895,-8.84813 13.59765,-12.86719 1.52879,-1.31218 3.00446,-2.68613 4.46094,-4.07813 0.88816,-0.84304 1.77633,-1.68609 2.69141,-2.55468 0.80953,-0.78375 1.61906,-1.5675 2.45312,-2.375 2.29688,-1.625 2.29688,-1.625 4.29688,-1.63282 z"
       fill="#a36b18"
       id="path28"
       style="fill:#aa7833;fill-opacity:1" />
    <path
       d="m 866.9329,676.46437 c 1.84099,3.15599 2.56371,6.34184 3.40576,9.87256 4.20856,15.06714 14.87296,29.42506 28.40625,37.16358 15.75442,8.65356 29.48949,11.41103 47.39502,6.83105 3.19433,-0.99181 5.89274,-2.22111 8.79297,-3.86719 0.66,0 1.32,0 2,0 0.064,8.66719 0.069,17.33282 0,26 -0.009,1.2027 -0.009,1.2027 -0.0176,2.42969 -0.21302,14.82583 -4.29198,33.57443 -14.98242,44.57031 -20.72754,19.06934 -55.48447,25.2114 -82.625,25.1875 -0.96205,-8.1e-4 -1.92409,-0.002 -2.91529,-0.002 -7.96834,-0.0683 -15.60189,-0.80759 -23.45971,-2.1855 -1.1086,-0.19078 -2.21719,-0.38156 -3.35938,-0.57813 -2.55149,-0.45331 -5.09735,-0.92485 -7.64062,-1.42187 0.47308,-0.8134 0.94617,-1.6268 1.43359,-2.46484 10.88284,-18.80802 20.65067,-37.87027 27.56641,-58.53516 0.21334,-0.62149 0.42668,-1.24298 0.64648,-1.8833 8.96412,-26.27224 14.20136,-53.38551 15.35352,-81.1167 z"
       fill="#924d0d"
       id="path30"
       style="fill:#af8f4e;fill-opacity:1" />
    <path
       d="m 920.9329,480.46437 c 4.24969,3.00461 6.80837,6.36326 9.375,10.8125 0.38647,0.66089 0.77295,1.32178 1.17114,2.00269 14.19541,24.68907 23.45386,54.57889 23.45386,83.18481 -4.95,-0.33 -9.9,-0.66 -15,-1 -0.0258,-1.47211 -0.0516,-2.94422 -0.0781,-4.46093 -0.0563,-1.97139 -0.11367,-3.94274 -0.17187,-5.91407 -0.0142,-0.9655 -0.0284,-1.93101 -0.043,-2.92578 -0.27123,-8.08244 -2.29328,-14.52157 -6.33203,-21.51172 -4.5203,-4.16342 -10.25761,-7.40457 -16.5,-7.75 -7.46831,1.08411 -12.54187,4.23114 -17.26563,10.125 -6.56907,9.94927 -8.1855,20.79327 -6.60937,32.4375 1.17828,4.56058 2.91721,8.7311 4.9414,12.97266 0.0586,2.02734 0.0586,2.02734 -2.0039,4.47265 -0.96938,0.8843 -1.93875,1.7686 -2.9375,2.67969 -10.76362,10.24563 -17.73062,23.04621 -23,36.875 -0.33,0 -0.66,0 -1,0 -0.098,-1.21172 -0.19594,-2.42344 -0.29688,-3.67188 -3.46702,-39.99974 -17.27357,-76.38535 -45.32422,-105.9414 -1.99977,-3.46135 -1.33387,-5.58377 -0.3789,-9.38672 3.87793,-8.89643 10.72161,-17.24307 19.76855,-21.125 7.26015,-2.84686 14.34814,-4.39781 22.10645,-5 0.92401,-0.08 1.84803,-0.16 2.80005,-0.24243 9.15617,-0.7359 18.33436,-0.99651 27.51782,-1.11548 9.27892,-0.20768 17.23965,-1.99166 25.80713,-5.51709 z"
       fill="#924e0d"
       id="path32"
       style="fill:#af8f4e;fill-opacity:1" />
    <path
       d="m 964.9329,603.46437 c 10.82809,8.60365 16.89612,21.47506 19,35 1.1494,20.82193 -2.89373,41.05235 -17,57 -0.62004,0.81985 -1.24008,1.63969 -1.87891,2.48438 -7.75548,9.19802 -19.73941,15.57173 -31.68359,16.77343 -9.59635,0.40894 -18.14799,-2.40268 -25.59766,-8.51172 -10.05759,-9.5451 -15.50203,-22.63924 -16.17578,-36.43749 -0.40232,-21.47167 5.25782,-41.37051 20.33594,-57.3086 14.27151,-14.64015 35.04777,-21.7105 53,-9 z"
       fill="#e3ab39"
       id="path34"
       style="fill:#b98138;fill-opacity:1" />
    <path
       d="m 251.0579,561.65187 c 2.43317,2.35207 2.73913,3.43001 2.875,6.8125 -1.34652,2.49733 -2.67498,4.6499 -4.3125,6.9375 -5.76101,8.21856 -7.5536,14.93583 -6.6875,25.0625 1.80116,7.8883 6.30072,14.44205 13,19 6.62437,3.81094 12.11894,5.12253 19.75,5.5625 1.04607,0.0648 1.04607,0.0648 2.11328,0.13086 1.71204,0.10554 3.42435,0.20654 5.13672,0.30664 0.47681,12.45006 -1.71628,23.11982 -9.25,33.3125 -6.77599,6.62199 -15.04734,9.66159 -24.4375,10.125 -9.77754,-0.20777 -18.167,-4.19111 -25.15235,-10.96093 -14.14342,-16.21507 -18.46955,-35.3126 -17.16015,-56.47657 1.85157,-13.70981 6.06522,-27.08433 17.375,-35.875 7.88588,-5.06448 17.78235,-7.3452 26.75,-3.9375 z"
       fill="#fbedbd"
       id="path36"
       style="fill:#f7ecca;fill-opacity:1" />
    <path
       d="m 919.52274,349.11281 c 8.56285,3.96774 15.18002,12.27915 18.38281,21 4.30619,14.94148 2.93383,31.29936 -4.53125,45.00391 -5.20612,8.47935 -10.41584,13.91426 -19.69141,17.66016 -9.73215,1.78422 -17.44117,1.37096 -25.75,-4.3125 -7.80899,-6.00926 -11.79928,-14.54473 -14,-24 -0.29577,-3.23416 -0.33409,-6.44125 -0.3125,-9.6875 0.006,-0.88414 0.0113,-1.76828 0.0171,-2.6792 0.21072,-11.40182 2.66797,-20.27021 9.29541,-29.6333 0.45246,-0.6484 0.90492,-1.2968 1.3711,-1.96485 8.50181,-11.00659 21.9774,-14.70205 35.21875,-11.38672 z"
       fill="#634507"
       id="path38"
       style="fill:#543f21;fill-opacity:1" />
    <path
       d="m 329.9329,493.46437 c 0.78945,5.99137 1.12936,11.95868 1.1875,18 0.0142,1.27875 0.0284,2.5575 0.043,3.875 -0.23047,3.125 -0.23047,3.125 -2.23047,5.125 -2.6014,0.46588 -2.6014,0.46588 -5.96021,0.77442 -1.2666,0.12083 -2.53321,0.24167 -3.83819,0.36616 -1.40704,0.12515 -2.81408,0.25016 -4.22113,0.37505 -1.4684,0.13701 -2.93673,0.27486 -4.40497,0.4135 -3.96989,0.37275 -7.94069,0.73484 -11.91173,1.09512 -4.12737,0.37628 -8.25383,0.76216 -12.38033,1.14787 -1.67353,0.15634 -3.34707,0.31267 -5.02061,0.46898 -0.83292,0.0778 -1.66584,0.15561 -2.524,0.23578 -2.54991,0.23773 -5.09993,0.47422 -7.64998,0.71042 -11.0807,1.02778 -22.15653,2.09757 -33.22948,3.20567 -1.41969,0.14176 -2.83938,0.28352 -4.25908,0.42526 -5.36329,0.53608 -10.72641,1.07373 -16.08897,1.6171 -3.65058,0.36949 -7.3016,0.73428 -10.95273,1.09827 -1.06136,0.10902 -2.12272,0.21804 -3.21624,0.33037 -5.46838,0.54143 -10.84849,1.04963 -16.34235,0.73603 -3.25892,-3.50081 -3.81112,-7.83301 -4.6875,-12.4375 -0.25137,-1.27746 -0.50273,-2.55492 -0.76172,-3.87109 -0.49455,-3.31456 -0.59229,-6.35174 -0.55078,-9.69141 12.02095,-1.72974 24.06589,-2.93371 36.15625,-4.05859 2.03425,-0.19147 4.06847,-0.38322 6.10266,-0.57521 5.33393,-0.50277 10.66817,-1.00216 16.0025,-1.50072 6.37559,-0.59645 12.75083,-1.19668 19.1261,-1.79658 5.15213,-0.48475 10.30434,-0.96876 15.45672,-1.45082 8.94067,-0.83742 17.88027,-1.68223 26.81592,-2.57169 0.72985,-0.0723 1.45969,-0.14458 2.21165,-0.21906 3.29127,-0.32613 6.58204,-0.65579 9.87222,-0.99296 5.78685,-0.57641 11.4403,-0.97281 17.25598,-0.83437 z"
       fill="#a36917"
       id="path40"
       style="fill:#b98138;fill-opacity:1" />
    <path
       d="m 853.9329,322.46437 c 0.99,0.66 1.98,1.32 3,2 -0.68965,0.71543 -1.3793,1.43086 -2.08985,2.16797 -21.32812,22.46913 -30.52167,46.38225 -30.1914,77.10938 0.37548,13.35014 3.99201,25.50902 9.28125,37.72265 0.39832,0.92297 0.79664,1.84594 1.20703,2.79688 0.91266,2.07686 1.84065,4.14421 2.79297,6.20312 -7.74475,-0.41745 -15.47954,-0.94019 -23.1875,-1.8125 -1.21043,-0.1302 -2.42086,-0.26039 -3.66797,-0.39453 -3.70613,-0.93459 -4.88905,-1.73231 -7.14453,-4.79297 -1.15748,-2.49725 -2.11953,-4.84672 -3,-7.4375 -0.25347,-0.74226 -0.50693,-1.48452 -0.76807,-2.24927 -9.45875,-28.95432 -8.89568,-57.46655 4.95557,-84.87573 11.84645,-21.23131 24.858,-30.35598 48.8125,-26.4375 z"
       fill="#a36a18"
       id="path42"
       style="fill:#af8f4e;fill-opacity:1" />
    <path
       d="m 318.4329,574.40187 c 9.31747,3.86723 18.59725,6.24461 28.5,8.0625 -1.84485,6.51627 -4.00892,12.86098 -6.3628,19.20972 -8.16206,22.08494 -14.67916,44.7683 -19.6372,67.79028 -7.33334,-4.66666 -14.66667,-9.33333 -22,-14 0.19336,-0.56847 0.38672,-1.13695 0.58593,-1.72265 0.26039,-0.77215 0.52079,-1.5443 0.78907,-2.33985 0.38285,-1.13115 0.38285,-1.13115 0.77343,-2.28515 0.28102,-0.87528 0.56204,-1.75055 0.85157,-2.65235 0.51627,-1.55654 0.51627,-1.55654 1.04297,-3.14453 1.41646,-5.70634 1.69389,-11.43925 2.08007,-17.29297 0.39897,-5.01758 0.88865,-8.36483 3.87696,-12.5625 1.00473,-2.96251 1.10833,-5.63333 1.0625,-8.75 -0.009,-0.79922 -0.018,-1.59843 -0.0273,-2.42187 -0.0116,-0.60328 -0.0232,-1.20656 -0.0352,-1.82813 -5.09184,-0.52224 -8.30836,0.88093 -12.79688,2.97657 -7.45945,3.4652 -15.08793,3.94901 -23.20312,3.02343 -4.43513,-1.68669 -8.98263,-4.587 -11,-9 -0.71784,-6.35795 0.10835,-8.76753 4,-14 15.67204,-18.67143 30.08233,-18.18596 51.5,-9.0625 z"
       fill="#fbedbe"
       id="path44"
       style="fill:#f7ecca;fill-opacity:1" />
    <path
       d="m 471.9329,285.46437 c 6.4574,2.67807 10.38986,8.27948 13.3125,14.4375 5.88553,14.90328 5.30112,32.59246 -0.44922,47.51172 -3.37126,7.11475 -7.22779,13.04999 -14.625,16.35156 -4.90883,1.53348 -9.5868,1.67707 -14.44141,-0.11328 -7.78027,-4.27618 -11.73497,-11.80309 -14.2539,-20.04687 -0.17918,-0.70641 -0.35836,-1.41281 -0.54297,-2.14063 -0.18563,-0.72316 -0.37125,-1.44632 -0.5625,-2.1914 -1.5746,-10.10834 -1.46702,-22.01958 1.5625,-31.8086 0.34998,-1.22009 0.34998,-1.22009 0.70703,-2.46484 2.713,-8.03991 7.95127,-15.05025 15.37109,-19.29688 4.79844,-2.03356 9.01069,-1.69836 13.92188,-0.23828 z"
       fill="#624408"
       id="path48"
       style="fill:#543f21;fill-opacity:1" />
    <path
       d="m 307.9329,457.46437 c 3.76225,1.42115 7.20913,3.16176 10.75,5.0625 18.76005,9.5544 38.55591,14.6497 59.25,17.9375 -0.46203,8.88791 -2.25122,17.26851 -4.4375,25.875 -0.1718,0.68611 -0.3436,1.37221 -0.5206,2.07911 -4.47305,17.76411 -10.55798,34.92329 -17.0419,52.04589 -8.87376,-1.4764 -17.20578,-3.92889 -25.6875,-6.875 -0.94883,-0.32742 -1.89766,-0.65484 -2.87525,-0.99218 -6.65435,-2.35638 -13.05558,-5.11845 -19.43725,-8.13282 3.33903,-2.22602 4.94713,-2.37712 8.88281,-2.71093 1.16789,-0.11086 2.33578,-0.22172 3.53906,-0.33594 2.44482,-0.21663 4.89013,-0.42768 7.33594,-0.63281 8.14505,-0.78593 15.56119,-1.82809 21.67969,-7.63282 4.0913,-7.03704 3.86891,-14.0596 3.8125,-22 0.008,-1.07701 0.0155,-2.15402 0.0234,-3.26367 -0.0224,-9.24138 -0.44646,-19.75674 -6.27344,-27.42383 -5.60037,-4.6324 -10.68685,-6.06024 -17.85938,-6.3164 -1.11504,-0.0419 -2.23008,-0.0838 -3.3789,-0.12696 -1.15887,-0.0393 -2.31774,-0.0786 -3.51172,-0.11914 -1.17434,-0.0432 -2.34868,-0.0864 -3.5586,-0.13086 -2.89702,-0.10598 -5.79412,-0.20805 -8.6914,-0.30664 -1.48079,-2.96157 -1.35314,-5.83506 -1.5625,-9.125 -0.0838,-1.28132 -0.16758,-2.56265 -0.25391,-3.88281 -0.0606,-0.98742 -0.12117,-1.97484 -0.18359,-2.99219 z"
       fill="#fbfbf7"
       id="path50" />
    <path
       d="m 959.20729,613.62022 c 8.53914,6.9344 13.32446,17.30853 14.9836,28.20941 0.90642,16.78212 -2.28202,33.08749 -13.40638,45.94103 -0.48897,0.66079 -0.97794,1.32157 -1.48173,2.00237 -6.11604,7.41345 -15.5667,12.55055 -24.98601,13.5191 -7.56777,0.3296 -14.31169,-1.93652 -20.18657,-6.8603 -7.93153,-7.69319 -12.22507,-18.24684 -12.7564,-29.368 -0.31727,-17.3058 4.14637,-33.34393 16.03714,-46.18976 11.25466,-11.79971 27.63903,-17.4983 41.79635,-7.25385 z"
       fill="#e3ab39"
       id="path67158"
       style="fill:#f6d997;fill-opacity:1;stroke-width:0.797249" />
    <path
       d="m 960.9329,624.46437 c 2.35458,2.35459 2.34941,2.91392 2.44922,6.13672 -0.14548,6.91713 -2.52049,13.16832 -4.87427,19.58765 -0.76468,2.09423 -1.4963,4.19806 -2.22534,6.30493 -0.48311,1.3516 -0.96807,2.70254 -1.45508,4.05273 -0.65199,1.81335 -0.65199,1.81335 -1.31714,3.66333 -2.66685,5.50252 -6.71735,8.57575 -11.80786,11.77027 -0.96744,0.61101 -1.93489,1.22203 -2.93164,1.85156 -0.99838,0.62133 -1.99676,1.24266 -3.02539,1.88281 -1.51497,0.9552 -1.51497,0.9552 -3.06055,1.92969 -10.01688,6.29824 -10.01688,6.29824 -15.75195,5.82031 -2.73186,-4.09779 -2.67229,-7.2705 -2,-12 1.36394,-4.92872 3.02143,-9.70978 4.79736,-14.50341 0.8279,-2.24731 1.61975,-4.50522 2.40967,-6.76612 0.52522,-1.44739 1.05249,-2.89403 1.58203,-4.33984 0.23152,-0.6678 0.46303,-1.33559 0.70157,-2.02362 3.38675,-8.91556 12.33915,-12.98267 20.07187,-17.74201 1.54204,-0.98033 1.54204,-0.98033 3.11523,-1.98047 0.99451,-0.6123 1.98902,-1.2246 3.01367,-1.85546 1.34881,-0.83991 1.34881,-0.83991 2.72486,-1.69678 3.0695,-1.29764 4.46836,-1.17818 7.58374,-0.0923 z"
       fill="#614407"
       id="path52" />
    <path
       d="m 250.9329,398.46437 c 7.23613,7.01001 13.57704,14.48891 19.27246,22.79273 2.47772,3.58771 5.09082,6.59921 8.16504,9.70727 8.38876,10.29067 7.03477,28.11229 6.08203,40.67578 -0.17145,0.932 -0.34289,1.86399 -0.51953,2.82422 -3.2996,1.6498 -6.99128,1.38259 -10.625,1.5625 -0.8018,0.0432 -1.6036,0.0864 -2.42969,0.13086 -1.98156,0.10616 -3.96342,0.20691 -5.94531,0.30664 -2.36175,-5.95008 -3.01218,-12.11521 -3.875,-18.41406 -0.17,-1.20603 -0.33999,-2.41206 -0.51514,-3.65463 -0.54193,-3.85138 -1.07622,-7.70377 -1.60986,-11.55631 -0.53506,-3.8309 -1.07174,-7.66156 -1.60987,-11.49203 -0.3338,-2.37945 -0.66563,-4.75917 -0.99511,-7.13922 -0.75953,-5.44513 -1.54364,-10.88666 -2.38721,-16.31943 -0.1455,-0.94814 -0.29101,-1.89627 -0.44092,-2.87314 -0.54822,-2.46715 -1.33023,-4.35902 -2.56689,-6.55118 z"
       fill="#d8d7c3"
       id="path54" />
    <path
       d="m 762.9329,466.46437 c 8.75157,-0.2884 17.32555,0.80548 26,1.8125 1.60184,0.18233 3.20373,0.36429 4.80566,0.5459 13.0717,1.48787 26.13656,3.0362 39.19434,4.6416 -2.38401,3.10132 -4.72438,5.7745 -7.75,8.25 -6.73514,5.76939 -12.27033,12.4361 -17.25,19.75 -4.37648,-3.11732 -8.46033,-6.3789 -12.375,-10.0625 -9.43561,-8.63102 -20.25354,-15.81478 -30.97046,-22.74926 -0.546,-0.39212 -1.092,-0.78424 -1.65454,-1.18824 0,-0.33 0,-0.66 0,-1 z"
       fill="#914d0d"
       id="path56"
       style="fill:#af8f4e;fill-opacity:1" />
    <path
       d="m 237.9329,379.46437 c 2.92332,3.6308 5.79797,7.29367 8.625,11 0.77601,1.01063 1.55203,2.02125 2.35156,3.0625 1.81437,2.634 2.94592,4.95033 4.02344,7.9375 0.33,0.33 0.66,0.66 1,1 0.27606,1.32455 0.49649,2.66079 0.69262,3.99952 0.12729,0.8546 0.25457,1.7092 0.38572,2.5897 0.13528,0.93736 0.27056,1.87471 0.40994,2.84047 0.14334,0.97011 0.28667,1.94021 0.43435,2.93971 0.46717,3.16798 0.92854,6.33677 1.38987,9.5056 0.31674,2.15509 0.63388,4.31012 0.95141,6.46509 0.62733,4.26117 1.25254,8.52265 1.87573,12.78443 1.08826,7.4393 2.19272,14.87617 3.29786,22.31298 0.52135,3.52076 1.04196,7.04163 1.5625,10.5625 -5.94,0.495 -5.94,0.495 -12,1 -0.2293,-1.51795 -0.45859,-3.0359 -0.69483,-4.59985 -2.55449,-16.81086 -5.28939,-33.58801 -8.09887,-50.35797 -0.44717,-2.67205 -0.89248,-5.3444 -1.33778,-8.01676 -0.5412,-3.24691 -1.08379,-6.49358 -1.62634,-9.74026 -0.19586,-1.17409 -0.39173,-2.34818 -0.59353,-3.55785 -0.28072,-1.67474 -0.28072,-1.67474 -0.56711,-3.38331 -0.17759,-1.06065 -0.35518,-2.1213 -0.53815,-3.21408 -0.70184,-4.04257 -1.48162,-8.06899 -2.28238,-12.09307 -0.0861,-0.67216 -0.17227,-1.34432 -0.26101,-2.03685 0.33,-0.33 0.66,-0.66 1,-1 z"
       fill="#b9b091"
       id="path58"
       style="fill:#a59c77;fill-opacity:1" />
    <path
       d="m 912.9329,370.46437 c 4.67026,4.26416 6.65848,8.42197 7.2539,14.66016 0.35017,8.75419 -1.09377,16.5631 -6.8164,23.40234 -4.96465,3.94626 -4.96465,3.94626 -8.8125,3.875 -4.40777,-1.13994 -5.86864,-2.33891 -8.625,-5.9375 -3.36491,-5.95952 -3.85234,-12.28669 -3,-19 1.78064,-6.32781 5.27733,-11.46623 10,-16 3.24293,-1.62146 6.50664,-1.70403 10,-1 z"
       fill="#9d6e21"
       id="path60"
       style="fill:#af8f4e;fill-opacity:1" />
    <path
       d="m 282.9329,674.46437 c 1.46022,0.95546 2.91811,1.91447 4.375,2.875 0.81211,0.53368 1.62422,1.06735 2.46093,1.61719 2.16407,1.50781 2.16407,1.50781 4.16407,3.50781 0.22874,2.56971 0.33259,4.99283 0.3125,7.5625 -0.005,0.72365 -0.01,1.4473 -0.0149,2.19287 -0.15483,7.08389 -1.38554,12.89301 -5.54761,18.74463 -3.4067,3.097 -5.16398,3.66092 -9.75,3.5 -6.70396,-3.08382 -9.7361,-8.74995 -12.3125,-15.375 -0.8701,-4.58777 -0.85602,-8.97199 -0.6875,-13.625 0.72445,-0.37511 1.4489,-0.75023 2.19531,-1.13672 5.43837,-2.8787 10.26951,-5.69582 14.80469,-9.86328 z"
       fill="#924e0d"
       id="path62"
       style="fill:#aa7833;fill-opacity:1" />
    <path
       d="m 220.9329,244.46437 c 0.99,0.33 1.98,0.66 3,1 0.97726,2.35279 1.73825,4.56317 2.4375,7 0.21463,0.71986 0.42925,1.43973 0.65039,2.1814 2.29859,7.86519 4.14402,15.82064 5.91211,23.8186 0.20657,0.9183 0.41314,1.8366 0.62597,2.78272 1.32318,5.88221 2.59465,11.77242 3.82227,17.67529 0.46989,2.16481 0.99461,4.29912 1.55957,6.44043 1.83799,7.99041 -0.0906,12.76798 -4.11328,19.61719 -1.89453,2.48437 -1.89453,2.48437 -4.89453,3.48437 -2.36492,-12.0373 -4.37282,-24.11655 -6.21704,-36.24389 -0.31296,-2.0413 -0.63195,-4.08169 -0.95704,-6.1211 -5.47084,-34.34518 -5.47084,-34.34518 -1.82592,-41.63501 z"
       fill="#b8af90"
       id="path64"
       style="fill:#a59c77;fill-opacity:1" />
    <path
       d="m 773.9329,400.46437 c 0.0142,0.93457 0.0284,1.86914 0.043,2.83203 0.38071,10.48519 2.43968,19.84537 5.33935,29.90186 1.01491,3.72348 1.82277,7.49045 2.61768,11.26611 -3.72957,-0.30784 -7.45857,-0.62209 -11.1875,-0.9375 -1.0551,-0.087 -2.1102,-0.17402 -3.19727,-0.26367 -1.02158,-0.087 -2.04316,-0.17402 -3.0957,-0.26367 -1.40609,-0.11783 -1.40609,-0.11783 -2.84058,-0.23804 -2.60461,-0.28887 -5.11893,-0.74288 -7.67895,-1.29712 0.14099,-0.68401 0.28198,-1.36801 0.42724,-2.07275 3.79999,-18.37583 3.79999,-18.37583 6.57276,-36.92725 1.60341,-0.33692 3.20776,-0.66941 4.8125,-1 0.89332,-0.18562 1.78664,-0.37125 2.70703,-0.5625 2.48047,-0.4375 2.48047,-0.4375 5.48047,-0.4375 z"
       fill="#a36a17"
       id="path66"
       style="fill:#af8f4e;fill-opacity:1" />
    <path
       d="m 307.9329,457.46437 c 3.93103,1.48782 7.58774,3.30665 11.3125,5.25 7.65265,3.92186 15.59258,6.87999 23.6875,9.75 0,1.32 0,2.64 0,4 -1.05188,-0.31711 -2.10375,-0.63422 -3.1875,-0.96093 -5.86987,-1.46747 -11.79061,-1.49852 -17.8125,-1.66407 -1.15629,-0.0387 -2.31258,-0.0773 -3.50391,-0.11718 -2.83188,-0.0936 -5.66376,-0.17935 -8.49609,-0.25782 -1.48079,-2.96157 -1.35314,-5.83506 -1.5625,-9.125 -0.0838,-1.28132 -0.16758,-2.56265 -0.25391,-3.88281 -0.0606,-0.98742 -0.12117,-1.97484 -0.18359,-2.99219 z"
       fill="#f6f6f2"
       id="path68" />
    <path
       d="m 916.3079,555.15187 c 2.625,0.3125 2.625,0.3125 4.23437,2.02735 2.34368,3.85126 2.52384,7.84011 2.39063,12.28515 -1.29589,3.4557 -2.4123,5.4123 -5,8 -1.875,0 -1.875,0 -4,-1 -3.43971,-3.91744 -4.58948,-6.95467 -4.33594,-12.03515 0.72191,-4.22236 2.19359,-8.68296 6.71094,-9.27735 z"
       fill="#e2ad3d"
       id="path70" />
    <path
       d="m 740.9329,662.46437 c 0.99,0.33 1.98,0.66 3,1 0.41278,25.97016 0.41278,25.97016 -2,37 -0.33,0 -0.66,0 -1,0 0,-12.54 0,-25.08 0,-38 z"
       fill="#543909"
       id="path76" />
    <path
       d="m 379.9329,480.46437 c 1.23139,3.69419 0.64432,6.20563 0,10 -1.85777,-3.13498 -2.20141,-5.37471 -2,-9 0.66,-0.33 1.32,-0.66 2,-1 z"
       fill="#593c06"
       id="path262" />
    <path
       d="m 767.57718,882.08236 c 0.1911,0.73525 0.38221,1.4705 0.5791,2.22803 0.88364,3.3841 1.7772,6.76551 2.6709,10.14697 0.30035,1.15629 0.6007,2.31258 0.91016,3.50391 1.66501,6.27036 3.50329,12.15423 6.29199,18.02197 0.54785,2.09912 0.54785,2.09912 -0.25659,4.27588 -2.37891,3.62787 -5.85993,6.10493 -9.19556,8.82324 -0.9423,0.77859 -1.88461,1.55719 -2.85547,2.35938 -7.56903,6.11765 -15.53094,10.96901 -24.11279,15.53076 -2.056,1.12311 -4.0608,2.31031 -6.0669,3.52002 -10.71556,6.34249 -10.71556,6.34249 -15.65234,5.21484 -1.44305,-0.5267 -2.88036,-1.06932 -4.3125,-1.625 -15.60749,-3.54406 -31.00339,-1.781 -46.6875,0.0625 -2.5681,0.3003 -5.13635,0.59799 -7.70576,0.88683 -1.58232,0.17791 -3.16392,0.36228 -4.7446,0.5541 -6.83897,0.76987 -6.83897,0.76987 -9.86214,-0.50343 -1.92188,-2.06641 -1.92188,-2.06641 -3.75,-4.5625 -0.61359,-0.82629 -1.22719,-1.65258 -1.85938,-2.50391 -0.4589,-0.63808 -0.91781,-1.27617 -1.39062,-1.93359 2.55584,-1.27792 3.28975,-0.71373 6,0 1.70449,0.14159 3.4149,0.22009 5.125,0.25 0.86883,0.0258 1.73766,0.0516 2.63281,0.0781 9.50694,-0.96215 18.07394,-5.30715 26.61719,-9.32813 0.61338,-0.28756 1.22676,-0.57512 1.85873,-0.87139 29.05,-13.64397 58.98952,-30.48014 82.27018,-52.8708 1.49609,-1.25781 1.49609,-1.25781 3.49609,-1.25781 z"
       fill="#fbedbe"
       id="path46"
       style="fill:#f7ecca;fill-opacity:1" />
    <path
       d="m 528.18045,424.54726 c 18.184,0.347 36.435,9.817 49.153,22.389 5.957,6.435 9.507,12.19 9.211,21.113 -0.238,1.883 -0.238,1.883 -1.238,3.883 -3.973,0.294 -5.797,-0.146 -8.863,-2.676 l -2.162,-1.742 -2.287,-1.894 a 1583.662,1583.662 0 0 0 -4.875,-3.887 l -2.461,-1.959 c -14.561,-11.407 -30.765,-20.721 -47.352,-28.842 -0.043,-1.666 -0.04,-3.334 0,-5 2.258,-2.258 7.757,-1.371 10.874,-1.385 z"
       fill="#503c20"
       id="path66-36-2" />
    <path
       d="m 551.45845,387.22726 c 20.1,-3.713 42.572,1.453 59.733,10.875 8.175,4.946 13.53,9.764 15.45,18.53 0.21,1.888 0.21,1.888 -0.387,4.061 -4.299,1.172 -6.417,1.15 -10.428,-0.634 l -2.818,-1.217 -2.994,-1.337 c -2.113,-0.904 -4.227,-1.805 -6.344,-2.702 l -3.201,-1.361 c -18.896,-7.877 -39.073,-13.346 -59.373,-17.567 a 90.435,90.435 0 0 1 -1.258,-4.874 c 1.917,-2.705 8.193,-3.066 11.62,-3.774 z"
       fill="#503c20"
       style="stroke-width:1.06256"
       id="path68-1-9" />
  </g>
  <defs
     id="defs272" />
  <sodipodi:namedview
     id="namedview270"
     pagecolor="#ffffff"
     bordercolor="#666666"
     borderopacity="1.0"
     inkscape:pageshadow="2"
     inkscape:pageopacity="0.0"
     inkscape:pagecheckerboard="0"
     showgrid="false"
     inkscape:zoom="0.20094538"
     inkscape:cx="2401.15"
     inkscape:cy="201.5473"
     inkscape:window-width="2490"
     inkscape:window-height="1376"
     inkscape:window-x="2560"
     inkscape:window-y="27"
     inkscape:window-maximized="1"
     inkscape:current-layer="svg268"
     fit-margin-top="0"
     fit-margin-left="0"
     fit-margin-right="0"
     fit-margin-bottom="0"
     inkscape:snap-global="false" />
</svg>
