<svg xmlns="http://www.w3.org/2000/svg" width="37mm" height="37mm" viewBox="0 0 37 37"><path d="M30.434 30.566H6.566a.111.111 0 0 1-.112-.111V17.19c0-.493.4-.892.893-.892h22.306c.493 0 .893.4.893.892v13.264c0 .061-.05.111-.112.111z" fill="#895438"/><path d="M19.392 22.987h-1.784a.446.446 0 0 1-.446-.446v-1.282c0-.03.025-.056.055-.056h2.566c.03 0 .055.025.055.056v1.282c0 .246-.2.446-.446.446z" fill="#ffb432"/><path d="M29.653 16.3v4.903H7.347V16.3c-.493 0-.893.4-.893.892v4.904H30.546v-4.904c0-.493-.4-.892-.893-.892z" fill="#ffc83c"/><g fill="#ffb432"><path d="M7.347 16.3h.892v4.903h-.892zM28.761 16.3h.892v4.903h-.892z"/><path d="M7.347 20.312h22.306v.891H7.347z"/></g><path fill="#6c392c" d="M8.239 17.637H28.76v.891H8.24z"/><path d="M30.546 35.651H6.454a.892.892 0 0 1-.892-.891V22.276c0-.492.4-.891.892-.891h24.092c.493 0 .892.399.892.891V34.76c0 .492-.4.891-.892.891z" fill="#ffc83c"/><path fill="#895438" d="M7.347 23.168h22.306v10.7H7.347z"/><path d="M30.546 34.76H6.454V22.276h24.092zm-23.2-.892h22.307v-10.7H7.347z" fill="#ffb432"/><g fill="#6c392c"><path d="M7.347 25.843h22.306v.892H7.347zM7.347 30.301h22.306v.892H7.347z"/></g><path d="M18.5 26.735a1.784 1.784 0 0 1-1.785-1.784v-2.675h3.57v2.675c0 .985-.8 1.784-1.785 1.784z" fill="#ffb432"/><g transform="matrix(.05054 0 0 .0505 .508 10.016)" fill="#6c392c"><circle cx="356" cy="278.069" r="8.828"/><path d="M356 304.552a4.414 4.414 0 0 1-4.414-4.414v-21.517c0-.305.247-.552.552-.552h7.724c.305 0 .552.247.552.552v21.517a4.414 4.414 0 0 1-4.414 4.414z"/></g><g transform="matrix(0 .58881 -.58921 0 409.052 -687.224)"><circle cx="-662.839" cy="1180.659" r="10.52" transform="rotate(-90)" fill="#8bb92d" stroke="#00ce00" stroke-width=".131"/><path d="M1188.558 662.838a.306.306 0 0 1-.12.245l-7.533 5.792a.31.31 0 0 1-.373.002.31.31 0 0 1-.101-.359l1.515-3.835h-8.879a.308.308 0 0 1-.307-.308v-3.073c0-.17.138-.307.308-.307h8.879l-1.516-3.835a.307.307 0 0 1 .102-.359.306.306 0 0 1 .372.002l7.534 5.792c.075.058.12.148.12.243zm3.312.001c0 6.181-5.029 11.21-11.21 11.21-6.182 0-11.211-5.029-11.211-11.21 0-6.182 5.029-11.21 11.21-11.21 6.182 0 11.211 5.028 11.211 11.21zm-1.23 0c0-5.504-4.477-9.981-9.98-9.981-5.504 0-9.982 4.477-9.982 9.981 0 5.503 4.477 9.981 9.981 9.981s9.982-4.478 9.982-9.981z" stroke="#000" stroke-width=".048"/></g></svg>