<svg xmlns="http://www.w3.org/2000/svg" width="37mm" height="37mm" viewBox="0 0 37 37"><path d="M30.434 30.568H6.566a.112.112 0 0 1-.112-.111V17.19c0-.493.4-.892.893-.892h22.306c.493 0 .893.4.893.892v13.266c0 .061-.05.111-.112.111z" fill="#895438"/><path d="M19.392 22.988h-1.784a.446.446 0 0 1-.446-.446V21.26c0-.031.025-.056.055-.056h2.566c.03 0 .055.025.055.056v1.282c0 .246-.2.446-.446.446z" fill="#ffb432"/><path d="M29.653 16.299v4.905H7.347v-4.905c-.493 0-.893.4-.893.892v4.905H30.546V17.19c0-.493-.4-.892-.893-.892z" fill="#ffc83c"/><g fill="#ffb432"><path d="M7.347 16.299h.892v4.905h-.892zM28.761 16.299h.892v4.905h-.892z"/><path d="M7.347 20.312h22.306v.892H7.347z"/></g><path fill="#6c392c" d="M8.239 17.637H28.76v.891H8.24z"/><path d="M30.546 35.654H6.454a.892.892 0 0 1-.892-.891V22.277c0-.493.4-.892.892-.892h24.092c.493 0 .892.4.892.892v12.486c0 .492-.4.891-.892.891z" fill="#ffc83c"/><path fill="#895438" d="M7.347 23.169h22.306V33.87H7.347z"/><path d="M30.546 34.763H6.454V22.277h24.092zm-23.2-.892h22.307V23.169H7.347z" fill="#ffb432"/><g fill="#6c392c"><path d="M7.347 25.844h22.306v.892H7.347zM7.347 30.303h22.306v.892H7.347z"/></g><path d="M18.5 26.736a1.784 1.784 0 0 1-1.785-1.784v-2.675h3.57v2.675c0 .985-.8 1.784-1.785 1.784z" fill="#ffb432"/><g transform="matrix(.05054 0 0 .05051 .508 10.014)" fill="#6c392c"><circle r="8.828" cy="278.069" cx="356"/><path d="M356 304.552a4.414 4.414 0 0 1-4.414-4.414v-21.517c0-.305.247-.552.552-.552h7.724c.305 0 .552.247.552.552v21.517a4.414 4.414 0 0 1-4.414 4.414z"/></g><g transform="matrix(0 .58892 -.58921 0 409.052 -687.352)"><circle transform="rotate(-90)" r="10.52" cy="1180.659" cx="-662.839" fill="#cb412d" stroke="#00ce00" stroke-width=".131"/><path d="M1172.76 662.84c0-.097.045-.187.12-.245l7.534-5.792a.31.31 0 0 1 .373-.002.31.31 0 0 1 .1.358l-1.514 3.836h8.878c.17 0 .308.137.308.307v3.073c0 .17-.138.308-.308.308h-8.879l1.516 3.835a.307.307 0 0 1-.102.358.306.306 0 0 1-.372-.002l-7.535-5.791a.308.308 0 0 1-.119-.244zm-3.311-.001c0-6.182 5.029-11.21 11.21-11.21 6.182 0 11.211 5.028 11.211 11.21 0 6.181-5.03 11.21-11.21 11.21-6.182 0-11.211-5.029-11.211-11.21zm1.23 0c0 5.504 4.477 9.98 9.98 9.98 5.504 0 9.982-4.477 9.982-9.98 0-5.504-4.478-9.981-9.982-9.981-5.503 0-9.98 4.477-9.98 9.98z" stroke="#000" stroke-width=".048"/></g></svg>