<svg xmlns="http://www.w3.org/2000/svg" width="37mm" height="37mm" viewBox="0 0 37 37"><path d="M30.434 30.569H6.566a.112.112 0 0 1-.112-.112V17.191c0-.493.4-.892.893-.892h22.306c.493 0 .893.399.893.892v13.266c0 .062-.05.112-.112.112z" fill="#895438"/><path d="M19.392 22.988h-1.784a.446.446 0 0 1-.446-.446V21.26c0-.031.025-.056.055-.056h2.566c.03 0 .055.025.055.056v1.282c0 .246-.2.446-.446.446z" fill="#ffb432"/><path d="M29.653 16.299v4.905H7.347v-4.905c-.493 0-.893.399-.893.892v4.905H30.546V17.19c0-.493-.4-.892-.893-.892z" fill="#ffc83c"/><g fill="#ffb432"><path d="M7.347 16.299h.892v4.905h-.892zM28.761 16.299h.892v4.905h-.892z"/><path d="M7.347 20.312h22.306v.892H7.347z"/></g><path fill="#6c392c" d="M8.239 17.637H28.76v.891H8.24z"/><path d="M30.546 35.655H6.454a.892.892 0 0 1-.892-.892V22.277c0-.493.4-.892.892-.892h24.092c.493 0 .892.4.892.892v12.486c0 .493-.4.892-.892.892z" fill="#ffc83c"/><path fill="#895438" d="M7.347 23.169h22.306V33.87H7.347z"/><path d="M30.546 34.763H6.454V22.277h24.092zm-23.2-.892h22.307V23.17H7.347z" fill="#ffb432"/><g fill="#6c392c"><path d="M7.347 25.844h22.306v.892H7.347zM7.347 30.304h22.306v.892H7.347z"/></g><path d="M18.5 26.736a1.784 1.784 0 0 1-1.785-1.783v-2.676h3.57v2.676c0 .985-.8 1.783-1.785 1.783z" fill="#ffb432"/><g transform="matrix(.05054 0 0 .05052 .508 10.014)" fill="#6c392c"><circle cx="356" cy="278.069" r="8.828"/><path d="M356 304.552a4.414 4.414 0 0 1-4.414-4.414v-21.517c0-.305.247-.552.552-.552h7.724c.305 0 .552.247.552.552v21.517a4.414 4.414 0 0 1-4.414 4.414z"/></g><g><path d="M1169.449 662.839c0-6.182 5.029-11.21 11.21-11.21 6.182 0 11.211 5.028 11.211 11.21 0 6.181-5.03 11.21-11.21 11.21-6.182 0-11.211-5.029-11.211-11.21zm1.23 0c0 5.504 4.477 9.98 9.98 9.98 5.504 0 9.982-4.477 9.982-9.98 0-5.504-4.478-9.981-9.982-9.981-5.503 0-9.98 4.477-9.98 9.98z" stroke="#000" stroke-width=".048" transform="matrix(0 .58894 -.58921 0 409.052 -687.373)"/><g transform="matrix(.11059 0 0 .11053 11.423 .887)"><circle r="58" cy="64" cx="64" class="cls-1" fill="#f8dc25"/><path d="M53 107a71.65 71.65 0 0 1-36.75-10.09A58 58 0 0 0 121.56 57 72 72 0 0 1 53 107z" class="cls-2" opacity=".7" fill="#f2bc0f"/><path d="M24.94 69.47a9.94 9.94 0 1 1 19.88 0M83.18 69.47a9.94 9.94 0 1 1 19.88 0" class="cls-3" fill="none" stroke="#393c54" stroke-width="4" stroke-linecap="round" stroke-miterlimit="10"/><path class="cls-4" opacity=".5" fill="none" stroke="#f2bc0f" stroke-width="4" stroke-linecap="round" stroke-linejoin="round" d="M83 44l16 4M29 48l16-4"/><ellipse ry="6.73" rx="12" cy="82.03" cx="28.63" class="cls-5" opacity=".7" fill="#f85565"/><ellipse ry="6.73" rx="12" cy="82.03" cx="99.67" class="cls-5" opacity=".7" fill="#f85565"/><path d="M83 91.22a38 38 0 0 1-38 0M82.5 89a9.79 9.79 0 0 0 5 5M45.5 89a9.79 9.79 0 0 1-5 5" class="cls-3" fill="none" stroke="#393c54" stroke-width="4" stroke-linecap="round" stroke-miterlimit="10"/></g></g></svg>