<svg xmlns="http://www.w3.org/2000/svg" width="37mm" height="37mm" viewBox="0 0 37 37"><path d="M30.17 30.566H6.83a.11.11 0 0 1-.11-.112V17.191c0-.493.391-.892.873-.892h21.814c.482 0 .872.4.872.892v13.263a.11.11 0 0 1-.109.112z" fill="#895438"/><path d="M19.373 22.987h-1.746c-.24 0-.436-.2-.436-.446v-1.282c0-.03.025-.056.055-.056h2.508c.03 0 .055.025.055.056v1.282a.441.441 0 0 1-.436.446z" fill="#ffb432"/><path d="M29.407 16.3v4.903H7.593V16.3c-.482 0-.872.4-.872.892v4.904h23.558v-4.904a.882.882 0 0 0-.872-.892z" fill="#ffc83c"/><g fill="#ffb432"><path d="M7.593 16.3h.873v4.903h-.873zM28.534 16.3h.873v4.903h-.873z"/><path d="M7.593 20.312h21.814v.891H7.593z"/></g><path fill="#6c392c" d="M8.466 17.637h20.068v.891H8.466z"/><path d="M30.28 35.65H6.72a.882.882 0 0 1-.872-.89V22.275c0-.492.39-.892.873-.892h23.558c.482 0 .873.4.873.892V34.76c0 .493-.39.892-.873.892z" fill="#ffc83c"/><path fill="#895438" d="M7.593 23.168h21.814v10.7H7.593z"/><path d="M30.28 34.76H6.72V22.275h23.56zm-22.687-.892h21.814v-10.7H7.593z" fill="#ffb432"/><g fill="#6c392c"><path d="M7.593 25.843h21.814v.891H7.593zM7.593 30.301h21.814v.892H7.593z"/></g><path d="M18.5 26.734c-.964 0-1.745-.798-1.745-1.783v-2.675h3.49v2.675c0 .985-.781 1.783-1.745 1.783z" fill="#ffb432"/><g transform="matrix(.04942 0 0 .0505 .906 10.016)" fill="#6c392c"><circle cx="356" cy="278.069" r="8.828"/><path d="M356 304.552a4.414 4.414 0 0 1-4.414-4.414v-21.517c0-.305.247-.552.552-.552h7.724c.305 0 .552.247.552.552v21.517a4.414 4.414 0 0 1-4.414 4.414z"/></g><g><g transform="matrix(0 .5888 .57618 0 -356.952 -687.21)"><circle transform="rotate(-90)" r="10.52" cy="1180.659" cx="-662.839" fill="#cb412d" stroke="#00ce00" stroke-width=".131"/><path d="M1172.76 662.84c0-.097.045-.187.12-.245l7.534-5.792a.31.31 0 0 1 .373-.002.31.31 0 0 1 .1.358l-1.514 3.836h8.878c.17 0 .308.137.308.307v3.073c0 .17-.138.308-.308.308h-8.879l1.516 3.835a.307.307 0 0 1-.102.358.306.306 0 0 1-.372-.002l-7.535-5.791a.308.308 0 0 1-.119-.244zm-3.311-.001c0-6.182 5.029-11.21 11.21-11.21 6.182 0 11.211 5.028 11.211 11.21 0 6.181-5.03 11.21-11.21 11.21-6.182 0-11.211-5.029-11.211-11.21zm1.23 0c0 5.504 4.477 9.98 9.98 9.98 5.504 0 9.982-4.477 9.982-9.98 0-5.504-4.478-9.981-9.982-9.981-5.503 0-9.98 4.477-9.98 9.98z" stroke="#000" stroke-width=".048"/></g><g transform="matrix(0 .5888 .57618 0 -369.882 -687.21)"><circle transform="rotate(-90)" r="10.52" cy="1180.659" cx="-662.839" fill="#8bb92d" stroke="#00ce00" stroke-width=".131"/><path d="M1188.558 662.838a.306.306 0 0 1-.12.245l-7.533 5.792a.31.31 0 0 1-.373.002.31.31 0 0 1-.101-.359l1.515-3.835h-8.879a.308.308 0 0 1-.307-.308v-3.073c0-.17.138-.307.308-.307h8.879l-1.516-3.835a.307.307 0 0 1 .102-.359.306.306 0 0 1 .372.002l7.534 5.792c.075.058.12.148.12.243zm3.312.001c0 6.181-5.029 11.21-11.21 11.21-6.182 0-11.211-5.029-11.211-11.21 0-6.182 5.029-11.21 11.21-11.21 6.182 0 11.211 5.028 11.211 11.21zm-1.23 0c0-5.504-4.477-9.981-9.98-9.981-5.504 0-9.982 4.477-9.982 9.981 0 5.503 4.477 9.981 9.981 9.981s9.982-4.478 9.982-9.981z" stroke="#000" stroke-width=".048"/></g></g></svg>