<?xml version="1.0" encoding="UTF-8" standalone="no"?>
<!-- Created with Inkscape (http://www.inkscape.org/) -->

<svg
   version="1.0"
   width="280"
   height="280"
   id="svg2"
   sodipodi:version="0.32"
   inkscape:version="1.1.2 (0a00cf5339, 2022-02-04)"
   sodipodi:docname="0.svg"
   inkscape:output_extension="org.inkscape.output.svg.inkscape"
   inkscape:export-filename="/mnt/nfs/geokrety/templates/logo-jesien.png"
   inkscape:export-xdpi="131.54472"
   inkscape:export-ydpi="131.54472"
   xmlns:inkscape="http://www.inkscape.org/namespaces/inkscape"
   xmlns:sodipodi="http://sodipodi.sourceforge.net/DTD/sodipodi-0.dtd"
   xmlns="http://www.w3.org/2000/svg"
   xmlns:svg="http://www.w3.org/2000/svg"
   xmlns:rdf="http://www.w3.org/1999/02/22-rdf-syntax-ns#"
   xmlns:cc="http://creativecommons.org/ns#"
   xmlns:dc="http://purl.org/dc/elements/1.1/">
  <metadata
     id="metadata32">
    <rdf:RDF>
      <cc:Work
         rdf:about="">
        <dc:format>image/svg+xml</dc:format>
        <dc:type
           rdf:resource="http://purl.org/dc/dcmitype/StillImage" />
      </cc:Work>
    </rdf:RDF>
  </metadata>
  <sodipodi:namedview
     inkscape:window-height="1376"
     inkscape:window-width="2490"
     inkscape:pageshadow="2"
     inkscape:pageopacity="0.0"
     guidetolerance="10.0"
     gridtolerance="10.0"
     objecttolerance="10.0"
     borderopacity="1.0"
     bordercolor="#666666"
     pagecolor="#ffffff"
     id="base"
     showgrid="false"
     inkscape:zoom="1.3142466"
     inkscape:cx="269.73629"
     inkscape:cy="278.10611"
     inkscape:window-x="2560"
     inkscape:window-y="27"
     inkscape:current-layer="svg2"
     inkscape:window-maximized="1"
     fit-margin-top="0"
     fit-margin-left="0"
     fit-margin-right="0"
     fit-margin-bottom="0"
     inkscape:pagecheckerboard="0"
     inkscape:snap-bbox="true"
     inkscape:bbox-nodes="true"
     showguides="true"
     inkscape:guide-bbox="true"
     inkscape:snap-smooth-nodes="true"
     inkscape:snap-intersection-paths="true">
    <sodipodi:guide
       position="0.0031022925,2.3378902"
       orientation="1,0"
       id="guide141595" />
    <sodipodi:guide
       position="0.0031022925,280"
       orientation="0,-1"
       id="guide142293" />
    <sodipodi:guide
       position="280,0"
       orientation="0,1"
       id="guide142375"
       inkscape:label=""
       inkscape:locked="false"
       inkscape:color="rgb(0,0,255)" />
    <sodipodi:guide
       position="280,0"
       orientation="1,0"
       id="guide142377" />
    <sodipodi:guide
       position="51.343263,259.99982"
       orientation="0,-1"
       id="guide148053" />
  </sodipodi:namedview>
  <defs
     id="defs4">
    <inkscape:path-effect
       effect="skeletal"
       id="path-effect147502"
       is_visible="true"
       lpeversion="1"
       pattern="m 14.504818,14.021376 h 0.89489"
       copytype="repeated_stretched"
       prop_scale="1"
       scale_y_rel="false"
       spacing="0"
       normal_offset="0"
       tang_offset="0"
       prop_units="false"
       vertical_pattern="false"
       hide_knot="false"
       fuse_tolerance="0" />
    <inkscape:path-effect
       effect="skeletal"
       id="path-effect143447"
       is_visible="true"
       lpeversion="1"
       pattern="M 3.3370863,9.9999945e-8 A 3.3339844,3.3339844 0 0 1 0.00310229,3.3339844 3.3339844,3.3339844 0 0 1 -3.3308827,9.9999945e-8 3.3339844,3.3339844 0 0 1 0.00310229,-3.3339843 3.3339844,3.3339844 0 0 1 3.3370863,9.9999945e-8 Z"
       copytype="repeated"
       prop_scale="1"
       scale_y_rel="false"
       spacing="1.7"
       normal_offset="0"
       tang_offset="0"
       prop_units="false"
       vertical_pattern="false"
       hide_knot="false"
       fuse_tolerance="0" />
    <inkscape:path-effect
       effect="skeletal"
       id="path-effect143425"
       is_visible="true"
       lpeversion="1"
       pattern="M 3.3370863,9.9999945e-8 A 3.3339844,3.3339844 0 0 1 0.00310229,3.3339844 3.3339844,3.3339844 0 0 1 -3.3308827,9.9999945e-8 3.3339844,3.3339844 0 0 1 0.00310229,-3.3339843 3.3339844,3.3339844 0 0 1 3.3370863,9.9999945e-8 Z"
       copytype="repeated_stretched"
       prop_scale="0.04"
       scale_y_rel="false"
       spacing="3.2"
       normal_offset="0.1"
       tang_offset="0"
       prop_units="false"
       vertical_pattern="false"
       hide_knot="false"
       fuse_tolerance="0" />
    <inkscape:path-effect
       effect="skeletal"
       id="path-effect143106"
       is_visible="true"
       lpeversion="1"
       pattern="m 14.504818,14.021376 h 0.89489"
       copytype="repeated_stretched"
       prop_scale="1"
       scale_y_rel="false"
       spacing="0"
       normal_offset="0"
       tang_offset="0"
       prop_units="false"
       vertical_pattern="false"
       hide_knot="false"
       fuse_tolerance="0" />
    <inkscape:path-effect
       effect="skeletal"
       id="path-effect143090"
       is_visible="true"
       lpeversion="1"
       pattern="M 0,0 H 1"
       copytype="repeated_stretched"
       prop_scale="1"
       scale_y_rel="false"
       spacing="0"
       normal_offset="0"
       tang_offset="0"
       prop_units="false"
       vertical_pattern="false"
       hide_knot="false"
       fuse_tolerance="0" />
    <inkscape:perspective
       sodipodi:type="inkscape:persp3d"
       inkscape:vp_x="0 : 17.129309 : 1"
       inkscape:vp_y="0 : 1000 : 0"
       inkscape:vp_z="197.98587 : 17.129309 : 1"
       inkscape:persp3d-origin="98.992935 : 11.419539 : 1"
       id="perspective34" />
    <inkscape:perspective
       id="perspective2736"
       inkscape:persp3d-origin="372.04724 : 350.78739 : 1"
       inkscape:vp_z="744.09448 : 526.18109 : 1"
       inkscape:vp_y="0 : 1000 : 0"
       inkscape:vp_x="0 : 526.18109 : 1"
       sodipodi:type="inkscape:persp3d" />
    <inkscape:perspective
       id="perspective3687"
       inkscape:persp3d-origin="372.04724 : 350.78739 : 1"
       inkscape:vp_z="744.09448 : 526.18109 : 1"
       inkscape:vp_y="0 : 1000 : 0"
       inkscape:vp_x="0 : 526.18109 : 1"
       sodipodi:type="inkscape:persp3d" />
    <inkscape:perspective
       id="perspective3743"
       inkscape:persp3d-origin="0.5 : 0.33333333 : 1"
       inkscape:vp_z="1 : 0.5 : 1"
       inkscape:vp_y="0 : 1000 : 0"
       inkscape:vp_x="0 : 0.5 : 1"
       sodipodi:type="inkscape:persp3d" />
  </defs>
  <g
     id="g132250"
     transform="matrix(0.86138481,0,0,0.86138481,21.188377,19.406127)">
    <path
       inkscape:connector-curvature="0"
       sodipodi:nodetypes="cssz"
       id="path2825-3"
       d="m 176.43463,135.03879 c 18.37101,14.20691 80.97147,55.50236 86.51965,65.76895 4.16375,7.70477 -5.04858,22.2462 -12.12633,19.4203 -15.21332,-6.07414 -8.38663,-13.7404 -72.43881,-64.1197"
       style="fill:#e9c642;fill-opacity:1;fill-rule:evenodd;stroke:#000000;stroke-width:3.72475;stroke-linecap:round;stroke-linejoin:round;stroke-miterlimit:4;stroke-dasharray:none;stroke-opacity:1" />
    <path
       inkscape:connector-curvature="0"
       sodipodi:nodetypes="cscszczzzzzzzzzczzzzzz"
       id="path2827-5"
       d="m 178.77387,194.38287 c 3.1236,-1.65591 16.7792,-4.21003 19.6505,-8.07719 2.87061,-3.86625 0.87374,-8.54882 2.18307,-11.80327 3.35675,2.53688 9.08581,3.93104 11.02717,3.05777 1.82016,-0.81875 5.92056,-7.84807 5.95376,-10.61012 0.0332,-2.76207 -2.73476,-4.87198 -4.47668,-5.89385 7.15667,-4.66143 11.70203,-4.60682 16.80348,-3.38751 5.10145,1.21931 3.63318,4.28292 6.4751,6.0926 2.77244,1.76543 4.99956,0.85655 6.79104,2.5696 1.79148,1.71304 2.06314,4.61668 4.02046,6.85707 2.00508,2.29507 3.50009,1.2299 5.70945,4.08325 2.20936,2.85336 1.49473,4.4583 2.93794,7.62703 1.44321,3.16875 5.20116,1.66521 1.16722,9.48257 -3.91208,7.5812 -8.60593,11.60282 -11.83914,14.14396 -3.31396,2.60462 -10.91562,4.91925 -12.59484,3.32813 -2.00288,-1.89782 -1.14016,-1.74232 -0.55473,-3.59596 -1.62071,0.68771 -2.47558,1.50059 -5.55689,2.03463 -3.0813,0.53403 -3.76726,-0.37325 -5.03395,-2.05196 -1.26669,-1.6787 1.57108,-5.54339 -0.0328,-4.66285 -1.60391,0.88054 -1.43207,4.99562 -6.3828,8.18502 -4.95072,3.18939 -12.68828,6.92148 -18.89719,7.99393 -6.20892,1.07244 -10.13945,-3.16153 -12.99335,-3.23222"
       style="fill:#d4af8b;fill-opacity:1;fill-rule:evenodd;stroke:#000000;stroke-width:3.72475;stroke-linecap:round;stroke-linejoin:round;stroke-miterlimit:4;stroke-dasharray:none;stroke-opacity:1" />
    <path
       inkscape:connector-curvature="0"
       sodipodi:nodetypes="cszz"
       id="path2829-6"
       d="m 204.69444,188.36922 c 8.43006,8.36223 21.68352,20.67869 32.36486,19.4651 4.97081,-0.56357 -3.9747,-18.90361 -11.03162,-26.04137 -7.05691,-7.13775 -16.55401,-2.99792 -19.14675,-1.3276"
       style="fill:none;fill-opacity:0.75;fill-rule:evenodd;stroke:#000000;stroke-width:3.72475;stroke-linecap:round;stroke-linejoin:round;stroke-miterlimit:4;stroke-dasharray:none;stroke-opacity:1" />
    <path
       inkscape:connector-curvature="0"
       sodipodi:nodetypes="cz"
       id="path2831-2"
       d="m 226.69435,181.58744 c 1.84265,-0.65101 5.48486,-5.03042 6.21169,-11.99016"
       style="fill:none;fill-opacity:0.75;fill-rule:evenodd;stroke:#000000;stroke-width:3.72475;stroke-linecap:round;stroke-linejoin:round;stroke-miterlimit:4;stroke-dasharray:none;stroke-opacity:1" />
    <path
       inkscape:connector-curvature="0"
       sodipodi:nodetypes="cz"
       id="path2833-9"
       d="m 234.92811,193.56655 c 3.63086,-4.25843 7.75139,-9.72713 8.51421,-14.60099"
       style="fill:none;fill-opacity:0.75;fill-rule:evenodd;stroke:#000000;stroke-width:3.72475;stroke-linecap:round;stroke-linejoin:round;stroke-miterlimit:4;stroke-dasharray:none;stroke-opacity:1" />
    <path
       inkscape:connector-curvature="0"
       sodipodi:nodetypes="cz"
       id="path2835-1"
       d="m 238.89915,205.37987 c 6.08311,-4.42047 10.2736,-9.70736 12.20786,-15.3172"
       style="fill:none;fill-opacity:0.75;fill-rule:evenodd;stroke:#000000;stroke-width:3.72475;stroke-linecap:round;stroke-linejoin:round;stroke-miterlimit:4;stroke-dasharray:none;stroke-opacity:1" />
    <path
       inkscape:connector-curvature="0"
       style="fill:#667b58;fill-opacity:1;fill-rule:evenodd;stroke:#000000;stroke-width:3.72509;stroke-linecap:butt;stroke-linejoin:round;stroke-miterlimit:4;stroke-dasharray:none;stroke-opacity:1"
       d="M 140.50712,82.851421 101.68093,151.29822 59.629955,135.29311 11.824671,81.278922 79.402574,58.685671 Z"
       id="path2839-7"
       sodipodi:nodetypes="cccccc" />
    <path
       inkscape:connector-curvature="0"
       style="fill:#c5c5c5;fill-opacity:1;fill-rule:evenodd;stroke:#000000;stroke-width:3.72509;stroke-linecap:butt;stroke-linejoin:round;stroke-miterlimit:4;stroke-dasharray:none;stroke-opacity:1"
       d="M 59.629955,135.29311 11.824671,81.278912 79.402575,58.685662 99.391618,66.912773 36.411341,87.706298 78.700159,142.38729 Z"
       id="path2841-0"
       sodipodi:nodetypes="ccccccc" />
    <path
       inkscape:connector-curvature="0"
       style="fill:#667b58;fill-opacity:1;fill-rule:evenodd;stroke:#000000;stroke-width:3.72509;stroke-linecap:butt;stroke-linejoin:round;stroke-miterlimit:4;stroke-dasharray:none;stroke-opacity:1"
       d="m 136.00278,115.5069 -9.32951,18.18268 c -13.3835,-10.06893 -54.875986,-29.18426 -45.997306,-37.230049 9.017542,-8.17162 34.831356,5.508529 55.326816,19.047369 z"
       id="path2843-9"
       sodipodi:nodetypes="cczc" />
    <path
       inkscape:connector-curvature="0"
       sodipodi:nodetypes="cccszscccczzc"
       id="path2845-3"
       d="m 195.64611,163.6553 c -2.37706,7.08687 -4.17143,36.01274 4.52244,57.65904 -71.11323,-2.46308 -75.25221,-29.57112 -128.478192,-41.54087 7.33612,-18.0679 16.796913,-27.58103 32.280452,-40.43944 6.91837,-5.74542 15.38155,-16.45361 22.11646,-23.3548 6.7349,-6.9012 12.36549,-11.78775 20.19078,-15.22469 14.42551,-6.335811 34.86812,-4.748635 47.35227,6.89379 -3.70262,0.91715 -12.66892,-0.14349 -12.59995,6.68197 0.65451,7.70575 -5.19508,11.21949 -10.33017,15.31591 -3.34309,3.60562 -1.4261,9.15645 -6.37698,11.2325 -0.23267,6.1738 2.06869,12.13265 5.43605,17.60775 3.51583,5.71645 7.16975,9.398 12.16139,12.77244 4.99163,3.37453 10.55175,-3.72355 13.72545,-7.6036 z"
       style="fill:#5d5d5d;fill-opacity:1;fill-rule:evenodd;stroke:#000000;stroke-width:3.72508;stroke-linecap:butt;stroke-linejoin:round;stroke-miterlimit:4;stroke-dasharray:none;stroke-opacity:1" />
    <path
       inkscape:connector-curvature="0"
       sodipodi:nodetypes="ccccczzczccczz"
       id="path2847-6"
       d="m 195.32195,163.24604 c -4.19496,4.73288 -8.73382,10.97813 -13.72545,7.6036 -4.99163,-3.37444 -8.64556,-7.05599 -12.16139,-12.77244 -3.36736,-5.4751 -5.66871,-11.43395 -5.43604,-17.60775 4.95087,-2.07605 3.03389,-7.62688 6.37698,-11.23251 5.13509,-4.09641 10.98468,-7.61015 10.33017,-15.3159 -0.069,-6.82555 10.34479,-5.68529 12.84112,-5.55216 2.6166,0.13959 17.0294,2.0846 21.75564,1.80286 3.27079,-2.41547 6.78899,-6.43492 8.93306,-7.82395 2.08821,-1.35284 4.86101,-4.734973 7.49904,-3.739232 8.2404,0.564243 6.24422,10.357922 5.79686,16.795402 -1.18596,8.42364 -12.09128,10.70504 -22.92258,19.02605 -8.02818,6.35121 -7.32605,6.87307 -12.14791,14.0771 -4.82185,7.20403 -2.94453,10.00605 -7.1395,14.73893 z"
       style="fill:#d4af8b;fill-opacity:1;fill-rule:evenodd;stroke:#000000;stroke-width:3.72508;stroke-linecap:butt;stroke-linejoin:round;stroke-miterlimit:4;stroke-dasharray:none;stroke-opacity:1" />
    <path
       inkscape:connector-curvature="0"
       sodipodi:nodetypes="cc"
       id="path2849-0"
       d="m 230.06437,108.34522 c 0.16901,4.30974 -1.33425,7.18313 -3.72985,8.25184"
       style="fill:none;fill-opacity:0.75;fill-rule:evenodd;stroke:#000000;stroke-width:4.65635;stroke-linecap:round;stroke-linejoin:miter;stroke-miterlimit:4;stroke-dasharray:none;stroke-opacity:1" />
    <path
       inkscape:connector-curvature="0"
       sodipodi:nodetypes="cccccccc"
       style="fill:#000000;fill-rule:nonzero;stroke:#000000;stroke-width:3.72508;stroke-linecap:round;stroke-linejoin:round;stroke-miterlimit:4;stroke-dasharray:none;stroke-opacity:1"
       class="fil58"
       d="m 188.62867,146.24843 c 1.4312,-0.0495 9.07228,-3.56819 10.10208,-4.10896 -2.47034,4.46615 -4.3796,5.40925 -6.92701,11.1792 -1.12231,3.18477 -3.13018,7.3763 -6.4273,9.49464 -4.88146,-3.70939 -5.30432,-10.95485 -7.55951,-16.42102 -6.14816,-4.10411 -10.29191,-11.13416 -15.89097,-10.07342 -1.33094,-3.20282 0.71816,-5.73175 0.78163,-8.68087 2.56861,13.84743 18.70391,18.77301 25.92108,18.61043 z"
       id="path2851-6" />
    <path
       inkscape:connector-curvature="0"
       style="fill:#ffffff;fill-rule:nonzero;stroke-width:1.32318"
       class="fil59"
       d="m 190.65753,154.71122 c -0.85675,0.75875 -7.25996,1.06349 -8.76892,0.69718 -0.59188,-1.3649 -1.07707,-5.45628 -1.9006,-7.08421 1.14653,0.0298 11.78995,0.98482 15.3596,-2.29384 -1.53479,1.61386 -5.18248,8.86208 -4.69008,8.68087 z"
       id="path2853-2" />
    <path
       inkscape:connector-curvature="0"
       sodipodi:nodetypes="czzc"
       id="path2855-6"
       d="m 154.56855,119.24192 c 4.60661,-1.38838 5.50231,-3.90267 9.54779,-5.55359 4.04549,-1.65092 4.0623,-1.39417 6.63415,-1.05 2.57186,0.34417 3.65326,2.42678 3.65326,2.42678"
       style="fill:none;fill-opacity:0.75;fill-rule:evenodd;stroke:#000000;stroke-width:3.72475;stroke-linecap:round;stroke-linejoin:round;stroke-miterlimit:4;stroke-dasharray:none;stroke-opacity:1" />
  </g>
  <g
     id="g143925" />
</svg>
