<?xml version="1.0" encoding="UTF-8" standalone="no"?>
<!-- Created with Inkscape (http://www.inkscape.org/) -->

<svg
   version="1.0"
   width="197.98587"
   height="34.258617"
   id="svg2"
   sodipodi:version="0.32"
   inkscape:version="1.1.2 (0a00cf5339, 2022-02-04)"
   sodipodi:docname="geokrety.svg"
   inkscape:output_extension="org.inkscape.output.svg.inkscape"
   inkscape:export-filename="/mnt/nfs/geokrety/templates/logo-jesien.png"
   inkscape:export-xdpi="131.54472"
   inkscape:export-ydpi="131.54472"
   xmlns:inkscape="http://www.inkscape.org/namespaces/inkscape"
   xmlns:sodipodi="http://sodipodi.sourceforge.net/DTD/sodipodi-0.dtd"
   xmlns="http://www.w3.org/2000/svg"
   xmlns:svg="http://www.w3.org/2000/svg"
   xmlns:rdf="http://www.w3.org/1999/02/22-rdf-syntax-ns#"
   xmlns:cc="http://creativecommons.org/ns#"
   xmlns:dc="http://purl.org/dc/elements/1.1/">
  <metadata
     id="metadata32">
    <rdf:RDF>
      <cc:Work
         rdf:about="">
        <dc:format>image/svg+xml</dc:format>
        <dc:type
           rdf:resource="http://purl.org/dc/dcmitype/StillImage" />
      </cc:Work>
    </rdf:RDF>
  </metadata>
  <sodipodi:namedview
     inkscape:window-height="1376"
     inkscape:window-width="2486"
     inkscape:pageshadow="2"
     inkscape:pageopacity="0.0"
     guidetolerance="10.0"
     gridtolerance="10.0"
     objecttolerance="10.0"
     borderopacity="1.0"
     bordercolor="#666666"
     pagecolor="#ffffff"
     id="base"
     showgrid="false"
     inkscape:zoom="5.2498817"
     inkscape:cx="139.33647"
     inkscape:cy="46.381997"
     inkscape:window-x="2560"
     inkscape:window-y="27"
     inkscape:current-layer="g28928"
     inkscape:window-maximized="1"
     inkscape:pagecheckerboard="0"
     showguides="true"
     inkscape:guide-bbox="true"
     inkscape:snap-page="true" />
  <defs
     id="defs4">
    <inkscape:perspective
       sodipodi:type="inkscape:persp3d"
       inkscape:vp_x="0 : 17.129309 : 1"
       inkscape:vp_y="0 : 1000 : 0"
       inkscape:vp_z="197.98587 : 17.129309 : 1"
       inkscape:persp3d-origin="98.992935 : 11.419539 : 1"
       id="perspective34" />
    <inkscape:perspective
       id="perspective2736"
       inkscape:persp3d-origin="372.04724 : 350.78739 : 1"
       inkscape:vp_z="744.09448 : 526.18109 : 1"
       inkscape:vp_y="0 : 1000 : 0"
       inkscape:vp_x="0 : 526.18109 : 1"
       sodipodi:type="inkscape:persp3d" />
    <inkscape:perspective
       id="perspective3687"
       inkscape:persp3d-origin="372.04724 : 350.78739 : 1"
       inkscape:vp_z="744.09448 : 526.18109 : 1"
       inkscape:vp_y="0 : 1000 : 0"
       inkscape:vp_x="0 : 526.18109 : 1"
       sodipodi:type="inkscape:persp3d" />
    <inkscape:perspective
       id="perspective3743"
       inkscape:persp3d-origin="0.5 : 0.33333333 : 1"
       inkscape:vp_z="1 : 0.5 : 1"
       inkscape:vp_y="0 : 1000 : 0"
       inkscape:vp_x="0 : 0.5 : 1"
       sodipodi:type="inkscape:persp3d" />
    <rect
       x="41.745193"
       y="57.746593"
       width="334.45401"
       height="115.91398"
       id="rect1772" />
    <rect
       x="41.745193"
       y="57.746593"
       width="334.45401"
       height="115.91398"
       id="rect28971" />
    <filter
       id="mask-powermask-path-effect29800-9_inverse"
       inkscape:label="filtermask-powermask-path-effect29800-9"
       style="color-interpolation-filters:sRGB"
       height="100"
       width="100"
       x="-50"
       y="-50">
      <feColorMatrix
         id="mask-powermask-path-effect29800-9_primitive1"
         values="1"
         type="saturate"
         result="fbSourceGraphic" />
      <feColorMatrix
         id="mask-powermask-path-effect29800-9_primitive2"
         values="-1 0 0 0 1 0 -1 0 0 1 0 0 -1 0 1 0 0 0 1 0 "
         in="fbSourceGraphic" />
    </filter>
  </defs>
  <g
     inkscape:groupmode="layer"
     id="layer4"
     inkscape:label="bg"
     style="display:none;opacity:0.558966">
    <g
       id="g1043"
       transform="scale(0.03777912,0.04292406)">
      <rect
         width="1200"
         height="800"
         fill="#005bbb"
         id="rect1031"
         x="0"
         y="0" />
      <rect
         width="1200"
         height="400"
         y="400"
         fill="#ffd500"
         id="rect1033"
         x="0" />
    </g>
  </g>
  <g
     inkscape:groupmode="layer"
     id="g28928"
     inkscape:label="bg copy"
     style="display:inline;opacity:1">
    <rect
       style="fill:#ffffff;fill-opacity:1;stroke:none;stroke-width:0.826;stroke-linecap:round;stroke-linejoin:round;stroke-opacity:1;paint-order:stroke fill markers"
       id="rect32317"
       width="39.439457"
       height="20.21875"
       x="89.273094"
       y="7.7601275" />
  </g>
  <g
     inkscape:groupmode="layer"
     id="layer1"
     inkscape:label="Layer 1"
     style="display:none">
    <g
       id="g14565"
       transform="matrix(1.2753066,0,0,1.7599098,-68.25007,-27.381783)">
      <rect
         style="fill:#000000;stroke:#000000;stroke-width:0.173431;stroke-linecap:round;stroke-linejoin:round;paint-order:stroke fill markers"
         id="rect12783"
         width="30.926184"
         height="11.48799"
         x="123.428"
         y="20.181198" />
      <text
         xml:space="preserve"
         transform="scale(0.26458333)"
         id="text1770"
         style="font-style:normal;font-variant:normal;font-weight:normal;font-stretch:normal;font-size:40px;line-height:1.25;font-family:Komix;-inkscape-font-specification:Komix;letter-spacing:0px;word-spacing:0px;white-space:pre;shape-inside:url(#rect1772);fill:#000000;fill-opacity:1;stroke:none" />
      <g
         aria-label="SUPPORT@GEOKRETY.ORG"
         id="text3340"
         style="font-size:10.5833px;line-height:1.25;font-family:OCR-A;-inkscape-font-specification:OCR-A;letter-spacing:0px;word-spacing:0px;stroke-width:0.264583">
        <path
           d="m 95.424198,21.922863 0.935341,0.04134 0.470254,0.07751 0.702797,0.232544 0.702797,0.351398 0.625283,0.428913 0.816485,0.744138 0.04134,0.428913 -0.155029,0.351399 -0.428913,0.03617 -0.351398,-0.155028 -0.547769,-0.506428 -0.39274,-0.155029 -0.310057,-0.196369 -0.857826,-0.155029 -0.428913,0.03617 -0.39274,0.118856 q -0.160196,0.03617 -0.310057,0.113687 l -1.328081,0.744139 q -0.12919,0.12919 -0.315225,0.232543 l -0.268716,0.237711 -0.315226,0.191202 q -0.73897,0.480589 -0.857826,1.209225 l 0.108521,0.707964 0.04134,0.506428 0.232543,0.237711 0.392739,0.155029 0.744139,0.227375 1.250565,-0.191202 0.428913,-0.118856 0.07752,-0.196369 0.118855,0.118855 q 0.175699,-0.04134 0.351399,-0.155029 l 0.925005,-0.118855 0.842323,-0.459919 -1.457271,0.149861 -1.364253,-0.07751 -0.310058,-0.19637 q -0.11369,-0.129184 -0.273887,-0.237704 L 94.292488,26.491045 Q 94.173632,26.377357 94.059945,26.217161 93.956592,26.0673 93.863575,25.865762 l 0.19637,-0.315225 q 0.201537,-0.08268 0.428913,-0.113688 l 0.310057,-0.04134 0.118856,0.04134 2.537304,-0.07751 0.387572,0.03617 1.209225,-0.113688 0.118856,0.03617 0.428913,0.04134 q 0.170531,0.04651 0.315225,0.155029 l 0.351394,0.155028 0.31006,0.19637 0.23255,0.273884 q 0.0878,0.19637 0.11885,0.428913 -0.0517,0.180867 -0.15503,0.351399 -0.0672,0.165364 -0.23771,0.273884 l -0.26872,0.268717 -1.483104,1.136878 -0.39274,0.113688 q -0.149861,0.08268 -0.351399,0.155028 -0.175699,0.07752 -0.351398,0.19637 -0.201538,0.03617 -0.428913,0.118856 l -0.39274,0.113687 q -0.191202,0.06718 -0.387572,0.08268 l -0.351399,0.155029 -0.428913,0.07752 q -0.201537,0.0052 -0.428913,0.07751 l -0.857826,-0.04134 -0.118855,0.04134 -1.250566,-0.310058 q -0.180867,-0.05168 -0.387572,-0.160196 l -0.351398,-0.155029 q -0.160197,-0.08785 -0.315226,-0.232543 l -0.583942,-0.428913 -0.232543,-0.315225 -0.315225,-0.702798 -0.155029,-0.893999 0.04134,-0.511595 q 0.03101,-0.175699 0.113688,-0.387572 0.03617,-0.175699 0.118855,-0.39274 l 0.155029,-0.351398 0.428913,-0.620116 0.506428,-0.547768 0.315225,-0.19637 q 0.10852,-0.118855 0.273884,-0.232543 l 1.245398,-0.857826 0.744138,-0.315225 0.387572,-0.113688 0.19637,0.03617 0.118856,-0.03617 h 0.07751 z"
           style="font-family:Komix;-inkscape-font-specification:Komix"
           id="path12405" />
        <path
           d="m 109.84188,21.938366 q 0.25321,0.0155 0.5271,0.07751 0.17569,0.05168 0.37723,0.149861 l 0.34107,0.227376 0.26354,0.299722 0.19121,0.382405 q -0.0724,0.180867 -0.22738,0.299722 l -0.30489,0.227376 -0.94051,0.113687 h -0.53226 l -2.19108,0.227376 -0.11368,-0.04134 -0.5271,0.04134 -1.36426,0.299722 q -0.19637,0.05168 -0.45475,0.07751 l -0.37723,0.149861 q -0.12403,0.118855 -0.14986,0.30489 0.0413,0.180867 0.22737,0.227375 l 0.86816,-0.113687 0.37724,-0.155029 1.20922,-0.263549 0.11369,0.04134 0.37724,-0.155029 0.75964,-0.113688 0.0724,0.04134 h 0.11368 l 0.53227,-0.07751 0.45475,0.03617 q 0.17053,0.08785 0.3359,0.227376 0.18086,0.07751 0.34106,0.227376 0.12919,0.144693 0.22738,0.341063 l 0.0775,0.30489 -0.0413,0.10852 -0.37724,0.227376 -1.35908,0.227375 -0.41858,0.155029 q -0.17053,0.02584 -0.3359,0.113688 l -0.41858,0.07235 q -0.18603,0.0155 -0.41341,0.07751 l -0.41857,0.149861 -0.45475,0.07751 -0.41341,0.149861 -0.30489,0.03617 -0.11369,-0.03617 -0.86816,0.149861 q -0.20154,0.02067 -0.26355,0.227375 l -0.11369,0.341064 v 0.191202 l 0.7183,-0.191202 q 0.20154,-0.06718 0.45475,-0.113688 l 0.41341,-0.149861 1.36425,-0.30489 0.41341,-0.03617 3.10058,-0.568438 0.49093,-0.03617 0.53226,0.03617 q 0.0879,0.134358 0.22221,0.263549 l 0.1912,0.382404 q -0.0258,0.222208 -0.11369,0.449583 -0.11885,0.149862 -0.29972,0.268717 l -1.25056,0.41341 -0.45476,0.03617 -1.81383,0.418577 q -0.20154,0.04651 -0.45475,0.07235 -0.19121,0.103353 -0.44959,0.155029 l -0.9095,0.186034 -0.37724,0.155029 -0.9095,0.227376 -0.41341,0.149861 q -0.2067,0.03617 -0.45475,0.03617 -0.1757,0.08268 -0.37724,0.113688 -0.18086,0.02584 -0.34106,0.113688 l -0.75447,-0.30489 -0.22738,-0.335896 q -0.12919,-0.139526 -0.30489,-0.268716 l -0.0362,-0.449584 0.14986,-1.4366 0.11369,-0.496092 -0.0362,-0.263549 0.18604,-1.400427 v -0.10852 h -0.0362 l 0.0362,-0.155029 -0.0362,-0.03617 v -0.149862 l -0.14986,-0.568439 -0.14986,-0.377236 0.18604,-0.377237 0.37723,-0.191202 0.30489,0.03617 0.5271,-0.186034 0.22738,0.03617 0.0775,-0.03617 3.13675,-0.490925 0.0775,0.03617 h 0.11369 z"
           style="font-family:Komix;-inkscape-font-specification:Komix"
           id="path12407" />
        <path
           d="m 118.46665,21.969372 0.95084,0.180867 0.43408,0.144693 1.71049,1.059364 0.54776,0.583941 0.62012,1.054196 0.0724,0.475422 -0.0362,0.542601 -0.43924,0.692462 -0.1447,0.403075 -0.28939,0.253213 -0.25838,0.325561 -0.57877,0.511595 -1.05936,0.620115 -0.80099,0.325561 -2.1859,0.511595 -0.36174,0.03617 -0.10852,-0.03617 -0.10852,0.03617 -0.33072,-0.03617 -1.5658,-0.656289 -0.32556,-0.253214 -0.76481,-0.909502 -0.33072,-0.764809 q -0.0775,-0.21704 -0.10852,-0.475421 l -0.0362,-0.289388 0.0362,-0.113687 0.0362,-0.470254 q 0.0879,-0.1757 0.14469,-0.403075 l 0.47543,-0.656289 0.28938,-0.289387 0.29456,-0.21704 0.28938,-0.294555 1.01803,-0.651121 0.29455,-0.258381 0.72864,-0.397908 q 0.16536,-0.09819 0.36173,-0.144693 0.11886,-0.08268 0.29456,-0.113688 0.14986,-0.113688 0.36173,-0.180867 l 0.43925,-0.10852 0.14469,0.03617 0.10852,-0.03617 h 0.18087 z m 0.51159,1.968865 -0.51159,0.108521 q -0.13436,0.149861 -0.1447,0.397907 -0.0827,0.222208 -0.25321,0.403075 -0.25838,-0.01034 -0.54777,-0.07235 l -0.51159,0.07235 q -0.1757,0.07751 -0.39791,0.144693 l -0.43925,0.217041 -0.9095,0.981849 -0.25321,0.403075 -0.10852,0.511595 q -0.031,0.124023 -0.0362,0.289387 l 0.0362,0.07235 v 0.217041 l 0.47025,0.149861 0.54777,0.07235 q 0.23254,-0.03101 0.47542,-0.10852 l 0.5426,-0.07752 0.98702,-0.32556 1.60196,-0.945676 0.65629,-0.620115 0.50643,-0.764809 0.10852,-0.511595 q -0.13436,-0.144694 -0.32556,-0.289387 -0.20671,-0.09819 -0.47542,-0.144694 l -0.50643,-0.144693 z"
           style="font-family:Komix;-inkscape-font-specification:Komix"
           id="path12409" />
        <path
           d="m 126.06823,21.959036 h 0.41857 l 0.41341,0.08268 q 0.22221,0.139526 0.45476,0.330728 0.24804,0.1757 0.50126,0.418578 0.13952,0.310058 0.16536,0.707965 0.0155,0.289387 0.0827,0.620115 l 0.66663,-0.248046 1.6588,-0.91467 0.3359,-0.372069 q 0.33589,-0.02584 0.74414,-0.124023 0.26355,-0.113688 0.66662,-0.170532 0.32039,0.04651 0.62528,0.170532 l 0.41341,0.496092 0.12403,0.625283 -0.0413,0.124023 q -0.21188,0.232543 -0.57878,0.289387 l -0.58394,0.206705 -1.74666,0.956011 q -0.24804,0.08268 -0.53743,0.253214 l -0.62528,0.289387 q -0.16537,0.04651 -0.33073,0.165364 l 0.2067,0.08268 q 0.27906,0.06718 0.66663,0.206705 0.31005,0.05168 0.66145,0.211873 l 1.29191,0.41341 q 0.25321,0.144694 0.62012,0.248046 l 0.58394,0.294555 q 0.24288,0.113688 0.57877,0.330728 l 0.58394,0.289387 0.5426,0.377237 0.37207,0.496092 q 0.0879,0.211873 0.12403,0.459919 -0.0413,0.09302 -0.12403,0.206705 l -0.24804,0.206705 -0.41858,-0.04134 q -0.27388,-0.08785 -0.62012,-0.248046 l -0.5426,-0.335896 q -0.27388,-0.09819 -0.57877,-0.330728 -0.33073,-0.08268 -0.66662,-0.248046 l -0.58395,-0.253214 q -0.30489,-0.08268 -0.66145,-0.248046 l -1.99471,-0.496092 q -0.27905,-0.10852 -0.66662,-0.124023 -0.25838,0 -0.33073,0.289387 -0.0775,0.320393 -0.0827,0.749306 -0.0465,0.320393 -0.17053,0.702797 -0.28422,0.155029 -0.66146,0.170532 l -0.58394,-0.211873 -0.53743,-0.372069 q -0.19637,-0.242878 -0.29456,-0.583942 l 0.0879,-0.82682 q -0.24288,-0.206705 -0.58394,-0.294555 -0.23254,-0.170532 -0.45992,-0.41341 -0.21187,-0.201537 -0.37207,-0.50126 l -0.12402,-0.41341 0.2067,-0.206705 1.41593,-0.377237 0.28939,-1.245398 -0.0413,-0.459919 0.0413,-0.289387 q -0.005,-0.330728 -0.0827,-0.749306 0.13436,-0.196369 0.33073,-0.372069 z"
           style="font-family:Komix;-inkscape-font-specification:Komix;fill:#ffffff"
           id="path12411" />
        <path
           d="m 137.80391,21.948701 2.11356,0.10852 q 0.25322,0.02584 0.57361,0.10852 0.24288,0.06201 0.53743,0.211873 l 1.0387,0.397907 q 0.22737,0.113688 0.43408,0.320393 0.2067,0.118856 0.42891,0.320393 l 0.28422,0.434081 q 0.16536,0.222208 0.18087,0.50126 l 0.0362,0.211872 q -0.0465,0.1757 -0.14469,0.361734 l -0.3204,0.39274 -0.86299,0.60978 -0.53743,0.10852 q -0.20671,0.118855 -0.50126,0.139526 l -1.07487,0.180867 -0.10852,-0.03617 -0.0362,0.03617 -0.67696,0.07235 0.21187,0.180867 0.57361,0.1757 q 0.25838,0.03101 0.53743,0.10852 l 0.57361,0.10852 h 0.42891 l 0.28939,0.03617 0.60978,-0.03617 0.60978,0.144694 0.46508,0.248046 q 0.19121,0.149861 0.35657,0.392739 l 0.10852,0.144694 -0.21704,0.289387 q -0.18087,0.144694 -0.42891,0.248046 l -0.53744,0.10852 -1.11104,0.07235 -0.14469,-0.03617 q -0.23771,-0.06201 -0.60978,-0.108521 l -0.64079,-0.10852 -0.47025,-0.175699 q -0.23771,-0.06718 -0.50126,-0.180867 l -1.75699,-0.465086 -0.3204,-0.03617 -0.0362,0.248046 q 0,0.28422 -0.0724,0.645954 -0.0103,0.284219 -0.10852,0.645953 -0.0775,0.237711 -0.28422,0.465086 -0.11885,0.04651 -0.25321,0.144694 l -0.24805,-0.07235 q -0.24287,-0.103352 -0.46508,-0.284219 -0.22738,-0.05684 -0.39791,-0.289387 -0.2067,-0.144694 -0.32039,-0.39274 l -0.0362,-0.32556 0.0724,-0.537434 -0.0362,-0.06718 -0.0362,-1.11104 0.0362,-0.32556 -0.0362,-0.356566 0.0362,-0.465087 -0.0362,-0.10852 0.10852,-1.21956 0.1447,-0.60978 q 0.0103,-0.284219 0.10335,-0.645953 l -0.0362,-0.39274 0.0723,-0.144693 0.43408,-0.248046 q 0.13436,-0.01034 0.28422,-0.07235 l 0.0724,0.10852 1.11104,-0.07235 z m 0.96635,1.6123 -0.57361,0.07235 q -0.24804,0.0052 -0.60978,0.07235 -0.31005,0.0155 -0.42891,0.320393 l -0.0724,0.60978 0.0724,0.253214 0.35657,-0.07235 q 0.25321,-0.01034 0.60978,-0.07235 h 0.50126 l 0.10852,-0.03617 h 0.14469 l 1.14721,-0.144694 0.53744,-0.139526 q 0.24804,-0.08785 0.50126,-0.289387 l 0.18086,-0.21704 -0.18086,-0.139526 -1.0387,-0.180867 -0.10852,0.03617 z"
           style="font-family:Komix;-inkscape-font-specification:Komix;fill:#ffffff"
           id="path12413" />
        <path
           d="m 151.79267,21.938366 q 0.25321,0.0155 0.5271,0.07751 0.1757,0.05168 0.37723,0.149861 l 0.34107,0.227376 0.26354,0.299722 0.19121,0.382405 q -0.0724,0.180867 -0.22738,0.299722 l -0.30489,0.227376 -0.94051,0.113687 h -0.53226 l -2.19108,0.227376 -0.11368,-0.04134 -0.5271,0.04134 -1.36426,0.299722 q -0.19636,0.05168 -0.45475,0.07751 l -0.37723,0.149861 q -0.12403,0.118855 -0.14986,0.30489 0.0413,0.180867 0.22737,0.227375 l 0.86816,-0.113687 0.37724,-0.155029 1.20922,-0.263549 0.11369,0.04134 0.37724,-0.155029 0.75964,-0.113688 0.0724,0.04134 h 0.11368 l 0.53227,-0.07751 0.45475,0.03617 q 0.17053,0.08785 0.3359,0.227376 0.18086,0.07751 0.34106,0.227376 0.12919,0.144693 0.22738,0.341063 l 0.0775,0.30489 -0.0413,0.10852 -0.37724,0.227376 -1.35908,0.227375 -0.41858,0.155029 q -0.17053,0.02584 -0.3359,0.113688 l -0.41857,0.07235 q -0.18604,0.0155 -0.41341,0.07751 l -0.41858,0.149861 -0.45475,0.07751 -0.41341,0.149861 -0.30489,0.03617 -0.11369,-0.03617 -0.86816,0.149861 q -0.20154,0.02067 -0.26355,0.227375 l -0.11369,0.341064 v 0.191202 l 0.7183,-0.191202 q 0.20154,-0.06718 0.45475,-0.113688 l 0.41341,-0.149861 1.36426,-0.30489 0.41341,-0.03617 3.10057,-0.568438 0.49093,-0.03617 0.53226,0.03617 q 0.0878,0.134358 0.22221,0.263549 l 0.1912,0.382404 q -0.0258,0.222208 -0.11369,0.449583 -0.11885,0.149862 -0.29972,0.268717 l -1.25056,0.41341 -0.45476,0.03617 -1.81383,0.418577 q -0.20154,0.04651 -0.45475,0.07235 -0.19121,0.103353 -0.44959,0.155029 l -0.9095,0.186034 -0.37724,0.155029 -0.9095,0.227376 -0.41341,0.149861 q -0.2067,0.03617 -0.45475,0.03617 -0.1757,0.08268 -0.37724,0.113688 -0.18086,0.02584 -0.34106,0.113688 l -0.75447,-0.30489 -0.22738,-0.335896 q -0.12919,-0.139526 -0.30489,-0.268716 l -0.0362,-0.449584 0.14986,-1.4366 0.11369,-0.496092 -0.0362,-0.263549 0.18604,-1.400427 v -0.10852 h -0.0362 l 0.0362,-0.155029 -0.0362,-0.03617 v -0.149862 l -0.14986,-0.568439 -0.14986,-0.377236 0.18604,-0.377237 0.37723,-0.191202 0.30489,0.03617 0.5271,-0.186034 0.22738,0.03617 0.0775,-0.03617 3.13675,-0.490925 0.0775,0.03617 h 0.11368 z"
           style="font-family:Komix;-inkscape-font-specification:Komix;fill:#ffffff"
           id="path12415" />
        <path
           d="m 164.40685,21.933198 0.98185,0.366902 0.77515,0.532265 0.0413,0.568439 -0.3669,0.289387 -0.98185,0.160197 -0.11886,-0.04134 -0.94051,0.248046 -0.5736,0.08268 -0.48576,0.160196 q -0.0362,0.211873 -0.0413,0.490925 v 0.651121 l -0.12402,0.490924 -0.0413,0.408243 v 0.124023 h 0.0413 l -0.0413,0.449583 0.0413,0.160197 q -0.0775,0.21704 -0.0827,0.490924 l -0.11885,1.183387 0.0362,0.165364 -0.0362,0.408242 q -0.14986,0.180867 -0.37207,0.325561 l -0.44442,0.04134 -0.12402,-0.04134 -0.53226,-0.124023 -0.65113,-0.651121 q -0.12919,-0.222208 -0.2067,-0.490925 l 0.24805,-3.26594 v -0.124023 h -0.0413 l -1.59162,0.289387 -0.49093,0.160197 q -0.21187,0.07751 -0.49092,0.124023 -0.22738,0.06201 -0.44959,0.08268 -0.22221,0.09819 -0.49092,0.160196 l -0.60978,-0.07751 q -0.20154,-0.09819 -0.40824,-0.248046 -0.1757,-0.113688 -0.36691,-0.28422 -0.17053,-0.12919 -0.32556,-0.32556 l -0.12402,-0.366902 0.0827,-0.124023 0.40825,-0.242878 0.44958,-0.165364 0.44958,-0.242879 1.46761,-0.248046 0.49092,-0.160196 q 0.27389,-0.03617 0.56844,-0.124023 l 0.53227,-0.08268 q 0.17053,-0.09302 0.40824,-0.124023 l 1.55029,-0.408243 0.40824,-0.160196 q 0.24288,-0.04651 0.49092,-0.165364 l 1.10071,-0.124023 0.53227,-0.118856 q 0.26354,-0.0052 0.56843,-0.08268 z"
           style="font-family:Komix;-inkscape-font-specification:Komix"
           id="path12417" />
        <path
           d="m 172.66989,21.540459 q 0.23771,0.02067 0.50126,0.10852 0.18604,0.06718 0.36173,0.211872 l 0.35657,0.253214 q 0.11369,0.165364 0.21704,0.397907 l 0.0362,0.387572 -0.0362,0.113688 -1.18339,1.756993 -0.18086,0.428913 q -0.12919,0.144694 -0.24805,0.320393 l -0.42891,0.795815 -0.14469,0.428913 q -0.0982,0.170531 -0.18087,0.392739 l -0.13953,0.428913 -0.14469,1.436601 -0.0413,0.144693 0.0413,0.361734 q -0.0517,0.21704 -0.14469,0.459919 -0.19121,0.09302 -0.42892,0.180867 l -0.46508,-0.03617 -0.36174,-0.253213 q -0.13952,-0.129191 -0.32556,-0.248046 l -0.14469,-0.434081 -0.10852,-1.105872 0.10852,-1.080034 0.0723,-0.356566 -0.0362,-0.108521 q 0.093,-0.170531 0.10852,-0.397907 -0.14469,-0.118855 -0.32039,-0.248046 l -1.5813,-1.400427 -0.25321,-0.320393 q -0.16536,-0.113687 -0.32039,-0.289387 l -0.28422,-0.284219 -0.25322,-0.356566 -0.0362,-0.470255 q 0.13953,-0.155028 0.32039,-0.289387 l 0.46509,0.144694 0.47025,-0.03617 0.43409,0.144693 0.38757,0.21704 0.32556,0.248047 0.50126,0.7183 q 0.13952,0.118855 0.28938,0.284219 l 0.46509,0.506428 0.14469,-0.07235 q 0.1447,-0.113688 0.28422,-0.289387 0.0724,-0.186035 0.18087,-0.39274 l 0.46509,-0.713132 q 0.10335,-0.180867 0.25321,-0.361734 l 0.68213,-1.074867 z"
           style="font-family:Komix;-inkscape-font-specification:Komix"
           id="path12419" />
        <path
           d="m 175.51209,27.509067 q 0.21187,0.0155 0.45992,0.134359 0.17569,0.02067 0.3669,0.09818 l 0.33073,0.232543 0.26354,0.263549 q 0.0879,0.170532 0.16537,0.392739 l 0.031,0.465087 q -0.062,0.175699 -0.16536,0.361734 -0.15503,0.103352 -0.36173,0.201537 l -0.33073,0.03101 -0.46509,-0.165364 -0.29455,-0.232543 -0.26355,-0.294555 q -0.0775,-0.191202 -0.13436,-0.428913 -0.062,-0.211873 -0.0982,-0.465086 l 0.16537,-0.361734 z"
           style="font-family:Komix;-inkscape-font-specification:Komix"
           id="path12421" />
        <path
           d="m 183.45472,21.969372 0.95085,0.180867 0.43408,0.144693 1.71048,1.059364 0.54777,0.583941 0.62012,1.054196 0.0723,0.475422 -0.0362,0.542601 -0.43925,0.692462 -0.14469,0.403075 -0.28939,0.253213 -0.25838,0.325561 -0.57878,0.511595 -1.05936,0.620115 -0.80098,0.325561 -2.18591,0.511595 -0.36173,0.03617 -0.10852,-0.03617 -0.10852,0.03617 -0.33073,-0.03617 -1.56579,-0.656289 -0.32556,-0.253214 -0.76481,-0.909502 -0.33073,-0.764809 q -0.0775,-0.21704 -0.10852,-0.475421 l -0.0362,-0.289388 0.0362,-0.113687 0.0362,-0.470254 q 0.0878,-0.1757 0.14469,-0.403075 l 0.47542,-0.656289 0.28939,-0.289387 0.29455,-0.21704 0.28939,-0.294555 1.01802,-0.651121 0.29456,-0.258381 0.72863,-0.397908 q 0.16537,-0.09819 0.36174,-0.144693 0.11885,-0.08268 0.29455,-0.113688 0.14986,-0.113688 0.36173,-0.180867 l 0.43925,-0.10852 0.1447,0.03617 0.10852,-0.03617 h 0.18086 z m 0.5116,1.968865 -0.5116,0.108521 q -0.13435,0.149861 -0.14469,0.397907 -0.0827,0.222208 -0.25321,0.403075 -0.25839,-0.01034 -0.54777,-0.07235 l -0.5116,0.07235 q -0.1757,0.07751 -0.3979,0.144693 l -0.43925,0.217041 -0.90951,0.981849 -0.25321,0.403075 -0.10852,0.511595 q -0.031,0.124023 -0.0362,0.289387 l 0.0362,0.07235 v 0.217041 l 0.47025,0.149861 0.54777,0.07235 q 0.23255,-0.03101 0.47542,-0.10852 l 0.54261,-0.07752 0.98701,-0.32556 1.60197,-0.945676 0.65629,-0.620115 0.50642,-0.764809 0.10852,-0.511595 q -0.13436,-0.144694 -0.32556,-0.289387 -0.2067,-0.09819 -0.47542,-0.144694 l -0.50643,-0.144693 z"
           style="font-family:Komix;-inkscape-font-specification:Komix"
           id="path12423" />
        <path
           d="m 191.7746,21.948701 2.11356,0.10852 q 0.25321,0.02584 0.57361,0.10852 0.24288,0.06201 0.53743,0.211873 l 1.03869,0.397907 q 0.22738,0.113688 0.43408,0.320393 0.20671,0.118856 0.42892,0.320393 l 0.28422,0.434081 q 0.16536,0.222208 0.18086,0.50126 l 0.0362,0.211872 q -0.0465,0.1757 -0.1447,0.361734 l -0.32039,0.39274 -0.86299,0.60978 -0.53744,0.10852 q -0.2067,0.118855 -0.50126,0.139526 l -1.07486,0.180867 -0.10852,-0.03617 -0.0362,0.03617 -0.67695,0.07235 0.21187,0.180867 0.5736,0.1757 q 0.25839,0.03101 0.53744,0.10852 l 0.5736,0.10852 h 0.42892 l 0.28938,0.03617 0.60978,-0.03617 0.60978,0.144694 0.46509,0.248046 q 0.1912,0.149861 0.35657,0.392739 l 0.10852,0.144694 -0.21704,0.289387 q -0.18087,0.144694 -0.42892,0.248046 l -0.53743,0.10852 -1.11104,0.07235 -0.14469,-0.03617 q -0.23771,-0.06201 -0.60978,-0.108521 l -0.64079,-0.10852 -0.47025,-0.175699 q -0.23771,-0.06718 -0.50126,-0.180867 l -1.757,-0.465086 -0.32039,-0.03617 -0.0362,0.248046 q 0,0.28422 -0.0724,0.645954 -0.0103,0.284219 -0.10852,0.645953 -0.0775,0.237711 -0.28422,0.465086 -0.11885,0.04651 -0.25321,0.144694 l -0.24805,-0.07235 q -0.24288,-0.103352 -0.46508,-0.284219 -0.22738,-0.05684 -0.39791,-0.289387 -0.20671,-0.144694 -0.32039,-0.39274 l -0.0362,-0.32556 0.0724,-0.537434 -0.0362,-0.06718 -0.0362,-1.11104 0.0362,-0.32556 -0.0362,-0.356566 0.0362,-0.465087 -0.0362,-0.10852 0.10852,-1.21956 0.1447,-0.60978 q 0.0103,-0.284219 0.10335,-0.645953 l -0.0362,-0.39274 0.0723,-0.144693 0.43408,-0.248046 q 0.13436,-0.01034 0.28422,-0.07235 l 0.0724,0.10852 1.11104,-0.07235 z m 0.96635,1.6123 -0.57361,0.07235 q -0.24804,0.0052 -0.60978,0.07235 -0.31006,0.0155 -0.42891,0.320393 l -0.0724,0.60978 0.0724,0.253214 0.35656,-0.07235 q 0.25322,-0.01034 0.60978,-0.07235 h 0.50126 l 0.10852,-0.03617 h 0.1447 l 1.14721,-0.144694 0.53743,-0.139526 q 0.24805,-0.08785 0.50126,-0.289387 l 0.18087,-0.21704 -0.18087,-0.139526 -1.03869,-0.180867 -0.10852,0.03617 z"
           style="font-family:Komix;-inkscape-font-specification:Komix"
           id="path12425" />
        <path
           d="m 202.73514,21.922863 0.93534,0.04134 0.47026,0.07751 0.70279,0.232544 0.7028,0.351398 0.62528,0.428913 0.81649,0.744138 0.0413,0.428913 -0.15503,0.351399 -0.42891,0.03617 -0.3514,-0.155028 -0.54777,-0.506428 -0.39274,-0.155029 -0.31006,-0.196369 -0.85782,-0.155029 -0.42892,0.03617 -0.39274,0.118856 q -0.16019,0.03617 -0.31005,0.113687 l -1.32808,0.744139 q -0.12919,0.12919 -0.31523,0.232543 l -0.26871,0.237711 -0.31523,0.191202 q -0.73897,0.480589 -0.85783,1.209225 l 0.10852,0.707964 0.0413,0.506428 0.23254,0.237711 0.39274,0.155029 0.74414,0.227375 1.25056,-0.191202 0.42891,-0.118856 0.0775,-0.196369 0.11885,0.118855 q 0.1757,-0.04134 0.3514,-0.155029 l 0.92501,-0.118855 0.84232,-0.459919 -1.45727,0.149861 -1.36425,-0.07751 -0.31006,-0.19637 Q 202.0374,26.79076 201.87721,26.68224 l -0.27389,-0.191202 q -0.11885,-0.113688 -0.23254,-0.273884 -0.10335,-0.149861 -0.19637,-0.351399 l 0.19637,-0.315225 q 0.20154,-0.08268 0.42891,-0.113688 l 0.31006,-0.04134 0.11885,0.04134 2.53731,-0.07751 0.38757,0.03617 1.20923,-0.113688 0.11885,0.03617 0.42891,0.04134 q 0.17054,0.04651 0.31523,0.155029 l 0.3514,0.155028 0.31006,0.19637 0.23254,0.273884 q 0.0879,0.19637 0.11885,0.428913 -0.0517,0.180867 -0.15502,0.351399 -0.0672,0.165364 -0.23772,0.273884 l -0.26871,0.268717 -1.48311,1.136878 -0.39274,0.113688 q -0.14986,0.08268 -0.3514,0.155028 -0.1757,0.07752 -0.3514,0.19637 -0.20154,0.03617 -0.42891,0.118856 l -0.39274,0.113687 q -0.1912,0.06718 -0.38757,0.08268 l -0.3514,0.155029 -0.42891,0.07752 q -0.20154,0.0052 -0.42892,0.07751 l -0.85782,-0.04134 -0.11886,0.04134 -1.25056,-0.310058 q -0.18087,-0.05168 -0.38758,-0.160196 l -0.35139,-0.155029 q -0.1602,-0.08785 -0.31523,-0.232543 l -0.58394,-0.428913 -0.23255,-0.315225 -0.31522,-0.702798 -0.15503,-0.893999 0.0413,-0.511595 q 0.031,-0.175699 0.11369,-0.387572 0.0362,-0.175699 0.11886,-0.39274 l 0.15502,-0.351398 0.42892,-0.620116 0.50642,-0.547768 0.31523,-0.19637 q 0.10852,-0.118855 0.27388,-0.232543 l 1.2454,-0.857826 0.74414,-0.315225 0.38757,-0.113688 0.19637,0.03617 0.11886,-0.03617 h 0.0775 z"
           style="font-family:Komix;-inkscape-font-specification:Komix"
           id="path12427" />
      </g>
    </g>
  </g>
  <g
     inkscape:groupmode="layer"
     id="g28969"
     inkscape:label="Layer 1 copy"
     style="display:inline">
    <g
       id="g28967"
       transform="matrix(1.2753066,0,0,1.7599098,-68.25007,-27.381783)">
      <text
         xml:space="preserve"
         transform="scale(0.26458333)"
         id="text28939"
         style="font-style:normal;font-variant:normal;font-weight:normal;font-stretch:normal;font-size:40px;line-height:1.25;font-family:Komix;-inkscape-font-specification:Komix;letter-spacing:0px;word-spacing:0px;white-space:pre;shape-inside:url(#rect28971);fill:#000000;fill-opacity:1;stroke:none" />
      <g
         aria-label="SUPPORT@GEOKRETY.ORG"
         id="g28965"
         style="font-size:10.5833px;line-height:1.25;font-family:OCR-A;-inkscape-font-specification:OCR-A;letter-spacing:0px;word-spacing:0px;stroke-width:0.264583">
        <path
           d="m 95.424198,21.922863 0.935341,0.04134 0.470254,0.07751 0.702797,0.232544 0.702797,0.351398 0.625283,0.428913 0.816485,0.744138 0.04134,0.428913 -0.155029,0.351399 -0.428913,0.03617 -0.351398,-0.155028 -0.547769,-0.506428 -0.39274,-0.155029 -0.310057,-0.196369 -0.857826,-0.155029 -0.428913,0.03617 -0.39274,0.118856 q -0.160196,0.03617 -0.310057,0.113687 l -1.328081,0.744139 q -0.12919,0.12919 -0.315225,0.232543 l -0.268716,0.237711 -0.315226,0.191202 q -0.73897,0.480589 -0.857826,1.209225 l 0.108521,0.707964 0.04134,0.506428 0.232543,0.237711 0.392739,0.155029 0.744139,0.227375 1.250565,-0.191202 0.428913,-0.118856 0.07752,-0.196369 0.118855,0.118855 q 0.175699,-0.04134 0.351399,-0.155029 l 0.925005,-0.118855 0.842323,-0.459919 -1.457271,0.149861 -1.364253,-0.07751 -0.310058,-0.19637 q -0.11369,-0.129184 -0.273887,-0.237704 L 94.292488,26.491045 Q 94.173632,26.377357 94.059945,26.217161 93.956592,26.0673 93.863575,25.865762 l 0.19637,-0.315225 q 0.201537,-0.08268 0.428913,-0.113688 l 0.310057,-0.04134 0.118856,0.04134 2.537304,-0.07751 0.387572,0.03617 1.209225,-0.113688 0.118856,0.03617 0.428913,0.04134 q 0.170531,0.04651 0.315225,0.155029 l 0.351394,0.155028 0.31006,0.19637 0.23255,0.273884 q 0.0878,0.19637 0.11885,0.428913 -0.0517,0.180867 -0.15503,0.351399 -0.0672,0.165364 -0.23771,0.273884 l -0.26872,0.268717 -1.483104,1.136878 -0.39274,0.113688 q -0.149861,0.08268 -0.351399,0.155028 -0.175699,0.07752 -0.351398,0.19637 -0.201538,0.03617 -0.428913,0.118856 l -0.39274,0.113687 q -0.191202,0.06718 -0.387572,0.08268 l -0.351399,0.155029 -0.428913,0.07752 q -0.201537,0.0052 -0.428913,0.07751 l -0.857826,-0.04134 -0.118855,0.04134 -1.250566,-0.310058 q -0.180867,-0.05168 -0.387572,-0.160196 l -0.351398,-0.155029 q -0.160197,-0.08785 -0.315226,-0.232543 l -0.583942,-0.428913 -0.232543,-0.315225 -0.315225,-0.702798 -0.155029,-0.893999 0.04134,-0.511595 q 0.03101,-0.175699 0.113688,-0.387572 0.03617,-0.175699 0.118855,-0.39274 l 0.155029,-0.351398 0.428913,-0.620116 0.506428,-0.547768 0.315225,-0.19637 q 0.10852,-0.118855 0.273884,-0.232543 l 1.245398,-0.857826 0.744138,-0.315225 0.387572,-0.113688 0.19637,0.03617 0.118856,-0.03617 h 0.07751 z"
           style="font-family:Komix;-inkscape-font-specification:Komix"
           id="path28941" />
        <path
           d="m 109.84188,21.938366 q 0.25321,0.0155 0.5271,0.07751 0.17569,0.05168 0.37723,0.149861 l 0.34107,0.227376 0.26354,0.299722 0.19121,0.382405 q -0.0724,0.180867 -0.22738,0.299722 l -0.30489,0.227376 -0.94051,0.113687 h -0.53226 l -2.19108,0.227376 -0.11368,-0.04134 -0.5271,0.04134 -1.36426,0.299722 q -0.19637,0.05168 -0.45475,0.07751 l -0.37723,0.149861 q -0.12403,0.118855 -0.14986,0.30489 0.0413,0.180867 0.22737,0.227375 l 0.86816,-0.113687 0.37724,-0.155029 1.20922,-0.263549 0.11369,0.04134 0.37724,-0.155029 0.75964,-0.113688 0.0724,0.04134 h 0.11368 l 0.53227,-0.07751 0.45475,0.03617 q 0.17053,0.08785 0.3359,0.227376 0.18086,0.07751 0.34106,0.227376 0.12919,0.144693 0.22738,0.341063 l 0.0775,0.30489 -0.0413,0.10852 -0.37724,0.227376 -1.35908,0.227375 -0.41858,0.155029 q -0.17053,0.02584 -0.3359,0.113688 l -0.41858,0.07235 q -0.18603,0.0155 -0.41341,0.07751 l -0.41857,0.149861 -0.45475,0.07751 -0.41341,0.149861 -0.30489,0.03617 -0.11369,-0.03617 -0.86816,0.149861 q -0.20154,0.02067 -0.26355,0.227375 l -0.11369,0.341064 v 0.191202 l 0.7183,-0.191202 q 0.20154,-0.06718 0.45475,-0.113688 l 0.41341,-0.149861 1.36425,-0.30489 0.41341,-0.03617 3.10058,-0.568438 0.49093,-0.03617 0.53226,0.03617 q 0.0879,0.134358 0.22221,0.263549 l 0.1912,0.382404 q -0.0258,0.222208 -0.11369,0.449583 -0.11885,0.149862 -0.29972,0.268717 l -1.25056,0.41341 -0.45476,0.03617 -1.81383,0.418577 q -0.20154,0.04651 -0.45475,0.07235 -0.19121,0.103353 -0.44959,0.155029 l -0.9095,0.186034 -0.37724,0.155029 -0.9095,0.227376 -0.41341,0.149861 q -0.2067,0.03617 -0.45475,0.03617 -0.1757,0.08268 -0.37724,0.113688 -0.18086,0.02584 -0.34106,0.113688 l -0.75447,-0.30489 -0.22738,-0.335896 q -0.12919,-0.139526 -0.30489,-0.268716 l -0.0362,-0.449584 0.14986,-1.4366 0.11369,-0.496092 -0.0362,-0.263549 0.18604,-1.400427 v -0.10852 h -0.0362 l 0.0362,-0.155029 -0.0362,-0.03617 v -0.149862 l -0.14986,-0.568439 -0.14986,-0.377236 0.18604,-0.377237 0.37723,-0.191202 0.30489,0.03617 0.5271,-0.186034 0.22738,0.03617 0.0775,-0.03617 3.13675,-0.490925 0.0775,0.03617 h 0.11369 z"
           style="font-family:Komix;-inkscape-font-specification:Komix"
           id="path28943" />
        <path
           d="m 118.46665,21.969372 0.95084,0.180867 0.43408,0.144693 1.71049,1.059364 0.54776,0.583941 0.62012,1.054196 0.0724,0.475422 -0.0362,0.542601 -0.43924,0.692462 -0.1447,0.403075 -0.28939,0.253213 -0.25838,0.325561 -0.57877,0.511595 -1.05936,0.620115 -0.80099,0.325561 -2.1859,0.511595 -0.36174,0.03617 -0.10852,-0.03617 -0.10852,0.03617 -0.33072,-0.03617 -1.5658,-0.656289 -0.32556,-0.253214 -0.76481,-0.909502 -0.33072,-0.764809 q -0.0775,-0.21704 -0.10852,-0.475421 l -0.0362,-0.289388 0.0362,-0.113687 0.0362,-0.470254 q 0.0879,-0.1757 0.14469,-0.403075 l 0.47543,-0.656289 0.28938,-0.289387 0.29456,-0.21704 0.28938,-0.294555 1.01803,-0.651121 0.29455,-0.258381 0.72864,-0.397908 q 0.16536,-0.09819 0.36173,-0.144693 0.11886,-0.08268 0.29456,-0.113688 0.14986,-0.113688 0.36173,-0.180867 l 0.43925,-0.10852 0.14469,0.03617 0.10852,-0.03617 h 0.18087 z m 0.51159,1.968865 -0.51159,0.108521 q -0.13436,0.149861 -0.1447,0.397907 -0.0827,0.222208 -0.25321,0.403075 -0.25838,-0.01034 -0.54777,-0.07235 l -0.51159,0.07235 q -0.1757,0.07751 -0.39791,0.144693 l -0.43925,0.217041 -0.9095,0.981849 -0.25321,0.403075 -0.10852,0.511595 q -0.031,0.124023 -0.0362,0.289387 l 0.0362,0.07235 v 0.217041 l 0.47025,0.149861 0.54777,0.07235 q 0.23254,-0.03101 0.47542,-0.10852 l 0.5426,-0.07752 0.98702,-0.32556 1.60196,-0.945676 0.65629,-0.620115 0.50643,-0.764809 0.10852,-0.511595 q -0.13436,-0.144694 -0.32556,-0.289387 -0.20671,-0.09819 -0.47542,-0.144694 l -0.50643,-0.144693 z"
           style="font-family:Komix;-inkscape-font-specification:Komix"
           id="path28945" />
        <path
           d="m 164.40685,21.933198 0.98185,0.366902 0.77515,0.532265 0.0413,0.568439 -0.3669,0.289387 -0.98185,0.160197 -0.11886,-0.04134 -0.94051,0.248046 -0.5736,0.08268 -0.48576,0.160196 q -0.0362,0.211873 -0.0413,0.490925 v 0.651121 l -0.12402,0.490924 -0.0413,0.408243 v 0.124023 h 0.0413 l -0.0413,0.449583 0.0413,0.160197 q -0.0775,0.21704 -0.0827,0.490924 l -0.11885,1.183387 0.0362,0.165364 -0.0362,0.408242 q -0.14986,0.180867 -0.37207,0.325561 l -0.44442,0.04134 -0.12402,-0.04134 -0.53226,-0.124023 -0.65113,-0.651121 q -0.12919,-0.222208 -0.2067,-0.490925 l 0.24805,-3.26594 v -0.124023 h -0.0413 l -1.59162,0.289387 -0.49093,0.160197 q -0.21187,0.07751 -0.49092,0.124023 -0.22738,0.06201 -0.44959,0.08268 -0.22221,0.09819 -0.49092,0.160196 l -0.60978,-0.07751 q -0.20154,-0.09819 -0.40824,-0.248046 -0.1757,-0.113688 -0.36691,-0.28422 -0.17053,-0.12919 -0.32556,-0.32556 l -0.12402,-0.366902 0.0827,-0.124023 0.40825,-0.242878 0.44958,-0.165364 0.44958,-0.242879 1.46761,-0.248046 0.49092,-0.160196 q 0.27389,-0.03617 0.56844,-0.124023 l 0.53227,-0.08268 q 0.17053,-0.09302 0.40824,-0.124023 l 1.55029,-0.408243 0.40824,-0.160196 q 0.24288,-0.04651 0.49092,-0.165364 l 1.10071,-0.124023 0.53227,-0.118856 q 0.26354,-0.0052 0.56843,-0.08268 z"
           style="font-family:Komix;-inkscape-font-specification:Komix"
           id="path28953" />
        <path
           d="m 172.66989,21.540459 q 0.23771,0.02067 0.50126,0.10852 0.18604,0.06718 0.36173,0.211872 l 0.35657,0.253214 q 0.11369,0.165364 0.21704,0.397907 l 0.0362,0.387572 -0.0362,0.113688 -1.18339,1.756993 -0.18086,0.428913 q -0.12919,0.144694 -0.24805,0.320393 l -0.42891,0.795815 -0.14469,0.428913 q -0.0982,0.170531 -0.18087,0.392739 l -0.13953,0.428913 -0.14469,1.436601 -0.0413,0.144693 0.0413,0.361734 q -0.0517,0.21704 -0.14469,0.459919 -0.19121,0.09302 -0.42892,0.180867 l -0.46508,-0.03617 -0.36174,-0.253213 q -0.13952,-0.129191 -0.32556,-0.248046 l -0.14469,-0.434081 -0.10852,-1.105872 0.10852,-1.080034 0.0723,-0.356566 -0.0362,-0.108521 q 0.093,-0.170531 0.10852,-0.397907 -0.14469,-0.118855 -0.32039,-0.248046 l -1.5813,-1.400427 -0.25321,-0.320393 q -0.16536,-0.113687 -0.32039,-0.289387 l -0.28422,-0.284219 -0.25322,-0.356566 -0.0362,-0.470255 q 0.13953,-0.155028 0.32039,-0.289387 l 0.46509,0.144694 0.47025,-0.03617 0.43409,0.144693 0.38757,0.21704 0.32556,0.248047 0.50126,0.7183 q 0.13952,0.118855 0.28938,0.284219 l 0.46509,0.506428 0.14469,-0.07235 q 0.1447,-0.113688 0.28422,-0.289387 0.0724,-0.186035 0.18087,-0.39274 l 0.46509,-0.713132 q 0.10335,-0.180867 0.25321,-0.361734 l 0.68213,-1.074867 z"
           style="font-family:Komix;-inkscape-font-specification:Komix"
           id="path28955" />
        <path
           d="m 175.51209,27.509067 q 0.21187,0.0155 0.45992,0.134359 0.17569,0.02067 0.3669,0.09818 l 0.33073,0.232543 0.26354,0.263549 q 0.0879,0.170532 0.16537,0.392739 l 0.031,0.465087 q -0.062,0.175699 -0.16536,0.361734 -0.15503,0.103352 -0.36173,0.201537 l -0.33073,0.03101 -0.46509,-0.165364 -0.29455,-0.232543 -0.26355,-0.294555 q -0.0775,-0.191202 -0.13436,-0.428913 -0.062,-0.211873 -0.0982,-0.465086 l 0.16537,-0.361734 z"
           style="font-family:Komix;-inkscape-font-specification:Komix"
           id="path28957" />
        <path
           d="m 183.45472,21.969372 0.95085,0.180867 0.43408,0.144693 1.71048,1.059364 0.54777,0.583941 0.62012,1.054196 0.0723,0.475422 -0.0362,0.542601 -0.43925,0.692462 -0.14469,0.403075 -0.28939,0.253213 -0.25838,0.325561 -0.57878,0.511595 -1.05936,0.620115 -0.80098,0.325561 -2.18591,0.511595 -0.36173,0.03617 -0.10852,-0.03617 -0.10852,0.03617 -0.33073,-0.03617 -1.56579,-0.656289 -0.32556,-0.253214 -0.76481,-0.909502 -0.33073,-0.764809 q -0.0775,-0.21704 -0.10852,-0.475421 l -0.0362,-0.289388 0.0362,-0.113687 0.0362,-0.470254 q 0.0878,-0.1757 0.14469,-0.403075 l 0.47542,-0.656289 0.28939,-0.289387 0.29455,-0.21704 0.28939,-0.294555 1.01802,-0.651121 0.29456,-0.258381 0.72863,-0.397908 q 0.16537,-0.09819 0.36174,-0.144693 0.11885,-0.08268 0.29455,-0.113688 0.14986,-0.113688 0.36173,-0.180867 l 0.43925,-0.10852 0.1447,0.03617 0.10852,-0.03617 h 0.18086 z m 0.5116,1.968865 -0.5116,0.108521 q -0.13435,0.149861 -0.14469,0.397907 -0.0827,0.222208 -0.25321,0.403075 -0.25839,-0.01034 -0.54777,-0.07235 l -0.5116,0.07235 q -0.1757,0.07751 -0.3979,0.144693 l -0.43925,0.217041 -0.90951,0.981849 -0.25321,0.403075 -0.10852,0.511595 q -0.031,0.124023 -0.0362,0.289387 l 0.0362,0.07235 v 0.217041 l 0.47025,0.149861 0.54777,0.07235 q 0.23255,-0.03101 0.47542,-0.10852 l 0.54261,-0.07752 0.98701,-0.32556 1.60197,-0.945676 0.65629,-0.620115 0.50642,-0.764809 0.10852,-0.511595 q -0.13436,-0.144694 -0.32556,-0.289387 -0.2067,-0.09819 -0.47542,-0.144694 l -0.50643,-0.144693 z"
           style="font-family:Komix;-inkscape-font-specification:Komix"
           id="path28959" />
        <path
           d="m 191.7746,21.948701 2.11356,0.10852 q 0.25321,0.02584 0.57361,0.10852 0.24288,0.06201 0.53743,0.211873 l 1.03869,0.397907 q 0.22738,0.113688 0.43408,0.320393 0.20671,0.118856 0.42892,0.320393 l 0.28422,0.434081 q 0.16536,0.222208 0.18086,0.50126 l 0.0362,0.211872 q -0.0465,0.1757 -0.1447,0.361734 l -0.32039,0.39274 -0.86299,0.60978 -0.53744,0.10852 q -0.2067,0.118855 -0.50126,0.139526 l -1.07486,0.180867 -0.10852,-0.03617 -0.0362,0.03617 -0.67695,0.07235 0.21187,0.180867 0.5736,0.1757 q 0.25839,0.03101 0.53744,0.10852 l 0.5736,0.10852 h 0.42892 l 0.28938,0.03617 0.60978,-0.03617 0.60978,0.144694 0.46509,0.248046 q 0.1912,0.149861 0.35657,0.392739 l 0.10852,0.144694 -0.21704,0.289387 q -0.18087,0.144694 -0.42892,0.248046 l -0.53743,0.10852 -1.11104,0.07235 -0.14469,-0.03617 q -0.23771,-0.06201 -0.60978,-0.108521 l -0.64079,-0.10852 -0.47025,-0.175699 q -0.23771,-0.06718 -0.50126,-0.180867 l -1.757,-0.465086 -0.32039,-0.03617 -0.0362,0.248046 q 0,0.28422 -0.0724,0.645954 -0.0103,0.284219 -0.10852,0.645953 -0.0775,0.237711 -0.28422,0.465086 -0.11885,0.04651 -0.25321,0.144694 l -0.24805,-0.07235 q -0.24288,-0.103352 -0.46508,-0.284219 -0.22738,-0.05684 -0.39791,-0.289387 -0.20671,-0.144694 -0.32039,-0.39274 l -0.0362,-0.32556 0.0724,-0.537434 -0.0362,-0.06718 -0.0362,-1.11104 0.0362,-0.32556 -0.0362,-0.356566 0.0362,-0.465087 -0.0362,-0.10852 0.10852,-1.21956 0.1447,-0.60978 q 0.0103,-0.284219 0.10335,-0.645953 l -0.0362,-0.39274 0.0723,-0.144693 0.43408,-0.248046 q 0.13436,-0.01034 0.28422,-0.07235 l 0.0724,0.10852 1.11104,-0.07235 z m 0.96635,1.6123 -0.57361,0.07235 q -0.24804,0.0052 -0.60978,0.07235 -0.31006,0.0155 -0.42891,0.320393 l -0.0724,0.60978 0.0724,0.253214 0.35656,-0.07235 q 0.25322,-0.01034 0.60978,-0.07235 h 0.50126 l 0.10852,-0.03617 h 0.1447 l 1.14721,-0.144694 0.53743,-0.139526 q 0.24805,-0.08785 0.50126,-0.289387 l 0.18087,-0.21704 -0.18087,-0.139526 -1.03869,-0.180867 -0.10852,0.03617 z"
           style="font-family:Komix;-inkscape-font-specification:Komix"
           id="path28961" />
        <path
           d="m 202.73514,21.922863 0.93534,0.04134 0.47026,0.07751 0.70279,0.232544 0.7028,0.351398 0.62528,0.428913 0.81649,0.744138 0.0413,0.428913 -0.15503,0.351399 -0.42891,0.03617 -0.3514,-0.155028 -0.54777,-0.506428 -0.39274,-0.155029 -0.31006,-0.196369 -0.85782,-0.155029 -0.42892,0.03617 -0.39274,0.118856 q -0.16019,0.03617 -0.31005,0.113687 l -1.32808,0.744139 q -0.12919,0.12919 -0.31523,0.232543 l -0.26871,0.237711 -0.31523,0.191202 q -0.73897,0.480589 -0.85783,1.209225 l 0.10852,0.707964 0.0413,0.506428 0.23254,0.237711 0.39274,0.155029 0.74414,0.227375 1.25056,-0.191202 0.42891,-0.118856 0.0775,-0.196369 0.11885,0.118855 q 0.1757,-0.04134 0.3514,-0.155029 l 0.92501,-0.118855 0.84232,-0.459919 -1.45727,0.149861 -1.36425,-0.07751 -0.31006,-0.19637 Q 202.0374,26.79076 201.87721,26.68224 l -0.27389,-0.191202 q -0.11885,-0.113688 -0.23254,-0.273884 -0.10335,-0.149861 -0.19637,-0.351399 l 0.19637,-0.315225 q 0.20154,-0.08268 0.42891,-0.113688 l 0.31006,-0.04134 0.11885,0.04134 2.53731,-0.07751 0.38757,0.03617 1.20923,-0.113688 0.11885,0.03617 0.42891,0.04134 q 0.17054,0.04651 0.31523,0.155029 l 0.3514,0.155028 0.31006,0.19637 0.23254,0.273884 q 0.0879,0.19637 0.11885,0.428913 -0.0517,0.180867 -0.15502,0.351399 -0.0672,0.165364 -0.23772,0.273884 l -0.26871,0.268717 -1.48311,1.136878 -0.39274,0.113688 q -0.14986,0.08268 -0.3514,0.155028 -0.1757,0.07752 -0.3514,0.19637 -0.20154,0.03617 -0.42891,0.118856 l -0.39274,0.113687 q -0.1912,0.06718 -0.38757,0.08268 l -0.3514,0.155029 -0.42891,0.07752 q -0.20154,0.0052 -0.42892,0.07751 l -0.85782,-0.04134 -0.11886,0.04134 -1.25056,-0.310058 q -0.18087,-0.05168 -0.38758,-0.160196 l -0.35139,-0.155029 q -0.1602,-0.08785 -0.31523,-0.232543 l -0.58394,-0.428913 -0.23255,-0.315225 -0.31522,-0.702798 -0.15503,-0.893999 0.0413,-0.511595 q 0.031,-0.175699 0.11369,-0.387572 0.0362,-0.175699 0.11886,-0.39274 l 0.15502,-0.351398 0.42892,-0.620116 0.50642,-0.547768 0.31523,-0.19637 q 0.10852,-0.118855 0.27388,-0.232543 l 1.2454,-0.857826 0.74414,-0.315225 0.38757,-0.113688 0.19637,0.03617 0.11886,-0.03617 h 0.0775 z"
           style="font-family:Komix;-inkscape-font-specification:Komix"
           id="path28963" />
      </g>
      <path
         id="rect29023"
         style="display:inline;fill:#000000;stroke:#000000;stroke-width:0.173431;stroke-linecap:round;stroke-linejoin:round;paint-order:stroke fill markers"
         d="m 123.51788,19.968018 v 11.488515 h 30.92547 V 19.968018 Z m 28.3158,1.862222 c 0.1688,0.01034 0.34423,0.03634 0.52683,0.07769 0.11714,0.03445 0.24393,0.08437 0.37828,0.149821 l 0.33999,0.227506 0.26342,0.299642 0.19144,0.381767 c -0.0483,0.120578 -0.12335,0.220406 -0.22666,0.299643 l -0.30477,0.227506 -0.94034,0.114308 h -0.53296 l -2.19157,0.227506 -0.11333,-0.04217 -0.52684,0.04217 -1.36455,0.299643 c -0.13091,0.03445 -0.2826,0.05936 -0.45486,0.07658 l -0.37675,0.14982 c -0.0827,0.07924 -0.13287,0.181169 -0.15009,0.305192 0.0275,0.120578 0.10415,0.196501 0.2282,0.227506 l 0.86683,-0.113198 0.37827,-0.15537 1.20836,-0.26413 0.11485,0.04217 0.37675,-0.15537 0.75962,-0.113198 0.072,0.04106 h 0.11333 l 0.53295,-0.07769 0.45486,0.03662 c 0.11369,0.05857 0.22515,0.133379 0.3354,0.226396 0.12057,0.05167 0.23472,0.127596 0.34152,0.227507 0.0861,0.09646 0.1612,0.210901 0.22666,0.341815 l 0.0781,0.304081 -0.0413,0.108759 -0.37675,0.227507 -1.35996,0.227506 -0.41811,0.15537 c -0.11368,0.01723 -0.22514,0.05463 -0.33539,0.113199 l -0.41963,0.07214 c -0.12403,0.01033 -0.26192,0.03634 -0.4135,0.07768 l -0.4181,0.149821 -0.45485,0.07769 -0.41351,0.149821 -0.30477,0.03662 -0.11333,-0.03662 -0.86835,0.149821 c -0.13436,0.01378 -0.22208,0.0897 -0.26342,0.227506 l -0.11333,0.340705 v 0.191993 l 0.71827,-0.191993 c 0.13436,-0.04479 0.28604,-0.08219 0.45485,-0.113198 l 0.41351,-0.149821 1.36303,-0.305192 0.4135,-0.03662 3.10128,-0.568211 0.49007,-0.03551 0.53297,0.03551 c 0.0586,0.08957 0.13246,0.178003 0.22206,0.264129 l 0.19144,0.381768 c -0.0172,0.148138 -0.0547,0.29788 -0.11333,0.449463 -0.0792,0.09991 -0.17959,0.190441 -0.30017,0.269678 l -1.25123,0.412841 -0.45486,0.03662 -1.81329,0.41839 c -0.13436,0.03101 -0.28605,0.05491 -0.45485,0.07214 -0.12748,0.0689 -0.27648,0.12092 -0.44873,0.15537 l -0.90971,0.185335 -0.37828,0.15537 -0.90818,0.227506 -0.4135,0.149822 c -0.1378,0.02411 -0.28949,0.03662 -0.45485,0.03662 -0.11714,0.05512 -0.24392,0.09253 -0.37828,0.113198 -0.12058,0.01723 -0.23319,0.05463 -0.33999,0.113198 l -0.75503,-0.304081 -0.22666,-0.336266 c -0.0861,-0.09302 -0.18916,-0.182442 -0.3063,-0.268568 l -0.0352,-0.449464 0.15008,-1.437174 0.11333,-0.496075 -0.0368,-0.263019 0.18684,-1.400552 v -0.108759 h -0.0368 l 0.0368,-0.15537 -0.0368,-0.03551 v -0.149821 l -0.15008,-0.568211 -0.15009,-0.377328 0.18684,-0.377327 0.37675,-0.190884 0.30476,0.03551 0.52684,-0.186444 0.22819,0.03662 0.0766,-0.03662 3.13803,-0.490526 0.0766,0.03662 h 0.11333 z m -13.98867,0.01 2.11346,0.10876 c 0.16881,0.01723 0.36071,0.05364 0.57431,0.108759 0.16192,0.04134 0.34119,0.112061 0.53755,0.211969 l 1.03836,0.397304 c 0.15158,0.07579 0.29561,0.182925 0.43341,0.320729 0.1378,0.07924 0.28068,0.18637 0.42882,0.320728 l 0.28486,0.433927 c 0.11024,0.148138 0.17037,0.314479 0.18071,0.500513 l 0.0368,0.21197 c -0.031,0.117133 -0.08,0.237768 -0.14549,0.361791 l -0.32008,0.392864 -0.86377,0.610383 -0.53602,0.107649 c -0.13781,0.07924 -0.30596,0.126053 -0.50233,0.139834 l -1.07511,0.180895 -0.1072,-0.03662 -0.0368,0.03662 -0.67692,0.07214 0.21135,0.180895 0.57431,0.176456 c 0.17225,0.02067 0.35152,0.05597 0.53755,0.10765 l 0.57278,0.108759 h 0.42883 l 0.28945,0.03662 0.60953,-0.03662 0.61107,0.145382 0.46404,0.247482 c 0.12747,0.09991 0.2466,0.230946 0.35684,0.392865 l 0.10873,0.144272 -0.21747,0.289655 c -0.12058,0.09646 -0.26346,0.179691 -0.42882,0.248592 l -0.53755,0.107649 -1.11034,0.07325 -0.14548,-0.03662 c -0.15848,-0.04134 -0.36149,-0.07775 -0.60954,-0.108759 l -0.64016,-0.108759 -0.47017,-0.175346 c -0.15848,-0.04479 -0.32664,-0.105104 -0.50234,-0.180895 l -1.75662,-0.465001 -0.32008,-0.03662 -0.0368,0.248593 c 0,0.18948 -0.0237,0.40474 -0.072,0.645896 -0.007,0.189479 -0.0433,0.40474 -0.10874,0.645896 -0.0517,0.158474 -0.14551,0.313417 -0.28332,0.465001 -0.0792,0.03101 -0.16466,0.07882 -0.25423,0.144272 l -0.2481,-0.07214 c -0.16192,-0.0689 -0.31591,-0.163527 -0.46405,-0.284106 -0.15158,-0.03789 -0.2845,-0.134623 -0.39818,-0.289654 -0.13781,-0.09646 -0.2443,-0.226392 -0.32009,-0.391755 l -0.0368,-0.326277 0.072,-0.537137 -0.0352,-0.0677 -0.0368,-1.110897 0.0368,-0.325167 -0.0368,-0.356242 0.0368,-0.465001 -0.0368,-0.108759 0.10874,-1.219656 0.14396,-0.610383 c 0.007,-0.189479 0.0421,-0.40474 0.10414,-0.645896 l -0.0368,-0.392864 0.072,-0.144273 0.43495,-0.247482 c 0.0896,-0.0069 0.18341,-0.0319 0.28332,-0.07325 l 0.0736,0.108759 1.11033,-0.07214 z m -11.73584,0.01 h 0.41809 l 0.41351,0.08323 c 0.14814,0.09302 0.29982,0.203249 0.45485,0.330717 0.16536,0.117133 0.33352,0.256471 0.50233,0.418389 0.093,0.206706 0.14818,0.442774 0.1654,0.708045 0.0103,0.192924 0.0379,0.399885 0.0827,0.620371 l 0.6662,-0.248593 1.6586,-0.914464 0.3354,-0.371779 c 0.22392,-0.01723 0.47214,-0.05884 0.7443,-0.124296 0.17571,-0.07579 0.39902,-0.133011 0.66774,-0.170907 0.21359,0.03101 0.42158,0.08823 0.62484,0.170907 l 0.41351,0.496075 0.12405,0.625919 -0.0413,0.123187 c -0.14125,0.155029 -0.33431,0.251758 -0.57891,0.289654 l -0.5835,0.206421 -1.74743,0.956636 c -0.16536,0.05512 -0.34463,0.139343 -0.53755,0.253031 l -0.62485,0.289655 c -0.11024,0.03101 -0.22056,0.08612 -0.3308,0.165358 l 0.20675,0.08213 c 0.18604,0.04479 0.40782,0.113403 0.6662,0.20642 0.2067,0.03446 0.42734,0.105174 0.6616,0.211969 l 1.29258,0.413951 c 0.16881,0.09646 0.37565,0.178581 0.62025,0.247483 l 0.5835,0.295203 c 0.16193,0.07579 0.35499,0.186023 0.57892,0.330716 l 0.58349,0.289655 0.54215,0.377327 0.37215,0.496075 c 0.0586,0.141249 0.1,0.294088 0.12406,0.459452 -0.0275,0.06201 -0.0689,0.13063 -0.12406,0.20642 l -0.24809,0.20642 -0.41811,-0.04106 c -0.18258,-0.05857 -0.38943,-0.140685 -0.62025,-0.247482 l -0.54215,-0.336266 c -0.18258,-0.06546 -0.37564,-0.175691 -0.57891,-0.330716 -0.22048,-0.05512 -0.44227,-0.137239 -0.6662,-0.247483 l -0.58502,-0.254141 c -0.20326,-0.05512 -0.4239,-0.137238 -0.66161,-0.247483 l -1.99404,-0.496079 c -0.18603,-0.07235 -0.40782,-0.11396 -0.6662,-0.124296 -0.17225,0 -0.28256,0.09673 -0.3308,0.289654 -0.0517,0.213596 -0.0792,0.463165 -0.0827,0.749107 -0.031,0.213595 -0.0888,0.447559 -0.17153,0.702495 -0.18948,0.103353 -0.41011,0.160572 -0.66161,0.170907 l -0.58349,-0.211969 -0.53756,-0.371779 c -0.13091,-0.161918 -0.22858,-0.356372 -0.29404,-0.583748 l 0.0873,-0.826791 c -0.16192,-0.137803 -0.35613,-0.236637 -0.5835,-0.295203 -0.15503,-0.113689 -0.30786,-0.250922 -0.45945,-0.412841 -0.14124,-0.134358 -0.26535,-0.301809 -0.37215,-0.501624 l -0.12405,-0.413951 0.20675,-0.20642 1.4151,-0.377327 0.28945,-1.245182 -0.0413,-0.459451 0.0413,-0.289655 c -0.003,-0.220485 -0.0309,-0.470054 -0.0827,-0.749106 0.0896,-0.130913 0.19989,-0.255755 0.33081,-0.372888 z m 12.70221,1.602532 -0.57278,0.07214 c -0.16536,0.0035 -0.3699,0.02737 -0.61107,0.07214 -0.20669,0.01034 -0.34958,0.117467 -0.42881,0.320728 l -0.072,0.609274 0.072,0.254141 0.35684,-0.07325 c 0.1688,-0.0069 0.37181,-0.0308 0.60953,-0.07214 h 0.50233 l 0.1072,-0.03551 h 0.14549 l 1.14709,-0.145382 0.53756,-0.138723 c 0.16536,-0.05857 0.33198,-0.155296 0.5008,-0.289654 l 0.18071,-0.217519 -0.18071,-0.138723 -1.03836,-0.180895 -0.10873,0.03551 z" />
    </g>
    <g
       id="g29021"
       transform="matrix(1.2753066,0,0,1.7599098,-61.156177,8.4428648)"
       style="font-size:10.5833px;line-height:1.25;font-family:OCR-A;-inkscape-font-specification:OCR-A;letter-spacing:0px;word-spacing:0px;display:inline;fill:#000000;stroke:#762020;stroke-width:0.264583;stroke-opacity:1" />
  </g>
  <g
     inkscape:groupmode="layer"
     id="layer2"
     inkscape:label="Layer 2"
     style="display:none">
    <g
       id="g2490"
       transform="translate(28.751625,73.516812)"
       inkscape:export-filename="/home/filips/svn/geokrety/templates/logo/geokrety.png"
       inkscape:export-xdpi="156.7616"
       inkscape:export-ydpi="156.7616">
      <rect
         width="61.299881"
         height="26.478128"
         x="64.375893"
         y="-68.511658"
         id="rect3251"
         style="fill:#000000;fill-opacity:1;fill-rule:nonzero;stroke:none;stroke-width:2;stroke-linejoin:round;stroke-miterlimit:4;stroke-dasharray:none;stroke-opacity:1" />
      <path
         id="text2383"
         d="m 31.101862,-50.457391 v -4.566773 h -3.65464 v -1.890484 h 5.869574 v 7.300003 c -0.863838,0.630162 -1.816259,1.10658 -2.857264,1.429252 -1.041031,0.322672 -2.152188,0.484009 -3.333475,0.48401 -2.584097,-10e-7 -4.605221,-0.776314 -6.063381,-2.328941 -1.458167,-1.552623 -2.187248,-3.71453 -2.187247,-6.485728 -1e-6,-2.778772 0.72908,-4.944476 2.187247,-6.497117 1.45816,-1.55261 3.479284,-2.328922 6.063381,-2.328939 1.077923,1.7e-5 2.10233,0.136678 3.07322,0.409984 0.970866,0.27334 1.866068,0.675732 2.685607,1.207177 v 2.448519 c -0.826922,-0.721255 -1.705512,-1.264105 -2.635771,-1.62855 -0.930284,-0.364415 -1.908545,-0.54663 -2.934787,-0.546647 -2.02298,1.7e-5 -3.542054,0.580827 -4.557226,1.742435 -1.015182,1.161635 -1.522771,2.89268 -1.522767,5.193138 -4e-6,2.292883 0.507585,4.020131 1.522767,5.181749 1.015172,1.161625 2.534246,1.742436 4.557226,1.742435 0.789982,10e-7 1.495069,-0.07023 2.115262,-0.210687 0.620169,-0.140455 1.177594,-0.358735 1.672274,-0.654836 z m 16.833497,-4.475665 v 1.024961 h -9.36917 c 0.08859,1.442544 0.511277,2.541529 1.26805,3.29696 0.756763,0.755436 1.810702,1.133153 3.161818,1.133152 0.782601,1e-6 1.541215,-0.0987 2.275844,-0.296101 0.734609,-0.197397 1.46369,-0.493497 2.187247,-0.888299 v 1.981591 c -0.73094,0.318878 -1.480324,0.561832 -2.248157,0.728862 -0.767854,0.167031 -1.546771,0.250546 -2.336755,0.250547 -1.97868,-10e-7 -3.545744,-0.5922 -4.701197,-1.7766 -1.155459,-1.184398 -1.733187,-2.786373 -1.733186,-4.80593 -10e-7,-2.087876 0.548194,-3.744896 1.644588,-4.971064 1.096388,-1.226145 2.574855,-1.839223 4.435405,-1.839236 1.668574,1.3e-5 2.988304,0.552352 3.959194,1.657021 0.970867,1.104691 1.456306,2.606068 1.456319,4.504136 z m -2.037739,-0.614976 c -0.01478,-1.146431 -0.326714,-2.061303 -0.93581,-2.744619 -0.609116,-0.683298 -1.41572,-1.02495 -2.419814,-1.024962 -1.137006,1.2e-5 -2.046974,0.330276 -2.729907,0.990796 -0.682941,0.66054 -1.076092,1.590597 -1.179452,2.790172 z m 10.188695,-3.769581 c -1.092707,1.2e-5 -1.95653,0.438466 -2.591473,1.315367 -0.634951,0.876921 -0.952424,2.078402 -0.952421,3.604448 -3e-6,1.526059 0.315625,2.72754 0.946884,3.604447 0.631251,0.876913 1.49692,1.315369 2.59701,1.315368 1.08531,1e-6 1.945441,-0.440352 2.580397,-1.321062 0.634938,-0.880704 0.952412,-2.080287 0.952422,-3.598753 -1e-5,-1.510861 -0.317484,-2.708547 -0.952422,-3.59306 -0.634956,-0.884492 -1.495087,-1.326743 -2.580397,-1.326755 z m 0,-1.7766 c 1.771938,1.3e-5 3.163653,0.592212 4.17515,1.7766 1.011475,1.18441 1.517217,2.824346 1.517229,4.919815 -1.2e-5,2.087888 -0.505754,3.725927 -1.517229,4.91412 -1.011497,1.188197 -2.403212,1.782294 -4.17515,1.782295 -1.779335,-10e-7 -3.172896,-0.594098 -4.180688,-1.782295 -1.007796,-1.188193 -1.511693,-2.826232 -1.511692,-4.91412 -10e-7,-2.095469 0.503896,-3.735405 1.511692,-4.919815 1.007792,-1.184388 2.401353,-1.776587 4.180688,-1.7766 z"
         style="font-style:normal;font-weight:normal;font-size:22.9487px;font-family:'Bitstream Vera Sans';fill:#000000;fill-opacity:1;stroke:none;stroke-width:1px;stroke-linecap:butt;stroke-linejoin:miter;stroke-opacity:1" />
      <path
         id="text2479"
         d="m 66.871012,-65.831418 h 2.077637 v 10.3208 l 6.165527,-5.42431 h 2.63916 l -6.670898,5.88476 6.95166,6.69336 h -2.695312 l -6.390137,-6.14307 v 6.14307 h -2.077637 z m 20.708984,6.82813 c -0.232105,-0.13476 -0.48479,-0.23396 -0.758056,-0.29761 -0.273283,-0.06363 -0.574634,-0.09545 -0.904053,-0.09546 -1.167975,10e-6 -2.06454,0.37998 -2.689697,1.13989 -0.625167,0.75994 -0.937748,1.85117 -0.937744,3.27368 v 6.62598 h -2.077637 v -12.57812 h 2.077637 v 1.9541 c 0.43424,-0.76366 0.999506,-1.3308 1.6958,-1.70142 0.696283,-0.37059 1.542311,-0.55589 2.538086,-0.55591 0.142244,2e-5 0.299471,0.0094 0.47168,0.02808 0.172192,0.01873 0.363109,0.04681 0.572754,0.08423 z m 12.948734,3.84082 v 1.01074 h -9.50098 c 0.08984,1.42253 0.51847,2.50627 1.285889,3.25122 0.76741,0.74496 1.836175,1.11743 3.206299,1.11743 0.793611,0 1.562897,-0.09733 2.307861,-0.29199 0.744944,-0.19466 1.484282,-0.48665 2.218021,-0.87598 v 1.9541 c -0.741226,0.31446 -1.501153,0.55404 -2.279788,0.71875 -0.778656,0.16472 -1.568531,0.24707 -2.369629,0.24707 -2.006516,0 -3.595626,-0.58398 -4.767334,-1.75195 -1.171714,-1.16796 -1.75757,-2.74772 -1.757569,-4.73926 -10e-7,-2.05891 0.555907,-3.69294 1.667725,-4.9021 1.111812,-1.20913 2.611078,-1.8137 4.497803,-1.81372 1.692048,2e-5 3.030344,0.54469 4.014892,1.63404 0.98453,1.08936 1.47679,2.56991 1.47681,4.44165 z m -2.066409,-0.60645 c -0.01498,-1.13052 -0.33131,-2.0327 -0.948975,-2.70654 -0.617685,-0.67382 -1.435637,-1.01073 -2.453857,-1.01074 -1.153001,1e-5 -2.075771,0.32569 -2.768311,0.97705 -0.692549,0.65137 -1.091231,1.56853 -1.196045,2.75146 z m 7.501949,-8.7373 v 3.57129 h 4.25635 v 1.60595 h -4.25635 v 6.82813 c 0,1.02572 0.14038,1.68457 0.42115,1.97656 0.28075,0.29199 0.85163,0.43799 1.71264,0.43799 h 2.12256 v 1.72949 h -2.12256 c -1.59473,0 -2.69531,-0.29761 -3.30176,-0.89282 -0.60644,-0.59521 -0.90967,-1.67895 -0.90966,-3.25122 v -6.82813 h -1.51612 v -1.60595 h 1.51612 v -3.57129 z m 12.21875,17.31738 c -0.58399,1.49739 -1.153,2.47444 -1.70703,2.93115 -0.55404,0.4567 -1.29525,0.68506 -2.22363,0.68506 h -1.65088 v -1.72949 h 1.21289 c 0.56901,0 1.01074,-0.13477 1.3252,-0.4043 0.31444,-0.26953 0.66259,-0.90592 1.04443,-1.90918 l 0.37061,-0.94336 -5.08741,-12.37597 h 2.18994 l 3.93067,9.83789 3.93066,-9.83789 h 2.18994 z"
         style="font-style:normal;font-weight:normal;font-size:40px;font-family:'Bitstream Vera Sans';fill:#ffffff;fill-opacity:1;stroke:none;stroke-width:1px;stroke-linecap:butt;stroke-linejoin:miter;stroke-opacity:1" />
      <path
         id="text2483"
         d="m 127.65643,-50.958365 h 2.36963 v 2.85254 h -2.36963 z m 11.9043,-8.27686 c -1.10808,1e-5 -1.98406,0.43239 -2.62793,1.29712 -0.64389,0.86476 -0.96583,2.04957 -0.96582,3.55445 -1e-5,1.50488 0.32006,2.6897 0.9602,3.55444 0.64013,0.86475 1.51798,1.29712 2.63355,1.29712 1.10057,0 1.97281,-0.43424 2.6167,-1.30274 0.64386,-0.86848 0.9658,-2.05142 0.96582,-3.54882 -2e-5,-1.4899 -0.32196,-2.67097 -0.96582,-3.54322 -0.64389,-0.87222 -1.51613,-1.30834 -2.6167,-1.30835 z m 0,-1.75195 c 1.79686,1e-5 3.20816,0.584 4.23388,1.75195 1.02571,1.16798 1.53856,2.78517 1.53858,4.85157 -2e-5,2.05892 -0.51287,3.67423 -1.53858,4.84594 -1.02572,1.17172 -2.43702,1.75757 -4.23388,1.75757 -1.80437,0 -3.21754,-0.58585 -4.23951,-1.75757 -1.02197,-1.17171 -1.53296,-2.78702 -1.53296,-4.84594 0,-2.0664 0.51099,-3.68359 1.53296,-4.85157 1.02197,-1.16795 2.43514,-1.75194 4.23951,-1.75195 z m 16.47509,2.23486 c -0.2321,-0.13475 -0.48479,-0.23395 -0.75805,-0.2976 -0.27329,-0.06363 -0.57464,-0.09545 -0.90406,-0.09546 -1.16797,1e-5 -2.06454,0.37997 -2.68969,1.13989 -0.62517,0.75994 -0.93775,1.85116 -0.93775,3.27368 v 6.62598 h -2.07763 v -12.57813 h 2.07763 v 1.9541 c 0.43424,-0.76366 0.99951,-1.33079 1.6958,-1.70141 0.69629,-0.37059 1.54231,-0.5559 2.53809,-0.55591 0.14224,1e-5 0.29947,0.0094 0.47168,0.02808 0.17219,0.01873 0.36311,0.0468 0.57275,0.08423 z m 10.4668,4.21143 c -1e-5,-1.49739 -0.30885,-2.65787 -0.92651,-3.48145 -0.61769,-0.82355 -1.4843,-1.23534 -2.59986,-1.23535 -1.10808,1e-5 -1.97095,0.4118 -2.58862,1.23535 -0.61768,0.82358 -0.92652,1.98406 -0.92651,3.48145 -1e-5,1.48991 0.30883,2.64665 0.92651,3.47021 0.61767,0.82357 1.48054,1.23536 2.58862,1.23536 1.11556,0 1.98217,-0.41179 2.59986,-1.23536 0.61766,-0.82356 0.9265,-1.9803 0.92651,-3.47021 z m 2.06641,4.87402 c -2e-5,2.14128 -0.47544,3.73413 -1.42627,4.77857 -0.95086,1.04443 -2.40708,1.566643 -4.36866,1.566648 -0.72624,-5e-6 -1.4113,-0.05429 -2.05517,-0.162842 -0.64389,-0.108565 -1.26905,-0.275146 -1.87549,-0.499756 v -2.01025 c 0.60644,0.32942 1.2054,0.57275 1.79688,0.72998 0.59146,0.15722 1.19416,0.23583 1.8081,0.23584 1.35514,-1e-5 2.36962,-0.35377 3.04346,-1.06128 0.67382,-0.70752 1.01073,-1.77629 1.01074,-3.2063 v -1.02197 c -0.42677,0.74121 -0.97332,1.29524 -1.63965,1.66211 -0.66635,0.36686 -1.46371,0.55029 -2.39209,0.55029 -1.54232,0 -2.78516,-0.58773 -3.72851,-1.76319 -0.94336,-1.17545 -1.41504,-2.73274 -1.41504,-4.67187 0,-1.94661 0.47168,-3.50764 1.41504,-4.68311 0.94335,-1.17544 2.18619,-1.76317 3.72851,-1.76318 0.92838,1e-5 1.72574,0.18344 2.39209,0.55029 0.66633,0.36688 1.21288,0.92091 1.63965,1.66211 v -1.90918 h 2.06641 z"
         style="font-style:normal;font-weight:normal;font-size:23px;font-family:'Bitstream Vera Sans';fill:#000000;fill-opacity:1;stroke:none;stroke-width:1px;stroke-linecap:butt;stroke-linejoin:miter;stroke-opacity:1" />
    </g>
  </g>
  <g
     inkscape:groupmode="layer"
     id="layer3"
     inkscape:label="logo"
     style="display:none">
    <g
       id="g15767"
       transform="matrix(0.2230704,0,0,0.2322423,46.969368,6.5451007)"
       inkscape:export-filename="/home/filips/svn/geokrety/templates/logo/geokrety.png"
       inkscape:export-xdpi="156.7616"
       inkscape:export-ydpi="156.7616">
      <polygon
         transform="matrix(1.8020893,-0.1634812,0.1634812,1.8020893,-298.8125,-111.4466)"
         style="fill:#ffffff;fill-rule:nonzero;stroke-linecap:round;stroke-linejoin:round"
         class="fil59"
         points="151.143,106.696 151.073,106.766 "
         id="polygon2819" />
      <polygon
         transform="matrix(1.8020893,-0.1634812,0.1634812,1.8020893,-298.8125,-111.4466)"
         style="fill:#ffffff;fill-rule:nonzero;stroke-linecap:round;stroke-linejoin:round"
         class="fil59"
         points="151.955,106.908 152.06,107.049 "
         id="polygon2821" />
      <polygon
         transform="matrix(1.8020893,-0.1634812,0.1634812,1.8020893,-298.8125,-111.4466)"
         style="fill:#ffffff;fill-rule:nonzero;stroke-linecap:round;stroke-linejoin:round"
         class="fil59"
         points="147.686,117.844 147.545,117.914 "
         id="polygon2823" />
      <path
         sodipodi:nodetypes="cssz"
         id="path2825"
         d="m -79.4383,41.734855 c 14.166534,10.522786 62.439949,41.109535 66.71835,48.713804 3.2108115,5.706773 -3.89314,16.477331 -9.351041,14.384241 -11.731525,-4.499 -6.467227,-10.177249 -55.860116,-47.492233"
         style="fill:#e9c642;fill-opacity:1;fill-rule:evenodd;stroke:#000000;stroke-width:2.815;stroke-linecap:round;stroke-linejoin:round;stroke-miterlimit:4;stroke-dasharray:none;stroke-opacity:1" />
      <path
         sodipodi:nodetypes="cscszczzzzzzzzzczzzzzz"
         id="path2827"
         d="m -77.634427,85.689881 c 2.408721,-1.226506 12.939032,-3.118291 15.15319,-5.982626 2.213632,-2.863656 0.673771,-6.331948 1.683447,-8.742457 2.588505,1.87902 7.006385,2.911647 8.503435,2.264835 1.403589,-0.606431 4.565552,-5.812915 4.591155,-7.858714 0.0256,-2.04581 -2.108874,-3.608583 -3.452125,-4.36546 5.518755,-3.45263 9.023845,-3.412184 12.957754,-2.509066 3.933908,0.903118 2.801672,3.17228 4.993173,4.51267 2.137927,1.307622 3.855342,0.634437 5.236815,1.903254 1.381473,1.268817 1.59096,3.419493 3.100317,5.078906 1.54619,1.699909 2.699042,0.910958 4.402758,3.024386 1.703718,2.113428 1.152637,3.302173 2.265548,5.649194 1.112912,2.347031 4.010794,1.233387 0.900084,7.023559 -3.016739,5.615246 -6.636336,8.593987 -9.129576,10.47616 -2.555515,1.929192 -8.417417,3.643596 -9.712323,2.465077 -1.544493,-1.405679 -0.879222,-1.290503 -0.427776,-2.663455 -1.249784,0.509377 -1.909006,1.111458 -4.28511,1.507008 -2.376103,0.395551 -2.905064,-0.276457 -3.881857,-1.519843 -0.976792,-1.243385 1.211515,-4.105887 -0.02531,-3.453687 -1.236827,0.6522 -1.104322,3.700164 -4.921997,6.062489 -3.817676,2.362319 -9.784381,5.126609 -14.572295,5.920949 -4.787914,0.79434 -7.818884,-2.34168 -10.019623,-2.39404"
         style="fill:#d4af8b;fill-opacity:1;fill-rule:evenodd;stroke:#000000;stroke-width:2.815;stroke-linecap:round;stroke-linejoin:round;stroke-miterlimit:4;stroke-dasharray:none;stroke-opacity:1" />
      <path
         sodipodi:nodetypes="cszz"
         id="path2829"
         d="m -57.646164,81.235683 c 6.500719,6.193742 16.720927,15.316309 24.957686,14.41743 3.833164,-0.417431 -3.065037,-14.001546 -8.506871,-19.288346 -5.441835,-5.2868 -12.76538,-2.220502 -14.764733,-0.983328"
         style="fill:none;fill-opacity:0.75;fill-rule:evenodd;stroke:#000000;stroke-width:2.815;stroke-linecap:round;stroke-linejoin:round;stroke-miterlimit:4;stroke-dasharray:none;stroke-opacity:1" />
      <path
         sodipodi:nodetypes="cz"
         id="path2831"
         d="m -40.681261,76.212549 c 1.420936,-0.482189 4.229567,-3.725935 4.790052,-8.880885"
         style="fill:none;fill-opacity:0.75;fill-rule:evenodd;stroke:#000000;stroke-width:2.815;stroke-linecap:round;stroke-linejoin:round;stroke-miterlimit:4;stroke-dasharray:none;stroke-opacity:1" />
      <path
         sodipodi:nodetypes="cz"
         id="path2833"
         d="m -34.331917,85.085243 c 2.799883,-3.154138 5.977366,-7.2047 6.565604,-10.814675"
         style="fill:none;fill-opacity:0.75;fill-rule:evenodd;stroke:#000000;stroke-width:2.815;stroke-linecap:round;stroke-linejoin:round;stroke-miterlimit:4;stroke-dasharray:none;stroke-opacity:1" />
      <path
         sodipodi:nodetypes="cz"
         id="path2835"
         d="m -31.269709,93.835147 c 4.690897,-3.274157 7.922336,-7.190059 9.413912,-11.345162"
         style="fill:none;fill-opacity:0.75;fill-rule:evenodd;stroke:#000000;stroke-width:2.815;stroke-linecap:round;stroke-linejoin:round;stroke-miterlimit:4;stroke-dasharray:none;stroke-opacity:1" />
      <g
         transform="matrix(0.702831,0.03716355,-0.03716355,0.702831,-275.97308,-686.68328)"
         id="g2837">
        <path
           style="opacity:1;fill:#667b58;fill-opacity:1;fill-rule:evenodd;stroke:#000000;stroke-width:4;stroke-linecap:butt;stroke-linejoin:round;stroke-miterlimit:4;stroke-dasharray:none;stroke-opacity:1"
           d="m 291.29335,966.00527 -38.67718,74.17803 -46.89842,-14.3872 -55.30649,-53.9986 72.6832,-27.65324 z"
           id="path2839"
           sodipodi:nodetypes="cccccc" />
        <path
           style="opacity:1;fill:#c5c5c5;fill-opacity:1;fill-rule:evenodd;stroke:#000000;stroke-width:4;stroke-linecap:butt;stroke-linejoin:round;stroke-miterlimit:4;stroke-dasharray:none;stroke-opacity:1"
           d="m 205.71775,1025.7961 -55.30649,-53.99861 72.6832,-27.65324 22.32769,7.48955 -67.75283,25.49589 49.30784,55.01851 z"
           id="path2841"
           sodipodi:nodetypes="ccccccc" />
        <path
           style="fill:#667b58;fill-opacity:1;fill-rule:evenodd;stroke:#000000;stroke-width:4;stroke-linecap:butt;stroke-linejoin:round;stroke-miterlimit:4;stroke-dasharray:none;stroke-opacity:1"
           d="m 288.17968,1000.584 -9.19725,19.6482 c -15.20275,-9.8073 -61.66295,-27.49538 -52.39566,-36.46449 9.41223,-9.10938 38.41597,3.77386 61.59291,16.81629 z"
           id="path2843"
           sodipodi:nodetypes="cczc" />
      </g>
      <path
         sodipodi:nodetypes="cccszscccczzc"
         id="path2845"
         d="m -64.623652,62.930554 c -1.833032,5.249107 -3.216735,26.673946 3.487414,42.706946 -54.837912,-1.82435 -58.029622,-21.902761 -99.074052,-30.768524 5.65714,-13.38255 12.95269,-20.428741 24.89259,-29.952724 5.335,-4.25552 11.86126,-12.186872 17.05478,-17.298454 5.19352,-5.111582 9.53547,-8.730959 15.56982,-11.276631 11.124023,-4.692817 26.888039,-3.517226 36.515007,5.106092 -2.855221,0.67932 -9.769451,-0.106276 -9.716264,4.949212 0.504711,5.707501 -4.00611,8.31006 -7.965959,11.344197 -2.577975,2.670619 -1.099721,6.782012 -4.917512,8.319702 -0.179423,4.572814 1.595234,8.986424 4.191924,13.041724 2.711178,4.234068 5.528851,6.960921 9.378074,9.460301 3.849223,2.499451 8.13683,-2.757961 10.584178,-5.631841 z"
         style="fill:#5d5d5d;fill-opacity:1;fill-rule:evenodd;stroke:#000000;stroke-width:2.81525;stroke-linecap:butt;stroke-linejoin:round;stroke-miterlimit:4;stroke-dasharray:none;stroke-opacity:1" />
      <path
         sodipodi:nodetypes="ccccczzczccczz"
         id="path2847"
         d="m -64.873618,62.627422 c -3.234886,3.505552 -6.734955,8.131291 -10.584178,5.631841 -3.849223,-2.499381 -6.666896,-5.226233 -9.378075,-9.460301 -2.596689,-4.0553 -4.371346,-8.468911 -4.191923,-13.041724 3.817791,-1.53769 2.339537,-5.649084 4.917512,-8.319702 3.959849,-3.034137 8.47067,-5.636696 7.965959,-11.344197 -0.05319,-5.055558 7.977233,-4.210983 9.902239,-4.112379 2.017754,0.103391 13.131966,1.544025 16.776535,1.335345 2.522226,-1.789093 5.235235,-4.766221 6.888597,-5.795055 1.610295,-1.002018 3.7485,-3.5071 5.782773,-2.769574 6.354466,0.417924 4.815143,7.671912 4.470169,12.440034 -0.914535,6.239231 -9.324015,7.929015 -17.676409,14.092234 -6.190816,4.704215 -5.649379,5.090749 -9.367679,10.426636 -3.7183,5.335887 -2.270634,7.411291 -5.50552,10.916842 z"
         style="fill:#d4af8b;fill-opacity:1;fill-rule:evenodd;stroke:#000000;stroke-width:2.81525;stroke-linecap:butt;stroke-linejoin:round;stroke-miterlimit:4;stroke-dasharray:none;stroke-opacity:1" />
      <path
         sodipodi:nodetypes="cc"
         id="path2849"
         d="m -38.082516,21.963435 c 0.130325,3.192144 -1.02889,5.320404 -2.876223,6.111982"
         style="fill:none;fill-opacity:0.75;fill-rule:evenodd;stroke:#000000;stroke-width:3.51906;stroke-linecap:round;stroke-linejoin:miter;stroke-miterlimit:4;stroke-dasharray:none;stroke-opacity:1" />
      <path
         sodipodi:nodetypes="cccccccc"
         style="fill:#000000;fill-rule:nonzero;stroke:#000000;stroke-width:2.81525;stroke-linecap:round;stroke-linejoin:round;stroke-miterlimit:4;stroke-dasharray:none;stroke-opacity:1"
         class="fil58"
         d="m -70.035044,50.037617 c 1.103649,-0.03667 6.995956,-2.642888 7.790068,-3.043428 -1.904968,3.307991 -3.37726,4.006526 -5.341658,8.280218 -0.865451,2.3589 -2.413797,5.463489 -4.956321,7.032499 -3.764266,-2.747475 -4.090349,-8.114048 -5.829401,-12.162732 -4.741066,-3.039838 -7.936454,-8.246857 -12.254086,-7.461191 -1.026335,-2.372271 0.553795,-4.245399 0.602745,-6.429753 1.980741,10.256525 14.423238,13.904809 19.988653,13.784387 z"
         id="path2851" />
      <path
         style="fill:#ffffff;fill-rule:nonzero"
         class="fil59"
         d="m -68.470517,56.305845 c -0.66067,0.561995 -5.59841,0.787708 -6.762024,0.516388 -0.456422,-1.010957 -0.830569,-4.041364 -1.46562,-5.247137 0.88413,0.02203 9.091644,0.729432 11.844327,-1.699004 -1.183532,1.195356 -3.996391,6.56397 -3.616683,6.429753 z"
         id="path2853" />
      <path
         sodipodi:nodetypes="czzc"
         id="path2855"
         d="m -96.300004,30.03441 c 3.552319,-1.028341 4.243027,-2.89063 7.362643,-4.113435 3.119615,-1.222804 3.132579,-1.032634 5.115826,-0.777713 1.983246,0.254921 2.817158,1.797468 2.817158,1.797468"
         style="fill:none;fill-opacity:0.75;fill-rule:evenodd;stroke:#000000;stroke-width:2.815;stroke-linecap:round;stroke-linejoin:round;stroke-miterlimit:4;stroke-dasharray:none;stroke-opacity:1" />
    </g>
  </g>
  <g
     inkscape:groupmode="layer"
     id="g14996"
     inkscape:label="logo copy"
     style="display:inline">
    <g
       id="g14994"
       transform="matrix(0.2230704,0,0,0.2322423,46.969368,6.5451007)"
       inkscape:export-filename="/home/filips/svn/geokrety/templates/logo/geokrety.png"
       inkscape:export-xdpi="156.7616"
       inkscape:export-ydpi="156.7616">
      <polygon
         transform="matrix(1.8020893,-0.1634812,0.1634812,1.8020893,-298.8125,-111.4466)"
         style="fill:#ffffff;fill-rule:nonzero;stroke-linecap:round;stroke-linejoin:round"
         class="fil59"
         points="151.143,106.696 151.073,106.766 "
         id="polygon14956" />
      <polygon
         transform="matrix(1.8020893,-0.1634812,0.1634812,1.8020893,-298.8125,-111.4466)"
         style="fill:#ffffff;fill-rule:nonzero;stroke-linecap:round;stroke-linejoin:round"
         class="fil59"
         points="151.955,106.908 152.06,107.049 "
         id="polygon14958" />
      <polygon
         transform="matrix(1.8020893,-0.1634812,0.1634812,1.8020893,-298.8125,-111.4466)"
         style="fill:#ffffff;fill-rule:nonzero;stroke-linecap:round;stroke-linejoin:round"
         class="fil59"
         points="147.686,117.844 147.545,117.914 "
         id="polygon14960" />
      <path
         sodipodi:nodetypes="cssz"
         id="path14962"
         d="m -79.4383,41.734855 c 14.166534,10.522786 62.439949,41.109535 66.71835,48.713804 3.2108115,5.706773 -3.89314,16.477331 -9.351041,14.384241 -11.731525,-4.499 -6.467227,-10.177249 -55.860116,-47.492233"
         style="fill:#e9c642;fill-opacity:1;fill-rule:evenodd;stroke:#000000;stroke-width:2.815;stroke-linecap:round;stroke-linejoin:round;stroke-miterlimit:4;stroke-dasharray:none;stroke-opacity:1" />
      <path
         sodipodi:nodetypes="cscszczzzzzzzzzczzzzzz"
         id="path14964"
         d="m -77.634427,85.689881 c 2.408721,-1.226506 12.939032,-3.118291 15.15319,-5.982626 2.213632,-2.863656 0.673771,-6.331948 1.683447,-8.742457 2.588505,1.87902 7.006385,2.911647 8.503435,2.264835 1.403589,-0.606431 4.565552,-5.812915 4.591155,-7.858714 0.0256,-2.04581 -2.108874,-3.608583 -3.452125,-4.36546 5.518755,-3.45263 9.023845,-3.412184 12.957754,-2.509066 3.933908,0.903118 2.801672,3.17228 4.993173,4.51267 2.137927,1.307622 3.855342,0.634437 5.236815,1.903254 1.381473,1.268817 1.59096,3.419493 3.100317,5.078906 1.54619,1.699909 2.699042,0.910958 4.402758,3.024386 1.703718,2.113428 1.152637,3.302173 2.265548,5.649194 1.112912,2.347031 4.010794,1.233387 0.900084,7.023559 -3.016739,5.615246 -6.636336,8.593987 -9.129576,10.47616 -2.555515,1.929192 -8.417417,3.643596 -9.712323,2.465077 -1.544493,-1.405679 -0.879222,-1.290503 -0.427776,-2.663455 -1.249784,0.509377 -1.909006,1.111458 -4.28511,1.507008 -2.376103,0.395551 -2.905064,-0.276457 -3.881857,-1.519843 -0.976792,-1.243385 1.211515,-4.105887 -0.02531,-3.453687 -1.236827,0.6522 -1.104322,3.700164 -4.921997,6.062489 -3.817676,2.362319 -9.784381,5.126609 -14.572295,5.920949 -4.787914,0.79434 -7.818884,-2.34168 -10.019623,-2.39404"
         style="fill:#d4af8b;fill-opacity:1;fill-rule:evenodd;stroke:#000000;stroke-width:2.815;stroke-linecap:round;stroke-linejoin:round;stroke-miterlimit:4;stroke-dasharray:none;stroke-opacity:1" />
      <path
         sodipodi:nodetypes="cszz"
         id="path14966"
         d="m -57.646164,81.235683 c 6.500719,6.193742 16.720927,15.316309 24.957686,14.41743 3.833164,-0.417431 -3.065037,-14.001546 -8.506871,-19.288346 -5.441835,-5.2868 -12.76538,-2.220502 -14.764733,-0.983328"
         style="fill:none;fill-opacity:0.75;fill-rule:evenodd;stroke:#000000;stroke-width:2.815;stroke-linecap:round;stroke-linejoin:round;stroke-miterlimit:4;stroke-dasharray:none;stroke-opacity:1" />
      <path
         sodipodi:nodetypes="cz"
         id="path14968"
         d="m -40.681261,76.212549 c 1.420936,-0.482189 4.229567,-3.725935 4.790052,-8.880885"
         style="fill:none;fill-opacity:0.75;fill-rule:evenodd;stroke:#000000;stroke-width:2.815;stroke-linecap:round;stroke-linejoin:round;stroke-miterlimit:4;stroke-dasharray:none;stroke-opacity:1" />
      <path
         sodipodi:nodetypes="cz"
         id="path14970"
         d="m -34.331917,85.085243 c 2.799883,-3.154138 5.977366,-7.2047 6.565604,-10.814675"
         style="fill:none;fill-opacity:0.75;fill-rule:evenodd;stroke:#000000;stroke-width:2.815;stroke-linecap:round;stroke-linejoin:round;stroke-miterlimit:4;stroke-dasharray:none;stroke-opacity:1" />
      <path
         sodipodi:nodetypes="cz"
         id="path14972"
         d="m -31.269709,93.835147 c 4.690897,-3.274157 7.922336,-7.190059 9.413912,-11.345162"
         style="fill:none;fill-opacity:0.75;fill-rule:evenodd;stroke:#000000;stroke-width:2.815;stroke-linecap:round;stroke-linejoin:round;stroke-miterlimit:4;stroke-dasharray:none;stroke-opacity:1" />
      <g
         transform="matrix(0.702831,0.03716355,-0.03716355,0.702831,-275.97308,-686.68328)"
         id="g14980">
        <path
           style="opacity:1;fill:#667b58;fill-opacity:1;fill-rule:evenodd;stroke:#000000;stroke-width:4;stroke-linecap:butt;stroke-linejoin:round;stroke-miterlimit:4;stroke-dasharray:none;stroke-opacity:1"
           d="m 291.29335,966.00527 -38.67718,74.17803 -46.89842,-14.3872 -55.30649,-53.9986 72.6832,-27.65324 z"
           id="path14974"
           sodipodi:nodetypes="cccccc" />
        <path
           style="opacity:1;fill:#c5c5c5;fill-opacity:1;fill-rule:evenodd;stroke:#000000;stroke-width:4;stroke-linecap:butt;stroke-linejoin:round;stroke-miterlimit:4;stroke-dasharray:none;stroke-opacity:1"
           d="m 205.71775,1025.7961 -55.30649,-53.99861 72.6832,-27.65324 22.32769,7.48955 -67.75283,25.49589 49.30784,55.01851 z"
           id="path14976"
           sodipodi:nodetypes="ccccccc" />
        <path
           style="fill:#667b58;fill-opacity:1;fill-rule:evenodd;stroke:#000000;stroke-width:4;stroke-linecap:butt;stroke-linejoin:round;stroke-miterlimit:4;stroke-dasharray:none;stroke-opacity:1"
           d="m 288.17968,1000.584 -9.19725,19.6482 c -15.20275,-9.8073 -61.66295,-27.49538 -52.39566,-36.46449 9.41223,-9.10938 38.41597,3.77386 61.59291,16.81629 z"
           id="path14978"
           sodipodi:nodetypes="cczc" />
      </g>
      <path
         sodipodi:nodetypes="cccszscccczzc"
         id="path14982"
         d="m -64.623652,62.930554 c -1.833032,5.249107 -3.216735,26.673946 3.487414,42.706946 -54.837912,-1.82435 -58.029622,-21.902761 -99.074052,-30.768524 5.65714,-13.38255 12.95269,-20.428741 24.89259,-29.952724 5.335,-4.25552 11.86126,-12.186872 17.05478,-17.298454 5.19352,-5.111582 9.53547,-8.730959 15.56982,-11.276631 11.124023,-4.692817 26.888039,-3.517226 36.515007,5.106092 -2.855221,0.67932 -9.769451,-0.106276 -9.716264,4.949212 0.504711,5.707501 -4.00611,8.31006 -7.965959,11.344197 -2.577975,2.670619 -1.099721,6.782012 -4.917512,8.319702 -0.179423,4.572814 1.595234,8.986424 4.191924,13.041724 2.711178,4.234068 5.528851,6.960921 9.378074,9.460301 3.849223,2.499451 8.13683,-2.757961 10.584178,-5.631841 z"
         style="fill:#5d5d5d;fill-opacity:1;fill-rule:evenodd;stroke:#000000;stroke-width:2.81525;stroke-linecap:butt;stroke-linejoin:round;stroke-miterlimit:4;stroke-dasharray:none;stroke-opacity:1" />
      <path
         sodipodi:nodetypes="ccccczzczccczz"
         id="path14984"
         d="m -64.873618,62.627422 c -3.234886,3.505552 -6.734955,8.131291 -10.584178,5.631841 -3.849223,-2.499381 -6.666896,-5.226233 -9.378075,-9.460301 -2.596689,-4.0553 -4.371346,-8.468911 -4.191923,-13.041724 3.817791,-1.53769 2.339537,-5.649084 4.917512,-8.319702 3.959849,-3.034137 8.47067,-5.636696 7.965959,-11.344197 -0.05319,-5.055558 7.977233,-4.210983 9.902239,-4.112379 2.017754,0.103391 13.131966,1.544025 16.776535,1.335345 2.522226,-1.789093 5.235235,-4.766221 6.888597,-5.795055 1.610295,-1.002018 3.7485,-3.5071 5.782773,-2.769574 6.354466,0.417924 4.815143,7.671912 4.470169,12.440034 -0.914535,6.239231 -9.324015,7.929015 -17.676409,14.092234 -6.190816,4.704215 -5.649379,5.090749 -9.367679,10.426636 -3.7183,5.335887 -2.270634,7.411291 -5.50552,10.916842 z"
         style="fill:#d4af8b;fill-opacity:1;fill-rule:evenodd;stroke:#000000;stroke-width:2.81525;stroke-linecap:butt;stroke-linejoin:round;stroke-miterlimit:4;stroke-dasharray:none;stroke-opacity:1" />
      <path
         sodipodi:nodetypes="cc"
         id="path14986"
         d="m -38.082516,21.963435 c 0.130325,3.192144 -1.02889,5.320404 -2.876223,6.111982"
         style="fill:none;fill-opacity:0.75;fill-rule:evenodd;stroke:#000000;stroke-width:3.51906;stroke-linecap:round;stroke-linejoin:miter;stroke-miterlimit:4;stroke-dasharray:none;stroke-opacity:1" />
      <path
         sodipodi:nodetypes="cccccccc"
         style="fill:#000000;fill-rule:nonzero;stroke:#000000;stroke-width:2.81525;stroke-linecap:round;stroke-linejoin:round;stroke-miterlimit:4;stroke-dasharray:none;stroke-opacity:1"
         class="fil58"
         d="m -70.035044,50.037617 c 1.103649,-0.03667 6.995956,-2.642888 7.790068,-3.043428 -1.904968,3.307991 -3.37726,4.006526 -5.341658,8.280218 -0.865451,2.3589 -2.413797,5.463489 -4.956321,7.032499 -3.764266,-2.747475 -4.090349,-8.114048 -5.829401,-12.162732 -4.741066,-3.039838 -7.936454,-8.246857 -12.254086,-7.461191 -1.026335,-2.372271 0.553795,-4.245399 0.602745,-6.429753 1.980741,10.256525 14.423238,13.904809 19.988653,13.784387 z"
         id="path14988" />
      <path
         style="fill:#ffffff;fill-rule:nonzero"
         class="fil59"
         d="m -68.470517,56.305845 c -0.66067,0.561995 -5.59841,0.787708 -6.762024,0.516388 -0.456422,-1.010957 -0.830569,-4.041364 -1.46562,-5.247137 0.88413,0.02203 9.091644,0.729432 11.844327,-1.699004 -1.183532,1.195356 -3.996391,6.56397 -3.616683,6.429753 z"
         id="path14990" />
      <path
         sodipodi:nodetypes="czzc"
         id="path14992"
         d="m -96.300004,30.03441 c 3.552319,-1.028341 4.243027,-2.89063 7.362643,-4.113435 3.119615,-1.222804 3.132579,-1.032634 5.115826,-0.777713 1.983246,0.254921 2.817158,1.797468 2.817158,1.797468"
         style="fill:none;fill-opacity:0.75;fill-rule:evenodd;stroke:#000000;stroke-width:2.815;stroke-linecap:round;stroke-linejoin:round;stroke-miterlimit:4;stroke-dasharray:none;stroke-opacity:1" />
    </g>
  </g>
</svg>
