<svg xmlns="http://www.w3.org/2000/svg" width="1233.153" height="191.978" viewBox="0 0 326.272 50.794"><defs><linearGradient id="a"><stop offset="0" stop-color="#520"/><stop offset="1" stop-color="#b6632c"/></linearGradient><linearGradient id="b"><stop offset="0" stop-color="#ff5959"/><stop offset="1" stop-color="#d90000"/></linearGradient><linearGradient id="c"><stop offset="0" stop-color="#f1dcc5"/><stop offset="1" stop-color="#e9b68b"/></linearGradient><pattern id="d" width="2" height="1" patternTransform="scale(10)" patternUnits="userSpaceOnUse"><path d="M0-.5h1v2H0z" style="fill:#fff"/></pattern></defs><path d="M152.353 228.829c-.312.279-.575.574-.788.886.123.664.189 1.259.197 1.784l-.099.69.099 1.094-.69 2.966-3.371.898-.493.492.296.985c.254.476.55.874.886 1.193.36.386.726.714 1.095.985a3.43 3.43 0 0 1 1.39.701l-.209 1.97a3.89 3.89 0 0 0 .701 1.39l1.28.886 1.39.504c.6-.022 1.125-.16 1.576-.406.197-.607.332-1.165.406-1.674.006-.68.074-1.275.197-1.784.115-.46.378-.69.788-.69.615.023 1.144.124 1.587.296l4.75 1.182c.566.262 1.091.46 1.575.59l1.39.603c.534.262 1.063.46 1.588.59.484.37.944.633 1.378.789l1.292.799c.55.254 1.042.451 1.477.59l.826.082c-.387-.344-.754-.723-.962-1.176l-.124-.275-.131-1.153.087-.646.012.023-.023-.721-.275-.191-1.39-.69a12.007 12.007 0 0 0-1.379-.787l-1.39-.701c-.582-.164-1.075-.361-1.477-.591l-3.076-.985a6.322 6.322 0 0 0-1.576-.504 15.717 15.717 0 0 0-1.587-.492l-.492-.197c.262-.189.525-.32.787-.394l1.49-.69a6.78 6.78 0 0 1 1.28-.602l4.158-2.276 1.39-.493c.583-.09 1.043-.32 1.38-.69l.098-.295-.296-1.488-.984-1.182a6.378 6.378 0 0 0-1.489-.406c-.64.09-1.169.225-1.587.406a11.39 11.39 0 0 1-1.773.295l-.799.887-3.95 2.178-1.588.59a10.14 10.14 0 0 1-.196-1.477 4.807 4.807 0 0 0-.394-1.685c-.402-.386-.8-.718-1.194-.997-.37-.303-.73-.566-1.083-.787l-.985-.197zm93.017 2.884-.611.481-1.298 2.048c-.19.23-.352.46-.484.69l-.886 1.358a7.335 7.335 0 0 0-.345.747 3.372 3.372 0 0 1-.54.553l-.276.136-.886-.964c-.19-.21-.374-.39-.55-.542l-.957-1.367-.62-.472-.738-.414-.825-.275-.898.07-.886-.278a4.15 4.15 0 0 0-.609.553l.07.895.48.68.542.542c.197.223.401.406.611.55l.481.611 3.012 2.668c.223.164.427.32.611.472a1.867 1.867 0 0 1-.205.758l.07.206-.14.678-.205 2.06.205 2.105.276.828c.236.15.442.308.62.472l.689.48.886.07c.302-.111.574-.226.817-.344.118-.309.21-.6.275-.875l-.078-.69.078-.274.278-2.737.263-.817c.105-.283.22-.534.345-.75l.275-.817.82-1.515c.15-.223.308-.427.472-.611l.344-.817 2.254-3.348.07-.214-.07-.739a4.732 4.732 0 0 0-.414-.758l-.678-.484a2.324 2.324 0 0 0-.69-.402 4.177 4.177 0 0 0-.955-.206zm-15.742.748c-.387.098-.748.15-1.083.156l-1.013.226-2.097.237c-.315.151-.627.257-.936.316l-.776.304-2.954.78c-.302.039-.56.116-.776.234l-1.014.16a7.003 7.003 0 0 1-1.083.234l-.936.307-2.798.472-.854.46-.857.316-.777.464-.159.238.238.698c.197.249.403.455.62.62.242.216.474.397.698.54.262.191.523.348.779.473l1.161.148c.341-.079.653-.18.936-.305a5.22 5.22 0 0 0 .854-.159c.354-.059.666-.136.936-.234l.935-.307 3.032-.55h.078v.237l-.472 6.221c.099.342.23.654.394.936l1.24 1.24 1.014.237.237.079.846-.079c.282-.184.519-.393.71-.623l.07-.776-.07-.315.225-2.254c.006-.348.06-.66.16-.935l-.082-.304.082-.858h-.082v-.237l.082-.777.234-.935v-1.24c.006-.354.034-.666.078-.935l.927-.307 1.092-.157 1.793-.472.226.078 1.853-.3-.153-.215-.16-2.076-.527-.362zm-24.03.012-5.04.434h-.217l-.148-.07-5.975.936-.148.07-.432-.07-1.005.354-.582-.067-.718.362-.353.718.283.721.058.214c.04.122.07.244.095.368l.134.498v.287l.07.07-.04.153.023.11-.012.034h.028v.205l-.357 2.668.07.504-.214.944-.287 2.737.07.857c.222.164.415.333.579.51l.434.64 1.437.582c.203-.112.419-.185.648-.218.256-.039.499-.112.721-.217.315 0 .604-.022.866-.07l.788-.283 1.732-.434.719-.296 1.732-.353c.327-.065.614-.164.857-.295.321-.034.61-.08.866-.14l3.455-.796.866-.07 2.384-.787c.23-.15.42-.32.57-.51.112-.288.185-.574.218-.857l-.365-.73a2.902 2.902 0 0 1-.423-.5l-1.013-.07-.936.07-5.908 1.083-.788.07-2.598.578-.788.287c-.322.06-.61.132-.866.218l-1.367.362v-.362l.214-.652c.079-.262.248-.405.504-.431l1.654-.287.214.07.582-.07.788-.284.866-.148.796-.287c.289-.078.552-.128.788-.148l.8-.139c.21-.111.423-.182.64-.214l.796-.295 2.59-.435.718-.431.077-.209-.147-.579a2.96 2.96 0 0 0-.432-.652 2.252 2.252 0 0 0-.651-.431 3.466 3.466 0 0 0-.64-.435l-.866-.069-1.014.148h-.217l-.137-.078-1.448.217-.718.295-.217-.078-2.303.502-.718.295-1.654.217a.548.548 0 0 1-.434-.434.964.964 0 0 1 .287-.58l.718-.286c.328-.034.617-.082.866-.148l2.598-.57 1.005-.079.218.078 4.173-.431h1.014l1.793-.217.579-.434c.197-.151.342-.341.434-.571l-.365-.727-.5-.573-.652-.432a4.637 4.637 0 0 0-.719-.287 6.339 6.339 0 0 0-1.005-.147zm-26.649.022-1.022.206-2.117.139-.14-.206a1.76 1.76 0 0 1-.538.136l-.828.472-.14.278.07.747a5.85 5.85 0 0 0-.196 1.231l-.276 1.162-.205 2.322.07.206-.07.886.07.681-.07.62.07 2.117.066.127-.136 1.022.07.623c.144.315.345.564.607.747.217.296.47.478.76.55.282.23.577.411.885.542l.472.14a2.16 2.16 0 0 1 .484-.276c.262-.289.443-.584.542-.886.124-.46.192-.87.205-1.231.092-.46.14-.87.14-1.231l.066-.472.611.07 3.348.883c.335.144.651.26.953.344l.898.336 1.22.206c.472.059.859.13 1.16.208l.276.07 2.117-.14.594-.118-.028-.377.217-2.074-.298-.159-1.161-.275-1.162.07-.553-.07h-.817l-1.092-.206a6.86 6.86 0 0 0-1.025-.205l-1.092-.336-.402-.345 1.289-.139.069-.066.206.066 2.047-.344c.374-.028.694-.113.956-.264l1.023-.208 1.645-1.162.61-.747c.119-.224.205-.442.264-.654v-.102l-.058-.336a1.615 1.615 0 0 0-.023-.193l-.09-.333a1.757 1.757 0 0 0-.23-.43l-.542-.827a4.77 4.77 0 0 0-.817-.609 3.2 3.2 0 0 0-.825-.61l-1.981-.76a5.002 5.002 0 0 0-1.023-.402 7.457 7.457 0 0 0-1.092-.209zm1.842 3.073 2.187.136.206-.07 1.978.345.344.267-.344.414c-.322.256-.64.439-.956.55l-1.022.266-2.187.276h-.275l-.206.069h-.956c-.453.079-.84.126-1.161.139l-.678.136-.139-.48.14-1.165c.15-.387.422-.589.816-.608.46-.085.846-.133 1.161-.14zm-1.735.33-.886.18.154-.013c.168-.006.451-.045.756-.09zm.539 7.921c-.017.11-.034.22-.045.328l.04-.255zm-.124 1.098c0 .012-.006.022-.006.034a7.039 7.039 0 0 0-.017.136z" style="display:inline;opacity:.824272;mix-blend-mode:normal;fill:#fff;fill-opacity:1;stroke-width:.0572722" transform="translate(-12.206 -212.8)"/><path d="M152.353 228.829c-.312.279-.575.574-.788.886.123.664.189 1.259.197 1.784l-.099.69.099 1.094-.69 2.966-3.371.898-.493.492.296.985c.254.476.55.874.886 1.193.36.386.726.714 1.095.985a3.43 3.43 0 0 1 1.39.701l-.209 1.97a3.89 3.89 0 0 0 .701 1.39l1.28.886 1.39.504c.6-.022 1.125-.16 1.576-.406.197-.607.332-1.165.406-1.674.006-.68.074-1.275.197-1.784.115-.46.378-.69.788-.69.615.023 1.144.124 1.587.296l4.75 1.182c.566.262 1.091.46 1.575.59l1.39.603c.534.262 1.063.46 1.588.59.484.37.944.633 1.378.789l1.292.799c.55.254 1.042.451 1.477.59l.826.082c-.387-.344-.754-.723-.962-1.176l-.124-.275-.131-1.153.087-.646.012.023-.023-.721-.275-.191-1.39-.69a12.007 12.007 0 0 0-1.379-.787l-1.39-.701c-.582-.164-1.075-.361-1.477-.591l-3.076-.985a6.322 6.322 0 0 0-1.576-.504 15.717 15.717 0 0 0-1.587-.492l-.492-.197c.262-.189.525-.32.787-.394l1.49-.69a6.78 6.78 0 0 1 1.28-.602l4.158-2.276 1.39-.493c.583-.09 1.043-.32 1.38-.69l.098-.295-.296-1.488-.984-1.182a6.378 6.378 0 0 0-1.489-.406c-.64.09-1.169.225-1.587.406a11.39 11.39 0 0 1-1.773.295l-.799.887-3.95 2.178-1.588.59a10.14 10.14 0 0 1-.196-1.477 4.807 4.807 0 0 0-.394-1.685c-.402-.386-.8-.718-1.194-.997-.37-.303-.73-.566-1.083-.787l-.985-.197zm93.017 2.884-.611.481-1.298 2.048c-.19.23-.352.46-.484.69l-.886 1.358a7.335 7.335 0 0 0-.345.747 3.372 3.372 0 0 1-.54.553l-.276.136-.886-.964c-.19-.21-.374-.39-.55-.542l-.957-1.367-.62-.472-.738-.414-.825-.275-.898.07-.886-.278a4.15 4.15 0 0 0-.609.553l.07.895.48.68.542.542c.197.223.401.406.611.55l.481.611 3.012 2.668c.223.164.427.32.611.472a1.867 1.867 0 0 1-.205.758l.07.206-.14.678-.205 2.06.205 2.105.276.828c.236.15.442.308.62.472l.689.48.886.07c.302-.111.574-.226.817-.344.118-.309.21-.6.275-.875l-.078-.69.078-.274.278-2.737.263-.817c.105-.283.22-.534.345-.75l.275-.817.82-1.515c.15-.223.308-.427.472-.611l.344-.817 2.254-3.348.07-.214-.07-.739a4.732 4.732 0 0 0-.414-.758l-.678-.484a2.324 2.324 0 0 0-.69-.402 4.177 4.177 0 0 0-.955-.206zm-15.742.748c-.387.098-.748.15-1.083.156l-1.013.226-2.097.237c-.315.151-.627.257-.936.316l-.776.304-2.954.78c-.302.039-.56.116-.776.234l-1.014.16a7.003 7.003 0 0 1-1.083.234l-.936.307-2.798.472-.854.46-.857.316-.777.464-.159.238.238.698c.197.249.403.455.62.62.242.216.474.397.698.54.262.191.523.348.779.473l1.161.148c.341-.079.653-.18.936-.305a5.22 5.22 0 0 0 .854-.159c.354-.059.666-.136.936-.234l.935-.307 3.032-.55h.078v.237l-.472 6.221c.099.342.23.654.394.936l1.24 1.24 1.014.237.237.079.846-.079c.282-.184.519-.393.71-.623l.07-.776-.07-.315.225-2.254c.006-.348.06-.66.16-.935l-.082-.304.082-.858h-.082v-.237l.082-.777.234-.935v-1.24c.006-.354.034-.666.078-.935l.927-.307 1.092-.157 1.793-.472.226.078 1.853-.3-.153-.215-.16-2.076-.527-.362zm-24.03.012-5.04.434h-.217l-.148-.07-5.975.936-.148.07-.432-.07-1.005.354-.582-.067-.718.362-.353.718.283.721.058.214c.04.122.07.244.095.368l.134.498v.287l.07.07-.04.153.023.11-.012.034h.028v.205l-.357 2.668.07.504-.214.944-.287 2.737.07.857c.222.164.415.333.579.51l.434.64 1.437.582c.203-.112.419-.185.648-.218.256-.039.499-.112.721-.217.315 0 .604-.022.866-.07l.788-.283 1.732-.434.719-.296 1.732-.353c.327-.065.614-.164.857-.295.321-.034.61-.08.866-.14l3.455-.796.866-.07 2.384-.787c.23-.15.42-.32.57-.51.112-.288.185-.574.218-.857l-.365-.73a2.902 2.902 0 0 1-.423-.5l-1.013-.07-.936.07-5.908 1.083-.788.07-2.598.578-.788.287c-.322.06-.61.132-.866.218l-1.367.362v-.362l.214-.652c.079-.262.248-.405.504-.431l1.654-.287.214.07.582-.07.788-.284.866-.148.796-.287c.289-.078.552-.128.788-.148l.8-.139c.21-.111.423-.182.64-.214l.796-.295 2.59-.435.718-.431.077-.209-.147-.579a2.96 2.96 0 0 0-.432-.652 2.252 2.252 0 0 0-.651-.431 3.466 3.466 0 0 0-.64-.435l-.866-.069-1.014.148h-.217l-.137-.078-1.448.217-.718.295-.217-.078-2.303.502-.718.295-1.654.217a.548.548 0 0 1-.434-.434.964.964 0 0 1 .287-.58l.718-.286c.328-.034.617-.082.866-.148l2.598-.57 1.005-.079.218.078 4.173-.431h1.014l1.793-.217.579-.434c.197-.151.342-.341.434-.571l-.365-.727-.5-.573-.652-.432a4.637 4.637 0 0 0-.719-.287 6.339 6.339 0 0 0-1.005-.147zm-26.649.022-1.022.206-2.117.139-.14-.206a1.76 1.76 0 0 1-.538.136l-.828.472-.14.278.07.747a5.85 5.85 0 0 0-.196 1.231l-.276 1.162-.205 2.322.07.206-.07.886.07.681-.07.62.07 2.117.066.127-.136 1.022.07.623c.144.315.345.564.607.747.217.296.47.478.76.55.282.23.577.411.885.542l.472.14a2.16 2.16 0 0 1 .484-.276c.262-.289.443-.584.542-.886.124-.46.192-.87.205-1.231.092-.46.14-.87.14-1.231l.066-.472.611.07 3.348.883c.335.144.651.26.953.344l.898.336 1.22.206c.472.059.859.13 1.16.208l.276.07 2.117-.14.594-.118-.028-.377.217-2.074-.298-.159-1.161-.275-1.162.07-.553-.07h-.817l-1.092-.206a6.86 6.86 0 0 0-1.025-.205l-1.092-.336-.402-.345 1.289-.139.069-.066.206.066 2.047-.344c.374-.028.694-.113.956-.264l1.023-.208 1.645-1.162.61-.747c.119-.224.205-.442.264-.654v-.102l-.058-.336a1.615 1.615 0 0 0-.023-.193l-.09-.333a1.757 1.757 0 0 0-.23-.43l-.542-.827a4.77 4.77 0 0 0-.817-.609 3.2 3.2 0 0 0-.825-.61l-1.981-.76a5.002 5.002 0 0 0-1.023-.402 7.457 7.457 0 0 0-1.092-.209zm1.842 3.073 2.187.136.206-.07 1.978.345.344.267-.344.414c-.322.256-.64.439-.956.55l-1.022.266-2.187.276h-.275l-.206.069h-.956c-.453.079-.84.126-1.161.139l-.678.136-.139-.48.14-1.165c.15-.387.422-.589.816-.608.46-.085.846-.133 1.161-.14zm-1.735.33-.886.18.154-.013c.168-.006.451-.045.756-.09zm.539 7.921c-.017.11-.034.22-.045.328l.04-.255zm-.124 1.098c0 .012-.006.022-.006.034a7.039 7.039 0 0 0-.017.136z" style="display:inline;opacity:.824272;mix-blend-mode:normal;fill:#fff;fill-opacity:1;stroke-width:.0572722" transform="translate(-12.206 -212.8)"/><path d="M152.353 228.829c-.312.279-.575.574-.788.886.123.664.189 1.259.197 1.784l-.099.69.099 1.094-.69 2.966-3.371.898-.493.492.296.985c.254.476.55.874.886 1.193.36.386.726.714 1.095.985a3.43 3.43 0 0 1 1.39.701l-.209 1.97a3.89 3.89 0 0 0 .701 1.39l1.28.886 1.39.504c.6-.022 1.125-.16 1.576-.406.197-.607.332-1.165.406-1.674.006-.68.074-1.275.197-1.784.115-.46.378-.69.788-.69.615.023 1.144.124 1.587.296l4.75 1.182c.566.262 1.091.46 1.575.59l1.39.603c.534.262 1.063.46 1.588.59.484.37.944.633 1.378.789l1.292.799c.55.254 1.042.451 1.477.59l.826.082c-.387-.344-.754-.723-.962-1.176l-.124-.275-.131-1.153.087-.646.012.023-.023-.721-.275-.191-1.39-.69a12.007 12.007 0 0 0-1.379-.787l-1.39-.701c-.582-.164-1.075-.361-1.477-.591l-3.076-.985a6.322 6.322 0 0 0-1.576-.504 15.717 15.717 0 0 0-1.587-.492l-.492-.197c.262-.189.525-.32.787-.394l1.49-.69a6.78 6.78 0 0 1 1.28-.602l4.158-2.276 1.39-.493c.583-.09 1.043-.32 1.38-.69l.098-.295-.296-1.488-.984-1.182a6.378 6.378 0 0 0-1.489-.406c-.64.09-1.169.225-1.587.406a11.39 11.39 0 0 1-1.773.295l-.799.887-3.95 2.178-1.588.59a10.14 10.14 0 0 1-.196-1.477 4.807 4.807 0 0 0-.394-1.685c-.402-.386-.8-.718-1.194-.997-.37-.303-.73-.566-1.083-.787l-.985-.197zm93.017 2.884-.611.481-1.298 2.048c-.19.23-.352.46-.484.69l-.886 1.358a7.335 7.335 0 0 0-.345.747 3.372 3.372 0 0 1-.54.553l-.276.136-.886-.964c-.19-.21-.374-.39-.55-.542l-.957-1.367-.62-.472-.738-.414-.825-.275-.898.07-.886-.278a4.15 4.15 0 0 0-.609.553l.07.895.48.68.542.542c.197.223.401.406.611.55l.481.611 3.012 2.668c.223.164.427.32.611.472a1.867 1.867 0 0 1-.205.758l.07.206-.14.678-.205 2.06.205 2.105.276.828c.236.15.442.308.62.472l.689.48.886.07c.302-.111.574-.226.817-.344.118-.309.21-.6.275-.875l-.078-.69.078-.274.278-2.737.263-.817c.105-.283.22-.534.345-.75l.275-.817.82-1.515c.15-.223.308-.427.472-.611l.344-.817 2.254-3.348.07-.214-.07-.739a4.732 4.732 0 0 0-.414-.758l-.678-.484a2.324 2.324 0 0 0-.69-.402 4.177 4.177 0 0 0-.955-.206zm-15.742.748c-.387.098-.748.15-1.083.156l-1.013.226-2.097.237c-.315.151-.627.257-.936.316l-.776.304-2.954.78c-.302.039-.56.116-.776.234l-1.014.16a7.003 7.003 0 0 1-1.083.234l-.936.307-2.798.472-.854.46-.857.316-.777.464-.159.238.238.698c.197.249.403.455.62.62.242.216.474.397.698.54.262.191.523.348.779.473l1.161.148c.341-.079.653-.18.936-.305a5.22 5.22 0 0 0 .854-.159c.354-.059.666-.136.936-.234l.935-.307 3.032-.55h.078v.237l-.472 6.221c.099.342.23.654.394.936l1.24 1.24 1.014.237.237.079.846-.079c.282-.184.519-.393.71-.623l.07-.776-.07-.315.225-2.254c.006-.348.06-.66.16-.935l-.082-.304.082-.858h-.082v-.237l.082-.777.234-.935v-1.24c.006-.354.034-.666.078-.935l.927-.307 1.092-.157 1.793-.472.226.078 1.853-.3-.153-.215-.16-2.076-.527-.362zm-24.03.012-5.04.434h-.217l-.148-.07-5.975.936-.148.07-.432-.07-1.005.354-.582-.067-.718.362-.353.718.283.721.058.214c.04.122.07.244.095.368l.134.498v.287l.07.07-.04.153.023.11-.012.034h.028v.205l-.357 2.668.07.504-.214.944-.287 2.737.07.857c.222.164.415.333.579.51l.434.64 1.437.582c.203-.112.419-.185.648-.218.256-.039.499-.112.721-.217.315 0 .604-.022.866-.07l.788-.283 1.732-.434.719-.296 1.732-.353c.327-.065.614-.164.857-.295.321-.034.61-.08.866-.14l3.455-.796.866-.07 2.384-.787c.23-.15.42-.32.57-.51.112-.288.185-.574.218-.857l-.365-.73a2.902 2.902 0 0 1-.423-.5l-1.013-.07-.936.07-5.908 1.083-.788.07-2.598.578-.788.287c-.322.06-.61.132-.866.218l-1.367.362v-.362l.214-.652c.079-.262.248-.405.504-.431l1.654-.287.214.07.582-.07.788-.284.866-.148.796-.287c.289-.078.552-.128.788-.148l.8-.139c.21-.111.423-.182.64-.214l.796-.295 2.59-.435.718-.431.077-.209-.147-.579a2.96 2.96 0 0 0-.432-.652 2.252 2.252 0 0 0-.651-.431 3.466 3.466 0 0 0-.64-.435l-.866-.069-1.014.148h-.217l-.137-.078-1.448.217-.718.295-.217-.078-2.303.502-.718.295-1.654.217a.548.548 0 0 1-.434-.434.964.964 0 0 1 .287-.58l.718-.286c.328-.034.617-.082.866-.148l2.598-.57 1.005-.079.218.078 4.173-.431h1.014l1.793-.217.579-.434c.197-.151.342-.341.434-.571l-.365-.727-.5-.573-.652-.432a4.637 4.637 0 0 0-.719-.287 6.339 6.339 0 0 0-1.005-.147zm-26.649.022-1.022.206-2.117.139-.14-.206a1.76 1.76 0 0 1-.538.136l-.828.472-.14.278.07.747a5.85 5.85 0 0 0-.196 1.231l-.276 1.162-.205 2.322.07.206-.07.886.07.681-.07.62.07 2.117.066.127-.136 1.022.07.623c.144.315.345.564.607.747.217.296.47.478.76.55.282.23.577.411.885.542l.472.14a2.16 2.16 0 0 1 .484-.276c.262-.289.443-.584.542-.886.124-.46.192-.87.205-1.231.092-.46.14-.87.14-1.231l.066-.472.611.07 3.348.883c.335.144.651.26.953.344l.898.336 1.22.206c.472.059.859.13 1.16.208l.276.07 2.117-.14.594-.118-.028-.377.217-2.074-.298-.159-1.161-.275-1.162.07-.553-.07h-.817l-1.092-.206a6.86 6.86 0 0 0-1.025-.205l-1.092-.336-.402-.345 1.289-.139.069-.066.206.066 2.047-.344c.374-.028.694-.113.956-.264l1.023-.208 1.645-1.162.61-.747c.119-.224.205-.442.264-.654v-.102l-.058-.336a1.615 1.615 0 0 0-.023-.193l-.09-.333a1.757 1.757 0 0 0-.23-.43l-.542-.827a4.77 4.77 0 0 0-.817-.609 3.2 3.2 0 0 0-.825-.61l-1.981-.76a5.002 5.002 0 0 0-1.023-.402 7.457 7.457 0 0 0-1.092-.209zm1.842 3.073 2.187.136.206-.07 1.978.345.344.267-.344.414c-.322.256-.64.439-.956.55l-1.022.266-2.187.276h-.275l-.206.069h-.956c-.453.079-.84.126-1.161.139l-.678.136-.139-.48.14-1.165c.15-.387.422-.589.816-.608.46-.085.846-.133 1.161-.14zm-1.735.33-.886.18.154-.013c.168-.006.451-.045.756-.09zm.539 7.921c-.017.11-.034.22-.045.328l.04-.255zm-.124 1.098c0 .012-.006.022-.006.034a7.039 7.039 0 0 0-.017.136z" style="display:inline;opacity:.824272;mix-blend-mode:normal;fill:#fff;fill-opacity:1;stroke-width:.0572722" transform="translate(-12.206 -212.8)"/><path d="M152.353 228.829c-.312.279-.575.574-.788.886.123.664.189 1.259.197 1.784l-.099.69.099 1.094-.69 2.966-3.371.898-.493.492.296.985c.254.476.55.874.886 1.193.36.386.726.714 1.095.985a3.43 3.43 0 0 1 1.39.701l-.209 1.97a3.89 3.89 0 0 0 .701 1.39l1.28.886 1.39.504c.6-.022 1.125-.16 1.576-.406.197-.607.332-1.165.406-1.674.006-.68.074-1.275.197-1.784.115-.46.378-.69.788-.69.615.023 1.144.124 1.587.296l4.75 1.182c.566.262 1.091.46 1.575.59l1.39.603c.534.262 1.063.46 1.588.59.484.37.944.633 1.378.789l1.292.799c.55.254 1.042.451 1.477.59l.826.082c-.387-.344-.754-.723-.962-1.176l-.124-.275-.131-1.153.087-.646.012.023-.023-.721-.275-.191-1.39-.69a12.007 12.007 0 0 0-1.379-.787l-1.39-.701c-.582-.164-1.075-.361-1.477-.591l-3.076-.985a6.322 6.322 0 0 0-1.576-.504 15.717 15.717 0 0 0-1.587-.492l-.492-.197c.262-.189.525-.32.787-.394l1.49-.69a6.78 6.78 0 0 1 1.28-.602l4.158-2.276 1.39-.493c.583-.09 1.043-.32 1.38-.69l.098-.295-.296-1.488-.984-1.182a6.378 6.378 0 0 0-1.489-.406c-.64.09-1.169.225-1.587.406a11.39 11.39 0 0 1-1.773.295l-.799.887-3.95 2.178-1.588.59a10.14 10.14 0 0 1-.196-1.477 4.807 4.807 0 0 0-.394-1.685c-.402-.386-.8-.718-1.194-.997-.37-.303-.73-.566-1.083-.787l-.985-.197zm93.017 2.884-.611.481-1.298 2.048c-.19.23-.352.46-.484.69l-.886 1.358a7.335 7.335 0 0 0-.345.747 3.372 3.372 0 0 1-.54.553l-.276.136-.886-.964c-.19-.21-.374-.39-.55-.542l-.957-1.367-.62-.472-.738-.414-.825-.275-.898.07-.886-.278a4.15 4.15 0 0 0-.609.553l.07.895.48.68.542.542c.197.223.401.406.611.55l.481.611 3.012 2.668c.223.164.427.32.611.472a1.867 1.867 0 0 1-.205.758l.07.206-.14.678-.205 2.06.205 2.105.276.828c.236.15.442.308.62.472l.689.48.886.07c.302-.111.574-.226.817-.344.118-.309.21-.6.275-.875l-.078-.69.078-.274.278-2.737.263-.817c.105-.283.22-.534.345-.75l.275-.817.82-1.515c.15-.223.308-.427.472-.611l.344-.817 2.254-3.348.07-.214-.07-.739a4.732 4.732 0 0 0-.414-.758l-.678-.484a2.324 2.324 0 0 0-.69-.402 4.177 4.177 0 0 0-.955-.206zm-15.742.748c-.387.098-.748.15-1.083.156l-1.013.226-2.097.237c-.315.151-.627.257-.936.316l-.776.304-2.954.78c-.302.039-.56.116-.776.234l-1.014.16a7.003 7.003 0 0 1-1.083.234l-.936.307-2.798.472-.854.46-.857.316-.777.464-.159.238.238.698c.197.249.403.455.62.62.242.216.474.397.698.54.262.191.523.348.779.473l1.161.148c.341-.079.653-.18.936-.305a5.22 5.22 0 0 0 .854-.159c.354-.059.666-.136.936-.234l.935-.307 3.032-.55h.078v.237l-.472 6.221c.099.342.23.654.394.936l1.24 1.24 1.014.237.237.079.846-.079c.282-.184.519-.393.71-.623l.07-.776-.07-.315.225-2.254c.006-.348.06-.66.16-.935l-.082-.304.082-.858h-.082v-.237l.082-.777.234-.935v-1.24c.006-.354.034-.666.078-.935l.927-.307 1.092-.157 1.793-.472.226.078 1.853-.3-.153-.215-.16-2.076-.527-.362zm-24.03.012-5.04.434h-.217l-.148-.07-5.975.936-.148.07-.432-.07-1.005.354-.582-.067-.718.362-.353.718.283.721.058.214c.04.122.07.244.095.368l.134.498v.287l.07.07-.04.153.023.11-.012.034h.028v.205l-.357 2.668.07.504-.214.944-.287 2.737.07.857c.222.164.415.333.579.51l.434.64 1.437.582c.203-.112.419-.185.648-.218.256-.039.499-.112.721-.217.315 0 .604-.022.866-.07l.788-.283 1.732-.434.719-.296 1.732-.353c.327-.065.614-.164.857-.295.321-.034.61-.08.866-.14l3.455-.796.866-.07 2.384-.787c.23-.15.42-.32.57-.51.112-.288.185-.574.218-.857l-.365-.73a2.902 2.902 0 0 1-.423-.5l-1.013-.07-.936.07-5.908 1.083-.788.07-2.598.578-.788.287c-.322.06-.61.132-.866.218l-1.367.362v-.362l.214-.652c.079-.262.248-.405.504-.431l1.654-.287.214.07.582-.07.788-.284.866-.148.796-.287c.289-.078.552-.128.788-.148l.8-.139c.21-.111.423-.182.64-.214l.796-.295 2.59-.435.718-.431.077-.209-.147-.579a2.96 2.96 0 0 0-.432-.652 2.252 2.252 0 0 0-.651-.431 3.466 3.466 0 0 0-.64-.435l-.866-.069-1.014.148h-.217l-.137-.078-1.448.217-.718.295-.217-.078-2.303.502-.718.295-1.654.217a.548.548 0 0 1-.434-.434.964.964 0 0 1 .287-.58l.718-.286c.328-.034.617-.082.866-.148l2.598-.57 1.005-.079.218.078 4.173-.431h1.014l1.793-.217.579-.434c.197-.151.342-.341.434-.571l-.365-.727-.5-.573-.652-.432a4.637 4.637 0 0 0-.719-.287 6.339 6.339 0 0 0-1.005-.147zm-26.649.022-1.022.206-2.117.139-.14-.206a1.76 1.76 0 0 1-.538.136l-.828.472-.14.278.07.747a5.85 5.85 0 0 0-.196 1.231l-.276 1.162-.205 2.322.07.206-.07.886.07.681-.07.62.07 2.117.066.127-.136 1.022.07.623c.144.315.345.564.607.747.217.296.47.478.76.55.282.23.577.411.885.542l.472.14a2.16 2.16 0 0 1 .484-.276c.262-.289.443-.584.542-.886.124-.46.192-.87.205-1.231.092-.46.14-.87.14-1.231l.066-.472.611.07 3.348.883c.335.144.651.26.953.344l.898.336 1.22.206c.472.059.859.13 1.16.208l.276.07 2.117-.14.594-.118-.028-.377.217-2.074-.298-.159-1.161-.275-1.162.07-.553-.07h-.817l-1.092-.206a6.86 6.86 0 0 0-1.025-.205l-1.092-.336-.402-.345 1.289-.139.069-.066.206.066 2.047-.344c.374-.028.694-.113.956-.264l1.023-.208 1.645-1.162.61-.747c.119-.224.205-.442.264-.654v-.102l-.058-.336a1.615 1.615 0 0 0-.023-.193l-.09-.333a1.757 1.757 0 0 0-.23-.43l-.542-.827a4.77 4.77 0 0 0-.817-.609 3.2 3.2 0 0 0-.825-.61l-1.981-.76a5.002 5.002 0 0 0-1.023-.402 7.457 7.457 0 0 0-1.092-.209zm1.842 3.073 2.187.136.206-.07 1.978.345.344.267-.344.414c-.322.256-.64.439-.956.55l-1.022.266-2.187.276h-.275l-.206.069h-.956c-.453.079-.84.126-1.161.139l-.678.136-.139-.48.14-1.165c.15-.387.422-.589.816-.608.46-.085.846-.133 1.161-.14zm-1.735.33-.886.18.154-.013c.168-.006.451-.045.756-.09zm.539 7.921c-.017.11-.034.22-.045.328l.04-.255zm-.124 1.098c0 .012-.006.022-.006.034a7.039 7.039 0 0 0-.017.136z" style="display:inline;opacity:.824272;mix-blend-mode:normal;fill:#fff;fill-opacity:1;stroke-width:.0572722" transform="translate(-12.206 -212.8)"/><path d="M152.353 228.829c-.312.279-.575.574-.788.886.123.664.189 1.259.197 1.784l-.099.69.099 1.094-.69 2.966-3.371.898-.493.492.296.985c.254.476.55.874.886 1.193.36.386.726.714 1.095.985a3.43 3.43 0 0 1 1.39.701l-.209 1.97a3.89 3.89 0 0 0 .701 1.39l1.28.886 1.39.504c.6-.022 1.125-.16 1.576-.406.197-.607.332-1.165.406-1.674.006-.68.074-1.275.197-1.784.115-.46.378-.69.788-.69.615.023 1.144.124 1.587.296l4.75 1.182c.566.262 1.091.46 1.575.59l1.39.603c.534.262 1.063.46 1.588.59.484.37.944.633 1.378.789l1.292.799c.55.254 1.042.451 1.477.59l.826.082c-.387-.344-.754-.723-.962-1.176l-.124-.275-.131-1.153.087-.646.012.023-.023-.721-.275-.191-1.39-.69a12.007 12.007 0 0 0-1.379-.787l-1.39-.701c-.582-.164-1.075-.361-1.477-.591l-3.076-.985a6.322 6.322 0 0 0-1.576-.504 15.717 15.717 0 0 0-1.587-.492l-.492-.197c.262-.189.525-.32.787-.394l1.49-.69a6.78 6.78 0 0 1 1.28-.602l4.158-2.276 1.39-.493c.583-.09 1.043-.32 1.38-.69l.098-.295-.296-1.488-.984-1.182a6.378 6.378 0 0 0-1.489-.406c-.64.09-1.169.225-1.587.406a11.39 11.39 0 0 1-1.773.295l-.799.887-3.95 2.178-1.588.59a10.14 10.14 0 0 1-.196-1.477 4.807 4.807 0 0 0-.394-1.685c-.402-.386-.8-.718-1.194-.997-.37-.303-.73-.566-1.083-.787l-.985-.197zm93.017 2.884-.611.481-1.298 2.048c-.19.23-.352.46-.484.69l-.886 1.358a7.335 7.335 0 0 0-.345.747 3.372 3.372 0 0 1-.54.553l-.276.136-.886-.964c-.19-.21-.374-.39-.55-.542l-.957-1.367-.62-.472-.738-.414-.825-.275-.898.07-.886-.278a4.15 4.15 0 0 0-.609.553l.07.895.48.68.542.542c.197.223.401.406.611.55l.481.611 3.012 2.668c.223.164.427.32.611.472a1.867 1.867 0 0 1-.205.758l.07.206-.14.678-.205 2.06.205 2.105.276.828c.236.15.442.308.62.472l.689.48.886.07c.302-.111.574-.226.817-.344.118-.309.21-.6.275-.875l-.078-.69.078-.274.278-2.737.263-.817c.105-.283.22-.534.345-.75l.275-.817.82-1.515c.15-.223.308-.427.472-.611l.344-.817 2.254-3.348.07-.214-.07-.739a4.732 4.732 0 0 0-.414-.758l-.678-.484a2.324 2.324 0 0 0-.69-.402 4.177 4.177 0 0 0-.955-.206zm-15.742.748c-.387.098-.748.15-1.083.156l-1.013.226-2.097.237c-.315.151-.627.257-.936.316l-.776.304-2.954.78c-.302.039-.56.116-.776.234l-1.014.16a7.003 7.003 0 0 1-1.083.234l-.936.307-2.798.472-.854.46-.857.316-.777.464-.159.238.238.698c.197.249.403.455.62.62.242.216.474.397.698.54.262.191.523.348.779.473l1.161.148c.341-.079.653-.18.936-.305a5.22 5.22 0 0 0 .854-.159c.354-.059.666-.136.936-.234l.935-.307 3.032-.55h.078v.237l-.472 6.221c.099.342.23.654.394.936l1.24 1.24 1.014.237.237.079.846-.079c.282-.184.519-.393.71-.623l.07-.776-.07-.315.225-2.254c.006-.348.06-.66.16-.935l-.082-.304.082-.858h-.082v-.237l.082-.777.234-.935v-1.24c.006-.354.034-.666.078-.935l.927-.307 1.092-.157 1.793-.472.226.078 1.853-.3-.153-.215-.16-2.076-.527-.362zm-24.03.012-5.04.434h-.217l-.148-.07-5.975.936-.148.07-.432-.07-1.005.354-.582-.067-.718.362-.353.718.283.721.058.214c.04.122.07.244.095.368l.134.498v.287l.07.07-.04.153.023.11-.012.034h.028v.205l-.357 2.668.07.504-.214.944-.287 2.737.07.857c.222.164.415.333.579.51l.434.64 1.437.582c.203-.112.419-.185.648-.218.256-.039.499-.112.721-.217.315 0 .604-.022.866-.07l.788-.283 1.732-.434.719-.296 1.732-.353c.327-.065.614-.164.857-.295.321-.034.61-.08.866-.14l3.455-.796.866-.07 2.384-.787c.23-.15.42-.32.57-.51.112-.288.185-.574.218-.857l-.365-.73a2.902 2.902 0 0 1-.423-.5l-1.013-.07-.936.07-5.908 1.083-.788.07-2.598.578-.788.287c-.322.06-.61.132-.866.218l-1.367.362v-.362l.214-.652c.079-.262.248-.405.504-.431l1.654-.287.214.07.582-.07.788-.284.866-.148.796-.287c.289-.078.552-.128.788-.148l.8-.139c.21-.111.423-.182.64-.214l.796-.295 2.59-.435.718-.431.077-.209-.147-.579a2.96 2.96 0 0 0-.432-.652 2.252 2.252 0 0 0-.651-.431 3.466 3.466 0 0 0-.64-.435l-.866-.069-1.014.148h-.217l-.137-.078-1.448.217-.718.295-.217-.078-2.303.502-.718.295-1.654.217a.548.548 0 0 1-.434-.434.964.964 0 0 1 .287-.58l.718-.286c.328-.034.617-.082.866-.148l2.598-.57 1.005-.079.218.078 4.173-.431h1.014l1.793-.217.579-.434c.197-.151.342-.341.434-.571l-.365-.727-.5-.573-.652-.432a4.637 4.637 0 0 0-.719-.287 6.339 6.339 0 0 0-1.005-.147zm-26.649.022-1.022.206-2.117.139-.14-.206a1.76 1.76 0 0 1-.538.136l-.828.472-.14.278.07.747a5.85 5.85 0 0 0-.196 1.231l-.276 1.162-.205 2.322.07.206-.07.886.07.681-.07.62.07 2.117.066.127-.136 1.022.07.623c.144.315.345.564.607.747.217.296.47.478.76.55.282.23.577.411.885.542l.472.14a2.16 2.16 0 0 1 .484-.276c.262-.289.443-.584.542-.886.124-.46.192-.87.205-1.231.092-.46.14-.87.14-1.231l.066-.472.611.07 3.348.883c.335.144.651.26.953.344l.898.336 1.22.206c.472.059.859.13 1.16.208l.276.07 2.117-.14.594-.118-.028-.377.217-2.074-.298-.159-1.161-.275-1.162.07-.553-.07h-.817l-1.092-.206a6.86 6.86 0 0 0-1.025-.205l-1.092-.336-.402-.345 1.289-.139.069-.066.206.066 2.047-.344c.374-.028.694-.113.956-.264l1.023-.208 1.645-1.162.61-.747c.119-.224.205-.442.264-.654v-.102l-.058-.336a1.615 1.615 0 0 0-.023-.193l-.09-.333a1.757 1.757 0 0 0-.23-.43l-.542-.827a4.77 4.77 0 0 0-.817-.609 3.2 3.2 0 0 0-.825-.61l-1.981-.76a5.002 5.002 0 0 0-1.023-.402 7.457 7.457 0 0 0-1.092-.209zm1.842 3.073 2.187.136.206-.07 1.978.345.344.267-.344.414c-.322.256-.64.439-.956.55l-1.022.266-2.187.276h-.275l-.206.069h-.956c-.453.079-.84.126-1.161.139l-.678.136-.139-.48.14-1.165c.15-.387.422-.589.816-.608.46-.085.846-.133 1.161-.14zm-1.735.33-.886.18.154-.013c.168-.006.451-.045.756-.09zm.539 7.921c-.017.11-.034.22-.045.328l.04-.255zm-.124 1.098c0 .012-.006.022-.006.034a7.039 7.039 0 0 0-.017.136z" style="display:inline;opacity:.824272;mix-blend-mode:normal;fill:#fff;fill-opacity:1;stroke-width:.0572722" transform="translate(-12.206 -212.8)"/><path d="M152.353 228.829c-.312.279-.575.574-.788.886.123.664.189 1.259.197 1.784l-.099.69.099 1.094-.69 2.966-3.371.898-.493.492.296.985c.254.476.55.874.886 1.193.36.386.726.714 1.095.985a3.43 3.43 0 0 1 1.39.701l-.209 1.97a3.89 3.89 0 0 0 .701 1.39l1.28.886 1.39.504c.6-.022 1.125-.16 1.576-.406.197-.607.332-1.165.406-1.674.006-.68.074-1.275.197-1.784.115-.46.378-.69.788-.69.615.023 1.144.124 1.587.296l4.75 1.182c.566.262 1.091.46 1.575.59l1.39.603c.534.262 1.063.46 1.588.59.484.37.944.633 1.378.789l1.292.799c.55.254 1.042.451 1.477.59l.826.082c-.387-.344-.754-.723-.962-1.176l-.124-.275-.131-1.153.087-.646.012.023-.023-.721-.275-.191-1.39-.69a12.007 12.007 0 0 0-1.379-.787l-1.39-.701c-.582-.164-1.075-.361-1.477-.591l-3.076-.985a6.322 6.322 0 0 0-1.576-.504 15.717 15.717 0 0 0-1.587-.492l-.492-.197c.262-.189.525-.32.787-.394l1.49-.69a6.78 6.78 0 0 1 1.28-.602l4.158-2.276 1.39-.493c.583-.09 1.043-.32 1.38-.69l.098-.295-.296-1.488-.984-1.182a6.378 6.378 0 0 0-1.489-.406c-.64.09-1.169.225-1.587.406a11.39 11.39 0 0 1-1.773.295l-.799.887-3.95 2.178-1.588.59a10.14 10.14 0 0 1-.196-1.477 4.807 4.807 0 0 0-.394-1.685c-.402-.386-.8-.718-1.194-.997-.37-.303-.73-.566-1.083-.787l-.985-.197zm93.017 2.884-.611.481-1.298 2.048c-.19.23-.352.46-.484.69l-.886 1.358a7.335 7.335 0 0 0-.345.747 3.372 3.372 0 0 1-.54.553l-.276.136-.886-.964c-.19-.21-.374-.39-.55-.542l-.957-1.367-.62-.472-.738-.414-.825-.275-.898.07-.886-.278a4.15 4.15 0 0 0-.609.553l.07.895.48.68.542.542c.197.223.401.406.611.55l.481.611 3.012 2.668c.223.164.427.32.611.472a1.867 1.867 0 0 1-.205.758l.07.206-.14.678-.205 2.06.205 2.105.276.828c.236.15.442.308.62.472l.689.48.886.07c.302-.111.574-.226.817-.344.118-.309.21-.6.275-.875l-.078-.69.078-.274.278-2.737.263-.817c.105-.283.22-.534.345-.75l.275-.817.82-1.515c.15-.223.308-.427.472-.611l.344-.817 2.254-3.348.07-.214-.07-.739a4.732 4.732 0 0 0-.414-.758l-.678-.484a2.324 2.324 0 0 0-.69-.402 4.177 4.177 0 0 0-.955-.206zm-15.742.748c-.387.098-.748.15-1.083.156l-1.013.226-2.097.237c-.315.151-.627.257-.936.316l-.776.304-2.954.78c-.302.039-.56.116-.776.234l-1.014.16a7.003 7.003 0 0 1-1.083.234l-.936.307-2.798.472-.854.46-.857.316-.777.464-.159.238.238.698c.197.249.403.455.62.62.242.216.474.397.698.54.262.191.523.348.779.473l1.161.148c.341-.079.653-.18.936-.305a5.22 5.22 0 0 0 .854-.159c.354-.059.666-.136.936-.234l.935-.307 3.032-.55h.078v.237l-.472 6.221c.099.342.23.654.394.936l1.24 1.24 1.014.237.237.079.846-.079c.282-.184.519-.393.71-.623l.07-.776-.07-.315.225-2.254c.006-.348.06-.66.16-.935l-.082-.304.082-.858h-.082v-.237l.082-.777.234-.935v-1.24c.006-.354.034-.666.078-.935l.927-.307 1.092-.157 1.793-.472.226.078 1.853-.3-.153-.215-.16-2.076-.527-.362zm-24.03.012-5.04.434h-.217l-.148-.07-5.975.936-.148.07-.432-.07-1.005.354-.582-.067-.718.362-.353.718.283.721.058.214c.04.122.07.244.095.368l.134.498v.287l.07.07-.04.153.023.11-.012.034h.028v.205l-.357 2.668.07.504-.214.944-.287 2.737.07.857c.222.164.415.333.579.51l.434.64 1.437.582c.203-.112.419-.185.648-.218.256-.039.499-.112.721-.217.315 0 .604-.022.866-.07l.788-.283 1.732-.434.719-.296 1.732-.353c.327-.065.614-.164.857-.295.321-.034.61-.08.866-.14l3.455-.796.866-.07 2.384-.787c.23-.15.42-.32.57-.51.112-.288.185-.574.218-.857l-.365-.73a2.902 2.902 0 0 1-.423-.5l-1.013-.07-.936.07-5.908 1.083-.788.07-2.598.578-.788.287c-.322.06-.61.132-.866.218l-1.367.362v-.362l.214-.652c.079-.262.248-.405.504-.431l1.654-.287.214.07.582-.07.788-.284.866-.148.796-.287c.289-.078.552-.128.788-.148l.8-.139c.21-.111.423-.182.64-.214l.796-.295 2.59-.435.718-.431.077-.209-.147-.579a2.96 2.96 0 0 0-.432-.652 2.252 2.252 0 0 0-.651-.431 3.466 3.466 0 0 0-.64-.435l-.866-.069-1.014.148h-.217l-.137-.078-1.448.217-.718.295-.217-.078-2.303.502-.718.295-1.654.217a.548.548 0 0 1-.434-.434.964.964 0 0 1 .287-.58l.718-.286c.328-.034.617-.082.866-.148l2.598-.57 1.005-.079.218.078 4.173-.431h1.014l1.793-.217.579-.434c.197-.151.342-.341.434-.571l-.365-.727-.5-.573-.652-.432a4.637 4.637 0 0 0-.719-.287 6.339 6.339 0 0 0-1.005-.147zm-26.649.022-1.022.206-2.117.139-.14-.206a1.76 1.76 0 0 1-.538.136l-.828.472-.14.278.07.747a5.85 5.85 0 0 0-.196 1.231l-.276 1.162-.205 2.322.07.206-.07.886.07.681-.07.62.07 2.117.066.127-.136 1.022.07.623c.144.315.345.564.607.747.217.296.47.478.76.55.282.23.577.411.885.542l.472.14a2.16 2.16 0 0 1 .484-.276c.262-.289.443-.584.542-.886.124-.46.192-.87.205-1.231.092-.46.14-.87.14-1.231l.066-.472.611.07 3.348.883c.335.144.651.26.953.344l.898.336 1.22.206c.472.059.859.13 1.16.208l.276.07 2.117-.14.594-.118-.028-.377.217-2.074-.298-.159-1.161-.275-1.162.07-.553-.07h-.817l-1.092-.206a6.86 6.86 0 0 0-1.025-.205l-1.092-.336-.402-.345 1.289-.139.069-.066.206.066 2.047-.344c.374-.028.694-.113.956-.264l1.023-.208 1.645-1.162.61-.747c.119-.224.205-.442.264-.654v-.102l-.058-.336a1.615 1.615 0 0 0-.023-.193l-.09-.333a1.757 1.757 0 0 0-.23-.43l-.542-.827a4.77 4.77 0 0 0-.817-.609 3.2 3.2 0 0 0-.825-.61l-1.981-.76a5.002 5.002 0 0 0-1.023-.402 7.457 7.457 0 0 0-1.092-.209zm1.842 3.073 2.187.136.206-.07 1.978.345.344.267-.344.414c-.322.256-.64.439-.956.55l-1.022.266-2.187.276h-.275l-.206.069h-.956c-.453.079-.84.126-1.161.139l-.678.136-.139-.48.14-1.165c.15-.387.422-.589.816-.608.46-.085.846-.133 1.161-.14zm-1.735.33-.886.18.154-.013c.168-.006.451-.045.756-.09zm.539 7.921c-.017.11-.034.22-.045.328l.04-.255zm-.124 1.098c0 .012-.006.022-.006.034a7.039 7.039 0 0 0-.017.136z" style="display:inline;opacity:.824272;mix-blend-mode:normal;fill:#fff;fill-opacity:1;stroke-width:.0572722" transform="translate(-12.206 -212.8)"/><path d="M88.053 226.931c-.155.76-1.585.68-2.22 1.186-1.883.966-3.523 2.386-5.261 3.57-2.148 2.048-3.731 4.798-3.765 7.833.16 2.148.778 4.381 2.287 5.981 1.158.82 1.41 1.09 2.425 1.766 1.028.449 1.646.828 2.87 1.085 1.13.153 2.269.86 3.385.54 1.602.172 3.24-.023 4.741-.598a66.685 66.685 0 0 1 3.327-.907c.841-.741 1.868-.769 2.973-1.356 1.446-1.181 3.057-2.174 4.364-3.513.12.146 2.488-3.002 1.01-4.444-.606-1.157-1.756-1.88-2.95-2.34.59-.876.56-1.853.382-2.854-.039-.987-1.257-1.384-1.814-2.112-2.567-2.377-6.025-3.855-9.554-3.74l-2.2-.097zm4.628 7.187c.967.056 1.791.429 2.63.861 1.01.566-1.208.055-1.68.242l-4.19.128c1.008-.586 2.04-1.205 3.24-1.231zm8.556 1.625c.216.13.517.299 0 0zm-16.625 3.321c.15 1.197 2.32 2.255 2.141 2.727-.688-.108-2.13-.121-2.05-1.069-.004-.54-.352-1.155-.09-1.658z" style="color:#000;font-size:40px;line-height:1.25;font-family:OCR-A;-inkscape-font-specification:OCR-A;letter-spacing:0;word-spacing:0;display:inline;fill:#fff;stroke:#000;stroke-width:1.08031;stroke-linejoin:miter;stroke-miterlimit:4;stroke-dasharray:none;stroke-opacity:1;paint-order:markers fill stroke" transform="translate(-12.206 -212.8)"/><path d="M89.785 228.742c2.265-.055 4.53.401 6.49 1.57 1.353.804 2.696 1.85 3.652 3.045.234.847-.077 2.063-1.177 1.785-1.332-.152-1.879-1.716-3.206-1.934-1.078-.752-2.519-.872-3.802-.75-2.076.572-3.948 1.762-5.699 2.978-1.342 1.122-3.417 2.037-3.276 4.097.227.878.137 1.884.416 2.703.819.895 2.193 1.06 3.304 1.348 1.287-.228 2.605-.307 3.852-.716.301-.682 1.786-.484 2.785-.744 1.031-.02 1.821-.784 2.728-1.188-2.096.272-4.194.445-6.301.196-1.215-.206-2.171-1.313-3.014-2.165-1.315-1.431 1.049-2.192 2.192-1.862 2.52-.09 5.049-.159 7.558-.164 1.612-.22 3.316-.336 4.738.594 1.388.458 2.532 2.208 1.275 3.466-1.428 1.366-3.052 2.557-4.66 3.68-1.802.564-3.44 1.565-5.344 1.817-1.522.745-3.26.782-4.922.64-.997.15-2.027-.448-3.036-.584-1.68-.48-3.2-1.5-4.392-2.742-1.307-1.947-1.812-4.55-.925-6.777.757-2.361 2.635-4.16 4.66-5.47 1.621-1.148 3.313-2.416 5.316-2.698.204.063.763.078.788-.125z" style="color:#000;font-size:40px;line-height:1.25;font-family:OCR-A;-inkscape-font-specification:OCR-A;letter-spacing:0;word-spacing:0;display:inline;fill:#000;fill-opacity:1;stroke-width:3.46522;-inkscape-stroke:none;paint-order:stroke markers fill" transform="translate(-12.206 -212.8)"/><path d="M120.415 230.734c-1.905.14-3.86.396-5.72.4l-6.15.962c-.288-.159-1.579.35-2.237.312-.882.374-1.724.788-1.963 1.799-.767.797-.03 1.623.185 2.48.367 1.03-.097 1.332-.25 2.314.255.416.119 1.356.065 2.178-.287 1.732-.527 3.5-.27 5.253.989.403 1.169 1.695 2.23 1.912.886.187 1.82 1.213 2.651.449 1.107-.303 2.248-.427 3.342-.83 2.812-.843 5.672-1.445 8.54-2.11 1.372-.053 2.675-.644 3.935-1.125 1.336-.76 2.121-2.755 1.15-4.064-.51-.75-.92-1.929-2.016-1.714-.75.249-1.283-1.854-.58-1.645 1-.665 2.16-1.644 2.178-2.881-.69-1.992-2.48-3.557-4.645-3.655l-.318-.027z" style="color:#000;font-size:40px;line-height:1.25;font-family:OCR-A;-inkscape-font-specification:OCR-A;letter-spacing:0;word-spacing:0;display:inline;fill:#fff;stroke:#010101;stroke-width:1.08031;stroke-linejoin:round;stroke-miterlimit:4;stroke-dasharray:none;stroke-opacity:1;paint-order:markers fill stroke" transform="translate(-12.206 -212.8)"/><path d="M120.436 232.47c1.388.002 2.769.835 3.239 2.166-.82 1.569-2.81 1.067-4.265 1.267a67.42 67.42 0 0 1-5.096.419c-1.339.358-2.747.474-4.038.972-.854 1.443 1.446.94 2.216.627 1.208-.475 2.52-.442 3.69-.866 1.004-.187 1.953-.141 2.966-.24 1.046-.051 3.126 1.542 2.105 2.503-1.153.689-2.645.389-3.85 1.008-1.65.434-3.329.799-4.972 1.256-.887.076-2.25-.09-2.704.825-.798 1.585 1.347.267 2.066.291 2.82-.96 5.826-1.118 8.725-1.77 1.085-.229 2.195-.402 3.304-.248 1.373.979.56 2.835-.992 2.927-1.618.607-3.361.666-5.02 1.166-1.928.432-3.846.873-5.734 1.46-1.33.4-2.717.705-4.025.948-1.084-.21-1.744-1.021-2.325-1.826-.165-1.795.427-3.57.435-5.335.171-1.418.517-2.632-.002-3.947-.515-.755-.278-1.768.678-1.991.814.135 1.561-.398 2.366-.336 2.417-.334 4.816-.89 7.233-.932l4-.344z" style="color:#000;font-size:40px;line-height:1.25;font-family:OCR-A;-inkscape-font-specification:OCR-A;letter-spacing:0;word-spacing:0;display:inline;fill:#000;fill-opacity:1;stroke-width:3.46522;-inkscape-stroke:none;paint-order:stroke markers fill" transform="translate(-12.206 -212.8)"/><path d="M133.248 231.765c-1.02.435-2.157.978-3.105 1.819-1.934 1.136-3.7 2.592-4.893 4.52a6.435 6.435 0 0 0 .16 5.601c.486 1.291 1.522 2.313 2.489 3.261 1.215.93 2.775 1.33 4.168 1.915 2.287.393 4.489-.649 6.713-1.03 2.307-.854 4.538-2.111 6.096-4.048.87-.574.829-1.762 1.548-2.496.699-1.039.391-2.434.225-3.608-1-1.818-2.095-3.74-4.05-4.668-1.474-.972-2.99-1.953-4.804-2.087-.887-.17-2.594-.508-2.594-.508zm5.265 6.299c1.335.108-.3 1.158-.677 1.607-1.693 1.037-3.41 2.161-5.444 2.312-1.185.203.789-1.306 1.07-1.776.952-.847 2.229-.473 3.365-.432.686-.473.859-1.533 1.686-1.711z" style="color:#000;font-size:40px;line-height:1.25;font-family:OCR-A;-inkscape-font-specification:OCR-A;letter-spacing:0;word-spacing:0;display:inline;fill:#fff;stroke:#030303;stroke-width:1.08031;stroke-miterlimit:4;stroke-dasharray:none;stroke-opacity:1;paint-order:markers fill stroke" transform="translate(-12.206 -212.8)"/><path d="M136.866 232.53c1.505.18 2.953.618 4.16 1.563 1.51.773 2.825 1.905 3.537 3.473.842 1.129.715 2.767-.226 3.796-.215.876-.903 1.37-1.436 2.055-1.927 1.871-4.499 2.905-7.118 3.354-1.55.436-3.212.779-4.665-.122-1.279-.431-2.495-1.056-3.228-2.242-1.485-1.644-2.105-4.424-.56-6.224 1.054-1.46 2.615-2.413 4.096-3.39 1.331-1.078 2.987-1.726 4.613-2.195.214.062.719.055.827-.069zm.975 3.75c-1.64.095-1.365 2.392-3.368 1.678-1.761.148-2.85 1.607-3.87 2.867-.497.715-.777 1.972-.387 2.637 1.849.786 3.822-.03 5.616-.596 1.919-1.128 4.077-2.138 5.126-4.228 1.049-1.44-.84-2.058-2.04-2.26-.349-.076-.72-.058-1.077-.098z" style="color:#000;font-size:40px;line-height:1.25;font-family:OCR-A;-inkscape-font-specification:OCR-A;letter-spacing:0;word-spacing:0;display:inline;fill:#000;fill-opacity:1;stroke-width:3.46522;-inkscape-stroke:none;paint-order:stroke markers fill" transform="translate(-12.206 -212.8)"/><path d="m151.631 226.937-.538.481c-.413.37-.78.78-1.086 1.228l-.44.643.141.768c.101.545.142.996.154 1.373l-.099.706.09 1.014-.362 1.564-2.766.736-1.65 1.65.674 2.248.09.165c.328.614.735 1.17 1.225 1.642.415.438.844.834 1.303 1.17l.296.215.2.052-.113 1.048.101.354a5.818 5.818 0 0 0 1.048 2.056l.171.211 1.703 1.18 1.973.715.37-.015c.838-.034 1.668-.232 2.404-.634l.66-.362.232-.716c.224-.688.386-1.344.478-1.984l.018-.124.003-.125c.002-.177.032-.267.043-.423l.067.027 4.805 1.196c.487.214.966.407 1.436.547l1.295.562c.518.247 1.05.426 1.584.58.404.277.81.542 1.243.735l1.283.794.104.049c.602.278 1.162.504 1.694.675l.191.06 1.984.197.837-.698c.212.13.433.245.66.342l.105.043 1.474.43.75-.548c.071-.052.1-.061.055-.044l.415-.16.298-.326c.404-.445.741-.97.938-1.573l.015-.046.012-.044c.105-.389.142-.766.188-1.144l1.819.48c.28.115.557.219.834.305l1.066.397 1.436.243.04.006c.42.052.741.112.922.16l.009.002.57.142 2.538-.165.88-.176.281.205c.114.084.187.156.255.223l.637.944 2.804 1.133.785-.432c.009-.005-.001 0 .009-.003h.009l.011-.003c.247-.038.48-.139.719-.217.305-.011.608-.024.903-.075l.163-.03.851-.306 1.773-.443.68-.281 1.55-.316.009-.003c.287-.058.556-.187.831-.293.323-.037.64-.081.938-.15l3.32-.765.952-.075 2.836-.938.208-.137a4.313 4.313 0 0 0 1.014-.918l.18-.226.104-.266c.164-.424.277-.868.33-1.32l.064-.56-.762-1.523-.235-.226a1.05 1.05 0 0 1-.15-.174l-.177-.266c.245.29.518.557.823.79.256.223.516.43.788.609.327.234.666.444 1.019.616l.281.137 1.804.228.33-.075c.334-.077.646-.193.96-.313a6.97 6.97 0 0 0 .807-.15c.41-.073.803-.164 1.18-.302h.005l.75-.243.594-.107-.333 4.373.095.328c.138.476.329.935.577 1.361l.124.211 1.796 1.796 1.454.339.53.177 1.706-.16.39-.255c.422-.274.811-.603 1.136-.996l.374-.455.148-1.65-.067-.305.203-2.03.003-.078a1.1 1.1 0 0 1 .046-.336l.197-.545-.142-.55.18-1.975.113-.44v-.936l.582-.084 1.34-.35.134.046 2.824-.463.382-.299.194.194c.156.159.334.296.504.44l.545.69 2.748 2.433.162.486-.055.278-.234 2.338.246 2.505.553 1.662.565.362c.155.1.271.191.353.267l.096.087 1.216.851 1.813.142.388-.145c.351-.13.682-.266.991-.417l.67-.327.268-.695c.144-.375.26-.745.348-1.115l.078-.322-.075-.645.023-.079.272-2.702.185-.57c.072-.19.144-.34.203-.444l.093-.162.284-.843.677-1.26c.096-.136.193-.26.284-.362l.209-.234.394-.938 2.305-3.421.267-.84-.134-1.43-.127-.282a6.558 6.558 0 0 0-.582-1.063l-.19-.275-.953-.677a4.2 4.2 0 0 0-1.144-.64l-.02-.01-.024-.005a6.032 6.032 0 0 0-1.387-.299l-.747-.063-.588.466-.863.68-1.42 2.234c-.202.254-.385.52-.547.796l-.562.86-.889-1.271-.961-.733-1.011-.568-1.359-.451-.915.07-1.457-.453-.773.574c-.054.04-.107.083-.16.124l-.906-.622-2.641-.988-.574.145c-.27.069-.488.098-.651.101l-.191.003-1.101.246-2.311.26-.29.14a1.925 1.925 0 0 1-.472.162l-.174.032-.837.33-2.777.733c-.309.05-.617.127-.918.252h-.003l-.875.139-.125.035a5.134 5.134 0 0 1-.79.173l-.171.024-.97.315-2.966.501-1.011.548-.895.33-1.196.712c.058-.107.112-.215.156-.327l.313-.788-.852-1.706-.828-.94-.961-.644-.116-.055a6.495 6.495 0 0 0-1.014-.4l-.058-.017-.058-.011a8.177 8.177 0 0 0-1.306-.192l-.14-.009-.135.012-4.721.405-.246-.112-6.81 1.065.134-.063-.333-.055-1.043.367-.712-.084-1.79.91-.284.573a6.53 6.53 0 0 0-.576-.422 5.02 5.02 0 0 0-1.142-.797l-.08-.04-2.014-.77a6.655 6.655 0 0 0-1.286-.49 9.242 9.242 0 0 0-1.367-.258l-.049-.003-4.31-.223-.234.046-.898.183-.9.058-.395-.588-1.433.593-.01.003-.379.03-1.691.967-.634 1.268.098 1.09c-.065.315-.132.632-.165.943l-.278 1.168-.252 2.852.072.218-.052.672.064.648-.038.342-.785-.388a13.357 13.357 0 0 0-1.416-.805l-1.503-.759-.177-.05a4.805 4.805 0 0 1-1.051-.413l-.171-.099-2.453-.785 3.446-1.885 1.118-.394c.842-.172 1.674-.587 2.274-1.245l.27-.296.382-1.15-.487-2.45-1.596-1.914-.437-.18a8.266 8.266 0 0 0-1.929-.524l-.267-.04-.269.037a8.307 8.307 0 0 0-1.836.455 9.555 9.555 0 0 1-1.405.234l-.75.058-1.095 1.21-2.91 1.608c-.094-.428-.126-.878-.305-1.274l-.147-.336-.267-.252c-.447-.43-.904-.81-1.372-1.144-.4-.324-.802-.623-1.208-.878l-.293-.185-1.509-.301zm.722 1.892h.996l.985.197c.352.221.714.484 1.083.787.394.28.791.611 1.193.997.222.492.353 1.054.394 1.685.025.46.09.952.197 1.477l1.587-.59 3.95-2.178.8-.887c.533-.04 1.125-.14 1.773-.295.418-.18.947-.315 1.587-.406a6.36 6.36 0 0 1 1.488.406l.985 1.182.296 1.488-.099.296c-.336.369-.796.599-1.379.689l-1.39.492-4.159 2.277c-.394.131-.82.332-1.28.602l-1.489.69a2.531 2.531 0 0 0-.787.394l.492.196c.443.107.972.271 1.587.493.492.082 1.018.25 1.576.504l3.076.985c.401.23.894.426 1.477.59l1.39.701c.385.18.845.444 1.378.788l1.39.69.276.19.023.722-.012-.02-.087.645.13 1.153.125.275c.208.453.575.832.962 1.176l-.826-.081c-.435-.14-.927-.337-1.477-.59l-1.292-.8c-.435-.156-.894-.419-1.378-.788a7.974 7.974 0 0 1-1.587-.59l-1.39-.603a10.015 10.015 0 0 1-1.576-.591l-4.75-1.182c-.443-.172-.972-.27-1.587-.295-.41 0-.673.23-.788.689-.123.509-.189 1.103-.197 1.784a10.24 10.24 0 0 1-.406 1.674c-.45.246-.976.381-1.575.406l-1.39-.504-1.28-.887a3.895 3.895 0 0 1-.701-1.39l.208-1.97a3.428 3.428 0 0 0-1.39-.7 7.96 7.96 0 0 1-1.095-.985 4.66 4.66 0 0 1-.886-1.193l-.296-.985.493-.492 3.371-.898.69-2.966-.1-1.095.1-.689a10.818 10.818 0 0 0-.198-1.784c.214-.312.476-.607.788-.886zm93.017 2.884c.302.027.62.094.956.206.236.085.466.219.689.403l.678.483c.144.21.283.464.414.76l.07.738-.07.214-2.254 3.348-.344.817a5.769 5.769 0 0 0-.472.611l-.82 1.515-.275.816c-.125.217-.24.468-.345.75l-.263.817-.278 2.737-.078.275.078.69a6.975 6.975 0 0 1-.275.874 9.017 9.017 0 0 1-.817.345l-.887-.07-.689-.48a4.378 4.378 0 0 0-.62-.472l-.275-.829-.205-2.105.205-2.06.14-.677-.07-.206c.118-.216.186-.47.205-.759a14.507 14.507 0 0 0-.61-.472l-3.013-2.667-.48-.611a3.356 3.356 0 0 1-.612-.55l-.541-.542-.481-.68-.07-.896c.177-.197.379-.382.608-.553l.887.278.898-.07.825.276.739.414.62.472.955 1.367c.177.15.36.332.55.542l.887.964.275-.136c.184-.144.364-.33.541-.553.092-.237.207-.485.345-.747l.886-1.359c.132-.23.294-.46.484-.69l1.298-2.047zm-15.742.748 1.871.698.528.362.159 2.076.153.215-1.853.3-.226-.077-1.793.472-1.092.156-.927.307c-.046.27-.071.581-.078.936v1.24l-.234.935-.081.776v.237h.08l-.08.858.08.304a2.937 2.937 0 0 0-.159.935l-.226 2.254.07.315-.07.777c-.19.23-.427.438-.71.622l-.845.078-.237-.078-1.014-.237-1.24-1.24a4.13 4.13 0 0 1-.394-.935l.473-6.222v-.237h-.079l-3.032.55-.935.307c-.27.099-.582.176-.936.235a5 5 0 0 1-.854.16 5.214 5.214 0 0 1-.936.303l-1.161-.147a5.249 5.249 0 0 1-.78-.473 5.78 5.78 0 0 1-.697-.541 3.459 3.459 0 0 1-.62-.62l-.238-.698.16-.237.776-.464.857-.316.855-.46 2.797-.472.936-.307a6.99 6.99 0 0 0 1.083-.235l1.014-.16c.216-.117.474-.194.776-.234l2.954-.779.776-.304c.309-.059.62-.165.936-.316l2.097-.237 1.013-.226a4.813 4.813 0 0 0 1.084-.156zm-24.03.009c.322.02.657.069 1.005.147.223.066.462.162.718.287l.652.432.501.573.365.727a1.33 1.33 0 0 1-.435.57l-.579.435-1.793.217h-1.013l-4.174.432-.217-.078-1.005.078-2.598.57c-.25.066-.538.115-.866.148l-.718.287a.959.959 0 0 0-.287.58c.052.229.198.374.434.433l1.654-.217.718-.295 2.303-.501.217.078.719-.295 1.448-.218.136.079H203l1.014-.148.866.07c.216.11.43.257.64.434.23.098.448.241.651.431.164.184.307.403.432.652l.148.58-.078.208-.719.431-2.589.435-.797.295c-.216.033-.43.103-.64.215l-.799.139c-.236.02-.499.069-.788.147l-.796.287-.866.148-.788.284-.582.069-.214-.07-1.654.287c-.256.027-.425.17-.504.432l-.215.651v.362l1.367-.362a6.41 6.41 0 0 1 .866-.217l.788-.286 2.598-.58.788-.07 5.908-1.082.936-.07 1.014.07c.111.17.252.337.423.5l.364.73a3.503 3.503 0 0 1-.217.858c-.15.19-.34.359-.57.51l-2.384.787-.866.07-3.455.796c-.256.06-.545.106-.866.14a3.06 3.06 0 0 1-.858.295l-1.731.353-.719.295-1.732.435-.788.284c-.262.046-.55.07-.866.07a2.628 2.628 0 0 1-.72.216c-.23.033-.446.106-.65.218l-1.436-.582-.435-.64a4.065 4.065 0 0 0-.579-.51l-.07-.858.287-2.737.215-.944-.07-.504.356-2.667v-.206h-.026l.01-.032-.02-.11.037-.153-.07-.07v-.286l-.133-.499a3.75 3.75 0 0 0-.095-.367l-.058-.215-.284-.72.353-.72.718-.361.582.066 1.005-.353.432.07.148-.07 5.975-.936.147.07h.218zm-26.649.02 4.029.206c.322.032.685.103 1.092.208.308.079.648.212 1.022.403l1.981.758c.29.145.563.35.826.612.262.15.534.352.817.608l.541.828c.1.134.175.278.232.429l.09.333c.01.064.019.127.023.194l.058.336v.101a3.29 3.29 0 0 1-.264.655l-.611.747-1.645 1.161-1.023.209c-.262.151-.581.237-.955.264l-2.048.344-.206-.066-.07.066-1.288.14.403.344 1.091.336c.329.04.671.107 1.026.206l1.092.205h.816l.554.07 1.161-.07 1.161.275.299.16-.217 2.073.028.377-.593.119-2.118.139-.275-.07a9.27 9.27 0 0 0-1.161-.208l-1.22-.206-.897-.336a7.707 7.707 0 0 1-.953-.345l-3.348-.883-.611-.07-.067.473c0 .36-.047.771-.139 1.23-.013.361-.08.772-.206 1.231a2.47 2.47 0 0 1-.541.887c-.151.059-.313.15-.484.275l-.472-.14a3.698 3.698 0 0 1-.886-.54c-.289-.073-.542-.256-.759-.551a1.805 1.805 0 0 1-.608-.747l-.07-.623.136-1.022-.066-.128-.07-2.117.07-.62-.07-.68.07-.887-.07-.205.206-2.323.275-1.162c.013-.36.079-.771.197-1.23l-.07-.748.14-.278.828-.472c.17-.013.348-.057.538-.136l.14.206 2.117-.14zm62.41 2.91.078.085c-.027-.03-.057-.052-.084-.081zm-60.568.163-1.092.136a7.465 7.465 0 0 0-1.161.139c-.394.02-.666.221-.817.608l-.139 1.165.14.48.677-.136c.322-.013.709-.06 1.161-.139h.956l.206-.07h.275l2.187-.275 1.022-.266a3.34 3.34 0 0 0 .956-.55l.344-.414-.344-.267-1.978-.345-.206.07zm29.073.872-.437.654.6 1.767-1.376-.093-.267-1.048-.09-.183c-.007-.014-.021-.025-.029-.04l.284-.035.997-.741.009-.01c.107-.082.212-.174.31-.272z" style="color:#000;-inkscape-font-specification:OCR-A;display:inline;fill:#000;stroke-width:1.48289;-inkscape-stroke:none;paint-order:stroke markers fill" transform="translate(-12.206 -212.8)"/><path d="M248.934 242.002c-.712.531-1.613.906-1.812 1.863-.608.996.119 2.202.392 3.203.76.998 1.86 1.834 3.135 1.907 1.356.039 2.767-.802 3.017-2.218.297-1.502-.493-3.025-1.773-3.919-.453-.316-.397-.097-.99-.413-.61-.325-1.293-.385-1.969-.423z" style="color:#000;font-size:40px;line-height:1.25;font-family:OCR-A;-inkscape-font-specification:OCR-A;letter-spacing:0;word-spacing:0;display:inline;fill:#fff;stroke:#030303;stroke-width:1.08031;stroke-miterlimit:4;stroke-dasharray:none;stroke-opacity:1;paint-order:markers fill stroke" transform="translate(-12.206 -212.8)"/><path d="M249.425 243.775c1.302.108 2.734 1.053 2.567 2.518-.362 1.42-2.18.996-2.806.045-.587-.75-.849-2.122.239-2.563z" style="color:#000;font-size:40px;line-height:1.25;font-family:OCR-A;-inkscape-font-specification:OCR-A;letter-spacing:0;word-spacing:0;display:inline;fill:#000;fill-opacity:1;stroke-width:3.46522;-inkscape-stroke:none;paint-order:stroke markers fill" transform="translate(-12.206 -212.8)"/><path d="M261.487 232.887c.594 1.003-.576.729-1.14 1.126-.563.397-1.437.663-2.285 1.099-.918.846-2.114 1.322-2.972 2.24-1.028.913-2.02 2.082-2.214 3.471-.332 1.41.13 2.816.754 4.098.648 1.025 1.463 2.014 2.465 2.727 1.578.587 3.123 1.653 4.883 1.266 2.291-.502 4.703-.858 6.675-2.229 1.205-.617 2.065-1.726 2.984-2.653.221-1.104 1.352-1.837 1.171-3.033.151-1.15-.287-2.227-.946-3.148-.69-1.366-1.924-2.319-3.247-3.029a7.62 7.62 0 0 0-3.739-1.48l-2.39-.455zm2.905 6.981c.835-.105-1.216 1.366-.223.413l.223-.412zm-2.643 1.313c1.876-.132.45.545-.338.902-.397.117-2.146.806-1.36.08.416-.558.97-.97 1.698-.982z" style="color:#000;font-size:40px;line-height:1.25;font-family:OCR-A;-inkscape-font-specification:OCR-A;letter-spacing:0;word-spacing:0;display:inline;fill:#fff;stroke:#030303;stroke-width:1.08031;stroke-miterlimit:4;stroke-dasharray:none;stroke-opacity:1;paint-order:markers fill stroke" transform="translate(-12.206 -212.8)"/><path d="M263.22 234.98c1.23.158 2.43.489 3.417 1.272 1.254.653 2.378 1.57 2.972 2.884.665.886.685 2.232-.076 3.067-.258.683-.662 1.191-1.172 1.708-1.53 1.615-3.682 2.508-5.846 2.892-1.341.35-2.782.745-4.044-.04-1.06-.368-2.095-.857-2.703-1.85-1.164-1.287-1.73-3.385-.722-4.907.887-1.377 2.293-2.26 3.637-3.135 1.11-.9 2.49-1.444 3.847-1.833.182.053.595.044.69-.057zm.812 3.126c-1.358.077-1.13 1.993-2.787 1.396-1.443.101-2.314 1.281-3.175 2.282-.512.641-.562 1.498-.51 2.27.994.47 2.052.308 3.08.079 1.641-.34 3.067-1.287 4.435-2.204.843-.758 1.714-1.671 1.844-2.847-.697-.742-1.902-.901-2.887-.976z" style="color:#000;font-size:40px;line-height:1.25;font-family:OCR-A;-inkscape-font-specification:OCR-A;letter-spacing:0;word-spacing:0;display:inline;fill:#000;fill-opacity:1;stroke-width:3.46522;-inkscape-stroke:none;paint-order:stroke markers fill" transform="translate(-12.206 -212.8)"/><path d="M274.348 232.918c-.97.45-1.992.635-2.87 1.273-.51.408-.902 1.195-.753 1.871-.05 1.403-.062.77-.325 2.034-.288 2.162-.191 4.3-.13 6.477-.267 1.008.505 2.235 1.235 3.057.594.67 1.5 1.375 2.353 1.293.71.509 1.142-.21 1.77-.432 1.24-.42.73-2.933 1.981-2.382 1.015.258 1.308.423 2.237.758 1.318.184 2.603.625 3.94.376 1.527-.006 3.156-.572 3.924-1.98.774-.59.511-1.18-.105-1.77-.422-.64-1.094-1.4-2.006-1.764.893-.78 1.783-2.012 1.412-3.257-.068-.48-.587-1.935-1.516-2.68-1.155-.807.047.047-1.214-.906-.537-.33-1.799-.734-2.007-.826-.835-.483-2.269-.723-3.434-.724-1.25-.05-2.507-.238-3.734.078-.476.163-.528-.178-.758-.496z" style="color:#000;font-size:40px;line-height:1.25;font-family:OCR-A;-inkscape-font-specification:OCR-A;letter-spacing:0;word-spacing:0;display:inline;fill:#fff;stroke:#030303;stroke-width:1.08031;stroke-linejoin:miter;stroke-miterlimit:4;stroke-dasharray:none;stroke-opacity:1;paint-order:markers fill stroke" transform="translate(-12.206 -212.8)"/><path d="M276.427 234.948c1.915.151 3.926-.052 5.677.894 1.524.471 3.099 1.547 3.257 3.257-.292 1.072-1.341 1.669-2.225 2.189-1.511.4-3.019.65-4.543.772.895.698 2.156.739 3.25.91 1.172.086 2.444-.174 3.47.568 1.572.636.353 1.888-.767 1.88-1.32.262-2.636.115-3.936-.18-1.7-.497-3.384-1.163-5.15-1.414-.214 1.124.038 3.502-1.592 3.298-1.203-.457-2.33-1.546-1.821-2.904-.208-1.343-.026-2.756-.094-4.102-.012-1.416.534-2.77.501-4.167.146-.854 1.21-.827 1.833-.745.721-.041 1.438-.071 2.14-.256zm1.535 2.56c-.936.229-2.642-.17-2.616 1.212-.436 1.345 1.053.663 1.83.666 1.483-.146 3.149-.078 4.428-.968.727-.717-.836-.646-1.295-.792-.765-.052-1.561-.04-2.347-.119z" style="color:#000;font-size:40px;line-height:1.25;font-family:OCR-A;-inkscape-font-specification:OCR-A;letter-spacing:0;word-spacing:0;display:inline;fill:#000;fill-opacity:1;stroke-width:3.46522;-inkscape-stroke:none;paint-order:stroke markers fill" transform="translate(-12.206 -212.8)"/><path d="M292.095 233.096c.11.747-1.062.653-1.526 1.03-1.716 1.234-3.673 2.26-4.777 4.14-1.031 1.558-1.474 3.561-.963 5.385.323 1.387 1.06 2.768 2.34 3.49.212.247 1.531 1.017 2.155 1.191.957.234 1.942.578 2.902.67.758-.19 1.575.11 2.33-.182.816-.058 1.746-.559 2.27-.61.983-.187 1.639-.548 2.256-.879 1.379-.275 2.285-1.484 3.433-2.216.96-.911.105-.078 1.183-1.223.988-1.152.661-2.888-.383-3.863-.466-.53-1.37-.599-.926-1.418-.14-.723.113-1.644-.68-2.042-1.957-2.026-4.653-3.488-7.531-3.381l-2.083-.092z" style="color:#000;font-size:40px;line-height:1.25;font-family:OCR-A;-inkscape-font-specification:OCR-A;letter-spacing:0;word-spacing:0;display:inline;fill:#fff;stroke:#030303;stroke-width:1.08031;stroke-miterlimit:4;stroke-dasharray:none;stroke-opacity:1;paint-order:markers fill stroke" transform="translate(-12.206 -212.8)"/><path d="M293.827 234.907c2.378-.127 4.695.91 6.339 2.601.619.265.662 1.52-.006 1.635-1.088.255-1.517-1.1-2.494-1.259-1.323-.866-3.116-.6-4.38.278-1.297.65-2.431 1.546-3.548 2.45-.985.883-.4 2.121-.382 3.22.55.654 1.512.785 2.292.966.844-.203 1.895-.114 2.592-.585.368-.184 1.494-.363 2.248-.44.396-.23 2.032-.924.79-.676-1.318.185-2.693.228-3.987-.01-.652-.57-2.33-1.31-1.689-2.327.918-.558 2.051-.174 3.093-.326 1.636-.104 3.265.047 4.89-.195 1.031.126 2.129.513 2.79 1.362.6 1.312-.966 2.11-1.81 2.827-.715.558-1.392 1.166-2.288 1.385-1.198.602-2.523.901-3.805 1.263-.952.198-1.968.17-2.906.046-1.458-.267-2.857-.804-3.965-1.813-1.007-1.004-1.36-2.573-1.206-3.962.341-2.088 1.896-3.678 3.625-4.738 1.116-.816 2.396-1.674 3.807-1.636z" style="color:#000;font-size:40px;line-height:1.25;font-family:OCR-A;-inkscape-font-specification:OCR-A;letter-spacing:0;word-spacing:0;display:inline;fill:#000;fill-opacity:1;stroke-width:3.46522;-inkscape-stroke:none;paint-order:stroke markers fill" transform="translate(-12.206 -212.8)"/><g style="display:inline"><path d="m151.143 106.696-.07.07zM151.955 106.908l.105.141zM147.686 117.844l-.141.07z" class="fil59" style="fill:#fff;fill-rule:nonzero;stroke-linecap:round;stroke-linejoin:round" transform="matrix(.59602 -.0563 .05407 .62053 -30.107 -28.671)"/><path d="M-79.438 41.735c14.166 10.523 62.44 41.11 66.718 48.714 3.21 5.706-3.893 16.477-9.351 14.384-11.732-4.5-6.467-10.177-55.86-47.492" style="fill:#e9c642;fill-opacity:1;fill-rule:evenodd;stroke:#000;stroke-width:2.815;stroke-linecap:round;stroke-linejoin:round;stroke-miterlimit:4;stroke-dasharray:none;stroke-opacity:1" transform="matrix(.33074 0 0 .34434 68.722 9.704)"/><path d="M-77.634 85.69c2.408-1.227 12.939-3.118 15.153-5.983 2.213-2.863.674-6.332 1.683-8.742 2.589 1.879 7.007 2.911 8.504 2.265 1.403-.607 4.565-5.813 4.59-7.86.026-2.045-2.108-3.608-3.451-4.365 5.518-3.452 9.024-3.412 12.957-2.509 3.934.904 2.802 3.173 4.994 4.513 2.138 1.308 3.855.635 5.236 1.903 1.382 1.27 1.591 3.42 3.1 5.08 1.547 1.7 2.7.91 4.403 3.024 1.704 2.113 1.153 3.302 2.266 5.649s4.01 1.233.9 7.023c-3.017 5.616-6.636 8.594-9.13 10.477-2.555 1.929-8.417 3.643-9.712 2.465-1.544-1.406-.879-1.29-.428-2.664-1.25.51-1.909 1.112-4.285 1.507-2.376.396-2.905-.276-3.882-1.52-.976-1.243 1.212-4.106-.025-3.453-1.237.652-1.104 3.7-4.922 6.062-3.818 2.362-9.784 5.127-14.572 5.921-4.788.794-7.819-2.342-10.02-2.394" style="fill:#d4af8b;fill-opacity:1;fill-rule:evenodd;stroke:#000;stroke-width:2.815;stroke-linecap:round;stroke-linejoin:round;stroke-miterlimit:4;stroke-dasharray:none;stroke-opacity:1" transform="matrix(.33074 0 0 .34434 68.722 9.704)"/><path d="M-57.646 81.236c6.5 6.193 16.72 15.316 24.958 14.417 3.833-.417-3.066-14.001-8.507-19.288-5.442-5.287-12.766-2.22-14.765-.984M-40.681 76.213c1.42-.483 4.23-3.726 4.79-8.881M-34.332 85.085c2.8-3.154 5.977-7.204 6.566-10.814" style="fill:none;fill-opacity:.75;fill-rule:evenodd;stroke:#000;stroke-width:2.815;stroke-linecap:round;stroke-linejoin:round;stroke-miterlimit:4;stroke-dasharray:none;stroke-opacity:1" transform="matrix(.33074 0 0 .34434 68.722 9.704)"/><path d="M-31.27 93.835c4.691-3.274 7.923-7.19 9.414-11.345" style="fill:none;fill-opacity:.75;fill-rule:evenodd;stroke:#000;stroke-width:2.815;stroke-linecap:round;stroke-linejoin:round;stroke-miterlimit:4;stroke-dasharray:none;stroke-opacity:1" transform="matrix(.33074 0 0 .34434 68.722 9.704)"/><path d="m291.293 966.005-38.677 74.178-46.898-14.387-55.307-53.999 72.683-27.653z" style="opacity:1;fill:#667b58;fill-opacity:1;fill-rule:evenodd;stroke:#000;stroke-width:4;stroke-linecap:butt;stroke-linejoin:round;stroke-miterlimit:4;stroke-dasharray:none;stroke-opacity:1" transform="matrix(.23245 .0128 -.0123 .24201 -22.553 -226.747)"/><path d="m205.718 1025.796-55.307-53.999 72.683-27.653 22.328 7.49-67.753 25.496 49.308 55.018z" style="opacity:1;fill:#c5c5c5;fill-opacity:1;fill-rule:evenodd;stroke:#000;stroke-width:4;stroke-linecap:butt;stroke-linejoin:round;stroke-miterlimit:4;stroke-dasharray:none;stroke-opacity:1" transform="matrix(.23245 .0128 -.0123 .24201 -22.553 -226.747)"/><path d="m288.18 1000.584-9.198 19.648c-15.202-9.807-61.663-27.495-52.395-36.464 9.412-9.11 38.416 3.774 61.593 16.816z" style="fill:#667b58;fill-opacity:1;fill-rule:evenodd;stroke:#000;stroke-width:4;stroke-linecap:butt;stroke-linejoin:round;stroke-miterlimit:4;stroke-dasharray:none;stroke-opacity:1" transform="matrix(.23245 .0128 -.0123 .24201 -22.553 -226.747)"/><path d="M-64.624 62.93c-1.833 5.25-3.216 26.675 3.488 42.708-54.838-1.825-58.03-21.903-99.074-30.769 5.657-13.383 12.952-20.429 24.892-29.953 5.335-4.255 11.862-12.187 17.055-17.298 5.194-5.112 9.536-8.731 15.57-11.277 11.124-4.693 26.888-3.517 36.515 5.106-2.855.68-9.77-.106-9.716 4.95.504 5.707-4.006 8.31-7.966 11.344-2.578 2.67-1.1 6.782-4.918 8.32-.18 4.572 1.595 8.986 4.192 13.041 2.711 4.234 5.529 6.961 9.378 9.46 3.85 2.5 8.137-2.758 10.584-5.631z" style="fill:#5d5d5d;fill-opacity:1;fill-rule:evenodd;stroke:#000;stroke-width:2.81525;stroke-linecap:butt;stroke-linejoin:round;stroke-miterlimit:4;stroke-dasharray:none;stroke-opacity:1" transform="matrix(.33074 0 0 .34434 68.722 9.704)"/><path d="M-64.874 62.627c-3.235 3.506-6.735 8.132-10.584 5.632-3.849-2.5-6.667-5.226-9.378-9.46-2.597-4.055-4.371-8.469-4.192-13.042 3.818-1.537 2.34-5.649 4.918-8.32 3.96-3.034 8.47-5.636 7.966-11.344-.054-5.055 7.977-4.21 9.902-4.112 2.018.103 13.132 1.544 16.776 1.335 2.523-1.789 5.236-4.766 6.889-5.795 1.61-1.002 3.749-3.507 5.783-2.77 6.354.419 4.815 7.673 4.47 12.44-.915 6.24-9.324 7.93-17.676 14.093-6.191 4.704-5.65 5.09-9.368 10.427-3.718 5.335-2.27 7.41-5.506 10.916z" style="fill:#d4af8b;fill-opacity:1;fill-rule:evenodd;stroke:#000;stroke-width:2.81525;stroke-linecap:butt;stroke-linejoin:round;stroke-miterlimit:4;stroke-dasharray:none;stroke-opacity:1" transform="matrix(.33074 0 0 .34434 68.722 9.704)"/><path d="M-38.083 21.963c.13 3.193-1.028 5.32-2.876 6.112" style="fill:none;fill-opacity:.75;fill-rule:evenodd;stroke:#000;stroke-width:3.51906;stroke-linecap:round;stroke-linejoin:miter;stroke-miterlimit:4;stroke-dasharray:none;stroke-opacity:1" transform="matrix(.33074 0 0 .34434 68.722 9.704)"/><path d="M-70.035 50.038c1.104-.037 6.996-2.643 7.79-3.044-1.905 3.308-3.377 4.007-5.342 8.28-.865 2.36-2.413 5.464-4.956 7.033-3.764-2.748-4.09-8.114-5.83-12.163-4.74-3.04-7.936-8.247-12.253-7.461-1.027-2.372.553-4.245.602-6.43C-88.043 46.51-75.6 50.158-70.035 50.038z" class="fil58" style="fill:#000;fill-rule:nonzero;stroke:#000;stroke-width:2.81525;stroke-linecap:round;stroke-linejoin:round;stroke-miterlimit:4;stroke-dasharray:none;stroke-opacity:1" transform="matrix(.33074 0 0 .34434 68.722 9.704)"/><path d="M-68.47 56.306c-.661.562-5.599.788-6.763.516-.456-1.01-.83-4.041-1.465-5.247.884.022 9.091.73 11.844-1.699-1.183 1.195-3.996 6.564-3.617 6.43z" class="fil59" style="fill:#fff;fill-rule:nonzero" transform="matrix(.33074 0 0 .34434 68.722 9.704)"/><path d="M-96.3 30.034c3.552-1.028 4.243-2.89 7.363-4.113 3.12-1.223 3.132-1.033 5.115-.778 1.984.255 2.818 1.798 2.818 1.798" style="fill:none;fill-opacity:.75;fill-rule:evenodd;stroke:#000;stroke-width:2.815;stroke-linecap:round;stroke-linejoin:round;stroke-miterlimit:4;stroke-dasharray:none;stroke-opacity:1" transform="matrix(.33074 0 0 .34434 68.722 9.704)"/></g></svg>