<svg xmlns="http://www.w3.org/2000/svg" xmlns:xlink="http://www.w3.org/1999/xlink" width="1233.153" height="194.706" viewBox="0 0 326.271 51.516"><defs><linearGradient id="a" x1="191.17" x2="285.83" y1="408.39" y2="539.55" gradientTransform="translate(-161.62 -367.7)" gradientUnits="userSpaceOnUse"><stop offset="0" style="stop-color:#ff1010"/><stop offset="1" style="stop-color:#000"/></linearGradient><linearGradient id="b"><stop offset="0" style="stop-color:#ff1010"/><stop offset="1" style="stop-color:#000"/></linearGradient><linearGradient id="c"><stop offset="0" style="stop-color:red;stop-opacity:.60000002"/><stop offset="1" style="stop-color:#fff;stop-opacity:.59607846"/></linearGradient><linearGradient xlink:href="#d" id="e" x1="465.05" x2="465.05" y1="291.87" y2="340.49" gradientTransform="matrix(.76203 0 0 1.3123 -265.15 -190.46)" gradientUnits="userSpaceOnUse"/><linearGradient id="d"><stop offset="0" style="stop-color:#12761e"/><stop offset="1" style="stop-color:#2f5712"/></linearGradient><linearGradient xlink:href="#d" id="f" x1="773.45" x2="773.45" y1="131" y2="189" gradientTransform="matrix(.46249 0 0 2.1622 -265.16 -190.52)" gradientUnits="userSpaceOnUse"/><linearGradient xlink:href="#d" id="g" x1="570.5" x2="570.5" y1="230.32" y2="278.94" gradientTransform="matrix(.60566 0 0 1.6511 -265.21 -190.52)" gradientUnits="userSpaceOnUse"/><linearGradient xlink:href="#d" id="h" x1="609.06" x2="609.06" y1="215.58" y2="264.2" gradientTransform="matrix(.56432 0 0 1.772 -265.15 -190.46)" gradientUnits="userSpaceOnUse"/><radialGradient id="i" cx="109.8" cy="1503" r="71.718" gradientTransform="matrix(2.5826 0 0 .29157 -193.05 -172.41)" gradientUnits="userSpaceOnUse"><stop offset="0" style="stop-color:#5c0a00"/><stop offset="1" style="stop-color:#914412;stop-opacity:0"/></radialGradient></defs><g style="display:inline"><g aria-label="BIEDRONKI" style="font-size:74.6667px;line-height:1.25;font-family:OCR-A;-inkscape-font-specification:OCR-A;letter-spacing:0;word-spacing:0;fill:#d81414;stroke-width:11.1;paint-order:markers stroke fill"><path d="m-30.714-1107.883 1.291.333 13.125-.333.959.333 3.5.292q1.875.292 3.833.958l3.5 1.917q1.542.75 3.208 1.917 1.375 1.208 2.584 2.916.916 1.708 1.583 3.833l.333 2.542-.333.625-.625.958q-1.333 1.167-3.208 2.25l-3.209 1.917q-1.666.542-3.208 1.583l-2.875 1.626 7.667 2.25 3.875 1.583 2.875 2.542q1.208 1.333 2.208 3.208l.333 4.167q-.708 1.958-1.916 3.833l-2.875 2.25q-1.5 1-3.5 1.917l-7.709 2.874-4.458.959q-1.75.458-3.5 1.583l-16.333 3.833-4.459.667q-2.041.375-4.166 1.25l-21.083 5.75-4.167.333-3.542-1.916q-2.083-.209-3.166-2.25-1.167-1.5-1.917-3.5.417-1.75 1.583-3.208l-.333-4.167q-.042-1.458-.625-3.167.125-.583.625-.958l.667-3.208v-.959h-.334l-1.916-3.208q-1.209-1.5-1.917-3.5.208-1.875 1.917-3.208 1.416-.667 2.25-2.25l.958-8.959q-.083-2.208-.667-4.792l-.291-1.25.625-3.208q1.458-.958 2.875-2.25 1.333-1.167 3.208-2.25l8.958-1.917 23.333-1.583zm5.458 13.75-32.958 2.875v2.25h.333l.625 4.792q1.917-.209 3.834-.959l4.833-.333 17.25-4.458 3.833-1.917q1.292-.833 2.25-2.25zm2.208 17.917-11.5 1.583-.625-.333-3.208 1.291-15.666 4.167-3.209 1.292-1.25 2.541v3.5q.125.625.625.958l1.584-.624 3.208-.626 2.875-1.291 14.708-3.208 5.458-1.917 3.5-.625 2.875-1.292q1.334-.125 2.875-.625l6.417-1.917 1.583-.666-.958-.625-2.875-.958h-3.833z" style="font-size:85.3333px" transform="matrix(.26458 0 0 .26458 155.074 312.102)"/><path d="m20.577-1100.123 2.808 1.969q1.349.911 2.552 2.26l3.646 5.907 1.13 5.359-.547 1.677.255 1.13-1.677 15.203q-.146 2.006-.838 4.23l-.839 8.458-.838 3.646q-.292 1.64-.875 3.39-1.277 1.021-3.1 1.677-1.494-.4-3.062-1.13l-2.552-2.26-1.677-3.1q-.328-1.494-1.13-3.098-.547-1.495-.839-3.354l-.292-1.969.547-1.714 3.974-31.536-.291-.839q.145-1.895.838-3.937.948-1.24 2.807-1.969zM89.812-1099.904q1.786.11 3.719.547 1.24.364 2.661 1.057l2.406 1.604 1.86 2.115 1.349 2.698q-.51 1.276-1.604 2.114l-2.152 1.604-6.635.803h-3.755l-15.458 1.604-.803-.292-3.718.292-9.625 2.114q-1.386.365-3.209.547l-2.661 1.057q-.875.84-1.057 2.152.291 1.276 1.604 1.604l6.125-.802 2.661-1.094 8.531-1.86.803.292 2.661-1.094 5.36-.802.51.292h.802l3.755-.547 3.208.255q1.204.62 2.37 1.604 1.276.547 2.406 1.605.912 1.02 1.605 2.406l.547 2.151-.292.766-2.662 1.604-9.588 1.604-2.953 1.094q-1.203.182-2.37.802l-2.953.51q-1.313.11-2.917.547l-2.953 1.057-3.208.547-2.917 1.057-2.151.256-.802-.256-6.125 1.058q-1.422.146-1.86 1.604l-.802 2.406v1.35l5.068-1.35q1.422-.474 3.208-.802l2.917-1.057 9.625-2.151 2.917-.255 21.875-4.01 3.463-.256 3.756.255q.62.948 1.567 1.86l1.35 2.697q-.183 1.568-.803 3.172-.838 1.058-2.114 1.896l-8.823 2.917-3.209.255-12.797 2.953q-1.421.328-3.208.51-1.349.73-3.172 1.094l-6.416 1.313-2.662 1.094-6.417 1.604-2.916 1.057q-1.459.255-3.209.255-1.24.584-2.661.802-1.276.183-2.406.802l-5.323-2.15-1.604-2.37q-.912-.985-2.151-1.896l-.256-3.172 1.058-10.136.802-3.5-.255-1.859 1.312-9.88v-.766h-.255l.255-1.094-.255-.255v-1.057l-1.057-4.01-1.058-2.662 1.313-2.661 2.661-1.35 2.151.256 3.719-1.313 1.604.256.547-.256 22.13-3.463.547.255h.802zM126.197-1099.904l4.084.328 2.515-.328.948.328h8.459l6.927 1.24q1.677.4 3.755.62l19.505 4.41 2.844 1.277 5.031 3.135 2.188 2.188q.984.911 1.895 2.187l1.86 2.516.328 2.224-.62.948q-.219 1.604-.948 3.427l-1.276 2.844q-.875 1.203-2.187 2.187l-2.188 1.896q-.911.984-2.224 1.896-1.166.838-2.807 1.568-1.094.802-2.516 1.567l-3.135.328-2.224 2.188-3.464.62-9.114 3.463q-1.422.438-2.808 1.276l-6.307 2.188-2.515 1.568q-1.277.546-2.516 1.567l-11.302 4.703-1.896.328-.62-.62h-.62v.292q-1.53 0-3.135-.62l-2.844-1.24-5.031-3.463q-.401-1.276-1.276-2.515-.438-1.677-.62-3.792v-4.375l.62-6.307-.292-.948.292-.912-.292-2.843.292-2.516-.292-.948.292-7.838-.62-3.464q-.437-1.604-.62-3.792.474-1.458 1.568-2.807l.62-2.844q.838-1.203 2.224-2.187l2.807-.62.948.292zm7.547 13.198-3.463.328-3.172.948.948 3.755.328 3.464-.328 2.807.328.948-.328 1.896.328.62v5.979q.182 1.567 1.568 2.843l18.557-7.875 3.755-.948 9.115-3.755q1.421-.51 2.843-1.567l2.808-1.568 2.515-2.224q-.036-1.057-.911-1.86l-5.98-1.276q-1.567-.145-3.463-.62l-14.474-1.895-3.135.328-4.084-.328-2.187.328-.656-.328zM213.624-1099.831l14.912.765q1.786.183 4.047.766 1.713.438 3.791 1.495l7.329 2.807q1.604.802 3.062 2.26 1.458.84 3.026 2.261l2.005 3.062q1.167 1.568 1.276 3.537l.256 1.495q-.329 1.24-1.021 2.552l-2.26 2.77-6.09 4.303-3.79.765q-1.46.839-3.537.985l-7.584 1.276-.765-.255-.256.255-4.776.51 1.495 1.276 4.047 1.24q1.823.219 3.792.765l4.047.766h3.026l2.041.255 4.302-.255 4.303 1.02 3.28 1.75q1.35 1.058 2.516 2.772l.766 1.02-1.531 2.042q-1.276 1.021-3.026 1.75l-3.792.766-7.838.51-1.021-.255q-1.677-.437-4.302-.766l-4.521-.765-3.318-1.24q-1.677-.474-3.536-1.276l-12.396-3.281-2.26-.255-.256 1.75q0 2.005-.51 4.557-.073 2.005-.766 4.557-.547 1.677-2.005 3.282-.839.328-1.787 1.02l-1.75-.51q-1.713-.73-3.28-2.005-1.605-.401-2.808-2.042-1.458-1.02-2.26-2.77l-.256-2.298.51-3.791-.255-.474-.255-7.839.255-2.297-.255-2.515.255-3.282-.255-.765.766-8.604 1.02-4.302q.074-2.006.73-4.558l-.255-2.77.51-1.021 3.063-1.75q.948-.073 2.005-.51l.51.765 7.839-.51zm6.818 11.375-4.047.51q-1.75.036-4.302.51-2.187.11-3.026 2.261l-.51 4.302.51 1.787 2.516-.51q1.786-.074 4.302-.511h3.536l.766-.255h1.02l8.095-1.021 3.791-.985q1.75-.62 3.537-2.041l1.276-1.531-1.276-.985-7.328-1.276-.766.255zM296.567-1099.685l6.709 1.276 3.062 1.02 12.068 7.474 3.864 4.12 4.375 7.438.51 3.354-.254 3.828-3.1 4.885-1.02 2.844-2.042 1.787-1.823 2.297-4.083 3.609-7.474 4.375-5.651 2.297-15.422 3.61-2.552.254-.766-.255-.765.255-2.334-.255-11.047-4.63-2.297-1.786-5.395-6.417-2.334-5.396q-.547-1.531-.765-3.354l-.256-2.042.256-.802.255-3.318q.62-1.24 1.02-2.843l3.355-4.63 2.042-2.042 2.078-1.531 2.041-2.079 7.183-4.593 2.078-1.823 5.14-2.807q1.167-.693 2.553-1.021.838-.584 2.078-.802 1.057-.802 2.552-1.276l3.099-.766 1.02.255.766-.255h1.276zm3.61 13.89-3.61.766q-.948 1.057-1.02 2.807-.584 1.568-1.787 2.844-1.823-.073-3.865-.51l-3.61.51q-1.239.547-2.806 1.02l-3.1 1.532-6.416 6.927-1.786 2.844-.766 3.61q-.219.874-.255 2.04l.255.511v1.532l3.318 1.057 3.864.51q1.64-.218 3.354-.765l3.829-.547 6.963-2.297 11.302-6.672 4.63-4.375 3.573-5.396.766-3.61q-.948-1.02-2.297-2.04-1.458-.694-3.354-1.022l-3.573-1.02zM379.437-1097.972l4.411.328q1.386.328 2.662 1.167 1.312.328 2.661 1.167.474 1.494.875 3.536l-.583 4.12.583 1.203-2.661 15.604q-.474 1.787-.583 3.828l-1.459 18.266q-.547 1.677-1.495 3.536-1.75.693-3.828 1.13l-2.37.292-.874-.291-.875-.584-3.829-1.166-12.979-12.068q-1.13-1.094-2.333-2.662l-5.031-5.286-1.167 3.245-.875 12.942-.875 4.12-2.078 2.953-2.078.875-.875-.583h-.875l-1.167.583q-.984-.546-2.37-.875-1.13-.875-2.661-1.786-.985-1.276-1.75-3.208l1.75-17.391v-3.245l.292-.291-.292-.875.292-2.954v-.875h-.292q.292-2.041.292-4.703l.291-4.12 3.245-2.078 4.12-.875 3.864.584q1.422.62 2.917 1.786 1.458.912 2.661 2.333l2.662 2.37q1.057 1.203 2.661 2.334.948 1.421 2.334 2.661l7.073 7.948 1.458.911q.255-.984.328-2.37l3.208-22.093 1.204-3.828zM409.406-1099.758h2.953l2.917.583q1.567.984 3.208 2.333 1.75 1.24 3.536 2.954.985 2.187 1.167 4.994.11 2.042.583 4.375l4.704-1.75 11.703-6.453 2.37-2.625q2.37-.182 5.25-.875 1.859-.802 4.703-1.203 2.26.328 4.411 1.203l2.917 3.5.875 4.412-.292.875q-1.495 1.64-4.083 2.041l-4.12 1.459-12.323 6.744q-1.75.584-3.792 1.787l-4.411 2.042q-1.167.328-2.333 1.166l1.458.584q1.969.474 4.703 1.458 2.187.364 4.667 1.495l9.114 2.916q1.787 1.021 4.375 1.75l4.12 2.078q1.714.803 4.083 2.334l4.12 2.041 3.828 2.662 2.625 3.5q.62 1.495.875 3.245-.291.656-.875 1.458l-1.75 1.458-2.953-.291q-1.932-.62-4.375-1.75l-3.828-2.37q-1.932-.693-4.083-2.333-2.334-.584-4.703-1.75l-4.12-1.787q-2.151-.583-4.667-1.75l-14.073-3.5q-1.969-.765-4.703-.875-1.823 0-2.333 2.042-.547 2.26-.584 5.286-.328 2.26-1.203 4.959-2.005 1.093-4.666 1.203l-4.12-1.495-3.792-2.625q-1.385-1.714-2.078-4.12l.62-5.833q-1.714-1.459-4.12-2.078-1.64-1.203-3.245-2.917-1.495-1.422-2.625-3.536l-.875-2.917 1.459-1.458 9.99-2.662 2.04-8.786-.29-3.245.29-2.042q-.036-2.333-.583-5.286.948-1.386 2.334-2.625zM480.099-1100.123l2.807 1.969q1.349.911 2.552 2.26l3.646 5.907 1.13 5.359-.547 1.677.255 1.13-1.677 15.203q-.146 2.006-.838 4.23l-.839 8.458-.838 3.646q-.292 1.64-.875 3.39-1.276 1.021-3.1 1.677-1.494-.4-3.062-1.13l-2.552-2.26-1.677-3.1q-.328-1.494-1.13-3.098-.547-1.495-.839-3.354l-.291-1.969.546-1.714 3.974-31.536-.291-.839q.146-1.895.838-3.937.948-1.24 2.808-1.969z" style="font-family:Komix;-inkscape-font-specification:Komix" transform="matrix(.26458 0 0 .26458 155.074 312.102)"/></g><path d="M1183.31-484.12c-5.45 0-9.869 3.578-9.869 7.99 0 .424.042.842.122 1.25l19.595-1.71c-.294-4.197-4.588-7.53-9.847-7.53zm8.715 11.733-13.136 3.397c1.33.54 2.831.847 4.422.847 3.777 0 7.057-1.72 8.714-4.244zM1213.582-464.232a10.769 10.769 0 0 0-.508.004c-3.778.12-7.035 2.222-8.658 5.21l1.227.297h3.834l2.875.96.957.624-1.582.666-6.418 1.918c-.69.224-1.336.37-1.963.48.367 4.853 4.7 8.57 9.943 8.407 5.45-.173 9.819-4.466 9.76-9.592-.057-4.966-4.25-8.887-9.467-8.974z" style="font-size:85.3333px;line-height:1.25;font-family:OCR-A;-inkscape-font-specification:OCR-A;letter-spacing:0;word-spacing:0;fill:#000;stroke-width:11.1;paint-order:markers stroke fill" transform="matrix(.26458 0 0 .26458 -169.334 148.888)"/><path d="M1286.756-474.203c-5.445 0-9.865 3.13-9.865 6.99 0 .995.294 1.94.824 2.797.16-.274.345-.529.578-.752l2.662-1.057c1.215-.121 2.286-.303 3.21-.546l9.624-2.116 2.477-.193c-1.154-2.953-4.974-5.123-9.51-5.123zm9.402 9.035-8.531 1.86-2.662 1.093-4.203.55c1.662.903 3.74 1.44 5.994 1.44 4.439 0 8.193-2.075 9.434-4.931zM1344.174-472.25c-.266 0-.535.01-.807.03-1.916.134-3.638.741-4.947 1.644l.029.12.621 3.466-.184 4.904c1.442.757 3.284 1.149 5.26 1.01 4.347-.301 7.69-3.044 7.477-6.12-.201-2.887-3.46-5.047-7.45-5.054zM1461.252-442.373c-3.365.01-6.546 1.17-8.9 3.264.428.146.857.293 1.27.41l3.317 1.24 4.522.766c1.75.218 3.183.474 4.3.765l1.022.254 6.877-.447c-1.522-2.095-3.668-3.857-6.303-4.988a15.329 15.329 0 0 0-6.105-1.264zM1535.291-456.355l-.514.775-4.629 4.375-8.097 4.78a11.85 11.85 0 0 0 3.906.652c5.45 0 9.87-3.578 9.87-7.989 0-.908-.19-1.78-.536-2.593zM1604.352-456.842c-.266 0-.535.01-.807.03-2.59.182-4.826 1.23-6.164 2.699l-.66 4.549c-.013.255-.044.475-.066.71 1.236 2.083 4.251 3.426 7.67 3.186 4.347-.3 7.692-3.043 7.478-6.12-.2-2.887-3.462-5.047-7.451-5.054zM1642.531-473.287c-.265 0-.535.008-.806.027-4.347.301-7.693 3.044-7.479 6.12.214 3.08 3.91 5.33 8.258 5.025 4.08-.287 7.282-2.722 7.477-5.57l-.104.039a33.822 33.822 0 0 1-.38-2.249c-1.077-2.016-3.79-3.386-6.966-3.392zM1715.973-464.25c-3.673 1.46-6.25 4.91-6.205 8.854.037 3.17 1.76 5.912 4.357 7.505.118-.632.202-1.252.246-1.855z" style="font-size:74.6667px;line-height:1.25;font-family:Komix;-inkscape-font-specification:Komix;letter-spacing:0;word-spacing:0;fill:#000;stroke-width:11.1;paint-order:markers stroke fill" transform="matrix(.26458 0 0 .26458 -169.334 148.888)"/><path d="M1380.09-445.568c-.266 0-.535.008-.807.027-4.347.3-7.69 3.043-7.476 6.12.058.826.366 1.593.87 2.267l4.456-1.545c.923-.56 1.859-.984 2.807-1.276l6.867-2.611c-1.208-1.79-3.763-2.977-6.717-2.982zM1422.512-469.668c-.513 0-1.016.027-1.508.08l-.486 2.05-.766 8.604.256.766-.172 2.217c.851.17 1.748.262 2.676.262 5.445 0 9.865-3.131 9.865-6.99 0-3.86-4.42-6.989-9.865-6.989zM1505.799-476.766l-1.61.88-2.078 1.822-7.181 4.593-2.043 2.078-1.172.864c1.349.6 2.87.915 4.478.865 5.446-.173 9.815-4.466 9.756-9.592a9.2 9.2 0 0 0-.15-1.51zM1445.602-482.658c1.825 1.796 4.43 2.878 7.312 2.789a10.439 10.439 0 0 0 5.336-1.658c-1.323-.325-2.539-.557-3.607-.666zM1571.254-429.082c-2.895 0-5.5.883-7.305 2.291.553.361 1.073.718 1.528 1.07.923.22 1.712.51 2.369.875l1.166-.582h.875l.875.582 2.078-.875 2.025-2.877a13.467 13.467 0 0 0-3.611-.484zM1546.162-471.285c-1.175 1.571-1.857 3.485-1.834 5.531.055 4.769 3.923 8.573 8.846 8.945l.088-1.322-.51-3.355-4.375-7.438zM1669.24-450.842a8.831 8.831 0 0 0-.238 2.133c.059 5.126 4.525 9.141 9.975 8.973 3.135-.1 5.91-1.568 7.693-3.772-1.021-.617-1.973-1.159-2.777-1.535l-4.12-2.078c-1.725-.486-3.184-1.07-4.375-1.75z" style="display:inline;fill:#000;stroke-width:.455662" transform="matrix(.26458 0 0 .26458 -169.334 148.888)"/><path d="M1227.582-482.277c-.564 2.526-.253 5.146.781 7.537l.614-.938.332-.625-.332-2.543a22.336 22.336 0 0 0-1.395-3.431zM1173.617-442.475a10.767 10.767 0 0 0-.508.004c-5.45.174-9.818 4.464-9.76 9.59a8.677 8.677 0 0 0 .924 3.803l18.768-5.117c-.42-4.632-4.458-8.197-9.424-8.28z" style="font-size:85.3333px;line-height:1.25;font-family:OCR-A;-inkscape-font-specification:OCR-A;letter-spacing:0;word-spacing:0;fill:#000;stroke-width:11.1;paint-order:markers stroke fill" transform="matrix(.26458 0 0 .26458 -169.334 148.888)"/></g><path d="M75.847 14.852c-.154.76-1.585.68-2.22 1.186-1.883.965-3.523 2.386-5.26 3.57-2.149 2.048-3.732 4.798-3.765 7.833.16 2.148.777 4.381 2.286 5.981 1.158.82 1.411 1.09 2.426 1.766 1.028.448 1.645.828 2.87 1.085 1.13.153 2.268.86 3.385.54 1.601.172 3.24-.023 4.74-.599a66.687 66.687 0 0 1 3.327-.906c.841-.741 1.868-.769 2.973-1.356 1.446-1.181 3.057-2.174 4.365-3.514.119.147 2.487-3 1.009-4.443-.606-1.157-1.756-1.881-2.949-2.34.59-.876.56-1.853.381-2.854-.039-.987-1.257-1.384-1.814-2.112-2.567-2.377-6.025-3.855-9.554-3.74l-2.2-.097zm4.628 7.187c.968.056 1.791.429 2.63.86 1.01.567-1.208.056-1.68.243l-4.19.128c1.008-.586 2.04-1.205 3.24-1.232zm8.556 1.625c.216.13.517.298 0 0zm-16.624 3.321c.15 1.197 2.318 2.255 2.14 2.727-.688-.108-2.13-.121-2.05-1.069-.004-.54-.352-1.155-.09-1.658z" style="color:#000;font-size:40px;line-height:1.25;font-family:OCR-A;-inkscape-font-specification:OCR-A;letter-spacing:0;word-spacing:0;display:inline;fill:#fff;stroke:#000;stroke-width:1.08031;stroke-linejoin:miter;stroke-miterlimit:4;stroke-dasharray:none;stroke-opacity:1;paint-order:markers fill stroke"/><path d="M77.58 16.663c2.264-.055 4.529.401 6.489 1.57 1.353.804 2.696 1.85 3.652 3.045.234.847-.076 2.063-1.177 1.785-1.332-.152-1.879-1.716-3.205-1.934-1.08-.752-2.52-.872-3.803-.75-2.075.572-3.948 1.762-5.698 2.978-1.343 1.122-3.417 2.037-3.277 4.097.227.878.138 1.884.416 2.703.819.895 2.193 1.06 3.305 1.348 1.286-.228 2.604-.307 3.851-.716.302-.682 1.786-.484 2.785-.744 1.032-.02 1.822-.784 2.728-1.188-2.096.272-4.194.445-6.301.196-1.215-.207-2.17-1.313-3.014-2.165-1.315-1.431 1.049-2.192 2.192-1.862 2.52-.091 5.049-.159 7.559-.164 1.61-.22 3.315-.336 4.737.594 1.389.458 2.533 2.208 1.275 3.466-1.428 1.365-3.051 2.557-4.66 3.68-1.802.564-3.439 1.565-5.344 1.817-1.521.745-3.26.782-4.922.64-.996.15-2.027-.448-3.036-.584-1.679-.48-3.2-1.5-4.392-2.742-1.306-1.947-1.812-4.55-.925-6.777.757-2.361 2.635-4.16 4.66-5.47 1.621-1.148 3.313-2.416 5.316-2.698.204.063.763.078.789-.125z" style="color:#000;font-size:40px;line-height:1.25;font-family:OCR-A;-inkscape-font-specification:OCR-A;letter-spacing:0;word-spacing:0;display:inline;fill:#000;fill-opacity:1;stroke-width:3.46522;-inkscape-stroke:none;paint-order:stroke markers fill"/><path d="M108.21 18.655c-1.906.14-3.86.396-5.72.4l-6.15.962c-.29-.159-1.58.35-2.238.312-.882.374-1.724.788-1.963 1.798-.767.798-.03 1.624.185 2.482.368 1.028-.097 1.331-.25 2.312.255.417.12 1.357.065 2.179-.286 1.732-.527 3.5-.27 5.253.99.403 1.17 1.695 2.23 1.912.886.187 1.821 1.213 2.651.449 1.107-.303 2.249-.427 3.342-.83 2.812-.843 5.672-1.445 8.54-2.11 1.372-.053 2.675-.644 3.935-1.126 1.336-.759 2.121-2.754 1.15-4.064-.51-.748-.92-1.928-2.016-1.713-.75.249-1.283-1.854-.58-1.645 1-.666 2.16-1.644 2.179-2.881-.69-1.992-2.482-3.557-4.645-3.656l-.32-.026z" style="color:#000;font-size:40px;line-height:1.25;font-family:OCR-A;-inkscape-font-specification:OCR-A;letter-spacing:0;word-spacing:0;display:inline;fill:#fff;stroke:#010101;stroke-width:1.08031;stroke-linejoin:round;stroke-miterlimit:4;stroke-dasharray:none;stroke-opacity:1;paint-order:markers fill stroke"/><path d="M108.23 20.391c1.388.002 2.77.835 3.239 2.166-.82 1.569-2.81 1.067-4.265 1.267a67.421 67.421 0 0 1-5.095.419c-1.34.357-2.748.473-4.038.972-.855 1.443 1.445.94 2.215.627 1.208-.475 2.52-.443 3.691-.866 1.003-.187 1.952-.141 2.966-.24 1.046-.051 3.125 1.542 2.104 2.503-1.153.688-2.645.389-3.849 1.008-1.65.434-3.33.799-4.973 1.256-.886.076-2.25-.09-2.704.825-.798 1.584 1.347.267 2.066.291 2.82-.96 5.826-1.118 8.725-1.77 1.086-.23 2.195-.402 3.304-.248 1.374.979.56 2.835-.992 2.927-1.618.607-3.361.665-5.02 1.166-1.928.431-3.846.872-5.734 1.46-1.33.4-2.716.704-4.025.947-1.084-.208-1.743-1.02-2.325-1.825-.164-1.795.427-3.57.435-5.335.171-1.418.517-2.632-.002-3.947-.515-.755-.278-1.768.678-1.991.815.135 1.562-.398 2.366-.336 2.417-.334 4.816-.89 7.233-.932l4-.344z" style="color:#000;font-size:40px;line-height:1.25;font-family:OCR-A;-inkscape-font-specification:OCR-A;letter-spacing:0;word-spacing:0;display:inline;fill:#000;fill-opacity:1;stroke-width:3.46522;-inkscape-stroke:none;paint-order:stroke markers fill"/><path d="M121.042 19.686c-1.02.435-2.157.978-3.104 1.819-1.935 1.136-3.7 2.592-4.894 4.519a6.435 6.435 0 0 0 .16 5.602c.486 1.291 1.522 2.313 2.49 3.261 1.214.93 2.774 1.329 4.167 1.915 2.287.393 4.49-.649 6.713-1.03 2.308-.854 4.538-2.112 6.096-4.048.87-.574.829-1.762 1.549-2.496.698-1.039.39-2.435.225-3.608-1.001-1.818-2.096-3.74-4.05-4.668-1.475-.972-2.99-1.953-4.804-2.087-.888-.17-2.595-.508-2.595-.508zm5.265 6.299c1.335.108-.3 1.158-.677 1.607-1.693 1.037-3.409 2.161-5.444 2.312-1.185.203.789-1.306 1.07-1.776.953-.847 2.229-.473 3.365-.432.686-.473.86-1.533 1.686-1.711z" style="color:#000;font-size:40px;line-height:1.25;font-family:OCR-A;-inkscape-font-specification:OCR-A;letter-spacing:0;word-spacing:0;display:inline;fill:#fff;stroke:#030303;stroke-width:1.08031;stroke-miterlimit:4;stroke-dasharray:none;stroke-opacity:1;paint-order:markers fill stroke"/><path d="M124.66 20.45c1.505.18 2.953.62 4.161 1.563 1.509.774 2.824 1.906 3.536 3.474.843 1.129.715 2.767-.226 3.796-.214.876-.903 1.37-1.436 2.055-1.926 1.871-4.499 2.905-7.117 3.354-1.551.435-3.213.779-4.665-.123-1.28-.43-2.496-1.055-3.23-2.241-1.484-1.644-2.103-4.424-.558-6.224 1.054-1.46 2.615-2.413 4.095-3.39 1.332-1.078 2.987-1.727 4.613-2.195.214.062.72.055.827-.069zm.975 3.75c-1.639.096-1.365 2.393-3.368 1.68-1.761.147-2.85 1.606-3.87 2.866-.497.714-.777 1.972-.387 2.637 1.85.786 3.822-.03 5.617-.596 1.918-1.128 4.077-2.138 5.126-4.228 1.048-1.44-.841-2.058-2.04-2.26-.35-.076-.722-.058-1.078-.098z" style="color:#000;font-size:40px;line-height:1.25;font-family:OCR-A;-inkscape-font-specification:OCR-A;letter-spacing:0;word-spacing:0;display:inline;fill:#000;fill-opacity:1;stroke-width:3.46522;-inkscape-stroke:none;paint-order:stroke markers fill"/><g aria-label="BIEDRONKI" style="font-size:74.6667px;font-family:OCR-A;-inkscape-font-specification:OCR-A;letter-spacing:0;word-spacing:0;display:inline;fill:#000;fill-opacity:1;stroke:#000;stroke-width:11.1;paint-order:markers stroke fill"><g style="fill:#000;fill-opacity:1"><path stroke="none" d="m555.51-496.715-1.283.277-4.067.874-23.33 1.584-10.205 2.183-.758.438c-1.504.869-2.867 1.813-4.086 2.879l-.043.037-.043.039a17.615 17.615 0 0 1-2.183 1.713l-1.953 1.283-1.3 6.668.553 2.367c.307 1.356.45 2.522.502 3.545l-.705 6.592-.34.265c-2.047 1.598-3.71 4.21-4.017 6.971l-.14 1.266.425 1.199a17.59 17.59 0 0 0 2.482 4.662l1.104 1.844-.082.392c-.35.62-.683 1.26-.824 1.92l-.322 1.502.496 1.455c.246.72.321 1.237.33 1.532l.004.142.199 2.51c-.562 1.04-1.031 2.13-1.305 3.28l-.392 1.646.595 1.588a18.886 18.886 0 0 0 2.559 4.64c1.191 1.906 3.221 3.525 5.48 4.258l4.586 2.482 6.323-.505 21.918-5.979.318-.13a15.298 15.298 0 0 1 3.03-.917l4.529-.678 17.484-4.103.805-.516c.739-.475 1.36-.733 1.884-.873l4.633-.996 8.276-3.088.183-.084c1.55-.71 2.972-1.48 4.268-2.344l.176-.117 3.777-2.957.508-.787a24.584 24.584 0 0 0 2.47-4.951l.409-1.13-.522-6.518-.543-1.018c-.846-1.587-1.829-3.04-2.992-4.324l-.207-.229-3.81-3.367-.983-.4c.901-.597 1.842-1.165 2.625-1.85l.576-.504 1.176-1.805 1.287-2.41-.629-4.785-.144-.459c-.535-1.704-1.19-3.307-1.989-4.797l-.162-.3-.197-.28c-1.023-1.445-2.166-2.751-3.451-3.88l-.229-.204-.252-.176a29.189 29.189 0 0 0-3.963-2.359l.239.121-3.922-2.146-.455-.157a28.316 28.316 0 0 0-4.77-1.187l-.195-.031-2.998-.248-1.248-.436-13.36.34zm-.117 5.703 1.29.334 13.126-.334.959.334 3.5.291a22.77 22.77 0 0 1 3.834.96l3.5 1.915a23.76 23.76 0 0 1 3.207 1.916c.916.806 1.778 1.78 2.584 2.918.61 1.14 1.14 2.416 1.584 3.832l.332 2.543-.332.625-.625.957c-.89.778-1.96 1.528-3.21 2.25l-3.208 1.918c-1.112.361-2.18.888-3.207 1.582l-2.875 1.625 7.666 2.25 3.875 1.584 2.875 2.541c.805.89 1.542 1.96 2.209 3.21l.332 4.165a19.013 19.013 0 0 1-1.916 3.834l-2.875 2.25c-1 .667-2.167 1.305-3.5 1.916l-7.71 2.875-4.456.96c-1.167.305-2.334.833-3.5 1.583l-16.334 3.832-4.46.668c-1.36.25-2.749.667-4.165 1.25l-21.084 5.75-4.166.332-3.541-1.916c-1.39-.139-2.446-.889-3.168-2.25-.778-1-1.416-2.166-1.916-3.5a8.087 8.087 0 0 1 1.584-3.209l-.334-4.166c-.028-.972-.237-2.027-.625-3.166.083-.389.291-.709.625-.959l.666-3.209v-.957h-.332l-1.918-3.209c-.806-1-1.444-2.166-1.916-3.5.138-1.25.777-2.32 1.916-3.209.944-.444 1.694-1.194 2.25-2.25l.959-8.957c-.056-1.472-.278-3.07-.666-4.793l-.293-1.25.625-3.207a23.143 23.143 0 0 0 2.875-2.25c.888-.777 1.959-1.527 3.209-2.25l8.959-1.918 23.332-1.582zm5.459 13.75-32.96 2.875v2.25h.335l.625 4.791a14.906 14.906 0 0 0 3.832-.957l4.834-.334 17.25-4.459 3.834-1.916c.86-.555 1.61-1.305 2.25-2.25zm2.207 17.916-11.5 1.584-.625-.334-3.207 1.293-15.668 4.166-3.207 1.291-1.25 2.543v3.5c.083.417.291.735.625.957l1.582-.625 3.209-.625 2.875-1.29 14.709-3.21 5.457-1.916 3.5-.625 2.875-1.29c.888-.084 1.847-.292 2.875-.626l6.418-1.918 1.582-.666-.957-.625-2.875-.959h-3.834z" style="color:#000;-inkscape-font-specification:OCR-A;fill:#000;fill-opacity:1;stroke:none;-inkscape-stroke:none" transform="matrix(.26458 0 0 .26458 0 148.888)"/></g><g style="fill:#000;fill-opacity:1"><path stroke="none" d="m607.432-489.506-2.774 1.088c-1.936.76-3.813 1.963-5.19 3.764l-.554.724-.293.864c-.592 1.743-.978 3.513-1.115 5.295l-.09 1.154.246.705-3.748 29.74-.783 2.455.484 3.266.004.023c.242 1.54.6 3.006 1.11 4.4l.107.296.14.28c.362.724.568 1.33.673 1.807l.168.764 2.517 4.649 3.89 3.447.735.342a24.38 24.38 0 0 0 3.965 1.459l1.682.449 1.636-.588c1.69-.608 3.281-1.443 4.686-2.566l1.28-1.024.519-1.555a29.705 29.705 0 0 0 1.037-3.988l.898-3.904.824-8.322c.466-1.624.783-3.243.9-4.862l-.019.205 1.78-16.127-.123-.547.533-1.636-1.635-7.76-4.41-7.145-.326-.363a19.298 19.298 0 0 0-3.586-3.164zm-.748 6.254 2.808 1.969c.9.607 1.749 1.362 2.551 2.262l3.646 5.906 1.131 5.36-.547 1.675.254 1.13-1.675 15.204c-.098 1.337-.378 2.746-.84 4.228l-.838 8.46-.838 3.646a24.05 24.05 0 0 1-.875 3.39c-.85.681-1.884 1.239-3.1 1.676a18.862 18.862 0 0 1-3.062-1.129l-2.553-2.261-1.676-3.098c-.218-.997-.596-2.03-1.13-3.1-.365-.996-.644-2.114-.838-3.353l-.293-1.969.546-1.715 3.975-31.535-.29-.84c.096-1.264.375-2.576.837-3.937.632-.827 1.567-1.483 2.807-1.969z" style="color:#000;-inkscape-font-specification:Komix;fill:#000;fill-opacity:1;stroke:none;-inkscape-stroke:none" transform="matrix(.26458 0 0 .26458 0 148.888)"/></g><g style="fill:#000;fill-opacity:1"><path stroke="none" d="m675.852-488.598-.409.036-17.865 1.535-.861-.403-24.578 3.848.28-.13-1.315-.212-3.829 1.352-2.535-.301-5.808 2.945-3.221 6.532 1.844 4.642.789 2.992v2.637l-.301-.3-1.145 4.9h1.016l-.678 5.109.22 1.596-.651 2.84-1.147 10.98.5 6.209 2.041 1.5c.502.369.863.709 1.18 1.031l2.215 3.276 9.332 3.771 2.308-1.265c.183-.1.316-.145.522-.174l.03-.01h.03c.92-.142 1.785-.503 2.666-.807 1.127-.034 2.245-.082 3.315-.27l.478-.083 3.106-1.125 6.531-1.633 2.549-1.047 5.88-1.203h.009c1.087-.218 2.085-.68 3.103-1.088 1.195-.137 2.35-.3 3.428-.549l12.398-2.861 3.465-.276 10.155-3.355.61-.403c1.28-.84 2.448-1.867 3.415-3.085l.525-.66.303-.788a18.52 18.52 0 0 0 1.139-4.531l.191-1.645-2.517-5.033-.69-.662a5.34 5.34 0 0 1-.77-.896l-1.511-2.313-5.715-.388.117-.307-1.127-4.434-.267-.535c-.354-.706-.87-1.307-1.313-1.957l3.004-.363 3.365-2.51.03-.021a10.757 10.757 0 0 0 3.379-4.46l.925-2.314-2.785-5.57-2.814-3.201-3.326-2.217-.336-.164a22.609 22.609 0 0 0-3.526-1.393l-.17-.049-.172-.039a28.844 28.844 0 0 0-4.605-.674zm.066 5.565c1.19.073 2.43.255 3.719.547.826.243 1.714.596 2.662 1.058l2.406 1.604 1.86 2.115 1.349 2.697a4.927 4.927 0 0 1-1.605 2.116l-2.15 1.603-6.636.803h-3.755l-15.46 1.603-.8-.29-3.719.29-9.625 2.116c-.924.243-1.994.425-3.209.546l-2.662 1.057c-.583.56-.935 1.275-1.057 2.15.195.851.729 1.387 1.604 1.606l6.125-.803 2.662-1.094 8.531-1.859.803.291 2.66-1.094 5.36-.8.511.29h.801l3.756-.546 3.209.256c.802.413 1.591.947 2.369 1.603.85.365 1.653.899 2.406 1.604.608.68 1.142 1.482 1.604 2.406l.547 2.152-.291.766-2.663 1.603-9.587 1.604-2.954 1.094a7.393 7.393 0 0 0-2.369.802l-2.953.51c-.875.073-1.848.255-2.918.547l-2.953 1.059-3.207.546-2.918 1.057-2.15.256-.803-.256-6.125 1.057c-.948.097-1.568.633-1.86 1.605l-.8 2.406v1.348l5.066-1.348a23.78 23.78 0 0 1 3.21-.802l2.915-1.057 9.625-2.152 2.918-.254 21.875-4.012 3.463-.254 3.756.254a10.79 10.79 0 0 0 1.566 1.86l1.35 2.699a12.938 12.938 0 0 1-.803 3.172c-.559.704-1.262 1.335-2.113 1.894l-8.824 2.918-3.207.254-12.797 2.953c-.948.219-2.018.39-3.21.512-.898.486-1.956.85-3.171 1.094l-6.416 1.312-2.662 1.094-6.416 1.603-2.918 1.057c-.972.17-2.04.256-3.207.256a9.674 9.674 0 0 1-2.662.803 7.032 7.032 0 0 0-2.407.8l-5.322-2.15-1.605-2.37a15.14 15.14 0 0 0-2.15-1.896l-.257-3.172 1.059-10.134.8-3.5-.253-1.86 1.312-9.88v-.766h-.255l.255-1.094-.255-.256v-1.056l-1.057-4.01-1.059-2.662 1.313-2.662 2.662-1.348 2.15.254 3.72-1.313 1.605.256.546-.256 22.13-3.463.546.256h.803z" style="color:#000;-inkscape-font-specification:Komix;fill:#000;fill-opacity:1;stroke:none;-inkscape-stroke:none" transform="matrix(.26458 0 0 .26458 0 148.888)"/></g><g style="fill:#000;fill-opacity:1"><path stroke="none" d="m719.482-488.705-3.232.422-3.994-.322-.494.048-5.198.512-1.28-.394-5.339 1.177-.918.653c-1.363.968-2.59 2.143-3.562 3.539l-.633.908-.639 2.928c-.668 1.021-1.258 2.097-1.64 3.273l-.346 1.063.094 1.113c.132 1.59.357 3.062.715 4.465l.486 2.718-.305 8.182.227.734-.229 1.96.237 2.292-.471 1.467.476 1.547-.537 5.469v4.887l.022.238c.143 1.663.39 3.227.777 4.715l.256.976.582.822c.296.42.438.741.514.98l.574 1.823 7.045 4.852 3.441 1.5.11.04c1.146.444 2.362.695 3.595.84l.891.891 4.26-.736h1.94v-.543l11.78-4.902.635-.524c.48-.395.874-.623 1.174-.752l.389-.166 2.347-1.463 6.274-2.175.5-.303a6.995 6.995 0 0 1 1.566-.72l.172-.054 8.799-3.341 4.643-.832 2.064-2.03 2.295-.24.965-.52a27.145 27.145 0 0 0 2.88-1.8c1.055-.511 2.09-1.034 3.012-1.694a19.346 19.346 0 0 0 2.79-2.345l2.054-1.78a15.83 15.83 0 0 0 3.041-3.119l.34-.465 1.559-3.474.043-.108c.401-1.004.59-2.031.833-3.052l1.38-2.11-.838-5.68-2.684-3.632.053.074a19.766 19.766 0 0 0-2.643-3.035l.154.148-2.636-2.637-5.891-3.671-3.693-1.657-20.366-4.605-.326-.035a24.12 24.12 0 0 1-3.045-.498l-.154-.037-7.57-1.356h-8.018zm-7.177 5.672 4.082.328 2.515-.328.95.328h8.457l6.927 1.24a29.51 29.51 0 0 0 3.756.62l19.504 4.411 2.844 1.276 5.031 3.137 2.188 2.187a14.276 14.276 0 0 1 1.896 2.188l1.86 2.515.328 2.223-.62.949c-.145 1.07-.463 2.21-.949 3.426l-1.275 2.844a10.365 10.365 0 0 1-2.188 2.187l-2.187 1.897c-.608.656-1.35 1.288-2.225 1.896-.778.559-1.713 1.08-2.806 1.566a21.483 21.483 0 0 1-2.516 1.569l-3.135.328-2.224 2.187-3.463.62-9.116 3.464c-.947.292-1.883.717-2.806 1.276l-6.309 2.187-2.515 1.569c-.851.364-1.69.886-2.516 1.566l-11.3 4.703-1.897.328-.62-.619h-.62v.291c-1.021 0-2.066-.206-3.135-.619l-2.844-1.24-5.031-3.463c-.268-.85-.692-1.69-1.276-2.516-.291-1.118-.5-2.381-.62-3.79v-4.376l.62-6.308-.293-.948.293-.912-.293-2.843.293-2.516-.293-.947.293-7.838-.62-3.465c-.292-1.07-.498-2.333-.62-3.791.316-.972.84-1.907 1.568-2.807l.62-2.843c.559-.803 1.3-1.532 2.224-2.188l2.807-.621.947.293zm7.547 13.199-3.465.328-3.172.947.95 3.756.327 3.463-.328 2.807.328.949-.328 1.895.328.62v5.98c.122 1.044.643 1.992 1.567 2.843l18.558-7.875 3.754-.947 9.115-3.756c.948-.34 1.896-.864 2.844-1.569l2.807-1.566 2.515-2.225c-.024-.704-.327-1.324-.91-1.859l-5.98-1.275c-1.045-.098-2.2-.306-3.463-.621l-14.475-1.895-3.135.328-4.084-.328-2.187.328-.656-.328zm-.204 4.084.25.986-.152.045zm4.15 1.498 3.96.318 2.996-.314 11.625 1.523-5.752 2.371-3.783.956-12.801 5.433v-2.482l-.086-.164.248-1.438-.38-1.1.247-2.13-.267-2.83.7.351z" style="color:#000;-inkscape-font-specification:Komix;fill:#000;fill-opacity:1;stroke:none;-inkscape-stroke:none" transform="matrix(.26458 0 0 .26458 0 148.888)"/></g><g style="fill:#000;fill-opacity:1"><path stroke="none" d="m789.682-489.32-4.213 1.742c-.265.11-.366.11-.309.105l-1.244.096-5.605 3.203-1.97 3.94.347 3.757c-.275 1.269-.534 2.526-.643 3.748l-1.02 4.3-.902 10.154.264.796-.205 2.657.244 2.424-.233 2.107.31 9.539.019.035-.36 2.682.428 3.861.373.813c.83 1.81 2.154 3.44 3.773 4.68.909.985 2 1.771 3.262 2.384 1.304 1.01 2.684 1.91 4.186 2.549l.302.129 4.69 1.367 2.205-1.613c.34-.248.55-.338.535-.332l1.209-.475.875-.96c1.387-1.527 2.522-3.291 3.176-5.296l.043-.13.035-.135c.531-1.957.851-3.82.932-5.662.002-.048.023-.1.025-.149l-.018.15 8.34 2.208c1.06.434 2.109.828 3.147 1.146l3.812 1.424 5.16.873.122.016c1.593.199 2.826.43 3.587.628l.028.012 1.89.473 9.077-.592 4.69-.947.503-.21c1.573-.655 3.044-1.487 4.357-2.538l.551-.442 1.653-4.709-1.756-2.72-1.2-1.288c-1.04-1.526.393-4.253-1.04-5.376l-.383-.301-4.342-2.317-2.6-.617 4.186-2.959 3.09-3.787.257-.488a17.658 17.658 0 0 0 1.479-3.723l.308-1.166-.433-2.537c-.211-2.163-1.024-4.32-2.32-6.063l.19.274-2.394-3.656-.525-.477a23.956 23.956 0 0 0-3.377-2.584c-1.194-1.108-2.507-2.064-3.957-2.789l-.244-.123-7.377-2.826c-1.543-.764-3.055-1.37-4.604-1.766-1.71-.44-3.313-.752-4.86-.91l-.14-.018-15.75-.808-.685.139-3.426.691-4.266.28zm10.048 6.361 14.913.766c1.19.121 2.54.376 4.046.765 1.143.292 2.406.79 3.791 1.494l7.329 2.807c1.069.535 2.09 1.29 3.062 2.262.972.559 1.982 1.312 3.027 2.26l2.004 3.062a6.395 6.395 0 0 1 1.278 3.537l.254 1.494a12.15 12.15 0 0 1-1.02 2.553l-2.262 2.77-6.088 4.302-3.79.766c-.973.559-2.152.887-3.538.984l-7.584 1.276-.765-.254-.254.254-4.778.511 1.497 1.276 4.046 1.24c1.216.146 2.479.401 3.791.766l4.047.765h3.026l2.043.254 4.3-.254 4.303 1.02 3.281 1.75c.9.705 1.738 1.629 2.516 2.771l.766 1.022-1.532 2.04c-.85.681-1.858 1.265-3.025 1.75l-3.793.766-7.838.51-1.021-.254c-1.118-.291-2.551-.547-4.301-.765l-4.522-.766-3.318-1.24a28.609 28.609 0 0 1-3.535-1.276l-12.397-3.28-2.26-.257-.255 1.75c0 1.337-.17 2.856-.51 4.557-.049 1.337-.304 2.857-.766 4.559-.364 1.118-1.033 2.211-2.005 3.28-.56.22-1.156.559-1.788 1.02l-1.75-.51a13.687 13.687 0 0 1-3.28-2.005c-1.07-.268-2.005-.948-2.807-2.041-.973-.68-1.725-1.605-2.26-2.772l-.256-2.297.51-3.79-.254-.475-.256-7.838.256-2.297-.256-2.516.256-3.281-.256-.766.766-8.603 1.021-4.303c.049-1.337.291-2.855.729-4.556l-.256-2.772.511-1.021 3.063-1.75c.632-.05 1.299-.219 2.004-.51l.512.765 7.837-.51zm6.819 11.375-4.047.51c-1.167.024-2.601.193-4.303.51-1.458.072-2.466.827-3.025 2.261l-.51 4.301.51 1.787 2.515-.51c1.191-.048 2.626-.22 4.303-.511h3.535l.766-.254h1.021l8.094-1.022 3.791-.984c1.167-.413 2.346-1.093 3.537-2.041l1.276-1.531-1.276-.985-7.328-1.277-.765.256zm-7.447 2.908.056.2c-.56.064-1.295.188-1.695.205l-.442.017zm1.623 26.914-.059.801-.12.813c.036-.527.179-1.097.179-1.614z" style="color:#000;-inkscape-font-specification:Komix;fill:#000;fill-opacity:1;stroke:none;-inkscape-stroke:none" transform="matrix(.26458 0 0 .26458 0 148.888)"/></g><g style="fill:#000;fill-opacity:1"><path stroke="none" d="M877.125-489.52v1.858l-2.117.523-.172.055c-.908.288-1.72.837-2.566 1.3-.983.236-1.954.614-2.89 1.159-.985.327-1.986.626-2.882 1.158l.172-.097-5.678 3.1-2.224 1.95-7.358 4.705-2.17 2.211-2.058 1.516-2.649 2.65-4.242 5.856-.262 1.04c-.185.744-.4 1.31-.6 1.708l-.486.972-.289 3.76-.43 1.35.403 3.223h.002c.19 1.574.529 3.1 1.049 4.556l.06.17 2.729 6.309 6.295 7.488 3.342 2.6 12.47 5.224 4.34.475.162-.053.137.045 4.094-.41 16.195-3.79 6.424-2.61 8.285-4.85 4.855-4.293 1.815-2.285 2.744-2.403 1.3-3.619 3.526-5.558.39-5.844-.763-5.012-5.23-8.89-4.79-5.106-13.242-8.203-4.03-1.344zm5.549 6.706 6.709 1.277 3.062 1.02 12.067 7.474 3.865 4.12 4.375 7.437.51 3.355-.254 3.828-3.1 4.885-1.021 2.844-2.041 1.787-1.823 2.297-4.084 3.61-7.474 4.374-5.65 2.297-15.422 3.61-2.553.253-.766-.254-.765.254-2.332-.254-11.047-4.63-2.297-1.788-5.397-6.416-2.334-5.396a15.408 15.408 0 0 1-.765-3.354l-.254-2.04.254-.803.256-3.319c.413-.826.754-1.774 1.021-2.843l3.354-4.63 2.04-2.042 2.079-1.532 2.043-2.078 7.181-4.593 2.078-1.823 5.141-2.806a9.058 9.058 0 0 1 2.553-1.022c.559-.389 1.252-.657 2.078-.803.705-.534 1.554-.959 2.55-1.275l3.1-.766 1.022.256.765-.256h1.276zm3.61 13.89-3.61.766c-.632.705-.973 1.642-1.022 2.808a8.374 8.374 0 0 1-1.785 2.844 22.876 22.876 0 0 1-3.865-.512l-3.61.512c-.826.365-1.76.704-2.806 1.02l-3.1 1.53-6.416 6.929-1.787 2.843-.765 3.61c-.146.583-.232 1.263-.256 2.04l.256.513v1.53l3.318 1.057 3.863.51a19.528 19.528 0 0 0 3.356-.765l3.828-.547 6.963-2.297 11.302-6.672 4.63-4.375 3.574-5.395.765-3.609a17.718 17.718 0 0 0-2.297-2.043c-.972-.462-2.091-.8-3.355-1.02l-3.572-1.021zm.525 5.602 2.117.148 3.3.944.268.046-1.99 3.008-3.713 3.508-10.25 6.05-5.93 1.958-3.8.543-.444.14c-.667.213-1.27.323-1.867.428l-1.277-.168.285-1.35.986-1.57 5.37-5.795 1.991-.984c.635-.206 1.24-.433 1.832-.668l2.41-.342c1.193.206 2.385.418 3.548.465l2.527.102 1.734-1.84a14.089 14.089 0 0 0 2.903-4.623zm-23.74 17.332v.658l-.098-.195z" style="color:#000;-inkscape-font-specification:Komix;fill:#000;fill-opacity:1;stroke:none;-inkscape-stroke:none" transform="matrix(.26458 0 0 .26458 0 148.888)"/></g><g style="fill:#000;fill-opacity:1"><path stroke="none" d="m963.008-486.855-1.828 2.326-5.037 6.412-1.641 5.22-1.992 13.717-.711-.799-.237-.21a8.418 8.418 0 0 1-1.416-1.604l-.574-.863-.847-.596c-.781-.55-1.333-1.057-1.688-1.46l-.225-.255-2.726-2.426a17.175 17.175 0 0 0-3.43-2.918c-1.207-.913-2.454-1.723-3.81-2.314l-.668-.293-5.582-.842-6.094 1.295-6.443 4.125-.502 7.096v.195c0 1.572-.09 2.891-.237 3.918l-.904 6.336h.85v2.41l-1.858 18.46.498 1.255c.657 1.656 1.455 3.18 2.514 4.553l.646.838.91.54c.866.516 1.572.995 2.104 1.407l.95.734 1.167.278c.538.127.853.27.955.326l2.559 1.422 1.404-.701 1.053.7 6.295-2.652 3.648-5.183 1.194-5.617.322-4.752 13.71 12.748 4.272 1.3.813.543 2.77.924 3.847-.474.232-.05a29.1 29.1 0 0 0 4.727-1.4l1.95-.771.952-1.867a30.132 30.132 0 0 0 1.827-4.338l.205-.623 1.515-18.992.004-.075c.055-1.02.198-1.914.407-2.7l.064-.243 3.002-17.605-.621-1.282.478-3.37-.181-.92c-.298-1.516-.632-2.885-1.031-4.145l-.62-1.953-1.74-1.082a15.378 15.378 0 0 0-3.334-1.567 13.802 13.802 0 0 0-3.64-1.455l-.428-.101zm2.535 5.755 4.412.329a8.32 8.32 0 0 1 2.662 1.166c.875.218 1.761.606 2.66 1.166.316.996.608 2.176.875 3.537l-.582 4.119.582 1.203-2.66 15.605a18.834 18.834 0 0 0-.584 3.829l-1.459 18.265a24.67 24.67 0 0 1-1.494 3.535c-1.167.462-2.443.84-3.828 1.131l-2.37.291-.874-.29-.875-.585-3.828-1.166-12.98-12.068c-.754-.73-1.53-1.615-2.333-2.66l-5.031-5.287-1.168 3.244-.875 12.943-.875 4.12-2.078 2.952-2.078.875-.875-.582h-.875l-1.166.582c-.657-.364-1.446-.656-2.37-.875a26.54 26.54 0 0 0-2.662-1.785c-.656-.85-1.24-1.92-1.75-3.209l1.75-17.39v-3.245l.291-.293-.29-.875.29-2.953v-.875h-.29c.194-1.36.29-2.928.29-4.703l.293-4.119 3.245-2.078 4.119-.875 3.865.584c.948.413 1.92 1.007 2.916 1.785.972.608 1.86 1.386 2.662 2.334l2.662 2.37c.705.801 1.59 1.58 2.66 2.333.632.948 1.41 1.836 2.334 2.662l7.073 7.948 1.459.912c.17-.657.28-1.448.328-2.371l3.209-22.094 1.203-3.828zm-48.277 27.45v.855l-.09.91-.418-1.258z" style="color:#000;-inkscape-font-specification:Komix;fill:#000;fill-opacity:1;stroke:none;-inkscape-stroke:none" transform="matrix(.26458 0 0 .26458 0 148.888)"/></g><g style="fill:#000;fill-opacity:1"><path stroke="none" d="m993.393-488.438-1.58 1.415a20.146 20.146 0 0 0-3.213 3.627l-1.295 1.892.418 2.252c.3 1.625.428 2.967.46 4.09l-.296 2.082.27 3.002-1.087 4.672-8.209 2.185-4.855 4.858 1.986 6.623.262.49c.963 1.802 2.155 3.43 3.588 4.82 1.237 1.31 2.525 2.488 3.894 3.492l.862.633.62.159-.333 3.136.3 1.043c.638 2.213 1.658 4.296 3.096 6.074l.5.62 5.04 3.488 5.822 2.113 1.093-.045c2.476-.101 4.921-.69 7.096-1.877l1.94-1.056.681-2.104c.661-2.038 1.144-3.983 1.418-5.873l.053-.363v-.367c.01-.553.103-.835.139-1.315l.248.096 14.258 3.547c1.436.63 2.85 1.201 4.236 1.615l3.84 1.666-.242-.113c1.482.73 3.009 1.22 4.537 1.683a20.86 20.86 0 0 0 3.886 2.207l4.006 2.479.305.142c1.784.826 3.437 1.493 5.012 1.998l.56.18 5.854.578 4.066-3.388.406-.557c.554-.761 1.046-1.543 1.457-2.469-3.073-.483-7.396-10.783-9.568-16.451l-4.486-2.225c-1.433-.904-2.78-1.708-4.049-2.314l-4.598-2.32-.515-.145c-1.396-.393-2.445-.836-3.127-1.226l-.506-.291-7.367-2.358 10.308-5.642 3.326-1.178c2.487-.507 4.938-1.726 6.707-3.668l.791-.87 1.127-3.382-1.435-7.24-4.71-5.65-1.284-.524a24.466 24.466 0 0 0-5.705-1.555l-.786-.113-.787.111c-1.984.28-3.787.702-5.48 1.356-1.578.367-2.973.595-4.123.683l-2.21.17-3.23 3.578-8.427 4.647c-.275-1.269-.644-2.506-1.172-3.68l-.444-.982-.777-.746a36.72 36.72 0 0 0-4.055-3.381c-1.185-.964-2.374-1.843-3.58-2.6l-.863-.543-4.455-.89zm2.119 5.551h2.953l2.918.584a31.188 31.188 0 0 1 3.207 2.332 31.188 31.188 0 0 1 3.537 2.953c.656 1.459 1.044 3.125 1.166 4.997a30.18 30.18 0 0 0 .584 4.375l4.703-1.75 11.703-6.454 2.37-2.625c1.58-.121 3.33-.413 5.25-.875 1.239-.534 2.807-.935 4.702-1.203 1.507.219 2.979.62 4.413 1.203l2.916 3.5.875 4.41-.291.876c-.997 1.093-2.359 1.775-4.084 2.043l-4.12 1.457-12.322 6.746c-1.167.389-2.432.983-3.793 1.785l-4.41 2.043c-.778.219-1.556.607-2.334 1.166l1.46.584c1.312.316 2.88.8 4.702 1.457 1.458.243 3.013.742 4.666 1.496l9.115 2.916c1.191.68 2.65 1.264 4.375 1.75l4.12 2.078c1.142.535 2.504 1.313 4.084 2.334l4.119 2.041 3.828 2.662 2.625 3.5c.413.997.705 2.078.875 3.244-.195.438-.486.925-.875 1.46l-1.75 1.456-2.953-.29c-1.289-.414-2.747-.997-4.375-1.75l-3.828-2.37c-1.289-.462-2.65-1.24-4.084-2.334a23.636 23.636 0 0 1-4.704-1.75l-4.119-1.787c-1.434-.389-2.989-.972-4.666-1.75l-14.074-3.5c-1.312-.51-2.88-.802-4.703-.875-1.215 0-1.992.682-2.332 2.043-.365 1.507-.56 3.268-.584 5.285-.219 1.507-.62 3.16-1.203 4.96-1.337.728-2.892 1.13-4.666 1.202l-4.121-1.494-3.791-2.625c-.924-1.142-1.617-2.517-2.078-4.121l.619-5.832c-1.143-.972-2.515-1.665-4.12-2.078-1.093-.802-2.174-1.776-3.244-2.918-.996-.948-1.871-2.125-2.625-3.535l-.875-2.918 1.457-1.457 9.99-2.662 2.042-8.787-.291-3.245.29-2.04c-.024-1.556-.217-3.319-.581-5.288a14.58 14.58 0 0 1 2.332-2.625z" style="color:#000;-inkscape-font-specification:Komix;fill:#000;fill-opacity:1;stroke:none;-inkscape-stroke:none" transform="matrix(.26458 0 0 .26458 0 148.888)"/></g><g style="fill:#000;fill-opacity:1"><path stroke="none" d="m1066.953-489.506-2.773 1.088c-1.937.76-3.813 1.963-5.19 3.764l-.555.724-.292.864c-.592 1.743-.979 3.513-1.116 5.295l-.09 1.154.246.705-3.748 29.74-.783 2.455.485 3.266v.023c.241 1.54.599 3.006 1.109 4.4l.107.296.14.28c.363.724.568 1.33.673 1.807l.168.764 2.515 4.649 3.893 3.447.734.342a24.38 24.38 0 0 0 3.965 1.459l1.68.449 1.639-.588c1.69-.608 3.28-1.443 4.685-2.566l1.28-1.024.519-1.555a29.702 29.702 0 0 0 1.037-3.988l.899-3.904.824-8.322c.466-1.624.782-3.243.9-4.862l-.02.205 1.78-16.127-.124-.547.534-1.636-1.637-7.76-4.41-7.145-.325-.363a19.295 19.295 0 0 0-3.585-3.164zm-.748 6.254 2.807 1.969c.899.607 1.75 1.362 2.552 2.262l3.647 5.906 1.129 5.36-.547 1.675.256 1.13-1.678 15.204c-.097 1.337-.376 2.746-.838 4.228l-.838 8.46-.84 3.646a24.056 24.056 0 0 1-.875 3.39c-.85.681-1.882 1.239-3.097 1.676a18.862 18.862 0 0 1-3.063-1.129l-2.552-2.261-1.678-3.098c-.219-.997-.594-2.03-1.13-3.1-.364-.996-.645-2.114-.839-3.353l-.29-1.969.546-1.715 3.975-31.535-.293-.84c.097-1.264.378-2.576.84-3.937.631-.827 1.567-1.483 2.806-1.969z" style="color:#000;-inkscape-font-specification:Komix;fill:#000;fill-opacity:1;stroke:none;-inkscape-stroke:none" transform="matrix(.26458 0 0 .26458 0 148.888)"/></g></g><g style="display:inline" transform="translate(-61.311 -124.043) scale(.45678)"><path d="M191.69 317.75c-31.741 0-57.466 24.72-57.466 55.222 0 1.897.101 3.782.296 5.63 15.56 3.618 34.269 5.737 54.403 5.737 22.644 0 43.487-2.68 60.073-7.162.108-1.385.174-2.793.174-4.205 0-30.502-25.739-55.222-57.48-55.222z" style="fill:red"/><circle cx="115.261" cy="131.841" r="24.512" style="fill:#000;fill-rule:evenodd;stroke:#000;stroke-width:3;stroke-linecap:round;stroke-linejoin:round" transform="translate(104.32 308.35) scale(.42996)"/><circle cx="115.261" cy="131.841" r="24.512" style="fill:#000;fill-rule:evenodd;stroke:#000;stroke-width:3;stroke-linecap:round;stroke-linejoin:round" transform="translate(134.2 279.12) scale(.42996)"/><circle cx="115.261" cy="131.841" r="24.512" style="fill:#000;fill-rule:evenodd;stroke:#000;stroke-width:3;stroke-linecap:round;stroke-linejoin:round" transform="translate(156.12 310.63) scale(.42996)"/><g transform="translate(-137.67 -345.03)"><circle cx="115.261" cy="131.841" r="24.512" style="fill:#000;fill-rule:evenodd;stroke:#000;stroke-width:3;stroke-linecap:round;stroke-linejoin:round" transform="translate(358.23 615.04) scale(.1498)"/><circle cx="115.261" cy="131.841" r="24.512" style="fill:#000;fill-rule:evenodd;stroke:#000;stroke-width:3;stroke-linecap:round;stroke-linejoin:round" transform="translate(379.49 618.78) scale(.1498)"/><path d="M347.36 655.23c11.246-10.044 27.363-9.92 39.891-3.284 19.164 10.34 9.41 35.779-1.532 43.48-12.3 8.88-22.863 8.26-31.228.658-8.678-7.237-19.51-27.605-7.13-40.853z" style="fill:#000;stroke:#000;stroke-width:1.3648px"/><g transform="translate(406.89 641.19) scale(1.0285)"><circle cx="120" cy="592.362" r="57.143" style="fill:#fff" transform="translate(-42.905 -80.331) scale(.17771)"/><circle cx="120" cy="592.362" r="57.143" style="fill:#000;stroke:#000;stroke-width:.1" transform="matrix(.11892 0 0 .13546 -35.976 -55.558)"/><circle cx="120" cy="592.362" r="57.143" style="fill:#fff;stroke:#000;stroke-width:.1" transform="matrix(.04453 0 0 .04453 -26.134 -5.617)"/></g><g transform="translate(382.51 641.19) scale(1.0285)"><circle cx="120" cy="592.362" r="57.143" style="fill:#fff" transform="translate(-42.905 -80.331) scale(.17771)"/><circle cx="120" cy="592.362" r="57.143" style="fill:#000;stroke:#000;stroke-width:.1" transform="matrix(.11892 0 0 .13546 -35.976 -55.558)"/><circle cx="120" cy="592.362" r="57.143" style="fill:#fff;stroke:#000;stroke-width:.1" transform="matrix(.04453 0 0 .04453 -26.134 -5.617)"/></g><path d="M362.13 688.73c7.993 5.97 14.77 4.158 21.181 0" style="fill:none;stroke:#fff;stroke-width:1.4181px;stroke-linecap:round;stroke-linejoin:round"/><path d="M361.05 649.05c2.138-11.136 2.114-27.843 13.482-15.184M378.77 647.82c5.353-9.996 10.298-25.954 17.388-10.488" style="fill:none;stroke:#000;stroke-width:4.2996;stroke-linecap:round;stroke-linejoin:round"/></g></g><g style="display:inline"><path d="M52.403 224.81c7.644 18.47 18.633 33.35 31.698 45.59 0 0 1.514 1.47 2.105 1.99l-4.531-12.03c-9.691-22.86-22.881-36.54-35.385-56.99 0 0 3.491 15.05 6.113 21.44z" style="fill:url(#e);fill-rule:evenodd" transform="matrix(.17896 0 0 .17896 296.944 .701)"/><path d="M46.219 203.12a.101.101 0 0 0-.031.04.122.122 0 0 0-.063.06.297.297 0 0 0-.031.03.15.15 0 0 0 0 .03.151.151 0 0 0 0 .06l.031.07c.027.11 3.465 15 6.094 21.4 7.654 18.5 18.667 33.41 31.75 45.66 0 0 1.491 1.47 2.093 2l.063.03.063.03c.033 0 .065-.01.093-.03a.366.366 0 0 0 .063-.06l.031-.03a.15.15 0 0 0 0-.03.27.27 0 0 0 0-.07.15.15 0 0 0 0-.03.15.15 0 0 0 0-.03l-4.531-12a.15.15 0 0 0 0-.03c-9.695-22.87-22.893-36.54-35.375-56.94-.013-.02-.019-.04-.031-.06v-.03a.469.469 0 0 0-.032-.03.303.303 0 0 0-.094-.04h-.031zm.5 1.19c12.338 19.94 25.256 33.6 34.781 56.07l4.25 11.28c-.664-.63-1.531-1.47-1.531-1.47-13.049-12.22-24.024-27.05-31.657-45.5-2.443-5.95-5.452-18.71-5.843-20.38Z" style="fill:#000;fill-rule:evenodd" transform="matrix(.17896 0 0 .17896 296.944 .701)"/><path d="M69.781 74.625a2.69 2.69 0 0 0-1.687 4.563C92.52 104.52 103.72 140.31 104.75 175.25c.63 23.5-2.07 47.43-11.875 68.69v.03c-4.149 9.38-9.273 18.33-15.063 26.84a2.7 2.7 0 0 0-.249 2.72 2.675 2.675 0 0 0 2.25 1.53c.973.07 1.906-.4 2.437-1.22 5.948-8.74 11.234-17.97 15.531-27.68 10.289-22.31 12.979-47.06 12.339-71.07-1.05-35.97-12.543-73.06-38.151-99.621a2.691 2.691 0 0 0-2.188-.844Z" style="fill:url(#f);fill-rule:evenodd" transform="matrix(.17896 0 0 .17896 296.944 .701)"/><path d="M121.04 148.89c12.45 43.93 6.7 100.84-38.895 122.68 27.555-34.53 33.915-63.86 38.075-105.06l.82-17.62" style="fill:url(#g);fill-rule:evenodd" transform="matrix(.17896 0 0 .17896 296.944 .701)"/><path d="m121.03 148.56-.03.03h-.03l-.03.03h-.03a.36.36 0 0 0-.07.1l-.03.03-.03.06a.43.43 0 0 0 0 .16l-.81 17.5v.03c-4.16 41.12-10.47 70.36-37.908 104.78-.013.02-.048.02-.062.03a.15.15 0 0 0 0 .03c-.01.02-.022.02-.031.04-.011-.01-.021-.01-.031 0a.15.15 0 0 0 0 .03.324.324 0 0 0-.032.09.321.321 0 0 0-.031.09.15.15 0 0 0 0 .03c.01.02.02.03.031.04a.3.3 0 0 0 0 .06h.032a.15.15 0 0 0 0 .03c.027.03.058.05.093.06.037.03.079.05.125.07h.156c.012-.01.022-.03.032-.04l.062-.03.032-.03c22.822-10.97 35.692-30.7 41.282-53.19 5.59-22.49 3.91-47.72-2.31-69.71v-.07a.294.294 0 0 0-.1-.12l-.03-.03a.55.55 0 0 0-.09-.07.488.488 0 0 0-.07-.03h-.03zm.28 2.47c5.75 21.43 7.21 45.72 1.81 67.41-5.45 21.95-17.93 41.16-39.839 52.15 26.809-34.07 33.199-63.31 37.309-104.06z" style="fill:#000;fill-rule:evenodd" transform="matrix(.17896 0 0 .17896 296.944 .701)"/><path d="M54.849 200.32c4.578 30.14 16.541 56.32 33.281 79.44 0 0 1.917 2.75 2.688 3.75l-2.219-19.44c-6.063-37.37-22.349-62.67-34.344-97.62 0 0-.953 23.46.594 33.87z" style="fill:url(#h);fill-rule:evenodd" transform="matrix(.17896 0 0 .17896 296.944 .701)"/><path d="M54.219 166.06a.335.335 0 0 0-.281.32s-.967 23.44.593 33.93c4.586 30.19 16.579 56.41 33.344 79.57 0 0 1.899 2.76 2.687 3.78.085.12.248.17.387.11a.314.314 0 0 0 .176-.36l-2.219-19.44c-6.067-37.4-22.366-62.71-34.344-97.56-.014-.05-.017-.09-.031-.13a.328.328 0 0 0-.312-.22zm.312 1.97c11.95 34.18 27.789 59.28 33.75 96.03l2.094 18.22c-.854-1.18-2-2.75-2-2.75-16.716-23.09-28.649-49.23-33.219-79.31-1.439-9.68-.723-29.58-.625-32.19Z" style="fill:#000;fill-rule:evenodd" transform="matrix(.17896 0 0 .17896 296.944 .701)"/><path d="M267.5 455.97a103.125 16.875 0 0 1 103.125-16.876A103.125 16.875 0 0 1 473.75 455.97H370.625Z" style="fill:#81390b;fill-rule:evenodd" transform="matrix(.13476 0 0 .17896 262.307 -30.15)"/><path d="M110.18 51.411C97.936 63.553 84.529 69.948 80.256 65.687c-4.274-4.262 2.195-17.574 14.44-29.716 12.244-12.142 25.654-18.538 29.924-14.276 4.28 4.261-2.19 17.574-14.44 29.716z" style="fill:#cb0000;fill-rule:evenodd" transform="matrix(.17896 0 0 .17896 296.944 .701)"/><path d="M124.9 21.299c-1.21-1.207-3.05-1.619-5.19-1.42-2.14.198-4.64.993-7.39 2.302-5.49 2.62-11.93 7.288-18.087 13.393-6.158 6.106-10.87 12.499-13.52 17.952-1.325 2.726-2.13 5.209-2.336 7.339-.206 2.129.203 3.952 1.414 5.16 1.211 1.207 3.043 1.619 5.186 1.42 2.142-.198 4.641-.993 7.387-2.302 5.491-2.62 11.936-7.288 18.086-13.393 6.16-6.106 10.87-12.499 13.52-17.952 1.33-2.726 2.13-5.209 2.34-7.339.21-2.129-.2-3.952-1.41-5.16zm-.74.734c.92.923 1.31 2.37 1.12 4.315-.19 1.944-.96 4.338-2.25 6.99-2.57 5.305-7.22 11.64-13.31 17.677-6.09 6.036-12.475 10.643-17.816 13.191-2.671 1.274-5.081 2.03-7.037 2.211-1.956.182-3.41-.202-4.336-1.125-.926-.924-1.308-2.371-1.12-4.316.188-1.944.954-4.338 2.243-6.99 2.578-5.305 7.229-11.64 13.316-17.676 6.09-6.037 12.47-10.644 17.81-13.192 2.68-1.274 5.08-2.03 7.04-2.211 1.96-.182 3.41.202 4.34 1.126z" style="fill:#000;fill-rule:evenodd" transform="matrix(.17896 0 0 .17896 296.944 .701)"/><path d="M84.582 33.519c-.026 18.167-5.337 32.904-11.854 32.895-6.517-.008-11.786-14.76-11.76-32.927C60.994 15.32 66.305.583 72.822.592c6.517.009 11.786 14.76 11.76 32.927z" style="fill:#cb0000;fill-rule:evenodd" transform="matrix(.17896 0 0 .17896 296.944 .701)"/><path d="M72.756.117c-1.846-.003-3.557 1.05-5.036 2.79-1.479 1.74-2.774 4.19-3.861 7.208-2.175 6.036-3.507 14.309-3.52 23.445-.013 9.135 1.295 17.412 3.453 23.454 1.079 3.021 2.367 5.474 3.841 7.218 1.474 1.744 3.181 2.802 5.028 2.804 1.846.003 3.556-1.05 5.035-2.79s2.774-4.19 3.862-7.208c2.175-6.036 3.506-14.309 3.519-23.445.013-9.135-1.294-17.412-3.452-23.454-1.079-3.02-2.367-5.474-3.841-7.218C76.31 1.177 74.603.119 72.756.117zm-.001 1.097c1.412.002 2.811.799 4.157 2.391 1.346 1.593 2.595 3.95 3.644 6.889 2.1 5.878 3.41 14.066 3.397 23.098-.013 9.03-1.347 17.216-3.463 23.088-1.058 2.936-2.313 5.29-3.664 6.879-1.351 1.589-2.752 2.382-4.164 2.38-1.412-.002-2.811-.8-4.157-2.391-1.346-1.593-2.595-3.951-3.645-6.89-2.099-5.877-3.409-14.065-3.396-23.097.013-9.031 1.346-17.216 3.462-23.088 1.058-2.936 2.314-5.29 3.665-6.879 1.35-1.589 2.752-2.382 4.164-2.38z" style="fill:#000;fill-rule:evenodd" transform="matrix(.17896 0 0 .17896 296.944 .701)"/><path d="M51.08 36.011c11.942 12.175 18.232 25.506 14.041 29.756-4.192 4.249-17.285-2.184-29.226-14.359-11.942-12.176-18.232-25.506-14.041-29.756 4.192-4.249 17.285 2.183 29.226 14.359Z" style="fill:#cb0000;fill-rule:evenodd" transform="matrix(.17896 0 0 .17896 296.944 .701)"/><path d="M21.599 21.288c-1.187 1.204-1.592 3.026-1.397 5.156.196 2.13.977 4.615 2.265 7.345 2.576 5.46 7.167 11.866 13.172 17.989 6.005 6.122 12.292 10.808 17.655 13.443 2.681 1.317 5.123 2.118 7.218 2.323 2.094.204 3.887-.202 5.075-1.407 1.187-1.204 1.592-3.025 1.397-5.155-.196-2.13-.977-4.616-2.265-7.346-2.576-5.46-7.167-11.866-13.172-17.988-6.005-6.123-12.292-10.809-17.655-13.443-2.681-1.318-5.124-2.119-7.218-2.323-2.094-.205-3.887.202-5.075 1.406Zm.721.735c.909-.921 2.332-1.3 4.244-1.114 1.913.187 4.267.95 6.875 2.231 5.217 2.563 11.449 7.188 17.385 13.241 5.937 6.053 10.468 12.401 12.974 17.713 1.253 2.656 1.996 5.051 2.175 6.996.178 1.945-.199 3.392-1.108 4.312-.908.921-2.331 1.301-4.243 1.114-1.913-.187-4.267-.949-6.876-2.231-5.217-2.563-11.448-7.187-17.384-13.24-5.937-6.053-10.468-12.402-12.974-17.713-1.253-2.656-1.996-5.052-2.175-6.997-.178-1.945.199-3.391 1.107-4.312Z" style="fill:#000;fill-rule:evenodd" transform="matrix(.17896 0 0 .17896 296.944 .701)"/><path d="M33.704 61.443c18.185.026 32.937 5.336 32.928 11.854-.009 6.517-14.775 11.785-32.96 11.759C15.487 85.03.736 79.72.745 73.202c.009-6.517 14.775-11.785 32.959-11.759Z" style="fill:#cb0000;fill-rule:evenodd" transform="matrix(.17896 0 0 .17896 296.944 .701)"/><path d="M.1 73.173c-.002 1.847 1.052 3.557 2.793 5.036 1.742 1.479 4.194 2.774 7.215 3.862 6.042 2.175 14.323 3.506 23.468 3.519 9.144.013 17.429-1.294 23.477-3.452 3.024-1.079 5.48-2.367 7.225-3.841 1.746-1.474 2.805-3.181 2.807-5.028.003-1.847-1.052-3.557-2.793-5.036-1.741-1.479-4.194-2.774-7.215-3.861-6.042-2.176-14.323-3.507-23.467-3.52-9.145-.013-17.43 1.295-23.478 3.452-3.023 1.079-5.48 2.367-7.225 3.841C1.162 69.619.103 71.327.1 73.173zm1.098.002c.002-1.412.8-2.811 2.394-4.157s3.954-2.595 6.896-3.645c5.883-2.099 14.08-3.409 23.12-3.396 9.04.013 17.233 1.346 23.111 3.462 2.939 1.058 5.295 2.314 6.885 3.665 1.591 1.35 2.385 2.751 2.383 4.163-.002 1.413-.8 2.812-2.394 4.158-1.594 1.346-3.954 2.595-6.896 3.644-5.883 2.099-14.079 3.41-23.12 3.397-9.04-.013-17.233-1.347-23.11-3.463-2.94-1.058-5.296-2.314-6.886-3.664-1.59-1.351-2.385-2.752-2.383-4.164z" style="fill:#000;fill-rule:evenodd" transform="matrix(.17896 0 0 .17896 296.944 .701)"/><path d="M37.154 94.584c12.009-12.609 25.157-19.251 29.348-14.825 4.191 4.425-2.153 18.251-14.162 30.861s-25.156 19.25-29.348 14.83c-4.191-4.43 2.154-18.26 14.162-30.866Z" style="fill:#cb0000;fill-rule:evenodd" transform="matrix(.17896 0 0 .17896 296.944 .701)"/><path d="M22.534 125.8c1.188 1.25 2.985 1.68 5.085 1.47 2.101-.2 4.553-1.03 7.245-2.39 5.385-2.72 11.703-7.57 17.742-13.91 6.039-6.34 10.66-12.977 13.259-18.64 1.299-2.831 2.089-5.41 2.291-7.621.202-2.212-.199-4.105-1.387-5.359-1.188-1.254-2.984-1.681-5.085-1.475-2.101.206-4.552 1.031-7.245 2.391-5.385 2.72-11.703 7.568-17.742 13.909-6.039 6.345-10.66 12.975-13.258 18.645-1.3 2.83-2.09 5.41-2.292 7.62-.201 2.21.2 4.1 1.387 5.36zm.725-.76c-.908-.96-1.282-2.47-1.098-4.48.184-2.02.936-4.51 2.2-7.26 2.528-5.51 7.089-12.09 13.059-18.362 5.97-6.268 12.232-11.053 17.47-13.699 2.62-1.323 4.983-2.108 6.901-2.297 1.918-.188 3.345.211 4.253 1.17.908.958 1.282 2.461 1.098 4.481-.184 2.019-.936 4.505-2.2 7.26-2.528 5.508-7.089 12.087-13.059 18.357-5.97 6.27-12.231 11.05-17.47 13.7-2.62 1.32-4.982 2.11-6.901 2.3-1.918.18-3.344-.21-4.253-1.17z" style="fill:#000;fill-rule:evenodd" transform="matrix(.17896 0 0 .17896 296.944 .701)"/><path d="M113.3 61.443c18.62.026 33.73 5.336 33.72 11.854-.01 6.517-15.13 11.785-33.75 11.759-18.624-.026-33.729-5.336-33.72-11.854.009-6.517 15.129-11.785 33.75-11.759Z" style="fill:#cb0000;fill-rule:evenodd" transform="matrix(.17896 0 0 .17896 296.944 .701)"/><path d="M78.892 73.173c-.002 1.847 1.077 3.557 2.86 5.036 1.784 1.479 4.295 2.774 7.388 3.862 6.187 2.175 14.67 3.506 24.03 3.519 9.36.013 17.85-1.294 24.04-3.452 3.1-1.079 5.61-2.367 7.4-3.841 1.79-1.474 2.87-3.181 2.87-5.028.01-1.847-1.07-3.557-2.86-5.036-1.78-1.479-4.29-2.774-7.38-3.861-6.19-2.176-14.67-3.507-24.03-3.52-9.37-.013-17.852 1.295-24.045 3.452-3.096 1.079-5.611 2.367-7.398 3.841-1.788 1.474-2.872 3.182-2.875 5.028zm1.125.002c.002-1.412.819-2.811 2.451-4.157 1.632-1.346 4.049-2.595 7.061-3.645 6.025-2.099 14.421-3.409 23.671-3.396 9.26.013 17.65 1.346 23.67 3.462 3.01 1.058 5.42 2.314 7.05 3.665 1.63 1.35 2.44 2.751 2.44 4.163 0 1.413-.82 2.812-2.45 4.158-1.63 1.346-4.05 2.595-7.06 3.644-6.03 2.099-14.42 3.41-23.68 3.397-9.25-.013-17.644-1.347-23.663-3.463-3.009-1.058-5.422-2.314-7.051-3.664-1.628-1.351-2.441-2.752-2.439-4.164z" style="fill:#000;fill-rule:evenodd" transform="matrix(.17896 0 0 .17896 296.944 .701)"/><path d="M110.87 94.421c12.48 12.549 19.06 26.289 14.68 30.669-4.38 4.38-18.07-2.25-30.556-14.8-12.483-12.549-19.059-26.287-14.677-30.667 4.381-4.38 18.069 2.25 30.553 14.798z" style="fill:#cb0000;fill-rule:evenodd" transform="matrix(.17896 0 0 .17896 296.944 .701)"/><path d="M79.844 79.215c-1.241 1.241-1.665 3.119-1.46 5.314.204 2.195 1.02 4.757 2.367 7.57 2.693 5.627 7.492 12.231 13.77 18.541 6.279 6.31 12.849 11.14 18.459 13.85 2.8 1.36 5.35 2.19 7.54 2.4 2.19.21 4.07-.21 5.31-1.45 1.24-1.24 1.66-3.12 1.46-5.32-.21-2.19-1.02-4.75-2.37-7.57-2.69-5.62-7.49-12.23-13.77-18.535-6.28-6.31-12.849-11.139-18.455-13.855-2.803-1.357-5.356-2.183-7.546-2.394-2.189-.211-4.063.209-5.305 1.449zm.754.758c.949-.949 2.437-1.34 4.437-1.148 1.999.193 4.46.979 7.187 2.299 5.454 2.642 11.968 7.408 18.178 13.646 6.2 6.24 10.94 12.78 13.56 18.26 1.31 2.73 2.09 5.2 2.27 7.21.19 2-.21 3.49-1.16 4.44-.94.95-2.43 1.34-4.43 1.15-2-.19-4.46-.98-7.19-2.3-5.45-2.64-11.97-7.41-18.173-13.65-6.206-6.24-10.943-12.778-13.563-18.252-1.31-2.737-2.087-5.206-2.273-7.211-.187-2.005.208-3.495 1.157-4.444z" style="fill:#000;fill-rule:evenodd" transform="matrix(.17896 0 0 .17896 296.944 .701)"/><path d="M85.735 112.22c-.026 18.41-5.337 33.34-11.854 33.33-6.518-.01-11.786-14.95-11.76-33.36.026-18.403 5.337-33.333 11.854-33.324 6.517.009 11.786 14.953 11.76 33.354z" style="fill:#cb0000;fill-rule:evenodd" transform="matrix(.17896 0 0 .17896 296.944 .701)"/><path d="M73.881 78.281c-1.847-.003-3.557 1.065-5.036 2.827-1.479 1.762-2.774 4.245-3.862 7.302-2.175 6.115-3.506 14.5-3.519 23.75-.013 9.26 1.294 17.64 3.452 23.76 1.079 3.06 2.367 5.55 3.841 7.32 1.474 1.76 3.181 2.83 5.028 2.84 1.846 0 3.557-1.07 5.036-2.83 1.479-1.76 2.774-4.25 3.861-7.3 2.175-6.12 3.507-14.5 3.52-23.75.013-9.26-1.295-17.644-3.453-23.765-1.078-3.061-2.367-5.547-3.841-7.313-1.473-1.767-3.181-2.839-5.027-2.841zm-.002 1.111c1.412.002 2.811.81 4.157 2.423 1.346 1.614 2.595 4.002 3.645 6.979 2.099 5.955 3.409 14.246 3.396 23.396-.013 9.15-1.346 17.45-3.462 23.39-1.058 2.98-2.314 5.36-3.665 6.97-1.35 1.61-2.752 2.42-4.164 2.42-1.412-.01-2.811-.81-4.157-2.43-1.346-1.61-2.595-4-3.644-6.98-2.099-5.95-3.41-14.25-3.397-23.4.013-9.15 1.347-17.438 3.463-23.387 1.058-2.975 2.314-5.36 3.664-6.969 1.351-1.61 2.752-2.414 4.164-2.412z" style="fill:#000;fill-rule:evenodd" transform="matrix(.17896 0 0 .17896 296.944 .701)"/><path d="M97.231 71.666c0 11.385-10.36 20.625-23.125 20.625s-23.125-9.24-23.125-20.625 10.36-20.625 23.125-20.625 23.125 9.24 23.125 20.625z" style="fill:#fc0;fill-rule:evenodd" transform="matrix(.17896 0 0 .17896 296.944 .701)"/><path d="M74.218 50.451c-13.066 0-23.75 9.486-23.75 21.25s10.684 21.25 23.75 21.25c13.067 0 23.75-9.486 23.75-21.25s-10.683-21.25-23.75-21.25zm0 1.25c12.464 0 22.5 8.994 22.5 20s-10.036 20-22.5 20c-12.463 0-22.5-8.994-22.5-20s10.037-20 22.5-20z" style="fill:#000;fill-rule:evenodd" transform="matrix(.17896 0 0 .17896 296.944 .701)"/><path d="M61.906 58.577c-3.9 3.211-6.438 7.918-6.438 13.25 0 9.66 8.12 17.5 18.125 17.5 5.783 0 10.868-2.675 14.188-6.75-3.165 2.606-7.205 4.25-11.688 4.25-10.005 0-18.125-7.84-18.125-17.5 0-4.077 1.514-7.774 3.938-10.75zM77.031 54.515c-2.476 0-4.784.593-6.875 1.562a18.778 18.778 0 0 1 3.437-.312c9.92 0 17.969 7.75 17.969 17.281 0 1.374-.215 2.687-.531 3.969 1.199-2.151 1.937-4.579 1.937-7.188 0-8.452-7.14-15.312-15.937-15.312z" style="fill:#ffa700;fill-rule:evenodd" transform="matrix(.17896 0 0 .17896 296.944 .701)"/><path d="M85.939 266.33c-21.445 0-40.869 1.91-54.946 4.97-7.039 1.52-12.746 3.34-16.708 5.37-1.981 1.02-3.518 2.08-4.589 3.22-1.07 1.13-1.694 2.37-1.694 3.69a.45.45 0 0 0 .08.27c.053.07.127.11.203.1h155.304c.08.01.15-.03.21-.1.05-.08.08-.17.08-.27 0-1.32-.63-2.56-1.7-3.69-1.07-1.14-2.61-2.2-4.59-3.22-3.96-2.03-9.67-3.85-16.7-5.37-14.08-3.06-33.51-4.97-54.95-4.97zm0 .75c21.421 0 40.821 1.88 54.851 4.93 7.02 1.53 12.69 3.34 16.59 5.35 1.95 1 3.47 2.03 4.47 3.09.88.93 1.26 1.86 1.37 2.75H8.661c.104-.89.489-1.82 1.365-2.75 1-1.06 2.521-2.09 4.471-3.09 3.9-2.01 9.573-3.82 16.59-5.35 14.034-3.05 33.431-4.93 54.852-4.93z" style="fill:#000;fill-rule:evenodd" transform="matrix(.17896 0 0 .17896 296.944 .701)"/><path d="M102.34 88.108c2.4 2.168 4.86 4.623 7.25 7.469 10.16 12.063 15.56 25.153 12.44 29.813.71-.2 1.31-.53 1.78-1.03 3.79-4.04-1.88-16.72-12.69-28.283a71.943 71.943 0 0 0-8.78-7.969zM103.59 63.8c3.22-.273 6.7-.398 10.41-.209 15.75.802 29.01 5.779 30.29 11.236.33-.652.5-1.315.46-2.006-.37-5.526-13.51-10.022-29.34-10.009a73.31 73.31 0 0 0-11.82.988zM62.403 43.142c-.161-3.226-.164-6.702.154-10.408 1.352-15.712 6.788-28.79 12.286-29.875-.639-.361-1.296-.552-1.988-.53-5.536.173-10.487 13.152-11.027 28.969a73.163 73.163 0 0 0 .575 11.844zM43.593 82.598c-3.218.273-6.691.398-10.406.209-15.75-.802-29.01-5.779-30.286-11.236-.34.652-.507 1.315-.46 2.006.366 5.526 13.51 10.022 29.336 10.009a73.268 73.268 0 0 0 11.816-.988zM83.748 103.29c.161 3.23.164 6.71-.155 10.41-1.351 15.71-6.787 28.79-12.286 29.88.64.36 1.297.55 1.989.53 5.536-.18 10.487-13.15 11.027-28.97.145-4.28-.111-8.22-.575-11.85zM58.67 100.72c-2.039 2.5-4.362 5.09-7.079 7.63-11.518 10.77-24.309 16.85-29.121 13.98.234.69.595 1.27 1.123 1.72 4.23 3.58 16.594-2.75 27.579-14.15a73.686 73.686 0 0 0 7.498-9.18zM87.911 44.996c2.126-2.432 4.538-4.935 7.341-7.379 11.888-10.364 24.878-15.995 29.588-12.956-.21-.705-.55-1.298-1.06-1.763-4.1-3.721-16.68 2.176-28.054 13.179a73.301 73.301 0 0 0-7.815 8.919zM46.093 58.156c-2.505-2.039-5.09-4.362-7.631-7.079-10.772-11.518-16.853-24.309-13.98-29.121-.697.234-1.278.595-1.725 1.123-3.575 4.23 2.757 16.594 14.15 27.579a73.27 73.27 0 0 0 9.186 7.498z" style="fill:#cb6100;fill-rule:evenodd" transform="matrix(.17896 0 0 .17896 296.944 .701)"/><path d="M8.378 283.56c0-9.31 34.789-16.87 77.654-16.87 42.868 0 77.658 7.56 77.658 16.87H86.032z" style="fill:url(#i);fill-opacity:.36818;fill-rule:evenodd" transform="matrix(.17896 0 0 .17896 296.944 .701)"/></g><g style="display:inline" transform="translate(181.4 -31.978) scale(.07574)"><path d="M254.82 509.93c20.689 8.949 21.382 25.076 38.678 18.753 13.793-5.042 4.606-21.087 1.582-43.424-1.993-14.723-8.67-26.603-21.509-37.196-11.882-9.805-25.31-7.488-35.415-1.601-12.689 7.392-12.96 22.702-11.59 30.678 3.511 20.439 11.884 25.71 28.254 32.79z" style="fill:#a9fafa;stroke:#000;stroke-width:4;stroke-linecap:round"/><path d="M345.76 532.38c7.394-13.648 16.982-23.188 27.669-25.897 7.711-1.954 14.627 2.997 17.315 7.485 9.836 18.233-16.225 16.832-15.923 4.115.73-7.614 5.568-5.264 8.13-3.476 4.538 3.994 3.898 8.993-3.125 5.532" style="fill:none;stroke:#000;stroke-width:3"/><path d="M368.96 564.52c0 28.566-32.166 49.355-71.685 51.723-23.251 1.393-44.693-7.797-54.58-22.189-3.602-3.995-10.366-17.481-15.283-20.544-9.26-5.768-2.117-3.07-16.286-10.222 11.668-5.574 5.9-.668 15.244-6.87 7.504-4.497 15.149-12.54 20.145-18.915 8.879-11.326 27.851-25.216 50.76-24.706 39.581.88 71.685 23.157 71.685 51.723z" style="fill:#ff0;stroke:#000;stroke-width:4;stroke-linecap:round"/><path d="M231.94 578.2s-3.13-3.813-4.529-4.685c-9.26-5.767-4.535-3.07-18.704-10.222 7.177-2.81 8.32-2.74 17.662-6.87 1.61-.965 4.82-3.331 4.82-3.331-5.729 5.965-8.484 12.317.75 25.108zM277.81 612.73l-17.49-3.806c-12.837-28.65-16.933-52.9 1.937-85.566l18.198-7.014c-15.019 26.258-20.226 51.254-2.644 96.386zM325.65 609.58l-17.547 5.536c-12.3-27.47-22.83-70.29 1.05-101.4l18.376 4.828c-9.68 10.117-26.327 37.363-1.87 91.026z" style="fill:#000;stroke:#000;stroke-width:4;stroke-linecap:round"/><path d="M358.92 589.24c-10.285 3.05-18.492-1.602-20.399-11.027" style="fill:none;stroke:#000;stroke-width:3"/><path d="M330.95 578.84c3.372 1.865 11.148-.35 11.039-6.663" style="fill:none;stroke:#000;stroke-width:3"/><circle cx="464.221" cy="567.17" r="48.615" style="fill:#000;stroke:#000;stroke-width:2;stroke-linecap:round" transform="matrix(.09418 0 0 .09418 304.21 496.6)"/><path d="M338.25 532.91c-6.898-13.905-9.174-27.238-5.232-37.535 2.845-7.43 10.875-10.231 16.092-9.842 20.57 2.462 4.414 22.958-5.808 15.387-5.803-4.983-1.096-7.585 1.842-8.649 5.878-1.408 9.597 1.994 2.722 5.742" style="fill:none;stroke:#000;stroke-width:3"/><path d="M278.4 488.98c12.944 19.19 7.893 30.139 7.893 30.139s14.074-2.55 23.967 3.19c0 0 8.37-15.763 14.762-25.475 8.179-12.427 10.951-25.788 8.226-42.23-2.522-15.217-14.184-22.3-25.684-24.502-14.442-2.765-24.565 8.71-28.928 15.538-8.051 12.6-10.222 28.534-.236 43.34z" style="fill:#a9fafa;stroke:#000;stroke-width:4;stroke-linecap:round"/><path d="M282.19 520.34c3.09-.675 4.43-.713 5.523-3.243" style="fill:none;stroke:#000;stroke-width:3"/></g></svg>