<svg xmlns="http://www.w3.org/2000/svg" width="1233.153" height="194.706" viewBox="0 0 326.271 51.516"><defs><linearGradient id="a" x1="191.17" x2="285.83" y1="408.39" y2="539.55" gradientTransform="translate(-161.62 -367.7)" gradientUnits="userSpaceOnUse"><stop offset="0" style="stop-color:#ff1010"/><stop offset="1" style="stop-color:#000"/></linearGradient><linearGradient id="b"><stop offset="0" style="stop-color:#ff1010"/><stop offset="1" style="stop-color:#000"/></linearGradient><linearGradient id="c"><stop offset="0" style="stop-color:red;stop-opacity:.60000002"/><stop offset="1" style="stop-color:#fff;stop-opacity:.59607846"/></linearGradient><linearGradient id="d" x1="480" x2="484.18" y1="222.09" y2="440.09" gradientTransform="matrix(.31004 0 0 .13091 0 -25.354)" gradientUnits="userSpaceOnUse"><stop offset="0" stop-color="#a8dde0"/><stop offset="1" stop-color="#a8dde0" stop-opacity="0"/></linearGradient><linearGradient id="e" x1="480" x2="484.18" y1="222.09" y2="440.09" gradientTransform="matrix(1.17181 0 0 .49478 1665.284 -574.72)" gradientUnits="userSpaceOnUse"><stop offset="0" stop-color="#a8dde0"/><stop offset="1" stop-color="#a8dde0" stop-opacity="0"/></linearGradient><radialGradient id="f" cx="201.63" cy="257.26" r="122.52" gradientTransform="matrix(-.00775 .22259 -.2754 -.0096 500.19 433.01)" gradientUnits="userSpaceOnUse"><stop offset="0" style="stop-color:#bcd35f"/><stop offset="1" style="stop-color:#bcd35f"/></radialGradient></defs><g style="display:inline"><path fill="url(#d)" d="M1665.284-477.701h1233.153v191.978H1665.284z" style="display:inline;fill:url(#e);stroke-width:.283372" transform="matrix(.26458 0 0 .26458 -440.607 126.392)"/><path d="M1951.951-424.295c-.584 2.872-5.991 2.566-8.392 4.481-7.116 3.65-13.315 9.017-19.882 13.494-8.118 7.74-14.103 18.134-14.229 29.604.606 8.117 2.94 16.559 8.641 22.607 4.379 3.098 5.334 4.118 9.168 6.675 3.886 1.693 6.22 3.13 10.849 4.099 4.268.58 8.571 3.253 12.792 2.04 6.055.652 12.247-.085 17.919-2.261 4.231-1.255 7.653-2.217 12.572-3.427 3.18-2.8 7.06-2.905 11.239-5.123 5.463-4.466 11.553-8.218 16.494-13.28.45.552 9.402-11.343 3.814-16.795-2.288-4.372-6.637-7.11-11.144-8.84 2.227-3.316 2.115-7.008 1.44-10.791-.147-3.731-4.751-5.23-6.856-7.982-9.702-8.984-22.773-14.569-36.109-14.137l-8.316-.364zm17.492 27.16c3.656.213 6.77 1.623 9.94 3.256 3.82 2.139-4.567.208-6.348.915l-15.838.483c3.81-2.214 7.708-4.552 12.246-4.654zm32.338 6.145c.816.489 1.954 1.127 0 0zm-62.833 12.552c.568 4.522 8.764 8.522 8.091 10.306-2.603-.409-8.051-.458-7.749-4.04-.015-2.04-1.33-4.366-.343-6.266z" style="color:#000;font-size:40px;line-height:1.25;font-family:OCR-A;-inkscape-font-specification:OCR-A;letter-spacing:0;word-spacing:0;display:inline;fill:#fff;stroke:#000;stroke-width:4.08308;stroke-linejoin:miter;stroke-miterlimit:4;stroke-dasharray:none;stroke-opacity:1;paint-order:markers fill stroke" transform="matrix(.26458 0 0 .26458 -440.607 126.392)"/><path d="M1958.5-417.453c8.557-.205 17.117 1.518 24.525 5.937 5.116 3.037 10.19 6.992 13.805 11.507.883 3.201-.29 7.797-4.45 6.745-5.033-.574-7.1-6.485-12.115-7.307-4.077-2.843-9.52-3.295-14.371-2.837-7.845 2.164-14.92 6.661-21.538 11.257-5.075 4.24-12.915 7.7-12.382 15.484.858 3.318.518 7.121 1.572 10.218 3.093 3.38 8.288 4.006 12.488 5.093 4.861-.861 9.843-1.161 14.558-2.706 1.139-2.576 6.748-1.83 10.525-2.812 3.898-.076 6.884-2.962 10.31-4.49-7.92 1.03-15.85 1.68-23.816.742-4.592-.782-8.204-4.965-11.39-8.182-4.97-5.412 3.964-8.287 8.284-7.04 9.523-.343 19.084-.6 28.568-.62 6.09-.828 12.53-1.268 17.907 2.245 5.247 1.732 9.571 8.345 4.819 13.1-5.397 5.162-11.534 9.666-17.611 13.912-6.814 2.128-13.001 5.913-20.201 6.866-5.75 2.815-12.323 2.954-18.604 2.418-3.764.568-7.659-1.695-11.473-2.207-6.346-1.811-12.095-5.668-16.6-10.363-4.938-7.36-6.847-17.196-3.495-25.613 2.86-8.926 9.958-15.721 17.614-20.675 6.125-4.34 12.52-9.13 20.09-10.198.77.24 2.884.296 2.98-.474z" style="color:#000;font-size:40px;line-height:1.25;font-family:OCR-A;-inkscape-font-specification:OCR-A;letter-spacing:0;word-spacing:0;display:inline;fill:#000;fill-opacity:1;stroke-width:13.0969;-inkscape-stroke:none;paint-order:stroke markers fill" transform="matrix(.26458 0 0 .26458 -440.607 126.392)"/><path d="M2074.265-409.924c-7.2.534-14.59 1.499-21.62 1.512l-23.243 3.637c-1.09-.6-5.968 1.32-8.457 1.18-3.333 1.415-6.516 2.978-7.419 6.797-2.898 3.013-.112 6.137.7 9.378 1.389 3.887-.366 5.031-.945 8.74.964 1.574.45 5.128.246 8.235-1.083 6.544-1.991 13.23-1.021 19.852 3.739 1.526 4.42 6.408 8.429 7.229 3.348.705 6.882 4.583 10.02 1.695 4.184-1.144 8.498-1.613 12.63-3.133 10.628-3.19 21.439-5.466 32.278-7.976 5.187-.203 10.111-2.435 14.874-4.256 5.047-2.87 8.016-10.41 4.347-15.36-1.931-2.83-3.482-7.288-7.622-6.476-2.836.94-4.849-7.006-2.194-6.218 3.782-2.514 8.168-6.213 8.236-10.89-2.608-7.526-9.378-13.44-17.556-13.814l-1.204-.1z" style="color:#000;font-size:40px;line-height:1.25;font-family:OCR-A;-inkscape-font-specification:OCR-A;letter-spacing:0;word-spacing:0;display:inline;fill:#fff;stroke:#010101;stroke-width:4.08308;stroke-linejoin:round;stroke-miterlimit:4;stroke-dasharray:none;stroke-opacity:1;paint-order:markers fill stroke" transform="matrix(.26458 0 0 .26458 -440.607 126.392)"/><path d="M2074.343-403.36c5.248.005 10.466 3.154 12.241 8.185-3.097 5.93-10.62 4.031-16.12 4.788-6.444.787-12.872 1.291-19.257 1.584-5.06 1.352-10.385 1.79-15.261 3.674-3.23 5.455 5.463 3.554 8.374 2.37 4.564-1.794 9.525-1.672 13.95-3.273 3.789-.708 7.378-.534 11.207-.905 3.954-.195 11.813 5.826 7.956 9.46-4.36 2.6-10 1.468-14.55 3.807-6.235 1.642-12.583 3.02-18.793 4.747-3.352.288-8.504-.34-10.22 3.118-3.016 5.99 5.089 1.01 7.806 1.102 10.656-3.63 22.02-4.228 32.977-6.688 4.103-.869 8.296-1.522 12.49-.94 5.189 3.699 2.117 10.715-3.75 11.063-6.116 2.294-12.706 2.514-18.973 4.407-7.287 1.63-14.539 3.297-21.675 5.518-5.025 1.514-10.266 2.662-15.21 3.58-4.098-.789-6.59-3.858-8.787-6.899-.624-6.783 1.612-13.49 1.644-20.165.646-5.359 1.952-9.947-.01-14.916-1.947-2.854-1.053-6.682 2.56-7.527 3.08.51 5.903-1.503 8.943-1.267 9.137-1.263 18.202-3.368 27.339-3.526l15.116-1.298z" style="color:#000;font-size:40px;line-height:1.25;font-family:OCR-A;-inkscape-font-specification:OCR-A;letter-spacing:0;word-spacing:0;display:inline;fill:#000;fill-opacity:1;stroke-width:13.0969;-inkscape-stroke:none;paint-order:stroke markers fill" transform="matrix(.26458 0 0 .26458 -440.607 126.392)"/><path d="M2122.766-406.026c-3.855 1.644-8.151 3.698-11.732 6.873-7.313 4.295-13.984 9.799-18.495 17.082-3.02 6.676-2.852 14.579.6 21.172 1.841 4.881 5.756 8.741 9.411 12.327 4.592 3.514 10.489 5.022 15.754 7.236 8.644 1.487 16.966-2.451 25.372-3.892 8.72-3.227 17.152-7.98 23.038-15.3 3.29-2.17 3.134-6.66 5.854-9.434 2.64-3.925 1.478-9.2.85-13.635-3.782-6.873-7.921-14.137-15.307-17.644-5.571-3.673-11.301-7.383-18.157-7.888-3.353-.64-9.807-1.92-9.807-1.92zm19.899 23.807c5.047.409-1.135 4.378-2.558 6.074-6.397 3.92-12.884 8.169-20.575 8.74-4.479.767 2.98-4.938 4.044-6.713 3.6-3.201 8.424-1.79 12.718-1.634 2.593-1.79 3.246-5.793 6.37-6.467z" style="color:#000;font-size:40px;line-height:1.25;font-family:OCR-A;-inkscape-font-specification:OCR-A;letter-spacing:0;word-spacing:0;display:inline;fill:#fff;stroke:#030303;stroke-width:4.08308;stroke-miterlimit:4;stroke-dasharray:none;stroke-opacity:1;paint-order:markers fill stroke" transform="matrix(.26458 0 0 .26458 -440.607 126.392)"/><path d="M2136.441-403.138c5.689.681 11.16 2.34 15.727 5.909 5.702 2.923 10.674 7.203 13.364 13.13 3.185 4.265 2.701 10.455-.854 14.345-.81 3.311-3.414 5.179-5.429 7.767-7.28 7.073-17.002 10.979-26.9 12.678-5.86 1.645-12.14 2.942-17.63-.464-4.836-1.63-9.434-3.99-12.204-8.472-5.613-6.214-7.953-16.72-2.113-23.523 3.983-5.52 9.883-9.12 15.48-12.812 5.031-4.077 11.288-6.527 17.434-8.297.809.233 2.717.207 3.125-.26zm3.684 14.176c-6.194.36-5.159 9.042-12.727 6.344-6.658.559-10.772 6.072-14.625 10.834-1.881 2.701-2.941 7.455-1.467 9.969 6.99 2.968 14.445-.117 21.229-2.255 7.252-4.263 15.41-8.08 19.374-15.978 3.961-5.444-3.179-7.781-7.709-8.541-1.322-.29-2.727-.222-4.075-.373z" style="color:#000;font-size:40px;line-height:1.25;font-family:OCR-A;-inkscape-font-specification:OCR-A;letter-spacing:0;word-spacing:0;display:inline;fill:#000;fill-opacity:1;stroke-width:13.0969;-inkscape-stroke:none;paint-order:stroke markers fill" transform="matrix(.26458 0 0 .26458 -440.607 126.392)"/><path d="M2560.006-367.336c-2.693 2.008-6.097 3.423-6.85 7.044-2.297 3.763.45 8.32 1.483 12.103 2.874 3.772 7.032 6.932 11.848 7.209 5.126.146 10.457-3.031 11.403-8.383 1.122-5.678-1.863-11.433-6.702-14.812-1.712-1.195-1.5-.368-3.74-1.56-2.304-1.229-4.889-1.458-7.442-1.601z" style="color:#000;font-size:40px;line-height:1.25;font-family:OCR-A;-inkscape-font-specification:OCR-A;letter-spacing:0;word-spacing:0;display:inline;fill:#fff;stroke:#030303;stroke-width:4.08308;stroke-miterlimit:4;stroke-dasharray:none;stroke-opacity:1;paint-order:markers fill stroke" transform="matrix(.26458 0 0 .26458 -440.607 126.392)"/><path d="M2561.86-360.635c4.922.408 10.336 3.981 9.705 9.52-1.369 5.367-8.238 3.762-10.608.168-2.219-2.838-3.206-8.021.903-9.688z" style="color:#000;font-size:40px;line-height:1.25;font-family:OCR-A;-inkscape-font-specification:OCR-A;letter-spacing:0;word-spacing:0;display:inline;fill:#000;fill-opacity:1;stroke-width:13.0969;-inkscape-stroke:none;paint-order:stroke markers fill" transform="matrix(.26458 0 0 .26458 -440.607 126.392)"/><path d="M2607.45-401.785c2.244 3.792-2.176 2.753-4.306 4.254-2.13 1.501-5.434 2.508-8.638 4.153-3.471 3.2-7.992 5-11.234 8.465-3.886 3.454-7.63 7.872-8.366 13.122-1.258 5.328.49 10.643 2.848 15.489 2.449 3.875 5.528 7.613 9.315 10.305 5.966 2.219 11.805 6.25 18.456 4.788 8.662-1.899 17.776-3.246 25.231-8.425 4.553-2.332 7.803-6.526 11.276-10.029.837-4.174 5.109-6.94 4.428-11.463.57-4.348-1.085-8.416-3.576-11.897-2.607-5.164-7.271-8.764-12.273-11.45-4.166-3.086-8.963-5.033-14.131-5.59l-9.03-1.722zm10.98 26.384c3.154-.396-4.595 5.162-.842 1.561l.842-1.557zm-9.99 4.962c7.091-.498 1.699 2.061-1.276 3.41-1.5.444-8.113 3.045-5.143.304 1.574-2.11 3.67-3.668 6.419-3.713z" style="color:#000;font-size:40px;line-height:1.25;font-family:OCR-A;-inkscape-font-specification:OCR-A;letter-spacing:0;word-spacing:0;display:inline;fill:#fff;stroke:#030303;stroke-width:4.08308;stroke-miterlimit:4;stroke-dasharray:none;stroke-opacity:1;paint-order:markers fill stroke" transform="matrix(.26458 0 0 .26458 -440.607 126.392)"/><path d="M2613.999-393.873c4.651.594 9.185 1.845 12.917 4.807 4.737 2.467 8.986 5.933 11.231 10.899 2.515 3.348 2.591 8.436-.287 11.591-.973 2.583-2.503 4.504-4.428 6.457-5.782 6.102-13.918 9.477-22.097 10.929-5.068 1.324-10.513 2.814-15.286-.149-4.002-1.394-7.915-3.241-10.215-6.996-4.399-4.863-6.538-12.79-2.729-18.543 3.352-5.207 8.668-8.54 13.746-11.851 4.199-3.4 9.412-5.456 14.543-6.927.687.2 2.247.168 2.605-.217zm3.07 11.813c-5.131.291-4.267 7.532-10.533 5.276-5.453.382-8.745 4.843-12.001 8.625-1.936 2.424-2.123 5.662-1.93 8.578 3.759 1.78 7.758 1.166 11.643.299 6.204-1.287 11.592-4.862 16.763-8.33 3.188-2.865 6.48-6.316 6.971-10.759-2.635-2.807-7.19-3.406-10.914-3.69z" style="color:#000;font-size:40px;line-height:1.25;font-family:OCR-A;-inkscape-font-specification:OCR-A;letter-spacing:0;word-spacing:0;display:inline;fill:#000;fill-opacity:1;stroke-width:13.0969;-inkscape-stroke:none;paint-order:stroke markers fill" transform="matrix(.26458 0 0 .26458 -440.607 126.392)"/><path d="M2656.06-401.669c-3.665 1.7-7.531 2.4-10.85 4.812-1.93 1.543-3.407 4.517-2.845 7.073-.188 5.302-.233 2.91-1.228 7.687-1.087 8.169-.723 16.251-.49 24.48-1.012 3.81 1.908 8.447 4.665 11.553 2.246 2.53 5.669 5.197 8.893 4.888 2.689 1.921 4.318-.793 6.691-1.634 4.684-1.59 2.76-11.086 7.49-9.002 3.832.975 4.943 1.6 8.454 2.863 4.979.696 9.835 2.362 14.892 1.422 5.77-.023 11.928-2.16 14.83-7.48 2.925-2.23 1.932-4.46-.398-6.693-1.596-2.42-4.134-5.29-7.58-6.668 3.374-2.949 6.739-7.605 5.334-12.307-.256-1.818-2.217-7.314-5.729-10.13-4.364-3.05.178.178-4.588-3.426-2.03-1.247-6.799-2.774-7.585-3.121-3.157-1.826-8.577-2.734-12.979-2.736-4.729-.192-9.478-.9-14.115.295-1.797.617-1.992-.674-2.862-1.876z" style="color:#000;font-size:40px;line-height:1.25;font-family:OCR-A;-inkscape-font-specification:OCR-A;letter-spacing:0;word-spacing:0;display:inline;fill:#fff;stroke:#030303;stroke-width:4.08308;stroke-linejoin:miter;stroke-miterlimit:4;stroke-dasharray:none;stroke-opacity:1;paint-order:markers fill stroke" transform="matrix(.26458 0 0 .26458 -440.607 126.392)"/><path d="M2663.918-393.997c7.237.572 14.837-.195 21.456 3.38 5.76 1.782 11.71 5.846 12.31 12.308-1.104 4.054-5.07 6.308-8.412 8.275a97.082 97.082 0 0 1-17.168 2.918c3.38 2.64 8.146 2.792 12.282 3.441 4.43.322 9.236-.658 13.115 2.144 5.94 2.405 1.334 7.138-2.9 7.109-4.986.987-9.963.43-14.875-.681-6.423-1.88-12.788-4.397-19.467-5.346-.808 4.25.144 13.237-6.014 12.465-4.549-1.728-8.807-5.845-6.884-10.976-.786-5.074-.096-10.417-.353-15.503-.045-5.351 2.019-10.468 1.893-15.751.55-3.225 4.574-3.125 6.929-2.815 2.725-.156 5.434-.269 8.088-.968zm5.798 9.674c-3.534.867-9.985-.64-9.886 4.584-1.648 5.083 3.982 2.507 6.914 2.516 5.608-.553 11.903-.296 16.739-3.658 2.748-2.708-3.161-2.443-4.894-2.992-2.892-.198-5.902-.153-8.873-.45z" style="color:#000;font-size:40px;line-height:1.25;font-family:OCR-A;-inkscape-font-specification:OCR-A;letter-spacing:0;word-spacing:0;display:inline;fill:#000;fill-opacity:1;stroke-width:13.0969;-inkscape-stroke:none;paint-order:stroke markers fill" transform="matrix(.26458 0 0 .26458 -440.607 126.392)"/><path d="M2723.135-400.994c.411 2.823-4.014 2.465-5.767 3.892-6.488 4.665-13.882 8.541-18.056 15.644-3.898 5.892-5.57 13.463-3.641 20.354 1.22 5.244 4.006 10.464 8.848 13.193.797.933 5.784 3.841 8.14 4.502 3.618.882 7.343 2.184 10.97 2.53 2.864-.715 5.952.418 8.808-.687 3.082-.22 6.596-2.111 8.581-2.306 3.713-.705 6.19-2.071 8.523-3.322 5.212-1.039 8.638-5.607 12.975-8.376 3.627-3.443.4-.295 4.47-4.622 3.737-4.355 2.502-10.915-1.446-14.6-1.76-2.004-5.176-2.263-3.5-5.36-.531-2.734.427-6.213-2.568-7.716-7.4-7.66-17.589-13.186-28.465-12.782l-7.872-.345z" style="color:#000;font-size:40px;line-height:1.25;font-family:OCR-A;-inkscape-font-specification:OCR-A;letter-spacing:0;word-spacing:0;display:inline;fill:#fff;stroke:#030303;stroke-width:4.08308;stroke-miterlimit:4;stroke-dasharray:none;stroke-opacity:1;paint-order:markers fill stroke" transform="matrix(.26458 0 0 .26458 -440.607 126.392)"/><path d="M2729.681-394.152c8.987-.48 17.744 3.44 23.957 9.832 2.339 1.001 2.5 5.745-.023 6.18-4.113.964-5.732-4.16-9.425-4.757-5.001-3.276-11.776-2.266-16.555 1.049-4.902 2.454-9.19 5.843-13.408 9.26-3.723 3.337-1.513 8.017-1.445 12.17 2.078 2.472 5.715 2.968 8.662 3.652 3.192-.77 7.162-.433 9.797-2.212 1.39-.697 5.648-1.372 8.496-1.666 1.495-.869 7.681-3.492 2.982-2.551-4.978.7-10.174.861-15.064-.038-2.465-2.159-8.81-4.953-6.384-8.795 3.47-2.11 7.752-.657 11.69-1.233 6.182-.393 12.34.178 18.485-.738 3.895.478 8.043 1.939 10.542 5.147 2.264 4.96-3.652 7.976-6.84 10.685-2.705 2.109-5.263 4.407-8.648 5.237-4.53 2.274-9.537 3.405-14.381 4.77-3.6.749-7.44.648-10.983.176-5.511-1.01-10.798-3.039-14.987-6.851-3.806-3.797-5.14-9.727-4.56-14.977 1.29-7.889 7.166-13.9 13.703-17.908 4.218-3.083 9.055-6.325 14.388-6.183z" style="color:#000;font-size:40px;line-height:1.25;font-family:OCR-A;-inkscape-font-specification:OCR-A;letter-spacing:0;word-spacing:0;display:inline;fill:#000;fill-opacity:1;stroke-width:13.0969;-inkscape-stroke:none;paint-order:stroke markers fill" transform="matrix(.26458 0 0 .26458 -440.607 126.392)"/><g style="display:inline" transform="matrix(.17196 0 0 .17196 -11.73 -29.332)"><path d="M185.74 381.9c-5.943-12.357-25.31-34.028-42.967-14.838-17.657 19.19 7.624 65.768 27.213 65.575 19.589-.193 21.698-38.38 15.755-50.737z" style="fill:#bcd35f;stroke:#222b00;stroke-width:10"/><path d="M168.62 402.91c-11.412-4.94-23.156 2.953-31.513 14.056-10.288 1.459-23.46 7.146-18.439 17.017 7.724 12.496 17.088-1.555 25.994-3.35-3.343 6.414-8.988 17.916-.352 22.262 8.637 4.346 12.526-9.038 17.914-13.404-.284 5.544-3.833 23.245 13.61 21.343 12.97-2.71 8.64-16.842 3.111-23.532-2.536-3.755-8.378-9.83-7.267-13.024 4.301-9.923 8.353-16.427-3.06-21.368z" style="fill:#bcd35f;stroke:#222b00;stroke-width:10;stroke-linecap:round;stroke-linejoin:round"/><path d="M341.61 381.9c5.943-12.357 25.31-34.028 42.967-14.838 17.657 19.19-7.624 65.768-27.213 65.575-19.589-.193-21.698-38.38-15.755-50.737z" style="fill:#bcd35f;stroke:#222b00;stroke-width:10"/><path d="M357.14 402.91c11.412-4.94 23.156 2.953 31.513 14.056 10.288 1.459 23.46 7.146 18.439 17.017-7.724 12.496-17.088-1.555-25.994-3.35 3.343 6.414 8.988 17.916.352 22.262-8.637 4.346-12.526-9.038-17.914-13.404.284 5.544 3.833 23.245-13.61 21.343-12.97-2.71-8.64-16.842-3.111-23.532 2.536-3.755 8.378-9.83 7.267-13.024-4.301-9.923-8.353-16.427 3.06-21.368z" style="fill:#bcd35f;stroke:#222b00;stroke-width:10;stroke-linecap:round;stroke-linejoin:round"/><path d="M178.57 356.29c-7.29 6.963-26.118 21.097-17.5 45.357 8.618 24.26 63.391 47.29 100.71 48.929 37.323 1.639 92.438-22.358 100.71-48.929 8.276-26.571-14.917-32.71-27.143-40.714-30.083-17.29-128.42-23.034-156.79-4.643z" style="fill:#bcd35f;stroke:#222b00;stroke-width:10"/><path d="M264.69 386.66c-32.079 0-58.094 20.695-58.094 46.219 0 1.49.108 2.983.281 4.438 17.997 7.499 38.197 12.516 54.906 13.25 18.504.812 41.376-4.677 60.75-13.656.144-1.325.219-2.678.219-4.032 0-25.524-25.984-46.219-58.062-46.219z" style="fill:#e5ff80"/><path d="M178.57 356.29c-7.29 6.963-26.118 21.097-17.5 45.357 8.618 24.26 63.391 47.29 100.71 48.929 37.323 1.639 92.438-22.358 100.71-48.929 8.276-26.571-14.917-32.71-27.143-40.714-30.083-17.29-128.42-23.034-156.79-4.643z" style="fill:none;stroke:#222b00;stroke-width:10"/><path d="M308.53 372.71s-1.612 29.478 13.547 30.522c24.688-9.186 7.076-40.016 7.076-40.016-7.437.539-9.374-8.254-20.623 9.494z" style="fill:#ff80b2;stroke:#222b00;stroke-width:5;stroke-linecap:round;stroke-linejoin:round"/><path d="M316.43 371.29c2.297 1.25 4.596 2.457 6.429 13.929" style="fill:none;stroke:#222b00;stroke-width:2.5;stroke-linecap:round"/><path d="M192.14 273.43c-19.534 13.762-49.999 17.938-44.286 49.286 5.713 31.347 72.129 53.915 115 54.643 42.871.728 109.73-23.166 117.86-54.643 8.124-31.477-18.909-34.538-38.571-49.286-19.662-14.748-52.315-31.046-79.286-30.357-26.97.689-51.18 16.595-70.714 30.357z" style="fill:url(#f);stroke:#222b00;stroke-width:10"/><ellipse cx="225.517" cy="248.028" rx="40.659" ry="38.638" style="fill:#fff;stroke:#222b00;stroke-width:8.3776;stroke-linecap:round;stroke-linejoin:round" transform="matrix(1 0 0 1.4248 0 -121.79)"/><ellipse cx="307.086" cy="240.2" rx="38.386" ry="53.538" style="fill:#fff;stroke:#222b00;stroke-width:11.267;stroke-linecap:round;stroke-linejoin:round" transform="matrix(1 0 0 .78774 0 57.299)"/><path d="M209.4 211.37c-8.234 4.986-10.864 15.695-5.878 23.929 4.987 8.234 15.695 10.864 23.93 5.878 7.416-4.492 10.254-13.622 7.106-21.41.088 3.247-1.591 6.5-4.673 8.367-4.482 2.714-10.258 1.43-12.849-2.848-2.59-4.279-1.03-9.956 3.451-12.67a9.632 9.632 0 0 1 7.096-1.183 17.411 17.411 0 0 0-18.182-.063z" style="fill:#000"/><ellipse cx="240.669" cy="305.607" rx="6.819" ry="10.859" style="fill:#222b00" transform="translate(9.091 -1.01)"/><ellipse cx="240.669" cy="305.607" rx="6.819" ry="10.859" style="fill:#222b00" transform="translate(31.567 -1.768)"/><path d="M301.12 227.38c6.084 3.685 8.028 11.598 4.343 17.682-3.685 6.084-11.598 8.028-17.682 4.343-5.48-3.319-7.577-10.066-5.251-15.82-.065 2.399 1.176 4.803 3.453 6.182 3.312 2.006 7.58 1.057 9.495-2.105 1.914-3.161.761-7.356-2.55-9.362a7.118 7.118 0 0 0-5.244-.874 12.867 12.867 0 0 1 13.436-.046z" style="fill:#000"/></g><g style="display:inline" transform="matrix(.1323 0 0 .1323 271.068 -53.183)"><path d="M323.99 513.14c-11.31-.22-22.18 8.16-17.06 20.65-13.5-3.08-18.58 3.93-22.28 7.28-53.28 27.38-80.44 6.07-108.25 56.88-9.66 13.41 9.95 25.08 23.53 31.28 5.35-8.85 9.39-19.02 13.28-23.47 12.64-14.21 48.82-10.21 36.06 22.72-1.06 3.63-2.85 7.17-6.06 10.81 64.53 7.07 79.96-21.3 98.63-39.12-1.39-1.09-2.88-2.23-4.66-3.69-14.77-12.64 13.12-42.39 20.91-20.66 1.25 5.45 2.12 9.13 2.87 12.1 8.61-5.4 15.3-27.43 18.31-37.28 9.86-22.13-18.56-24.16-37.75-26.85-3.76-7.28-10.74-10.52-17.53-10.65z" style="fill:#55d400;fill-rule:evenodd"/><circle cx="397.318" cy="456.386" r="9.169" style="fill:#fff" transform="translate(-74.881 70.25)"/><circle cx="398.804" cy="459.799" r="5.035" style="fill:#000" transform="translate(-74.394 69.325)"/><path d="M376.78 555.81c-14.68 4.86-26.4 3.85-33.38-1.43" style="fill:none;stroke:green;stroke-width:1px"/><path d="M214.02 606.74c11.89-13.37 45.95-9.6 33.94 21.38-2.29 7.79-8.06 15.11-25.29 24.21 14.36.09 17.11 6.53 20.36 4.13 3.82-3.92 6.57-14.61 12.18-9.1 6.33 6.82-10.5 8.47-9.27 11.62.86 4.63 15.41-8.25 18.75-.62 2.61 9.68-13.89 4.02-14.65 8.39-.23 2.86 15.62.31 11.46 8.72-3.33 7.27-13.08-8.11-15.3-6.31-2.79 1.84 6.5 9.8-1.99 12.58-7.8 1.25-.75-13.28-3.66-13.79-13.4-3.96-29.87-1.67-47.85-16.34-8.27-4.04-.21-11.39 1.2-12.91 9.26-8.52 14.81-25.9 20.12-31.96zM338.24 595.5c-13.3-11.54 12.12-38.32 19.03-18.59 5.28 23.71 4.06 15.8 10.88 31.27 3.41 7.99 13.54 7.6 24.52 6.2 11.31.21-.18-9.77 6.17-11.81 6.76-1.24 2.45 7.79 5.3 10.36 2.72 1.79 9.86-7.14 10.7.46.05 5.32-9.44 2.09-10.06 5.02-1.43 2.27 12.71 4.28 8.52 8.92-5.41 5.02-9.57-6.39-11.75-4.82-3.67 2.08 4.18 6.85-.16 10.26-3.4 2.03-7.72-4.36-6.33-8.93 2.19-7.24-28.5 6.89-34.07-2.81-9.85-17.6-7.55-12.94-22.75-25.53z" style="fill:#55d400;fill-rule:evenodd"/><path d="M199.04 586.29c3.24-8.72 19.5 1.52 16.54 10.47-6.32-2.06-16.42 2.55-16.54-10.47zM183.72 611.88c-2.99-6.36 7.04-15.37 11.59-9.15 4.04 8.24-6.19 14.65-11.59 9.15zM250.58 600.33c-3-6.35 7.03-15.36 11.59-9.15 4.04 8.24-6.2 14.66-11.59 9.15zM226.04 588.15c-5.14-7.75 12.72-14.85 18.2-7.18-5.39 3.89-7.62 14.76-18.2 7.18zM237.66 564.67c-.3 9.3 18.63 5.95 19.27-3.45-6.64-.49-14.25-8.56-19.27 3.45zM321.02 607.92c-2.99-6.36 7.04-15.37 11.59-9.15 4.04 8.24-6.19 14.65-11.59 9.15zM277.87 617.38c-8.79-.08-3.67-9.36.42-14.54 8.18-11.07 7.15 13.95-.42 14.54zM290.04 628.89c5.07 7.8 18.68-5.77 13.83-13.85-5.72 3.4-16.58 1.13-13.83 13.85zM206.38 574.22c-5.71-6.68 4.66-8.9 11.26-9.23 13.71-1.09-5.84 14.56-11.26 9.23zM278.01 584.9c-8.82-2.95.88-19.54 9.92-16.88-1.84 6.39 3.08 16.34-9.92 16.88zM288.92 547.69c-5.14-7.76 12.72-14.85 18.2-7.19-5.38 3.9-7.62 14.77-18.2 7.19zM303.95 578.91c4.3 8.24 19.15-3.96 15.09-12.47-6.02 2.84-16.62-.46-15.09 12.47zM303.21 562.82c-2.02-4.3 4.75-10.38 7.82-6.18 2.73 5.56-4.18 9.89-7.82 6.18zM220.24 614.86c-2.99-6.36 7.03-15.37 11.59-9.15 4.04 8.24-6.2 14.65-11.59 9.15zM276.32 559.25c-12.87-4.61-5.29-9.15.33-11.36 8.73-1.98 2.92 13.44-.33 11.36zM208.5 642.85c-7.99-.83-2.92-16.65 5.2-16.1-.35 5.74 5.67 13.2-5.2 16.1zM221.58 661.2c-4.13 2.33-10.69-3.97-6.73-7.35 5.35-3.13 10.17 3.45 6.73 7.35zM237.32 630.14c-6.24 14.2-10.77 5.25-12.83-1.28-1.54-10.03 15.45-2.24 12.83 1.28zM341.55 580.5c-.67-6.25 12.24-4.95 13.15 1.35-4.44.66-9.16 6.48-13.15-1.35zM351.81 600.32c-4.13 2.33-10.69-3.98-6.73-7.35 5.35-3.13 10.17 3.44 6.73 7.35zM265.26 636.76c-15 2.82-10.25-5.84-6.09-11.14 7.29-6.83 10.4 11.3 6.09 11.14zM307.76 606.03c-14.27-5.39-5.72-10.31.6-12.68 9.78-2.03 3 15.07-.6 12.68zM355.17 607.52c1.06-6.72 7.59-1.74 11.1 1.98 7.55 7.52-11.51 3.89-11.1-1.98z" style="fill:#6f0;fill-rule:evenodd"/></g><g style="display:inline"><g aria-label="Zaby" style="font-size:88.8564px;line-height:1.25;font-family:OCR-A;-inkscape-font-specification:OCR-A;letter-spacing:0;word-spacing:0;display:inline;fill:#37d329;fill-opacity:1;stroke:none;stroke-width:13.2095;paint-order:markers stroke fill"><path d="M493.534-382.652q3.62.644 8.28.843l16.562 2.032q3.372.695 7.438 2.48l5.801 3.768q2.182 2.033 4.562 5.355 1.537 3.124 2.48 7.438-1.19 2.826-3.323 6.644-2.132 2.232-5.405 4.116-2.776 1.24-6.198 3.719-2.876 1.09-6.198 3.322l-6.595 2.083q-3.024 1.24-6.198 3.719l-6.644 2.479q-2.628 1.834-6.198 3.272l-1.24 2.083 2.083.446.793-.446h.843l1.24-.397 14.875-2.925q3.223-.942 7.487-1.24l15.273-2.033h4.165l4.512-.843h5.405l2.876 1.637q2.677 1.438 5.801 3.718 2.083 2.33 4.116 5.802l.843 2.925-2.083 4.116-3.719 2.082-2.876-.842-16.115.842-7.04 1.24q-3.918 1.041-8.678 1.24-3.124.595-7.041.843l-12.843 2.033-1.24-.794-1.24.794q-3.668.843-8.28 1.24-3.47.644-7.834.842-3.57.645-8.28.843l-7.042.397-1.24-.397q-3.173-1.19-6.594-3.322l-4.166-5.405q-1.289-3.223-1.636-7.438.794-3.322 3.322-6.594l4.513-4.959 23.602-15.322q3.074-1.19 6.595-3.322l13.239-6.198 3.322-2.082-12.396-.397-7.884 1.24q-3.322.644-7.438 2.082l-15.718 3.719q-2.876-1.884-6.595-3.322l-3.719-6.198-.843-2.48 1.636-4.561q2.48-1.786 6.199-3.72l7.884-2.082q3.47-.992 7.834-1.636 3.868-.893 8.727-1.24z" style="font-size:101.55px;fill:#37d329;fill-opacity:1;stroke:none" transform="matrix(.28126 0 0 .2489 8.272 111.142)"/><path d="m609.6-372.773 7.723 2.777 3.08 2.473 2.474 2.777q1.171 1.432 2.169 3.427l8.07 14.231q.737 1.736 2.17 3.08l4.338.652 6.16 3.384q.825 1.518 1.563 3.427-.911 1.692-3.08 2.777l-5.598 1.215 3.428 10.847 1.518 8.98q-.043 1.693-.607 3.385-1.605 1.085-3.688 1.562l-4.642-.608-3.731-2.169-2.777-2.473q-1.042-1.649-1.866-3.731l-2.777-13.624-.65-1.518h-3.385l-17.962 2.776-3.688.912-2.82 2.776-6.465 9.936q-1.171 1.432-2.169 3.384l-6.812 1.866q-.13-.304-.65-.608l-4.947-1.865q-1.431-1.215-2.776-2.777 0-1.649.607-3.428l8.07-13.927-1.866-3.688q.695-1.518 1.866-3.124l3.384-1.518 1.259.911 2.169-1.258 3.991-6.769 2.517-3.123 10.5-16.097q1.04-1.518 2.473-3.08 1.518-1.128 3.427-2.17zm4.339 20.132q-.911 1.345-2.17 2.777l-2.169 3.08-.954 3.124 3.427-.347 1.215.347 4.642-.65-.607-2.17-1.562-3.384q-.564-1.432-1.822-2.777zM705.876-373.033l1.345.347 13.667-.347.997.347 3.645.304q1.952.303 3.992.998l3.644 1.995q1.605.781 3.34 1.996 1.433 1.258 2.69 3.037.955 1.78 1.65 3.992l.347 2.647-.347.65-.651.998q-1.389 1.215-3.341 2.343l-3.34 1.996q-1.736.564-3.342 1.649l-2.993 1.692 7.983 2.343 4.035 1.648 2.994 2.647q1.258 1.388 2.3 3.34l.346 4.34q-.737 2.039-1.996 3.991l-2.993 2.343q-1.562 1.041-3.645 1.996l-8.026 2.993-4.643.998q-1.822.478-3.644 1.649l-17.008 3.992-4.642.694q-2.126.39-4.34 1.301l-21.953 5.988-4.339.347-3.687-1.996q-2.17-.217-3.298-2.343-1.215-1.562-1.996-3.644.434-1.823 1.65-3.341l-.348-4.339q-.043-1.518-.65-3.297.13-.608.65-.998l.694-3.34v-.999h-.347l-1.996-3.34q-1.258-1.563-1.996-3.645.217-1.953 1.996-3.34 1.475-.695 2.343-2.344l.998-9.328q-.087-2.3-.694-4.99l-.304-1.301.65-3.34q1.52-.999 2.995-2.344 1.388-1.215 3.34-2.343l9.329-1.995 24.296-1.65zm5.683 14.318-34.319 2.993v2.343h.347l.651 4.99q1.996-.217 3.992-.998l5.033-.347 17.962-4.643 3.991-1.995q1.345-.868 2.343-2.343zm2.3 18.656-11.975 1.649-.65-.347-3.342 1.345-16.313 4.338-3.34 1.345-1.302 2.647v3.644q.13.651.65.998l1.65-.65 3.34-.651 2.994-1.345 15.315-3.341 5.684-1.996 3.644-.65 2.994-1.346q1.388-.13 2.994-.65l6.681-1.996 1.65-.694-.999-.651-2.994-.998h-3.991zM801.63-376.2q1.996.173 4.21.91 1.561.565 3.036 1.78l2.994 2.126q.954 1.388 1.822 3.34l.304 3.254-.304.955-9.935 14.752-1.519 3.6q-1.085 1.215-2.083 2.69l-3.6 6.682-1.215 3.601q-.825 1.432-1.519 3.298l-1.171 3.6-1.215 12.062-.347 1.215.347 3.037q-.434 1.823-1.215 3.862-1.605.78-3.601 1.518l-3.905-.303-3.037-2.126q-1.172-1.085-2.734-2.083l-1.214-3.644-.911-9.285.91-9.068.608-2.994-.304-.91q.781-1.433.911-3.342-1.214-.998-2.69-2.082l-13.276-11.758-2.126-2.69q-1.388-.955-2.69-2.43l-2.386-2.386-2.126-2.994-.304-3.948q1.172-1.302 2.69-2.43l3.905 1.215 3.948-.304 3.645 1.215 3.254 1.823 2.733 2.082 4.209 6.03q1.171.999 2.43 2.387l3.904 4.252 1.215-.607q1.215-.955 2.386-2.43.608-1.562 1.519-3.297l3.905-5.988q.867-1.518 2.126-3.037l5.727-9.024z" style="font-family:Komix;-inkscape-font-specification:Komix;fill:#37d329;fill-opacity:1;stroke:none" transform="matrix(.28126 0 0 .2489 8.272 111.142)"/></g><path d="m537.39-340.078-1.314.728-11.672 4.836a8.867 8.867 0 0 0-.642 3.407c.059 5.126 4.525 9.14 9.97 8.972 5.45-.173 9.82-4.465 9.76-9.592-.044-3.836-2.556-7.047-6.101-8.351z" style="font-size:101.55px;line-height:1.25;font-family:OCR-A;-inkscape-font-specification:OCR-A;letter-spacing:0;word-spacing:0;fill:#6f0;fill-opacity:1;stroke:none;stroke-width:13.2095;paint-order:markers stroke fill" transform="matrix(.26458 0 0 .26458 8.272 111.142)"/><path d="M637.803-320.102c-5.45 0-9.866 2.518-9.866 5.622 0 2.813 3.62 5.14 8.348 5.556l3.154-.69 4.944-.675c2.018-1.03 3.289-2.526 3.289-4.191 0-3.104-4.42-5.622-9.87-5.622zM732.92-308.496l-4.143.8-3.183 1.266-3.551.612-1.752.613a1.5 1.5 0 0 1-.436-.38c-.908 1.208-1.433 2.626-1.433 4.144 0 4.41 4.42 7.988 9.869 7.988.372 0 .74-.018 1.102-.05l3.345-.808c3.214-1.316 5.418-4.015 5.418-7.13 0-3.057-2.12-5.712-5.236-7.055zM831.736-317.348c-2.353 0-4.513.586-6.209 1.56-.154.453-.344.882-.588 1.276l.323.858-.645 2.816-.553 4.871c1.81 1.585 4.574 2.598 7.672 2.598 5.45 0 9.87-3.129 9.87-6.988 0-3.86-4.42-6.99-9.87-6.99z" style="font-size:88.8564px;line-height:1.25;font-family:Komix;-inkscape-font-specification:Komix;letter-spacing:0;word-spacing:0;fill:#6f0;fill-opacity:1;stroke:none;stroke-width:13.2095;paint-order:markers stroke fill" transform="matrix(.26458 0 0 .26458 8.272 111.142)"/><path d="M658.283-346.602c-1.303 1.1-2.056 2.526-1.951 4.036.219 3.075 3.915 5.326 8.258 5.021.429-.03.847-.083 1.254-.158l-1.407-2.195c-.707-1.252-1.476-2.325-2.306-3.223l-2.63-2.613zM547.828-357.611c-.676 5.619 2.792 11.465 8.797 14.043 4.958 2.133 10.342 1.473 14.102-1.276a22.251 22.251 0 0 0-.758-1.502c-1.687-2.083-3.304-3.764-4.85-5.039l-6.168-3.545c-2.881-1.12-5.517-1.896-7.906-2.332zM510.664-358.299a57.8 57.8 0 0 0-4.053.664c-3.092.404-5.868.917-8.328 1.54l-3.863.902a6.612 6.612 0 0 0-.535 2.593c0 4.411 4.42 7.987 9.869 7.987 5.45 0 9.865-3.576 9.865-7.987 0-2.232-1.132-4.25-2.955-5.699zM576.082-316.773l-4.797.793h-4.428l-8.392.988c-.05.394-.077.795-.072 1.201.059 5.126 4.525 9.14 9.97 8.97 5.45-.172 9.82-4.465 9.76-9.591a8.673 8.673 0 0 0-.355-2.361zM787.27-311.736a15.34 15.34 0 0 0-6.108 1.263c-3.418 1.468-6.012 3.995-7.49 6.936l.396-.076 8.532-2.817c1.475-.598 2.768-1.224 3.875-1.877l3.181-2.205c.218-.298.424-.597.62-.898-.974-.21-1.98-.323-3.006-.326zM757.762-331.91c-5.213.087-9.406 4.01-9.463 8.976a8.913 8.913 0 0 0 1.004 4.198l9.545-1.162 2.859.61h4.242l1.336.395a8.667 8.667 0 0 0 .744-3.421c.06-5.127-4.31-9.42-9.76-9.592-.17-.005-.34-.007-.507-.004zm7.79 15.592-4.214 1.113c-1.138.326-2.198.532-3.182.613l-2.35.932c.722.182 1.474.294 2.249.318 2.98.092 5.666-1.069 7.498-2.976zM800.387-345.705c-.605.461-1.18.936-1.692 1.44l.325 3.714 2.26 2.817.917.812c.29-.852.452-1.76.463-2.707.027-2.289-.832-4.412-2.273-6.076z" style="display:inline;fill:#6f0;fill-opacity:1;stroke-width:.455662" transform="matrix(.26458 0 0 .26458 8.272 111.142)"/><path d="M784.129-344.559a8.676 8.676 0 0 0-1.2 4.309c-.027 2.39.908 4.597 2.466 6.291.517-.328 1.01-.66 1.449-1l.691-.94.37-.61-.37-2.491c-.492-1.388-1.075-2.638-1.752-3.754a18.286 18.286 0 0 0-1.654-1.805z" style="font-size:88.8564px;line-height:1.25;font-family:Komix;-inkscape-font-specification:Komix;letter-spacing:0;word-spacing:0;fill:#6f0;fill-opacity:1;stroke:none;stroke-width:13.2095;paint-order:markers stroke fill" transform="matrix(.26458 0 0 .26458 8.272 111.142)"/><g aria-label="Zaby" style="font-size:88.8564px;font-family:OCR-A;-inkscape-font-specification:OCR-A;letter-spacing:0;word-spacing:0;fill:#fff;stroke:#000;stroke-width:13.2095;paint-order:markers stroke fill"><path stroke="none" d="m524.732-466.264-1.14.153-8.528 1.138c-3.546.237-6.818.651-9.853 1.262-3.185.429-6.151.958-8.857 1.643l.136-.034-9.136 2.135-.692.319c-2.853 1.313-5.319 2.61-7.451 3.968l-1.772 1.127-3.302 8.15 1.926 5.018 5.58 8.227 2.248.77c2.24.766 4.132 1.62 5.695 2.527l2.525 1.465 10.24-2.143-17.033 9.785-5.595 5.441-.174.198c-2.278 2.608-3.972 5.474-4.805 8.56l-.26.965.092.988c.292 3.142.994 6.085 2.219 8.795l.361.801 5.797 6.654 1.074.594c2.754 1.519 5.495 2.753 8.258 3.67l.162.053 2.719.771 8.684-.433.011-.002c3.407-.128 6.49-.395 9.31-.825 3.06-.14 5.895-.41 8.532-.832 3.359-.27 6.492-.663 9.356-1.246l1.187-.24-1.076.608 15.523-2.174a77.172 77.172 0 0 0 7.077-.764c3.543-.142 6.889-.55 10.039-1.256l6.955-1.084 15.507-.717 4.743 1.23 8.392-4.16 4.428-7.74-1.904-5.847-.444-.672c-1.622-2.452-3.325-4.604-5.199-6.459l-.494-.488-.6-.387c-2.418-1.562-4.73-2.884-6.988-3.957l.152.074-4.671-2.351h-8.254l-4.797.793h-4.242l-3.516.414c1.17-.654 2.467-1.443 3.31-1.776l.33-.13.313-.159c2.786-1.42 5.25-3.047 7.318-4.963l.62-.572.435-.691c1.6-2.535 2.885-4.796 3.871-6.87l.862-1.812-.473-1.922c-.762-3.088-1.792-5.891-3.195-8.416l-.256-.459-.336-.416c-1.884-2.326-3.762-4.307-5.772-5.965l-.447-.369-7.16-4.115-.524-.205c-3.228-1.255-6.306-2.18-9.314-2.729l-.277-.049-18.164-1.974-.28-.01c-3.057-.115-5.695-.36-7.87-.703zm-.095 6.297c2.565.404 5.5.669 8.802.793l17.606 1.912c2.39.436 5.025 1.213 7.906 2.332l6.168 3.545c1.546 1.275 3.163 2.956 4.85 5.04 1.09 1.958 1.967 4.29 2.635 6.995-.844 1.773-2.02 3.856-3.532 6.25-1.51 1.4-3.427 2.692-5.746 3.873-1.968.778-4.163 1.944-6.588 3.498-2.038.685-4.235 1.726-6.59 3.125l-7.01 1.96c-2.143.777-4.338 1.943-6.587 3.498l-7.065 2.332c-1.862 1.15-4.057 2.176-6.588 3.078l-1.318 1.959 2.215.42.842-.42h.896l1.319-.373 15.812-2.752c2.284-.591 4.937-.98 7.96-1.166l16.233-1.912h4.428l4.797-.793h5.746l3.057 1.539c1.897.901 3.954 2.067 6.168 3.498 1.476 1.461 2.934 3.282 4.375 5.459l.894 2.752-2.213 3.87-3.953 1.96-3.056-.793-17.131.793-7.487 1.166c-2.776.653-5.849 1.041-9.222 1.166-2.214.373-4.71.637-7.487.793l-13.65 1.912-1.318-.746-1.319.746c-2.6.528-5.534.917-8.802 1.166-2.46.404-5.236.668-8.329.793-2.53.404-5.464.668-8.802.793l-7.485.373-1.318-.373c-2.249-.747-4.585-1.788-7.01-3.125l-4.427-5.084c-.914-2.022-1.493-4.353-1.739-6.996.562-2.084 1.74-4.153 3.531-6.205l4.797-4.664 25.09-14.415c2.179-.746 4.515-1.787 7.01-3.125l14.074-5.83 3.531-1.959-13.177-.373-8.381 1.166c-2.355.405-4.99 1.058-7.906 1.96l-16.71 3.497c-2.038-1.181-4.376-2.223-7.011-3.125l-3.953-5.83-.895-2.332 1.739-4.29c1.756-1.12 3.954-2.288 6.59-3.5l8.38-1.96c2.46-.622 5.236-1.135 8.328-1.539 2.741-.56 5.832-.948 9.276-1.166z" style="color:#000;-inkscape-font-specification:OCR-A;fill:#000;stroke:none;-inkscape-stroke:none" transform="matrix(.26458 0 0 .26458 8.272 137.6)"/><path stroke="none" d="m647.426-457.465-2.77 1.338a38.903 38.903 0 0 0-4.468 2.506l-.538.355-.45.436a33.65 33.65 0 0 0-3.245 3.582l-.047.059-11.012 14.941-2.775 3.049-2.351 3.53-7.918 3.144-1.098 1.332c-1.062 1.288-1.973 2.616-2.697 4.017l-1.407 2.719 1.793 3.133-7.017 10.715-.223.58c-.645 1.67-1.023 3.435-1.023 5.232v2.305l1.7 1.75a32.109 32.109 0 0 0 3.731 3.295l.926.695 4.092 1.367 1.428 2.95 16.129-3.91 1.41-2.44c.517-.895 1.03-1.582 1.488-2.078l.24-.262 6.668-9.064 1.082-.944 1.748-.38 16.01-2.192 2.188 9.502.226.508a26.2 26.2 0 0 0 2.576 4.543l.528.74 4.218 3.324 5.8 2.983 7.581.878 1.23-.25c2.223-.45 4.373-1.235 6.282-2.377l1.976-1.181.754-2.002a15.455 15.455 0 0 0 1.006-4.99l.016-.6-1.809-9.469-1.525-4.271.13-.057c2.493-1.102 4.866-2.839 6.317-5.224l1.531-2.516-1.164-2.668a32.047 32.047 0 0 0-2.039-3.95l-.984-1.603-9.455-4.595-2.963-.393-8.707-13.59c-.859-1.478-1.832-2.851-2.98-4.094l-.094-.1-3.116-3.097-4.646-3.303zm.592 6.793 8.21 2.611 3.274 2.327 2.629 2.613c.83.898 1.6 1.97 2.307 3.223l8.578 13.388c.522 1.089 1.292 2.053 2.306 2.897l4.612.613 6.548 3.184c.585.952 1.14 2.027 1.663 3.224-.646 1.061-1.738 1.931-3.276 2.612l-5.95 1.142 3.644 10.203 1.615 8.45a9.795 9.795 0 0 1-.647 3.183c-1.137.68-2.444 1.17-3.92 1.469l-4.935-.57-3.967-2.042-2.951-2.326a20.266 20.266 0 0 1-1.983-3.51l-2.953-12.816-.691-1.428h-3.598l-19.094 2.612-3.92.857-2.998 2.611-6.873 9.348c-.83.898-1.597 1.96-2.304 3.184l-7.242 1.754c-.093-.19-.323-.38-.692-.57l-5.258-1.757a25.432 25.432 0 0 1-2.95-2.61c0-1.035.213-2.11.644-3.225l8.58-13.102-1.985-3.469c.492-.952 1.155-1.932 1.985-2.94l3.597-1.427 1.336.857 2.307-1.185 4.244-6.365 2.674-2.94 11.162-15.142a27.332 27.332 0 0 1 2.629-2.899 31.788 31.788 0 0 1 3.643-2.039zm4.613 18.938a27.255 27.255 0 0 1-2.307 2.61l-2.306 2.9-1.014 2.939 3.642-.328 1.293.328 4.934-.613-.644-2.041-1.66-3.184c-.4-.898-1.046-1.768-1.938-2.611z" style="color:#000;-inkscape-font-specification:Komix;fill:#000;stroke:none;-inkscape-stroke:none" transform="matrix(.26458 0 0 .26458 8.272 137.6)"/><path stroke="none" d="m750.508-457.3-1.621.308-4.442.846-25.824 1.55-11.492 2.176-.96.49c-1.704.872-3.26 1.824-4.661 2.909l-.055.04-.053.044a18.518 18.518 0 0 1-2.308 1.603l-2.47 1.436-1.546 7.015.656 2.485c.325 1.274.47 2.35.528 3.29l-.73 6.05-.083.056c-2.41 1.664-4.413 4.44-4.779 7.355l-.18 1.417.54 1.345a17.448 17.448 0 0 0 2.841 4.735l1.026 1.517-.02.082c-.369.616-.756 1.235-.912 1.881l-.408 1.682.627 1.627c.25.646.312 1.077.318 1.271l.006.16.201 2.229c-.603 1.024-1.098 2.096-1.4 3.219l-.498 1.847.754 1.774c.715 1.687 1.72 3.254 2.924 4.695 1.397 1.959 3.777 3.66 6.427 4.457l5.256 2.518 7.34-.52 24.39-5.889.405-.146c1.15-.42 2.206-.69 3.176-.85l5.021-.666 19.537-4.058 1.016-.577c.749-.425 1.347-.641 1.828-.755l5.16-.98 9.25-3.056.233-.093c1.75-.71 3.362-1.484 4.843-2.358l.223-.129 4.324-2.998.643-.879a23.865 23.865 0 0 0 2.822-5.007l.518-1.268-.606-6.71-.687-1.141c-.966-1.602-2.096-3.079-3.44-4.391l-.26-.256-4.187-3.275c.568-.372 1.223-.684 1.748-1.09l.727-.565 1.392-1.884 1.57-2.61-.738-5.002-.185-.515c-.607-1.71-1.347-3.326-2.262-4.834l-.207-.338-.248-.313a23.686 23.686 0 0 0-3.957-3.935l-.291-.225-.319-.197a34.374 34.374 0 0 0-4.507-2.375l.302.137-4.408-2.137-.576-.172a35.677 35.677 0 0 0-5.426-1.197l-.248-.034-3.238-.24-1.43-.44-14.824.335zm-.147 6.382 1.43.326 14.527-.326 1.063.326 3.873.287c1.384.19 2.799.502 4.244.938l3.873 1.879c1.138.49 2.321 1.115 3.55 1.877 1.016.789 1.97 1.741 2.862 2.857.677 1.116 1.26 2.366 1.752 3.754l.37 2.49-.37.612-.691.939c-.984.762-2.17 1.496-3.553 2.203l-3.55 1.88c-1.23.353-2.414.87-3.552 1.55l-3.183 1.592 8.486 2.203 4.291 1.55 3.182 2.49c.892.871 1.705 1.919 2.443 3.143l.37 4.082a17.862 17.862 0 0 1-2.122 3.754l-3.181 2.205c-1.107.653-2.4 1.279-3.875 1.877l-8.532 2.817-4.935.94c-1.292.298-2.584.815-3.875 1.55l-18.078 3.754-4.936.654a25.362 25.362 0 0 0-4.613 1.223l-23.336 5.633-4.613.326-3.92-1.877c-1.538-.136-2.707-.87-3.506-2.203-.861-.98-1.568-2.124-2.121-3.43.307-1.143.893-2.19 1.754-3.143l-.37-4.08c-.03-.952-.262-1.988-.693-3.103.092-.381.325-.693.694-.938l.736-3.142v-.94h-.367l-2.123-3.142a11.243 11.243 0 0 1-2.121-3.428c.153-1.224.86-2.272 2.12-3.143 1.046-.435 1.876-1.17 2.49-2.205l1.063-8.775c-.061-1.442-.307-3.006-.738-4.693l-.324-1.225.693-3.143a25.437 25.437 0 0 0 3.182-2.203c.984-.762 2.167-1.497 3.55-2.205l9.917-1.877 25.828-1.55zm6.041 13.469-36.48 2.816v2.205h.369l.691 4.694a18.282 18.282 0 0 0 4.243-.94l5.35-.326 19.095-4.367 4.242-1.877a8.31 8.31 0 0 0 2.49-2.205zm2.446 17.55-12.73 1.551-.692-.326-3.551 1.266-17.342 4.08-3.55 1.265-1.385 2.49v3.428c.092.409.324.722.693.94l1.752-.613 3.55-.612 3.184-1.265 16.28-3.143 6.043-1.877 3.873-.613 3.183-1.264c.984-.081 2.044-.287 3.182-.613l7.103-1.877 1.752-.652-1.06-.614-3.184-.94h-4.242z" style="color:#000;-inkscape-font-specification:Komix;fill:#000;stroke:none;-inkscape-stroke:none" transform="matrix(.26458 0 0 .26458 8.272 137.6)"/><path stroke="none" d="m849.984-460.3-2.187 1.529-3.795 2.654-6.527 9.103a26.487 26.487 0 0 0-2.436 3.1l-4.076 5.535c-.303-.267-.607-.542-.914-.793l-4.778-6.057-4.171-2.816-4.471-2.213-5.852-1.726-4.267.29-6.278-1.728-2.865 1.883a25.572 25.572 0 0 0-3.89 3.12l-2.012 1.978.703 8.084 3.728 4.646 2.954 2.615-.3-.283c.833.835 1.82 1.504 2.776 2.205l2.487 2.787 13.79 10.805-.29.47.695 1.848-.342 1.496-1.074 9.454 1.115 10.044 2.326 6.176 2.094 1.186c.805.455 1.44.89 1.916 1.281l.352.29 5.19 3.214 7.599.523 1.443-.472a52.777 52.777 0 0 0 4.465-1.668l2.494-1.074.992-2.291a32.2 32.2 0 0 0 1.565-4.416l.285-1.063-.35-2.713.156-.488 1.28-11.235.935-2.543c.374-.883.752-1.603 1.098-2.134l.346-.532 1.326-3.47 3.308-5.438a18.333 18.333 0 0 1 1.506-1.726l.778-.772 1.804-3.783 10.742-14.113 1.063-2.951-.565-5.334-.466-.932c-.752-1.498-1.585-2.872-2.569-4.139l-.705-.908-4.195-2.637c-1.475-1.022-3.114-1.878-4.912-2.453l-.08-.025-.084-.024c-2.012-.593-4.038-.994-6.084-1.152zm2.166 6.404c1.415.108 2.907.394 4.475.857 1.107.354 2.183.91 3.229 1.672l3.181 2c.677.87 1.323 1.918 1.938 3.142l.322 3.063-.322.896-10.563 13.877-1.613 3.389a24.513 24.513 0 0 0-2.215 2.53l-3.828 6.286-1.291 3.387c-.584.898-1.121 1.932-1.613 3.102l-1.246 3.388-1.292 11.346-.369 1.143.37 2.857a26.597 26.597 0 0 1-1.292 3.633c-1.137.49-2.413.965-3.828 1.428l-4.152-.286-3.229-2a20.469 20.469 0 0 0-2.904-1.959l-1.29-3.427-.97-8.735.97-8.53.644-2.817-.323-.858c.554-.898.877-1.945.97-3.142a67.341 67.341 0 0 0-2.86-1.96l-14.113-11.06-2.26-2.53c-.984-.598-1.937-1.361-2.86-2.286l-2.537-2.244-2.26-2.817-.324-3.715a18.77 18.77 0 0 1 2.862-2.285l4.15 1.143 4.197-.285 3.873 1.142 3.46 1.715 2.906 1.959 4.474 5.674a26.97 26.97 0 0 1 2.582 2.244l4.15 4 1.292-.572c.86-.599 1.707-1.36 2.537-2.285.43-.98.97-2.014 1.615-3.102l4.15-5.633a20.397 20.397 0 0 1 2.26-2.857l6.088-8.488z" style="color:#000;-inkscape-font-specification:Komix;fill:#000;stroke:none;-inkscape-stroke:none" transform="matrix(.26458 0 0 .26458 8.272 137.6)"/></g></g></g></svg>