<svg xmlns="http://www.w3.org/2000/svg" width="1233.153" height="194.706" viewBox="0 0 326.271 51.516"><defs><linearGradient id="a" x1="191.17" x2="285.83" y1="408.39" y2="539.55" gradientTransform="translate(-161.62 -367.7)" gradientUnits="userSpaceOnUse"><stop offset="0" style="stop-color:#ff1010"/><stop offset="1" style="stop-color:#000"/></linearGradient><linearGradient id="b"><stop offset="0" style="stop-color:#ff1010"/><stop offset="1" style="stop-color:#000"/></linearGradient><linearGradient id="c"><stop offset="0" style="stop-color:red;stop-opacity:.60000002"/><stop offset="1" style="stop-color:#fff;stop-opacity:.59607846"/></linearGradient></defs><path d="M75.847 14.447c-.154.76-1.585.679-2.22 1.185-1.883.966-3.523 2.386-5.26 3.57-2.149 2.048-3.732 4.798-3.765 7.833.16 2.148.777 4.381 2.286 5.982 1.158.82 1.411 1.09 2.426 1.766 1.028.448 1.645.828 2.87 1.084 1.13.154 2.268.861 3.385.54 1.602.173 3.24-.023 4.74-.598a66.687 66.687 0 0 1 3.327-.907c.841-.741 1.868-.769 2.973-1.355 1.446-1.182 3.057-2.175 4.365-3.514.119.146 2.487-3.001 1.009-4.444-.606-1.157-1.756-1.88-2.949-2.339.59-.877.56-1.854.381-2.855-.039-.987-1.257-1.384-1.814-2.112-2.567-2.377-6.025-3.854-9.554-3.74l-2.2-.097zm4.628 7.186c.968.056 1.791.43 2.63.861 1.01.566-1.208.055-1.68.242l-4.19.128c1.008-.586 2.04-1.204 3.24-1.231zm8.556 1.625c.216.13.517.299 0 0zM72.407 26.58c.15 1.196 2.318 2.254 2.14 2.726-.688-.108-2.13-.12-2.05-1.069-.004-.54-.352-1.155-.09-1.657z" style="color:#000;font-size:40px;line-height:1.25;font-family:OCR-A;-inkscape-font-specification:OCR-A;letter-spacing:0;word-spacing:0;display:inline;fill:#fff;stroke:#000;stroke-width:1.08031;stroke-linejoin:miter;stroke-miterlimit:4;stroke-dasharray:none;stroke-opacity:1;paint-order:markers fill stroke"/><path d="M77.58 16.257c2.264-.054 4.529.402 6.489 1.57 1.353.804 2.696 1.85 3.652 3.045.234.847-.076 2.063-1.177 1.785-1.332-.152-1.879-1.716-3.205-1.933-1.08-.753-2.52-.872-3.803-.751-2.075.573-3.948 1.762-5.698 2.978-1.343 1.122-3.417 2.038-3.277 4.097.227.878.138 1.884.416 2.704.819.894 2.193 1.06 3.305 1.347 1.286-.228 2.604-.307 3.851-.716.302-.681 1.786-.484 2.785-.744 1.032-.02 1.822-.783 2.728-1.188-2.096.273-4.194.445-6.301.197-1.215-.207-2.17-1.314-3.014-2.165-1.315-1.432 1.049-2.193 2.192-1.863 2.52-.09 5.05-.159 7.559-.164 1.61-.22 3.315-.336 4.737.594 1.389.458 2.533 2.208 1.275 3.466-1.428 1.366-3.051 2.558-4.66 3.68-1.802.564-3.439 1.565-5.344 1.818-1.521.744-3.26.781-4.922.64-.996.15-2.027-.45-3.036-.585-1.679-.479-3.2-1.5-4.392-2.742-1.306-1.947-1.812-4.55-.925-6.776.757-2.362 2.635-4.16 4.66-5.47 1.621-1.149 3.313-2.416 5.316-2.699.204.064.763.079.789-.125z" style="color:#000;font-size:40px;line-height:1.25;font-family:OCR-A;-inkscape-font-specification:OCR-A;letter-spacing:0;word-spacing:0;display:inline;fill:#000;fill-opacity:1;stroke-width:3.46522;-inkscape-stroke:none;paint-order:stroke markers fill"/><path d="M108.21 18.249c-1.906.141-3.86.396-5.72.4l-6.15.962c-.29-.158-1.58.35-2.238.312-.882.375-1.724.788-1.963 1.799-.767.797-.03 1.624.185 2.481.368 1.029-.097 1.331-.25 2.313.255.416.12 1.356.065 2.178-.286 1.732-.527 3.5-.27 5.253.99.404 1.17 1.695 2.23 1.913.886.186 1.821 1.212 2.651.448 1.107-.303 2.249-.427 3.342-.829 2.812-.844 5.672-1.446 8.54-2.11 1.372-.054 2.675-.644 3.935-1.126 1.336-.76 2.121-2.755 1.15-4.064-.51-.749-.92-1.928-2.016-1.714-.75.249-1.283-1.853-.58-1.645 1-.665 2.16-1.644 2.179-2.881-.69-1.992-2.482-3.556-4.645-3.655l-.319-.027z" style="color:#000;font-size:40px;line-height:1.25;font-family:OCR-A;-inkscape-font-specification:OCR-A;letter-spacing:0;word-spacing:0;display:inline;fill:#fff;stroke:#010101;stroke-width:1.08031;stroke-linejoin:round;stroke-miterlimit:4;stroke-dasharray:none;stroke-opacity:1;paint-order:markers fill stroke"/><path d="M108.23 19.985c1.388.002 2.77.835 3.239 2.166-.82 1.57-2.81 1.067-4.265 1.267a67.42 67.42 0 0 1-5.095.42c-1.34.357-2.748.473-4.038.971-.855 1.444 1.445.94 2.215.627 1.208-.474 2.52-.442 3.691-.866 1.003-.187 1.952-.141 2.966-.24 1.046-.05 3.125 1.542 2.104 2.504-1.153.688-2.645.388-3.849 1.007-1.65.435-3.33.799-4.972 1.256-.887.076-2.25-.09-2.705.825-.798 1.585 1.347.267 2.066.292 2.82-.96 5.826-1.12 8.725-1.77 1.086-.23 2.195-.403 3.305-.248 1.373.978.56 2.834-.992 2.926-1.619.607-3.362.666-5.02 1.167-1.929.43-3.847.872-5.735 1.46-1.33.4-2.716.704-4.025.947-1.084-.209-1.743-1.021-2.325-1.826-.164-1.794.427-3.569.435-5.335.171-1.418.517-2.632-.002-3.947-.515-.755-.278-1.768.678-1.991.815.135 1.562-.398 2.366-.335 2.417-.335 4.816-.891 7.233-.933l4-.344z" style="color:#000;font-size:40px;line-height:1.25;font-family:OCR-A;-inkscape-font-specification:OCR-A;letter-spacing:0;word-spacing:0;display:inline;fill:#000;fill-opacity:1;stroke-width:3.46522;-inkscape-stroke:none;paint-order:stroke markers fill"/><path d="M236.728 29.517c-.712.531-1.613.906-1.812 1.864-.608.995.119 2.201.392 3.202.76.998 1.86 1.834 3.135 1.907 1.356.039 2.767-.802 3.017-2.218.297-1.502-.493-3.025-1.773-3.919-.453-.316-.397-.097-.99-.413-.61-.324-1.293-.385-1.969-.423z" style="color:#000;font-size:40px;line-height:1.25;font-family:OCR-A;-inkscape-font-specification:OCR-A;letter-spacing:0;word-spacing:0;display:inline;fill:#fff;stroke:#030303;stroke-width:1.08031;stroke-miterlimit:4;stroke-dasharray:none;stroke-opacity:1;paint-order:markers fill stroke"/><path d="M237.219 31.29c1.302.108 2.735 1.053 2.568 2.519-.363 1.42-2.18.995-2.807.044-.587-.75-.848-2.122.239-2.563z" style="color:#000;font-size:40px;line-height:1.25;font-family:OCR-A;-inkscape-font-specification:OCR-A;letter-spacing:0;word-spacing:0;display:inline;fill:#000;fill-opacity:1;stroke-width:3.46522;-inkscape-stroke:none;paint-order:stroke markers fill"/><path d="M262.143 20.433c-.97.45-1.993.635-2.871 1.273-.51.409-.901 1.195-.753 1.872-.05 1.402-.061.77-.325 2.034-.287 2.16-.191 4.3-.13 6.477-.267 1.007.505 2.235 1.235 3.056.594.67 1.5 1.375 2.353 1.294.711.508 1.142-.21 1.77-.433 1.24-.42.73-2.933 1.982-2.382 1.014.258 1.308.423 2.237.758 1.317.184 2.602.625 3.94.376 1.526-.006 3.156-.572 3.924-1.979.773-.59.51-1.18-.106-1.77-.422-.641-1.093-1.4-2.005-1.765.892-.78 1.783-2.012 1.411-3.256-.068-.481-.587-1.935-1.516-2.68-1.155-.807.047.047-1.214-.907-.537-.33-1.799-.734-2.007-.826-.835-.483-2.269-.723-3.434-.724-1.25-.05-2.507-.238-3.734.078-.476.164-.527-.178-.757-.496z" style="color:#000;font-size:40px;line-height:1.25;font-family:OCR-A;-inkscape-font-specification:OCR-A;letter-spacing:0;word-spacing:0;display:inline;fill:#fff;stroke:#030303;stroke-width:1.08031;stroke-linejoin:miter;stroke-miterlimit:4;stroke-dasharray:none;stroke-opacity:1;paint-order:markers fill stroke"/><path d="M264.222 22.463c1.914.151 3.925-.052 5.677.894 1.523.472 3.098 1.547 3.256 3.257-.291 1.072-1.341 1.669-2.225 2.19-1.511.4-3.018.649-4.543.771.895.699 2.156.739 3.25.91 1.172.086 2.444-.173 3.47.568 1.572.636.353 1.889-.767 1.88-1.32.262-2.636.115-3.936-.18-1.7-.497-3.383-1.163-5.15-1.414-.214 1.124.038 3.503-1.592 3.298-1.203-.457-2.33-1.546-1.821-2.904-.208-1.342-.025-2.756-.094-4.102-.011-1.415.535-2.77.501-4.167.146-.854 1.21-.827 1.834-.745.72-.041 1.438-.071 2.14-.256zm1.534 2.56c-.935.229-2.642-.17-2.616 1.212-.436 1.345 1.054.664 1.83.666 1.483-.146 3.149-.078 4.428-.968.727-.716-.836-.646-1.295-.791-.765-.053-1.561-.041-2.347-.12z" style="color:#000;font-size:40px;line-height:1.25;font-family:OCR-A;-inkscape-font-specification:OCR-A;letter-spacing:0;word-spacing:0;display:inline;fill:#000;fill-opacity:1;stroke-width:3.46522;-inkscape-stroke:none;paint-order:stroke markers fill"/><path d="M279.89 20.612c.108.747-1.063.652-1.526 1.03-1.717 1.234-3.673 2.26-4.778 4.138-1.03 1.56-1.473 3.563-.963 5.386.323 1.387 1.06 2.768 2.34 3.49.212.247 1.531 1.017 2.155 1.192.957.233 1.942.578 2.902.67.758-.19 1.575.11 2.33-.183.816-.058 1.746-.558 2.271-.61.982-.186 1.638-.548 2.255-.879 1.379-.275 2.285-1.483 3.433-2.216.96-.911.106-.078 1.183-1.223.988-1.152.662-2.888-.383-3.863-.466-.53-1.37-.598-.926-1.418-.14-.723.113-1.644-.68-2.041-1.957-2.027-4.653-3.49-7.53-3.382l-2.084-.092z" style="color:#000;font-size:40px;line-height:1.25;font-family:OCR-A;-inkscape-font-specification:OCR-A;letter-spacing:0;word-spacing:0;display:inline;fill:#fff;stroke:#030303;stroke-width:1.08031;stroke-miterlimit:4;stroke-dasharray:none;stroke-opacity:1;paint-order:markers fill stroke"/><path d="M281.622 22.422c2.377-.127 4.694.91 6.338 2.601.619.265.662 1.52-.006 1.636-1.088.254-1.517-1.101-2.494-1.26-1.323-.866-3.115-.599-4.38.278-1.297.65-2.431 1.546-3.547 2.45-.985.883-.4 2.121-.383 3.22.55.654 1.512.786 2.292.967.845-.204 1.895-.115 2.592-.586.368-.184 1.495-.363 2.248-.44.396-.23 2.033-.924.79-.675-1.318.185-2.693.227-3.987-.01-.652-.572-2.33-1.31-1.689-2.327.918-.559 2.051-.174 3.093-.327 1.636-.104 3.266.047 4.891-.195 1.03.126 2.128.513 2.79 1.362.598 1.312-.967 2.11-1.81 2.827-.716.558-1.393 1.166-2.288 1.386-1.2.601-2.524.9-3.805 1.262-.953.198-1.969.171-2.906.046-1.459-.267-2.857-.804-3.966-1.813-1.007-1.004-1.36-2.573-1.206-3.962.341-2.087 1.896-3.678 3.626-4.738 1.115-.816 2.395-1.674 3.806-1.636z" style="color:#000;font-size:40px;line-height:1.25;font-family:OCR-A;-inkscape-font-specification:OCR-A;letter-spacing:0;word-spacing:0;display:inline;fill:#000;fill-opacity:1;stroke-width:3.46522;-inkscape-stroke:none;paint-order:stroke markers fill"/><g style="display:inline"><path d="M923.668 191.979c8.186-19.65 6.546-57.855 6.546-57.855l24.841-1.56s-.567 39.895 8.42 59.492" style="display:inline;fill:#fc0;fill-rule:evenodd;stroke:#000;stroke-width:1.73775;stroke-linecap:butt;stroke-linejoin:round" transform="matrix(.26458 0 0 .26458 0 .316)"/><path d="M199.75 181.23c0 11.96-6.86 21.65-15.34 21.65-8.47 0-15.34-9.69-15.34-21.65 0-11.96 6.87-21.66 15.34-21.66 8.48 0 15.34 9.7 15.34 21.66z" style="fill:#784421" transform="matrix(.0871 0 0 .0871 234.654 25.555)"/><path d="M167.68-64.425c-24.85 0-45.02 8.495-59.85 22.669-.62-.52-1.46-.982-2.56-1.524C44.734-56.211 23.905-12.688 23.134-5.791c-.771 6.896 42.007 17.659 64.758-7.772l.784-.877C81.945.219 78.417 17.222 78.417 35.355c0 55.075 61.213 99.785 89.263 99.785 29.14 0 89.27-44.71 89.27-99.785 0-18.337-3.78-35.52-10.84-50.29.44.497.76.855 1.22 1.372 22.75 25.431 65.53 14.668 64.76 7.772-.77-6.897-21.56-50.42-82.1-37.49-1.28.636-2.28 1.162-2.9 1.79-14.98-14.318-35.13-22.934-59.41-22.934z" style="fill:#fc0;stroke:#000;stroke-width:4.5074;stroke-linecap:round;stroke-linejoin:round" transform="matrix(.0871 0 0 .0871 234.654 25.555)"/><path d="M163.28 20.748c0 15.244-12.35 27.603-27.6 27.603-15.24 0-27.6-12.359-27.59-27.603-.01-15.243 12.35-27.602 27.59-27.602 15.25 0 27.6 12.359 27.6 27.602zM227.48 20.748c.01 15.244-12.35 27.603-27.59 27.603s-27.6-12.359-27.6-27.603c0-15.243 12.36-27.602 27.6-27.602 15.24 0 27.6 12.359 27.59 27.602z" style="fill:#fff;stroke:#000;stroke-width:4.7594;stroke-linecap:round;stroke-linejoin:round" transform="matrix(.0871 0 0 .0871 234.654 25.555)"/><path d="M202.96 25.619c0 5.081-4.12 9.201-9.2 9.201-5.08 0-9.2-4.12-9.2-9.201s4.12-9.201 9.2-9.201c5.08 0 9.2 4.12 9.2 9.201zM151.78 25.619c0 5.081-4.12 9.201-9.2 9.201-5.08 0-9.2-4.12-9.2-9.201s4.12-9.201 9.2-9.201c5.08 0 9.2 4.12 9.2 9.201zM187.9 99.444c-2.79 4.836-7.91 7.106-11.44 5.076-3.53-2.04-4.12-7.611-1.33-12.448 2.8-4.838 7.92-7.109 11.45-5.073 3.52 2.036 4.12 7.609 1.32 12.445zM148.04 99.444c2.79 4.836 7.92 7.106 11.44 5.076 3.53-2.04 4.12-7.611 1.33-12.448-2.79-4.838-7.91-7.109-11.44-5.073-3.53 2.036-4.12 7.609-1.33 12.445z" style="fill:#000" transform="matrix(.0871 0 0 .0871 234.654 25.555)"/><path d="M126.6-44.916c6.88-12.484-7.32-27.552-7.32-27.552l21.09-5.166s-3.01 18.942 8.18 25.83" style="fill:#fc0;fill-rule:evenodd;stroke:#000;stroke-width:4.7594;stroke-linecap:round" transform="matrix(.0871 0 0 .0871 234.654 25.555)"/><path d="M146.8-80.284c0 10.343-8.38 18.727-18.72 18.727-10.35 0-18.73-8.384-18.73-18.727 0-10.342 8.38-18.726 18.73-18.726 10.34 0 18.72 8.384 18.72 18.726z" style="fill:#784421;stroke:#000;stroke-width:4.7594;stroke-linecap:round;stroke-linejoin:round" transform="matrix(.0871 0 0 .0871 234.654 25.555)"/><path d="M241.1-35.242c39.03-5.569 57.29 20.682 58.72 24.66 1.43 3.977-38.31 12.33-58.72-24.66z" style="fill:#d4aa00;fill-rule:evenodd;stroke:#000;stroke-width:3;stroke-linejoin:round" transform="matrix(.0871 0 0 .0871 234.654 25.555)"/><path d="M208.39-44.916c-6.89-12.484 7.32-27.552 7.32-27.552l-21.1-5.166s3.02 18.942-8.18 25.83" style="fill:#fc0;fill-rule:evenodd;stroke:#000;stroke-width:4.7594;stroke-linecap:round" transform="matrix(.0871 0 0 .0871 234.654 25.555)"/><path d="M224.73-80.284c0 10.343-8.38 18.727-18.73 18.727-10.34 0-18.72-8.384-18.72-18.727 0-10.342 8.38-18.726 18.72-18.726 10.35 0 18.73 8.384 18.73 18.726z" style="fill:#784421;stroke:#000;stroke-width:4.7594;stroke-linecap:round;stroke-linejoin:round" transform="matrix(.0871 0 0 .0871 234.654 25.555)"/><path d="M93.724-35.242c-39.026-5.569-57.285 20.682-58.717 24.66-1.433 3.977 38.309 12.33 58.717-24.66z" style="fill:#d4aa00;fill-rule:evenodd;stroke:#000;stroke-width:3;stroke-linejoin:round" transform="matrix(.0871 0 0 .0871 234.654 25.555)"/></g><g style="display:inline"><path d="M124.889 247.772c10.373-58.04 7.391-127.492 7.391-127.492l73.53-4.62s-.668 46.949 5.506 96.182" style="fill:#fc0;fill-rule:evenodd;stroke:#000;stroke-width:5.1437;stroke-linecap:round;stroke-linejoin:round" transform="matrix(-.11057 -.0459 .0459 -.11057 326.19 33.438)"/><path d="M199.75 181.23c0 11.96-6.86 21.65-15.34 21.65-8.47 0-15.34-9.69-15.34-21.65 0-11.96 6.87-21.66 15.34-21.66 8.48 0 15.34 9.7 15.34 21.66z" style="fill:#784421" transform="matrix(-.11057 -.0459 .0459 -.11057 326.19 33.438)"/><path d="M167.68-64.425c-24.85 0-45.02 8.495-59.85 22.669-.62-.52-1.46-.982-2.56-1.524C44.734-56.211 23.905-12.688 23.134-5.791c-.771 6.896 42.007 17.659 64.758-7.772l.784-.877C81.945.219 78.417 17.222 78.417 35.355c0 55.075 61.213 99.785 89.263 99.785 29.14 0 89.27-44.71 89.27-99.785 0-18.337-3.78-35.52-10.84-50.29.44.497.76.855 1.22 1.372 22.75 25.431 65.53 14.668 64.76 7.772-.77-6.897-21.56-50.42-82.1-37.49-1.28.636-2.28 1.162-2.9 1.79-14.98-14.318-35.13-22.934-59.41-22.934z" style="fill:#fc0;stroke:#000;stroke-width:4.5074;stroke-linecap:round;stroke-linejoin:round" transform="matrix(-.11057 -.0459 .0459 -.11057 326.19 33.438)"/><path d="M163.28 20.748c0 15.244-12.35 27.603-27.6 27.603-15.24 0-27.6-12.359-27.59-27.603-.01-15.243 12.35-27.602 27.59-27.602 15.25 0 27.6 12.359 27.6 27.602zM227.48 20.748c.01 15.244-12.35 27.603-27.59 27.603s-27.6-12.359-27.6-27.603c0-15.243 12.36-27.602 27.6-27.602 15.24 0 27.6 12.359 27.59 27.602z" style="fill:#fff;stroke:#000;stroke-width:4.7594;stroke-linecap:round;stroke-linejoin:round" transform="matrix(-.11057 -.0459 .0459 -.11057 326.19 33.438)"/><path d="M202.96 25.619c0 5.081-4.12 9.201-9.2 9.201-5.08 0-9.2-4.12-9.2-9.201s4.12-9.201 9.2-9.201c5.08 0 9.2 4.12 9.2 9.201zM151.78 25.619c0 5.081-4.12 9.201-9.2 9.201-5.08 0-9.2-4.12-9.2-9.201s4.12-9.201 9.2-9.201c5.08 0 9.2 4.12 9.2 9.201zM187.9 99.444c-2.79 4.836-7.91 7.106-11.44 5.076-3.53-2.04-4.12-7.611-1.33-12.448 2.8-4.838 7.92-7.109 11.45-5.073 3.52 2.036 4.12 7.609 1.32 12.445zM148.04 99.444c2.79 4.836 7.92 7.106 11.44 5.076 3.53-2.04 4.12-7.611 1.33-12.448-2.79-4.838-7.91-7.109-11.44-5.073-3.53 2.036-4.12 7.609-1.33 12.445z" style="fill:#000" transform="matrix(-.11057 -.0459 .0459 -.11057 326.19 33.438)"/><path d="M126.6-44.916c6.88-12.484-7.32-27.552-7.32-27.552l21.09-5.166s-3.01 18.942 8.18 25.83" style="fill:#fc0;fill-rule:evenodd;stroke:#000;stroke-width:4.7594;stroke-linecap:round" transform="matrix(-.11057 -.0459 .0459 -.11057 326.19 33.438)"/><path d="M146.8-80.284c0 10.343-8.38 18.727-18.72 18.727-10.35 0-18.73-8.384-18.73-18.727 0-10.342 8.38-18.726 18.73-18.726 10.34 0 18.72 8.384 18.72 18.726z" style="fill:#784421;stroke:#000;stroke-width:4.7594;stroke-linecap:round;stroke-linejoin:round" transform="matrix(-.11057 -.0459 .0459 -.11057 326.19 33.438)"/><path d="M241.1-35.242c39.03-5.569 57.29 20.682 58.72 24.66 1.43 3.977-38.31 12.33-58.72-24.66z" style="fill:#d4aa00;fill-rule:evenodd;stroke:#000;stroke-width:3;stroke-linejoin:round" transform="matrix(-.11057 -.0459 .0459 -.11057 326.19 33.438)"/><path d="M208.39-44.916c-6.89-12.484 7.32-27.552 7.32-27.552l-21.1-5.166s3.02 18.942-8.18 25.83" style="fill:#fc0;fill-rule:evenodd;stroke:#000;stroke-width:4.7594;stroke-linecap:round" transform="matrix(-.11057 -.0459 .0459 -.11057 326.19 33.438)"/><path d="M224.73-80.284c0 10.343-8.38 18.727-18.73 18.727-10.34 0-18.72-8.384-18.72-18.727 0-10.342 8.38-18.726 18.72-18.726 10.35 0 18.73 8.384 18.73 18.726z" style="fill:#784421;stroke:#000;stroke-width:4.7594;stroke-linecap:round;stroke-linejoin:round" transform="matrix(-.11057 -.0459 .0459 -.11057 326.19 33.438)"/><path d="M139.486 241.636c2.544-12.237 9.678-21.046 18.084-21.046 4.956 0 9.472 3.068 12.863 8.099z" style="fill:#784421" transform="matrix(-.11057 -.0459 .0459 -.11057 326.19 33.438)"/><path d="M93.724-35.242c-39.026-5.569-57.285 20.682-58.717 24.66-1.433 3.977 38.309 12.33 58.717-24.66z" style="fill:#d4aa00;fill-rule:evenodd;stroke:#000;stroke-width:3;stroke-linejoin:round" transform="matrix(-.11057 -.0459 .0459 -.11057 326.19 33.438)"/></g><path d="M250.084 47.535c0 1.527-.763 2.765-1.705 2.765-.942 0-1.705-1.238-1.705-2.765 0-1.527.763-2.765 1.705-2.765.942 0 1.705 1.238 1.705 2.765z" style="display:inline;fill:#784421;stroke-width:.0893866;stroke-linecap:butt"/><g style="display:inline"><path d="M929.84 266.53c-88.23 0-159.77 71.55-159.75 159.78-.02 88.24 71.52 159.78 159.75 159.78 88.26 0 159.76-71.54 159.76-159.78 0-12.34-1.4-24.33-4.1-35.87 1.6-2.94 2.7.93 8.8 7.06 5.9 21.5 15.5 43.66 26 116 13.8 20.94 4.9-2.99 4.2-12.78.2-39.83-24.1-119.74-32.8-135.99-8.9-16.68-40.8-48-61.5-62.7 0-.03-.1-.06-.1-.09-27.4-22.13-62.28-35.41-100.26-35.41z" style="fill:#fc0;stroke:#000;stroke-width:5.7;stroke-linecap:round;stroke-linejoin:round" transform="rotate(180 72.753 38.66) scale(.12056)"/><path d="M666.677 348.152c14.28-30.683 20.677-84.03 23.463-131.377h64.97c1.667 23.593 5.967 46.87 14.757 65.703" style="fill:#fc0;fill-rule:evenodd;stroke:none;stroke-width:5.6192;stroke-linecap:round;stroke-linejoin:round" transform="rotate(180 65.263 38.656) scale(.12056)"/><path d="M666.677 348.152c14.28-30.683 20.677-84.03 23.463-131.377M755.11 216.776c1.667 23.592 5.967 46.868 14.757 65.702" style="fill:none;fill-rule:evenodd;stroke:#000;stroke-width:5.6192;stroke-linecap:round;stroke-linejoin:round" transform="rotate(180 65.263 38.656) scale(.12056)"/><path d="M997.82 591.1c0 10.79 17.38 11.13 38.88 11.13 21.4 0 38.8.82 38.8-11.13 0-21.03-17.4-38.09-38.8-38.09-21.5 0-38.88 17.06-38.88 38.09zM860.59 590.64c0 10.79-17.4 11.13-38.85 11.13-21.44 0-38.85.82-38.85-11.13 0-21.03 17.41-38.09 38.85-38.09 21.45 0 38.85 17.06 38.85 38.09z" style="fill:#784421;stroke:#000;stroke-width:4.6389;stroke-linecap:round;stroke-linejoin:round" transform="rotate(180 72.753 38.66) scale(.12056)"/><path d="M1126.7 506.4c-5.4-.87-8.1-.23-10.4 3.34-3.4 5.06 3.2 17.69 9.3 26.92 3.4 5.13 1.3 12.45 1.3 12.45l2.4-10.09 3.7 4.52-.7-9.23 9 12.44-5-14.13 6.3 3.21c-.7-5.56-10.4-28.55-15.9-29.43z" style="fill:#784421;fill-rule:evenodd;stroke:#000;stroke-width:2;stroke-linejoin:round" transform="rotate(180 72.753 38.66) scale(.12056)"/><path d="M987.43 369.1c-15.97-23.5-16.5-51.42-1.19-62.35 15.36-10.93 40.66-.73 56.66 22.78 16 23.5 16.5 51.42 1.2 62.35s-40.7.73-56.67-22.78zM1021.9 497.06c6.3-10.52 16.3-16.08 22.4-12.43 6.1 3.65 6 15.13-.3 25.64-6.3 10.52-16.3 16.08-22.4 12.43-6.1-3.65-6-15.13.3-25.64zM1086.1 439.31c-1.7 20.43-6 36.93-9.4 36.93-7.9 0-19.2-16.14-19.2-36.93 0-20.78 16.4-39.63 24.3-39.63 7.9 0 4.3 30.85 4.3 39.63zM862.74 366.08c-6.74 15.7-23.66 23.5-37.79 17.43-14.13-6.08-20.11-23.72-13.36-39.42 6.75-15.7 23.67-23.5 37.8-17.42 14.12 6.07 20.1 23.72 13.35 39.41zM877.83 255.09c0 11.95-6.87 21.65-15.34 21.65-8.47 0-15.34-9.7-15.34-21.65 0-11.96 6.87-21.66 15.34-21.66 8.47 0 15.34 9.7 15.34 21.66zM909.78 416.32c.37 11.95-8.44 21.75-19.69 21.88-11.25.13-20.67-9.46-21.05-21.41-.37-11.96 8.44-21.76 19.69-21.89 11.25-.13 20.67 9.46 21.05 21.42zM860.45 482.11c0 11.96-7.85 21.66-17.53 21.66-9.68 0-17.53-9.7-17.53-21.66s7.85-21.65 17.53-21.65c9.68 0 17.53 9.69 17.53 21.65zM977.01 479.09c0 17.08-12.47 30.93-27.84 30.93-15.38 0-27.84-13.85-27.84-30.93 0-17.09 12.46-30.94 27.84-30.94 15.37 0 27.84 13.85 27.84 30.94zM947.78 340.32c.37 11.95-8.44 21.75-19.69 21.88-11.25.13-20.67-9.46-21.05-21.41-.37-11.96 8.44-21.76 19.69-21.89 11.25-.13 20.67 9.46 21.05 21.42z" style="fill:#784421" transform="rotate(180 72.753 38.66) scale(.12056)"/></g><g style="display:inline"><path d="M812.403 244.084c5.51-62.273 3.767-123.574 3.767-123.574l71-22.074s-15.99 80.684-4.543 145.63" style="fill:#fc0;fill-rule:evenodd;stroke:#000;stroke-width:5.6192;stroke-linecap:round;stroke-linejoin:round" transform="matrix(-.12056 0 0 .12056 222.307 21.683)"/><path d="M887.62 100.83c18.33-21.864 19.07-46.333 21.26-59.329 2.19-12.996.71-20.281-2.41-34.409s-12.73-38.752-33.33-51.596c-14.73-12.441-31.39-14.484-51.47-10.301-7.21 1.923-26.26 8.673-31.84 13.379-11.03 6.814-22.47 19.242-31.79 32.966-29.14 46.738-39.02 105.04-20.87 126.95 9.29 11.22 63.09 16.64 79.15 13.62" style="fill:#fc0;stroke:#000;stroke-width:4.5074;stroke-linecap:round;stroke-linejoin:round" transform="matrix(-.12056 0 0 .12056 222.307 21.683)"/><path d="M782.08-31.613c6.89-12.484-7.32-27.551-7.32-27.551l21.09-5.166s-3.01 18.941 8.18 25.829" style="fill:#fc0;fill-rule:evenodd;stroke:#000;stroke-width:4.7594;stroke-linecap:round" transform="matrix(-.12056 0 0 .12056 222.307 21.683)"/><path d="M797.93-75.379c0 10.342-8.38 18.726-18.73 18.726-10.34 0-18.72-8.384-18.72-18.726 0-10.343 8.38-18.727 18.72-18.727 10.35 0 18.73 8.384 18.73 18.727z" style="fill:#784421;stroke:#000;stroke-width:4.7594;stroke-linecap:round;stroke-linejoin:round" transform="matrix(-.12056 0 0 .12056 222.307 21.683)"/><path d="M739.42 91.233c2.79-4.838 7.91-7.109 11.44-5.073 3.53 2.036 4.12 7.609 1.33 12.445-2.79 4.835-7.92 7.105-11.44 5.075-3.53-2.04-4.12-7.61-1.33-12.447z" style="fill:#000" transform="matrix(-.12056 0 0 .12056 222.307 21.683)"/><path d="M802.89 30.464c-7.57 13.321-23.14 18.761-34.76 12.149-11.62-6.611-14.9-22.769-7.32-36.086 7.58-13.321 23.14-18.761 34.76-12.15 11.62 6.611 14.9 22.77 7.32 36.087z" style="fill:#fff;stroke:#000;stroke-width:4.4692;stroke-linecap:round;stroke-linejoin:round" transform="matrix(-.12056 0 0 .12056 222.307 21.683)"/><path d="M781.77 24.081c-2.53 4.44-7.71 6.253-11.59 4.05-3.87-2.204-4.96-7.59-2.44-12.029 2.53-4.441 7.72-6.254 11.59-4.05 3.87 2.204 4.97 7.59 2.44 12.029z" style="fill:#000" transform="matrix(-.12056 0 0 .12056 222.307 21.683)"/><path d="M846.87 16.187c-4.5-20.111 2.6-39.074 15.84-42.354 13.24-3.281 27.61 10.364 32.11 30.475 4.49 20.111-2.6 39.074-15.85 42.354-13.24 3.281-27.61-10.364-32.1-30.475zM851.5 130.85c-.67-9.54 4.27-17.65 11.03-18.12 6.75-.47 12.77 6.87 13.43 16.41.67 9.53-4.27 17.64-11.02 18.12-6.76.47-12.77-6.88-13.44-16.41zM889.25 84.811c-5.12 9.255-13.32 14.519-18.31 11.758-4.98-2.761-4.88-12.502.25-21.756 5.12-9.255 13.31-14.519 18.3-11.758 4.99 2.761 4.88 12.501-.24 21.756z" style="fill:#784421" transform="matrix(-.12056 0 0 .12056 222.307 21.683)"/><path d="M817.14-34.237c18.74-19.799 21.21 4.243 24.04 17.678-7.14 22.827-16.99 35.454-28.28 4.95" style="fill:none;stroke:#000;stroke-width:5.7;stroke-linecap:round" transform="matrix(-.12056 0 0 .12056 222.307 21.683)"/><path d="M818.05-25.129c11.77-15.138 14.46 1.476 15.91 8.39-7.09 15.049-11.32 14.252-15.97-.281" style="fill:#d4aa00;fill-rule:evenodd;stroke:#000;stroke-width:3;stroke-linecap:round" transform="matrix(-.12056 0 0 .12056 222.307 21.683)"/><path d="M839.75 177.22c0 11.96-5.52 21.65-12.34 21.65-6.81 0-12.34-9.69-12.34-21.65 0-11.96 5.53-21.66 12.34-21.66 6.82 0 12.34 9.7 12.34 21.66z" style="fill:#784421" transform="matrix(-.12056 0 0 .12056 222.307 21.683)"/></g><g style="display:inline"><g aria-label="ZYRAFY" style="font-size:73.5279px;line-height:1.25;font-family:OCR-A;-inkscape-font-specification:OCR-A;letter-spacing:0;word-spacing:0;display:inline;opacity:1;fill:#fc0;fill-opacity:1;stroke:none;stroke-width:15.4008;paint-order:markers stroke fill"><path d="M582.872-264.33q3.068.547 7.018.715l14.036 1.723q2.858.588 6.304 2.1l4.916 3.195q1.85 1.723 3.867 4.538 1.302 2.648 2.1 6.304-1.008 2.395-2.815 5.631-1.807 1.891-4.58 3.488-2.354 1.05-5.253 3.152-2.438.924-5.253 2.815l-5.59 1.765q-2.563 1.051-5.253 3.152l-5.63 2.101q-2.228 1.555-5.254 2.774l-1.05 1.765 1.765.378.672-.378h.714l1.051-.336 12.607-2.48q2.732-.798 6.346-1.05l12.943-1.723h3.53l3.824-.715h4.581l2.437 1.387q2.27 1.219 4.917 3.152 1.765 1.975 3.488 4.917l.715 2.48-1.765 3.487-3.152 1.765-2.438-.714-13.657.714-5.968 1.05q-3.32.883-7.354 1.051-2.647.505-5.967.715l-10.885 1.723-1.05-.673-1.05.673q-3.11.714-7.019 1.05-2.941.547-6.64.715-3.025.546-7.017.714l-5.968.336-1.05-.336q-2.69-1.008-5.59-2.815l-3.53-4.581q-1.092-2.732-1.386-6.304.672-2.815 2.815-5.589l3.824-4.202 20.004-12.986q2.605-1.008 5.589-2.815l11.22-5.253 2.816-1.765-10.506-.336-6.682 1.05q-2.816.547-6.304 1.765l-13.321 3.152q-2.437-1.597-5.59-2.816l-3.151-5.253-.714-2.1 1.386-3.867q2.102-1.513 5.253-3.152l6.682-1.765q2.942-.84 6.64-1.387 3.278-.756 7.396-1.05z" style="font-size:86.0649px;fill:#fc0;fill-opacity:1;stroke:none" transform="matrix(.2631 0 0 .28335 -9.35 91.344)"/><path d="M662.596-257.492q1.651.144 3.482.754 1.293.467 2.514 1.472l2.477 1.76q.79 1.148 1.508 2.764l.251 2.693-.251.79-8.222 12.206-1.257 2.98q-.897 1.006-1.723 2.226l-2.98 5.53-1.005 2.979q-.682 1.185-1.257 2.729l-.969 2.98-1.005 9.98-.287 1.006.287 2.513q-.36 1.508-1.005 3.195-1.329.646-2.98 1.257l-3.232-.252-2.513-1.759q-.97-.897-2.262-1.723l-1.005-3.016-.754-7.683.754-7.504.503-2.477-.252-.754q.647-1.185.754-2.764-1.005-.826-2.226-1.724l-10.986-9.73-1.759-2.225q-1.149-.79-2.226-2.01l-1.974-1.975-1.76-2.478-.25-3.267q.968-1.077 2.225-2.01l3.231 1.005 3.267-.251 3.016 1.005 2.693 1.508 2.262 1.723 3.482 4.99q.97.826 2.01 1.975l3.232 3.519 1.005-.503q1.005-.79 1.975-2.01.502-1.293 1.256-2.729l3.232-4.955q.718-1.256 1.759-2.513l4.739-7.467zM698.21-254.655l14.685.754q1.76.18 3.985.754 1.688.43 3.734 1.472l7.216 2.764q1.58.79 3.016 2.226 1.436.826 2.98 2.226l1.975 3.016q1.148 1.544 1.256 3.482l.252 1.472q-.324 1.22-1.006 2.513l-2.226 2.729-5.995 4.236-3.734.754q-1.436.826-3.483.97l-7.467 1.256-.754-.251-.252.251-4.703.503 1.472 1.257 3.985 1.22q1.795.216 3.734.754l3.985.754h2.98l2.01.251 4.237-.25 4.237 1.004 3.23 1.724q1.33 1.04 2.478 2.728l.754 1.006-1.508 2.01q-1.256 1.005-2.98 1.723l-3.734.754-7.719.503-1.005-.251q-1.651-.431-4.236-.754l-4.452-.754-3.267-1.22q-1.652-.468-3.483-1.257l-12.207-3.232-2.226-.251-.25 1.723q0 1.975-.504 4.488-.071 1.975-.753 4.488-.539 1.651-1.975 3.231-.826.323-1.76 1.005l-1.723-.502q-1.687-.718-3.23-1.975-1.58-.395-2.765-2.01-1.436-1.006-2.226-2.729l-.252-2.262.503-3.734-.251-.466-.252-7.72.252-2.261-.252-2.478.252-3.23-.252-.755.754-8.473 1.006-4.236q.071-1.975.718-4.488l-.252-2.728.503-1.006 3.016-1.723q.933-.072 1.974-.503l.503.754 7.72-.502zm6.715 11.201-3.986.503q-1.723.036-4.236.502-2.154.108-2.98 2.226l-.503 4.237.503 1.76 2.477-.504q1.76-.071 4.237-.502h3.482l.754-.251h1.006l7.97-1.006 3.734-.97q1.723-.61 3.482-2.01l1.257-1.508-1.257-.969-7.216-1.256-.754.25zM773.354-254.655l6.391 2.297 2.55 2.047 2.045 2.298q.97 1.184 1.796 2.836l6.677 11.776q.61 1.436 1.796 2.549l3.59.538 5.098 2.8q.682 1.257 1.292 2.837-.754 1.4-2.549 2.298l-4.631 1.005 2.836 8.976 1.257 7.431q-.036 1.4-.503 2.8-1.328.898-3.052 1.293l-3.841-.502-3.088-1.795-2.297-2.047q-.862-1.364-1.544-3.087l-2.298-11.274-.539-1.256h-2.8l-14.863 2.297-3.052.754-2.334 2.298-5.35 8.222q-.969 1.184-1.794 2.8l-5.637 1.544q-.108-.251-.539-.503l-4.092-1.544q-1.185-1.005-2.298-2.297 0-1.365.502-2.837l6.678-11.524-1.543-3.052q.574-1.256 1.543-2.585l2.8-1.256 1.042.754 1.795-1.042 3.303-5.6 2.082-2.585 8.689-13.32q.861-1.257 2.046-2.55 1.257-.933 2.836-1.794zm3.59 16.658q-.753 1.113-1.794 2.298l-1.796 2.55-.79 2.584 2.837-.287 1.005.287 3.842-.538-.503-1.796-1.292-2.8q-.467-1.185-1.508-2.298zM865.228-254.799h4.596l.826.287 2.692 2.154q1.724.683 3.267 2.442.431 1.256.539 2.98l-.539.825q-1.328 1.042-3.267 1.867-1.867.288-4.057 1.365l-2.441-.252-2.154.79-13.535 2.442-3.519.287q-1.83.61-4.344 1.077l-4.057 1.077q-1.76.395-3.518 1.364l-8.15 2.693-.79 4.057q2.118-.108 4.596-.79l17.592-4.344q2.118-.108 4.344-.826l4.057-.251.826.251q2.118.18 4.344 1.364l2.98 2.442q1.256 1.508 1.328 3.805-.826 1.831-2.98 2.442l-4.595 1.077q-1.616.646-3.519 1.077-1.795.61-4.057 1.077l-4.344 1.077q-1.867.682-4.344 1.113-1.795.826-4.308 1.328-1.831.503-3.806 1.365l-4.057.538q-1.76.36-3.806 1.077l-.538-.538q-1.113 1.651-1.364 3.805l.287 2.98-.287 1.077v.826l-1.078 4.344q-1.148 1.077-2.692 1.867l-1.113.287-2.693-.287-.538-.79-2.729-2.19q-1.257-1.328-2.405-3.231l-.288-1.077.288-2.98v-.826l-.288-2.98 1.077-17.09.288-1.866-.288-.539.288-5.17-.288-1.902q.647-1.795 2.442-3.232l2.98.252 1.077-.539 11.92-3.77q1.471-.502 3.266-.825l4.057-1.616 1.077.251 2.729-.25.79-.288 17.628-2.154q2.082-.18 4.595-.826zM921.703-257.492q1.651.144 3.482.754 1.293.467 2.513 1.472l2.478 1.76q.79 1.148 1.508 2.764l.25 2.693-.25.79-8.222 12.206-1.257 2.98q-.897 1.006-1.723 2.226l-2.98 5.53-1.005 2.979q-.682 1.185-1.257 2.729l-.97 2.98-1.004 9.98-.288 1.006.288 2.513q-.36 1.508-1.006 3.195-1.328.646-2.98 1.257l-3.23-.252-2.514-1.759q-.97-.897-2.262-1.723l-1.005-3.016-.754-7.683.754-7.504.503-2.477-.252-.754q.647-1.185.754-2.764-1.005-.826-2.226-1.724l-10.986-9.73-1.759-2.225q-1.149-.79-2.226-2.01l-1.975-1.975-1.759-2.478-.251-3.267q.97-1.077 2.226-2.01l3.231 1.005 3.267-.251 3.016 1.005 2.693 1.508 2.262 1.723 3.482 4.99q.97.826 2.01 1.975l3.232 3.519 1.005-.503q1.005-.79 1.975-2.01.502-1.293 1.256-2.729l3.231-4.955q.718-1.256 1.76-2.513l4.739-7.467z" style="font-family:Komix;-inkscape-font-specification:Komix;fill:#fc0;fill-opacity:1;stroke:none" transform="matrix(.2631 0 0 .28335 -9.35 91.344)"/></g><path d="M598.414 589.541c-3.945 1.158-6.759 5.042-6.617 9.62.013.414.054.822.113 1.224l1.858-.106 2.423.766 3.133-1.89 1.756-3.735-.71-2.656a38.654 38.654 0 0 0-1.956-3.223z" style="font-size:86.0649px;line-height:1.25;font-family:OCR-A;-inkscape-font-specification:OCR-A;letter-spacing:0;word-spacing:0;fill:#784421;fill-opacity:1;stroke:none;stroke-width:15.8926;paint-order:markers stroke fill" transform="matrix(.26458 0 0 .26458 0 -126.684)"/><path d="m602.17 589.285-.71 7.602.75 8.228 1 3.229c.13.089.24.183.364.273 4.034-1.095 6.931-5.026 6.787-9.672-.157-4.94-3.705-8.996-8.191-9.66zM643.42 578.543a12.345 12.345 0 0 0-3.914.572l-.131 1.815.25 2.654-.25 2.422.25 8.265.248.5-.498 4 .25 2.422c.524 1.23 1.26 2.205 2.213 2.922.611.898 1.302 1.529 2.072 1.899 4.174-.945 7.992-4.031 9.944-8.57.23-.536.425-1.079.591-1.622.02-.36.03-.712.03-1.05l.25-1.846.306.037c.615-5.762-2.151-11.283-7.263-13.483a11.553 11.553 0 0 0-4.348-.937zM732.576 576.604c-5.149.015-9.861 2.723-11.85 7.347-1.433 3.333-1.17 7.005.407 10.2l.53-.878 2.32-2.46 3.035-.81 14.779-2.46h2.785l.535 1.346 1.27 6.713c.083-.17.163-.34.238-.514 2.766-6.439-.788-14.148-7.941-17.219a15.6 15.6 0 0 0-3.34-1.015l-2.473.271.147-.512c-.148-.004-.295-.01-.442-.01zM791.555 578.912c-5.45 0-9.866 3.578-9.866 7.988 0 2.753 1.72 5.18 4.336 6.616.142-.295.295-.582.467-.858l.537.576c1.357-.512 2.617-.898 3.784-1.154l4.033-.576a26.794 26.794 0 0 1 3.785-1.461c.82-.177 1.58-.383 2.285-.615a6.604 6.604 0 0 0 .508-2.528c0-4.41-4.42-7.988-9.87-7.988zM871.53 583.836a6.585 6.585 0 0 0-1.22.092c-4.348.739-7.133 5.692-6.22 11.064.856 5.04 4.663 8.659 8.72 8.479l.97-10.352.962-3.191c.381-1.102.798-2.076 1.25-2.922l.37-1.178c-1.401-1.232-3.085-1.96-4.833-1.992z" style="font-size:73.5279px;line-height:1.25;font-family:Komix;-inkscape-font-specification:Komix;letter-spacing:0;word-spacing:0;fill:#784421;fill-opacity:1;stroke:none;stroke-width:15.8926;paint-order:markers stroke fill" transform="matrix(.26458 0 0 .26458 0 -126.684)"/><path d="M554.686 573.67c-2.491-.043-4.817.595-6.778 1.996-3.45 2.464-5.133 6.826-5.074 11.898l.037-.066c2.006-.87 3.746-1.859 5.223-2.969l5.6-2.25c1.782-1.5 3.523-2.627 5.222-3.377l5.559-1.888.074-.051c-3.287-2.084-6.708-3.238-9.863-3.293zm17.68 10.502-7.516 1.076c-2.396.18-4.498.555-6.309 1.125l-12.537 2.656-1.045.36h-.709l-.67.406-.629-.147c.469 4.649 2.306 9.732 5.504 14.428.293.431.596.849.902 1.26l.827.57 10.822-1.845c2.2-.15 4.178-.406 5.933-.766 2.675-.12 5.112-.495 7.313-1.125l5.037-.955c-.34-4.845-2.196-10.22-5.559-15.168a35.612 35.612 0 0 0-1.365-1.875zM538.648 541.873l-1.335.217c-2.556.196-4.857.543-6.924 1.03-.682 2.94-1.27 6.752-1.618 10.935 0 1.696-.294 5.2-.359 8.674l4.346-1.108c2.312-.87 4.4-1.5 6.267-1.89l2.02-.342c.476-1.709.758-3.504.758-5.334 0-4.852-1.353-9.145-3.155-12.182zM618.715 554.576l-2.117 3.592a19.15 19.15 0 0 0-1.75 2.691l-3.213 5.307c-.5 1.025-.915 2-1.248 2.922-.015.02-.03.035-.045.055 1.658 3.1 4.81 5.19 8.363 5.148 5.126-.06 9.14-4.525 8.97-9.975-.165-5.22-4.117-9.451-8.96-9.74zM688.11 570.992c-5.45 0-9.87 3.131-9.87 6.99 0 1.895 1.066 3.612 2.795 4.872l.43-.079c1.356-.102 2.51-.447 3.463-1.037l3.713-.808 5.96-4.535 1.725-2.28c-1.768-1.882-4.789-3.123-8.217-3.123zM733.658 551.324a23.83 23.83 0 0 0-2.82 1.924 24.704 24.704 0 0 0-2.035 2.729l-1.008 1.664c3.61-.332 6.673-2.476 8.158-5.428zM887.299 550.838a8.857 8.857 0 0 0-1.414.142c-5.044.918-8.253 5.992-7.174 11.336.693 3.416 2.975 6.114 5.85 7.375l6.533-10.445.25-.846-.25-2.884c-.476-1.154-.977-2.141-1.5-2.961l-2.246-1.717h-.05z" style="display:inline;fill:#784421;fill-opacity:1;stroke-width:.455662" transform="matrix(.26458 0 0 .26458 0 -126.684)"/></g><g aria-label="ZYRAFY" style="font-size:73.5279px;line-height:1.25;font-family:OCR-A;-inkscape-font-specification:OCR-A;letter-spacing:0;word-spacing:0;display:inline;fill:#fc0;fill-opacity:1;stroke:#000;stroke-width:15.4008;paint-order:markers stroke fill"><path stroke="none" d="m544.354 192.607-1.245.204-6.76 1.093c-2.814.236-5.438.642-7.904 1.242-2.561.424-4.971.94-7.193 1.624l-7.318 2.082-.756.421c-2.327 1.304-4.362 2.603-6.164 4l-1.93 1.497-3.084 9.263 1.834 5.81 4.906 8.807 2.451 1.024c1.66.69 3.026 1.446 4.123 2.22l1.891 1.335-5.49 3.837-4.676 5.532-.187.263c-1.95 2.719-3.45 5.771-4.19 9.112l-.283 1.283.1 1.31c.245 3.212.836 6.273 1.9 9.137l.396 1.063 5 6.992 1.174.787c2.282 1.531 4.575 2.792 6.918 3.738l.176.07 2.574.887 7.24-.44c2.712-.122 5.19-.38 7.497-.798 2.453-.14 4.743-.415 6.906-.834 2.68-.268 5.211-.646 7.549-1.225l1.293-.322-.915.633 11.819-2.016a53.824 53.824 0 0 0 5.463-.724c2.89-.143 5.648-.547 8.271-1.254l5.313-1.006 11.812-.664 4.26 1.344c5.226-11.369-2.368-13.197 3.467-26.287l-.501-1.008-1.224-1c-1.978-1.555-1.335-3.682-3.232-4.78l.164.096-4.184-2.562h-7.29l-1.518.304c.762-.674 1.525-1.347 2.205-2.113l.674-.76.474-.916c1.295-2.496 2.347-4.742 3.172-6.851l.943-2.409-.52-2.552c-.631-3.119-1.492-5.99-2.698-8.631l-.278-.61-.369-.552c-1.551-2.333-3.116-4.352-4.848-6.09l-.49-.492-5.97-4.176-.573-.272c-2.663-1.259-5.232-2.205-7.8-2.775l-.303-.068-14.569-1.924-.304-.016c-2.351-.108-4.353-.336-5.961-.644zm-.104 8.358c2.034.39 4.36.645 6.979.765l13.957 1.844c1.894.42 3.983 1.17 6.267 2.25l4.889 3.422c1.226 1.23 2.506 2.85 3.844 4.86.863 1.89 1.56 4.14 2.09 6.75-.67 1.71-1.602 3.72-2.8 6.03-1.197 1.35-2.716 2.597-4.554 3.737-1.56.75-3.303 1.875-5.225 3.375-1.615.66-3.356 1.666-5.222 3.016l-5.559 1.888c-1.7.75-3.44 1.877-5.223 3.377l-5.6 2.25c-1.476 1.11-3.216 2.1-5.222 2.971l-1.045 1.889 1.754.406.67-.406h.709l1.045-.36 12.537-2.656c1.81-.57 3.913-.945 6.309-1.125l12.87-1.844h3.51l3.803-.765h4.555l2.424 1.484c1.504.87 3.133 1.997 4.888 3.377l-.709 13.545-2.423-.766-13.582.766-5.934 1.125c-2.2.63-4.638 1.005-7.313 1.125-1.755.36-3.732.616-5.933.766l-10.822 1.845-1.045-.72-1.045.72c-2.062.51-4.388.885-6.979 1.125-1.95.39-4.15.646-6.601.766-2.006.39-4.332.644-6.979.764l-5.933.36-1.045-.36c-1.783-.72-3.637-1.726-5.559-3.016l-3.51-4.904c-.724-1.95-1.184-4.202-1.379-6.752.446-2.01 1.38-4.005 2.801-5.985l3.803-4.5 19.889-13.906c1.727-.72 3.58-1.725 5.558-3.016l11.156-5.627 2.801-1.888-10.447-.362-6.645 1.125c-1.866.39-3.955 1.021-6.267 1.891l-13.246 3.375c-1.616-1.14-3.47-2.144-5.559-3.014l-3.133-5.627-.71-2.25 1.378-4.14c1.393-1.08 3.136-2.205 5.225-3.375l6.642-1.89c1.95-.6 4.152-1.095 6.604-1.485 2.173-.54 4.623-.915 7.354-1.125z" style="color:#000;-inkscape-font-specification:OCR-A;fill:#000;stroke:none;stroke-width:15.8926;-inkscape-stroke:none" transform="matrix(.26458 0 0 .26458 0 -36.725)"/><path stroke="none" d="m621.16 199.79-2.385 2.028-3.234 2.752-5.193 8.817a27.234 27.234 0 0 0-1.952 3.031l-1.445 2.387-2.61-4.03-3.632-2.978-3.78-2.281-5.152-1.85-3.328.275-5.53-1.853-3.124 2.5c-1.208.966 4.104 4.715 3.097 5.92 1.817 6.575 1.877 11.017-4.617 14.346l2.42 2.605-.328-.375c.625.763 1.403 1.378 2.123 2.049l1.996 2.72 9.864 9.407.449 1.457-.168.9-.865 9.262.91 9.963 2.129 6.88 2.283 1.571c.528.363.913.691 1.17.947l.383.383 4.64 3.498 6.971.582 1.574-.625a38.678 38.678 0 0 0 3.658-1.664l2.721-1.428 1.078-3.04a37.42 37.42 0 0 0 1.301-4.462l.31-1.408-.265-2.502.055-.209.986-10.539.635-2.096c.246-.7.488-1.256.677-1.61l.38-.708 1.033-3.3 2.406-4.803c.32-.491.634-.946.933-1.307l.848-1.023 1.457-3.72 8.373-13.388 1.055-3.57-.512-5.899-.51-1.236c-.625-1.516-1.328-2.937-2.187-4.283l-.77-1.205-3.568-2.73.434.359c-1.384-1.228-2.984-2.275-4.768-2.97l-.088-.034-.09-.032c-1.698-.61-3.436-1.032-5.22-1.199zm2.363 8.497c1.095.103 2.25.373 3.463.809.857.333 1.691.858 2.5 1.576l2.463 1.883c.524.82 1.022 1.807 1.498 2.96l.25 2.885-.25.846-8.174 13.072-1.25 3.192a22.362 22.362 0 0 0-1.712 2.383l-2.965 5.921-.998 3.192c-.453.846-.87 1.82-1.25 2.922l-.965 3.191-.998 10.688-.287 1.078.287 2.691a28.847 28.847 0 0 1-1 3.422c-.88.461-1.868.91-2.963 1.346l-3.213-.27-2.5-1.885a16.08 16.08 0 0 0-2.248-1.845l-1-3.229-.75-8.228.75-8.035.5-2.655-.25-.806c.428-.846.679-1.833.75-2.961a53.18 53.18 0 0 0-2.215-1.846l-10.924-10.42-1.748-2.383c-.761-.564-1.5-1.28-2.215-2.152l1.465-9.344 3.248-.27 3 1.077 2.676 1.615 2.25 1.846 3.463 5.343c.643.59 1.308 1.295 1.998 2.116l3.215 3.767.998-.537c.666-.564 1.322-1.283 1.965-2.154.333-.923.748-1.897 1.248-2.922l3.213-5.307a19.15 19.15 0 0 1 1.75-2.691l4.713-7.996zm-14.363 13.338.69.809.035.04c-.25-.297-.525-.536-.78-.82z" style="color:#000;-inkscape-font-specification:Komix;fill:#000;stroke:none;stroke-width:15.8926;-inkscape-stroke:none" transform="matrix(.26458 0 0 .26458 0 -36.725)"/><path stroke="none" d="m649.932 201.654-5.717 2.547-1.434.12-6.506 4.005-2.513 5.412.377 4.407c-.224 1.19-.466 2.378-.59 3.564l-1.002 4.557-.94 11.375.264.853-.183 2.533.238 2.516-.223 2.14.326 10.794-.076-.153-.293 2.35.49 4.748.512 1.207a15.595 15.595 0 0 0 4.416 5.871c.934 1.022 2.007 1.843 3.262 2.549 1.385 1.14 2.848 2.182 4.46 2.922l.419.191 5.767 1.813 3.043-2.395c.094-.074.14-.101.16-.113l1.532-.647 1.207-1.427c1.525-1.807 2.822-3.955 3.578-6.452l.058-.197.051-.201c.308-1.22.373-2.413.55-3.611l5.792 1.65c1.027.446 2.052.875 3.076 1.215l3.758 1.512 5.31.968.165.022c1.497.201 2.625.434 3.228.603l.04.012 2.197.592 9.382-.656 4.955-1.079.694-.312a20.61 20.61 0 0 0 2.861-1.56l-2.952-3.9 6.983-12.173.203.305c-1.121-1.775-2.45-3.406-4.068-4.772l-.53-.445-3.18-1.828.794-.607 3.358-4.432.355-.725a21.983 21.983 0 0 0 1.63-4.431l.425-1.73-.493-3.118c-.26-2.66-1.21-5.351-2.689-7.492l.262.406-2.5-4.113-.725-.707c-.943-.921-1.982-1.65-3.012-2.403-1.376-1.427-2.92-2.692-4.67-3.634l-.333-.18-7.25-2.99c-1.578-.835-3.155-1.517-4.823-1.977-1.758-.488-3.434-.843-5.094-1.025l-.189-.022-15.758-.869-.943.205-3.21.697-2.747.194zm9.005 9.67 14.602.809c1.166.128 2.487.396 3.963.806 1.119.308 2.356.833 3.713 1.577l7.176 2.96c1.047.564 2.046 1.36 2.998 2.385.952.59 1.94 1.383 2.963 2.383l1.962 3.23c.762 1.103 1.18 2.345 1.25 3.73l.25 1.575a13.411 13.411 0 0 1-1 2.692l-2.212 2.924-5.961 4.535-3.713.808c-.952.59-2.107.935-3.463 1.037l-7.426 1.346-.75-.267-.25.267-4.676.54 1.463 1.345 3.963 1.306a23.48 23.48 0 0 1 3.713.81l3.963.806h2.963l1.998.27 4.213-.27 4.213 1.076 3.212 1.846c.881.743 1.702 1.717 2.463 2.921l.75 1.077-1.5 2.154c-.833.718-1.82 1.333-2.963 1.846l-3.712.806-7.674.54-1-.27c-1.095-.308-2.5-.576-4.213-.807l-4.428-.808-3.248-1.307a26.752 26.752 0 0 1-3.463-1.346l-12.137-3.46-2.214-.27-.25 1.845c0 1.41-.167 3.013-.5 4.807-.048 1.41-.296 3.012-.748 4.807-.357 1.179-1.013 2.33-1.965 3.459-.548.23-1.13.59-1.748 1.078l-1.715-.54c-1.119-.512-2.19-1.217-3.213-2.114-1.047-.282-1.963-1-2.748-2.153-.952-.717-1.69-1.691-2.213-2.922l-.25-2.422.498-4-.248-.5-.25-8.265.25-2.422-.25-2.654.25-3.46-.25-.808.748-9.074 1-4.535c.048-1.41.286-3.013.715-4.807l-.25-2.922.5-1.076 2.998-1.846c.619-.051 1.273-.231 1.963-.539l.5.807 7.676-.537zm6.676 11.996-3.963.54c-.555.012-1.178.065-1.857.15-.21.039-.368.056-.564.09-.57.083-1.144.169-1.792.298-1.427.077-2.415.87-2.962 2.383l-.5 4.537.5 1.885 2.464-.539c1.167-.051 2.57-.231 4.211-.539h3.463l.75-.268h1l7.926-1.078 3.713-1.037c1.142-.436 2.297-1.154 3.463-2.154l1.248-1.613-1.248-1.04-7.176-1.345-.75.27zm-3.533 32.246-.027.397-.158 1.168c.04-.516.128-1.043.185-1.565zm-.453 4.311-.08.74c.011-.175.02-.35.049-.531.003-.07.029-.14.03-.209z" style="color:#000;-inkscape-font-specification:Komix;fill:#000;stroke:none;stroke-width:15.8926;-inkscape-stroke:none" transform="matrix(.26458 0 0 .26458 0 -36.725)"/><path stroke="none" d="m733.012 202.31-3.02 1.774a31.365 31.365 0 0 0-3.72 2.545l-.586.469-.493.576a32.794 32.794 0 0 0-2.705 3.64l-.05.079-8.479 13.998-2.178 2.914-1.545 2.818-6.02 2.91-1.198 1.768a24.61 24.61 0 0 0-2.313 4.199l-1.533 3.611 1.324 2.82-1.842 3.425 3.861 3.587-1.415 5.69c-.567 1.788-6.694.958-6.694 2.945v3.06l1.856 2.319a29.51 29.51 0 0 0 3.133 3.367l1.011.926 2.64 1.072 1.497 3.76 15.295-4.512 1.539-3.24c.34-.716.655-1.219.893-1.531l.263-.348 5.094-8.432.23-.244.666-.177 10.2-1.7 1.312 6.924.248.676c.604 1.643 1.317 3.207 2.178 4.676l.578.98 3.666 3.518 5.066 3.174 6.711.945 1.34-.33a16.113 16.113 0 0 0 5.612-2.59l2.154-1.568.822-2.659a19.94 19.94 0 0 0 .89-5.396l.018-.799-1.46-9.308-.731-2.49c1.676-1.197 3.274-2.7 4.33-4.811l.234-3.39.166-3.491c.072-1.492-1.06-2.738-1.697-4.002l-1.072-2.127-8.238-4.873-1.616-.262-6.181-11.74c-.72-1.503-1.547-2.924-2.545-4.238l-.104-.133-2.564-3.106-4.031-3.486zm.646 9.014 6.354 2.461 2.535 2.192 2.035 2.46c.643.846 1.238 1.859 1.785 3.038l6.639 12.61a8.056 8.056 0 0 0 1.785 2.731l3.57.577 5.07 3c.453.897.881 1.909 1.286 3.037-.5 1-1.345 1.82-2.535 2.46l-4.606 1.077 2.82 9.611 1.25 7.96c-.023.999-.19 2-.5 3-.88.64-1.892 1.102-3.035 1.384l-3.82-.54-3.07-1.921-2.284-2.191a20.535 20.535 0 0 1-1.535-3.307l-2.285-12.074-.535-1.346h-2.785l-14.78 2.46-3.035.81-2.32 2.46-5.318 8.805c-.643.846-1.238 1.845-1.785 2.998l-5.606 1.654c-.071-.179-.25-.36-.535-.539l-4.07-1.654a21.547 21.547 0 0 1-2.286-2.459c0-.974.167-1.988.5-3.039l6.641-12.342-1.535-3.267c.38-.897.893-1.82 1.535-2.768l2.785-1.346 1.035.807 1.786-1.115 3.283-5.998 2.07-2.768 8.64-14.265a24.704 24.704 0 0 1 2.036-2.729 23.83 23.83 0 0 1 2.82-1.924zm3.569 17.842c-.5.795-1.095 1.613-1.786 2.459l-1.783 2.73-.787 2.77 2.82-.309 1 .309 3.82-.578-.5-1.922-1.284-3c-.31-.846-.81-1.664-1.5-2.459zm-1.22 4.877.276.363-.521.043z" style="color:#000;-inkscape-font-specification:Komix;fill:#000;stroke:none;stroke-width:15.8926;-inkscape-stroke:none" transform="matrix(.26458 0 0 .26458 0 -36.725)"/><path stroke="none" d="m824.045 202.924-.94.262c-1.337.37-2.46.574-3.32.654l-.137.014-18.529 2.437-.678.264-.492.05-2.205-.554-5.947 2.553c-1.089.254-2.177.498-3.207.877l.164-.06-12.428 4.233.313-.168-3.864-.351-2.382 2.054c-2.056 1.771-3.877 4.196-4.85 7.108l-.656 1.963.459 3.258-.362 6.992.094.191.05-.35-1.13 19.327.309 3.45v.093l-.383 4.275.92 3.723.564 1.004c.993 1.77 2.098 3.4 3.385 4.865l.36.412 2.232 1.93 1.886 2.98 7.579.87 3.271-.91.754-.415a19.376 19.376 0 0 0 4.426-3.324l1.652-1.668 1.84-7.994v-.81l.383-1.548-.049-.54 3.795-.546.986-.462a19.59 19.59 0 0 1 2.748-1.069c1.27-.327 2.456-.806 3.65-1.273 1.77-.335 3.438-.772 5.032-1.358l4.058-1.086c1.48-.341 2.87-.75 4.208-1.218a30.456 30.456 0 0 0 3.693-1.18l4.277-1.08.17-.049c3.113-.95 6.413-3.716 7.856-7.16l.728-1.74-.055-1.909c-.08-2.766-1.01-5.722-2.625-8.193l.778-.41c.92-.488 1.56-.67 1.82-.713l.95-.156.886-.406c1.773-.814 3.44-1.806 4.97-3.098l.999-.84-4.144-4.94 1.106-6.044c.322-1.763 5.132.375 4.561-1.416l-.492-1.54-.998-1.224c-1.198-1.47-2.702-2.706-4.365-3.74l-3.559-3.065-3.283-1.232zm.969 8.248h4.568l.822.307 2.678 2.306c1.142.487 2.225 1.36 3.248 2.615.286.898.464 1.961.535 3.192l-.535.885c-.88.743-1.963 1.408-3.248 1.998-1.238.205-2.583.692-4.035 1.46l-2.428-.267-2.142.846-13.457 2.613-3.5.309c-1.214.435-2.653.819-4.319 1.152l-4.035 1.154c-1.166.282-2.332.769-3.498 1.461l-8.104 2.883-.785 4.346c1.404-.077 2.926-.36 4.569-.846l17.494-4.652c1.404-.077 2.843-.373 4.318-.885l4.035-.27.82.27c1.405.128 2.845.615 4.32 1.46l2.964 2.616c.833 1.077 1.273 2.434 1.32 4.074-.547 1.307-1.535 2.18-2.963 2.615l-4.57 1.155a22.01 22.01 0 0 1-3.498 1.152c-1.19.436-2.534.821-4.033 1.154l-4.32 1.153c-1.238.487-2.679.885-4.32 1.193-1.19.59-2.618 1.063-4.284 1.422a26.793 26.793 0 0 0-3.785 1.46l-4.034.577c-1.166.256-2.426.642-3.783 1.154l-.537-.576c-.738 1.18-1.189 2.536-1.355 4.074l.285 3.192-.285 1.154v.883l-1.073 4.652a11.645 11.645 0 0 1-2.675 2l-1.108.309-2.677-.309-.536-.845-2.713-2.346c-.833-.949-1.63-2.103-2.392-3.461l-.285-1.152.285-3.192v-.885l-.285-3.191 1.07-18.3.285-2-.285-.577.285-5.537-.285-2.037c.428-1.282 1.238-2.436 2.428-3.461l2.963.27 1.072-.577 11.852-4.037a20.994 20.994 0 0 1 3.248-.885l4.035-1.73 1.07.27 2.713-.27.785-.307 17.53-2.308c1.38-.128 2.904-.422 4.57-.883z" style="color:#000;-inkscape-font-specification:Komix;fill:#000;stroke:none;stroke-width:15.8926;-inkscape-stroke:none" transform="matrix(.26458 0 0 .26458 0 -36.725)"/><path stroke="none" d="m878.805 199.79-2.385 2.028-3.232 2.752-5.204 8.828a27.25 27.25 0 0 0-1.927 2.993l-1.46 2.414-2.61-4.03-3.632-2.978-3.779-2.281-5.154-1.85-3.33.275-5.528-1.853-3.123 2.5a23.375 23.375 0 0 0-3.34 3.258l3.56 1.697-.23 8.728-1.51 6.583 2.42 2.605-.327-.375c.625.763 1.402 1.378 2.123 2.049l1.996 2.72 9.86 9.405.452 1.459-.168.9-.865 9.262.906 9.963 2.131 6.88 2.285 1.571c.528.363.912.691 1.168.947l.383.383 4.64 3.498 6.971.582 1.575-.625a38.679 38.679 0 0 0 3.658-1.664l2.719-1.428 1.082-3.04a37.394 37.394 0 0 0 1.297-4.462l.312-1.408-.266-2.502.057-.209.984-10.539.63-2.082c.248-.71.491-1.267.683-1.625l.379-.707 1.033-3.3 2.404-4.803c.32-.491.638-.946.938-1.307l.847-1.023 1.458-3.72 8.373-13.388 1.052-3.57-.511-5.899-.51-1.236c-.626-1.516-1.327-2.937-2.186-4.283l-.77-1.205-3.572-2.73.436.359c-1.384-1.228-2.981-2.275-4.766-2.97l-.09-.034-.09-.032c-1.697-.61-3.436-1.032-5.22-1.199zm2.363 8.497c1.095.103 2.25.373 3.463.809.857.333 1.69.858 2.5 1.576l2.463 1.883c.523.82 1.024 1.807 1.5 2.96l.25 2.885-.25.846-8.176 13.072-1.25 3.192a22.362 22.362 0 0 0-1.713 2.383l-2.963 5.921-1 3.192c-.452.846-.869 1.82-1.25 2.922l-.963 3.191-1 10.688-.285 1.078.285 2.691a28.847 28.847 0 0 1-1 3.422c-.88.461-1.868.91-2.963 1.346l-3.212-.27-2.499-1.885a16.102 16.102 0 0 0-2.25-1.845l-1-3.229-.75-8.228.75-8.035.5-2.655-.25-.806c.429-.846.68-1.833.75-2.961a53.06 53.06 0 0 0-2.212-1.846l-10.924-10.42-1.75-2.383c-.762-.564-1.5-1.28-2.213-2.152l-1.965-2.115-1.748-2.655-.25-3.498a15.436 15.436 0 0 1 2.213-2.152l3.213 1.076 3.248-.27 3 1.077 2.678 1.615 2.248 1.846 3.462 5.343c.643.59 1.31 1.295 2 2.116l3.213 3.767 1-.537c.667-.564 1.32-1.283 1.963-2.154.333-.923.75-1.897 1.25-2.922l3.213-5.307a19.131 19.131 0 0 1 1.748-2.691l4.713-7.996z" style="color:#000;-inkscape-font-specification:Komix;fill:#000;stroke:none;stroke-width:15.8926;-inkscape-stroke:none" transform="matrix(.26458 0 0 .26458 0 -36.725)"/></g></svg>