<?xml version="1.0" encoding="UTF-8" standalone="no"?>
<!-- Created with Inkscape (http://www.inkscape.org/) -->

<svg
   version="1.0"
   width="280"
   height="280"
   id="svg2"
   sodipodi:version="0.32"
   inkscape:version="1.1.2 (0a00cf5339, 2022-02-04)"
   sodipodi:docname="icon.svg"
   inkscape:output_extension="org.inkscape.output.svg.inkscape"
   inkscape:export-filename="/mnt/nfs/geokrety/templates/logo-jesien.png"
   inkscape:export-xdpi="131.54472"
   inkscape:export-ydpi="131.54472"
   xmlns:inkscape="http://www.inkscape.org/namespaces/inkscape"
   xmlns:sodipodi="http://sodipodi.sourceforge.net/DTD/sodipodi-0.dtd"
   xmlns="http://www.w3.org/2000/svg"
   xmlns:svg="http://www.w3.org/2000/svg"
   xmlns:rdf="http://www.w3.org/1999/02/22-rdf-syntax-ns#"
   xmlns:cc="http://creativecommons.org/ns#"
   xmlns:dc="http://purl.org/dc/elements/1.1/">
  <metadata
     id="metadata32">
    <rdf:RDF>
      <cc:Work
         rdf:about="">
        <dc:format>image/svg+xml</dc:format>
        <dc:type
           rdf:resource="http://purl.org/dc/dcmitype/StillImage" />
      </cc:Work>
    </rdf:RDF>
  </metadata>
  <sodipodi:namedview
     inkscape:window-height="1082"
     inkscape:window-width="1551"
     inkscape:pageshadow="2"
     inkscape:pageopacity="0.0"
     guidetolerance="10.0"
     gridtolerance="10.0"
     objecttolerance="10.0"
     borderopacity="1.0"
     bordercolor="#666666"
     pagecolor="#ffffff"
     id="base"
     showgrid="false"
     inkscape:zoom="1.1301219"
     inkscape:cx="158.39"
     inkscape:cy="280.05829"
     inkscape:window-x="3432"
     inkscape:window-y="264"
     inkscape:current-layer="svg2"
     inkscape:window-maximized="0"
     fit-margin-top="0"
     fit-margin-left="0"
     fit-margin-right="0"
     fit-margin-bottom="0"
     inkscape:pagecheckerboard="0"
     inkscape:snap-bbox="true"
     inkscape:bbox-nodes="true"
     showguides="true"
     inkscape:guide-bbox="true"
     inkscape:snap-smooth-nodes="true"
     inkscape:snap-intersection-paths="true">
    <sodipodi:guide
       position="0.0031022925,2.3378902"
       orientation="1,0"
       id="guide141595" />
    <sodipodi:guide
       position="0.0031022925,280"
       orientation="0,-1"
       id="guide142293" />
    <sodipodi:guide
       position="280,0"
       orientation="0,1"
       id="guide142375"
       inkscape:label=""
       inkscape:locked="false"
       inkscape:color="rgb(0,0,255)" />
    <sodipodi:guide
       position="280,0"
       orientation="1,0"
       id="guide142377" />
    <sodipodi:guide
       position="51.343263,259.99982"
       orientation="0,-1"
       id="guide148053" />
  </sodipodi:namedview>
  <defs
     id="defs4">
    <inkscape:path-effect
       effect="skeletal"
       id="path-effect147502"
       is_visible="true"
       lpeversion="1"
       pattern="m 14.504818,14.021376 h 0.89489"
       copytype="repeated_stretched"
       prop_scale="1"
       scale_y_rel="false"
       spacing="0"
       normal_offset="0"
       tang_offset="0"
       prop_units="false"
       vertical_pattern="false"
       hide_knot="false"
       fuse_tolerance="0" />
    <inkscape:path-effect
       effect="skeletal"
       id="path-effect143447"
       is_visible="true"
       lpeversion="1"
       pattern="M 3.3370863,9.9999945e-8 A 3.3339844,3.3339844 0 0 1 0.00310229,3.3339844 3.3339844,3.3339844 0 0 1 -3.3308827,9.9999945e-8 3.3339844,3.3339844 0 0 1 0.00310229,-3.3339843 3.3339844,3.3339844 0 0 1 3.3370863,9.9999945e-8 Z"
       copytype="repeated"
       prop_scale="1"
       scale_y_rel="false"
       spacing="1.7"
       normal_offset="0"
       tang_offset="0"
       prop_units="false"
       vertical_pattern="false"
       hide_knot="false"
       fuse_tolerance="0" />
    <inkscape:path-effect
       effect="skeletal"
       id="path-effect143425"
       is_visible="true"
       lpeversion="1"
       pattern="M 3.3370863,9.9999945e-8 A 3.3339844,3.3339844 0 0 1 0.00310229,3.3339844 3.3339844,3.3339844 0 0 1 -3.3308827,9.9999945e-8 3.3339844,3.3339844 0 0 1 0.00310229,-3.3339843 3.3339844,3.3339844 0 0 1 3.3370863,9.9999945e-8 Z"
       copytype="repeated_stretched"
       prop_scale="0.04"
       scale_y_rel="false"
       spacing="3.2"
       normal_offset="0.1"
       tang_offset="0"
       prop_units="false"
       vertical_pattern="false"
       hide_knot="false"
       fuse_tolerance="0" />
    <inkscape:path-effect
       effect="skeletal"
       id="path-effect143106"
       is_visible="true"
       lpeversion="1"
       pattern="m 14.504818,14.021376 h 0.89489"
       copytype="repeated_stretched"
       prop_scale="1"
       scale_y_rel="false"
       spacing="0"
       normal_offset="0"
       tang_offset="0"
       prop_units="false"
       vertical_pattern="false"
       hide_knot="false"
       fuse_tolerance="0" />
    <inkscape:path-effect
       effect="skeletal"
       id="path-effect143090"
       is_visible="true"
       lpeversion="1"
       pattern="M 0,0 H 1"
       copytype="repeated_stretched"
       prop_scale="1"
       scale_y_rel="false"
       spacing="0"
       normal_offset="0"
       tang_offset="0"
       prop_units="false"
       vertical_pattern="false"
       hide_knot="false"
       fuse_tolerance="0" />
    <inkscape:perspective
       sodipodi:type="inkscape:persp3d"
       inkscape:vp_x="0 : 17.129309 : 1"
       inkscape:vp_y="0 : 1000 : 0"
       inkscape:vp_z="197.98587 : 17.129309 : 1"
       inkscape:persp3d-origin="98.992935 : 11.419539 : 1"
       id="perspective34" />
    <inkscape:perspective
       id="perspective2736"
       inkscape:persp3d-origin="372.04724 : 350.78739 : 1"
       inkscape:vp_z="744.09448 : 526.18109 : 1"
       inkscape:vp_y="0 : 1000 : 0"
       inkscape:vp_x="0 : 526.18109 : 1"
       sodipodi:type="inkscape:persp3d" />
    <inkscape:perspective
       id="perspective3687"
       inkscape:persp3d-origin="372.04724 : 350.78739 : 1"
       inkscape:vp_z="744.09448 : 526.18109 : 1"
       inkscape:vp_y="0 : 1000 : 0"
       inkscape:vp_x="0 : 526.18109 : 1"
       sodipodi:type="inkscape:persp3d" />
    <inkscape:perspective
       id="perspective3743"
       inkscape:persp3d-origin="0.5 : 0.33333333 : 1"
       inkscape:vp_z="1 : 0.5 : 1"
       inkscape:vp_y="0 : 1000 : 0"
       inkscape:vp_x="0 : 0.5 : 1"
       sodipodi:type="inkscape:persp3d" />
    <linearGradient
       id="linearGradient4015">
      <stop
         style="stop-color:#ffffff;stop-opacity:0.37606838;"
         offset="0"
         id="stop4017" />
      <stop
         id="stop4023"
         offset="0.40085495"
         style="stop-color:#5c5c5c;stop-opacity:0.08547009;" />
      <stop
         style="stop-color:#1f1f1f;stop-opacity:0.44444445;"
         offset="1"
         id="stop4019" />
    </linearGradient>
  </defs>
  <g
     id="g143925" />
  <g
     id="g968"
     transform="matrix(6.346766,0,0,6.346766,25.758212,19.028125)">
    <path
       fill="#dd2e44"
       d="m 15,27 v 6 c 0,0 0,3 3,3 3,0 3,-3 3,-3 v -6 z"
       id="path2" />
    <path
       fill="#be1931"
       d="m 15,33 10e-4,0.037 c 1.041,-0.035 2.016,-0.274 2.632,-1.286 a 0.426,0.426 0 0 1 0.735,0 c 0.616,1.011 1.591,1.251 2.632,1.286 V 27 h -6 z"
       id="path4" />
    <path
       fill="#d99e82"
       d="m 31.954,21.619 c 0,6.276 -5,6.276 -5,6.276 h -18 c 0,0 -5,0 -5,-6.276 0,-6.724 5,-18.619 14,-18.619 9,0 14,12.895 14,18.619 z"
       id="path6" />
    <path
       fill="#f4c7b5"
       d="M 18,20 C 11,20 8,23.527 8,26.395 a 5.5,5.5 0 0 0 5.5,5.5 c 1.605,0 3.042,-0.664 4.049,-2.767 a 0.495,0.495 0 0 1 0.901,0 c 1.007,2.103 2.445,2.767 4.049,2.767 a 5.5,5.5 0 0 0 5.5,-5.5 C 28,23.527 25,20 18,20 Z"
       id="path8" />
    <path
       fill="#292f33"
       d="m 15,22.895 c -1,1 2,4 3,4 1,0 4,-3 3,-4 -1,-1 -5,-1 -6,0 z M 13,19 c -1.1,0 -2,-0.9 -2,-2 v -2 c 0,-1.1 0.9,-2 2,-2 1.1,0 2,0.9 2,2 v 2 c 0,1.1 -0.9,2 -2,2 z m 10,0 c -1.1,0 -2,-0.9 -2,-2 v -2 c 0,-1.1 0.9,-2 2,-2 1.1,0 2,0.9 2,2 v 2 c 0,1.1 -0.9,2 -2,2 z"
       id="path10" />
    <path
       fill="#662113"
       d="M 15,3.608 C 13.941,2.199 11.681,0.881 2.828,4.2 c -4.144,1.554 -2.12,13.604 1.107,14.385 1.106,0 4.426,0 4.426,-8.852 C 8.361,9.513 8.359,9.31 8.356,9.108 10.35,6.298 12.5,4.857 15,3.608 Z M 33.172,4.2 C 24.319,0.881 22.059,2.199 21,3.608 c 2.5,1.25 4.65,2.691 6.644,5.501 -0.003,0.201 -0.005,0.404 -0.005,0.625 0,8.852 3.319,8.852 4.426,8.852 C 35.292,17.804 37.316,5.754 33.172,4.2 Z"
       id="path12" />
    <circle
       fill="#d99e82"
       cx="23.5"
       cy="25.5"
       r="0.5"
       id="circle14" />
    <circle
       fill="#d99e82"
       cx="11.5"
       cy="25.5"
       r="0.5"
       id="circle16" />
    <circle
       fill="#d99e82"
       cx="25.5"
       cy="27.5"
       r="0.5"
       id="circle18" />
    <circle
       fill="#d99e82"
       cx="10.5"
       cy="27.5"
       r="0.5"
       id="circle20" />
    <circle
       fill="#d99e82"
       cx="23"
       cy="28"
       r="1"
       id="circle22" />
    <circle
       fill="#d99e82"
       cx="13"
       cy="28"
       r="1"
       id="circle24" />
    <path
       fill="#380f09"
       d="M 9.883,7.232 C 9.624,6.559 9.249,5.835 8.707,5.293 A 0.99984899,0.99984899 0 1 0 7.293,6.707 C 7.863,7.277 8.359,8.641 8.361,9.053 8.506,8.649 9.2,7.903 9.883,7.232 Z m 16.217,0 C 26.359,6.56 26.734,5.835 27.276,5.293 A 0.99984899,0.99984899 0 1 1 28.69,6.707 C 28.12,7.277 27.624,8.641 27.622,9.053 27.477,8.649 26.783,7.903 26.1,7.232 Z"
       id="path26" />
  </g>
</svg>
