<?xml version="1.0" encoding="UTF-8" standalone="no"?>
<!-- Created with Inkscape (http://www.inkscape.org/) -->

<svg
   version="1.0"
   width="280"
   height="280"
   id="svg2"
   sodipodi:version="0.32"
   inkscape:version="1.1.2 (0a00cf5339, 2022-02-04)"
   sodipodi:docname="0.svg"
   inkscape:output_extension="org.inkscape.output.svg.inkscape"
   inkscape:export-filename="/mnt/nfs/geokrety/templates/logo-jesien.png"
   inkscape:export-xdpi="131.54472"
   inkscape:export-ydpi="131.54472"
   xmlns:inkscape="http://www.inkscape.org/namespaces/inkscape"
   xmlns:sodipodi="http://sodipodi.sourceforge.net/DTD/sodipodi-0.dtd"
   xmlns="http://www.w3.org/2000/svg"
   xmlns:svg="http://www.w3.org/2000/svg"
   xmlns:rdf="http://www.w3.org/1999/02/22-rdf-syntax-ns#"
   xmlns:cc="http://creativecommons.org/ns#"
   xmlns:dc="http://purl.org/dc/elements/1.1/">
  <metadata
     id="metadata32">
    <rdf:RDF>
      <cc:Work
         rdf:about="">
        <dc:format>image/svg+xml</dc:format>
        <dc:type
           rdf:resource="http://purl.org/dc/dcmitype/StillImage" />
      </cc:Work>
    </rdf:RDF>
  </metadata>
  <sodipodi:namedview
     inkscape:window-height="1376"
     inkscape:window-width="2490"
     inkscape:pageshadow="2"
     inkscape:pageopacity="0.0"
     guidetolerance="10.0"
     gridtolerance="10.0"
     objecttolerance="10.0"
     borderopacity="1.0"
     bordercolor="#666666"
     pagecolor="#ffffff"
     id="base"
     showgrid="false"
     inkscape:zoom="1.4943987"
     inkscape:cx="222.49751"
     inkscape:cy="185.69341"
     inkscape:window-x="2560"
     inkscape:window-y="27"
     inkscape:current-layer="svg2"
     inkscape:window-maximized="1"
     fit-margin-top="0"
     fit-margin-left="0"
     fit-margin-right="0"
     fit-margin-bottom="0"
     inkscape:pagecheckerboard="0"
     inkscape:snap-bbox="true"
     inkscape:bbox-nodes="true"
     showguides="true"
     inkscape:guide-bbox="true"
     inkscape:snap-smooth-nodes="true"
     inkscape:snap-intersection-paths="true">
    <sodipodi:guide
       position="0.0031022925,2.3378902"
       orientation="1,0"
       id="guide141595" />
    <sodipodi:guide
       position="0.0031022925,280"
       orientation="0,-1"
       id="guide142293" />
    <sodipodi:guide
       position="280,0"
       orientation="0,1"
       id="guide142375"
       inkscape:label=""
       inkscape:locked="false"
       inkscape:color="rgb(0,0,255)" />
    <sodipodi:guide
       position="280,0"
       orientation="1,0"
       id="guide142377" />
    <sodipodi:guide
       position="51.343263,259.99982"
       orientation="0,-1"
       id="guide148053" />
  </sodipodi:namedview>
  <defs
     id="defs4">
    <inkscape:path-effect
       effect="skeletal"
       id="path-effect147502"
       is_visible="true"
       lpeversion="1"
       pattern="m 14.504818,14.021376 h 0.89489"
       copytype="repeated_stretched"
       prop_scale="1"
       scale_y_rel="false"
       spacing="0"
       normal_offset="0"
       tang_offset="0"
       prop_units="false"
       vertical_pattern="false"
       hide_knot="false"
       fuse_tolerance="0" />
    <inkscape:path-effect
       effect="skeletal"
       id="path-effect143447"
       is_visible="true"
       lpeversion="1"
       pattern="M 3.3370863,9.9999945e-8 A 3.3339844,3.3339844 0 0 1 0.00310229,3.3339844 3.3339844,3.3339844 0 0 1 -3.3308827,9.9999945e-8 3.3339844,3.3339844 0 0 1 0.00310229,-3.3339843 3.3339844,3.3339844 0 0 1 3.3370863,9.9999945e-8 Z"
       copytype="repeated"
       prop_scale="1"
       scale_y_rel="false"
       spacing="1.7"
       normal_offset="0"
       tang_offset="0"
       prop_units="false"
       vertical_pattern="false"
       hide_knot="false"
       fuse_tolerance="0" />
    <inkscape:path-effect
       effect="skeletal"
       id="path-effect143425"
       is_visible="true"
       lpeversion="1"
       pattern="M 3.3370863,9.9999945e-8 A 3.3339844,3.3339844 0 0 1 0.00310229,3.3339844 3.3339844,3.3339844 0 0 1 -3.3308827,9.9999945e-8 3.3339844,3.3339844 0 0 1 0.00310229,-3.3339843 3.3339844,3.3339844 0 0 1 3.3370863,9.9999945e-8 Z"
       copytype="repeated_stretched"
       prop_scale="0.04"
       scale_y_rel="false"
       spacing="3.2"
       normal_offset="0.1"
       tang_offset="0"
       prop_units="false"
       vertical_pattern="false"
       hide_knot="false"
       fuse_tolerance="0" />
    <inkscape:path-effect
       effect="skeletal"
       id="path-effect143106"
       is_visible="true"
       lpeversion="1"
       pattern="m 14.504818,14.021376 h 0.89489"
       copytype="repeated_stretched"
       prop_scale="1"
       scale_y_rel="false"
       spacing="0"
       normal_offset="0"
       tang_offset="0"
       prop_units="false"
       vertical_pattern="false"
       hide_knot="false"
       fuse_tolerance="0" />
    <inkscape:path-effect
       effect="skeletal"
       id="path-effect143090"
       is_visible="true"
       lpeversion="1"
       pattern="M 0,0 H 1"
       copytype="repeated_stretched"
       prop_scale="1"
       scale_y_rel="false"
       spacing="0"
       normal_offset="0"
       tang_offset="0"
       prop_units="false"
       vertical_pattern="false"
       hide_knot="false"
       fuse_tolerance="0" />
    <inkscape:perspective
       sodipodi:type="inkscape:persp3d"
       inkscape:vp_x="0 : 17.129309 : 1"
       inkscape:vp_y="0 : 1000 : 0"
       inkscape:vp_z="197.98587 : 17.129309 : 1"
       inkscape:persp3d-origin="98.992935 : 11.419539 : 1"
       id="perspective34" />
    <inkscape:perspective
       id="perspective2736"
       inkscape:persp3d-origin="372.04724 : 350.78739 : 1"
       inkscape:vp_z="744.09448 : 526.18109 : 1"
       inkscape:vp_y="0 : 1000 : 0"
       inkscape:vp_x="0 : 526.18109 : 1"
       sodipodi:type="inkscape:persp3d" />
    <inkscape:perspective
       id="perspective3687"
       inkscape:persp3d-origin="372.04724 : 350.78739 : 1"
       inkscape:vp_z="744.09448 : 526.18109 : 1"
       inkscape:vp_y="0 : 1000 : 0"
       inkscape:vp_x="0 : 526.18109 : 1"
       sodipodi:type="inkscape:persp3d" />
    <inkscape:perspective
       id="perspective3743"
       inkscape:persp3d-origin="0.5 : 0.33333333 : 1"
       inkscape:vp_z="1 : 0.5 : 1"
       inkscape:vp_y="0 : 1000 : 0"
       inkscape:vp_x="0 : 0.5 : 1"
       sodipodi:type="inkscape:persp3d" />
  </defs>
  <path
     id="rect147416"
     style="opacity:1;fill:#000000;fill-opacity:0.998697;stroke:#ff1300;stroke-width:0;stroke-linejoin:round;paint-order:markers fill stroke"
     d="M 10.003906 0 A 10.00009 10.00009 0 0 1 0.00390625 10 L 0.00390625 21.111328 A 10.00009 10.00009 0 0 1 10.003906 31.111328 A 10.00009 10.00009 0 0 1 0.00390625 41.111328 L 0.00390625 52.222656 A 10.00009 10.00009 0 0 1 10.003906 62.222656 A 10.00009 10.00009 0 0 1 0.00390625 72.222656 L 0.00390625 83.333984 A 10.00009 10.00009 0 0 1 10.003906 93.333984 A 10.00009 10.00009 0 0 1 0.00390625 103.33398 L 0.00390625 114.44531 A 10.00009 10.00009 0 0 1 10.003906 124.44531 A 10.00009 10.00009 0 0 1 0.00390625 134.44531 L 0.00390625 145.55469 A 10.00009 10.00009 0 0 1 10.003906 155.55469 A 10.00009 10.00009 0 0 1 0.00390625 165.55469 L 0.00390625 176.66602 A 10.00009 10.00009 0 0 1 10.003906 186.66602 A 10.00009 10.00009 0 0 1 0.00390625 196.66602 L 0.00390625 207.77734 A 10.00009 10.00009 0 0 1 10.003906 217.77734 A 10.00009 10.00009 0 0 1 0.00390625 227.77734 L 0.00390625 238.88867 A 10.00009 10.00009 0 0 1 10.003906 248.88867 A 10.00009 10.00009 0 0 1 0.00390625 258.88867 L 0.00390625 270 A 10.00009 10.00009 0 0 1 10.003906 280 L 21.113281 280 A 10.00009 10.00009 0 0 1 31.113281 270 A 10.00009 10.00009 0 0 1 41.113281 280 L 52.224609 280 A 10.00009 10.00009 0 0 1 62.224609 270 A 10.00009 10.00009 0 0 1 72.224609 280 L 83.335938 280 A 10.00009 10.00009 0 0 1 93.335938 270 A 10.00009 10.00009 0 0 1 103.33594 280 L 114.44531 280 A 10.00009 10.00009 0 0 1 124.44531 270 A 10.00009 10.00009 0 0 1 134.44531 280 L 145.55664 280 A 10.00009 10.00009 0 0 1 155.55664 270 A 10.00009 10.00009 0 0 1 165.55664 280 L 176.66797 280 A 10.00009 10.00009 0 0 1 186.66797 270 A 10.00009 10.00009 0 0 1 196.66797 280 L 207.7793 280 A 10.00009 10.00009 0 0 1 217.7793 270 A 10.00009 10.00009 0 0 1 227.7793 280 L 238.88867 280 A 10.00009 10.00009 0 0 1 248.88867 270 A 10.00009 10.00009 0 0 1 258.88867 280 L 270 280 A 10.00009 10.00009 0 0 1 280 270 L 280 258.88867 A 10.00009 10.00009 0 0 1 270 248.88867 A 10.00009 10.00009 0 0 1 280 238.88867 L 280 227.77734 A 10.00009 10.00009 0 0 1 270 217.77734 A 10.00009 10.00009 0 0 1 280 207.77734 L 280 196.66602 A 10.00009 10.00009 0 0 1 270 186.66602 A 10.00009 10.00009 0 0 1 280 176.66602 L 280 165.55469 A 10.00009 10.00009 0 0 1 270 155.55469 A 10.00009 10.00009 0 0 1 280 145.55469 L 280 134.44531 A 10.00009 10.00009 0 0 1 270 124.44531 A 10.00009 10.00009 0 0 1 280 114.44531 L 280 103.33398 A 10.00009 10.00009 0 0 1 270 93.333984 A 10.00009 10.00009 0 0 1 280 83.333984 L 280 72.222656 A 10.00009 10.00009 0 0 1 270 62.222656 A 10.00009 10.00009 0 0 1 280 52.222656 L 280 41.111328 A 10.00009 10.00009 0 0 1 270 31.111328 A 10.00009 10.00009 0 0 1 280 21.111328 L 280 10 A 10.00009 10.00009 0 0 1 270 0 L 258.88867 0 A 10.00009 10.00009 0 0 1 248.88867 10 A 10.00009 10.00009 0 0 1 238.88867 0 L 227.7793 0 A 10.00009 10.00009 0 0 1 217.7793 10 A 10.00009 10.00009 0 0 1 207.7793 0 L 196.66797 0 A 10.00009 10.00009 0 0 1 186.66797 10 A 10.00009 10.00009 0 0 1 176.66797 0 L 165.55664 0 A 10.00009 10.00009 0 0 1 155.55664 10 A 10.00009 10.00009 0 0 1 145.55664 0 L 134.44531 0 A 10.00009 10.00009 0 0 1 124.44531 10 A 10.00009 10.00009 0 0 1 114.44531 0 L 103.33594 0 A 10.00009 10.00009 0 0 1 93.335938 10 A 10.00009 10.00009 0 0 1 83.335938 0 L 72.224609 0 A 10.00009 10.00009 0 0 1 62.224609 10 A 10.00009 10.00009 0 0 1 52.224609 0 L 41.113281 0 A 10.00009 10.00009 0 0 1 31.113281 10 A 10.00009 10.00009 0 0 1 21.113281 0 L 10.003906 0 z M 20 20 L 20.896484 20 L 21.791016 20 L 22.6875 20 L 23.582031 20 L 24.478516 20 L 25.373047 20 L 26.269531 20 L 27.164062 20 L 28.060547 20 L 28.955078 20 L 29.851562 20 L 30.746094 20 L 31.642578 20 L 32.537109 20 L 33.433594 20 L 34.328125 20 L 35.224609 20 L 36.119141 20 L 37.015625 20 L 37.910156 20 L 38.806641 20 L 39.701172 20 L 40.597656 20 L 41.492188 20 L 42.388672 20 L 43.283203 20 L 44.179688 20 L 45.074219 20 L 45.970703 20 L 46.865234 20 L 47.761719 20 L 48.65625 20 L 49.552734 20 L 50.447266 20 L 51.34375 20 L 52.238281 20 L 53.134766 20 L 54.029297 20 L 54.925781 20 L 55.820312 20 L 56.716797 20 L 57.611328 20 L 58.507812 20 L 59.402344 20 L 60.298828 20 L 61.193359 20 L 62.089844 20 L 62.984375 20 L 63.880859 20 L 64.775391 20 L 65.671875 20 L 66.566406 20 L 67.462891 20 L 68.357422 20 L 69.253906 20 L 70.148438 20 L 71.044922 20 L 71.939453 20 L 72.835938 20 L 73.730469 20 L 74.626953 20 L 75.521484 20 L 76.417969 20 L 77.3125 20 L 78.208984 20 L 79.103516 20 L 80 20 L 80.894531 20 L 81.791016 20 L 82.6875 20 L 83.582031 20 L 84.478516 20 L 85.373047 20 L 86.269531 20 L 87.164062 20 L 88.060547 20 L 88.955078 20 L 89.851562 20 L 90.746094 20 L 91.642578 20 L 92.537109 20 L 93.433594 20 L 94.328125 20 L 95.224609 20 L 96.119141 20 L 97.015625 20 L 97.910156 20 L 98.806641 20 L 99.701172 20 L 100.59766 20 L 101.49219 20 L 102.38867 20 L 103.2832 20 L 104.17969 20 L 105.07422 20 L 105.9707 20 L 106.86523 20 L 107.76172 20 L 108.65625 20 L 109.55273 20 L 110.44727 20 L 111.34375 20 L 112.23828 20 L 113.13477 20 L 114.0293 20 L 114.92578 20 L 115.82031 20 L 116.7168 20 L 117.61133 20 L 118.50781 20 L 119.40234 20 L 120.29883 20 L 121.19336 20 L 122.08984 20 L 122.98438 20 L 123.88086 20 L 124.77539 20 L 125.67188 20 L 126.56641 20 L 127.46289 20 L 128.35742 20 L 129.25391 20 L 130.14844 20 L 131.04492 20 L 131.93945 20 L 132.83594 20 L 133.73047 20 L 134.62695 20 L 135.52148 20 L 136.41797 20 L 137.3125 20 L 138.20898 20 L 139.10352 20 L 140 20 L 140.89453 20 L 141.79102 20 L 142.68555 20 L 143.58203 20 L 144.47656 20 L 145.37305 20 L 146.26953 20 L 147.16406 20 L 148.06055 20 L 148.95508 20 L 149.85156 20 L 150.74609 20 L 151.64258 20 L 152.53711 20 L 153.43359 20 L 154.32812 20 L 155.22461 20 L 156.11914 20 L 157.01562 20 L 157.91016 20 L 158.80664 20 L 159.70117 20 L 160.59766 20 L 161.49219 20 L 162.38867 20 L 163.2832 20 L 164.17969 20 L 165.07422 20 L 165.9707 20 L 166.86523 20 L 167.76172 20 L 168.65625 20 L 169.55273 20 L 170.44727 20 L 171.34375 20 L 172.23828 20 L 173.13477 20 L 174.0293 20 L 174.92578 20 L 175.82031 20 L 176.7168 20 L 177.61133 20 L 178.50781 20 L 179.40234 20 L 180.29883 20 L 181.19336 20 L 182.08984 20 L 182.98438 20 L 183.88086 20 L 184.77539 20 L 185.67188 20 L 186.56641 20 L 187.46289 20 L 188.35742 20 L 189.25391 20 L 190.14844 20 L 191.04492 20 L 191.93945 20 L 192.83594 20 L 193.73047 20 L 194.62695 20 L 195.52148 20 L 196.41797 20 L 197.3125 20 L 198.20898 20 L 199.10352 20 L 200 20 L 200.89453 20 L 201.79102 20 L 202.68555 20 L 203.58203 20 L 204.47656 20 L 205.37305 20 L 206.26758 20 L 207.16406 20 L 208.06055 20 L 208.95508 20 L 209.85156 20 L 210.74609 20 L 211.64258 20 L 212.53711 20 L 213.43359 20 L 214.32812 20 L 215.22461 20 L 216.11914 20 L 217.01562 20 L 217.91016 20 L 218.80664 20 L 219.70117 20 L 220.59766 20 L 221.49219 20 L 222.38867 20 L 223.2832 20 L 224.17969 20 L 225.07422 20 L 225.9707 20 L 226.86523 20 L 227.76172 20 L 228.65625 20 L 229.55273 20 L 230.44727 20 L 231.34375 20 L 232.23828 20 L 233.13477 20 L 234.0293 20 L 234.92578 20 L 235.82031 20 L 236.7168 20 L 237.61133 20 L 238.50781 20 L 239.40234 20 L 240.29883 20 L 241.19336 20 L 242.08984 20 L 242.98438 20 L 243.88086 20 L 244.77539 20 L 245.67188 20 L 246.56641 20 L 247.46289 20 L 248.35742 20 L 249.25391 20 L 250.14844 20 L 251.04492 20 L 251.93945 20 L 252.83594 20 L 253.73047 20 L 254.62695 20 L 255.52148 20 L 256.41797 20 L 257.3125 20 L 258.20898 20 L 259.10352 20 L 260 20 L 260 20.896484 L 260 21.791016 L 260 22.6875 L 260 23.582031 L 260 24.478516 L 260 25.373047 L 260 26.269531 L 260 27.164062 L 260 28.060547 L 260 28.955078 L 260 29.851562 L 260 30.746094 L 260 31.642578 L 260 32.537109 L 260 33.433594 L 260 34.328125 L 260 35.224609 L 260 36.119141 L 260 37.015625 L 260 37.910156 L 260 38.806641 L 260 39.701172 L 260 40.597656 L 260 41.492188 L 260 42.388672 L 260 43.283203 L 260 44.179688 L 260 45.074219 L 260 45.970703 L 260 46.865234 L 260 47.761719 L 260 48.65625 L 260 49.552734 L 260 50.447266 L 260 51.34375 L 260 52.238281 L 260 53.134766 L 260 54.029297 L 260 54.925781 L 260 55.820312 L 260 56.716797 L 260 57.611328 L 260 58.507812 L 260 59.402344 L 260 60.298828 L 260 61.193359 L 260 62.089844 L 260 62.984375 L 260 63.880859 L 260 64.775391 L 260 65.671875 L 260 66.566406 L 260 67.462891 L 260 68.357422 L 260 69.253906 L 260 70.148438 L 260 71.044922 L 260 71.939453 L 260 72.835938 L 260 73.730469 L 260 74.626953 L 260 75.521484 L 260 76.417969 L 260 77.3125 L 260 78.208984 L 260 79.103516 L 260 80 L 260 80.894531 L 260 81.791016 L 260 82.6875 L 260 83.582031 L 260 84.478516 L 260 85.373047 L 260 86.269531 L 260 87.164062 L 260 88.060547 L 260 88.955078 L 260 89.851562 L 260 90.746094 L 260 91.642578 L 260 92.537109 L 260 93.433594 L 260 94.328125 L 260 95.224609 L 260 96.119141 L 260 97.015625 L 260 97.910156 L 260 98.806641 L 260 99.701172 L 260 100.59766 L 260 101.49219 L 260 102.38867 L 260 103.2832 L 260 104.17969 L 260 105.07422 L 260 105.9707 L 260 106.86523 L 260 107.76172 L 260 108.65625 L 260 109.55273 L 260 110.44727 L 260 111.34375 L 260 112.23828 L 260 113.13477 L 260 114.0293 L 260 114.92578 L 260 115.82031 L 260 116.7168 L 260 117.61133 L 260 118.50781 L 260 119.40234 L 260 120.29883 L 260 121.19336 L 260 122.08984 L 260 122.98438 L 260 123.88086 L 260 124.77539 L 260 125.67188 L 260 126.56641 L 260 127.46289 L 260 128.35742 L 260 129.25391 L 260 130.14844 L 260 131.04492 L 260 131.93945 L 260 132.83594 L 260 133.73047 L 260 134.62695 L 260 135.52148 L 260 136.41797 L 260 137.3125 L 260 138.20898 L 260 139.10352 L 260 140 L 260 140.89453 L 260 141.79102 L 260 142.68555 L 260 143.58203 L 260 144.47852 L 260 145.37305 L 260 146.26953 L 260 147.16406 L 260 148.06055 L 260 148.95508 L 260 149.85156 L 260 150.74609 L 260 151.64258 L 260 152.53711 L 260 153.43359 L 260 154.32812 L 260 155.22461 L 260 156.11914 L 260 157.01562 L 260 157.91016 L 260 158.80664 L 260 159.70117 L 260 160.59766 L 260 161.49219 L 260 162.38867 L 260 163.2832 L 260 164.17969 L 260 165.07422 L 260 165.9707 L 260 166.86523 L 260 167.76172 L 260 168.65625 L 260 169.55273 L 260 170.44727 L 260 171.34375 L 260 172.23828 L 260 173.13477 L 260 174.0293 L 260 174.92578 L 260 175.82031 L 260 176.7168 L 260 177.61133 L 260 178.50781 L 260 179.40234 L 260 180.29883 L 260 181.19336 L 260 182.08984 L 260 182.98438 L 260 183.88086 L 260 184.77539 L 260 185.67188 L 260 186.56641 L 260 187.46289 L 260 188.35742 L 260 189.25391 L 260 190.14844 L 260 191.04492 L 260 191.93945 L 260 192.83594 L 260 193.73047 L 260 194.62695 L 260 195.52148 L 260 196.41797 L 260 197.3125 L 260 198.20898 L 260 199.10352 L 260 200 L 260 200.89453 L 260 201.79102 L 260 202.68555 L 260 203.58203 L 260 204.47656 L 260 205.37305 L 260 206.26758 L 260 207.16406 L 260 208.06055 L 260 208.95508 L 260 209.85156 L 260 210.74609 L 260 211.64258 L 260 212.53711 L 260 213.43359 L 260 214.32812 L 260 215.22461 L 260 216.11914 L 260 217.01562 L 260 217.91016 L 260 218.80664 L 260 219.70117 L 260 220.59766 L 260 221.49219 L 260 222.38867 L 260 223.2832 L 260 224.17969 L 260 225.07422 L 260 225.9707 L 260 226.86523 L 260 227.76172 L 260 228.65625 L 260 229.55273 L 260 230.44727 L 260 231.34375 L 260 232.23828 L 260 233.13477 L 260 234.0293 L 260 234.92578 L 260 235.82031 L 260 236.7168 L 260 237.61133 L 260 238.50781 L 260 239.40234 L 260 240.29883 L 260 241.19336 L 260 242.08984 L 260 242.98438 L 260 243.88086 L 260 244.77539 L 260 245.67188 L 260 246.56641 L 260 247.46289 L 260 248.35742 L 260 249.25391 L 260 250.14844 L 260 251.04492 L 260 251.93945 L 260 252.83594 L 260 253.73047 L 260 254.62695 L 260 255.52148 L 260 256.41797 L 260 257.3125 L 260 258.20898 L 260 259.10352 L 260 260 L 259.10352 260 L 258.20898 260 L 257.3125 260 L 256.41797 260 L 255.52148 260 L 254.62695 260 L 253.73047 260 L 252.83594 260 L 251.93945 260 L 251.04492 260 L 250.14844 260 L 249.25391 260 L 248.35742 260 L 247.46289 260 L 246.56641 260 L 245.67188 260 L 244.77539 260 L 243.88086 260 L 242.98438 260 L 242.08984 260 L 241.19336 260 L 240.29883 260 L 239.40234 260 L 238.50781 260 L 237.61133 260 L 236.7168 260 L 235.82031 260 L 234.92578 260 L 234.0293 260 L 233.13477 260 L 232.23828 260 L 231.34375 260 L 230.44727 260 L 229.55273 260 L 228.65625 260 L 227.76172 260 L 226.86523 260 L 225.9707 260 L 225.07422 260 L 224.17969 260 L 223.2832 260 L 222.38867 260 L 221.49219 260 L 220.59766 260 L 219.70117 260 L 218.80664 260 L 217.91016 260 L 217.01562 260 L 216.11914 260 L 215.22461 260 L 214.32812 260 L 213.43359 260 L 212.53711 260 L 211.64258 260 L 210.74609 260 L 209.85156 260 L 208.95508 260 L 208.06055 260 L 207.16406 260 L 206.26953 260 L 205.37305 260 L 204.47852 260 L 203.58203 260 L 202.6875 260 L 201.79102 260 L 200.89648 260 L 200 260 L 199.10547 260 L 198.20898 260 L 197.3125 260 L 196.41797 260 L 195.52148 260 L 194.62695 260 L 193.73047 260 L 192.83594 260 L 191.93945 260 L 191.04492 260 L 190.14844 260 L 189.25391 260 L 188.35742 260 L 187.46289 260 L 186.56641 260 L 185.67188 260 L 184.77539 260 L 183.88086 260 L 182.98438 260 L 182.08984 260 L 181.19336 260 L 180.29883 260 L 179.40234 260 L 178.50781 260 L 177.61133 260 L 176.7168 260 L 175.82031 260 L 174.92578 260 L 174.0293 260 L 173.13477 260 L 172.23828 260 L 171.34375 260 L 170.44727 260 L 169.55273 260 L 168.65625 260 L 167.76172 260 L 166.86523 260 L 165.9707 260 L 165.07422 260 L 164.17969 260 L 163.2832 260 L 162.38867 260 L 161.49219 260 L 160.59766 260 L 159.70117 260 L 158.80664 260 L 157.91016 260 L 157.01562 260 L 156.11914 260 L 155.22461 260 L 154.32812 260 L 153.43359 260 L 152.53711 260 L 151.64258 260 L 150.74609 260 L 149.85156 260 L 148.95508 260 L 148.06055 260 L 147.16406 260 L 146.26953 260 L 145.37305 260 L 144.47852 260 L 143.58203 260 L 142.6875 260 L 141.79102 260 L 140.89648 260 L 140 260 L 139.10547 260 L 138.20898 260 L 137.31445 260 L 136.41797 260 L 135.52344 260 L 134.62695 260 L 133.73047 260 L 132.83594 260 L 131.93945 260 L 131.04492 260 L 130.14844 260 L 129.25391 260 L 128.35742 260 L 127.46289 260 L 126.56641 260 L 125.67188 260 L 124.77539 260 L 123.88086 260 L 122.98438 260 L 122.08984 260 L 121.19336 260 L 120.29883 260 L 119.40234 260 L 118.50781 260 L 117.61133 260 L 116.7168 260 L 115.82031 260 L 114.92578 260 L 114.0293 260 L 113.13477 260 L 112.23828 260 L 111.34375 260 L 110.44727 260 L 109.55273 260 L 108.65625 260 L 107.76172 260 L 106.86523 260 L 105.9707 260 L 105.07422 260 L 104.17969 260 L 103.2832 260 L 102.38867 260 L 101.49219 260 L 100.59766 260 L 99.701172 260 L 98.806641 260 L 97.910156 260 L 97.015625 260 L 96.119141 260 L 95.224609 260 L 94.328125 260 L 93.433594 260 L 92.537109 260 L 91.642578 260 L 90.746094 260 L 89.851562 260 L 88.955078 260 L 88.060547 260 L 87.164062 260 L 86.269531 260 L 85.373047 260 L 84.478516 260 L 83.582031 260 L 82.6875 260 L 81.791016 260 L 80.896484 260 L 80 260 L 79.105469 260 L 78.208984 260 L 77.314453 260 L 76.417969 260 L 75.523438 260 L 74.626953 260 L 73.732422 260 L 72.835938 260 L 71.939453 260 L 71.044922 260 L 70.148438 260 L 69.253906 260 L 68.357422 260 L 67.462891 260 L 66.566406 260 L 65.671875 260 L 64.775391 260 L 63.880859 260 L 62.984375 260 L 62.089844 260 L 61.193359 260 L 60.298828 260 L 59.402344 260 L 58.507812 260 L 57.611328 260 L 56.716797 260 L 55.820312 260 L 54.925781 260 L 54.029297 260 L 53.134766 260 L 52.238281 260 L 51.34375 260 L 50.447266 260 L 49.552734 260 L 48.65625 260 L 47.761719 260 L 46.865234 260 L 45.970703 260 L 45.074219 260 L 44.179688 260 L 43.283203 260 L 42.388672 260 L 41.492188 260 L 40.597656 260 L 39.701172 260 L 38.806641 260 L 37.910156 260 L 37.015625 260 L 36.119141 260 L 35.224609 260 L 34.328125 260 L 33.433594 260 L 32.537109 260 L 31.642578 260 L 30.746094 260 L 29.851562 260 L 28.955078 260 L 28.060547 260 L 27.164062 260 L 26.269531 260 L 25.373047 260 L 24.478516 260 L 23.582031 260 L 22.6875 260 L 21.791016 260 L 20.896484 260 L 20 260 L 20 259.10352 L 20 258.20898 L 20 257.3125 L 20 256.41797 L 20 255.52148 L 20 254.62695 L 20 253.73047 L 20 252.83594 L 20 251.93945 L 20 251.04492 L 20 250.14844 L 20 249.25391 L 20 248.35742 L 20 247.46289 L 20 246.56641 L 20 245.67188 L 20 244.77539 L 20 243.88086 L 20 242.98438 L 20 242.08984 L 20 241.19336 L 20 240.29883 L 20 239.40234 L 20 238.50781 L 20 237.61133 L 20 236.7168 L 20 235.82031 L 20 234.92578 L 20 234.0293 L 20 233.13477 L 20 232.23828 L 20 231.34375 L 20 230.44727 L 20 229.55273 L 20 228.65625 L 20 227.76172 L 20 226.86523 L 20 225.9707 L 20 225.07422 L 20 224.17969 L 20 223.2832 L 20 222.38867 L 20 221.49219 L 20 220.59766 L 20 219.70117 L 20 218.80664 L 20 217.91016 L 20 217.01562 L 20 216.11914 L 20 215.22461 L 20 214.32812 L 20 213.43359 L 20 212.53711 L 20 211.64258 L 20 210.74609 L 20 209.85156 L 20 208.95508 L 20 208.06055 L 20 207.16406 L 20 206.26953 L 20 205.37305 L 20 204.47852 L 20 203.58203 L 20 202.6875 L 20 201.79102 L 20 200.89648 L 20 200 L 20 199.10547 L 20 198.20898 L 20 197.3125 L 20 196.41797 L 20 195.52148 L 20 194.62695 L 20 193.73047 L 20 192.83594 L 20 191.93945 L 20 191.04492 L 20 190.14844 L 20 189.25391 L 20 188.35742 L 20 187.46289 L 20 186.56641 L 20 185.67188 L 20 184.77539 L 20 183.88086 L 20 182.98438 L 20 182.08984 L 20 181.19336 L 20 180.29883 L 20 179.40234 L 20 178.50781 L 20 177.61133 L 20 176.7168 L 20 175.82031 L 20 174.92578 L 20 174.0293 L 20 173.13477 L 20 172.23828 L 20 171.34375 L 20 170.44727 L 20 169.55273 L 20 168.65625 L 20 167.76172 L 20 166.86523 L 20 165.9707 L 20 165.07422 L 20 164.17969 L 20 163.2832 L 20 162.38867 L 20 161.49219 L 20 160.59766 L 20 159.70117 L 20 158.80664 L 20 157.91016 L 20 157.01562 L 20 156.11914 L 20 155.22461 L 20 154.32812 L 20 153.43359 L 20 152.53711 L 20 151.64258 L 20 150.74609 L 20 149.85156 L 20 148.95508 L 20 148.06055 L 20 147.16406 L 20 146.26953 L 20 145.37305 L 20 144.47852 L 20 143.58203 L 20 142.6875 L 20 141.79102 L 20 140.89648 L 20 140 L 20 139.10547 L 20 138.20898 L 20 137.31445 L 20 136.41797 L 20 135.52344 L 20 134.62695 L 20 133.73047 L 20 132.83594 L 20 131.93945 L 20 131.04492 L 20 130.14844 L 20 129.25391 L 20 128.35742 L 20 127.46289 L 20 126.56641 L 20 125.67188 L 20 124.77539 L 20 123.88086 L 20 122.98438 L 20 122.08984 L 20 121.19336 L 20 120.29883 L 20 119.40234 L 20 118.50781 L 20 117.61133 L 20 116.7168 L 20 115.82031 L 20 114.92578 L 20 114.0293 L 20 113.13477 L 20 112.23828 L 20 111.34375 L 20 110.44727 L 20 109.55273 L 20 108.65625 L 20 107.76172 L 20 106.86523 L 20 105.9707 L 20 105.07422 L 20 104.17969 L 20 103.2832 L 20 102.38867 L 20 101.49219 L 20 100.59766 L 20 99.701172 L 20 98.806641 L 20 97.910156 L 20 97.015625 L 20 96.119141 L 20 95.224609 L 20 94.328125 L 20 93.433594 L 20 92.537109 L 20 91.642578 L 20 90.746094 L 20 89.851562 L 20 88.955078 L 20 88.060547 L 20 87.164062 L 20 86.269531 L 20 85.373047 L 20 84.478516 L 20 83.582031 L 20 82.6875 L 20 81.791016 L 20 80.896484 L 20 80 L 20 79.105469 L 20 78.208984 L 20 77.314453 L 20 76.417969 L 20 75.523438 L 20 74.626953 L 20 73.732422 L 20 72.835938 L 20 71.939453 L 20 71.044922 L 20 70.148438 L 20 69.253906 L 20 68.357422 L 20 67.462891 L 20 66.566406 L 20 65.671875 L 20 64.775391 L 20 63.880859 L 20 62.984375 L 20 62.089844 L 20 61.193359 L 20 60.298828 L 20 59.402344 L 20 58.507812 L 20 57.611328 L 20 56.716797 L 20 55.820312 L 20 54.925781 L 20 54.029297 L 20 53.134766 L 20 52.238281 L 20 51.34375 L 20 50.447266 L 20 49.552734 L 20 48.65625 L 20 47.761719 L 20 46.865234 L 20 45.970703 L 20 45.074219 L 20 44.179688 L 20 43.283203 L 20 42.388672 L 20 41.492188 L 20 40.597656 L 20 39.701172 L 20 38.806641 L 20 37.910156 L 20 37.015625 L 20 36.119141 L 20 35.224609 L 20 34.328125 L 20 33.433594 L 20 32.537109 L 20 31.642578 L 20 30.746094 L 20 29.851562 L 20 28.955078 L 20 28.060547 L 20 27.164062 L 20 26.269531 L 20 25.373047 L 20 24.478516 L 20 23.582031 L 20 22.6875 L 20 21.791016 L 20 20.896484 L 20 20 z " />
  <path
     style="opacity:0.2;fill:#000000;fill-opacity:1;stroke:#ff1300;stroke-width:0;stroke-linejoin:round;paint-order:markers fill stroke"
     inkscape:path-effect="#path-effect143106"
     inkscape:original-d="M 20,20.000177 H 260 V 259.99985 H 20 Z"
     d="m 20,20.000177 h 0.895522 0.895522 0.895521 0.895522 0.895522 0.895522 0.895522 0.895521 0.895522 0.895522 0.895522 0.895522 0.895521 0.895522 0.895522 0.895522 0.895521 0.895522 0.895522 0.895522 0.895522 0.895521 0.895522 0.895522 0.895522 0.895522 0.895521 0.895522 0.895522 0.895522 0.895522 0.895521 0.895522 0.895522 0.895522 0.895522 0.895521 0.895522 0.895522 0.895522 0.895521 0.895522 0.895522 0.895522 0.895522 0.895521 0.895522 0.895522 0.895522 0.895522 0.895521 0.895522 0.895522 0.895522 0.895522 0.895521 0.895522 0.895522 0.895522 0.895522 0.895521 0.895522 0.895522 0.895522 0.895522 0.895521 0.895522 0.895522 0.895522 0.895521 0.895522 0.895522 0.895522 0.895522 0.895521 0.895522 0.895522 0.895522 0.895522 0.895521 0.895522 0.895522 0.895522 0.895522 0.895521 0.895522 0.895522 0.895522 0.895522 0.89552 0.89552 0.89552 0.89553 0.89552 0.89552 0.89552 0.89552 0.89553 0.89552 0.89552 0.89552 0.89552 0.89552 0.89553 0.89552 0.89552 0.89552 0.89552 0.89553 0.89552 0.89552 0.89552 0.89552 0.89552 0.89553 0.89552 0.89552 0.89552 0.89552 0.89553 0.89552 0.89552 0.89552 0.89552 0.89552 0.89553 0.89552 0.89552 0.89552 0.89552 0.89552 0.89553 0.89552 0.89552 0.89552 0.89552 0.89553 0.89552 0.89552 0.89552 0.89552 0.89552 0.89553 0.89552 0.89552 0.89552 0.89552 0.89553 0.89552 0.89552 0.89552 0.89552 0.89552 0.89553 0.89552 0.89552 0.89552 0.89552 0.89552 0.89553 0.89552 0.89552 0.89552 0.89552 0.89553 0.89552 0.89552 0.89552 0.89552 0.89552 0.89553 0.89552 0.89552 0.89552 0.89552 0.89553 0.89552 0.89552 0.89552 0.89552 0.89552 0.89553 0.89552 0.89552 0.89552 0.89552 0.89553 0.89552 0.89552 0.89552 0.89552 0.89552 0.89553 0.89552 0.89552 0.89552 0.89552 0.89552 0.89553 0.89552 0.89552 0.89552 0.89552 0.89553 0.89552 0.89552 0.89552 0.89552 0.89552 0.89553 0.89552 0.89552 0.89552 0.89552 0.89553 0.89552 0.89552 0.89552 0.89552 0.89552 0.89553 0.89552 0.89552 0.89552 0.89552 0.89553 0.89552 0.89552 0.89552 0.89552 0.89552 0.89553 0.89552 0.89552 0.89552 0.89552 0.89552 0.89553 0.89552 0.89552 0.89552 0.89552 0.89553 0.89552 0.89552 0.89552 0.89552 0.89552 0.89553 0.89552 0.89552 0.89552 0.89552 0.89553 0.89552 0.89552 0.89552 0.89552 0.89552 0.89553 0.89552 0.89552 0.89552 0.89552 0.89552 0.89553 0.89552 0.89552 H 260 v 0.895362 0.895522 0.895522 0.895522 0.895521 0.895522 0.895522 0.895522 0.895521 0.895522 0.895522 0.895522 0.895522 0.895521 0.895522 0.895522 0.895522 0.895522 0.895521 0.895522 0.895522 0.895522 0.895522 0.895521 0.895522 0.895522 0.895522 0.895522 0.895521 0.895522 0.895522 0.895522 0.895521 0.895522 0.895522 0.895522 0.895522 0.895521 0.895522 0.895522 0.895522 0.895522 0.895521 0.895522 0.895522 0.895522 0.895522 0.895521 0.895522 0.895522 0.895522 0.895522 0.895521 0.895522 0.895522 0.895522 0.895522 0.895521 0.895522 0.895522 0.895522 0.895521 0.895522 0.895522 0.895522 0.895522 0.895521 0.895522 0.895522 0.895522 0.895522 0.895521 0.895522 0.895522 0.895522 0.895522 0.895521 0.895522 0.895522 0.895522 0.895522 0.895521 0.895522 0.895522 0.895522 0.895521 0.895522 0.895522 0.895522 0.895523 0.89552 0.89552 0.89552 0.89553 0.89552 0.89552 0.89552 0.89552 0.89552 0.89553 0.89552 0.89552 0.89552 0.89552 0.89553 0.89552 0.89552 0.89552 0.89552 0.89552 0.89553 0.89552 0.89552 0.89552 0.89552 0.89553 0.89552 0.89552 0.89552 0.89552 0.89552 0.89553 0.89552 0.89552 0.89552 0.89552 0.89552 0.89553 0.89552 0.89552 0.89552 0.89552 0.89553 0.89552 0.89552 0.89552 0.89552 0.89552 0.89553 0.89552 0.89552 0.89552 0.89552 0.89553 0.89552 0.89552 0.89552 0.89552 0.89552 0.89553 0.89552 0.89552 0.89552 0.89552 0.89553 0.89552 0.89552 0.89552 0.89552 0.89552 0.89553 0.89552 0.89552 0.89552 0.89552 0.89552 0.89553 0.89552 0.89552 0.89552 0.89552 0.89553 0.89552 0.89552 0.89552 0.89552 0.89552 0.89553 0.89552 0.89552 0.89552 0.89552 0.89553 0.89552 0.89552 0.89552 0.89552 0.89552 0.89553 0.89552 0.89552 0.89552 0.89552 0.89553 0.89552 0.89552 0.89552 0.89552 0.89552 0.89553 0.89552 0.89552 0.89552 0.89552 0.89552 0.89553 0.89552 0.89552 0.89552 0.89552 0.89553 0.89552 0.89552 0.89552 0.89552 0.89552 0.89553 0.89552 0.89552 0.89552 0.89552 0.89553 0.89552 0.89552 0.89552 0.89552 0.89552 0.89553 0.89552 0.89552 0.89552 0.89552 0.89552 0.89553 0.89552 0.89552 0.89552 0.89552 0.89553 0.89552 0.89552 0.89552 0.89552 0.89552 0.89553 0.89552 0.89552 0.89552 0.89552 0.89553 0.89552 0.89552 0.89552 0.89552 0.89552 0.89553 0.89552 0.89552 0.89552 0.89552 0.89553 0.89552 0.89552 0.89552 0.89552 0.89552 0.89553 0.89551 l -10e-6,0 h -0.89552 -0.89552 -0.89552 -0.89552 -0.89553 -0.89552 -0.89552 -0.89552 -0.89552 -0.89553 -0.89552 -0.89552 -0.89552 -0.89552 -0.89552 -0.89553 -0.89552 -0.89552 -0.89552 -0.89552 -0.89553 -0.89552 -0.89552 -0.89552 -0.89552 -0.89552 -0.89553 -0.89552 -0.89552 -0.89552 -0.89552 -0.89553 -0.89552 -0.89552 -0.89552 -0.89552 -0.89552 -0.89553 -0.89552 -0.89552 -0.89552 -0.89552 -0.89552 -0.89553 -0.89552 -0.89552 -0.89552 -0.89552 -0.89553 -0.89552 -0.89552 -0.89552 -0.89552 -0.89552 -0.89553 -0.89552 -0.89552 -0.89552 -0.89552 -0.89553 -0.89552 -0.89552 -0.89552 -0.89552 -0.89552 -0.89553 -0.89552 -0.89552 -0.89552 -0.89552 -0.89552 -0.89553 -0.89552 -0.89552 -0.89552 -0.89552 -0.89553 -0.89552 -0.89552 -0.89552 -0.89552 -0.89552 -0.89553 -0.89552 -0.89552 -0.89552 -0.89552 -0.89553 -0.89552 -0.89552 -0.89552 -0.89552 -0.89552 -0.89553 -0.89552 -0.89552 -0.89552 -0.89552 -0.89553 -0.89552 -0.89552 -0.89552 -0.89552 -0.89552 -0.89553 -0.89552 -0.89552 -0.89552 -0.89552 -0.89552 -0.89553 -0.89552 -0.89552 -0.89552 -0.89552 -0.89553 -0.89552 -0.89552 -0.89552 -0.89552 -0.89552 -0.89553 -0.89552 -0.89552 -0.89552 -0.89552 -0.89553 -0.89552 -0.89552 -0.89552 -0.89552 -0.89552 -0.89553 -0.89552 -0.89552 -0.89552 -0.89552 -0.89553 -0.89552 -0.89552 -0.89552 -0.89552 -0.89552 -0.89553 -0.89552 -0.89552 -0.89552 -0.89552 -0.89552 -0.89553 -0.89552 -0.89552 -0.89552 -0.89552 -0.89553 -0.89552 -0.89552 -0.89552 -0.89552 -0.89552 -0.89553 -0.89552 -0.89552 -0.89552 -0.89552 -0.89553 -0.89552 -0.89552 -0.89552 -0.89552 -0.89552 -0.89553 -0.89552 -0.89552 -0.89552 -0.89552 -0.89552 -0.89553 H 99.701591 98.80607 97.910548 97.015026 96.119504 95.223983 94.328461 93.432939 92.537417 91.641895 90.746374 89.850852 88.95533 88.059808 87.164286 86.268765 85.373243 84.477721 83.582199 82.686677 81.791156 80.895634 80.000112 79.10459 78.209068 77.313547 76.418025 75.522503 74.626981 73.731459 72.835938 71.940416 71.044894 70.149372 69.253851 68.358329 67.462807 66.567285 65.671763 64.776242 63.88072 62.985198 62.089676 61.194154 60.298633 59.403111 58.507589 57.612067 56.716545 55.821024 54.925502 54.02998 53.134458 52.238936 51.343415 50.447893 49.552371 48.656849 47.761328 46.865806 45.970284 45.074762 44.17924 43.283719 42.388197 41.492675 40.597153 39.701631 38.80611 37.910588 37.015066 36.119544 35.224022 34.328501 33.432979 32.537457 31.641935 30.746413 29.850892 28.95537 28.059848 27.164326 26.268805 25.373283 24.477761 23.582239 22.686717 21.791196 20.895674 20.000152 20 l 0,-0.89537 v -0.89552 -0.89552 -0.89553 -0.89552 -0.89552 -0.89552 -0.89552 -0.89552 -0.89553 -0.89552 -0.89552 -0.89552 -0.89552 -0.89552 -0.89553 -0.89552 -0.89552 -0.89552 -0.89552 -0.89553 -0.89552 -0.89552 -0.89552 -0.89552 -0.89552 -0.89553 -0.89552 -0.89552 -0.89552 -0.89552 -0.89553 -0.89552 -0.89552 -0.89552 -0.89552 -0.89552 -0.89553 -0.89552 -0.89552 -0.89552 -0.89552 -0.89553 -0.89552 -0.89552 -0.89552 -0.89552 -0.89552 -0.89553 -0.89552 -0.89552 -0.89552 -0.89552 -0.89552 -0.89553 -0.89552 -0.89552 -0.89552 -0.89552 -0.89553 -0.89552 -0.89552 -0.89552 -0.89552 -0.89552 -0.89553 -0.89552 -0.89552 -0.89552 -0.89552 -0.89553 -0.89552 -0.89552 -0.89552 -0.89552 -0.89552 -0.89553 -0.89552 -0.89552 -0.89552 -0.89552 -0.89553 -0.89552 -0.89552 -0.89552 -0.89552 -0.89552 -0.89553 -0.89552 -0.89552 -0.89552 -0.89552 -0.89552 -0.89553 -0.89552 -0.89552 -0.89552 -0.89552 -0.89553 -0.89552 -0.89552 -0.89552 -0.89552 -0.89552 -0.89553 -0.89552 -0.89552 -0.89552 -0.89552 -0.89553 -0.89552 -0.89552 -0.89552 -0.89552 -0.89552 -0.89553 -0.89552 -0.89552 -0.89552 -0.89552 -0.89552 -0.89553 -0.89552 -0.89552 -0.89552 -0.89552 -0.89553 -0.89552 -0.89552 -0.89552 -0.89552 -0.89552 -0.89553 -0.89552 -0.89552 -0.89552 -0.89552 -0.89553 -0.89552 -0.89552 -0.89552 -0.89552 -0.89552 -0.89553 -0.89552 -0.89552 -0.89552 -0.89552 -0.89553 -0.89552 -0.89552 -0.89552 -0.89552 -0.89552 -0.89553 -0.89552 -0.89552 -0.89552 -0.89552 -0.89552 -0.89553 -0.89552 -0.89552 -0.89552 -0.89552 -0.89553 -0.89552 -0.89552 -0.89552 -0.89552 -0.89552 -0.89553 -0.89552 -0.89552 -0.89552 -0.89552 -0.89553 -0.89552 V 99.701601 98.806079 97.910558 97.015036 96.119514 95.223992 94.32847 93.432949 92.537427 91.641905 90.746383 89.850861 88.95534 88.059818 87.164296 86.268774 85.373252 84.477731 83.582209 82.686687 81.791165 80.895643 80.000122 79.1046 78.209078 77.313556 76.418035 75.522513 74.626991 73.731469 72.835947 71.940426 71.044904 70.149382 69.25386 68.358338 67.462817 66.567295 65.671773 64.776251 63.880729 62.985208 62.089686 61.194164 60.298642 59.40312 58.507599 57.612077 56.716555 55.821033 54.925512 54.02999 53.134468 52.238946 51.343424 50.447903 49.552381 48.656859 47.761337 46.865815 45.970294 45.074772 44.17925 43.283728 42.388206 41.492685 40.597163 39.701641 38.806119 37.910597 37.015076 36.119554 35.224032 34.32851 33.432988 32.537467 31.641945 30.746423 29.850901 28.95538 28.059858 27.164336 26.268814 25.373292 24.477771 23.582249 22.686727 21.791205 20.895683 20.000162"
     id="path143139" />
  <g
     id="g132250"
     transform="matrix(0.86138481,0,0,0.86138481,21.188377,19.406127)">
    <path
       inkscape:connector-curvature="0"
       sodipodi:nodetypes="cssz"
       id="path2825-3"
       d="m 176.43463,135.03879 c 18.37101,14.20691 80.97147,55.50236 86.51965,65.76895 4.16375,7.70477 -5.04858,22.2462 -12.12633,19.4203 -15.21332,-6.07414 -8.38663,-13.7404 -72.43881,-64.1197"
       style="fill:#e9c642;fill-opacity:1;fill-rule:evenodd;stroke:#000000;stroke-width:3.72475;stroke-linecap:round;stroke-linejoin:round;stroke-miterlimit:4;stroke-dasharray:none;stroke-opacity:1" />
    <path
       inkscape:connector-curvature="0"
       sodipodi:nodetypes="cscszczzzzzzzzzczzzzzz"
       id="path2827-5"
       d="m 178.77387,194.38287 c 3.1236,-1.65591 16.7792,-4.21003 19.6505,-8.07719 2.87061,-3.86625 0.87374,-8.54882 2.18307,-11.80327 3.35675,2.53688 9.08581,3.93104 11.02717,3.05777 1.82016,-0.81875 5.92056,-7.84807 5.95376,-10.61012 0.0332,-2.76207 -2.73476,-4.87198 -4.47668,-5.89385 7.15667,-4.66143 11.70203,-4.60682 16.80348,-3.38751 5.10145,1.21931 3.63318,4.28292 6.4751,6.0926 2.77244,1.76543 4.99956,0.85655 6.79104,2.5696 1.79148,1.71304 2.06314,4.61668 4.02046,6.85707 2.00508,2.29507 3.50009,1.2299 5.70945,4.08325 2.20936,2.85336 1.49473,4.4583 2.93794,7.62703 1.44321,3.16875 5.20116,1.66521 1.16722,9.48257 -3.91208,7.5812 -8.60593,11.60282 -11.83914,14.14396 -3.31396,2.60462 -10.91562,4.91925 -12.59484,3.32813 -2.00288,-1.89782 -1.14016,-1.74232 -0.55473,-3.59596 -1.62071,0.68771 -2.47558,1.50059 -5.55689,2.03463 -3.0813,0.53403 -3.76726,-0.37325 -5.03395,-2.05196 -1.26669,-1.6787 1.57108,-5.54339 -0.0328,-4.66285 -1.60391,0.88054 -1.43207,4.99562 -6.3828,8.18502 -4.95072,3.18939 -12.68828,6.92148 -18.89719,7.99393 -6.20892,1.07244 -10.13945,-3.16153 -12.99335,-3.23222"
       style="fill:#d4af8b;fill-opacity:1;fill-rule:evenodd;stroke:#000000;stroke-width:3.72475;stroke-linecap:round;stroke-linejoin:round;stroke-miterlimit:4;stroke-dasharray:none;stroke-opacity:1" />
    <path
       inkscape:connector-curvature="0"
       sodipodi:nodetypes="cszz"
       id="path2829-6"
       d="m 204.69444,188.36922 c 8.43006,8.36223 21.68352,20.67869 32.36486,19.4651 4.97081,-0.56357 -3.9747,-18.90361 -11.03162,-26.04137 -7.05691,-7.13775 -16.55401,-2.99792 -19.14675,-1.3276"
       style="fill:none;fill-opacity:0.75;fill-rule:evenodd;stroke:#000000;stroke-width:3.72475;stroke-linecap:round;stroke-linejoin:round;stroke-miterlimit:4;stroke-dasharray:none;stroke-opacity:1" />
    <path
       inkscape:connector-curvature="0"
       sodipodi:nodetypes="cz"
       id="path2831-2"
       d="m 226.69435,181.58744 c 1.84265,-0.65101 5.48486,-5.03042 6.21169,-11.99016"
       style="fill:none;fill-opacity:0.75;fill-rule:evenodd;stroke:#000000;stroke-width:3.72475;stroke-linecap:round;stroke-linejoin:round;stroke-miterlimit:4;stroke-dasharray:none;stroke-opacity:1" />
    <path
       inkscape:connector-curvature="0"
       sodipodi:nodetypes="cz"
       id="path2833-9"
       d="m 234.92811,193.56655 c 3.63086,-4.25843 7.75139,-9.72713 8.51421,-14.60099"
       style="fill:none;fill-opacity:0.75;fill-rule:evenodd;stroke:#000000;stroke-width:3.72475;stroke-linecap:round;stroke-linejoin:round;stroke-miterlimit:4;stroke-dasharray:none;stroke-opacity:1" />
    <path
       inkscape:connector-curvature="0"
       sodipodi:nodetypes="cz"
       id="path2835-1"
       d="m 238.89915,205.37987 c 6.08311,-4.42047 10.2736,-9.70736 12.20786,-15.3172"
       style="fill:none;fill-opacity:0.75;fill-rule:evenodd;stroke:#000000;stroke-width:3.72475;stroke-linecap:round;stroke-linejoin:round;stroke-miterlimit:4;stroke-dasharray:none;stroke-opacity:1" />
    <path
       inkscape:connector-curvature="0"
       style="fill:#667b58;fill-opacity:1;fill-rule:evenodd;stroke:#000000;stroke-width:3.72509;stroke-linecap:butt;stroke-linejoin:round;stroke-miterlimit:4;stroke-dasharray:none;stroke-opacity:1"
       d="M 140.50712,82.851421 101.68093,151.29822 59.629955,135.29311 11.824671,81.278922 79.402574,58.685671 Z"
       id="path2839-7"
       sodipodi:nodetypes="cccccc" />
    <path
       inkscape:connector-curvature="0"
       style="fill:#c5c5c5;fill-opacity:1;fill-rule:evenodd;stroke:#000000;stroke-width:3.72509;stroke-linecap:butt;stroke-linejoin:round;stroke-miterlimit:4;stroke-dasharray:none;stroke-opacity:1"
       d="M 59.629955,135.29311 11.824671,81.278912 79.402575,58.685662 99.391618,66.912773 36.411341,87.706298 78.700159,142.38729 Z"
       id="path2841-0"
       sodipodi:nodetypes="ccccccc" />
    <path
       inkscape:connector-curvature="0"
       style="fill:#667b58;fill-opacity:1;fill-rule:evenodd;stroke:#000000;stroke-width:3.72509;stroke-linecap:butt;stroke-linejoin:round;stroke-miterlimit:4;stroke-dasharray:none;stroke-opacity:1"
       d="m 136.00278,115.5069 -9.32951,18.18268 c -13.3835,-10.06893 -54.875986,-29.18426 -45.997306,-37.230049 9.017542,-8.17162 34.831356,5.508529 55.326816,19.047369 z"
       id="path2843-9"
       sodipodi:nodetypes="cczc" />
    <path
       inkscape:connector-curvature="0"
       sodipodi:nodetypes="cccszscccczzc"
       id="path2845-3"
       d="m 195.64611,163.6553 c -2.37706,7.08687 -4.17143,36.01274 4.52244,57.65904 -71.11323,-2.46308 -75.25221,-29.57112 -128.478192,-41.54087 7.33612,-18.0679 16.796913,-27.58103 32.280452,-40.43944 6.91837,-5.74542 15.38155,-16.45361 22.11646,-23.3548 6.7349,-6.9012 12.36549,-11.78775 20.19078,-15.22469 14.42551,-6.335811 34.86812,-4.748635 47.35227,6.89379 -3.70262,0.91715 -12.66892,-0.14349 -12.59995,6.68197 0.65451,7.70575 -5.19508,11.21949 -10.33017,15.31591 -3.34309,3.60562 -1.4261,9.15645 -6.37698,11.2325 -0.23267,6.1738 2.06869,12.13265 5.43605,17.60775 3.51583,5.71645 7.16975,9.398 12.16139,12.77244 4.99163,3.37453 10.55175,-3.72355 13.72545,-7.6036 z"
       style="fill:#5d5d5d;fill-opacity:1;fill-rule:evenodd;stroke:#000000;stroke-width:3.72508;stroke-linecap:butt;stroke-linejoin:round;stroke-miterlimit:4;stroke-dasharray:none;stroke-opacity:1" />
    <path
       inkscape:connector-curvature="0"
       sodipodi:nodetypes="ccccczzczccczz"
       id="path2847-6"
       d="m 195.32195,163.24604 c -4.19496,4.73288 -8.73382,10.97813 -13.72545,7.6036 -4.99163,-3.37444 -8.64556,-7.05599 -12.16139,-12.77244 -3.36736,-5.4751 -5.66871,-11.43395 -5.43604,-17.60775 4.95087,-2.07605 3.03389,-7.62688 6.37698,-11.23251 5.13509,-4.09641 10.98468,-7.61015 10.33017,-15.3159 -0.069,-6.82555 10.34479,-5.68529 12.84112,-5.55216 2.6166,0.13959 17.0294,2.0846 21.75564,1.80286 3.27079,-2.41547 6.78899,-6.43492 8.93306,-7.82395 2.08821,-1.35284 4.86101,-4.734973 7.49904,-3.739232 8.2404,0.564243 6.24422,10.357922 5.79686,16.795402 -1.18596,8.42364 -12.09128,10.70504 -22.92258,19.02605 -8.02818,6.35121 -7.32605,6.87307 -12.14791,14.0771 -4.82185,7.20403 -2.94453,10.00605 -7.1395,14.73893 z"
       style="fill:#d4af8b;fill-opacity:1;fill-rule:evenodd;stroke:#000000;stroke-width:3.72508;stroke-linecap:butt;stroke-linejoin:round;stroke-miterlimit:4;stroke-dasharray:none;stroke-opacity:1" />
    <path
       inkscape:connector-curvature="0"
       sodipodi:nodetypes="cc"
       id="path2849-0"
       d="m 230.06437,108.34522 c 0.16901,4.30974 -1.33425,7.18313 -3.72985,8.25184"
       style="fill:none;fill-opacity:0.75;fill-rule:evenodd;stroke:#000000;stroke-width:4.65635;stroke-linecap:round;stroke-linejoin:miter;stroke-miterlimit:4;stroke-dasharray:none;stroke-opacity:1" />
    <path
       inkscape:connector-curvature="0"
       sodipodi:nodetypes="cccccccc"
       style="fill:#000000;fill-rule:nonzero;stroke:#000000;stroke-width:3.72508;stroke-linecap:round;stroke-linejoin:round;stroke-miterlimit:4;stroke-dasharray:none;stroke-opacity:1"
       class="fil58"
       d="m 188.62867,146.24843 c 1.4312,-0.0495 9.07228,-3.56819 10.10208,-4.10896 -2.47034,4.46615 -4.3796,5.40925 -6.92701,11.1792 -1.12231,3.18477 -3.13018,7.3763 -6.4273,9.49464 -4.88146,-3.70939 -5.30432,-10.95485 -7.55951,-16.42102 -6.14816,-4.10411 -10.29191,-11.13416 -15.89097,-10.07342 -1.33094,-3.20282 0.71816,-5.73175 0.78163,-8.68087 2.56861,13.84743 18.70391,18.77301 25.92108,18.61043 z"
       id="path2851-6" />
    <path
       inkscape:connector-curvature="0"
       style="fill:#ffffff;fill-rule:nonzero;stroke-width:1.32318"
       class="fil59"
       d="m 190.65753,154.71122 c -0.85675,0.75875 -7.25996,1.06349 -8.76892,0.69718 -0.59188,-1.3649 -1.07707,-5.45628 -1.9006,-7.08421 1.14653,0.0298 11.78995,0.98482 15.3596,-2.29384 -1.53479,1.61386 -5.18248,8.86208 -4.69008,8.68087 z"
       id="path2853-2" />
    <path
       inkscape:connector-curvature="0"
       sodipodi:nodetypes="czzc"
       id="path2855-6"
       d="m 154.56855,119.24192 c 4.60661,-1.38838 5.50231,-3.90267 9.54779,-5.55359 4.04549,-1.65092 4.0623,-1.39417 6.63415,-1.05 2.57186,0.34417 3.65326,2.42678 3.65326,2.42678"
       style="fill:none;fill-opacity:0.75;fill-rule:evenodd;stroke:#000000;stroke-width:3.72475;stroke-linecap:round;stroke-linejoin:round;stroke-miterlimit:4;stroke-dasharray:none;stroke-opacity:1" />
  </g>
  <g
     id="g143925" />
</svg>
