<svg xmlns="http://www.w3.org/2000/svg" xmlns:xlink="http://www.w3.org/1999/xlink" width="512" height="512"><defs><linearGradient id="e"><stop offset="0" stop-color="#fbf9d4"/><stop offset="1" stop-color="#fff"/></linearGradient><linearGradient id="c"><stop offset="0" stop-color="#fff"/><stop offset=".29" stop-color="#fff"/><stop offset=".36" stop-color="#d8dada"/><stop offset="1" stop-color="#d8dada"/></linearGradient><linearGradient id="b"><stop offset="0" stop-color="#aad04a"/><stop offset=".3" stop-color="#cfdc8d"/><stop offset=".36" stop-color="#98bc40"/><stop offset="1" stop-color="#48873e"/></linearGradient><linearGradient id="d"><stop offset="0" stop-color="#61b647"/><stop offset="1" stop-color="#92c746"/></linearGradient><linearGradient id="a"><stop offset="0" stop-opacity=".06"/><stop offset="1" stop-opacity=".11"/></linearGradient><linearGradient xlink:href="#b" id="g" x1="66.47" x2="453.38" y1="197.86" y2="197.86" gradientTransform="translate(12.77 46.62)" gradientUnits="userSpaceOnUse"/><linearGradient xlink:href="#c" id="f" x1="70.63" x2="435.79" y1="258.15" y2="258.15" gradientTransform="translate(12.77 46.62)" gradientUnits="userSpaceOnUse"/><linearGradient xlink:href="#e" id="j" x1="72.74" x2="73.04" y1="272.04" y2="196.94" gradientTransform="translate(-4.1 5.46)" gradientUnits="userSpaceOnUse"/><linearGradient xlink:href="#e" id="l" x1="72.74" x2="73.04" y1="272.04" y2="196.94" gradientTransform="translate(-4.1 5.46)" gradientUnits="userSpaceOnUse"/><linearGradient xlink:href="#e" id="m" x1="72.74" x2="73.04" y1="272.04" y2="196.94" gradientTransform="translate(-4.1 5.46)" gradientUnits="userSpaceOnUse"/><linearGradient xlink:href="#e" id="n" x1="72.74" x2="73.04" y1="272.04" y2="196.94" gradientTransform="translate(-4.1 5.46)" gradientUnits="userSpaceOnUse"/><linearGradient xlink:href="#e" id="o" x1="72.74" x2="73.04" y1="272.04" y2="196.94" gradientTransform="translate(-4.1 5.46)" gradientUnits="userSpaceOnUse"/><linearGradient xlink:href="#e" id="p" x1="72.74" x2="73.04" y1="272.04" y2="196.94" gradientTransform="translate(-4.1 5.46)" gradientUnits="userSpaceOnUse"/><filter id="h" width="2.48" height="1.51" x="-.74" y="-.26"><feGaussianBlur stdDeviation="5.75"/></filter><filter id="k" width="1.04" height="1.13" x="-.02" y="-.08" color-interpolation-filters="sRGB"><feFlood flood-color="#FFF" flood-opacity=".5" result="flood"/><feComposite in="flood" in2="SourceGraphic" operator="in" result="composite1"/><feGaussianBlur in="composite" result="blur" stdDeviation=".7"/><feOffset dx="1.5" result="offset"/><feComposite in="SourceGraphic" in2="offset" result="fbSourceGraphic"/><feColorMatrix in="fbSourceGraphic" result="fbSourceGraphicAlpha" values="0 0 0 -1 0 0 0 0 -1 0 0 0 0 -1 0 0 0 0 1 0"/><feFlood flood-color="#000" flood-opacity=".4" result="flood"/><feComposite in="flood" in2="fbSourceGraphic" operator="in" result="composite1"/><feGaussianBlur in="composite" result="blur" stdDeviation=".8"/><feOffset dx=".4" dy="-2.5" result="offset"/><feComposite in="fbSourceGraphic" in2="offset" result="composite2"/></filter><radialGradient xlink:href="#d" id="i" cx="283.5" cy="-10.86" r="193.2" fx="283.5" fy="-10.86" gradientTransform="matrix(-.664 1.03 -1.021 -.659 510.64 -205.95)" gradientUnits="userSpaceOnUse"/></defs><path fill="#fff" d="M-.3-.03h512v512H-.3z" paint-order="stroke fill markers"/><path fill="#f7991d" d="m-.2 328.18 71.97-61.6-71.96-51.05ZM415.66 512.52 83.62 274.92-.2 346.7-.4 512.02M443.77 512.54l67.79.27.45-123.12c-27.21-25.23-54.38-46.01-82.49-70.24l-123.78 90.93M-.35 190.7l291.97 210.46L511.1 242.8l.56-242.83L-.22-.25ZM510.89 259.34l-70.3 52.07L512 372.06z"/><g transform="matrix(.978 0 0 .943 .42 -1.84)"><path fill-opacity=".4" d="m455.66 193.46 23.48 20.37c2.8 2.94 2.98 9.95 1.04 18.08l-10.4 31.8c-2.64 4.85-9.97 7.27-9.97 7.27s2.6 7.17 1.87 11.43l-17.87 67.75L224.76 462.6c-4.41 2.5-13.15 2.55-15.8-.83L101.93 340.19l-3.12-64.64Z"/><path fill="#5c5d5d" d="M436.6 222.08c9.4 3.53 10.28 11.17 10.58 18.52l-17.64 67.6-215.73 110.51c-13.23 6.04-18.6 3.53-24.1-3.23L87.13 298.8l-4.7-70.25c-.2-7.48 9.4-12.34 9.4-12.34z"/><path fill="url(#f)" d="m448.06 215.03-18.81 76.42-220.73 109.63c-6.24 2.08-10.75 1.84-14.7-1.18L90.66 281.16l-6.76-74.07Z"/><path fill="#868786" d="M465.65 177.54c1.17 3.97-9.36 40.28-9.36 40.28a17.56 17.56 0 0 1-8.67 10.29L214.1 334.5c-7.17 2.9-14 1.62-16.46-1.03L82.14 218.26c-2.4-3.32-2.36-12.93-2.36-12.93Z"/><path fill="url(#g)" d="m465.65 177.54-10.54 36.6c-1.36 4.48-5.29 6.18-5.29 6.18L214.7 327.89c-10.7 3.95-16.16-1.17-16.16-1.17L82.43 211.8c-3.12-2.91-2.65-6.47-2.65-6.47s-1.05-22.11-.03-45.77z"/><ellipse cx="185.59" cy="226.65" fill="#ffffd0" fill-opacity=".94" filter="url(#h)" rx="9.35" ry="26.81" transform="matrix(.883 0 0 1.087 42.53 34.17)"/><path fill="url(#i)" d="m340.2 70.72 124.61 101.7c3.53 4.7-1.47 7.63-1.47 7.63l-246 99.93a13.82 13.82 0 0 1-14.7-1.76L83.31 168.3c-10.58-12.05 5.3-17.05 5.3-17.05l235.42-81.12c9.4-3.82 16.16.59 16.16.59z"/><g fill="url(#j)" filter="url(#k)" font-family="232MKSDRoundMedium" font-size="99.09" font-weight="400" letter-spacing="0" style="line-height:125%;-inkscape-font-specification:&quot;232MKSDRoundMedium&quot;" transform="matrix(1.049 -.413 .764 .653 12.77 46.62)" word-spacing="0"><path fill="url(#l)" d="M9.9 251.44a18.45 18.45 0 0 1-6.9 7.19 18.37 18.37 0 0 1-9.55 2.62h-.4c-5.15 0-9.56-1.81-13.23-5.45a17.87 17.87 0 0 1-5.5-13.17V221.9c0-5.15 1.84-9.55 5.5-13.22a18.03 18.03 0 0 1 13.23-5.5h.4c3.36 0 6.52.87 9.46 2.62a18.66 18.66 0 0 1 6.89 7.09 4.87 4.87 0 0 1-.85 5.8 4.67 4.67 0 0 1-3.41 1.43 4.54 4.54 0 0 1-4.26-2.57 8.4 8.4 0 0 0-7.83-4.66h-.4c-2.44 0-4.54.88-6.3 2.63a8.7 8.7 0 0 0-2.62 6.38v20.72c0 2.44.88 4.54 2.63 6.29a8.58 8.58 0 0 0 6.29 2.62h.4c3.5 0 6.1-1.58 7.83-4.75a4.54 4.54 0 0 1 4.26-2.58c1.38 0 2.56.48 3.51 1.44a4.79 4.79 0 0 1 1.44 3.52c0 .79-.2 1.55-.6 2.27z"/><path fill="url(#m)" d="M34.1 221.22c0 1.59-.57 2.96-1.72 4.11a5.62 5.62 0 0 1-4.12 1.74 5.62 5.62 0 0 1-4.1-1.74 5.62 5.62 0 0 1-1.74-4.1c0-1.66.58-3.05 1.73-4.17a5.7 5.7 0 0 1 4.11-1.68 5.7 5.7 0 0 1 4.12 1.68 5.57 5.57 0 0 1 1.73 4.16zm0 28.54c0 1.65-.57 3.04-1.72 4.16a5.7 5.7 0 0 1-4.12 1.69 5.7 5.7 0 0 1-4.1-1.69 5.57 5.57 0 0 1-1.74-4.16c0-1.59.58-2.96 1.73-4.11a5.62 5.62 0 0 1 4.11-1.74c1.59 0 2.96.58 4.12 1.74a5.62 5.62 0 0 1 1.73 4.1z"/><path fill="url(#n)" d="M83.88 261.85c0 5.15-1.82 9.56-5.45 13.23a17.88 17.88 0 0 1-13.18 5.5h-.4a19.02 19.02 0 0 1-16.45-9.81 4.87 4.87 0 0 1 .84-5.8 4.67 4.67 0 0 1 3.42-1.44c1.99 0 3.44.86 4.36 2.58 1.66 3.1 4.26 4.66 7.83 4.66h.4c2.44 0 4.54-.88 6.29-2.63a8.59 8.59 0 0 0 2.62-6.3v-2.57c0-.33-.16-.43-.49-.3a17.87 17.87 0 0 1-8.42 2.09h-.4c-5.15 0-9.55-1.84-13.18-5.5a18.12 18.12 0 0 1-5.45-13.23V222.2c0-5.15 1.82-9.56 5.45-13.22a17.87 17.87 0 0 1 13.18-5.5h.4c5.15 0 9.54 1.83 13.18 5.5a18.12 18.12 0 0 1 5.45 13.22zm-9.72-19.52V222.2a8.7 8.7 0 0 0-2.62-6.39 8.58 8.58 0 0 0-6.3-2.62h-.39c-2.44 0-4.54.87-6.3 2.62a8.7 8.7 0 0 0-2.62 6.4v20.1c0 2.45.88 4.55 2.63 6.3a8.58 8.58 0 0 0 6.29 2.63h.4c2.44 0 4.54-.88 6.29-2.63a8.59 8.59 0 0 0 2.62-6.3z"/><path fill="url(#o)" d="M133.61 232.22c0 1.39-.46 2.56-1.38 3.52a4.62 4.62 0 0 1-3.47 1.44h-22.5c-.4 0-.59.16-.59.5v4.95c0 2.44.88 4.54 2.63 6.29a8.58 8.58 0 0 0 6.29 2.62h.4a8.4 8.4 0 0 0 7.82-4.65 4.54 4.54 0 0 1 4.26-2.58c1.4 0 2.55.48 3.47 1.44.93.95 1.39 2.1 1.39 3.42 0 .86-.2 1.65-.6 2.37a17.92 17.92 0 0 1-6.78 7.09 18.37 18.37 0 0 1-9.57 2.62h-.4c-5.14 0-9.54-1.81-13.17-5.45a17.95 17.95 0 0 1-5.45-13.17V221.9c0-5.15 1.82-9.55 5.45-13.22a17.87 17.87 0 0 1 13.18-5.5h.4c5.15 0 9.54 1.83 13.17 5.5a18.12 18.12 0 0 1 5.45 13.22zm-9.7-5.35v-4.96a8.7 8.7 0 0 0-2.63-6.38 8.58 8.58 0 0 0-6.3-2.63h-.4c-2.44 0-4.53.88-6.28 2.63a8.7 8.7 0 0 0-2.63 6.38v4.96c0 .33.2.5.6.5h17.04c.4 0 .6-.17.6-.5z"/><path fill="url(#p)" d="M183.35 242.63c0 5.15-1.81 9.54-5.45 13.17a17.96 17.96 0 0 1-13.18 5.45h-.4c-5.15 0-9.54-1.81-13.17-5.45a17.95 17.95 0 0 1-5.45-13.17V221.9c0-5.15 1.81-9.55 5.45-13.22a17.87 17.87 0 0 1 13.18-5.5h.4c5.14 0 9.54 1.83 13.17 5.5a18.12 18.12 0 0 1 5.45 13.22zm-9.71 0V221.9a8.7 8.7 0 0 0-2.63-6.38 8.58 8.58 0 0 0-6.29-2.63h-.4c-2.44 0-4.54.88-6.29 2.63a8.7 8.7 0 0 0-2.62 6.38v20.72c0 2.44.87 4.54 2.62 6.29a8.58 8.58 0 0 0 6.3 2.62h.4c2.44 0 4.53-.87 6.28-2.62a8.59 8.59 0 0 0 2.63-6.3z"/></g></g></svg>
