<?xml version="1.0" encoding="UTF-8" standalone="no"?>
<svg
   version="1.1"
   width="981.5943"
   height="981.5943"
   id="svg1012"
   sodipodi:docname="icon.svg"
   inkscape:version="1.1.2 (0a00cf5339, 2022-02-04)"
   xmlns:inkscape="http://www.inkscape.org/namespaces/inkscape"
   xmlns:sodipodi="http://sodipodi.sourceforge.net/DTD/sodipodi-0.dtd"
   xmlns="http://www.w3.org/2000/svg"
   xmlns:svg="http://www.w3.org/2000/svg">
  <defs
     id="defs1016" />
  <sodipodi:namedview
     id="namedview1014"
     pagecolor="#ffffff"
     bordercolor="#666666"
     borderopacity="1.0"
     inkscape:pageshadow="2"
     inkscape:pageopacity="0.0"
     inkscape:pagecheckerboard="0"
     showgrid="false"
     inkscape:zoom="0.60283615"
     inkscape:cx="97.870706"
     inkscape:cy="528.33593"
     inkscape:window-width="1551"
     inkscape:window-height="1082"
     inkscape:window-x="2896"
     inkscape:window-y="150"
     inkscape:window-maximized="0"
     inkscape:current-layer="svg1012"
     fit-margin-top="0"
     fit-margin-left="0"
     fit-margin-right="0"
     fit-margin-bottom="0" />
  <g
     id="g17865"
     transform="matrix(1.0629846,0,0,1.0629846,-63.473429,-46.311698)">
    <path
       d="m 0,0 c 3.0795007,0.9049823 5.8090412,0.79011439 8.9963379,0.58666992 0,0.65999998 0,1.31999998 0,1.99999998 2.4370781,0.9802271 4.8746391,1.9592217 7.3125001,2.9375 1.035439,0.4166895 1.035439,0.4166895 2.091797,0.8417969 2.848381,1.1421044 5.68361,2.2500054 8.595703,3.2207031 0.804375,0.6496871 0.804375,0.6496871 1.625,1.3125001 2.945927,2.093158 6.039051,3.400665 9.351562,4.820312 3.079483,1.319779 5.601668,2.933956 8.335938,4.867188 2.908743,2.056181 5.824191,4.091818 8.78125,6.078125 17.602908,11.877691 33.008246,26.15621 45.662602,43.242676 1.15432,1.558583 2.32903,3.102007 3.50537,4.644043 8.45021,11.545083 22.73828,31.322506 22.73828,46.035156 0.99,0 1.98,0 3,0 0.11215,1.28262 0.22429,2.56523 0.33984,3.88672 0.57042,5.1378 1.81723,9.96152 3.22266,14.92578 0.46424,1.65106 0.92405,3.30337 1.3789,4.95703 0.20311,0.71777 0.40622,1.43553 0.61548,2.17505 0.44312,2.05542 0.44312,2.05542 0.44312,6.05542 0.66,0 1.32,0 2,0 0.14716,1.56238 0.29261,3.12491 0.4375,4.6875 0.0928,0.99129 0.18562,1.98258 0.28125,3.00391 0.19528,2.29722 0.35977,4.59719 0.5,6.89843 0.0722,1.16661 0.14437,2.33321 0.21875,3.53516 0.0606,1.0957 0.12117,2.19141 0.18359,3.32031 0.12504,0.84305 0.25008,1.6861 0.37891,2.55469 0.66,0.33 1.32,0.66 2,1 0.3789,2.99219 0.3789,2.99219 0.5625,6.875 0.2387,4.59676 0.51236,9.17166 1,13.75 0.59098,6.12224 0.52542,12.23032 0.4375,18.375 0.66,0.33 1.32,0.66 2,1 -0.0326,1.42204 -0.0326,1.42204 -0.0659,2.8728 -0.17996,11.7487 0.63953,23.3399 1.66504,35.03858 0.27572,3.14935 0.54034,6.2995 0.80322,9.44995 0.86149,10.16577 1.83231,20.28789 3.23486,30.39429 0.34818,3.11363 0.4288,6.11459 0.3628,9.24438 0.66,0 1.32,0 2,0 -0.0309,1.12487 -0.0617,2.24974 -0.0935,3.40869 0.004,4.79593 0.73603,9.3434 1.5896,14.05225 0.153,0.87178 0.306,1.74356 0.46364,2.64175 0.32213,1.82751 0.64753,3.65444 0.97606,5.48081 0.50375,2.80288 0.99669,5.60751 1.48804,8.41259 0.31512,1.78006 0.63086,3.56001 0.94726,5.33985 0.14796,0.83953 0.29591,1.67906 0.44835,2.54403 0.69591,4.18105 0.69591,4.18105 2.18056,8.12003 0.1853,1.35629 0.33029,2.71827 0.45141,4.08179 0.47517,4.62145 1.32125,9.07757 2.32593,13.60962 0.25712,1.18431 0.25712,1.18431 0.51943,2.39256 0.36013,1.65501 0.72242,3.30955 1.08677,4.96364 0.55313,2.51115 1.10003,5.0236 1.64575,7.53637 0.35316,1.61922 0.70666,3.23837 1.06055,4.85743 0.16153,0.7398 0.32306,1.47961 0.48949,2.24183 0.4647,2.1077 0.94089,4.21245 1.42067,6.31676 0.24425,1.10914 0.24425,1.10914 0.49344,2.24069 0.92629,4.30149 0.92629,4.30149 3.50656,7.75931 -0.66,0 -1.32,0 -2,0 0.27715,0.89203 0.55429,1.78406 0.83984,2.70312 0.36223,1.17047 0.72445,2.34094 1.09766,3.54688 0.35965,1.16016 0.71929,2.32031 1.08984,3.51562 0.72532,2.4119 1.36799,4.79309 1.97266,7.23438 1.21722,4.64899 2.45202,9.29333 3.6875,13.9375 0.26587,0.9997 0.26587,0.9997 0.53711,2.01959 3.12123,11.72116 6.38199,23.39738 9.77539,35.04291 0.66,-0.66 1.32,-1.32 2,-2 -0.12375,1.52561 -0.12375,1.52561 -0.25,3.08203 0.0106,6.07163 1.94937,11.73303 3.63928,17.50739 13.21492,45.39904 20.08294,91.62691 22.49213,138.77819 1.04017,20.34786 2.72959,40.0177 8.54095,59.64801 0.38941,1.33775 0.75719,2.68196 1.10449,4.03125 0.4341,1.66693 0.94686,3.31298 1.47315,4.95313 0.66,0.33 1.32,0.66 2,1 0.65475,1.58518 1.30715,3.17136 1.94922,4.76172 4.89282,10.48392 4.89282,10.48392 12.92578,18.11328 2.125,1.125 2.125,1.125 4.35547,3.91406 2.64123,3.23624 5.67387,5.5151 9.20703,7.71094 0.91688,0.57573 0.91688,0.57573 1.85229,1.16309 16.54454,10.11537 35.32236,14.25508 54.09375,18.10644 10.6467,2.24716 21.33885,4.77605 27.93286,14.08984 4.71632,8.74244 3.71421,19.4933 1.1211,28.76563 -3.26418,9.37731 -7.99035,18.09479 -14.27344,25.78906 -1.37223,1.69976 -1.37223,1.69976 -2.16406,4.58594 -2.43346,2.58073 -5.26171,4.75142 -8,7 -0.50258,0.41878 -1.00515,0.83757 -1.52295,1.26904 -12.7574,10.58593 -25.88771,18.06539 -41.47705,23.73096 -1.57781,0.57621 -1.57781,0.57621 -3.1875,1.16406 -2.8125,0.83594 -2.8125,0.83594 -6.8125,0.83594 -0.33,0.99 -0.66,1.98 -1,3 0,-0.66 0,-1.32 0,-2 -2.31,0.33 -4.62,0.66 -7,1 0.33,0.99 0.66,1.98 1,3 -1.32,0.33 -2.64,0.66 -4,1 0,-0.66 0,-1.32 0,-2 -2.64,0 -5.28,0 -8,0 -0.33,0.66 -0.66,1.32 -1,2 -6.75862,0.0256 -13.51723,0.043 -20.27588,0.0549 -2.2946,0.005 -4.5892,0.0118 -6.88379,0.0205 -3.31658,0.0123 -6.63311,0.0178 -9.94971,0.0222 -1.51482,0.008 -1.51482,0.008 -3.06024,0.0156 -6.98852,5.3e-4 -13.87568,-0.43478 -20.83038,-1.1133 0.0209,0.61883 0.0419,1.23766 0.0635,1.87524 0.21929,7.79598 -0.88433,13.73509 -6.32128,19.56226 -5.85238,5.24877 -13.41947,6.72252 -20.86329,8.63281 -0.95003,0.3068 -1.90007,0.6136 -2.8789,0.92969 -0.33,0.66 -0.66,1.32 -1,2 -1.02738,-0.04 -2.05477,-0.0799 -3.11328,-0.12109 -6.42443,0.001 -12.73341,1.11933 -19.07422,2.05859 -13.07122,1.92564 -25.90375,3.2491 -39.125002,3.125 -1.414424,-0.007 -1.414424,-0.007 -2.857422,-0.0137 -2.276766,-0.0116 -4.553383,-0.0278 -6.830078,-0.0488 -0.33,0.66 -0.66,1.32 -1,2 -0.99,-0.33 -1.98,-0.66 -3,-1 -1.894899,-0.0602 -3.791935,-0.0605 -5.6875,-0.0273 -1.741806,0.0203 -1.741806,0.0203 -3.518799,0.041 -1.251921,0.0161 -2.503843,0.0322 -3.793701,0.0488 -12.523822,0.0942 -24.850363,-0.54604 -37.332031,-1.625 -3.472987,-0.29915 -6.881722,-0.48079 -10.367188,-0.4375 -1.089258,0 -2.178515,0 -3.300781,0 -0.33,-0.33 -0.66,-0.66 -1,-1 -1.712459,-0.31084 -3.43516,-0.56552 -5.160156,-0.79688 -1.091756,-0.15138 -2.1835111,-0.30276 -3.30835,-0.45874 -1.186018,-0.16314 -2.3720361,-0.32629 -3.5939941,-0.49438 -13.1145149,-1.87723 -26.0214789,-4.31381 -38.9374999,-7.25 -0.856099,-0.19175 -1.712197,-0.3835 -2.594238,-0.58105 -18.059411,-4.09305 -35.93334,-9.59261 -52.796387,-17.29004 -2.439851,-1.1522 -2.439851,-1.1522 -4.478027,-1.54688 -2.524414,-0.68937 -4.54946,-1.76186 -6.842286,-3.02344 -0.90839,-0.49733 -1.81677,-0.99467 -2.75269,-1.50708 -0.96075,-0.53262 -1.9215,-1.06525 -2.91137,-1.61401 -0.98718,-0.54358 -1.97436,-1.08716 -2.99146,-1.64722 -2.88148,-1.59031 -5.75854,-3.18828 -8.63354,-4.79028 -1.09949,-0.61198 -1.09949,-0.61198 -2.22119,-1.23633 -7.02719,-3.92525 -13.83038,-8.00871 -20.37647,-12.70898 -2.36257,-1.31253 -2.36257,-1.31253 -4.89844,-0.54688 -3.01414,1.79626 -5.08737,3.9526 -7.5039,6.49219 -33.81751,29.3866 -78.51971,40.70668 -122.50781,37.72266 -22.42005,-1.86428 -44.27947,-8.50993 -60.49219,-24.72266 -0.66,0 -1.32,0 -2,0 -0.12375,-0.88688 -0.2475,-1.77375 -0.375,-2.6875 -0.48207,-3.21568 -0.48207,-3.21568 -1.63672,-5.66406 -2.0794,-5.57246 -1.90304,-11.76531 -0.11328,-17.40625 4.95154,-10.65233 13.12361,-15.72212 22.82422,-21.60938 4.26984,-2.59396 8.4534,-5.30405 12.61328,-8.07031 0.62777,-0.4129 1.25554,-0.82581 1.90234,-1.25122 5.24863,-3.38538 5.24863,-3.38538 8.72266,-8.37378 1.0625,-1.9375 1.0625,-1.9375 2.92578,-2.73047 4.66199,-2.63356 6.49149,-8.3466 8.13672,-13.20703 0.4626,-4.72045 0.37732,-9.27649 0,-14 -0.66,-0.33 -1.32,-0.66 -2,-1 0.2114,-0.68707 0.42281,-1.37414 0.64062,-2.08203 0.46636,-3.78664 -0.48986,-6.07538 -1.89062,-9.60547 -0.43828,-1.13824 -0.87656,-2.27648 -1.32813,-3.44922 -1.24582,-3.10594 -1.24582,-3.10594 -4.42187,-4.86328 0,-1.32 0,-2.64 0,-4 -0.96762,-2.01587 -1.96567,-4.01754 -3,-6 0,-0.66 0,-1.32 0,-2 -0.99,0 -1.98,0 -3,0 -0.11481,-0.88156 -0.22962,-1.76312 -0.3479,-2.67139 -0.641,-3.27192 -1.57328,-5.63312 -3.0857,-8.58642 -0.48404,-0.9552 -0.96808,-1.91039 -1.46679,-2.89453 -0.76087,-1.47147 -0.76087,-1.47147 -1.53711,-2.97266 -0.50338,-0.98871 -1.00676,-1.97742 -1.52539,-2.99609 -0.93507,-1.83537 -1.87342,-3.66906 -2.81616,-5.50049 -1.08794,-2.11931 -2.16004,-4.24548 -3.22095,-6.37842 -0.66,0 -1.32,0 -2,0 -0.0915,-1.28133 -0.18305,-2.56266 -0.27735,-3.88281 -0.59518,-5.35978 -2.29989,-10.00742 -4.28515,-14.99219 -0.65144,-1.66238 -1.29877,-3.32638 -1.94141,-4.99219 -0.2869,-0.723 -0.57379,-1.446 -0.86938,-2.19092 -0.62671,-1.94189 -0.62671,-1.94189 -0.62671,-4.94189 -0.99,0 -1.98,0 -3,0 0.33,-2.31 0.66,-4.62 1,-7 -0.66,-0.33 -1.32,-0.66 -2,-1 -0.26759,-1.9066 -0.52596,-3.81526 -0.72266,-5.73047 -0.78955,-6.7348 -0.78955,-6.7348 -4.27734,-12.26953 0.66,0 1.32,0 2,0 -0.33,-1.65 -0.66,-3.3 -1,-5 -0.66,0 -1.32,0 -2,0 -1.88236,-8.23529 -1.88236,-8.23529 0,-12 -0.0757,-1.44954 -0.22148,-2.89573 -0.40235,-4.33594 -0.67979,-6.09082 -0.944,-12.1662 -1.16015,-18.28906 -0.0417,-1.16265 -0.0835,-2.32531 -0.12647,-3.52319 -0.27,-8.13815 -0.41553,-16.27176 -0.43603,-24.41431 -0.007,-1.53358 -0.007,-1.53358 -0.0139,-3.09814 0.002,-0.93828 0.004,-1.87656 0.006,-2.84327 0.001,-0.82314 0.002,-1.64629 0.003,-2.49438 0.1294,-2.00171 0.1294,-2.00171 1.1294,-4.00171 0.24336,-1.62485 0.44024,-3.25679 0.61328,-4.89063 0.11174,-1.00941 0.22349,-2.01883 0.33862,-3.05883 0.119,-1.08918 0.238,-2.17836 0.3606,-3.30054 1.08476,-9.58678 2.50296,-19.03445 4.41723,-28.49121 1.02309,-5.19774 1.44794,-9.95917 1.27027,-15.25879 0.66,-0.33 1.32,-0.66 2,-1 0.84688,-2.24855 0.84688,-2.24855 1.50781,-4.98828 0.26426,-1.01643 0.52852,-2.03285 0.80078,-3.08008 0.26942,-1.07057 0.53883,-2.14113 0.81641,-3.24414 0.41572,-1.58845 0.41572,-1.58845 0.83984,-3.20898 1.10822,-4.32096 2.03516,-7.99327 2.03516,-12.47852 0.66,0 1.32,0 2,0 0.13728,-1.41539 0.13728,-1.41539 0.27734,-2.85938 0.71778,-5.02825 2.53334,-9.64511 4.28516,-14.39062 0.65141,-1.77448 1.29873,-3.55046 1.9414,-5.32813 0.2869,-0.77762 0.5738,-1.55525 0.86939,-2.35644 0.77189,-2.18415 0.77189,-2.18415 0.62671,-5.06543 0.66,0 1.32,0 2,0 0.18176,-0.64066 0.36351,-1.28133 0.55078,-1.94141 1.51192,-5.20255 3.19922,-10.13003 5.44922,-15.05859 -0.66,0 -1.32,0 -2,0 0.33,-0.66 0.66,-1.32 1,-2 0.66,0.33 1.32,0.66 2,1 1.9694,-6.28894 3.64746,-12.54945 5,-19 0.66,0 1.32,0 2,0 0.15058,-0.59176 0.30116,-1.18352 0.4563,-1.79321 2.15571,-8.19692 4.78654,-16.21132 7.44323,-24.25528 5.45613,-16.54228 10.49262,-33.15189 15.10047,-49.95151 -0.63124,-0.0483 -1.26248,-0.0965 -1.91284,-0.14624 -5.54419,-0.47968 -10.56113,-1.35662 -15.89966,-2.91626 -4.93254,-1.47197 -4.93254,-1.47197 -10.01172,-1.93359 -2.17578,-0.004 -2.17578,-0.004 -4.17578,-2.00391 -1.77216,-0.83227 -1.77216,-0.83227 -3.83203,-1.55859 -0.78891,-0.29826 -1.57782,-0.59652 -2.39063,-0.90381 -1.28197,-0.48268 -1.28197,-0.48268 -2.58984,-0.9751 -10.4686,-4.0466 -20.28207,-9.07912 -30.12305,-14.45264 -2.00338,-1.07703 -4.02525,-2.10259 -6.06445,-3.10986 -2.5148,-1.2574 -4.01541,-3.01177 -6,-5 -1.35716,-1.0852 -2.73301,-2.14736 -4.125,-3.1875 -5.21162,-4.00696 -10.0676,-8.33218 -14.875,-12.8125 -1.12922,-1.03061 -1.12922,-1.03061 -2.28125,-2.08203 -7.52784,-7.14349 -13.30769,-15.57542 -18.8711,-24.28906 -1.57989,-2.76399 -1.57989,-2.76399 -4.09765,-3.50391 -0.5775,-0.0413 -1.155,-0.0825 -1.75,-0.125 0,-3 0,-3 1,-6 -0.8592,-2.58346 -1.78154,-5.04933 -2.8125,-7.5625 -2.17237,-5.49951 -3.93835,-10.74933 -4.86328,-16.61719 -0.25176,-1.91159 -0.25176,-1.91159 -1.32422,-3.82031 -0.24519,-4.6412 -0.18521,-9.29056 -0.1875,-13.9375 -0.0122,-1.30131 -0.0245,-2.60262 -0.0371,-3.94336 -0.002,-1.24459 -0.004,-2.48918 -0.006,-3.77148 -0.006,-1.71691 -0.006,-1.71691 -0.0125,-3.46851 0.24292,-2.87915 0.24292,-2.87915 2.24292,-5.87915 0.78528,-2.3217 1.5299,-4.65727 2.25,-7 6.56568,-20.25615 19.60855,-34.56436 38.5,-44.25 13.50499,-6.59969 27.41824,-9.76377 42.25,-11.75 0.97324,-0.13277 1.94648,-0.26555 2.94922,-0.40234 5.81773,-0.65038 11.6404,-0.69307 17.48828,-0.72266 1.17369,-0.007 1.17369,-0.007 2.37109,-0.0144 3.56653,0.0104 6.76084,0.17752 10.19141,1.1394 2.40384,-8.40928 2.40384,-8.40928 4,-17 0.66,0 1.32,0 2,0 0.33,-1.13438 0.66,-2.26875 1,-3.4375 15.80903,-46.912385 55.16213,-84.897467 98.46484,-106.84375 C -128.52431,-12.470171 -57.664423,-21.097394 0,0 Z m 127.99634,121.58667 c 1,2 1,2 1,2 z m -452,556 c 1,2 1,2 1,2 z"
       fill="#FEF2CC"
       id="path2"
       style="fill:#f7ecca;fill-opacity:1"
       transform="translate(550.00366,55.41333)" />
    <path
       d="m 550.00366,55.41333 c 34.80608,8.955267 71.26692,34.171865 95.87944,63.63087 24.52706,26.17694 34.24956,59.21764 42.1169,88.9558 4.62752,37.97996 8.49188,73.21341 10.40236,112.36133 2.9654,37.24998 9.66418,71.72435 16.89444,109.72264 7.0246,33.49018 14.55752,60.42894 24.18316,95.17591 12.54638,33.04304 23.09267,88.38217 27.72906,130.91593 5.45222,48.75944 -2.07267,111.19603 46.0808,140.48728 36.71987,16.04791 116.65677,22.98727 73.29615,80.79409 -13.4439,24.56299 -50.8856,42.89697 -70.94732,45.88016 -9.76189,6.7081 -33.89572,3.49921 -53.748,4.76026 -32.16483,-12.34399 -24.49376,34.40781 -58.00387,31.78121 -43.73628,5.39341 -83.47859,8.56255 -127.39766,4.21142 -59.17277,-5.82435 -119.76916,-22.49308 -169.47095,-57.0884 -35.82285,31.15303 -84.19918,49.51823 -132.52592,44.72073 -48.29273,7.2657 -97.60299,-52.18309 -35.44509,-76.06039 29.4732,-12.08317 34.23884,-45.98325 18.9529,-68.66227 -12.59031,-20.51156 -23.19616,-49.30629 -32.38535,-71 -3.20307,-23.27977 -10.89117,-40.80172 -9.30362,-69.14819 -1.91659,-35.14621 3.5664,-71.69703 12.81347,-104.16431 6.03181,-26.28004 16.68036,-53.55003 24.60632,-73.1269 3.3666,-24.04481 37.33019,-74.01394 17.32889,-86.75998 -45.73776,-9.20224 -90.27381,-35.76399 -114.90968,-76.68269 -15.96235,-25.8796 -19.37645,-72.91444 6.72713,-99.20687 22.49571,-35.337 79.08938,-21.98451 101.42504,-38.34302 C 281.25992,129.5921 333.81301,78.47234 393.90296,58.541018 443.68381,41.115139 499.83374,37.407651 550.00366,55.41333 Z M 338,132 c -26.5144,23.79532 -38.98965,58.30728 -48.33975,91.66271 -37.22827,12.47932 -120.16707,-2.50334 -111.45135,62.88845 12.63374,56.9872 74.55568,82.89204 127.20056,88.94662 35.96655,20.89802 -7.31025,70.20444 -11.15735,102.50464 -24.93159,63.33701 -49.5015,129.65002 -41.86616,199.00557 1.35418,52.14047 31.83718,96.0555 48.16697,143.68168 22.85335,42.14289 -43.70409,77.42534 -47.74049,92.18537 50.49251,14.34164 106.55301,-2.70401 141.59375,-41.5625 40.68072,1.02847 74.83368,44.59625 119.28032,48.07478 57.45869,14.86265 117.81754,14.48275 176.31343,6.61272 -19.3993,-9.47373 -51.27466,-55.18989 -7.3687,-49.56682 49.23724,18.73869 110.28661,29.62898 157.69027,0.69718 19.08998,-10.9862 35.22191,-37.21178 -1.28829,-33.92853 C 789.30071,833.0471 748.49388,793.09523 740.51678,742.44707 729.93207,685.39855 736.16993,625.80339 716.70388,570.14732 685.08673,468.84665 662.75021,364.2955 659.50252,257.92651 658.05307,187.90812 619.45998,114.95417 550.16095,91.888652 479.22472,68.168841 392.96705,77.880012 338,132 Z m 340,45 1,2 z m -452,556 1,2 z"
       fill="#714f25"
       id="path4"
       style="fill:#543f21;fill-opacity:1" />
    <path
       d="M 0,0 C 0.70302246,0.12358887 1.4060449,0.24717773 2.1303711,0.37451172 39.232515,7.1871689 69.754508,27.043541 91.539551,57.868164 99.458845,69.428057 104.65213,81.72375 109,95 c 0.33902,1.029961 0.67805,2.059922 1.02734,3.121094 8.16903,27.352026 5.79037,59.430126 -6.58593,85.113276 C 89.839154,207.89457 67.220844,224.0495 44.375,239.5 23.239264,254.07458 7.1291838,271.65374 1.611084,297.31787 -0.77534366,308.33787 -4.2654635,317.45543 -14,324 c -9.104858,5.53253 -19.360606,7.83179 -29.867187,5.3125 C -54.26608,325.8558 -61.84728,319.85124 -67,310.10937 -72.929223,296.99667 -71.671627,278.02409 -67.390625,264.57812 -55.754687,234.63846 -35.600556,212.74399 -10,194 9.8987175,179.33209 28.934021,164.76764 35.585937,139.80078 38.223556,121.95953 35.346878,105.9162 25,91 17.753294,81.797557 7.0620377,76.255356 -4,73 -5.1975391,72.641641 -6.3950781,72.283281 -7.6289062,71.914062 -26.026189,67.427818 -45.060911,71.611201 -61.141602,80.84668 c -14.594255,9.057181 -23.208839,24.59795 -29.018554,40.28613 -3.347501,8.87372 -8.270175,16.7146 -16.839844,21.36719 -11.52343,4.80899 -23.25453,4.77787 -35.01953,0.75781 -8.72372,-3.68156 -15.17797,-10.39233 -18.85547,-19.13281 -3.1222,-10.70469 -2.09891,-23.84715 1.875,-34.125 0.44086,-1.184648 0.88172,-2.369297 1.33594,-3.589844 C -151.04387,69.575599 -140.16098,55.227733 -128,42 c 0.71156,-0.794063 1.42312,-1.588125 2.15625,-2.40625 C -105.60194,18.106287 -78.717241,5.241819 -50,0 c 1.167891,-0.22558594 2.335781,-0.45117188 3.539063,-0.68359375 C -31.161924,-3.2812014 -15.243948,-2.6827282 0,0 Z"
       fill="#725025"
       transform="translate(525,365)"
       id="path6"
       style="fill:#543f21;fill-opacity:1" />
    <path
       d="m 0,0 c 9.4135509,6.7576408 15.460968,15.648066 18.171875,26.910156 1.941246,11.992181 -0.15549,22.711984 -6.769531,32.894531 -6.8375726,9.063421 -15.7901382,14.247532 -26.8125,16.6875 -9.989854,0.866968 -20.126196,1.165887 -29,-4 -1.03125,-0.556875 -2.0625,-1.113749 -3.125,-1.6875 -9.536494,-7.670658 -15.311325,-17.058394 -16.875,-29.3125 -0.807633,-13.917578 2.297047,-23.15059 9.8125,-34.8124995 3.36438,-3.3643807 7.085774,-5.79973324 11.1875,-8.1875 0.694804,-0.4189453 1.389609,-0.8378906 2.105469,-1.2695313 C -29.026837,-8.9271342 -11.359009,-7.1062845 0,0 Z"
       fill="#714E25"
       transform="translate(513.41016,735.50781)"
       id="path8"
       style="fill:#543f21;fill-opacity:1" />
    <path
       d="m 0,0 c 10.236161,5.5166197 15.486974,16.309228 18.90625,27.027344 4.329482,16.038763 2.740847,33.259559 -4.8125,48.0625 -4.4192713,7.376528 -9.8964516,13.153863 -18.1875,15.9375 -6.367777,1.586792 -11.130928,1.257681 -16.972656,-1.78125 C -31.150619,83.183908 -35.112637,74.13563 -38.332031,63.105469 -42.650861,45.652965 -40.85034,26.748199 -31.523437,11.226563 -24.272775,0.07322153 -12.870708,-5.5415546 0,0 Z"
       fill="#714E24"
       transform="translate(415.09375,179.97266)"
       id="path10"
       style="fill:#543f21;fill-opacity:1" />
  </g>
</svg>
